<svg width="51" height="51" viewBox="0 0 51 51" fill="none" xmlns="http://www.w3.org/2000/svg">
<rect y="0.0333252" width="50.75" height="50" rx="25" fill="#EAF1F8"/>
<g clip-path="url(#clip0_991_1072)">
<path d="M22.3759 35.0311C19.6663 35.0298 17.0248 34.1816 14.8212 32.605C12.6175 31.0284 10.9618 28.8023 10.0857 26.2383C9.20966 23.6742 9.15707 20.9005 9.9353 18.305C10.7135 15.7096 12.2837 13.4224 14.426 11.7634C16.5683 10.1044 19.1757 9.15662 21.8833 9.05266C24.5909 8.9487 27.2632 9.69377 29.5265 11.1836C31.7897 12.6735 33.5306 14.8335 34.5055 17.3617C35.4805 19.8898 35.6407 22.6594 34.9639 25.2831C34.893 25.5347 34.7264 25.7486 34.4997 25.8789C34.2731 26.0092 34.0044 26.0456 33.7513 25.9802C33.4981 25.9148 33.2807 25.7529 33.1454 25.5292C33.0102 25.3054 32.968 25.0376 33.0279 24.7831C33.2606 23.8843 33.3776 22.9595 33.3759 22.0311C33.3759 19.8555 32.7307 17.7288 31.522 15.9198C30.3133 14.1109 28.5954 12.701 26.5854 11.8684C24.5754 11.0359 22.3637 10.818 20.2299 11.2425C18.0961 11.6669 16.1361 12.7145 14.5977 14.2529C13.0593 15.7913 12.0116 17.7513 11.5872 19.8851C11.1628 22.0189 11.3806 24.2306 12.2132 26.2406C13.0457 28.2506 14.4556 29.9686 16.2646 31.1773C18.0735 32.3859 20.2003 33.0311 22.3759 33.0311C24.6207 33.0385 26.8127 32.3507 28.6509 31.0621C29.7279 30.3227 30.6597 29.3916 31.3999 28.3151C31.5498 28.0962 31.7806 27.9458 32.0415 27.897C32.3024 27.8482 32.5719 27.9051 32.7909 28.0551C33.0098 28.2051 33.1602 28.4359 33.2089 28.6967C33.2577 28.9576 33.2008 29.2272 33.0509 29.4461C32.1734 30.7214 31.0699 31.8253 29.7949 32.7031C27.6213 34.226 25.0298 35.0392 22.3759 35.0311Z" fill="#0671D5"/>
<path d="M38.254 41.0308C37.4267 41.0286 36.6336 40.7001 36.047 40.1168L28.518 32.5878C28.3358 32.3992 28.235 32.1466 28.2373 31.8844C28.2396 31.6222 28.3447 31.3714 28.5301 31.186C28.7155 31.0006 28.9664 30.8954 29.2286 30.8931C29.4908 30.8908 29.7434 30.9916 29.932 31.1738L37.461 38.7028C37.6713 38.9131 37.9565 39.0313 38.254 39.0313C38.5514 39.0313 38.8366 38.9131 39.047 38.7028C39.2573 38.4925 39.3754 38.2072 39.3754 37.9098C39.3754 37.6123 39.2573 37.3271 39.047 37.1168L31.518 29.5878C31.3358 29.3992 31.235 29.1466 31.2373 28.8844C31.2396 28.6222 31.3447 28.3714 31.5301 28.186C31.7155 28.0006 31.9664 27.8954 32.2286 27.8931C32.4908 27.8908 32.7434 27.9916 32.932 28.1738L40.461 35.7028C40.8975 36.1393 41.1948 36.6954 41.3152 37.3008C41.4357 37.9063 41.3739 38.5339 41.1376 39.1042C40.9014 39.6745 40.5013 40.1619 39.988 40.5049C39.4747 40.8478 38.8713 41.0308 38.254 41.0308Z" fill="#0671D5"/>
<path d="M28.375 24.0273H16.375C15.8446 24.0273 15.3359 23.8166 14.9608 23.4416C14.5857 23.0665 14.375 22.5578 14.375 22.0273V19.0273C14.375 18.7621 14.4804 18.5078 14.6679 18.3202C14.8554 18.1327 15.1098 18.0273 15.375 18.0273H29.375C29.6402 18.0273 29.8946 18.1327 30.0821 18.3202C30.2696 18.5078 30.375 18.7621 30.375 19.0273V22.0273C30.375 22.5578 30.1643 23.0665 29.7892 23.4416C29.4141 23.8166 28.9054 24.0273 28.375 24.0273ZM16.375 20.0273V22.0273H28.375V20.0273H16.375Z" fill="#E3287F"/>
<path d="M26.375 30.0273H18.375C17.5794 30.0273 16.8163 29.7113 16.2537 29.1487C15.6911 28.5861 15.375 27.823 15.375 27.0273V23.0273C15.375 22.7621 15.4804 22.5078 15.6679 22.3202C15.8554 22.1327 16.1098 22.0273 16.375 22.0273H28.375C28.6402 22.0273 28.8946 22.1327 29.0821 22.3202C29.2696 22.5078 29.375 22.7621 29.375 23.0273V27.0273C29.375 27.823 29.0589 28.5861 28.4963 29.1487C27.9337 29.7113 27.1706 30.0273 26.375 30.0273ZM17.375 24.0273V27.0273C17.375 27.2926 17.4804 27.5469 17.6679 27.7345C17.8554 27.922 18.1098 28.0273 18.375 28.0273H26.375C26.6402 28.0273 26.8946 27.922 27.0821 27.7345C27.2696 27.5469 27.375 27.2926 27.375 27.0273V24.0273H17.375Z" fill="#E3287F"/>
<path d="M26.375 20.0273H18.375C18.1098 20.0273 17.8554 19.922 17.6679 19.7345C17.4804 19.5469 17.375 19.2926 17.375 19.0273V17.0273C17.375 16.2317 17.6911 15.4686 18.2537 14.906C18.8163 14.3434 19.5794 14.0273 20.375 14.0273H24.375C25.1706 14.0273 25.9337 14.3434 26.4963 14.906C27.0589 15.4686 27.375 16.2317 27.375 17.0273V19.0273C27.375 19.2926 27.2696 19.5469 27.0821 19.7345C26.8946 19.922 26.6402 20.0273 26.375 20.0273ZM19.375 18.0273H25.375V17.0273C25.375 16.7621 25.2696 16.5078 25.0821 16.3202C24.8946 16.1327 24.6402 16.0273 24.375 16.0273H20.375C20.1098 16.0273 19.8554 16.1327 19.6679 16.3202C19.4804 16.5078 19.375 16.7621 19.375 17.0273V18.0273Z" fill="#E3287F"/>
</g>
<defs>
<clipPath id="clip0_991_1072">
<rect width="32" height="32" fill="white" transform="translate(9.375 9.03333)"/>
</clipPath>
</defs>
</svg>
