<svg width="51" height="51" viewBox="0 0 51 51" fill="none" xmlns="http://www.w3.org/2000/svg">
<rect y="0.0333252" width="50.75" height="50" rx="25" fill="#EAF1F8"/>
<g clip-path="url(#clip0_991_624)">
<g clip-path="url(#clip1_991_624)">
<path d="M30.375 34.0334H22.375C22.1098 34.0334 21.8554 33.928 21.6679 33.7405C21.4803 33.5529 21.375 33.2986 21.375 33.0334C21.375 32.7681 21.4803 32.5138 21.6679 32.3262C21.8554 32.1387 22.1098 32.0334 22.375 32.0334H29.375C29.375 31.5029 29.1643 30.9942 28.7892 30.6191C28.4141 30.2441 27.9054 30.0334 27.375 30.0334H26.447C25.5506 30.0341 24.6742 29.7685 23.929 29.2704C22.5113 28.3252 20.8099 27.9004 19.1143 28.0683C17.4188 28.2362 15.8337 28.9865 14.629 30.1914L11.082 33.7404C10.8934 33.9225 10.6408 34.0233 10.3786 34.021C10.1164 34.0187 9.86557 33.9136 9.68016 33.7282C9.49475 33.5428 9.38958 33.2919 9.38731 33.0298C9.38503 32.7676 9.48582 32.515 9.66798 32.3264L13.217 28.7774C14.7484 27.246 16.763 26.2925 18.9182 26.079C21.0733 25.8655 23.2359 26.4052 25.038 27.6064C25.4548 27.8855 25.9453 28.0342 26.447 28.0334H27.375C28.4358 28.0334 29.4533 28.4548 30.2034 29.2049C30.9536 29.9551 31.375 30.9725 31.375 32.0334V33.0334C31.375 33.2986 31.2696 33.5529 31.0821 33.7405C30.8945 33.928 30.6402 34.0334 30.375 34.0334Z" fill="#0671D5"/>
<path d="M34.375 19.0333H22.375C21.8446 19.0333 21.3359 18.8226 20.9608 18.4475C20.5857 18.0725 20.375 17.5638 20.375 17.0333V14.0333C20.375 13.7681 20.4804 13.5138 20.6679 13.3262C20.8554 13.1387 21.1098 13.0333 21.375 13.0333H35.375C35.6402 13.0333 35.8946 13.1387 36.0821 13.3262C36.2696 13.5138 36.375 13.7681 36.375 14.0333V17.0333C36.375 17.5638 36.1643 18.0725 35.7892 18.4475C35.4141 18.8226 34.9054 19.0333 34.375 19.0333ZM22.375 15.0333V17.0333H34.375V15.0333H22.375Z" fill="#E3287F"/>
<path d="M32.375 25.0333H24.375C23.5794 25.0333 22.8163 24.7173 22.2537 24.1546C21.6911 23.592 21.375 22.829 21.375 22.0333V18.0333C21.375 17.7681 21.4804 17.5138 21.6679 17.3262C21.8554 17.1387 22.1098 17.0333 22.375 17.0333H34.375C34.6402 17.0333 34.8946 17.1387 35.0821 17.3262C35.2696 17.5138 35.375 17.7681 35.375 18.0333V22.0333C35.375 22.829 35.0589 23.592 34.4963 24.1546C33.9337 24.7173 33.1706 25.0333 32.375 25.0333ZM23.375 19.0333V22.0333C23.375 22.2985 23.4804 22.5529 23.6679 22.7404C23.8554 22.928 24.1098 23.0333 24.375 23.0333H32.375C32.6402 23.0333 32.8946 22.928 33.0821 22.7404C33.2696 22.5529 33.375 22.2985 33.375 22.0333V19.0333H23.375Z" fill="#E3287F"/>
<path d="M32.375 15.0333H24.375C24.1098 15.0333 23.8554 14.928 23.6679 14.7404C23.4804 14.5529 23.375 14.2985 23.375 14.0333V12.0333C23.375 11.2377 23.6911 10.4746 24.2537 9.912C24.8163 9.3494 25.5794 9.03333 26.375 9.03333H30.375C31.1706 9.03333 31.9337 9.3494 32.4963 9.912C33.0589 10.4746 33.375 11.2377 33.375 12.0333V14.0333C33.375 14.2985 33.2696 14.5529 33.0821 14.7404C32.8946 14.928 32.6402 15.0333 32.375 15.0333ZM25.375 13.0333H31.375V12.0333C31.375 11.7681 31.2696 11.5138 31.0821 11.3262C30.8946 11.1387 30.6402 11.0333 30.375 11.0333H26.375C26.1098 11.0333 25.8554 11.1387 25.6679 11.3262C25.4804 11.5138 25.375 11.7681 25.375 12.0333V13.0333Z" fill="#E3287F"/>
<path d="M18.375 41.0333C18.1772 41.0333 17.9839 40.9746 17.8195 40.8647C17.6551 40.7549 17.527 40.5987 17.4513 40.416C17.3756 40.2333 17.3558 40.0323 17.3944 39.8383C17.433 39.6444 17.5282 39.4662 17.668 39.3263C18.0768 38.9151 18.5632 38.5891 19.0989 38.3672C19.6347 38.1452 20.2091 38.0317 20.789 38.0333H29.375C29.8405 38.0323 30.2995 37.9234 30.7159 37.7152C31.1323 37.507 31.4948 37.2051 31.775 36.8333L38.844 27.4083C38.3034 27.2667 37.734 27.2781 37.1995 27.4412C36.665 27.6044 36.1863 27.9129 35.817 28.3323L31.128 33.6913C31.0418 33.791 30.9368 33.8727 30.8189 33.9316C30.7011 33.9906 30.5728 34.0256 30.4413 34.0348C30.3099 34.044 30.1779 34.0271 30.053 33.9852C29.9281 33.9432 29.8128 33.877 29.7135 33.7903C29.6143 33.7036 29.5332 33.5981 29.4749 33.48C29.4166 33.3618 29.3821 33.2333 29.3736 33.1018C29.3651 32.9704 29.3827 32.8385 29.4253 32.7138C29.4679 32.5891 29.5348 32.4741 29.622 32.3753L34.312 27.0153C35.1127 26.1051 36.216 25.5157 37.4178 25.3562C38.6195 25.1966 39.8384 25.4776 40.849 26.1473C41.0895 26.308 41.2584 26.5557 41.32 26.8383C41.3504 26.9746 41.3533 27.1156 41.3284 27.253C41.3035 27.3904 41.2513 27.5214 41.175 27.6383L33.375 38.0333C32.908 38.653 32.3038 39.156 31.6098 39.503C30.9158 39.85 30.1509 40.0315 29.375 40.0333H20.789C20.4718 40.0326 20.1577 40.0946 19.8647 40.216C19.5717 40.3374 19.3057 40.5156 19.082 40.7403C18.8945 40.9279 18.6402 41.0333 18.375 41.0333Z" fill="#0671D5"/>
</g>
</g>
<defs>
<clipPath id="clip0_991_624">
<rect width="32" height="32" fill="white" transform="translate(9.375 9.03333)"/>
</clipPath>
<clipPath id="clip1_991_624">
<rect width="32" height="32" fill="white" transform="translate(9.375 9.03333)"/>
</clipPath>
</defs>
</svg>
