<svg width="51" height="51" viewBox="0 0 51 51" fill="none" xmlns="http://www.w3.org/2000/svg">
<rect y="0.0333252" width="50.75" height="50" rx="25" fill="#EAF1F8"/>
<g clip-path="url(#clip0_991_2859)">
<g clip-path="url(#clip1_991_2859)">
<path d="M40.5072 28.0646H40.3351V18.6678C40.3349 17.7242 39.5671 16.9565 38.6235 16.9564H33.8038C35.8265 16.7756 37.4175 15.0722 37.4175 13.0032C37.4176 10.8142 35.6367 9.03333 33.4477 9.03333C31.2586 9.03333 29.4777 10.8142 29.4777 13.0032C29.4777 15.0721 31.0687 16.7756 33.0914 16.9564L28.2717 16.9564C27.328 16.9564 26.5601 17.7242 26.5601 18.6679V28.0646H24.143C24.4548 27.7544 24.6481 27.3253 24.6481 26.8519V18.6678C24.6478 17.7242 23.8799 16.9565 22.9364 16.9564H18.1168C20.1394 16.7756 21.7305 15.0722 21.7305 13.0032C21.7306 10.8142 19.9497 9.03333 17.7607 9.03333C15.5716 9.03333 13.7907 10.8142 13.7907 13.0032C13.7907 15.0721 15.3817 16.7756 17.4044 16.9564L12.5847 16.9564C11.641 16.9564 10.8731 17.7242 10.8731 18.6679V26.8518C10.8731 27.3252 11.0665 27.7544 11.3783 28.0646H10.2428C9.7735 28.0646 9.39307 28.445 9.39307 28.9143C9.39307 29.3836 9.7735 29.7641 10.2428 29.7641H12.6535V38.7637C12.6535 40.0152 13.6716 41.0333 14.9231 41.0333H15.4202C16.5915 41.0333 17.5221 40.1438 17.6831 38.8702C17.7044 38.7022 17.7303 38.5026 17.7599 38.2791C17.7903 38.506 17.8169 38.7068 17.8385 38.873C18.0034 40.145 18.9339 41.0333 20.1011 41.0333H20.5981C21.8496 41.0333 22.8679 40.0152 22.8679 38.7637V29.7641H40.5073C40.9766 29.7641 41.357 29.3836 41.357 28.9143C41.3569 28.445 40.9765 28.0646 40.5072 28.0646ZM31.1772 13.0032C31.1772 11.7514 32.1958 10.7328 33.4477 10.7328C34.6995 10.7328 35.718 11.7514 35.718 13.0032C35.718 14.2552 34.6995 15.2737 33.4477 15.2737C32.1958 15.2737 31.1772 14.2552 31.1772 13.0032ZM15.4903 13.0032C15.4903 11.7514 16.5088 10.7328 17.7607 10.7328C19.0126 10.7328 20.0311 11.7514 20.0311 13.0032C20.0311 14.2552 19.0126 15.2737 17.7607 15.2737C16.5088 15.2737 15.4903 14.2552 15.4903 13.0032ZM28.2596 18.668C28.2596 18.6613 28.2651 18.6559 28.2717 18.6559L31.8827 18.6559L32.5471 19.4884L31.7115 24.4566C31.6693 24.7078 31.7419 24.9647 31.9095 25.1566L32.8077 26.1848C32.969 26.3695 33.2023 26.4755 33.4476 26.4755C33.6928 26.4755 33.9262 26.3695 34.0876 26.1848L34.9857 25.1567C35.1533 24.9649 35.226 24.7079 35.1837 24.4567L34.3481 19.4884L35.0126 18.656L38.6234 18.6561C38.6301 18.6561 38.6356 18.6616 38.6356 18.6682V28.0646H28.2596V18.668ZM21.1682 27.7137V38.7637C21.1682 39.0781 20.9124 39.3338 20.598 39.3338H20.101C19.7149 39.3338 19.5565 38.9067 19.5238 38.6543C19.3107 37.0115 18.6091 32.0117 18.6021 31.9614C18.5432 31.542 18.1846 31.23 17.7611 31.2298C17.7609 31.2298 17.7607 31.2298 17.7605 31.2298C17.3373 31.2298 16.9786 31.5413 16.9191 31.9604C16.9122 32.01 16.2129 36.9482 15.9969 38.6571C15.9651 38.9084 15.8079 39.3338 15.42 39.3338H14.923C14.6086 39.3338 14.3529 39.078 14.3529 38.7637V27.7137C14.3529 27.2444 13.9725 26.8639 13.5031 26.8639H12.5847C12.578 26.8639 12.5725 26.8585 12.5725 26.8518V18.668C12.5725 18.6613 12.5779 18.6559 12.5846 18.6559L22.9364 18.6559C22.9431 18.6559 22.9486 18.6615 22.9486 18.6681V26.852C22.9486 26.8586 22.9432 26.864 22.9365 26.864H22.0179C21.5487 26.8639 21.1682 27.2444 21.1682 27.7137Z" fill="#0671D5"/>
</g>
</g>
<defs>
<clipPath id="clip0_991_2859">
<rect width="32" height="32" fill="white" transform="translate(9.375 9.03333)"/>
</clipPath>
<clipPath id="clip1_991_2859">
<rect width="32" height="32" fill="white" transform="translate(9.375 9.03333)"/>
</clipPath>
</defs>
</svg>
