<svg width="51" height="51" viewBox="0 0 51 51" fill="none" xmlns="http://www.w3.org/2000/svg">
<rect y="0.0332031" width="50.75" height="50" rx="25" fill="#EAF1F8"/>
<g clip-path="url(#clip0_1954_4601)">
<g clip-path="url(#clip1_1954_4601)">
<path d="M21.5834 10.8806H24.652C25.8144 10.8806 26.783 11.7109 27.0044 12.8075H28.7549C28.5196 10.7526 26.7692 9.15088 24.652 9.15088H21.5834C19.4662 9.15088 17.7157 10.7526 17.4805 12.8075H19.231C19.4524 11.7074 20.421 10.8806 21.5834 10.8806Z" fill="#0671D5"/>
<path d="M13.7754 20.1865C16.2593 21.7917 19.5769 22.6773 23.1194 22.6773C26.6619 22.6773 29.9761 21.7917 32.4634 20.1865C34.6982 18.7439 35.9955 16.8793 36.1547 14.9039C35.5562 14.1532 34.636 13.6724 33.5981 13.6724H28.7825H27.0528H19.186H17.4563H12.6407C11.6063 13.6724 10.6827 14.1532 10.0842 14.9039C10.2433 16.8793 11.5406 18.7405 13.7754 20.1865Z" fill="#0671D5"/>
<path d="M21.9363 24.9847C21.9363 25.5244 22.3756 25.9637 22.9153 25.9637H23.3201C23.8598 25.9637 24.2991 25.5244 24.2991 24.9847V24.2029H21.9363V24.9847Z" fill="#0671D5"/>
<path d="M12.6407 30.385H27.1532V28.1813C27.1532 27.915 27.2604 27.6624 27.4507 27.4756L30.7614 24.2202C30.9482 24.0369 31.1973 23.9366 31.4567 23.9366H36.8604V17.4397C36.7151 17.7372 36.5491 18.0313 36.3588 18.3219C35.615 19.46 34.5529 20.4771 33.2107 21.3454C31.1246 22.6946 28.5127 23.5733 25.6829 23.9089V24.1994V24.9813C25.6829 26.2856 24.6243 27.3441 23.32 27.3441H22.9153C21.6111 27.3441 20.5525 26.2855 20.5525 24.9813V24.1995V23.9089C17.7226 23.5767 15.1107 22.6946 13.0247 21.3454C11.6824 20.4771 10.6204 19.46 9.87659 18.3219C9.68635 18.0313 9.5203 17.7372 9.375 17.4397V27.1193C9.375 28.9216 10.8384 30.385 12.6407 30.385Z" fill="#0671D5"/>
<path d="M32.1936 24.7253C31.73 24.7253 31.2768 24.9156 30.9482 25.2443L28.5577 27.6521C28.229 27.9842 28.0491 28.4201 28.0491 28.8871V30.3851V30.8175V31.25V39.1617C28.0491 39.2447 28.0561 39.3278 28.0664 39.4073C28.1841 40.2583 28.9175 40.9156 29.8031 40.9156H39.621C40.5862 40.9156 41.375 40.1303 41.375 39.1617V26.4759C41.375 25.6283 40.773 24.9225 39.9739 24.7599C39.8597 24.7357 39.7421 24.7253 39.6245 24.7253H37.7252H37.2928H36.8604H32.1936ZM37.7252 26.4551H39.621C39.6349 26.4551 39.6452 26.4655 39.6452 26.4793V39.1651C39.6452 39.1686 39.6452 39.1686 39.6452 39.1721C39.6418 39.1824 39.6349 39.1894 39.6245 39.1894C39.6245 39.1894 39.6245 39.1894 39.621 39.1894H29.8031C29.7892 39.1894 29.7789 39.179 29.7789 39.1651V31.2499V30.8175V30.3851V29.2434H31.0485C31.8407 29.2434 32.4842 28.5999 32.4842 27.8078V26.4551H36.8604H37.2928H37.7252Z" fill="#E3287F"/>
<path d="M35.3209 30.3884H31.5536C31.2353 30.3884 30.9586 30.5614 30.8063 30.8174C30.7302 30.9454 30.6887 31.0906 30.6887 31.2498V31.2533C30.6887 31.7307 31.0762 32.1182 31.5536 32.1182H37.874C38.3514 32.1182 38.7389 31.7307 38.7389 31.2533C38.7389 30.7759 38.3514 30.3884 37.874 30.3884H36.1201H35.3209Z" fill="#E3287F"/>
<path d="M37.874 35.8372H31.5536C31.0762 35.8372 30.6887 36.2246 30.6887 36.702C30.6887 37.1794 31.0762 37.5669 31.5536 37.5669H37.874C38.3514 37.5669 38.7389 37.1794 38.7389 36.702C38.7389 36.2246 38.3514 35.8372 37.874 35.8372Z" fill="#E3287F"/>
<path d="M37.874 33.1145H31.5536C31.0762 33.1145 30.6887 33.502 30.6887 33.9794C30.6887 34.4568 31.0762 34.8442 31.5536 34.8442H37.874C38.3514 34.8442 38.7389 34.4568 38.7389 33.9794C38.7389 33.502 38.3514 33.1145 37.874 33.1145Z" fill="#E3287F"/>
</g>
</g>
<defs>
<clipPath id="clip0_1954_4601">
<rect width="32" height="32" fill="white" transform="translate(9.375 9.0332)"/>
</clipPath>
<clipPath id="clip1_1954_4601">
<rect width="32" height="32" fill="white" transform="translate(9.375 9.0332)"/>
</clipPath>
</defs>
</svg>
