<svg width="72" height="56" viewBox="0 0 72 56" fill="none" xmlns="http://www.w3.org/2000/svg">
<path d="M29.2322 55.3672C30.1251 55.2298 30.9338 54.8164 31.5138 54.2009L44.4698 40.4371C44.8246 40.0596 45.0825 39.6186 45.2257 39.1444C45.3689 38.6703 45.3939 38.1744 45.2991 37.6908L38.7382 4.5436C38.6132 3.90729 38.2848 3.31591 37.7916 2.83938C37.2984 2.36286 36.6611 2.02112 35.9551 1.85459C35.2491 1.68806 34.5039 1.70369 33.8077 1.89965C33.1114 2.0956 32.4932 2.46368 32.0261 2.96036L21.149 14.5187L6.47536 6.91196C5.84564 6.58521 5.12328 6.42455 4.39357 6.44897C3.66388 6.47338 2.95731 6.68185 2.35735 7.04974C1.75738 7.41764 1.28908 7.9296 1.00772 8.52516C0.726372 9.12072 0.643719 9.77501 0.769547 10.4107L7.3305 43.558C7.42606 44.0426 7.64058 44.5029 7.95897 44.9064C8.27737 45.31 8.69191 45.647 9.17345 45.8937L26.6447 54.9567C27.426 55.3575 28.3419 55.5028 29.2322 55.3672ZM34.8385 4.45565C35.0383 4.42537 35.2436 4.4663 35.4094 4.56948C35.5752 4.67266 35.688 4.82969 35.7231 5.0062L42.2803 38.1534C42.3011 38.2498 42.297 38.3491 42.2683 38.4438C42.2395 38.5386 42.187 38.6264 42.1145 38.7007L29.1585 52.4678C29.0436 52.5918 28.8821 52.6752 28.7035 52.7027C28.5248 52.7302 28.3409 52.7 28.1854 52.6177L10.7105 43.5547C10.614 43.5058 10.531 43.4387 10.4673 43.3582C10.4036 43.2776 10.3608 43.1857 10.3419 43.0888L3.78096 9.94163C3.75627 9.81391 3.77331 9.68262 3.83011 9.56316C3.88692 9.44371 3.98112 9.34107 4.10163 9.26729C4.22186 9.19475 4.36286 9.1538 4.50833 9.14919C4.6538 9.14458 4.79779 9.17649 4.92358 9.24123L20.7141 17.4311C21.0271 17.5937 21.3953 17.6528 21.753 17.5979C22.1107 17.543 22.4348 17.3777 22.6676 17.1314L34.3814 4.68369C34.497 4.56069 34.6596 4.47953 34.8385 4.45565Z" fill="#231916"/>
<path d="M3.24298 8.15595C3.603 7.9357 4.02675 7.81101 4.4643 7.79658C4.90185 7.78215 5.33496 7.87858 5.71255 8.07451L21.5067 16.2644L33.2132 3.82319C33.4933 3.52507 33.8642 3.30407 34.2819 3.18631C34.6996 3.06854 35.1468 3.05895 35.5705 3.15865C35.9942 3.25836 36.3768 3.46319 36.6729 3.74894C36.9691 4.03469 37.1665 4.38942 37.2419 4.77118L43.7881 37.9119C43.8462 38.2019 43.8321 38.4996 43.7468 38.7842C43.6615 39.0689 43.5071 39.3338 43.2941 39.5603L30.3382 53.3274C29.9887 53.6963 29.5031 53.9443 28.967 54.0278C28.4312 54.1122 27.879 54.0231 27.4115 53.777L9.93659 44.7173C9.64801 44.569 9.39956 44.3668 9.20857 44.1249C9.01757 43.8829 8.88864 43.607 8.83082 43.3164L2.26989 10.1692C2.19738 9.78653 2.2505 9.39349 2.42296 9.03667C2.59542 8.67985 2.88 8.37421 3.24298 8.15595Z" fill="white"/>
<path d="M28.5725 52.0344L11.1013 42.9747L4.54033 9.82422L22.0153 18.8872L28.5725 52.0344Z" fill="#33AA85"/>
<path d="M28.5726 52.0346L41.5286 38.2708L34.9676 5.12354L22.0153 18.8874L28.5726 52.0346Z" fill="#FFE73F"/>
<path d="M28.5724 52.3536C28.6454 52.3536 28.7164 52.333 28.7752 52.2949C28.833 52.2591 28.878 52.2094 28.9048 52.1517C28.9316 52.0939 28.9391 52.0306 28.9263 51.9692L22.3691 18.8219C22.3592 18.7768 22.3387 18.734 22.3089 18.6964C22.279 18.6588 22.2405 18.6272 22.1958 18.6037L4.71721 9.5505C4.65795 9.52366 4.59157 9.51151 4.52513 9.51534C4.45868 9.51917 4.39465 9.53883 4.33984 9.57224C4.28502 9.60565 4.24147 9.65156 4.21381 9.70509C4.18615 9.75862 4.17542 9.81778 4.18274 9.87627L10.7437 43.0267C10.753 43.0725 10.7733 43.1159 10.8032 43.1541C10.8331 43.1923 10.8718 43.2244 10.9169 43.2483L28.3881 52.308C28.444 52.3372 28.5075 52.353 28.5724 52.3536ZM21.6724 19.0858L28.0675 51.4121L11.4108 42.7726L5.01576 10.4464L21.6724 19.0858Z" fill="#211613"/>
<path d="M28.5723 52.3541C28.6249 52.3536 28.6769 52.3432 28.7245 52.3235C28.7722 52.3038 28.8146 52.2754 28.8488 52.24L41.8048 38.4729C41.8375 38.4373 41.8612 38.3959 41.8746 38.3516C41.8879 38.3072 41.8905 38.2609 41.8822 38.2156L35.3102 5.06838C35.2959 5.00973 35.2636 4.9557 35.2169 4.91225C35.1701 4.86879 35.1106 4.83759 35.0451 4.8221C34.9795 4.8066 34.9103 4.8074 34.8453 4.82441C34.7802 4.84143 34.7217 4.87399 34.6762 4.91852L21.735 18.6921C21.7023 18.7278 21.6785 18.7691 21.6651 18.8135C21.6518 18.8578 21.6492 18.9042 21.6576 18.9495L28.2185 52.0967C28.231 52.1564 28.2621 52.2118 28.3083 52.2567C28.3546 52.3016 28.4141 52.3342 28.4802 52.3508C28.5106 52.3553 28.5416 52.3564 28.5723 52.3541ZM41.145 38.1798L28.7935 51.3018L22.4095 18.9788L34.761 5.85348L41.145 38.1798Z" fill="#211613"/>
<g style="mix-blend-mode:multiply" opacity="0.2">
<path d="M32.4981 10.0196C32.6787 9.12043 34.2305 9.50159 34.0499 10.4007C33.8398 11.4269 33.8287 12.1664 34.7871 12.8798C35.6609 13.5153 36.613 14.0617 37.6252 14.5087C38.5504 14.9257 37.7358 16.1538 36.8143 15.7368C35.4985 15.1407 34.002 14.3849 33.04 13.3717C32.0779 12.3586 32.2622 11.1793 32.4981 10.0196Z" fill="#211613"/>
</g>
<g style="mix-blend-mode:multiply" opacity="0.2">
<path d="M25.8116 26.4842C25.7574 25.6262 25.9199 24.7682 26.2871 23.9725C26.5082 23.5099 27.2712 23.4154 27.7172 23.6467C27.9502 23.7756 28.1183 23.9785 28.1869 24.2137C28.2554 24.4489 28.2193 24.6984 28.0858 24.9107C27.7909 25.5166 27.8941 26.2138 27.9052 26.8653C27.9052 27.2335 27.6656 28.1489 27.9789 28.3802C28.2922 28.6115 29.4533 28.4747 29.8551 28.4649C30.7249 28.4421 31.5911 28.3932 32.4573 28.3411C34.0754 28.2434 35.6972 28.1261 37.319 28.1391C38.1817 28.1431 39.0433 28.1932 39.8992 28.289C40.6364 28.3704 41.5247 28.6766 42.2618 28.5431C43.5777 28.3085 44.138 30.0905 42.8184 30.325C41.8232 30.5042 40.9239 30.2762 39.9397 30.1426C38.8599 30.015 37.7704 29.9638 36.6814 29.9895C34.514 30.0123 32.3541 30.2338 30.1868 30.3153C28.6645 30.3641 26.3829 30.4749 25.8485 28.8265C25.6199 28.1033 25.8263 27.2172 25.8116 26.4842Z" fill="#211613"/>
</g>
<path d="M47.9901 24.6957C44.5401 24.5719 41.2854 24.4547 39.5678 23.321C37.8501 22.1873 36.9102 20.8907 37.0982 17.405C37.1484 16.4378 37.2716 15.4746 37.4668 14.5219C37.4808 14.4975 37.4995 14.4755 37.5221 14.4567C37.8835 13.9786 38.3519 13.571 38.8983 13.2589C39.4447 12.9468 40.0576 12.737 40.6993 12.6422L41.0679 12.5933C41.5582 12.5379 42.0668 12.4793 42.24 12.2219C42.2765 12.1666 42.2979 12.1045 42.3024 12.0406C42.3068 11.9767 42.2943 11.9127 42.2658 11.8538C42.0696 11.1677 41.9304 10.4697 41.8493 9.76563C41.8436 9.72043 41.8545 9.67479 41.8804 9.63548C41.9062 9.59617 41.9458 9.56527 41.9931 9.54736C42.0889 9.50827 42.1848 9.47243 42.2843 9.43986C42.3151 9.42611 42.3492 9.41895 42.3838 9.41895C42.4184 9.41895 42.4525 9.42611 42.4833 9.43986C42.5138 9.4541 42.5404 9.47398 42.5614 9.49816C42.5824 9.52233 42.5973 9.55023 42.6049 9.57994C42.9219 10.883 43.6296 12.5119 44.588 12.8376C45.4321 13.1243 49.4755 13.6879 51.0052 13.6879C51.1662 13.7024 51.329 13.6891 51.4843 13.6488C51.5132 13.6364 51.5366 13.6157 51.5507 13.5902C51.566 13.5639 51.5873 13.5408 51.6134 13.5223C51.6394 13.5038 51.6695 13.4903 51.7018 13.4827C51.7339 13.4751 51.7673 13.4732 51.8002 13.4771C51.8331 13.481 51.8648 13.4906 51.8935 13.5055C52.3735 13.7634 52.9013 13.9443 53.4526 14.0397C54.0018 14.144 54.5584 14.2319 55.0818 14.3069C55.1314 14.3149 55.1774 14.3352 55.2145 14.3655L55.2366 14.3851C55.7549 14.6165 56.2484 14.8891 56.711 15.1995C56.9911 15.4959 57.743 17.203 57.5292 18.1966C57.5239 18.2175 57.526 18.2394 57.5352 18.2592C57.5445 18.279 57.5604 18.2958 57.5808 18.3074C57.6013 18.3186 57.6249 18.3246 57.649 18.3246C57.6731 18.3246 57.6968 18.3186 57.7172 18.3074C58.38 17.7934 58.8268 17.0965 58.9852 16.3299C58.9897 16.3121 58.9958 16.2947 59.0036 16.2778C59.1094 16.0742 59.2601 15.8913 59.4468 15.7397C59.6335 15.5881 59.8525 15.4709 60.0909 15.395C60.1191 15.3918 60.1476 15.3918 60.1757 15.395H60.1941H60.231C60.257 15.3854 60.2842 15.3789 60.3121 15.3754C60.3759 15.3722 60.4399 15.3722 60.5038 15.3754C61.0751 15.4112 61.5284 15.8217 61.7422 16.4993C61.8497 16.9108 61.8287 17.3403 61.6813 17.742C61.5339 18.1436 61.2658 18.5023 60.9055 18.7797C60.3342 19.2456 59.6339 19.4313 59.1215 19.2684C59.0917 19.2588 59.0588 19.2599 59.0299 19.2715C59.001 19.283 58.9783 19.3041 58.9667 19.3303C58.9593 19.3485 58.9577 19.3683 58.9623 19.3873C58.9669 19.4063 58.9773 19.4238 58.9925 19.4378C59.0246 19.4698 59.0449 19.5097 59.0508 19.5521C59.0568 19.5946 59.048 19.6376 59.0257 19.6756C58.5945 20.4387 58.0517 21.1485 57.4113 21.7866C55.5499 23.6142 52.1367 24.7478 48.5982 24.7478C48.3845 24.7055 48.1854 24.7022 47.9901 24.6957Z" fill="#FCE4DF"/>
<path d="M48.1892 8.73611C48.7248 9.34972 49.2102 9.9964 49.6414 10.6712C49.7041 10.7689 49.7741 10.8829 49.8515 11.0263C49.8593 11.0387 49.8654 11.0518 49.87 11.0654C50.1159 11.6834 50.4543 12.2696 50.8762 12.8083C50.9573 12.919 51.0495 13.0461 51.1232 13.1568C51.1453 13.1893 51.1573 13.2264 51.1579 13.2643C51.1586 13.3022 51.1479 13.3396 51.1269 13.3726C51.106 13.4057 51.0755 13.4333 51.0386 13.4526C51.0017 13.4719 50.9597 13.4823 50.9168 13.4826C49.623 13.45 45.6496 12.9646 44.6507 12.6323C43.4528 12.2284 42.8078 9.48539 42.8078 9.45932C42.795 9.40803 42.8046 9.35438 42.8347 9.30908C42.8648 9.26378 42.9131 9.23018 42.9699 9.215C44.5721 8.80331 46.2379 8.61858 47.9054 8.6677C47.9149 8.67068 47.9253 8.67068 47.9349 8.6677C47.9802 8.65563 48.0285 8.65569 48.0738 8.66787C48.119 8.68004 48.1592 8.70379 48.1892 8.73611Z" fill="#896E6C"/>
<path d="M45.0045 5.8171C44.9564 5.79132 44.9204 5.75124 44.9028 5.70405C44.8852 5.65687 44.8873 5.60569 44.9086 5.55974C44.9304 5.51375 44.9694 5.47575 45.019 5.45204C45.0686 5.42833 45.1259 5.42035 45.1814 5.42943C48.0391 5.93981 50.7496 6.95811 53.1485 8.42253C55.5474 9.88694 57.5845 11.7669 59.1363 13.9483C59.1553 13.9794 59.1653 14.0141 59.1653 14.0493C59.1653 14.0846 59.1553 14.1193 59.1363 14.1503C59.1197 14.1826 59.0941 14.2106 59.0618 14.2317C59.0296 14.2528 58.9918 14.2663 58.952 14.2709C58.6443 14.309 58.3338 14.3264 58.0231 14.323C56.4908 14.2884 54.966 14.1204 53.471 13.8213C51.3995 13.4304 50.8503 12.4074 50.268 11.3259C50.2053 11.2054 50.139 11.0848 50.0726 10.9643C50.0717 10.9589 50.0717 10.9534 50.0726 10.948V10.9284C50.0173 10.834 49.9436 10.7069 49.8662 10.5831C49.0848 9.36475 47.4335 7.1495 45.0045 5.8171Z" fill="#3C80B6"/>
<path d="M59.5453 14.5314C59.6485 14.678 59.7443 14.8279 59.8439 14.9777C59.8595 15.0029 59.8692 15.0306 59.8724 15.0591C59.8756 15.0877 59.8721 15.1165 59.8623 15.1439C59.853 15.1717 59.8375 15.1976 59.8166 15.22C59.7957 15.2424 59.7698 15.2609 59.7407 15.2742C59.493 15.3876 59.2747 15.5451 59.0993 15.7368C59.0772 15.7593 59.0501 15.7776 59.0196 15.7905C58.9892 15.8033 58.9561 15.8106 58.9224 15.8117C58.8941 15.8123 58.8671 15.8218 58.8461 15.8386C58.8251 15.8553 58.8117 15.8782 58.8081 15.9029C58.8081 16.0039 58.775 16.1017 58.7528 16.1929C58.7506 16.2111 58.7444 16.2289 58.7344 16.245V16.2711C58.7261 16.2901 58.7162 16.3086 58.7049 16.3264C58.6993 16.3468 58.6993 16.368 58.7049 16.3883C58.7142 16.4182 58.7142 16.4497 58.7049 16.4796C58.6008 16.8245 58.4393 17.1538 58.2258 17.4569C58.204 17.4869 58.174 17.5117 58.1386 17.5287C58.1031 17.5458 58.0634 17.5547 58.023 17.5546C58.006 17.5576 57.9885 17.5576 57.9714 17.5546C57.9234 17.5454 57.8799 17.5232 57.8468 17.4911C57.8138 17.459 57.7929 17.4185 57.7871 17.3754C57.6736 16.5561 57.3726 15.7659 56.9025 15.0527C56.8317 14.9807 56.7483 14.9191 56.6556 14.8702C56.6127 14.8436 56.5809 14.8053 56.5651 14.7612C56.5492 14.7171 56.5501 14.6696 56.5677 14.626C56.5852 14.5824 56.6185 14.5451 56.6623 14.5198C56.7061 14.4945 56.7581 14.4826 56.8104 14.4858C57.6432 14.5724 58.4858 14.5549 59.3131 14.4337C59.3583 14.4288 59.4042 14.4354 59.4453 14.4527C59.4864 14.47 59.5211 14.4973 59.5453 14.5314Z" fill="#896E6C"/>
<path d="M41.9452 12.1764C41.6554 12.3018 41.3388 12.3717 41.0163 12.3816C40.8873 12.3816 40.7583 12.4109 40.6477 12.4305C39.7752 12.5692 38.9549 12.8959 38.2593 13.3817C38.2171 13.4134 38.1635 13.4307 38.1082 13.4306C38.0547 13.4299 38.003 13.4139 37.9607 13.385C37.9179 13.3561 37.8873 13.3153 37.874 13.2692C37.8606 13.2231 37.8652 13.1744 37.887 13.1309C38.5662 11.7318 39.7579 10.5752 41.2707 9.84709C41.3054 9.8311 41.3439 9.82275 41.3831 9.82275C41.4222 9.82275 41.4608 9.8311 41.4955 9.84709C41.5299 9.86348 41.5594 9.88674 41.5818 9.91502C41.6042 9.9433 41.6189 9.97582 41.6245 10.01C41.6957 10.657 41.8276 11.2978 42.0189 11.9255C42.0204 11.9341 42.0204 11.9429 42.0189 11.9516C42.0325 11.9913 42.0328 12.0337 42.0197 12.0736C42.0066 12.1135 41.9807 12.1492 41.9452 12.1764Z" fill="#896E6C"/>
<path d="M42.0924 5.04547H42.1145C44.0496 5.33214 45.8962 6.34855 47.6028 8.09794C47.632 8.12931 47.6509 8.16718 47.6574 8.20739C47.6639 8.24761 47.6578 8.28864 47.6397 8.32598C47.621 8.36309 47.5905 8.39458 47.5518 8.41657C47.5132 8.43857 47.4681 8.4501 47.4222 8.44977C45.4661 8.41795 43.5244 8.75096 41.7238 9.42709H41.6648C41.6434 9.43065 41.6233 9.43845 41.6058 9.44989C41.5904 9.46433 41.5715 9.47547 41.5505 9.48247C39.7985 10.2164 38.4104 11.4908 37.6471 13.066C37.6329 13.0938 37.6114 13.1184 37.5845 13.1376C37.5674 13.1532 37.5548 13.1722 37.5476 13.193C37.5476 13.2288 37.5292 13.2614 37.5218 13.294V13.3689V13.395C37.4481 13.5644 37.3891 13.7208 37.3412 13.8413C37.3297 13.8664 37.3297 13.8944 37.3412 13.9195C37.3578 13.9628 37.3578 14.0097 37.3412 14.053L37.3191 14.1443C37.3119 14.1762 37.2965 14.2064 37.2741 14.2323C37.2518 14.2583 37.223 14.2794 37.1901 14.2941C37.1578 14.3078 37.1227 14.3155 37.0869 14.3169C37.0486 14.3164 37.0109 14.3086 36.9763 14.2941C35.9037 13.8152 33.3936 12.4828 33.2904 10.4174C33.2568 9.72781 33.3888 9.03971 33.6779 8.39846C33.967 7.75721 34.4065 7.17737 34.9675 6.69712C36.5156 5.41684 38.9778 4.83697 42.0924 5.04547Z" fill="#3C80B6"/>
<g style="mix-blend-mode:multiply" opacity="0.2">
<path d="M42.0924 5.04547H42.1145C44.0496 5.33214 45.8962 6.34855 47.6028 8.09794C47.632 8.12931 47.6509 8.16718 47.6574 8.20739C47.6639 8.24761 47.6578 8.28864 47.6397 8.32598C47.621 8.36309 47.5905 8.39458 47.5518 8.41657C47.5132 8.43857 47.4681 8.4501 47.4222 8.44977C45.4661 8.41795 43.5244 8.75096 41.7238 9.42709H41.6648C41.6434 9.43065 41.6233 9.43845 41.6058 9.44989C41.5904 9.46433 41.5715 9.47547 41.5505 9.48247C39.7985 10.2164 38.4104 11.4908 37.6471 13.066C37.6329 13.0938 37.6114 13.1184 37.5845 13.1376C37.5674 13.1532 37.5548 13.1722 37.5476 13.193C37.5476 13.2288 37.5292 13.2614 37.5218 13.294V13.3689V13.395C37.4481 13.5644 37.3891 13.7208 37.3412 13.8413C37.3297 13.8664 37.3297 13.8944 37.3412 13.9195C37.3578 13.9628 37.3578 14.0097 37.3412 14.053L37.3191 14.1443C37.3119 14.1762 37.2965 14.2064 37.2741 14.2323C37.2518 14.2583 37.223 14.2794 37.1901 14.2941C37.1578 14.3078 37.1227 14.3155 37.0869 14.3169C37.0486 14.3164 37.0109 14.3086 36.9763 14.2941C35.9037 13.8152 33.3936 12.4828 33.2904 10.4174C33.2568 9.72781 33.3888 9.03971 33.6779 8.39846C33.967 7.75721 34.4065 7.17737 34.9675 6.69712C36.5156 5.41684 38.9778 4.83697 42.0924 5.04547Z" fill="#211613"/>
</g>
<path d="M62.1695 17.9323C62.139 17.9366 62.1079 17.9366 62.0773 17.9323C62.0231 17.9114 61.9793 17.8738 61.9542 17.8264C61.9291 17.779 61.9244 17.7252 61.941 17.675C62.0851 17.2685 62.0915 16.8336 61.9594 16.424C61.7198 15.6617 61.1743 15.1861 60.5035 15.1437H60.3745C60.3301 15.1447 60.2863 15.1353 60.2474 15.1164C60.2086 15.0975 60.1761 15.0698 60.1533 15.0362C56.331 8.99642 49.9323 5.38037 42.1402 4.84936C41.4793 4.80357 40.8157 4.79486 40.1535 4.8233C40.1075 4.82577 40.0617 4.81629 40.0218 4.79603C39.9818 4.77577 39.9495 4.74561 39.9287 4.70928C39.9075 4.67259 39.8986 4.63129 39.9032 4.59028C39.9077 4.54928 39.9255 4.51029 39.9545 4.47798C40.6916 3.69613 42.6083 1.80014 45.0042 1.09322C48.1741 0.158254 52.8662 0.861919 57.2488 2.93057C62.0221 5.18164 63.3674 9.47857 63.7213 11.2214C64.0979 13.4957 63.6324 15.8166 62.3943 17.8379C62.3703 17.8703 62.3365 17.8963 62.2969 17.9129C62.2572 17.9296 62.2132 17.9363 62.1695 17.9323Z" fill="#3C80B6"/>
<path d="M61.8047 19.2323C61.785 19.1979 61.7763 19.1594 61.7795 19.1209C61.7828 19.0825 61.7978 19.0455 61.8231 19.0141C62.6273 18.0106 63.2296 16.892 63.6034 15.7075C63.6172 15.659 63.6515 15.617 63.6993 15.5902C64.0499 15.3682 64.4596 15.2303 64.8885 15.1898C65.3174 15.1492 65.7509 15.2075 66.1467 15.3589C67.0534 15.7238 67.6653 16.5838 67.8238 17.724C68.0634 19.4506 69.136 19.9392 69.5857 20.0695C69.8469 20.145 70.1236 20.1695 70.3966 20.1412C70.4428 20.1355 70.4899 20.1421 70.5318 20.1601C70.5738 20.1781 70.6088 20.2066 70.6325 20.2422C70.6577 20.2772 70.6711 20.3179 70.6711 20.3595C70.6711 20.401 70.6577 20.4417 70.6325 20.4768C70.2221 20.9721 69.6806 21.371 69.0553 21.6385C68.4301 21.9059 67.7402 22.0339 67.0461 22.0111C66.8454 22.0118 66.6449 22.0031 66.4453 21.9851C64.6871 21.8352 64.4807 21.0566 64.3111 20.4312C64.1895 19.9653 64.0752 19.6526 63.6513 19.5483C63.1189 19.4318 62.5741 19.3652 62.0259 19.3496C61.9802 19.3507 61.9351 19.3403 61.8959 19.3195C61.8567 19.2987 61.8251 19.2685 61.8047 19.2323Z" fill="#896E6C"/>
<path d="M57.5771 21.8842C58.2627 21.1963 58.8393 20.4291 59.291 19.6039C59.3121 19.5682 59.3439 19.5384 59.3829 19.5177C59.4219 19.497 59.4667 19.4862 59.5122 19.4866C59.8587 19.4796 60.1975 19.3944 60.4963 19.239C60.5266 19.2244 60.5601 19.2157 60.5946 19.2135C60.629 19.2112 60.6636 19.2155 60.696 19.226C60.7284 19.2364 60.7579 19.2529 60.7826 19.2742C60.8073 19.2956 60.8265 19.3213 60.8391 19.3497C60.9316 19.5885 60.9558 19.8437 60.9095 20.0927C60.8632 20.3417 60.7478 20.5766 60.5737 20.7766C60.0662 21.5357 59.3757 22.1867 58.5514 22.6833C57.727 23.1799 56.7891 23.5099 55.8041 23.6499H55.7636C55.7148 23.6501 55.6671 23.637 55.627 23.6126C55.5868 23.5881 55.556 23.5534 55.5387 23.5131C55.5192 23.4666 55.5185 23.4156 55.5366 23.3688C55.5547 23.3219 55.5907 23.2819 55.6383 23.2557C56.3552 22.8825 57.008 22.4207 57.5771 21.8842Z" fill="#896E6C"/>
<path d="M60.3119 50.487C60.7688 50.3871 61.2019 50.2162 61.5909 49.982C61.9809 49.7835 62.3508 49.5557 62.6967 49.3012C62.7346 49.2705 62.7826 49.2514 62.8337 49.2467C62.8848 49.242 62.9363 49.252 62.9805 49.2751C63.107 49.3391 63.2157 49.4274 63.2986 49.5333C63.3815 49.6393 63.4366 49.7604 63.4597 49.8876C63.5592 50.4121 63.2016 51.2754 61.9042 52.1289C60.9606 52.7478 60.3266 52.8944 59.9396 52.8944C59.8005 52.8975 59.6622 52.8742 59.5342 52.826C59.4292 52.7834 59.3394 52.7163 59.2744 52.6319C59.2095 52.5475 59.1718 52.4491 59.1656 52.3471C59.1177 51.8585 60.0613 50.702 60.1681 50.5717C60.202 50.5282 60.2534 50.4978 60.3119 50.487Z" fill="#5A4F4A"/>
<path d="M48.3991 39.0652C48.3909 38.9294 48.3712 38.7944 48.3401 38.6613C48.3299 38.6079 48.3428 38.5531 48.3763 38.5079C48.4098 38.4626 48.4613 38.4301 48.5207 38.4169C50.2789 38.039 53.2755 37.2702 55.4945 36.674C56.6961 36.3483 57.706 36.0681 58.539 35.8368C58.5902 35.822 58.6454 35.8227 58.6961 35.8386C58.7468 35.8545 58.79 35.8848 58.8192 35.9248C58.9813 36.1561 59.7738 37.3517 59.5563 38.2443C59.3757 38.9479 59.1878 39.4692 59.0735 39.8145C59.0071 40.0067 58.9555 40.1403 58.9371 40.2412C58.8539 40.8185 58.9337 41.4049 59.1693 41.9483L59.4052 42.4011V42.4174C61.3882 46.1801 62.4719 48.3692 62.6267 48.9328C62.6355 48.9687 62.634 49.006 62.6224 49.0412C62.6108 49.0765 62.5895 49.1086 62.5604 49.1348C61.9058 49.6128 61.1692 49.9954 60.3783 50.2685H60.323C60.2875 50.269 60.2524 50.2622 60.2204 50.2486C60.1884 50.235 60.1605 50.2151 60.1387 50.1903C59.6153 49.6365 57.2305 46.4504 56.2317 45.105C56.2139 45.0864 56.2025 45.0639 56.1985 45.0399C56.1469 44.8574 56.1063 44.8314 56.0731 44.8086H56.051C56.0052 44.7926 55.9664 44.7641 55.9405 44.7271C55.3986 43.9974 54.8752 43.2872 54.4182 42.665C54.3876 42.6281 54.3712 42.5836 54.3712 42.5379C54.3712 42.4922 54.3876 42.4477 54.4182 42.4109L56.0031 40.554L56.051 40.4986C56.0609 40.4874 56.0681 40.4746 56.0722 40.4608C56.0762 40.4471 56.0771 40.4328 56.0747 40.4188C56.0723 40.4047 56.0666 40.3913 56.0581 40.3792C56.0496 40.3672 56.0384 40.3568 56.0252 40.3487C56.0129 40.3401 55.9987 40.3339 55.9834 40.3305C55.9681 40.3272 55.9522 40.3267 55.9368 40.3292C55.9214 40.3304 55.9066 40.3345 55.8932 40.3413C55.8799 40.348 55.8683 40.3572 55.8594 40.3683C55.5977 40.6745 53.5852 43.0331 53.3198 43.3589C53.0544 43.6846 51.4768 45.3787 51.4768 45.3949C51.4636 45.4129 51.4566 45.4338 51.4566 45.4552C51.4566 45.4766 51.4636 45.4975 51.4768 45.5155C51.4888 45.5347 51.5074 45.5501 51.5299 45.5595C51.5524 45.5689 51.5777 45.5717 51.6021 45.5676C53.1687 45.3102 55.089 45.0333 55.7377 45.0008C55.78 44.9989 55.822 45.007 55.8595 45.0242C55.8971 45.0413 55.9288 45.067 55.9515 45.0985L55.9921 45.1539C56.0097 45.1789 56.0221 45.2065 56.0289 45.2353C56.1287 45.9715 56.1472 46.7145 56.0842 47.4538C56.0775 47.4934 56.0584 47.5305 56.0291 47.561C55.9998 47.5915 55.9614 47.6142 55.9183 47.6265C54.9084 47.9001 48.7161 48.8383 47.6435 48.7927C46.6593 48.7504 46.1691 48.2292 46.1691 47.2062C46.1691 46.5873 47.0427 43.6455 47.9899 40.5572C48.3401 39.3193 48.3991 39.1141 48.3991 39.0652Z" fill="#3C80B6"/>
<path d="M33.2167 24.4288C33.2205 24.3732 33.249 24.3212 33.2959 24.284C33.3428 24.2468 33.4044 24.2274 33.4674 24.2301C35.1039 24.2529 44.2708 24.7579 48.8929 25.0217C48.912 25.0237 48.9312 25.0211 48.9488 25.0142C48.9663 25.0074 48.9814 24.9964 48.9925 24.9826C49.0143 24.9585 49.0417 24.9388 49.0729 24.9248C49.104 24.9107 49.1381 24.9027 49.1731 24.9012C50.7586 24.8487 52.3238 24.567 53.8063 24.0672C53.8635 24.0466 53.9276 24.0466 53.9849 24.0673C54.0421 24.088 54.0878 24.1278 54.1122 24.178L54.3223 24.5852L58.5316 32.837C58.668 33.1009 59.1619 33.456 59.9028 33.9642C60.1792 34.1531 60.5589 34.4137 60.7837 34.6157C60.8128 34.6399 60.8346 34.6702 60.8468 34.7038C60.8591 34.7374 60.8614 34.7732 60.8537 34.8079C60.8474 34.8428 60.8307 34.8756 60.8055 34.9031C60.7803 34.9305 60.7473 34.9516 60.71 34.9643C58.7306 35.6875 48.7529 38.2774 47.3633 38.4305H47.3338C47.2911 38.4307 47.2491 38.4209 47.2122 38.402C47.1753 38.3831 47.1447 38.3558 47.1237 38.323C46.7072 37.6714 45.4097 34.3909 44.7831 32.5243C44.4407 31.4776 44.2233 30.4021 44.1344 29.3154C44.1313 29.2851 44.1357 29.2546 44.1471 29.2259C44.1586 29.1973 44.1769 29.1711 44.2008 29.1493C44.2257 29.1282 44.2552 29.1119 44.2876 29.1012C44.3199 29.0906 44.3543 29.0859 44.3887 29.0874C47.9235 29.2633 51.1745 29.4131 52.0886 29.4555H52.1329C52.1635 29.4555 52.193 29.445 52.215 29.4261C52.237 29.4073 52.2498 29.3816 52.2508 29.3545C52.2523 29.3409 52.2505 29.3271 52.2454 29.3142C52.2403 29.3012 52.2321 29.2894 52.2213 29.2796C52.1992 29.2586 52.1689 29.2458 52.1365 29.2437C46.298 28.9831 34.938 28.4293 33.7364 28.2013C33.7012 28.1938 33.6682 28.1798 33.6396 28.1601C33.611 28.1404 33.5875 28.1156 33.5706 28.0872C33.3473 27.4755 33.2305 26.8373 33.2241 26.1945C33.1727 25.6069 33.1702 25.0168 33.2167 24.4288Z" fill="#3C80B6"/>
<path d="M26.5895 25.3799C27.0207 25.1942 28.2039 25.028 29.4018 24.9824C29.4304 24.9811 29.4575 24.9709 29.4784 24.9536C29.4993 24.9363 29.5127 24.9131 29.5161 24.888C29.518 24.8625 29.5098 24.8372 29.493 24.8164C29.4762 24.7957 29.4518 24.7806 29.4239 24.7739C28.581 24.6125 27.793 24.2777 27.1239 23.7966C27.0903 23.7704 27.0659 23.7362 27.0535 23.6981C27.0411 23.6601 27.0412 23.6196 27.0539 23.5816C27.0654 23.5434 27.0887 23.5089 27.1213 23.4818C27.1539 23.4548 27.1944 23.4363 27.2382 23.4285C27.7335 23.3763 28.2357 23.4162 28.7125 23.5458C30.0468 23.839 31.2079 24.0866 31.219 24.0866C31.2352 24.091 31.2525 24.0919 31.2692 24.0891C31.2859 24.0862 31.3016 24.0798 31.3148 24.0703C31.3289 24.0625 31.3409 24.0521 31.3499 24.0397C31.3588 24.0272 31.3645 24.0132 31.3664 23.9986C31.4365 23.3368 31.6217 22.6885 31.9156 22.0766C31.9369 22.0463 31.9661 22.0211 32.0007 22.0029C32.0354 21.9848 32.0744 21.9743 32.1147 21.9723C32.1554 21.971 32.1958 21.979 32.2319 21.9955C32.2681 22.0121 32.2988 22.0366 32.3211 22.0668C32.5865 22.4219 32.7339 23.5328 32.8445 24.572V24.6339C32.8457 24.6466 32.8499 24.659 32.8569 24.6703C32.8639 24.6815 32.8734 24.6913 32.885 24.699C32.9085 24.7194 32.9271 24.7438 32.9397 24.7706C32.9524 24.7975 32.9588 24.8263 32.9587 24.8554C32.9387 25.8072 33.0226 26.7585 33.2094 27.6961C33.2221 27.7437 33.2159 27.7936 33.1917 27.8376C33.1675 27.8815 33.1269 27.9167 33.0767 27.9372C33.0611 27.9431 33.0473 27.952 33.0361 27.9632C32.7671 28.2434 32.2989 28.3314 31.7866 28.4258L31.3959 28.5008C30.4111 28.7313 29.4019 28.8711 28.3845 28.9178C28.2295 28.9224 28.0744 28.9081 27.9238 28.8754C27.8883 28.8661 27.8556 28.8498 27.8281 28.8278C27.8007 28.8058 27.7792 28.7787 27.7653 28.7484C27.7523 28.7175 27.7476 28.6844 27.7514 28.6516C27.7553 28.6188 27.7676 28.5873 27.7874 28.5594C27.9901 28.276 28.7642 27.859 29.3871 27.6082C29.4134 27.5981 29.4348 27.5802 29.4476 27.5575C29.4604 27.5349 29.4638 27.509 29.4571 27.4844C29.4502 27.4603 29.4338 27.4391 29.4108 27.4248C29.3878 27.4105 29.3598 27.4039 29.3318 27.4062C28.4826 27.4825 27.6255 27.4551 26.7848 27.3247C26.7396 27.3127 26.6992 27.2893 26.6685 27.2576C26.6378 27.2258 26.618 27.1869 26.6116 27.1456C26.607 27.1037 26.616 27.0616 26.6376 27.0241C26.6591 26.9866 26.6923 26.9553 26.7332 26.9338C27.5364 26.6358 28.3823 26.4373 29.247 26.3442C29.2752 26.3398 29.3007 26.3268 29.3191 26.3074C29.3375 26.288 29.3475 26.2636 29.3475 26.2383C29.3475 26.213 29.3375 26.1885 29.3191 26.1692C29.3007 26.1498 29.2752 26.1368 29.247 26.1324C28.35 26.1328 27.4589 26.0052 26.6079 25.7545C26.5685 25.7363 26.5355 25.7089 26.5125 25.6754C26.4894 25.6418 26.4773 25.6032 26.4773 25.5639C26.4773 25.5247 26.4894 25.4861 26.5125 25.4525C26.5355 25.4189 26.5685 25.3915 26.6079 25.3734L26.5895 25.3799Z" fill="#FCE4DF"/>
<path d="M52.1404 29.654C52.2382 29.654 52.3319 29.6196 52.4011 29.5585C52.4702 29.4975 52.509 29.4146 52.509 29.3282C52.509 29.2418 52.4702 29.1589 52.4011 29.0978C52.3319 29.0367 52.2382 29.0024 52.1404 29.0024C45.2699 28.6962 34.8793 28.1717 33.7809 27.9632C33.5811 27.3865 33.4756 26.7876 33.4676 26.1845C33.424 25.6118 33.424 25.0371 33.4676 24.4644C34.9751 24.484 43.2869 24.9368 48.8784 25.2561C48.9313 25.2695 48.9869 25.2724 49.0412 25.2643C49.0955 25.2563 49.1471 25.2377 49.1922 25.2097C49.2373 25.1818 49.2747 25.1453 49.3017 25.1029C49.3287 25.0605 49.3446 25.0132 49.3483 24.9647C49.352 24.9161 49.3433 24.8675 49.3229 24.8223C49.3025 24.7771 49.2709 24.7365 49.2304 24.7035C49.1899 24.6706 49.1416 24.646 49.089 24.6317C49.0364 24.6174 48.9808 24.6136 48.9263 24.6208C33.3496 23.7282 33.1432 23.8227 33.0327 23.8715C32.8041 23.9693 32.7562 24.1973 32.7341 24.6632C32.7341 24.6957 32.653 28.1294 33.416 28.5431C33.5634 28.6245 33.8067 28.7581 43.0473 29.2337C47.5699 29.465 52.0888 29.6703 52.1368 29.6703L52.1404 29.654Z" fill="#211613"/>
<path d="M28.4805 29.3482C29.5042 29.3074 30.5194 29.1643 31.5066 28.9214L31.8752 28.8465C32.4355 28.7423 33.0178 28.6348 33.3901 28.2471C33.4334 28.2174 33.4687 28.1796 33.4934 28.1364C33.5181 28.0931 33.5316 28.0456 33.5329 27.9972C33.5341 27.9488 33.5232 27.9007 33.5008 27.8565C33.4784 27.8123 33.4452 27.7731 33.4035 27.7416C33.3618 27.7102 33.3127 27.6874 33.2597 27.6749C33.2068 27.6624 33.1514 27.6604 33.0975 27.6692C33.0436 27.678 32.9926 27.6973 32.9483 27.7257C32.9039 27.7541 32.8672 27.7909 32.8409 27.8334C32.6271 28.0581 32.1885 28.1396 31.7351 28.2243C31.5988 28.2504 31.4661 28.2732 31.3334 28.3025C29.859 28.6282 28.3847 28.7846 27.9866 28.6804C28.4155 28.3051 28.924 28.0084 29.4831 27.8073C29.5594 27.7757 29.6211 27.7219 29.658 27.6549C29.6949 27.5879 29.7047 27.5118 29.6858 27.4392C29.6635 27.3687 29.615 27.3069 29.5481 27.2638C29.4813 27.2207 29.3999 27.1987 29.3172 27.2014C28.4965 27.277 27.6679 27.2517 26.855 27.1264C27.6317 26.8406 28.4489 26.6499 29.284 26.5596C29.363 26.5383 29.4316 26.4942 29.4789 26.4344C29.5261 26.3745 29.5493 26.3024 29.5446 26.2295C29.5399 26.1567 29.5077 26.0873 29.4531 26.0325C29.3985 25.9778 29.3247 25.9408 29.2435 25.9276C28.3813 25.9259 27.5246 25.8061 26.7039 25.5725C27.5821 25.3355 28.4947 25.2126 29.413 25.2077C29.4929 25.1962 29.5664 25.1618 29.6219 25.1098C29.6775 25.0578 29.7122 24.991 29.7206 24.9198C29.729 24.8487 29.7106 24.777 29.6684 24.716C29.6261 24.655 29.5623 24.6079 29.4867 24.5822C28.6787 24.4287 27.9217 24.1121 27.2752 23.657C27.7326 23.6131 28.1954 23.6519 28.6353 23.771C29.9659 24.0642 31.1343 24.3118 31.1454 24.315C31.1946 24.3247 31.2454 24.3253 31.2949 24.3169C31.3443 24.3085 31.3913 24.2912 31.4329 24.2662C31.4748 24.2412 31.5101 24.2085 31.5362 24.1702C31.5623 24.1319 31.5787 24.0891 31.584 24.0446C31.6555 23.4121 31.8306 22.7921 32.1037 22.204C32.3691 22.5591 32.5276 24.0316 32.5903 24.6115V24.6734C32.6014 24.7569 32.6487 24.8334 32.7222 24.8869C32.7957 24.9403 32.8898 24.9665 32.9847 24.9601C33.0792 24.9502 33.1657 24.9084 33.2262 24.8435C33.2867 24.7785 33.3164 24.6954 33.309 24.6115V24.5529C33.1174 22.7448 32.9405 21.5558 32.1185 21.5167C31.9121 21.5167 31.3039 21.4743 30.9316 23.6114C30.4782 23.5169 29.6821 23.3442 28.8159 23.152C27.8723 22.9435 27.1314 22.9501 26.726 23.152C26.6544 23.1858 26.5913 23.2321 26.5406 23.2881C26.4899 23.3441 26.4526 23.4086 26.4311 23.4778C26.3426 23.8036 26.8992 24.289 27.7617 24.6734C25.8635 24.9177 25.8782 25.3933 25.8819 25.5725C25.8819 25.9178 26.2947 26.1752 27.0798 26.3446C26.3426 26.5792 25.9741 26.8658 26.0109 27.1981C26.0552 27.6151 26.6891 27.8497 27.8944 27.8692C27.2199 28.3318 27.1904 28.6901 27.2678 28.8986C27.3194 29.0387 27.4337 29.3482 28.4805 29.3482Z" fill="#211613"/>
<path d="M59.5122 19.7112C60.1516 19.6882 60.7585 19.456 61.2151 19.0597C61.6424 18.732 61.9596 18.3067 62.1318 17.8304C62.3041 17.3541 62.3249 16.8451 62.1918 16.359C61.9228 15.5088 61.2962 14.9712 60.5184 14.9256C59.7407 14.88 58.8893 15.398 58.4727 16.2515C58.4403 16.291 58.4182 16.3363 58.4082 16.3843C58.3983 16.4323 58.4006 16.4816 58.4151 16.5287C58.4295 16.5757 58.4558 16.6193 58.4919 16.6562C58.5279 16.6931 58.5729 16.7224 58.6235 16.7419C58.6741 16.7614 58.729 16.7706 58.7841 16.7688C58.8393 16.767 58.8933 16.7543 58.9421 16.7317C58.991 16.709 59.0335 16.6769 59.0664 16.6378C59.0994 16.5987 59.122 16.5535 59.1325 16.5056C59.4274 15.8997 59.9545 15.5283 60.4705 15.5609C60.9865 15.5935 61.3109 15.942 61.4989 16.5382C61.5912 16.9109 61.5683 17.2987 61.4328 17.6609C61.2973 18.0231 61.054 18.3465 60.7285 18.5971C60.2236 19.0075 59.6228 19.1835 59.1915 19.0401C59.1015 19.0124 59.0028 19.0166 58.9162 19.0519C58.8296 19.0871 58.7618 19.1506 58.7271 19.2291C58.6957 19.3086 58.7005 19.3959 58.7404 19.4724C58.7802 19.5489 58.8521 19.6088 58.9408 19.6395C59.125 19.693 59.3184 19.7172 59.5122 19.7112Z" fill="#211613"/>
<path d="M46.5931 19.9068C46.6577 19.9072 46.7212 19.8926 46.7774 19.8645C46.8579 19.82 46.9158 19.7497 46.9392 19.6684C46.9625 19.5871 46.9495 19.501 46.9027 19.4279C46.6752 19.0944 46.4745 18.7471 46.3019 18.3887C46.4859 18.3613 46.672 18.3471 46.8585 18.3464C46.9514 18.3466 47.0409 18.3159 47.1092 18.2604C47.1776 18.2048 47.2197 18.1285 47.2271 18.0467L47.3045 16.8869C47.3074 16.8441 47.3008 16.8013 47.2849 16.7608C47.2691 16.7203 47.2444 16.6829 47.2122 16.6508C47.18 16.6188 47.141 16.5926 47.0974 16.5739C47.0538 16.5551 47.0064 16.5442 46.958 16.5416C46.9096 16.539 46.8611 16.5449 46.8153 16.5589C46.7695 16.5729 46.7272 16.5948 46.6909 16.6232C46.6546 16.6516 46.625 16.6861 46.6038 16.7246C46.5826 16.7632 46.5702 16.805 46.5673 16.8478L46.512 17.7209C46.1888 17.7083 45.8727 17.8076 45.6311 17.9978C45.5095 18.1314 45.3252 18.3236 46.2798 19.7537C46.313 19.8007 46.3592 19.8394 46.414 19.8661C46.4689 19.8929 46.5305 19.9069 46.5931 19.9068Z" fill="#211613"/>
<path d="M37.426 14.2221C37.5016 14.2212 37.575 14.1997 37.6364 14.1607C37.6977 14.1216 37.7439 14.0669 37.7688 14.0038C39.0737 10.4822 42.3873 8.79148 47.9014 8.87618C47.9992 8.87618 48.0929 8.84186 48.1621 8.78077C48.2312 8.71967 48.27 8.63681 48.27 8.55041C48.27 8.46401 48.2312 8.38115 48.1621 8.32006C48.0929 8.25896 47.9992 8.22464 47.9014 8.22464C42.1145 8.15297 38.4728 10.0229 37.0759 13.7888C37.0486 13.8688 37.0571 13.9549 37.0997 14.0295C37.1422 14.104 37.2155 14.1613 37.3044 14.1895C37.342 14.2077 37.3834 14.2188 37.426 14.2221Z" fill="#211613"/>
<path d="M60.1682 15.587C60.2293 15.5844 60.2886 15.5685 60.341 15.5406C60.3934 15.5127 60.437 15.4737 60.4681 15.4272C60.4992 15.3806 60.5167 15.328 60.519 15.274C60.5214 15.22 60.5085 15.1664 60.4815 15.1179C56.6334 8.89239 50.1204 5.16556 42.1477 4.62153C38.0232 4.34462 35.7932 5.44573 34.6469 6.41978C34.0345 6.94069 33.5537 7.57019 33.2361 8.26696C32.9185 8.96372 32.7712 9.71198 32.8039 10.4626C32.9256 13.2903 36.9653 14.8019 37.1386 14.867C37.222 14.8812 37.3083 14.8696 37.3831 14.834C37.4578 14.7985 37.5164 14.7412 37.5489 14.6719C37.5814 14.6025 37.5858 14.5254 37.5614 14.4536C37.537 14.3817 37.4853 14.3194 37.415 14.2774C37.3745 14.2774 33.6296 12.857 33.5264 10.4398C33.4947 9.77947 33.6212 9.12066 33.8975 8.50651C34.1738 7.89235 34.5937 7.33668 35.1298 6.87586C36.6226 5.61187 39.0221 5.05155 42.0777 5.24701C49.8181 5.7715 56.1063 9.3843 59.8365 15.4111C59.8679 15.4647 59.9155 15.5095 59.9741 15.5406C60.0327 15.5716 60.0999 15.5877 60.1682 15.587Z" fill="#211613"/>
<path d="M58.0008 14.7468C58.5447 14.7647 59.0883 14.7064 59.6116 14.5742C59.683 14.5348 59.7371 14.475 59.7647 14.4047C59.7924 14.3343 59.7919 14.2578 59.7635 14.1877C59.7351 14.1177 59.6804 14.0583 59.6084 14.0196C59.5365 13.9808 59.4518 13.965 59.3683 13.9748C58.5058 14.2484 56.1063 14.1018 53.5372 13.6131C51.5799 13.245 51.0787 12.3101 50.5 11.235C50.3636 10.9809 50.2235 10.717 50.0577 10.4629C49.0662 8.90901 46.3165 5.23105 42.1772 4.62512C42.0832 4.61367 41.9878 4.63472 41.9109 4.68387C41.834 4.73302 41.7815 4.8065 41.7644 4.88899C41.7514 4.97208 41.7752 5.05639 41.8308 5.12435C41.8864 5.19232 41.9696 5.23871 42.0629 5.25386C45.8889 5.81418 48.4911 9.29993 49.4347 10.7757C49.5859 11.0102 49.7222 11.2643 49.8549 11.5087C50.4299 12.5837 51.086 13.7891 53.3897 14.2354C54.9036 14.5413 56.4483 14.7126 58.0008 14.7468Z" fill="#211613"/>
<path d="M61.2923 19.77C61.3455 19.77 61.3981 19.7598 61.4465 19.7401C61.4948 19.7205 61.5378 19.6917 61.5724 19.656C62.6429 18.4677 63.4266 17.0982 63.8755 15.632C64.3243 14.1657 64.4286 12.6338 64.182 11.1306C63.8134 9.32578 62.4239 4.879 57.4626 2.53997C52.9695 0.419195 48.1336 -0.294245 44.8384 0.676554C41.6095 1.62781 39.2911 4.50762 39.1915 4.62816C39.1576 4.69688 39.1515 4.77384 39.1743 4.84606C39.1971 4.91827 39.2474 4.98133 39.3167 5.02458C39.386 5.06784 39.4701 5.08864 39.5547 5.08349C39.6393 5.07833 39.7194 5.04753 39.7813 4.99628C39.8034 4.96696 42.0665 2.16533 45.0669 1.27923C48.1778 0.363815 52.8073 1.06096 57.1235 3.10029C61.8046 5.30902 63.1242 9.53102 63.4744 11.2446C63.7053 12.6574 63.6063 14.0971 63.1835 15.4749C62.7607 16.8527 62.0229 18.1392 61.0158 19.2553C60.9766 19.3026 60.9525 19.3584 60.9461 19.4167C60.9398 19.4751 60.9513 19.5339 60.9797 19.587C61.008 19.64 61.052 19.6853 61.107 19.7181C61.162 19.7509 61.226 19.77 61.2923 19.7733V19.77Z" fill="#211613"/>
<path d="M44.1897 20.8187C43.9906 20.9718 44.8642 23.3076 47.3817 23.4085C49.8991 23.5095 50.8391 21.1282 50.6511 20.8512C50.4631 20.5743 44.4919 20.5841 44.1897 20.8187Z" fill="#F29C97"/>
<path d="M47.5365 23.7282C48.163 23.7183 48.7753 23.5625 49.3119 23.2765C49.8484 22.9905 50.29 22.5844 50.5921 22.0993C50.8354 21.7279 51.1892 21.0145 50.9607 20.6855C50.8575 20.5389 50.6622 20.4867 50.3599 20.4476C49.4421 20.3271 44.4256 20.2196 43.9575 20.5812C43.7695 20.7278 43.7584 20.9884 43.9206 21.4022C44.1677 22.0497 44.6283 22.6171 45.243 23.0316C45.8578 23.4461 46.5987 23.6887 47.3706 23.7282H47.5365ZM50.2973 21.0764C50.1541 21.5498 49.8777 21.9836 49.4937 22.3371C49.2301 22.5923 48.9053 22.7923 48.5431 22.9225C48.1809 23.0526 47.7905 23.1098 47.4001 23.0897C45.5572 23.018 44.7057 21.5781 44.5509 21.0568C46.4638 20.9264 48.3855 20.933 50.2973 21.0764Z" fill="#211613"/>
<path d="M47.2306 38.8474C47.4556 38.8381 47.679 38.8098 47.8978 38.7627C49.4348 38.476 52.9881 37.5671 55.5645 36.8765C61.2666 35.3453 61.3661 35.1759 61.462 35.0261C61.6794 34.6384 61.1892 34.2996 60.2161 33.6285C59.7621 33.3485 59.3486 33.0203 58.985 32.6512L54.4219 23.7446L53.7658 24.0052L58.3326 32.9151C58.4911 33.2246 58.9813 33.5666 59.7738 34.1237C60.0466 34.3094 60.4225 34.5667 60.6363 34.7459C58.727 35.4431 48.7456 38.046 47.367 38.1958C46.9689 37.5443 45.6862 34.3517 45.0449 32.4427C44.6741 31.3004 44.4528 30.1243 44.3851 28.9374C44.3822 28.851 44.3405 28.7692 44.2693 28.7099C44.1981 28.6507 44.1032 28.6188 44.0055 28.6214C43.9077 28.624 43.8151 28.6608 43.7481 28.7238C43.681 28.7867 43.645 28.8706 43.6479 28.957C43.7173 30.1993 43.9498 31.4303 44.3409 32.6252C44.6726 33.6025 46.4124 38.3685 46.921 38.7529C46.963 38.786 47.0119 38.8114 47.0651 38.8276C47.1183 38.8439 47.1745 38.8506 47.2306 38.8474Z" fill="#211613"/>
<path d="M51.2114 36.4464C51.2502 36.4455 51.2886 36.44 51.3257 36.4301C51.4148 36.4013 51.4879 36.3432 51.5298 36.2679C51.5717 36.1927 51.5791 36.1061 51.5505 36.0261C51.1598 34.9902 49.3722 30.5401 49.339 30.488C49.2955 30.4233 49.228 30.3739 49.1479 30.3482C49.0679 30.3225 48.9803 30.3221 48.8999 30.347C48.8196 30.372 48.7515 30.4208 48.7072 30.4851C48.6629 30.5494 48.6452 30.6252 48.6571 30.6998C48.6755 30.7454 50.4669 35.1921 50.8686 36.2379C50.8954 36.2991 50.9424 36.3518 51.0036 36.389C51.0647 36.4262 51.1372 36.4462 51.2114 36.4464Z" fill="#211613"/>
<path d="M60.2383 50.705C60.4594 50.705 60.8722 50.604 61.7126 50.1642C61.9891 50.0209 62.9105 49.5127 63.0838 49.2162C63.2054 49.0045 63.3086 48.8188 59.8402 42.2382C59.7185 42.0069 59.6301 41.8408 59.5969 41.7724C59.4032 41.3095 59.3338 40.8133 59.3942 40.3227C59.4126 40.251 59.4605 40.1109 59.5232 39.935C59.6448 39.5865 59.8291 39.0587 60.0134 38.3387C60.3267 37.1204 59.162 35.612 59.114 35.5501C59.0528 35.5 58.9741 35.4697 58.8908 35.4643C58.8075 35.4588 58.7246 35.4785 58.6556 35.5202C58.5867 35.5618 58.5358 35.6229 58.5113 35.6934C58.4867 35.764 58.49 35.8398 58.5206 35.9085C58.8081 36.2799 59.5121 37.4136 59.3094 38.1889C59.1325 38.8828 58.9408 39.3975 58.8339 39.7396C58.7639 39.9383 58.7123 40.0849 58.6902 40.1891C58.5979 40.8105 58.6841 41.4423 58.9408 42.0265C58.9777 42.0981 59.0624 42.261 59.1878 42.4956C61.6057 47.0857 62.2839 48.5745 62.3908 48.9654C61.7685 49.4176 61.071 49.7824 60.323 50.047C59.7259 49.415 56.5597 45.1604 54.6099 42.5184C54.5913 42.4719 54.561 42.4298 54.5213 42.3952C54.4816 42.3606 54.4336 42.3344 54.3808 42.3186C54.328 42.3027 54.2718 42.2977 54.2165 42.3038C54.1612 42.31 54.1082 42.3271 54.0614 42.354C54.0147 42.3808 53.9755 42.4167 53.9467 42.4589C53.9179 42.5011 53.9003 42.5485 53.8953 42.5976C53.8903 42.6467 53.8979 42.6961 53.9176 42.7422C53.9373 42.7883 53.9686 42.8298 54.0091 42.8637C59.5822 50.4574 59.9065 50.5975 60.0097 50.6464C60.0788 50.6833 60.1576 50.7035 60.2383 50.705Z" fill="#211613"/>
<path d="M55.9995 44.8932C56.9579 44.7433 57.9715 45.3916 58.0858 46.8478C58.2 48.304 57.802 49.5875 57.1274 49.7374C56.4529 49.8872 55.9995 48.9881 56.1138 47.6427L55.9995 44.8932Z" fill="#5A4F4A"/>
<path d="M56.9837 50.0569C57.0621 50.0579 57.1403 50.0491 57.2159 50.0308C58.2148 49.8126 58.5539 48.2098 58.4434 46.8122C58.4385 46.4531 58.3481 46.0989 58.1779 45.7727C58.0076 45.4466 57.7615 45.1558 57.4555 44.9195C57.2429 44.7732 56.9976 44.6685 56.7358 44.6124C56.474 44.5562 56.2017 44.5498 55.9369 44.5937C55.8816 44.5913 55.8264 44.5999 55.7754 44.619C55.7244 44.638 55.6789 44.667 55.6423 44.7037C55.6057 44.7404 55.5789 44.784 55.564 44.8311C55.549 44.8782 55.5462 44.9277 55.5559 44.9759C55.5656 45.0241 55.5874 45.0697 55.6197 45.1094C55.6521 45.1492 55.6941 45.1819 55.7428 45.2053C55.7914 45.2287 55.8454 45.242 55.9007 45.2445C55.956 45.2469 56.0112 45.2382 56.0623 45.2192C56.2289 45.1932 56.4 45.199 56.564 45.236C56.728 45.2731 56.8811 45.3407 57.0132 45.4342C57.2376 45.6173 57.4166 45.8394 57.5391 46.0867C57.6615 46.334 57.7247 46.6009 57.7246 46.8708C57.8389 48.3336 57.4039 49.3467 57.039 49.4281C57.0063 49.4365 56.9716 49.437 56.9385 49.4295C56.9055 49.4221 56.8753 49.407 56.851 49.3858C56.6078 49.2034 56.394 48.6007 56.4825 47.669C56.4861 47.6262 56.4801 47.5832 56.465 47.5425C56.4498 47.5017 56.4257 47.464 56.394 47.4315C56.3301 47.3658 56.2393 47.3253 56.1415 47.3188C56.0438 47.3123 55.9471 47.3404 55.8728 47.3969C55.7985 47.4534 55.7526 47.5337 55.7453 47.6201C55.6568 48.6691 55.8964 49.5128 56.3792 49.8712C56.5493 49.9947 56.7637 50.0605 56.9837 50.0569Z" fill="#211613"/>
<path d="M59.9398 53.3212C60.4595 53.3212 61.1893 53.1225 62.1882 52.4677C63.4377 51.6467 64.0901 50.6564 63.928 49.8159C63.8822 49.5711 63.7583 49.343 63.5709 49.1584C63.3835 48.9737 63.1404 48.8402 62.8701 48.7734C62.8224 48.7488 62.769 48.734 62.7139 48.7301C62.6588 48.7261 62.6034 48.7332 62.5518 48.7508C62.5002 48.7683 62.4538 48.7959 62.4159 48.8315C62.378 48.8671 62.3497 48.9097 62.333 48.9563C62.3163 49.0028 62.3116 49.0521 62.3194 49.1005C62.3271 49.1489 62.3471 49.1951 62.3778 49.2357C62.4085 49.2763 62.4491 49.3103 62.4967 49.3352C62.5443 49.3601 62.5976 49.3751 62.6526 49.3793C62.7964 49.411 62.9267 49.479 63.0275 49.5751C63.1283 49.6711 63.1953 49.791 63.2203 49.9201C63.3013 50.3632 62.9696 51.1613 61.7459 51.9562C60.4079 52.839 59.7813 52.699 59.6191 52.6338C59.5504 52.6082 59.491 52.5664 59.4475 52.513C59.4039 52.4595 59.3778 52.3965 59.3722 52.3308C59.3464 52.0376 59.9066 51.1841 60.4448 50.5651C60.4806 50.4979 60.4893 50.4218 60.4695 50.3496C60.4497 50.2773 60.4025 50.2132 60.3358 50.1679C60.269 50.1227 60.1868 50.0989 60.1027 50.1007C60.0186 50.1024 59.9377 50.1295 59.8734 50.1775C59.656 50.4251 58.5907 51.6988 58.6571 52.383C58.6711 52.5623 58.7408 52.7347 58.8585 52.8812C58.9762 53.0278 59.1374 53.1428 59.3242 53.2137C59.5183 53.2881 59.7283 53.3248 59.9398 53.3212Z" fill="#211613"/>
<path d="M50.9903 13.8899C51.1923 13.9038 51.3954 13.8817 51.5875 13.8247C51.6391 13.8021 51.684 13.7691 51.7185 13.7284C51.7531 13.6876 51.7764 13.6403 51.7865 13.5902C51.8381 13.3589 51.6649 13.1145 51.2815 12.577C50.8737 12.0638 50.5499 11.5023 50.3195 10.9091C50.2827 10.8414 50.2205 10.7871 50.1435 10.7553C50.0665 10.7234 49.9795 10.7161 49.8971 10.7345C49.8147 10.7529 49.742 10.7959 49.6914 10.8562C49.6408 10.9165 49.6152 10.9904 49.6192 11.0654C49.8651 11.7243 50.219 12.3478 50.6697 12.9158C50.7508 13.0299 50.8429 13.1569 50.9166 13.2677C49.6266 13.2351 45.6937 12.7529 44.7427 12.4337C43.7917 12.1144 43.0619 9.7363 43.003 9.21181C42.9932 9.12541 42.945 9.04598 42.8689 8.991C42.7929 8.93601 42.6953 8.90998 42.5975 8.91862C42.4998 8.92726 42.4099 8.96987 42.3477 9.03707C42.2855 9.10427 42.256 9.19057 42.2658 9.27697C42.31 9.64835 43.003 12.5347 44.4773 13.0266C45.3435 13.3165 49.398 13.8899 50.9903 13.8899Z" fill="#211613"/>
<path d="M37.2899 14.8899C37.3542 14.8896 37.4173 14.8743 37.4729 14.8458C37.5285 14.8172 37.5747 14.7763 37.6069 14.727C37.9403 14.2295 38.3935 13.8029 38.9343 13.4775C39.4751 13.1521 40.0903 12.9358 40.7362 12.8441L41.0827 12.7985C41.6319 12.7333 42.1885 12.6681 42.4317 12.3261C42.4871 12.2437 42.5199 12.151 42.5275 12.0554C42.5352 11.9599 42.5176 11.864 42.476 11.7755C42.2698 11.0257 42.1257 10.2635 42.0447 9.49513C42.0496 9.44713 42.0424 9.39877 42.0236 9.35354C42.0048 9.30831 41.9748 9.26733 41.9359 9.23355C41.8971 9.19977 41.8502 9.17404 41.7987 9.15821C41.7472 9.14238 41.6923 9.13685 41.6381 9.14201C41.5839 9.14717 41.5317 9.16289 41.4852 9.18805C41.4387 9.21321 41.3991 9.24717 41.3692 9.28749C41.3393 9.32781 41.32 9.37349 41.3125 9.42122C41.305 9.46896 41.3096 9.51756 41.326 9.56354C41.4177 10.3771 41.5753 11.1839 41.7977 11.9775C41.539 12.0698 41.2653 12.1248 40.9869 12.1404C40.8505 12.1567 40.7178 12.173 40.6183 12.1925C39.8674 12.3017 39.1528 12.5556 38.5254 12.9361C37.8979 13.3167 37.3729 13.8147 36.9876 14.3947C36.9444 14.4687 36.9349 14.5544 36.9609 14.6344C36.9869 14.7143 37.0466 14.7824 37.1277 14.8247C37.1749 14.8579 37.2306 14.8802 37.2899 14.8899Z" fill="#211613"/>
<path d="M57.6322 18.5258C57.7091 18.5253 57.7838 18.5037 57.846 18.4639C58.6761 17.8248 59.1918 16.925 59.2835 15.9554C59.2931 15.872 59.2658 15.7885 59.2075 15.7224C59.1491 15.6562 59.0641 15.6125 58.9702 15.6004C58.8758 15.5919 58.7813 15.616 58.7065 15.6676C58.6317 15.7192 58.5822 15.7943 58.5685 15.8773C58.5024 16.3992 58.3074 16.9018 57.9971 17.3497C57.8804 16.4898 57.5615 15.6609 57.0609 14.9162C56.9946 14.8446 56.8508 14.6915 55.4575 14.0041C55.3753 13.9741 55.2836 13.9714 55.1993 13.9966C55.115 14.0217 55.0438 14.0729 54.9989 14.1408C54.954 14.2087 54.9384 14.2886 54.9549 14.3659C54.9715 14.4431 55.0191 14.5125 55.089 14.5611C55.5849 14.7741 56.0554 15.0305 56.4933 15.3267C56.7255 15.571 57.4627 17.2097 57.26 18.1479C57.2483 18.2102 57.2575 18.2742 57.2863 18.3321C57.3151 18.3899 57.3623 18.4391 57.4221 18.4737C57.4846 18.5094 57.5579 18.5275 57.6322 18.5258Z" fill="#211613"/>
<path d="M54.2264 24.2039C58.5757 24.2039 60.3155 21.8974 60.9716 21.0243C61.8968 19.7994 61.1006 18.8938 61.0674 18.8547C61.0022 18.8072 60.9205 18.7809 60.836 18.7803C60.7514 18.7797 60.6692 18.8048 60.6031 18.8513C60.537 18.8979 60.4911 18.9632 60.4729 19.0361C60.4548 19.1091 60.4656 19.1854 60.5035 19.2521C60.5293 19.2815 60.9937 19.8483 60.3745 20.6693C59.7073 21.5521 58.1629 23.6175 54.0863 23.5654C53.9885 23.5654 53.8948 23.5997 53.8257 23.6608C53.7565 23.7219 53.7177 23.8047 53.7177 23.8911C53.7177 23.9775 53.7565 24.0604 53.8257 24.1215C53.8948 24.1826 53.9885 24.2169 54.0863 24.2169L54.2264 24.2039Z" fill="#211613"/>
<path d="M67.0092 22.4347C67.9923 22.4551 68.9589 22.2092 69.7792 21.7299C70.5996 21.2506 71.2343 20.561 71.5982 19.7536C71.6227 19.6844 71.6203 19.6101 71.5916 19.5422C71.5629 19.4744 71.5095 19.4169 71.4397 19.3789C71.3689 19.3433 71.2867 19.3294 71.206 19.3394C71.1253 19.3494 71.0506 19.3828 70.9937 19.4343C70.8276 19.5744 70.6203 19.6704 70.3954 19.7113C70.1706 19.7522 69.9372 19.7364 69.722 19.6656C68.9554 19.4441 68.432 18.7176 68.2882 17.6719C68.1113 16.3688 67.3962 15.3915 66.3347 14.9712C65.8581 14.7863 65.335 14.7152 64.8175 14.7649C64.3001 14.8147 63.8064 14.9835 63.386 15.2547C63.327 15.3084 63.2908 15.3786 63.2835 15.4532C63.2762 15.5278 63.2982 15.6023 63.3458 15.6643C63.3934 15.7263 63.4637 15.7718 63.5449 15.7933C63.626 15.8148 63.7131 15.811 63.7914 15.7824C64.1096 15.5743 64.4839 15.4434 64.8771 15.4028C65.2702 15.3622 65.6686 15.4134 66.0325 15.5511C66.8618 15.8769 67.422 16.6848 67.5695 17.7468C67.8275 19.5972 69.0033 20.1282 69.4972 20.2683C69.7902 20.3544 70.1011 20.3822 70.4076 20.3497C69.8179 21.0632 68.62 21.959 66.4416 21.7733C64.8493 21.6398 64.6797 21.0013 64.5175 20.3823C64.407 19.9653 64.2816 19.4897 63.6845 19.3463C62.8919 19.1792 62.0772 19.1079 61.2629 19.1346C61.182 19.1537 61.1108 19.1966 61.0612 19.2563C61.0116 19.3159 60.9864 19.3887 60.9898 19.4627C60.9933 19.5366 61.0251 19.6073 61.0801 19.6632C61.1351 19.719 61.2099 19.7566 61.2924 19.7698C62.0357 19.7481 62.7791 19.8116 63.5039 19.9588C63.6624 19.9979 63.7177 20.1217 63.8283 20.5289C64.0052 21.2065 64.2779 22.2294 66.3826 22.4086C66.5909 22.4264 66.8 22.4351 67.0092 22.4347Z" fill="#211613"/>
<path d="M53.8026 17.2748C53.9003 17.2748 53.9941 17.2405 54.0632 17.1794C54.1323 17.1183 54.1711 17.0354 54.1711 16.949C54.1711 16.8626 54.1323 16.7798 54.0632 16.7187C53.9941 16.6576 53.9003 16.6233 53.8026 16.6233L51.3588 16.5548L52.9253 15.6134C52.9855 15.5595 53.0226 15.4888 53.0303 15.4135C53.0379 15.3381 53.0156 15.2627 52.9672 15.2002C52.9188 15.1378 52.8473 15.0922 52.765 15.0713C52.6827 15.0504 52.5947 15.0554 52.5162 15.0856L50.0392 16.5809C49.9816 16.6211 49.9388 16.6757 49.9165 16.7375C49.8941 16.7993 49.8932 16.8657 49.9138 16.928C49.9344 16.9903 49.9756 17.0457 50.0321 17.0872C50.0886 17.1287 50.1578 17.1543 50.2309 17.1608L53.7804 17.2618L53.8026 17.2748Z" fill="#211613"/>
<path d="M39.8293 17.1246L43.3788 17.0237C43.4519 17.0172 43.5211 16.9916 43.5776 16.9501C43.6341 16.9086 43.6753 16.8532 43.6959 16.7908C43.7165 16.7285 43.7156 16.6622 43.6932 16.6004C43.6709 16.5385 43.6281 16.484 43.5705 16.4438L41.0898 14.9485C41.0115 14.9199 40.9245 14.916 40.8433 14.9376C40.7621 14.9591 40.6918 15.0046 40.6442 15.0666C40.5966 15.1286 40.5746 15.2031 40.5819 15.2777C40.5893 15.3523 40.6254 15.4224 40.6844 15.4762L42.262 16.4112L39.8182 16.4796C39.7204 16.4796 39.6267 16.5139 39.5576 16.575C39.4884 16.6361 39.4496 16.719 39.4496 16.8054C39.4496 16.8918 39.4884 16.9746 39.5576 17.0357C39.6267 17.0968 39.7204 17.1312 39.8182 17.1312L39.8293 17.1246Z" fill="#211613"/>
<path d="M47.6841 49.197C49.2208 49.0897 50.7501 48.9114 52.2657 48.6628C56.1728 48.0796 56.2981 47.9298 56.3903 47.8223C56.4824 47.7148 56.5967 47.5779 56.5524 46.2358C56.5082 44.8382 56.3239 44.7177 56.206 44.6395C56.088 44.5613 55.8853 44.4277 52.439 44.9652C52.9144 44.4473 53.5226 43.786 53.6885 43.5775C53.9649 43.2517 56.1986 40.6227 56.2207 40.5967C56.2623 40.5649 56.2952 40.5253 56.3173 40.4809C56.3393 40.4364 56.3498 40.3881 56.348 40.3396C56.3462 40.2911 56.3321 40.2435 56.3069 40.2004C56.2816 40.1573 56.2457 40.1197 56.2019 40.0904C56.1581 40.0612 56.1075 40.0409 56.0537 40.0311C55.9998 40.0214 55.9443 40.0224 55.8909 40.0341C55.8376 40.0457 55.7879 40.0678 55.7455 40.0986C55.7031 40.1294 55.669 40.1683 55.6457 40.2122C55.5536 40.3198 53.3862 42.8608 53.1024 43.2061C52.8186 43.5514 51.2595 45.2161 51.2595 45.2324C51.2173 45.2837 51.193 45.3448 51.1896 45.4081C51.1862 45.4715 51.2037 45.5343 51.2401 45.589C51.2765 45.6436 51.3302 45.6877 51.3945 45.7158C51.4588 45.7439 51.531 45.7548 51.6023 45.7471C53.2793 45.4702 55.1555 45.2063 55.7379 45.1835C55.844 45.9159 55.8662 46.6559 55.8042 47.3922C54.7832 47.6724 48.5982 48.5976 47.6104 48.552C47.0354 48.5259 46.3756 48.3468 46.3756 47.1772C46.3756 46.5029 47.5993 42.5057 48.1891 40.5836C48.6314 39.1437 48.6314 39.1339 48.6314 39.059C48.6089 38.8202 48.5683 38.5829 48.5098 38.3488C48.4885 38.2674 48.4327 38.1963 48.3538 38.1502C48.2749 38.1041 48.179 38.0866 48.0859 38.1013C47.993 38.1193 47.9117 38.1684 47.8588 38.2382C47.8059 38.308 47.7856 38.3931 47.8021 38.4759C47.85 38.6811 47.9016 38.9417 47.909 39.0362C47.9163 39.1307 47.6878 39.7822 47.4924 40.4175C46.5636 43.4537 45.6495 46.4768 45.6495 47.1772C45.6495 48.4184 46.3314 49.1319 47.5699 49.1872L47.6841 49.197Z" fill="#211613"/>
<path d="M51.9487 20.1188C51.9487 20.9169 52.9329 21.562 54.1603 21.562C55.3877 21.562 56.3718 20.9104 56.3718 20.1188C56.3718 19.3272 55.3877 18.6724 54.1603 18.6724C52.9329 18.6724 51.9487 19.3206 51.9487 20.1188Z" fill="#F8C6BE"/>
<path d="M36.9912 19.1315C37.4532 18.8254 38.0173 18.6638 38.5946 18.6722C39.8073 18.6722 40.8062 19.3237 40.8062 20.1186C40.8062 20.9135 39.822 21.5618 38.5946 21.5618C38.2404 21.5631 37.8891 21.5056 37.5589 21.3924C37.3635 20.6464 37.1534 19.8938 36.9912 19.1315Z" fill="#F8C6BE"/>
<path d="M48.5796 25.1323C52.2655 25.1323 55.804 23.94 57.7539 22.0277C58.4845 21.2981 59.095 20.481 59.5673 19.6007C59.6071 19.524 59.6116 19.4367 59.58 19.3571C59.5484 19.2775 59.4831 19.2118 59.3978 19.1739C59.3114 19.1398 59.2135 19.1363 59.1243 19.1642C59.0351 19.1921 58.9615 19.2492 58.9186 19.3238C58.4755 20.1503 57.9035 20.9179 57.2194 21.6042C55.299 23.4871 51.6905 24.6208 48.0046 24.4872C44.5951 24.3635 41.37 24.2494 39.7187 23.1548C38.0674 22.0603 37.1607 20.8093 37.345 17.418C37.425 16.0383 37.652 14.6683 38.0231 13.3263C38.0433 13.2439 38.0265 13.1578 37.9763 13.0862C37.9262 13.0145 37.8465 12.9628 37.7541 12.9419C37.6619 12.9249 37.5659 12.9398 37.4857 12.9834C37.4055 13.027 37.3472 13.0961 37.3228 13.1765C36.9395 14.558 36.7038 15.9682 36.6188 17.3887C36.4198 21.0471 37.4445 22.4609 39.2801 23.6696C41.1156 24.8782 44.4403 24.9987 47.9678 25.1258C48.1705 25.129 48.3769 25.1323 48.5796 25.1323Z" fill="#211613"/>
<path d="M65.3323 6.92126C66.6261 7.3187 66.9173 7.64447 67.2748 9.08764C67.6434 7.64447 67.9235 7.3187 69.2173 6.92126C67.9235 6.52056 67.6323 6.19805 67.2748 4.75488C66.9173 6.19805 66.6408 6.52056 65.3323 6.92126Z" fill="#FFE100"/>
<path d="M67.2745 9.40742C67.3561 9.40574 67.4347 9.38021 67.498 9.33482C67.5614 9.28942 67.6059 9.22674 67.6247 9.15658C67.9564 7.81766 68.1665 7.5831 69.3349 7.22149C69.4014 7.19646 69.4581 7.15471 69.498 7.10142C69.5378 7.04813 69.5591 6.98566 69.5591 6.92178C69.5591 6.85791 69.5378 6.79545 69.498 6.74216C69.4581 6.68887 69.4014 6.64711 69.3349 6.62208C68.1665 6.26047 67.9564 6.02592 67.6247 4.687C67.6059 4.61684 67.5614 4.55415 67.498 4.50876C67.4347 4.46336 67.3561 4.43783 67.2745 4.43615C67.1898 4.43415 67.1069 4.458 67.0398 4.50369C66.9727 4.54938 66.9254 4.61411 66.9059 4.687C66.5779 6.02592 66.3678 6.26047 65.1957 6.62208C65.1292 6.64711 65.0725 6.68887 65.0326 6.74216C64.9928 6.79545 64.9715 6.85791 64.9715 6.92178C64.9715 6.98566 64.9928 7.04813 65.0326 7.10142C65.0725 7.15471 65.1292 7.19646 65.1957 7.22149C66.3678 7.5831 66.5779 7.81766 66.9059 9.15658C66.9254 9.22946 66.9727 9.2942 67.0398 9.33989C67.1069 9.38557 67.1898 9.40942 67.2745 9.40742ZM68.2955 6.92178C67.8218 7.13411 67.457 7.49736 67.2745 7.93819C67.0921 7.49736 66.7272 7.13411 66.2535 6.92178C66.7272 6.70946 67.0921 6.34622 67.2745 5.90538C67.457 6.34622 67.8218 6.70946 68.2955 6.92178Z" fill="#211613"/>
<path d="M65.1332 42.0559C64.0604 42.0559 63.1907 41.086 63.1907 39.8895C63.1907 38.6931 64.0604 37.7231 65.1332 37.7231C66.206 37.7231 67.0757 38.6931 67.0757 39.8895C67.0757 41.086 66.206 42.0559 65.1332 42.0559Z" fill="#FFE100"/>
<path d="M65.133 42.3719C65.2177 42.3739 65.3006 42.3501 65.3678 42.3044C65.4349 42.2587 65.4822 42.194 65.5016 42.1211C65.8334 40.7854 66.0398 40.5476 67.2119 40.1893C67.2795 40.1647 67.3373 40.123 67.378 40.0693C67.4187 40.0157 67.4404 39.9525 67.4404 39.8879C67.4404 39.8233 67.4187 39.7602 67.378 39.7065C67.3373 39.6529 67.2795 39.6111 67.2119 39.5866C66.0398 39.2282 65.8334 38.9937 65.5016 37.6548C65.4822 37.5819 65.4349 37.5171 65.3678 37.4715C65.3006 37.4258 65.2177 37.4019 65.133 37.4039C65.0483 37.4019 64.9654 37.4258 64.8983 37.4715C64.8312 37.5171 64.7839 37.5819 64.7644 37.6548C64.4327 38.9904 64.2226 39.2282 63.0542 39.5866C62.9866 39.6111 62.9287 39.6529 62.8881 39.7065C62.8474 39.7602 62.8256 39.8233 62.8256 39.8879C62.8256 39.9525 62.8474 40.0157 62.8881 40.0693C62.9287 40.123 62.9866 40.1647 63.0542 40.1893C64.2226 40.5476 64.4327 40.7854 64.7644 42.1211C64.7839 42.194 64.8312 42.2587 64.8983 42.3044C64.9654 42.3501 65.0483 42.3739 65.133 42.3719ZM66.154 39.8896C65.6794 40.1008 65.3142 40.4644 65.133 40.906C64.9519 40.4644 64.5866 40.1008 64.112 39.8896C64.5859 39.6759 64.9507 39.3116 65.133 38.8699C65.3153 39.3116 65.6801 39.6759 66.154 39.8896Z" fill="#211613"/>
<path d="M69.0955 37.8535C67.6807 37.8535 66.5338 36.5758 66.5338 34.9997C66.5338 33.4237 67.6807 32.146 69.0955 32.146C70.5103 32.146 71.6572 33.4237 71.6572 34.9997C71.6572 36.5758 70.5103 37.8535 69.0955 37.8535Z" fill="#FFE100"/>
<path d="M69.0955 38.1694C69.177 38.1677 69.2556 38.1422 69.319 38.0968C69.3824 38.0514 69.4269 37.9887 69.4456 37.9185C69.8916 36.1268 70.1828 35.7847 71.7715 35.3123C71.8391 35.2878 71.8969 35.2461 71.9376 35.1924C71.9783 35.1387 72 35.0756 72 35.011C72 34.9464 71.9783 34.8833 71.9376 34.8296C71.8969 34.776 71.8391 34.7342 71.7715 34.7097C70.1939 34.2243 69.8916 33.8822 69.4456 32.1035C69.4269 32.0333 69.3824 31.9707 69.319 31.9253C69.2556 31.8799 69.177 31.8543 69.0955 31.8527C69.0108 31.8507 68.9279 31.8745 68.8608 31.9202C68.7936 31.9659 68.7464 32.0306 68.7269 32.1035C68.2846 33.8952 67.9897 34.2373 66.4011 34.7097C66.3335 34.7342 66.2757 34.776 66.235 34.8296C66.1943 34.8833 66.1725 34.9464 66.1725 35.011C66.1725 35.0756 66.1943 35.1387 66.235 35.1924C66.2757 35.2461 66.3335 35.2878 66.4011 35.3123C67.9787 35.7977 68.2846 36.1398 68.7269 37.9185C68.7464 37.9914 68.7936 38.0561 68.8608 38.1018C68.9279 38.1475 69.0108 38.1714 69.0955 38.1694ZM70.6952 34.9964C70.3089 35.146 69.9653 35.3698 69.6892 35.6516C69.4131 35.9334 69.2116 36.266 69.0992 36.6252C68.9866 36.2655 68.7846 35.9326 68.5078 35.6508C68.2311 35.369 67.8865 35.1454 67.4995 34.9964C67.8871 34.8481 68.2321 34.6247 68.509 34.3428C68.7859 34.0609 68.9876 33.7276 69.0992 33.3675C69.2106 33.7271 69.4118 34.0601 69.688 34.342C69.9642 34.6239 70.3084 34.8475 70.6952 34.9964Z" fill="#211613"/>
</svg>
