<svg width="125" height="122" viewBox="0 0 125 122" fill="none" xmlns="http://www.w3.org/2000/svg">
<path d="M50.0076 121.106C51.5732 120.8 52.9904 119.892 54.0082 118.543L76.726 88.3721C77.3484 87.5465 77.8008 86.5813 78.0519 85.5433C78.303 84.5053 78.3468 83.4194 78.1802 82.3609L66.6759 9.71188C66.4558 8.31797 65.8792 7.02277 65.014 5.97937C64.1488 4.93598 63.0313 4.188 61.7935 3.82385C60.5557 3.45969 59.2494 3.49458 58.029 3.9244C56.8086 4.35421 55.7251 5.16097 54.9066 6.24934L35.834 31.5794L10.1045 14.9021C8.99896 14.1878 7.73154 13.8377 6.45175 13.893C5.17197 13.9483 3.93321 14.4067 2.88155 15.2142C1.82989 16.0217 1.00918 17.1445 0.516281 18.4503C0.0233765 19.7561 -0.121193 21.1904 0.0996323 22.5839L11.604 95.1901C11.7715 96.2523 12.1477 97.2609 12.706 98.1453C13.2643 99.0296 13.9911 99.7682 14.8355 100.309L45.4705 120.17C46.8365 121.061 48.4427 121.392 50.0076 121.106ZM59.8379 9.50483C60.1883 9.43848 60.5483 9.52818 60.839 9.7543C61.1298 9.98042 61.3275 10.3246 61.3891 10.7114L72.8869 83.3532C72.9233 83.5645 72.9161 83.782 72.8657 83.9897C72.8153 84.1974 72.7232 84.3898 72.5961 84.5526L49.8783 114.723C49.6769 114.995 49.3937 115.178 49.0805 115.238C48.7672 115.298 48.4448 115.232 48.1721 115.052L17.5306 95.1901C17.3621 95.0822 17.2169 94.9349 17.1053 94.7586C16.9936 94.5822 16.9182 94.3811 16.8843 94.1692L5.38 21.5273C5.33591 21.2474 5.36543 20.9594 5.46509 20.6974C5.56476 20.4355 5.73038 20.2106 5.94228 20.0495C6.15249 19.8889 6.39993 19.7982 6.65534 19.7881C6.91076 19.778 7.16346 19.8489 7.38354 19.9924L35.0714 37.9405C35.6203 38.2967 36.2659 38.4262 36.8931 38.3059C37.5204 38.1857 38.0887 37.8234 38.4968 37.2837L59.03 10.0117C59.2359 9.74159 59.5224 9.56176 59.8379 9.50483Z" fill="#231916"/>
<path d="M4.43619 17.5856C5.06746 17.103 5.81049 16.8297 6.57771 16.7981C7.34493 16.7664 8.10438 16.9778 8.76646 17.4072L36.4608 35.3552L56.9875 8.09044C57.4787 7.43711 58.129 6.95278 58.8615 6.69471C59.5939 6.43663 60.378 6.4156 61.121 6.63409C61.8639 6.85259 62.5347 7.30149 63.0541 7.92771C63.5734 8.55394 63.9196 9.3313 64.0517 10.1679L75.5301 82.8384C75.6321 83.4739 75.6074 84.1263 75.4578 84.7502C75.3083 85.374 75.0374 85.9544 74.6641 86.4508L51.9463 116.614C51.3376 117.427 50.4866 117.973 49.5461 118.155C48.6055 118.337 47.637 118.142 46.8146 117.607L16.1731 97.7451C15.6657 97.4221 15.2289 96.9796 14.8938 96.449C14.5587 95.9184 14.3335 95.3129 14.2342 94.6753L2.72992 22.0334C2.59537 21.1892 2.68491 20.32 2.98767 19.5308C3.29044 18.7416 3.7935 18.066 4.43619 17.5856Z" fill="white"/>
<path d="M48.8516 113.773L18.2166 93.9119L6.71225 21.27L37.3538 41.1314L48.8516 113.773Z" fill="#33AA85"/>
<path d="M48.8526 113.773L71.5703 83.6097L60.066 10.9678L37.3547 41.1311L48.8526 113.773Z" fill="#FFE73F"/>
<path d="M48.8513 114.473C48.9791 114.473 49.1037 114.428 49.2068 114.344C49.3082 114.266 49.3871 114.157 49.4341 114.03C49.4811 113.904 49.4942 113.765 49.4718 113.631L37.974 40.9887C37.9567 40.8898 37.9208 40.796 37.8684 40.7136C37.816 40.6312 37.7485 40.5619 37.6702 40.5103L7.02224 20.6704C6.91834 20.6116 6.80195 20.5849 6.68544 20.5933C6.56893 20.6017 6.45667 20.6448 6.36055 20.718C6.26443 20.7912 6.18806 20.8918 6.13956 21.0092C6.09106 21.1265 6.07224 21.2561 6.08509 21.3843L17.5894 94.0333C17.6066 94.1322 17.6426 94.2259 17.6949 94.3084C17.7473 94.3908 17.8148 94.4601 17.8932 94.5116L48.5281 114.373C48.626 114.437 48.7375 114.472 48.8513 114.473ZM36.7524 41.5669L47.9659 112.41L18.7851 93.4764L7.57159 22.6337L36.7524 41.5669Z" fill="#211613"/>
<path d="M48.8526 114.473C48.9454 114.471 49.0367 114.447 49.1203 114.402C49.204 114.358 49.278 114.294 49.3373 114.216L72.0551 84.0523C72.1124 83.9741 72.1541 83.8835 72.1775 83.7863C72.2009 83.6891 72.2055 83.5875 72.1908 83.4883L60.6672 10.8392C60.6436 10.7088 60.5876 10.5883 60.5054 10.4911C60.4232 10.394 60.318 10.3242 60.2018 10.2895C60.0855 10.2577 59.9635 10.2622 59.8493 10.3025C59.7352 10.3429 59.6335 10.4175 59.5555 10.518L36.8378 40.6813C36.7796 40.7603 36.7374 40.8522 36.7139 40.9507C36.6905 41.0492 36.6865 41.1521 36.702 41.2525L48.2322 113.894C48.2552 114.024 48.3102 114.144 48.3912 114.241C48.4722 114.338 48.576 114.408 48.691 114.444C48.7428 114.465 48.7976 114.474 48.8526 114.473ZM70.8982 83.4098L49.2404 112.167L38.0464 41.331L59.6783 12.5884L70.8982 83.4098Z" fill="#211613"/>
<g style="mix-blend-mode:multiply" opacity="0.2">
<path d="M55.7348 21.6984C56.0515 19.728 58.7724 20.5633 58.4558 22.5266C58.0874 24.7826 58.068 26.4032 59.7484 27.9667C61.2822 29.3568 62.9514 30.554 64.7249 31.5363C66.3472 32.4501 64.9188 35.1416 63.3031 34.2278C60.9957 32.9213 58.3717 31.265 56.6849 29.0447C55.0691 26.9172 55.3211 24.2328 55.7348 21.6984Z" fill="#211613"/>
</g>
<g style="mix-blend-mode:multiply" opacity="0.2">
<path d="M44.0111 57.7796C43.9157 55.8992 44.2005 54.0189 44.8449 52.2752C45.2327 51.2615 46.5705 51.0544 47.3526 51.5613C47.761 51.8437 48.0558 52.2885 48.176 52.8039C48.2963 53.3193 48.2329 53.8661 47.9989 54.3313C47.4818 55.6592 47.6628 57.187 47.6821 58.6149C47.6821 59.4288 47.262 61.4349 47.8114 61.9346C48.3608 62.4344 50.3967 62.1488 51.1011 62.1274C52.6264 62.0774 54.1452 61.9704 55.6641 61.8561C58.5014 61.6419 61.3451 61.3849 64.1889 61.4135C65.7015 61.4223 67.2123 61.532 68.713 61.7419C70.0057 61.9204 71.5632 62.5843 72.8559 62.2988C75.1632 61.7847 76.1456 65.6899 73.8318 66.2039C72.0868 66.5966 70.5098 66.0897 68.7841 65.8041C66.8908 65.5246 64.9802 65.4124 63.0707 65.4686C59.2704 65.5186 55.4831 66.004 51.6828 66.1825C49.0135 66.2896 45.0129 66.5323 44.0758 62.9199C43.6751 61.3207 44.037 59.3859 44.0111 57.7796Z" fill="#211613"/>
</g>
<path d="M82.8997 53.8607C76.8503 53.5894 71.1434 53.3324 68.1316 50.8479C65.1198 48.3635 63.4717 45.5221 63.8013 37.8759C63.8894 35.7587 64.1053 33.6503 64.4476 31.5648C64.4602 31.5074 64.4798 31.4522 64.5058 31.4006C65.1396 30.3536 65.961 29.4612 66.9192 28.7785C67.8774 28.0958 68.9521 27.6372 70.077 27.4312C70.2644 27.3884 70.4777 27.3598 70.7233 27.3241C71.5829 27.2028 72.4748 27.0742 72.7785 26.5102C72.8425 26.389 72.88 26.2529 72.8878 26.1128C72.8957 25.9727 72.8737 25.8325 72.8238 25.7035C72.4853 24.2088 72.2456 22.6889 72.1064 21.1558C72.0959 21.0557 72.1147 20.9546 72.1601 20.8672C72.2055 20.7799 72.275 20.7109 72.3585 20.6703L72.869 20.4347C72.9237 20.4066 72.9833 20.3921 73.0436 20.3921C73.1038 20.3921 73.1634 20.4066 73.218 20.4347C73.2722 20.4667 73.3194 20.5114 73.3563 20.5656C73.3931 20.6199 73.4187 20.6825 73.4313 20.7489C73.9871 23.6046 75.2281 27.1742 76.9085 27.8881C78.3885 28.5164 85.4785 29.7515 88.1607 29.7515C88.4431 29.7778 88.7276 29.7488 89.0009 29.6658C89.0516 29.6385 89.0925 29.5933 89.1172 29.5373C89.1427 29.4779 89.1796 29.4254 89.2253 29.3835C89.2711 29.3415 89.3247 29.3112 89.3822 29.2945C89.4967 29.2638 89.6175 29.2843 89.7183 29.3517C90.559 29.9175 91.4851 30.3117 92.4522 30.5153C93.4152 30.7438 94.3911 30.9437 95.3089 31.1079C95.3959 31.1254 95.4766 31.17 95.5415 31.2364L95.5803 31.2793C96.4908 31.7834 97.3563 32.3809 98.1655 33.0641C98.6567 33.7137 99.9752 37.4547 99.6003 39.6322C99.591 39.678 99.5947 39.7259 99.6109 39.7693C99.6271 39.8128 99.655 39.8496 99.6908 39.8749C99.7261 39.9013 99.7678 39.9154 99.8104 39.9154C99.853 39.9154 99.8947 39.9013 99.93 39.8749C101.093 38.7522 101.877 37.227 102.153 35.5485C102.161 35.5095 102.172 35.4713 102.186 35.4343C102.369 34.9866 102.632 34.5844 102.96 34.252C103.288 33.9195 103.673 33.6636 104.092 33.4996C104.142 33.4926 104.192 33.4926 104.241 33.4996H104.273H104.338C104.383 33.4787 104.431 33.4643 104.48 33.4567C104.592 33.4462 104.704 33.4462 104.816 33.4567C105.818 33.5353 106.613 34.4277 106.988 35.9198C107.175 36.8214 107.138 37.7625 106.88 38.6427C106.621 39.5228 106.152 40.3089 105.521 40.9172C104.519 41.9382 103.291 42.3451 102.392 41.981C102.339 41.9604 102.281 41.9638 102.23 41.9906C102.179 42.0173 102.14 42.0652 102.121 42.1238C102.108 42.1626 102.105 42.2049 102.113 42.2454C102.121 42.286 102.139 42.3231 102.166 42.3522C102.222 42.4225 102.258 42.5098 102.268 42.6029C102.279 42.6959 102.263 42.7902 102.224 42.8734C101.471 44.5478 100.519 46.1037 99.3935 47.4996C96.1297 51.5048 90.1449 53.9964 83.9403 53.9964C83.5913 53.8821 83.2423 53.875 82.8997 53.8607Z" fill="#FCE4DF"/>
<path d="M83.2495 18.8852C84.1883 20.2277 85.0393 21.6425 85.7959 23.1187C85.9058 23.3401 86.0286 23.5899 86.1643 23.9041C86.1789 23.9281 86.1899 23.9546 86.1967 23.9826C86.6251 25.3383 87.2187 26.6233 87.9611 27.8021C88.1033 28.052 88.2648 28.3304 88.3941 28.5731C88.4328 28.6443 88.4539 28.7256 88.455 28.8086C88.4562 28.8917 88.4374 28.9736 88.4007 29.0461C88.3639 29.1186 88.3105 29.179 88.2458 29.2214C88.1811 29.2637 88.1074 29.2864 88.0322 29.2871C85.7636 29.2157 78.7964 28.1519 77.0449 27.4237C74.9444 26.5384 73.8134 20.5272 73.8134 20.4629C73.7928 20.3516 73.8105 20.2358 73.8631 20.1381C73.9157 20.0404 73.9994 19.9679 74.0978 19.9346C76.9063 19.0289 79.8278 18.624 82.7518 18.7352H82.8165C82.894 18.7099 82.9765 18.7107 83.0536 18.7374C83.1307 18.7641 83.1989 18.8155 83.2495 18.8852Z" fill="#896E6C"/>
<path d="M77.6638 12.4884C77.5796 12.4319 77.5164 12.3441 77.4856 12.2407C77.4548 12.1373 77.4584 12.0251 77.4958 11.9244C77.533 11.8228 77.6011 11.7387 77.6884 11.6866C77.7757 11.6344 77.8767 11.6176 77.9741 11.6388C82.9845 12.7561 87.7371 14.9864 91.9434 18.1945C96.1497 21.4025 99.722 25.5213 102.443 30.3008C102.477 30.3701 102.494 30.4473 102.494 30.5257C102.494 30.6042 102.477 30.6814 102.443 30.7506C102.414 30.8214 102.369 30.8827 102.313 30.929C102.256 30.9752 102.19 31.0047 102.12 31.0148C101.58 31.092 101.036 31.1277 100.491 31.1219C97.805 31.0453 95.1317 30.6795 92.5095 30.0295C88.8773 29.1657 87.9143 26.9311 86.8931 24.5609C86.7832 24.2967 86.6669 24.0326 86.5506 23.7613V23.7256V23.6828C86.4536 23.4757 86.3244 23.1973 86.1886 22.9189C84.8185 20.2631 81.923 15.4441 77.6638 12.4884Z" fill="#CBBEC0"/>
<path d="M103.161 31.586C103.342 31.9073 103.51 32.2357 103.684 32.5641C103.712 32.6192 103.729 32.6799 103.734 32.7425C103.74 32.8051 103.734 32.8683 103.717 32.9282C103.7 32.9883 103.673 33.0441 103.636 33.092C103.6 33.1399 103.554 33.1789 103.503 33.2066C103.07 33.4603 102.688 33.8075 102.379 34.2276C102.34 34.2769 102.292 34.3169 102.239 34.3451C102.186 34.3734 102.128 34.3893 102.069 34.3918C102.019 34.3915 101.97 34.4118 101.933 34.4488C101.896 34.4858 101.873 34.5367 101.868 34.5917C101.868 34.813 101.81 35.02 101.771 35.227C101.767 35.2648 101.756 35.3013 101.739 35.3341V35.3984L101.687 35.5198C101.678 35.5619 101.678 35.6061 101.687 35.6483C101.703 35.7161 101.703 35.7874 101.687 35.8553C101.506 36.6119 101.223 37.334 100.847 37.9971C100.81 38.0648 100.758 38.1207 100.696 38.1595C100.633 38.1983 100.563 38.2186 100.492 38.2184H100.401C100.316 38.1978 100.239 38.1481 100.181 38.0763C100.123 38.0045 100.087 37.9143 100.078 37.8186C99.8779 36.0256 99.3501 34.2963 98.5268 32.7354C98.4025 32.5776 98.2564 32.4427 98.0937 32.3357C98.0187 32.2773 97.9629 32.1934 97.9351 32.0967C97.9073 32.0001 97.9089 31.896 97.9397 31.8005C97.9705 31.7049 98.0287 31.6232 98.1056 31.5677C98.1824 31.5122 98.2736 31.486 98.3652 31.4932C99.8257 31.6794 101.303 31.6409 102.754 31.379C102.832 31.3675 102.912 31.3809 102.984 31.4175C103.056 31.4542 103.118 31.5126 103.161 31.586Z" fill="#896E6C"/>
<path d="M72.3007 26.4175C71.7925 26.6923 71.2375 26.8456 70.672 26.8672C70.4458 26.8672 70.2196 26.9315 70.0257 26.9743C68.4948 27.2749 67.0556 27.9913 65.8376 29.059C65.7637 29.1284 65.6697 29.1664 65.5727 29.1661C65.479 29.1645 65.3882 29.1295 65.3141 29.0661C65.2391 29.0029 65.1855 28.9135 65.162 28.8125C65.1386 28.7114 65.1466 28.6046 65.1849 28.5093C66.3758 25.4432 68.4654 22.9086 71.118 21.3129C71.1788 21.2695 71.2488 21.2443 71.3211 21.2396C71.3934 21.2349 71.4655 21.2509 71.5306 21.2861C71.5956 21.3213 71.6513 21.3745 71.6923 21.4405C71.7332 21.5065 71.758 21.583 71.7643 21.6627C71.8891 23.0808 72.1204 24.4849 72.4558 25.8606C72.4585 25.8795 72.4585 25.8988 72.4558 25.9177C72.4781 26.0086 72.4753 26.1048 72.4477 26.1939C72.42 26.2829 72.3688 26.3608 72.3007 26.4175Z" fill="#896E6C"/>
<path d="M72.5586 10.7966H72.5974C75.9905 11.4248 79.2285 13.6523 82.2209 17.486C82.2716 17.5537 82.3044 17.6355 82.3158 17.7223C82.3272 17.8092 82.3168 17.8979 82.2856 17.9786C82.2545 18.0619 82.2016 18.1329 82.1336 18.1826C82.0656 18.2322 81.9857 18.2582 81.9042 18.2571C78.4741 18.1837 75.0687 18.9136 71.9123 20.3989L71.8089 20.4346C71.7706 20.4391 71.7345 20.4565 71.7055 20.4845C71.6769 20.514 71.6441 20.5381 71.6086 20.5559C68.5373 22.1653 66.1035 24.9578 64.7642 28.4091C64.7413 28.4736 64.7034 28.5302 64.6543 28.5733C64.6243 28.6075 64.6022 28.6491 64.5897 28.6947C64.5897 28.7661 64.5573 28.8446 64.5444 28.916V29.073C64.5453 29.0945 64.5453 29.1159 64.5444 29.1373C64.4151 29.5085 64.3117 29.8512 64.2277 30.1154C64.2076 30.1703 64.2076 30.2318 64.2277 30.2867C64.2568 30.3817 64.2568 30.4845 64.2277 30.5794L64.1889 30.7793C64.1763 30.8495 64.1493 30.9155 64.1101 30.9724C64.0709 31.0293 64.0205 31.0755 63.9627 31.1077C63.9056 31.1354 63.8441 31.15 63.7818 31.1506C63.7143 31.1528 63.6475 31.1356 63.5879 31.1006C61.7071 30.0583 57.3058 27.1312 57.1248 22.612C57.0649 21.0995 57.296 19.5902 57.8029 18.1836C58.3098 16.777 59.081 15.5051 60.0655 14.4519C62.78 11.6104 67.0973 10.3396 72.5586 10.7966Z" fill="#CBBEC0"/>
<g style="mix-blend-mode:multiply" opacity="0.2">
<path d="M72.5567 10.797H72.5955C75.9886 11.4253 79.2266 13.6527 82.219 17.4865C82.2697 17.5542 82.3025 17.6359 82.3139 17.7228C82.3253 17.8097 82.3148 17.8984 82.2836 17.9791C82.2526 18.0624 82.1997 18.1334 82.1317 18.183C82.0637 18.2327 81.9838 18.2586 81.9023 18.2576C78.4721 18.1842 75.0668 18.9141 71.9104 20.3994L71.807 20.435C71.7687 20.4396 71.7326 20.457 71.7036 20.485C71.6749 20.5144 71.6422 20.5386 71.6066 20.5564C68.5353 22.1658 66.1015 24.9583 64.7622 28.4096C64.7393 28.4741 64.7014 28.5307 64.6523 28.5738C64.6224 28.608 64.6002 28.6496 64.5877 28.6952C64.5877 28.7666 64.5554 28.8451 64.5425 28.9165V29.0735C64.5434 29.0949 64.5434 29.1164 64.5425 29.1378C64.4132 29.509 64.3098 29.8517 64.2258 30.1159C64.2056 30.1708 64.2056 30.2323 64.2258 30.2872C64.2548 30.3821 64.2548 30.485 64.2258 30.5799L64.187 30.7798C64.1743 30.8499 64.1474 30.9159 64.1082 30.9728C64.069 31.0297 64.0185 31.076 63.9608 31.1082C63.9037 31.1359 63.8421 31.1505 63.7798 31.1511C63.7123 31.1533 63.6455 31.1361 63.5859 31.1011C61.7052 30.0588 57.3038 27.1317 57.1228 22.6125C57.063 21.1 57.2941 19.5907 57.801 18.1841C58.3079 16.7775 59.079 15.5056 60.0635 14.4523C62.778 11.6109 67.0954 10.3401 72.5567 10.797Z" fill="#211613"/>
</g>
<path d="M107.763 39.0394C107.708 39.0372 107.653 39.0252 107.602 39.0037C107.506 38.9579 107.43 38.8754 107.386 38.7716C107.342 38.6677 107.333 38.5498 107.362 38.4397C107.615 37.5489 107.626 36.596 107.395 35.6982C106.975 34.0276 106.018 32.9782 104.842 32.8925H104.616C104.537 32.8947 104.46 32.8732 104.391 32.8305C104.323 32.7877 104.267 32.7253 104.228 32.6498C97.5256 19.4207 86.3058 11.4962 72.6428 10.3325C71.4839 10.2321 70.3203 10.2131 69.1592 10.2754C69.0778 10.2804 68.9969 10.2592 68.9262 10.2143C68.8556 10.1695 68.7983 10.1029 68.7613 10.0227C68.7243 9.94247 68.7092 9.85213 68.7179 9.76263C68.7266 9.67312 68.7586 9.58834 68.8101 9.51861C70.1028 7.80519 73.4636 3.65013 77.6646 2.10092C83.2228 0.0519514 91.4503 1.59403 99.1349 6.12032C107.505 11.0607 109.864 20.4773 110.484 24.2968C111.145 29.2808 110.328 34.3671 108.157 38.7967C108.118 38.8733 108.061 38.9364 107.991 38.9793C107.922 39.0221 107.843 39.0429 107.763 39.0394Z" fill="#CBBEC0"/>
<path d="M107.122 41.8599C107.088 41.7845 107.072 41.7001 107.078 41.6158C107.084 41.5315 107.11 41.4505 107.155 41.3816C108.565 39.1825 109.621 36.7311 110.276 34.1353C110.301 34.029 110.361 33.937 110.444 33.8783C111.058 33.3899 111.777 33.0864 112.529 32.9975C113.282 32.9087 114.042 33.0375 114.736 33.3714C116.326 34.171 117.399 36.0557 117.677 38.5473C118.097 42.3311 119.977 43.402 120.766 43.6876C121.223 43.8565 121.709 43.9102 122.188 43.8447C122.266 43.8375 122.344 43.8547 122.414 43.8942C122.484 43.9337 122.542 43.9941 122.583 44.0684C122.623 44.1427 122.644 44.228 122.643 44.3146C122.641 44.4012 122.618 44.4858 122.576 44.5586C121.856 45.6441 120.906 46.5182 119.81 47.1044C118.714 47.6906 117.504 47.971 116.287 47.9212C115.935 47.9226 115.583 47.9036 115.233 47.8641C112.151 47.5356 111.789 45.8294 111.491 44.4586C111.278 43.4377 111.078 42.7523 110.334 42.5239C109.401 42.2651 108.446 42.1191 107.484 42.0884C107.411 42.0884 107.339 42.0673 107.276 42.0272C107.212 41.9872 107.159 41.9295 107.122 41.8599Z" fill="#896E6C"/>
<path d="M99.7104 47.6996C100.911 46.1907 101.922 44.5097 102.716 42.7021C102.752 42.6226 102.807 42.5558 102.876 42.5092C102.944 42.4625 103.023 42.4378 103.103 42.438C103.71 42.4218 104.304 42.2377 104.829 41.9025C104.884 41.8744 104.943 41.8599 105.004 41.8599C105.064 41.8599 105.123 41.8744 105.178 41.9025C105.235 41.9241 105.287 41.9589 105.33 42.0045C105.374 42.05 105.408 42.1053 105.43 42.1667C105.592 42.6898 105.635 43.2492 105.554 43.7948C105.472 44.3405 105.27 44.8554 104.965 45.2937C104.076 46.9592 102.866 48.3877 101.421 49.4773C99.9749 50.5669 98.3295 51.2909 96.6016 51.5976H96.5305C96.4452 51.5969 96.362 51.568 96.2917 51.5145C96.2215 51.4611 96.1673 51.3856 96.1363 51.2978C96.1008 51.1961 96.0988 51.0839 96.1307 50.9807C96.1626 50.8776 96.2264 50.7902 96.3108 50.7338C97.5695 49.9072 98.7143 48.8854 99.7104 47.6996Z" fill="#896E6C"/>
<path d="M104.506 110.396C105.307 110.177 106.066 109.803 106.748 109.29C107.432 108.855 108.081 108.355 108.687 107.798C108.754 107.73 108.838 107.689 108.928 107.678C109.017 107.668 109.108 107.69 109.185 107.74C109.408 107.879 109.6 108.072 109.745 108.305C109.891 108.537 109.987 108.803 110.025 109.083C110.2 110.232 109.573 112.124 107.298 113.987C105.643 115.351 104.532 115.672 103.853 115.672C103.609 115.679 103.367 115.628 103.142 115.522C102.958 115.429 102.801 115.282 102.687 115.097C102.573 114.912 102.507 114.696 102.496 114.473C102.412 113.402 104.066 110.867 104.254 110.582C104.313 110.487 104.403 110.42 104.506 110.396Z" fill="#5A4F4A"/>
<path d="M83.6168 85.3517C83.6023 85.0518 83.5677 84.7535 83.5134 84.4593C83.4958 84.3433 83.5186 84.2242 83.5774 84.1261C83.6362 84.028 83.7265 83.9583 83.8301 83.931C86.913 83.1028 92.1675 81.4179 96.0583 80.1115C98.1652 79.3975 99.9361 78.7836 101.397 78.2767C101.486 78.243 101.584 78.2437 101.673 78.2787C101.762 78.3137 101.838 78.3809 101.888 78.4694C102.172 78.9763 103.562 81.5964 103.181 83.5526C102.864 85.0947 102.534 86.2298 102.334 86.9866C102.218 87.4149 102.127 87.7005 102.095 87.9289C101.949 89.1939 102.089 90.4792 102.502 91.6699L102.916 92.6623C106.393 100.908 108.293 105.706 108.564 106.941C108.58 107.018 108.577 107.099 108.557 107.175C108.536 107.251 108.499 107.32 108.448 107.376C107.302 108.428 106.01 109.27 104.622 109.868H104.525C104.463 109.867 104.402 109.852 104.346 109.822C104.29 109.793 104.241 109.75 104.202 109.697C103.284 108.483 99.1024 101.501 97.3509 98.5521C97.3187 98.5095 97.2985 98.4574 97.2927 98.4022C97.2022 98.0096 97.1311 97.9453 97.073 97.8953C97.0148 97.8454 97.0406 97.8953 97.0342 97.8953C96.9551 97.8581 96.8877 97.796 96.8403 97.7168C95.8902 96.1177 94.9725 94.5613 94.171 93.1977C94.1175 93.1169 94.0886 93.0194 94.0886 92.9193C94.0886 92.8191 94.1175 92.7216 94.171 92.6409C95.2827 91.0131 96.6012 89.0712 96.9502 88.5715L97.0342 88.443C97.0514 88.419 97.0639 88.3914 97.0709 88.3619C97.078 88.3324 97.0795 88.3016 97.0752 88.2714C97.071 88.2412 97.0611 88.2123 97.0463 88.1866C97.0314 88.1608 97.0119 88.1387 96.989 88.1217C96.9673 88.1028 96.9423 88.0892 96.9156 88.0818C96.8888 88.0744 96.861 88.0734 96.8338 88.0789C96.807 88.0815 96.7809 88.0905 96.7575 88.1053C96.7341 88.1201 96.7138 88.1403 96.6981 88.1645C96.2392 88.8356 92.7104 94.0044 92.245 94.7184C91.7797 95.4323 89.0135 99.1447 89.0135 99.1804C88.987 99.2176 88.9713 99.2627 88.9684 99.3099C88.9655 99.357 88.9755 99.4041 88.9971 99.4449C89.0187 99.4857 89.0509 99.5184 89.0896 99.5387C89.1283 99.559 89.1716 99.566 89.2139 99.5588C91.9607 98.9948 95.3279 98.3879 96.4654 98.3165C96.5395 98.3125 96.6131 98.3303 96.679 98.3679C96.7448 98.4055 96.8005 98.4617 96.8403 98.5307L96.9114 98.6521C96.9422 98.7069 96.9641 98.7673 96.976 98.8306C97.1509 100.441 97.1834 102.067 97.073 103.685C97.0634 103.773 97.0308 103.856 96.9791 103.923C96.9274 103.99 96.8589 104.039 96.7821 104.064C95.0112 104.67 84.1533 106.727 82.2725 106.627C80.5469 106.534 79.6873 105.392 79.6873 103.15C79.6873 101.793 81.219 95.3466 82.88 88.5786C83.5134 85.9085 83.6168 85.4588 83.6168 85.3517Z" fill="#CBBEC0"/>
<path d="M56.9943 53.2824C57.0025 53.1675 57.0496 53.0603 57.1263 52.9822C57.203 52.904 57.3037 52.8608 57.408 52.8612C60.2776 52.9112 76.3513 54.0177 84.456 54.596C84.4892 54.5989 84.5226 54.5926 84.553 54.5776C84.5835 54.5627 84.6101 54.5395 84.6305 54.5104C84.6679 54.4565 84.7158 54.4125 84.7706 54.3816C84.8254 54.3507 84.8857 54.3337 84.9472 54.3319C87.7274 54.2169 90.4718 53.5995 93.0713 52.5042C93.1708 52.4585 93.2826 52.4576 93.3828 52.5016C93.4831 52.5456 93.5637 52.6311 93.6077 52.7398L93.9761 53.6394C95.7599 57.9943 100.982 70.7093 101.389 71.7017C101.628 72.2871 102.494 73.0653 103.794 74.179C104.278 74.5931 104.944 75.1642 105.338 75.6068C105.389 75.6598 105.427 75.7263 105.449 75.7999C105.47 75.8736 105.474 75.9521 105.461 76.028C105.45 76.1045 105.421 76.1765 105.376 76.2366C105.332 76.2967 105.274 76.343 105.209 76.3707C101.738 77.9557 84.2427 83.6314 81.8061 83.9669H81.7544C81.68 83.9653 81.6071 83.9429 81.5427 83.9017C81.4782 83.8604 81.4243 83.8018 81.386 83.7313C80.6557 82.3035 78.3807 75.1142 77.2819 71.0234C76.6809 68.7274 76.2996 66.3681 76.1445 63.9841C76.1391 63.9189 76.1468 63.8531 76.1669 63.7914C76.187 63.7298 76.219 63.6737 76.2608 63.6272C76.3036 63.5796 76.3552 63.5428 76.4121 63.5194C76.469 63.496 76.5299 63.4865 76.5904 63.4915C82.7885 63.877 88.4889 64.2055 90.0918 64.2911H90.1693C90.2226 64.2895 90.2734 64.2658 90.3117 64.2248C90.3499 64.1839 90.3729 64.1286 90.3762 64.0698C90.3788 64.0399 90.3756 64.0098 90.3667 63.9814C90.3577 63.9531 90.3433 63.9272 90.3245 63.9056C90.2856 63.8597 90.2325 63.8317 90.1758 63.8271C79.9383 63.2559 60.019 62.0423 57.9121 61.5354C57.8502 61.5216 57.7919 61.4927 57.7416 61.4507C57.6912 61.4086 57.6501 61.3546 57.6212 61.2926C57.2305 59.9518 57.0257 58.5533 57.0137 57.1447C56.9216 55.8596 56.9152 54.5686 56.9943 53.2824Z" fill="#CBBEC0"/>
<path d="M45.3751 55.3601C46.1313 54.9531 48.2059 54.589 50.3064 54.4891C50.3566 54.4861 50.4041 54.4637 50.4408 54.4259C50.4774 54.388 50.5008 54.3371 50.5068 54.282C50.5101 54.2262 50.4958 54.1708 50.4664 54.1253C50.4369 54.0798 50.3941 54.0469 50.3453 54.0322C48.8658 53.6829 47.4832 52.9486 46.3123 51.8904C46.2527 51.8334 46.2094 51.7585 46.1876 51.6749C46.1659 51.5913 46.1665 51.5025 46.1895 51.4192C46.2107 51.3369 46.2521 51.2626 46.3091 51.2047C46.3661 51.1467 46.4366 51.1073 46.5126 51.0908C47.3807 50.9763 48.2609 51.0614 49.0978 51.3407C51.4375 51.9903 53.4734 52.5258 53.4928 52.5329C53.5191 52.5464 53.5478 52.5533 53.5768 52.5533C53.6058 52.5533 53.6344 52.5464 53.6608 52.5329C53.6856 52.516 53.7066 52.493 53.7223 52.4658C53.738 52.4386 53.7479 52.4079 53.7513 52.3759C53.8742 50.9255 54.199 49.5047 54.7143 48.1637C54.7515 48.0974 54.8027 48.0421 54.8635 48.0023C54.9243 47.9626 54.9928 47.9396 55.0633 47.9353C55.1349 47.9308 55.2062 47.9477 55.2698 47.9841C55.3335 48.0206 55.3872 48.0752 55.4252 48.1423C55.8906 48.9133 56.1491 51.3549 56.343 53.6324V53.768C56.3487 53.8241 56.3743 53.8754 56.4141 53.9108C56.4552 53.9555 56.4878 54.0089 56.51 54.0677C56.5322 54.1266 56.5435 54.1897 56.5433 54.2535C56.5082 56.3394 56.6554 58.4242 56.9828 60.4789C57.0052 60.5831 56.9942 60.6926 56.9518 60.7889C56.9094 60.8852 56.8382 60.9623 56.7502 61.0072C56.7229 61.0202 56.6987 61.0397 56.6791 61.0643C56.2073 61.6783 55.3864 61.8711 54.4881 62.0781L53.803 62.2423C52.0762 62.7476 50.3066 63.0539 48.5227 63.1561C48.2508 63.1662 47.9789 63.135 47.7148 63.0633C47.6516 63.0427 47.5937 63.0061 47.5455 62.9566C47.4973 62.907 47.4601 62.8458 47.4369 62.7777C47.4143 62.7113 47.406 62.6399 47.4127 62.5692C47.4194 62.4986 47.441 62.4307 47.4756 62.3708C47.8311 61.7497 49.1883 60.8359 50.2806 60.2862C50.3256 60.2635 50.3621 60.2243 50.3838 60.1753C50.4055 60.1262 50.4111 60.0703 50.3996 60.0172C50.3882 59.9641 50.3603 59.917 50.321 59.884C50.2816 59.8511 50.2331 59.8342 50.1837 59.8364C48.695 60.0089 47.1919 59.9512 45.7177 59.665C45.6378 59.6373 45.5668 59.5849 45.513 59.5141C45.4592 59.4433 45.4248 59.3569 45.4139 59.2652C45.4064 59.1746 45.4225 59.0834 45.4603 59.0024C45.4981 58.9215 45.5559 58.8542 45.6272 58.8083C47.0345 58.1518 48.5182 57.7168 50.035 57.5161C50.0844 57.5065 50.1292 57.478 50.1614 57.4356C50.1936 57.3931 50.2113 57.3395 50.2113 57.2841C50.2113 57.2287 50.1936 57.1751 50.1614 57.1326C50.1292 57.0902 50.0844 57.0617 50.035 57.0521C48.4622 57.0529 46.8996 56.7733 45.4075 56.2239C45.3384 56.1841 45.2805 56.1241 45.2401 56.0504C45.1997 55.9768 45.1784 55.8924 45.1784 55.8063C45.1784 55.7202 45.1997 55.6357 45.2401 55.5621C45.2805 55.4885 45.3384 55.4285 45.4075 55.3886L45.3751 55.3601Z" fill="#FCE4DF"/>
<path d="M90.177 64.7057C90.3198 64.6698 90.4473 64.5813 90.5386 64.4549C90.6299 64.3284 90.6797 64.1714 90.6797 64.0097C90.6797 63.8479 90.6299 63.6909 90.5386 63.5645C90.4473 63.438 90.3198 63.3495 90.177 63.3136C78.1298 62.6425 59.9103 61.4931 57.9843 61.0361C57.6209 59.7482 57.4293 58.4086 57.4156 57.0596C57.3391 55.8069 57.3391 54.5499 57.4156 53.2972C60.059 53.34 74.6333 54.3324 84.4378 55.0321C84.6092 55.0444 84.778 54.9809 84.9071 54.8558C85.0362 54.7306 85.1149 54.5539 85.1261 54.3645C85.1372 54.1752 85.0798 53.9887 84.9665 53.8461C84.8532 53.7035 84.6932 53.6165 84.5218 53.6042C57.2088 51.6481 56.8468 51.8479 56.653 51.9622C56.2522 52.1763 56.1682 52.6761 56.1294 53.697C56.1294 53.7684 55.9873 61.2932 57.3251 62.1999C57.5837 62.3712 58.0102 62.6639 74.2132 63.7134C82.1434 64.2203 90.0671 64.6629 90.1511 64.67L90.177 64.7057Z" fill="#211613"/>
<path d="M48.6895 64.0557C50.4846 63.9664 52.2647 63.6526 53.9957 63.1205L54.642 62.9562C55.6244 62.7278 56.6456 62.4922 57.2984 61.6426C57.3743 61.5776 57.4362 61.4948 57.4795 61.4C57.5228 61.3053 57.5464 61.201 57.5487 61.0949C57.5509 60.9888 57.5317 60.8835 57.4925 60.7867C57.4532 60.6898 57.3949 60.6038 57.3218 60.5349C57.2487 60.4661 57.1626 60.4161 57.0698 60.3887C56.977 60.3612 56.8798 60.3569 56.7853 60.3762C56.6908 60.3955 56.6014 60.4377 56.5236 60.5C56.4457 60.5622 56.3814 60.6428 56.3354 60.736C55.9605 61.2214 55.1914 61.3999 54.3964 61.5927C54.1573 61.6498 53.9247 61.6998 53.692 61.764C51.1068 62.4779 48.5215 62.8206 47.8235 62.585C48.5763 61.7654 49.468 61.1177 50.4475 60.6788C50.5813 60.6095 50.6896 60.4917 50.7543 60.3448C50.819 60.198 50.8362 60.0312 50.803 59.8721C50.7651 59.7164 50.6806 59.5794 50.5632 59.4834C50.4459 59.3875 50.3026 59.3383 50.1567 59.3438C48.718 59.5141 47.2648 59.4613 45.8393 59.1867C47.2012 58.5604 48.6342 58.1425 50.0985 57.9445C50.237 57.8979 50.3573 57.8013 50.4402 57.6701C50.523 57.5389 50.5636 57.3808 50.5554 57.2211C50.5472 57.0615 50.4907 56.9095 50.395 56.7895C50.2992 56.6695 50.1698 56.5885 50.0274 56.5595C48.5152 56.5543 47.0129 56.2893 45.5744 55.7742C47.1149 55.2441 48.7177 54.9674 50.3312 54.9532C50.4713 54.928 50.6 54.8527 50.6975 54.7387C50.795 54.6247 50.8558 54.4784 50.8705 54.3224C50.8852 54.1664 50.853 54.0095 50.7789 53.8757C50.7048 53.742 50.5929 53.6389 50.4604 53.5824C49.0435 53.2462 47.7163 52.5522 46.5826 51.5549C47.3847 51.4588 48.1961 51.5438 48.9675 51.8047C51.3006 52.4473 53.3494 52.9899 53.3688 52.997C53.455 53.0181 53.5442 53.0195 53.6309 53.0011C53.7176 52.9827 53.8 52.9449 53.8729 52.8899C53.9465 52.8353 54.0083 52.7635 54.0541 52.6796C54.0999 52.5957 54.1285 52.5018 54.1379 52.4044C54.2619 51.018 54.5689 49.659 55.0492 48.3708C55.5146 49.1489 55.7925 52.3759 55.9023 53.6467V53.7823C55.9219 53.9654 56.0048 54.1331 56.1337 54.2502C56.2626 54.3673 56.4275 54.4247 56.5939 54.4106C56.7597 54.389 56.9114 54.2974 57.0174 54.155C57.1234 54.0127 57.1755 53.8305 57.1627 53.6467V53.5182C56.8266 49.5559 56.5163 46.9501 55.0751 46.8644C54.7131 46.8644 53.6467 46.7716 52.994 51.4549C52.199 51.2479 50.803 50.8695 49.2842 50.4483C47.6296 49.9914 46.3305 50.0056 45.6196 50.484C45.4937 50.5576 45.383 50.6589 45.294 50.7817C45.2051 50.9045 45.1399 51.0462 45.1025 51.1979C44.9474 51.9547 45.9234 52.9827 47.4357 53.8252C44.1072 54.3606 44.1331 55.4029 44.1395 55.7956C44.1395 56.5523 44.8634 57.1164 46.24 57.4805C44.9474 58.0016 44.3011 58.6299 44.3658 59.3509C44.4433 60.2719 45.555 60.7788 47.6684 60.8288C46.4856 61.8425 46.4339 62.6279 46.5697 63.0848C46.6537 63.3775 46.854 64.0557 48.6895 64.0557Z" fill="#211613"/>
<path d="M103.103 42.938C104.224 42.8876 105.288 42.3787 106.089 41.5101C106.838 40.792 107.394 39.86 107.696 38.8162C107.998 37.7723 108.035 36.6568 107.801 35.5917C107.33 33.7284 106.231 32.5504 104.867 32.4504C103.504 32.3505 102.011 33.4856 101.28 35.3561C101.223 35.4425 101.185 35.542 101.167 35.6471C101.15 35.7522 101.154 35.8603 101.179 35.9635C101.204 36.0666 101.25 36.1621 101.314 36.243C101.377 36.3239 101.456 36.388 101.545 36.4307C101.633 36.4734 101.73 36.4936 101.826 36.4897C101.923 36.4858 102.018 36.458 102.103 36.4083C102.189 36.3586 102.263 36.2883 102.321 36.2026C102.379 36.1168 102.419 36.0179 102.437 35.913C102.954 34.5851 103.878 33.7712 104.783 33.8426C105.688 33.914 106.257 34.6779 106.586 35.9844C106.74 36.7889 106.699 37.6242 106.466 38.4053C106.233 39.1864 105.818 39.8857 105.261 40.4321C104.376 41.3317 103.323 41.7172 102.566 41.403C102.419 41.3771 102.267 41.4085 102.138 41.492C102.009 41.5754 101.91 41.7057 101.859 41.8606C101.807 42.0156 101.805 42.1856 101.854 42.3417C101.903 42.4978 101.999 42.6303 102.127 42.7167C102.438 42.8523 102.768 42.9272 103.103 42.938Z" fill="#211613"/>
<path d="M80.4509 43.3658C80.5651 43.3683 80.6775 43.3335 80.774 43.2659C80.9134 43.1685 81.0138 43.0159 81.0547 42.8394C81.0955 42.6628 81.0737 42.4757 80.9938 42.3164C80.5961 41.5846 80.2442 40.8237 79.9403 40.0389C80.2628 39.9789 80.5891 39.9478 80.9162 39.9461C81.079 39.9467 81.236 39.8794 81.3559 39.7576C81.4757 39.6358 81.5495 39.4686 81.5625 39.2893L81.6982 36.7406C81.7077 36.5512 81.6486 36.3655 81.5341 36.2243C81.4195 36.083 81.2589 35.9978 81.0875 35.9874C80.9161 35.977 80.7479 36.0422 80.6201 36.1687C80.4922 36.2953 80.4151 36.4727 80.4056 36.6621L80.3087 38.5754C79.7429 38.5465 79.189 38.7615 78.764 39.1751C78.5507 39.4749 78.2276 39.889 79.9015 43.0231C79.9589 43.1274 80.0396 43.2136 80.1358 43.2736C80.2319 43.3336 80.3404 43.3653 80.4509 43.3658Z" fill="#211613"/>
<path d="M64.3762 30.9075C64.5087 30.9054 64.6375 30.8584 64.745 30.7729C64.8525 30.6873 64.9336 30.5673 64.9773 30.4291C67.2652 22.7116 73.0755 19.042 82.7443 19.192C82.9157 19.192 83.0801 19.1167 83.2013 18.9829C83.3225 18.849 83.3906 18.6674 83.3906 18.478C83.3906 18.2887 83.3225 18.1071 83.2013 17.9732C83.0801 17.8393 82.9157 17.7641 82.7443 17.7641C72.5973 17.6071 66.2117 21.705 63.7622 29.9579C63.7144 30.1332 63.7294 30.322 63.8039 30.4854C63.8785 30.6488 64.007 30.7743 64.1629 30.8361C64.2288 30.8759 64.3014 30.9002 64.3762 30.9075Z" fill="#211613"/>
<path d="M104.254 33.8992C104.358 33.8974 104.46 33.868 104.552 33.8135C104.697 33.7218 104.804 33.5718 104.851 33.3948C104.898 33.2178 104.881 33.0275 104.804 32.864C98.0563 19.228 86.6361 11.0607 72.6564 9.86843C65.4242 9.25446 61.5141 11.6747 59.504 13.8022C58.4308 14.9456 57.5881 16.3265 57.0312 17.8545C56.4744 19.3825 56.2158 21.0231 56.2725 22.6691C56.4858 28.866 63.5693 32.1786 63.8731 32.3214C64.0193 32.3525 64.1707 32.327 64.3018 32.2491C64.4329 32.1711 64.5356 32.0456 64.5926 31.8937C64.6496 31.7417 64.6573 31.5727 64.6146 31.4152C64.5718 31.2577 64.4811 31.1213 64.3578 31.0292C64.2867 31.0292 57.7202 27.9164 57.5392 22.6191C57.4837 21.172 57.7055 19.7282 58.19 18.3823C58.6745 17.0364 59.4108 15.8187 60.3507 14.8088C62.9683 12.0316 67.1757 10.8108 72.5336 11.2392C86.1061 12.3886 97.1321 20.2989 103.673 33.5136C103.728 33.6311 103.811 33.7294 103.914 33.7975C104.017 33.8655 104.135 33.9007 104.254 33.8992Z" fill="#211613"/>
<path d="M100.452 32.0575C101.406 32.0966 102.359 31.9689 103.277 31.6791C103.432 31.6132 103.559 31.4836 103.63 31.3174C103.701 31.1511 103.711 30.961 103.658 30.7867C103.599 30.6151 103.481 30.4755 103.331 30.3971C103.18 30.3186 103.008 30.3073 102.85 30.3655C101.338 30.9652 97.1305 30.6439 92.6257 29.573C89.1938 28.7591 88.3148 26.7173 87.3001 24.3613C87.061 23.8045 86.8154 23.2262 86.5246 22.6622C84.786 19.2639 79.9645 11.2037 72.7065 9.87582C72.5416 9.85074 72.3744 9.89684 72.2395 10.0046C72.1047 10.1123 72.0127 10.2733 71.9826 10.4541C71.9599 10.6362 72.0017 10.8209 72.0992 10.9699C72.1967 11.1188 72.3425 11.2205 72.5061 11.2537C79.2148 12.4816 83.7777 20.1206 85.4323 23.3476C85.6973 23.8688 85.9364 24.4256 86.1691 24.961C87.1773 27.317 88.3277 29.9585 92.3672 30.9366C95.0217 31.607 97.7303 31.9825 100.452 32.0575Z" fill="#211613"/>
<path d="M106.226 43.0661C106.32 43.0652 106.412 43.0418 106.497 42.9974C106.582 42.953 106.657 42.8887 106.717 42.8091C108.594 40.2064 109.969 37.2064 110.756 33.9943C111.543 30.7822 111.726 27.426 111.293 24.1328C110.647 20.1777 108.21 10.4326 99.5108 5.30657C91.6323 0.658922 83.1527 -0.90456 77.3747 1.2158C71.713 3.3076 67.6478 9.61869 67.4733 9.88284C67.4021 9.95509 67.3464 10.0441 67.3105 10.1432C67.2745 10.2424 67.2592 10.3492 67.2656 10.4558C67.272 10.5624 67.2999 10.666 67.3474 10.7591C67.3949 10.8521 67.4606 10.9322 67.5398 10.9935C67.619 11.0547 67.7097 11.0956 67.8051 11.113C67.9005 11.1304 67.9982 11.124 68.0911 11.0941C68.1839 11.0643 68.2695 11.0118 68.3415 10.9405C68.4136 10.8693 68.4703 10.7811 68.5073 10.6824C68.5461 10.6253 72.5145 4.47843 77.7754 2.54369C83.2302 0.530419 91.3479 2.06536 98.9161 6.53453C107.124 11.3749 109.438 20.6274 110.052 24.3827C110.457 27.4778 110.284 30.6319 109.542 33.6501C108.801 36.6683 107.507 39.4866 105.741 41.9309C105.637 42.0753 105.588 42.2586 105.604 42.4422C105.619 42.6259 105.699 42.7958 105.825 42.9162C105.94 43.0144 106.081 43.0672 106.226 43.0661Z" fill="#211613"/>
<path d="M76.2349 45.3651C75.8859 45.7007 77.4177 50.8195 81.832 51.0337C86.2462 51.2479 87.8943 46.0362 87.5647 45.4365C87.2351 44.8368 76.7649 44.8511 76.2349 45.3651Z" fill="#F29C97"/>
<path d="M82.1049 51.7402C83.2033 51.7185 84.2771 51.3771 85.2178 50.7503C86.1586 50.1235 86.9329 49.2337 87.4627 48.1706C87.8893 47.3567 88.5098 45.7932 88.109 45.0721C87.9281 44.7509 87.5855 44.6366 87.0556 44.5509C85.4462 44.2868 76.65 44.0512 75.8292 44.8437C75.4996 45.1649 75.4802 45.7361 75.7645 46.6428C76.1979 48.0618 77.0054 49.3054 78.0834 50.2137C79.1613 51.122 80.4605 51.6536 81.814 51.7402H82.1049ZM86.9457 45.9288C86.6958 46.9648 86.2109 47.9133 85.5367 48.6846C85.0756 49.2459 84.5065 49.686 83.8713 49.9727C83.236 50.2593 82.5507 50.3851 81.8657 50.3409C78.6342 50.1767 77.1412 47.0283 76.8698 45.886C80.224 45.6002 83.5936 45.6145 86.9457 45.9288Z" fill="#211613"/>
<path d="M81.568 84.8739C81.9621 84.85 82.3535 84.7878 82.7378 84.6883C85.4329 84.06 91.6633 82.0682 96.181 80.5547C106.179 77.1992 106.354 76.828 106.522 76.4996C106.903 75.6429 106.044 74.9075 104.337 73.4369C103.541 72.8232 102.816 72.1039 102.179 71.2951C101.688 70.0885 94.1775 51.7764 94.1775 51.7764L93.027 52.3475C93.027 52.3475 100.537 70.6668 101.035 71.8662C101.313 72.5801 102.172 73.2941 103.562 74.5149C104.04 74.9289 104.699 75.493 105.074 75.8856C101.726 77.4134 84.2243 83.1177 81.8071 83.4461C81.1091 82.0539 78.86 75.0218 77.7354 70.8382C77.0853 68.3348 76.6971 65.7573 76.5785 63.1563C76.5759 63.0626 76.5567 62.9703 76.5219 62.8847C76.487 62.7992 76.4373 62.7221 76.3755 62.6578C76.3137 62.5935 76.241 62.5433 76.1616 62.51C76.0822 62.4767 75.9977 62.461 75.9128 62.4638C75.8279 62.4666 75.7444 62.4879 75.6669 62.5264C75.5895 62.5648 75.5197 62.6198 75.4615 62.6881C75.4033 62.7563 75.3578 62.8366 75.3276 62.9243C75.2975 63.012 75.2833 63.1054 75.2859 63.1992C75.4072 65.9194 75.8149 68.6148 76.5009 71.2308C77.0826 73.3726 80.1332 83.8244 81.0251 84.6669C81.0986 84.7394 81.1845 84.7951 81.2777 84.8307C81.3709 84.8662 81.4696 84.8809 81.568 84.8739Z" fill="#211613"/>
<path d="M88.5473 79.6116C88.6153 79.6096 88.6826 79.5976 88.7477 79.5759C88.9039 79.5127 89.0321 79.3855 89.1055 79.2206C89.1789 79.0557 89.192 78.8659 89.1419 78.6906C88.4568 76.4203 85.3222 66.661 85.2641 66.5539C85.1878 66.4121 85.0694 66.3038 84.9291 66.2475C84.7887 66.1912 84.6351 66.1903 84.4942 66.245C84.3533 66.2996 84.2339 66.4065 84.1563 66.5474C84.0786 66.6883 84.0476 66.8546 84.0684 67.0179C84.1007 67.1179 87.2418 76.863 87.9462 79.119C87.9878 79.2598 88.068 79.3829 88.1757 79.4712C88.2834 79.5594 88.4133 79.6085 88.5473 79.6116Z" fill="#211613"/>
<path d="M104.376 110.861C104.764 110.861 105.488 110.639 106.961 109.676C107.446 109.361 109.062 108.248 109.366 107.598C109.579 107.134 109.76 106.727 103.678 92.3058C103.465 91.7917 103.31 91.4348 103.252 91.2849C102.912 90.2706 102.79 89.183 102.896 88.1079C102.928 87.9508 103.012 87.6438 103.122 87.2583C103.336 86.4944 103.659 85.3379 103.982 83.7601C104.531 81.09 102.489 77.7845 102.405 77.6417C102.297 77.5297 102.158 77.4618 102.011 77.4493C101.863 77.4369 101.716 77.4807 101.595 77.5734C101.473 77.6661 101.384 77.8022 101.342 77.9588C101.3 78.1155 101.308 78.2833 101.364 78.4342C101.869 79.2481 103.103 81.7325 102.748 83.4317C102.437 84.9523 102.101 86.0803 101.914 86.83C101.791 87.2654 101.7 87.5867 101.662 87.8152C101.5 89.1768 101.651 90.5615 102.101 91.8417C102.166 91.9916 102.314 92.3558 102.534 92.8698C106.774 102.929 107.963 106.192 108.151 107.048C107.059 108.039 105.836 108.839 104.525 109.419C103.478 108.034 97.926 98.7097 94.5071 92.9197C94.4745 92.8179 94.4214 92.7257 94.3518 92.6498C94.2822 92.574 94.198 92.5165 94.1054 92.4818C94.0128 92.4471 93.9144 92.4361 93.8174 92.4495C93.7204 92.463 93.6274 92.5006 93.5455 92.5594C93.4635 92.6183 93.3947 92.6969 93.3443 92.7894C93.2938 92.8819 93.263 92.9858 93.2541 93.0933C93.2453 93.2009 93.2587 93.3092 93.2932 93.4102C93.3278 93.5112 93.3826 93.6023 93.4536 93.6765C103.226 110.318 103.795 110.625 103.976 110.725C104.094 110.812 104.234 110.859 104.376 110.861Z" fill="#211613"/>
<path d="M96.9445 98.1245C98.6249 97.7961 100.402 99.2097 100.603 102.408C100.803 105.606 100.105 108.405 98.9222 108.733C97.7395 109.062 96.9445 107.099 97.1449 104.15L96.9445 98.1245Z" fill="#5A4F4A"/>
<path d="M98.6692 109.44C98.8065 109.438 98.9431 109.419 99.0764 109.383C100.828 108.897 101.422 105.385 101.229 102.329C101.22 101.542 101.061 100.766 100.763 100.051C100.465 99.3363 100.033 98.6992 99.4964 98.1812C99.1253 97.8564 98.6963 97.6218 98.2374 97.4927C97.7786 97.3635 97.3003 97.3427 96.8337 97.4315C96.695 97.4919 96.5795 97.6033 96.5067 97.7469C96.4339 97.8905 96.4083 98.0575 96.4341 98.2196C96.46 98.3817 96.5357 98.529 96.6486 98.6364C96.7614 98.7439 96.9044 98.805 97.0534 98.8094C97.3457 98.7525 97.6456 98.7651 97.9332 98.8464C98.2207 98.9276 98.4892 99.0756 98.7209 99.2806C99.1135 99.681 99.427 100.167 99.6417 100.707C99.8563 101.248 99.9675 101.832 99.9683 102.422C100.169 105.635 99.406 107.855 98.7661 108.033C98.7086 108.05 98.6481 108.051 98.5904 108.034C98.5327 108.018 98.4797 107.986 98.4365 107.941C98.0099 107.541 97.6351 106.22 97.7902 104.178C97.7966 104.084 97.7862 103.99 97.7596 103.901C97.733 103.812 97.6907 103.729 97.6352 103.658C97.5797 103.586 97.512 103.528 97.436 103.485C97.36 103.443 97.2773 103.418 97.1924 103.411C97.1075 103.404 97.0222 103.415 96.9414 103.445C96.8605 103.474 96.7857 103.521 96.7212 103.582C96.6566 103.643 96.6037 103.718 96.5653 103.802C96.527 103.886 96.504 103.977 96.4976 104.071C96.3425 106.37 96.7626 108.212 97.6092 109.004C97.9038 109.285 98.28 109.44 98.6692 109.44Z" fill="#211613"/>
<path d="M103.853 116.593C104.764 116.593 106.044 116.158 107.795 114.723C109.986 112.923 111.13 110.753 110.846 108.911C110.766 108.375 110.548 107.875 110.22 107.47C109.891 107.066 109.465 106.773 108.991 106.627C108.907 106.573 108.814 106.54 108.717 106.532C108.62 106.523 108.523 106.539 108.433 106.577C108.342 106.616 108.261 106.676 108.195 106.754C108.128 106.832 108.078 106.925 108.049 107.027C108.02 107.129 108.012 107.237 108.025 107.343C108.039 107.449 108.074 107.551 108.128 107.64C108.182 107.729 108.253 107.803 108.336 107.858C108.42 107.912 108.513 107.945 108.61 107.954C108.862 108.023 109.091 108.172 109.268 108.382C109.445 108.593 109.562 108.856 109.605 109.14C109.747 110.111 109.165 111.86 107.02 113.602C104.674 115.529 103.575 115.222 103.29 115.087C103.17 115.031 103.066 114.939 102.989 114.822C102.913 114.705 102.867 114.567 102.857 114.423C102.812 113.78 103.795 111.91 104.738 110.546C104.813 110.477 104.873 110.391 104.914 110.293C104.954 110.196 104.974 110.089 104.972 109.982C104.97 109.874 104.946 109.769 104.902 109.673C104.858 109.577 104.795 109.493 104.717 109.428C104.64 109.363 104.55 109.318 104.455 109.297C104.36 109.275 104.261 109.278 104.167 109.304C104.072 109.331 103.985 109.38 103.91 109.45C103.836 109.519 103.776 109.606 103.736 109.704C103.355 110.246 101.487 113.038 101.604 114.537C101.628 114.93 101.75 115.308 101.957 115.629C102.163 115.95 102.446 116.202 102.773 116.357C103.114 116.521 103.482 116.601 103.853 116.593Z" fill="#211613"/>
<path d="M88.1606 30.1796C88.5148 30.2102 88.8709 30.1616 89.2076 30.0368C89.2956 29.9835 89.3722 29.9101 89.4324 29.8215C89.4926 29.7328 89.535 29.631 89.5567 29.5228C89.6471 29.0159 89.3434 28.4805 88.6712 27.3025C87.9562 26.1777 87.3883 24.9471 86.9843 23.6472C86.9402 23.4693 86.8355 23.3172 86.6921 23.2227C86.5488 23.1283 86.3779 23.0987 86.2152 23.1403C86.0556 23.189 85.919 23.3036 85.8336 23.4604C85.7482 23.6171 85.7206 23.8041 85.7564 23.9827C86.1874 25.4289 86.808 26.7975 87.5983 28.045C87.7405 28.2948 87.9021 28.5661 88.0314 28.8089C85.7693 28.7446 78.8732 27.688 77.2057 26.9812C75.5382 26.2744 74.2585 21.0699 74.1551 19.9276C74.1388 19.7383 74.0551 19.5638 73.9224 19.4427C73.7897 19.3215 73.6188 19.2635 73.4474 19.2815C73.276 19.2995 73.1181 19.392 73.0084 19.5386C72.8987 19.6852 72.8462 19.8739 72.8625 20.0633C72.9401 20.8843 74.1551 27.2025 76.7403 28.2877C78.2592 28.9159 85.3686 30.1796 88.1606 30.1796Z" fill="#211613"/>
<path d="M64.137 32.3716C64.2504 32.3702 64.3615 32.3357 64.4591 32.2718C64.5566 32.2079 64.6373 32.1168 64.6928 32.0075C65.2785 30.9189 66.0736 29.9857 67.0217 29.2739C67.9699 28.5621 69.0481 28.089 70.18 27.8882L70.7875 27.7882C71.7505 27.6455 72.7265 27.5027 73.153 26.753C73.2501 26.5712 73.3077 26.3669 73.3212 26.1563C73.3346 25.9457 73.3036 25.7345 73.2306 25.5394C72.8703 23.9078 72.6176 22.2495 72.4744 20.5776C72.4296 20.4201 72.3368 20.2846 72.2118 20.1942C72.0867 20.1038 71.9372 20.0641 71.7886 20.0817C71.64 20.0994 71.5016 20.1734 71.3968 20.2912C71.2921 20.4089 71.2275 20.5631 71.2141 20.7275C71.3749 22.5105 71.6514 24.2784 72.0414 26.0177C71.5868 26.2166 71.1072 26.337 70.6195 26.3747L69.9732 26.4818C68.6806 26.753 65.3715 27.7525 63.607 31.3079C63.5293 31.4706 63.5115 31.6602 63.5573 31.8371C63.603 32.014 63.7088 32.1646 63.8526 32.2574C63.9379 32.3198 64.0354 32.359 64.137 32.3716Z" fill="#211613"/>
<path d="M99.8071 40.339C99.9418 40.338 100.073 40.2906 100.182 40.2034C101.625 38.8015 102.519 36.836 102.677 34.7204C102.709 34.6198 102.72 34.5126 102.709 34.4067C102.698 34.3008 102.667 34.1988 102.616 34.1083C102.565 34.0177 102.496 33.9409 102.415 33.8835C102.334 33.8261 102.242 33.7895 102.146 33.7764C102.05 33.7633 101.953 33.7741 101.862 33.8079C101.77 33.8417 101.687 33.8977 101.617 33.9718C101.548 34.0459 101.494 34.1362 101.461 34.2361C101.427 34.336 101.414 34.4429 101.423 34.5491C101.307 35.6928 100.965 36.7944 100.421 37.776C100.216 35.8914 99.6573 34.0748 98.7795 32.443C98.6632 32.2788 98.4111 31.9504 95.968 30.444C95.8238 30.3783 95.663 30.3725 95.5152 30.4276C95.3674 30.4827 95.2426 30.5949 95.1638 30.7437C95.0851 30.8924 95.0577 31.0676 95.0867 31.2369C95.1157 31.4062 95.1992 31.5582 95.3217 31.6648C96.1914 32.1314 97.0164 32.6935 97.7842 33.3425C98.1913 33.878 99.484 37.469 99.1285 39.5251C99.1134 39.628 99.1189 39.7332 99.1445 39.8335C99.1701 39.9338 99.2154 40.0267 99.2769 40.1056C99.3385 40.1845 99.415 40.2476 99.501 40.2904C99.587 40.3331 99.6805 40.3546 99.7748 40.3533L99.8071 40.339Z" fill="#211613"/>
<path d="M93.8341 52.7824C101.461 52.7824 104.511 47.7278 105.662 45.8145C107.284 43.1301 105.888 41.1454 105.83 41.0597C105.715 40.958 105.573 40.9022 105.427 40.9014C105.28 40.9006 105.138 40.9548 105.023 41.0553C104.908 41.1558 104.827 41.2964 104.794 41.4542C104.761 41.612 104.777 41.7775 104.841 41.9236C104.886 41.9878 105.7 43.2372 104.614 45.0363C103.445 46.971 100.737 51.4973 93.5885 51.3831C93.4171 51.3831 93.2527 51.4583 93.1315 51.5922C93.0102 51.7261 92.9422 51.9077 92.9422 52.097C92.9422 52.2863 93.0102 52.4679 93.1315 52.6018C93.2527 52.7357 93.4171 52.8109 93.5885 52.8109L93.8341 52.7824Z" fill="#211613"/>
<path d="M116.248 48.9059C117.972 48.9487 119.666 48.409 121.104 47.3589C122.542 46.3088 123.655 44.7986 124.295 43.0303C124.338 42.8788 124.334 42.7158 124.283 42.5671C124.233 42.4184 124.139 42.2925 124.017 42.2093C123.893 42.1312 123.749 42.1007 123.607 42.1227C123.466 42.1446 123.335 42.2178 123.235 42.3306C122.944 42.6377 122.58 42.848 122.186 42.9377C121.791 43.0273 121.382 42.9926 121.005 42.8375C119.661 42.3521 118.743 40.7529 118.491 38.4683C118.181 35.6126 116.927 33.4708 115.065 32.5499C114.23 32.1446 113.312 31.9887 112.405 32.0977C111.498 32.2067 110.632 32.5768 109.895 33.171C109.792 33.2889 109.728 33.4425 109.715 33.606C109.703 33.7695 109.741 33.9329 109.825 34.0687C109.908 34.2045 110.031 34.3044 110.174 34.3515C110.316 34.3986 110.469 34.3902 110.606 34.3276C111.164 33.8714 111.82 33.5846 112.51 33.4957C113.199 33.4068 113.897 33.5188 114.535 33.8207C115.99 34.5346 116.972 36.3051 117.231 38.6325C117.683 42.6876 119.745 43.8513 120.611 44.1583C121.124 44.3471 121.67 44.408 122.207 44.3368C121.173 45.8931 119.073 47.8636 115.253 47.4566C112.461 47.1639 112.164 45.7646 111.879 44.4082C111.685 43.4943 111.466 42.452 110.419 42.1307C109.028 41.769 107.6 41.6153 106.172 41.6738C106.03 41.7157 105.906 41.8098 105.819 41.9405C105.732 42.0712 105.687 42.2307 105.693 42.3928C105.7 42.5549 105.755 42.7099 105.852 42.8322C105.948 42.9546 106.079 43.037 106.224 43.066C107.527 43.0143 108.831 43.1536 110.102 43.4801C110.38 43.5657 110.477 43.837 110.671 44.7294C110.981 46.2144 111.459 48.4561 115.149 48.8488C115.515 48.8879 115.881 48.9069 116.248 48.9059Z" fill="#211613"/>
<path d="M93.092 37.5758C93.2634 37.5758 93.4278 37.5006 93.549 37.3667C93.6702 37.2328 93.7383 37.0512 93.7383 36.8619C93.7383 36.6725 93.6702 36.4909 93.549 36.3571C93.4278 36.2232 93.2634 36.1479 93.092 36.1479L88.8069 35.998L91.5538 33.9276C91.687 33.8201 91.7779 33.6604 91.8079 33.4812C91.838 33.302 91.8048 33.1169 91.7153 32.9638C91.6188 32.8136 91.4734 32.7104 91.3096 32.6758C91.1458 32.6412 90.9762 32.6779 90.8363 32.7782L86.4932 36.0551C86.3921 36.1433 86.3171 36.2628 86.2779 36.3983C86.2387 36.5338 86.2371 36.6792 86.2732 36.8157C86.3093 36.9523 86.3815 37.0738 86.4806 37.1647C86.5797 37.2556 86.7011 37.3117 86.8292 37.3259L93.0532 37.5472L93.092 37.5758Z" fill="#211613"/>
<path d="M68.5911 37.2692L74.8151 37.0479C74.9477 37.0414 75.0753 36.9899 75.1806 36.9005C75.2858 36.8111 75.3635 36.688 75.4032 36.5481C75.438 36.4065 75.4325 36.2566 75.3874 36.1186C75.3423 35.9807 75.2598 35.8614 75.1512 35.7771L70.8015 32.5002C70.6622 32.402 70.4941 32.3665 70.3318 32.4011C70.1695 32.4356 70.0254 32.5375 69.929 32.6858C69.8375 32.8394 69.8033 33.0262 69.8334 33.2071C69.8635 33.3879 69.9556 33.549 70.0906 33.6567L72.8374 35.7199L68.5524 35.8699C68.381 35.8699 68.2166 35.9451 68.0954 36.079C67.9742 36.2129 67.9061 36.3944 67.9061 36.5838C67.9061 36.7731 67.9742 36.9547 68.0954 37.0886C68.2166 37.2225 68.381 37.2977 68.5524 37.2977L68.5911 37.2692Z" fill="#211613"/>
<path d="M82.3642 107.541C85.0589 107.311 87.7406 106.922 90.3979 106.377C97.2487 105.106 97.4685 104.778 97.63 104.542C97.7916 104.307 97.992 104.007 97.9144 101.059C97.8369 98.0029 97.5137 97.7387 97.3069 97.5603C97.1001 97.3818 96.7446 97.1033 90.7016 98.2742C91.5354 97.139 92.6018 95.6898 92.8926 95.2329C93.3773 94.4832 97.294 88.7576 97.3328 88.7004C97.3955 88.5524 97.4102 88.385 97.3746 88.2263C97.3391 88.0676 97.2552 87.9272 97.1372 87.8286C97.0192 87.73 96.8741 87.6791 96.7261 87.6845C96.5782 87.6898 96.4365 87.7511 96.3245 87.858C96.1629 88.0936 92.3626 93.6551 91.865 94.419C91.3673 95.1829 88.6334 98.8168 88.6334 98.8596C88.5537 98.9704 88.5056 99.105 88.4952 99.2461C88.4849 99.3872 88.5127 99.5285 88.5753 99.6521C88.6412 99.772 88.7377 99.8677 88.8527 99.9274C88.9676 99.9871 89.0959 100.008 89.2216 99.9876C92.1623 99.3808 95.452 98.7954 96.4732 98.7525C96.6592 100.358 96.6982 101.979 96.5895 103.593C94.7992 104.207 83.9542 106.234 82.2221 106.134C81.2138 106.077 80.0569 105.685 80.0569 103.122C80.0569 101.637 82.2027 92.8841 83.2368 88.6719C84.0123 85.5163 84.0123 85.4878 84.0123 85.3307C83.9729 84.8073 83.9016 84.2873 83.7991 83.7744C83.7618 83.5959 83.6639 83.44 83.5256 83.339C83.3872 83.238 83.219 83.1996 83.0558 83.2318C82.893 83.2714 82.7504 83.3788 82.6576 83.5318C82.5649 83.6848 82.5292 83.8715 82.5581 84.0528C82.6422 84.5026 82.7326 85.0737 82.7456 85.2808C82.7585 85.4878 82.3578 86.9156 82.0152 88.3078C80.3865 94.9616 78.7837 101.58 78.7837 103.122C78.7837 105.842 79.9794 107.405 82.151 107.527L82.3642 107.541Z" fill="#211613"/>
<path d="M89.84 43.8295C89.84 45.5715 91.5656 46.9922 93.7179 46.9922C95.8701 46.9922 97.5957 45.5643 97.5957 43.8295C97.5957 42.0947 95.8701 40.6597 93.7179 40.6597C91.5656 40.6597 89.84 42.0804 89.84 43.8295Z" fill="#F8C6BE"/>
<path d="M63.6135 41.6665C64.4236 40.9957 65.4126 40.6416 66.4249 40.6599C68.5512 40.6599 70.3027 42.0877 70.3027 43.8297C70.3027 45.5717 68.5771 46.9924 66.4249 46.9924C65.8031 46.9964 65.1865 46.868 64.6088 46.614C64.2662 44.972 63.8978 43.3371 63.6135 41.6665Z" fill="#F8C6BE"/>
<path d="M83.9346 54.8104C90.3977 54.8104 96.6022 52.2045 100.021 48.0138C101.302 46.4149 102.373 44.6243 103.201 42.6951C103.271 42.527 103.279 42.3356 103.223 42.1611C103.168 41.9867 103.053 41.8428 102.904 41.7598C102.752 41.685 102.581 41.6773 102.424 41.7385C102.268 41.7996 102.139 41.9248 102.064 42.0882C101.285 43.8986 100.282 45.5805 99.0841 47.0857C95.7168 51.2122 89.3894 53.6966 82.9263 53.4039C76.948 53.1326 71.2928 52.8756 68.3973 50.484C65.5019 48.0923 63.912 45.3437 64.2351 37.9118C64.3754 34.8881 64.7736 31.8859 65.4243 28.9449C65.4596 28.7643 65.4302 28.5756 65.3422 28.4185C65.2542 28.2614 65.1145 28.1481 64.9525 28.1024C64.7909 28.0652 64.6225 28.0977 64.4819 28.1933C64.3412 28.2889 64.2391 28.4403 64.1963 28.6165C63.5289 31.6421 63.12 34.7303 62.9748 37.8404C62.6258 45.8577 64.4225 48.9562 67.6411 51.6048C70.8597 54.2535 76.6895 54.5177 82.8746 54.7961C83.2172 54.8032 83.5791 54.8104 83.9346 54.8104Z" fill="#211613"/>
<path d="M113.307 14.9092C115.576 15.7802 116.086 16.487 116.713 19.6568C117.359 16.487 117.851 15.7802 120.119 14.9092C117.851 14.0311 117.34 13.3243 116.713 10.1616C116.086 13.3029 115.601 14.0168 113.307 14.9092Z" fill="#FFE100"/>
<path d="M116.715 20.349C116.857 20.3458 116.994 20.2908 117.105 20.1928C117.216 20.0947 117.295 19.9589 117.329 19.8064C117.911 16.8722 118.279 16.3582 120.328 15.5658C120.446 15.512 120.548 15.4205 120.619 15.3029C120.69 15.1853 120.729 15.0469 120.729 14.9054C120.729 14.7638 120.69 14.6254 120.619 14.5079C120.548 14.3903 120.446 14.2988 120.328 14.245C118.279 13.4597 117.911 12.9456 117.329 10.0114C117.296 9.85766 117.218 9.72027 117.107 9.62079C116.996 9.52132 116.858 9.46535 116.715 9.46168C116.566 9.4573 116.421 9.50956 116.303 9.60968C116.186 9.70981 116.103 9.85169 116.069 10.0114C115.493 12.9456 115.125 13.4597 113.07 14.245C112.951 14.2988 112.85 14.3903 112.778 14.5079C112.707 14.6254 112.669 14.7638 112.669 14.9054C112.669 15.0469 112.707 15.1853 112.778 15.3029C112.85 15.4205 112.951 15.512 113.07 15.5658C115.125 16.3582 115.493 16.8722 116.069 19.8064C116.104 19.9649 116.187 20.1051 116.305 20.2038C116.423 20.3025 116.567 20.3538 116.715 20.349ZM118.505 14.9089C117.673 15.3719 117.033 16.1688 116.715 17.1364C116.397 16.1688 115.757 15.3719 114.925 14.9089C115.754 14.4419 116.393 13.6465 116.715 12.6815C117.037 13.6465 117.676 14.4419 118.505 14.9089Z" fill="#211613"/>
<path d="M112.959 91.9058C111.078 91.9058 109.553 89.7803 109.553 87.1582C109.553 84.5362 111.078 82.4106 112.959 82.4106C114.84 82.4106 116.365 84.5362 116.365 87.1582C116.365 89.7803 114.84 91.9058 112.959 91.9058Z" fill="#FFE100"/>
<path d="M112.96 92.5986C113.108 92.603 113.254 92.5507 113.372 92.4506C113.489 92.3505 113.572 92.2086 113.606 92.0489C114.188 89.1146 114.55 88.6006 116.605 87.8153C116.724 87.7615 116.825 87.67 116.896 87.5524C116.968 87.4348 117.006 87.2965 117.006 87.1549C117.006 87.0134 116.968 86.875 116.896 86.7574C116.825 86.6398 116.724 86.5483 116.605 86.4945C114.55 85.7021 114.188 85.188 113.606 82.2538C113.571 82.0954 113.487 81.9552 113.37 81.8565C113.252 81.7577 113.108 81.7065 112.96 81.7112C112.812 81.7065 112.668 81.7577 112.55 81.8565C112.432 81.9552 112.349 82.0954 112.314 82.2538C111.732 85.188 111.364 85.7021 109.315 86.4945C109.196 86.5483 109.095 86.6398 109.023 86.7574C108.952 86.875 108.914 87.0134 108.914 87.1549C108.914 87.2965 108.952 87.4348 109.023 87.5524C109.095 87.67 109.196 87.7615 109.315 87.8153C111.364 88.6006 111.732 89.1146 112.314 92.0489C112.348 92.2086 112.431 92.3505 112.548 92.4506C112.666 92.5507 112.811 92.603 112.96 92.5986ZM114.75 87.1513C113.921 87.6184 113.282 88.4138 112.96 89.3788C112.638 88.4138 111.999 87.6184 111.17 87.1513C112.002 86.6884 112.642 85.8915 112.96 84.9239C113.278 85.8915 113.918 86.6884 114.75 87.1513Z" fill="#211613"/>
<path d="M119.907 82.6964C117.426 82.6964 115.415 79.8964 115.415 76.4424C115.415 72.9885 117.426 70.1885 119.907 70.1885C122.387 70.1885 124.398 72.9885 124.398 76.4424C124.398 79.8964 122.387 82.6964 119.907 82.6964Z" fill="#FFE100"/>
<path d="M119.907 83.3887C120.05 83.385 120.188 83.329 120.299 83.2296C120.41 83.1301 120.488 82.9927 120.521 82.8389C121.303 78.9124 121.814 78.1627 124.599 77.1275C124.718 77.0738 124.819 76.9823 124.891 76.8647C124.962 76.7471 125 76.6087 125 76.4672C125 76.3256 124.962 76.1873 124.891 76.0697C124.819 75.9521 124.718 75.8606 124.599 75.8068C121.833 74.743 121.303 73.9934 120.521 70.0954C120.488 69.9416 120.41 69.8043 120.299 69.7048C120.188 69.6053 120.05 69.5493 119.907 69.5457C119.759 69.5413 119.613 69.5935 119.495 69.6937C119.378 69.7938 119.295 69.9357 119.261 70.0954C118.485 74.022 117.968 74.7716 115.183 75.8068C115.064 75.8606 114.963 75.9521 114.891 76.0697C114.82 76.1873 114.782 76.3256 114.782 76.4672C114.782 76.6087 114.82 76.7471 114.891 76.8647C114.963 76.9823 115.064 77.0738 115.183 77.1275C117.949 78.1913 118.485 78.9409 119.261 82.8389C119.295 82.9987 119.378 83.1405 119.495 83.2407C119.613 83.3408 119.759 83.3931 119.907 83.3887ZM122.712 76.435C122.035 76.763 121.432 77.2535 120.948 77.871C120.464 78.4885 120.111 79.2174 119.914 80.0047C119.717 79.2158 119.364 78.4856 118.878 77.8678C118.393 77.25 117.788 76.7604 117.109 76.435C117.788 76.1101 118.393 75.6206 118.879 75.0028C119.364 74.3849 119.718 73.6545 119.914 72.8654C120.109 73.6536 120.462 74.3834 120.946 75.0011C121.43 75.6188 122.034 76.1088 122.712 76.435Z" fill="#211613"/>
</svg>
