<svg width="125" height="122" viewBox="0 0 125 122" fill="none" xmlns="http://www.w3.org/2000/svg">
<path d="M74.9905 121.096C73.4248 120.795 72.0069 119.889 70.9898 118.539L48.2718 88.3713C47.6496 87.5439 47.1974 86.5773 46.9463 85.538C46.6952 84.4988 46.6513 83.4117 46.8176 82.3519L58.322 9.69827C58.5411 8.30357 59.1171 7.00735 59.9819 5.96288C60.8467 4.9184 61.9641 4.16937 63.2021 3.80436C64.44 3.43935 65.7467 3.47362 66.9676 3.90312C68.1885 4.33263 69.2725 5.1394 70.0914 6.22803L89.1643 31.5622L114.894 14.8893C115.998 14.1731 117.265 13.821 118.545 13.8745C119.824 13.928 121.063 14.385 122.115 15.1913C123.167 15.9977 123.988 17.1199 124.482 18.4252C124.975 19.7306 125.12 21.1647 124.899 22.5581L113.395 95.2118C113.227 96.2741 112.851 97.283 112.293 98.1674C111.734 99.0519 111.007 99.7906 110.163 100.331L79.5277 120.196C78.1576 121.075 76.5516 121.393 74.9905 121.096ZM65.1601 9.50548C64.8096 9.43912 64.4496 9.52883 64.1589 9.75499C63.8682 9.98115 63.6705 10.3253 63.6089 10.7122L52.1109 83.3658C52.0745 83.5771 52.0818 83.7947 52.1321 84.0024C52.1825 84.2101 52.2746 84.4026 52.4017 84.5654L75.1198 114.741C75.3212 115.013 75.6044 115.195 75.9176 115.256C76.2309 115.316 76.5533 115.25 76.8261 115.069L107.468 95.2046C107.637 95.0975 107.783 94.9504 107.894 94.7739C108.006 94.5974 108.081 94.3958 108.114 94.1836L119.619 21.5299C119.662 21.25 119.632 20.9622 119.533 20.7004C119.433 20.4386 119.268 20.2136 119.056 20.0519C118.846 19.8929 118.598 19.8031 118.343 19.793C118.088 19.7829 117.836 19.8528 117.615 19.9947L89.9269 37.9457C89.378 38.302 88.7324 38.4315 88.1052 38.3112C87.4779 38.1909 86.9096 37.8286 86.5014 37.2888L65.9615 10.0053C65.7589 9.73572 65.4737 9.55783 65.1601 9.50548Z" fill="#231916"/>
<path d="M120.561 17.6162C119.93 17.1335 119.187 16.8602 118.419 16.8286C117.652 16.7969 116.893 17.0083 116.231 17.4377L88.5359 35.3887L68.0088 8.1195C67.5176 7.46606 66.8673 6.98166 66.1349 6.72354C65.4024 6.46543 64.6183 6.4444 63.8753 6.66293C63.1323 6.88146 62.4615 7.33043 61.9422 7.95675C61.4228 8.58308 61.0767 9.36058 60.9446 10.1974L49.466 82.8367C49.364 83.4723 49.3887 84.1248 49.5383 84.7488C49.6878 85.3728 49.9587 85.9532 50.3321 86.4498L73.0501 116.625C73.6629 117.434 74.5143 117.977 75.4544 118.16C76.3938 118.345 77.3621 118.15 78.1819 117.611L108.824 97.753C109.33 97.428 109.765 96.9849 110.1 96.4546C110.435 95.9243 110.661 95.3195 110.763 94.6827L122.267 22.029C122.394 21.1902 122.301 20.3288 121.999 19.5467C121.696 18.7646 121.197 18.0946 120.561 17.6162Z" fill="white"/>
<path d="M76.1484 113.791L106.784 93.9332L118.288 21.2725L87.6464 41.1371L76.1484 113.791Z" fill="#33AA85"/>
<path d="M76.1478 113.792L53.4297 83.6234L64.9341 10.9697L87.6457 41.1379L76.1478 113.792Z" fill="#FFE73F"/>
<path d="M76.1487 114.491C76.0209 114.491 75.8963 114.446 75.7932 114.362C75.6918 114.284 75.6129 114.175 75.5659 114.048C75.5189 113.921 75.5058 113.783 75.5282 113.648L87.0262 40.9944C87.0434 40.8955 87.0794 40.8018 87.1318 40.7193C87.1841 40.6369 87.2517 40.5676 87.33 40.516L117.978 20.6728C118.082 20.614 118.199 20.5874 118.315 20.5958C118.432 20.6041 118.544 20.6472 118.64 20.7205C118.736 20.7937 118.813 20.8943 118.861 21.0117C118.91 21.129 118.928 21.2587 118.916 21.3869L107.411 94.0476C107.395 94.1478 107.359 94.243 107.307 94.3267C107.254 94.4105 107.186 94.4809 107.107 94.5332L76.4719 114.391C76.374 114.455 76.2625 114.489 76.1487 114.491ZM88.2477 41.5728L77.0342 112.427L106.241 93.4907L117.455 22.6364L88.2477 41.5728Z" fill="#211613"/>
<path d="M76.1477 114.492C76.0554 114.491 75.9644 114.468 75.8808 114.425C75.7972 114.382 75.7229 114.319 75.663 114.242L52.9449 84.0664C52.8876 83.9883 52.8459 83.8976 52.8225 83.8004C52.7991 83.7032 52.7945 83.6016 52.8092 83.5023L64.333 10.8487C64.358 10.7202 64.4146 10.6018 64.4967 10.5065C64.5787 10.4113 64.6829 10.3429 64.7979 10.3089C64.9129 10.2749 65.0341 10.2767 65.1482 10.314C65.2624 10.3513 65.3649 10.4227 65.4447 10.5203L88.1369 40.7099C88.1942 40.7881 88.2359 40.8787 88.2593 40.9759C88.2827 41.0731 88.2872 41.1747 88.2726 41.274L76.7681 113.928C76.7462 114.058 76.6917 114.18 76.6106 114.278C76.5295 114.377 76.4251 114.448 76.3093 114.485C76.2559 114.494 76.2016 114.497 76.1477 114.492ZM54.1018 83.4238L75.7599 112.185L86.9541 41.3383L65.296 12.5696L54.1018 83.4238Z" fill="#211613"/>
<g style="mix-blend-mode:multiply" opacity="0.2">
<path d="M69.2614 21.7011C68.9448 19.7303 66.2237 20.5657 66.5404 22.5365C66.9088 24.7857 66.9282 26.4066 65.2478 27.9703C63.7156 29.3631 62.0461 30.5608 60.2712 31.5405C58.6489 32.4545 60.0773 35.1464 61.6931 34.2325C64.0004 32.9258 66.6245 31.2692 68.3113 29.0485C69.9982 26.8279 69.6751 24.243 69.2614 21.7011Z" fill="#211613"/>
</g>
<g style="mix-blend-mode:multiply" opacity="0.2">
<path d="M80.9893 57.7885C81.0843 55.9078 80.7995 54.0273 80.1555 52.2832C79.7677 51.2693 78.4299 51.0622 77.6478 51.5692C77.2394 51.8516 76.9446 52.2964 76.8243 52.8119C76.7041 53.3274 76.7675 53.8743 77.0015 54.3396C77.5186 55.6678 77.3376 57.1958 77.3182 58.6239C77.3182 59.4307 77.7383 61.4372 77.189 61.9442C76.6396 62.4511 74.6037 62.1512 73.8992 62.1298C72.3739 62.0798 70.855 61.9727 69.3362 61.8585C66.4989 61.6443 63.6551 61.3872 60.8113 61.4158C59.2986 61.4246 57.7878 61.5343 56.287 61.7442C54.9944 61.9228 53.4368 62.594 52.1442 62.3012C49.8368 61.7871 48.8544 65.6929 51.1682 66.207C52.9133 66.5997 54.4903 66.0999 56.216 65.8071C58.1093 65.5276 60.0199 65.4153 61.9294 65.4715C65.7298 65.5215 69.5172 66.0071 73.3175 66.1856C75.9868 66.2927 79.9875 66.5355 80.9247 62.9224C81.3254 61.3372 80.9635 59.395 80.9893 57.7885Z" fill="#211613"/>
</g>
<path d="M42.0998 53.8686C48.1493 53.5973 53.8563 53.3402 56.8682 50.8554C59.88 48.3705 61.5281 45.5286 61.1985 37.8884C61.1104 35.7685 60.8945 33.6574 60.5522 31.5691C60.5275 31.5157 60.4947 31.4674 60.4552 31.4263C59.8215 30.3784 59.0002 29.4849 58.042 28.8009C57.0839 28.1169 56.0091 27.6569 54.884 27.4491L54.2376 27.342C53.378 27.2206 52.4861 27.0921 52.1824 26.528C52.1184 26.4067 52.0809 26.2706 52.0731 26.1305C52.0652 25.9904 52.0871 25.8502 52.1371 25.7211C52.4811 24.2172 52.7253 22.6874 52.8674 21.1442C52.8775 21.0451 52.8584 20.9451 52.813 20.8589C52.7676 20.7727 52.6983 20.705 52.6154 20.6657C52.4473 20.5801 52.2793 20.5015 52.1048 20.4301C52.0507 20.4 51.9909 20.3843 51.9303 20.3843C51.8697 20.3843 51.8099 20.4 51.7558 20.4301C51.7023 20.4613 51.6556 20.5049 51.6188 20.5579C51.582 20.6109 51.556 20.672 51.5425 20.7371C50.9867 23.5933 49.7457 27.1635 48.0653 27.8776C46.5852 28.5059 39.4951 29.7412 36.8129 29.7412C36.5305 29.7729 36.2451 29.7438 35.9727 29.6555C35.922 29.6283 35.881 29.583 35.8564 29.527C35.8295 29.4695 35.7921 29.4188 35.7464 29.3782C35.7008 29.3376 35.648 29.308 35.5914 29.2914C35.5352 29.2747 35.4765 29.2705 35.4188 29.2791C35.3611 29.2877 35.3055 29.3088 35.2553 29.3413C34.4136 29.9066 33.488 30.3031 32.5214 30.5124C31.5584 30.7409 30.5824 30.9336 29.6646 31.0979C29.5776 31.1154 29.4969 31.16 29.432 31.2264L29.3932 31.2692C28.4843 31.7765 27.6189 32.374 26.8079 33.0543C26.3167 33.7041 24.9982 37.4457 25.3731 39.6235C25.3824 39.6694 25.3788 39.7173 25.3626 39.7607C25.3464 39.8041 25.3185 39.841 25.2826 39.8663C25.2467 39.891 25.2053 39.9041 25.163 39.9041C25.1208 39.9041 25.0794 39.891 25.0435 39.8663C23.8813 38.7398 23.0978 37.2124 22.8201 35.5321C22.8123 35.4931 22.8015 35.4548 22.7878 35.4178C22.6022 34.9716 22.338 34.5707 22.0107 34.2384C21.6833 33.9062 21.2994 33.6493 20.8812 33.4828C20.8318 33.4758 20.7819 33.4758 20.7325 33.4828H20.7002H20.6356C20.59 33.4619 20.5423 33.4475 20.4934 33.4399C20.3815 33.433 20.2693 33.433 20.1573 33.4399C19.1555 33.5185 18.3606 34.4182 17.9857 35.9034C17.7972 36.8052 17.8341 37.7466 18.0925 38.627C18.351 39.5075 18.8212 40.2937 19.4528 40.9017C20.4546 41.9227 21.6826 42.3297 22.581 41.9727C22.6333 41.9517 22.691 41.9542 22.7417 41.9795C22.7925 42.0049 22.8322 42.0511 22.8525 42.1084C22.8655 42.1484 22.8682 42.1917 22.8602 42.2333C22.8522 42.275 22.8339 42.3133 22.8072 42.344C22.751 42.4142 22.7154 42.5016 22.705 42.5947C22.6946 42.6877 22.71 42.7821 22.7491 42.8653C23.5052 44.5379 24.4569 46.0936 25.5799 47.4923C28.8438 51.498 34.8287 53.9829 41.0334 53.9829C41.4082 53.8901 41.7572 53.8829 42.0998 53.8686Z" fill="#FCE4DF"/>
<path d="M41.7506 18.888C40.8113 20.2329 39.9603 21.6503 39.2041 23.1294C39.0942 23.3436 38.9714 23.5935 38.8357 23.9077C38.8222 23.9349 38.8114 23.9636 38.8034 23.9933C38.3722 25.348 37.7788 26.6328 37.0389 27.8135C36.8967 28.0562 36.7352 28.3347 36.6059 28.5775C36.5672 28.6487 36.5461 28.73 36.545 28.813C36.5438 28.8961 36.5626 28.978 36.5993 29.0505C36.6361 29.123 36.6895 29.1835 36.7542 29.2258C36.8189 29.2681 36.8926 29.2908 36.9678 29.2915C39.2364 29.2201 46.2037 28.1562 47.9552 27.4279C50.0558 26.5425 51.1868 20.5302 51.1868 20.4731C51.2092 20.3607 51.1923 20.2431 51.1396 20.1438C51.0869 20.0445 51.0022 19.9709 50.9024 19.9376C48.0932 19.0352 45.1722 18.6304 42.2482 18.738C42.2315 18.7445 42.2133 18.7445 42.1965 18.738C42.1171 18.7116 42.0324 18.7117 41.953 18.7384C41.8736 18.7651 41.8032 18.8171 41.7506 18.888Z" fill="#896E6C"/>
<path d="M47.3326 12.4895C47.4169 12.433 47.4801 12.3452 47.5109 12.2418C47.5417 12.1384 47.5381 12.0262 47.5007 11.9255C47.4624 11.8247 47.3942 11.7413 47.3071 11.6894C47.2201 11.6374 47.1196 11.6199 47.0224 11.6398C42.0115 12.7585 37.2586 14.9905 33.0523 18.2002C28.8459 21.41 25.2738 25.5306 22.5528 30.312C22.5194 30.38 22.502 30.456 22.502 30.5333C22.502 30.6107 22.5194 30.6867 22.5528 30.7547C22.5819 30.8255 22.6268 30.8869 22.6834 30.9331C22.7399 30.9793 22.8062 31.0088 22.876 31.0189C23.4155 31.1024 23.96 31.1406 24.5047 31.1331C27.1916 31.0574 29.8652 30.6891 32.4867 30.0335C36.119 29.1767 37.082 26.9346 38.1032 24.564C38.2131 24.2998 38.3294 24.0356 38.4458 23.7714C38.4474 23.7595 38.4474 23.7475 38.4458 23.7357V23.6928C38.5427 23.4858 38.672 23.2073 38.8077 22.936C40.1779 20.2654 43.0734 15.41 47.3326 12.4895Z" fill="#3C80B6"/>
<path d="M21.8392 31.5907C21.6582 31.912 21.4902 32.2405 21.3157 32.569C21.2883 32.6241 21.2712 32.6848 21.2657 32.7474C21.2601 32.81 21.2662 32.8732 21.2834 32.9331C21.2996 32.9942 21.3269 33.0509 21.3636 33.1C21.4002 33.1491 21.4455 33.1895 21.4967 33.2187C21.9309 33.4673 22.3138 33.8125 22.6212 34.2327C22.6601 34.282 22.7076 34.322 22.761 34.3503C22.8143 34.3785 22.8724 34.3944 22.9315 34.3969C22.981 34.3982 23.0285 34.4191 23.0653 34.4558C23.102 34.4925 23.1257 34.5425 23.1318 34.5968C23.1318 34.8182 23.19 35.0324 23.2288 35.2323C23.2327 35.2724 23.2437 35.3112 23.2611 35.3466V35.4037C23.2757 35.4455 23.2929 35.4861 23.3128 35.5251C23.3227 35.5697 23.3227 35.6162 23.3128 35.6608C23.2966 35.7262 23.2966 35.7953 23.3128 35.8607C23.4955 36.6167 23.7786 37.3386 24.153 38.0028C24.1911 38.0687 24.2437 38.1229 24.3059 38.1604C24.368 38.1978 24.4377 38.2173 24.5085 38.217C24.5384 38.2236 24.5691 38.2236 24.599 38.217C24.6831 38.1969 24.7595 38.1482 24.8175 38.0778C24.8754 38.0074 24.912 37.9188 24.9221 37.8243C25.1211 36.0286 25.6489 34.2964 26.4733 32.7332C26.5975 32.5754 26.7437 32.4404 26.9063 32.3333C26.9814 32.275 27.0372 32.191 27.065 32.0944C27.0928 31.9977 27.0912 31.8936 27.0604 31.7981C27.0296 31.7025 26.9713 31.6207 26.8945 31.5652C26.8177 31.5097 26.7265 31.4836 26.6349 31.4908C25.1745 31.6806 23.6971 31.6421 22.2464 31.3765C22.1671 31.3658 22.0867 31.3802 22.0146 31.4181C21.9425 31.4561 21.8816 31.5159 21.8392 31.5907Z" fill="#896E6C"/>
<path d="M52.7002 26.4283C53.2084 26.7032 53.7634 26.8565 54.329 26.8781C54.5552 26.8781 54.7814 26.9424 54.9753 26.9852C56.5052 27.2893 57.9437 28.0054 59.1634 29.0702C59.2373 29.1397 59.3313 29.1777 59.4284 29.1773C59.5221 29.1758 59.6128 29.1407 59.6869 29.0774C59.762 29.0141 59.8156 28.9247 59.839 28.8237C59.8625 28.7226 59.8544 28.6158 59.8162 28.5204C58.6253 25.4538 56.5355 22.9188 53.883 21.3229C53.8221 21.2878 53.7545 21.2695 53.6859 21.2695C53.6172 21.2695 53.5496 21.2878 53.4887 21.3229C53.4284 21.3588 53.3766 21.4098 53.3373 21.4718C53.2981 21.5338 53.2724 21.605 53.2625 21.6799C53.1377 23.0982 52.9064 24.5025 52.5709 25.8784C52.5683 25.8974 52.5683 25.9166 52.5709 25.9356C52.5471 26.0227 52.5467 26.1156 52.5696 26.2031C52.5925 26.2905 52.6379 26.3687 52.7002 26.4283Z" fill="#896E6C"/>
<path d="M52.4423 10.7991H52.4035C49.0103 11.4275 45.7723 13.6553 42.7798 17.4897C42.7286 17.5584 42.6955 17.6414 42.6841 17.7296C42.6727 17.8177 42.6835 17.9076 42.7152 17.9895C42.7479 18.0708 42.8015 18.1399 42.8692 18.1881C42.937 18.2363 43.016 18.2615 43.0966 18.2608C46.5265 18.1911 49.9312 18.921 53.0886 20.4029H53.192C53.2295 20.4108 53.2648 20.4279 53.2954 20.4529C53.3224 20.4846 53.3556 20.509 53.3924 20.5243C56.4644 22.1329 58.8985 24.9262 60.2369 28.3788C60.2618 28.4399 60.2995 28.4937 60.3468 28.5359C60.3767 28.5701 60.3989 28.6117 60.4114 28.6573C60.4114 28.7358 60.4437 28.8072 60.4566 28.8786V29.0428V29.1C60.5859 29.4713 60.6893 29.814 60.7733 30.0782C60.7934 30.1332 60.7934 30.1946 60.7733 30.2496C60.7443 30.3445 60.7443 30.4474 60.7733 30.5423L60.8121 30.7423C60.8248 30.8124 60.8517 30.8784 60.8909 30.9353C60.9301 30.9922 60.9805 31.0385 61.0383 31.0707C61.095 31.1007 61.1565 31.1177 61.2193 31.1207C61.2864 31.1195 61.3525 31.1024 61.4132 31.0707C63.2939 30.0211 67.6954 27.1007 67.8763 22.5736C67.9353 21.0621 67.7037 19.5539 67.1968 18.1484C66.6899 16.7428 65.9193 15.4719 64.9356 14.4193C62.2211 11.6131 57.9037 10.3421 52.4423 10.7991Z" fill="#3C80B6"/>
<g style="mix-blend-mode:multiply" opacity="0.2">
<path d="M52.4403 10.7981H52.4015C49.0084 11.4265 45.7703 13.6543 42.7779 17.4887C42.7267 17.5574 42.6936 17.6404 42.6822 17.7286C42.6708 17.8167 42.6815 17.9067 42.7133 17.9885C42.746 18.0699 42.7995 18.1389 42.8673 18.1871C42.935 18.2353 43.014 18.2606 43.0946 18.2598C46.5245 18.1901 49.9292 18.92 53.0866 20.402H53.1901C53.2275 20.4098 53.2629 20.4269 53.2935 20.452C53.3204 20.4836 53.3536 20.508 53.3904 20.5234C56.4625 22.1319 58.8966 24.9252 60.2349 28.3778C60.2599 28.4389 60.2976 28.4928 60.3448 28.5349C60.3748 28.5691 60.3969 28.6107 60.4094 28.6563C60.4094 28.7348 60.4417 28.8062 60.4547 28.8776V29.0419V29.099C60.5839 29.4703 60.6873 29.813 60.7714 30.0772C60.7915 30.1322 60.7915 30.1936 60.7714 30.2486C60.7423 30.3435 60.7423 30.4464 60.7714 30.5413L60.8101 30.7413C60.8228 30.8114 60.8498 30.8774 60.889 30.9343C60.9282 30.9912 60.9786 31.0375 61.0364 31.0697C61.093 31.0997 61.1546 31.1167 61.2173 31.1197C61.2844 31.1185 61.3505 31.1014 61.4112 31.0697C63.292 30.0201 67.6934 27.0997 67.8744 22.5727C67.9333 21.0611 67.7017 19.5529 67.1949 18.1474C66.688 16.7419 65.9173 15.4709 64.9336 14.4183C62.2191 11.6121 57.9017 10.3411 52.4403 10.7981Z" fill="#211613"/>
</g>
<path d="M17.2388 39.0448C17.2923 39.0543 17.3469 39.0543 17.4004 39.0448C17.4956 38.999 17.5723 38.9165 17.6163 38.8126C17.6604 38.7088 17.6686 38.5908 17.6395 38.4807C17.3868 37.5898 17.3756 36.6367 17.6072 35.7388C18.0273 34.0679 18.9839 33.0254 20.1602 32.9326H20.3864C20.4641 32.9347 20.541 32.914 20.6091 32.8727C20.6772 32.8313 20.7342 32.7706 20.7742 32.697C27.4765 19.4587 38.6965 11.5328 52.3597 10.3689C53.5186 10.2686 54.6822 10.2495 55.8433 10.3118C55.924 10.3172 56.0043 10.2964 56.0744 10.252C56.1444 10.2076 56.2011 10.1415 56.2376 10.0619C56.2748 9.98148 56.2903 9.89095 56.2823 9.80107C56.2743 9.71119 56.2431 9.62575 56.1924 9.55492C54.8997 7.84122 51.5389 3.68551 47.3378 2.13604C41.7795 0.0867424 33.5519 1.62907 25.8672 6.16323C17.4974 11.0972 15.1383 20.5154 14.5178 24.3356C13.8574 29.3203 14.6736 34.4074 16.8446 38.8377C16.8868 38.9088 16.9459 38.9658 17.0154 39.0023C17.085 39.0388 17.1622 39.0535 17.2388 39.0448Z" fill="#3C80B6"/>
<path d="M17.8733 41.8935C17.9079 41.818 17.9231 41.7336 17.9174 41.6493C17.9117 41.565 17.8853 41.484 17.841 41.4151C16.4308 39.2156 15.3747 36.7638 14.7193 34.1675C14.6951 34.0613 14.6349 33.9693 14.5512 33.9105C13.9363 33.424 13.2179 33.1217 12.4659 33.0328C11.7138 32.944 10.9538 33.0717 10.2597 33.4035C8.66973 34.2033 7.59685 36.0883 7.31894 38.5875C6.89883 42.3719 5.01805 43.4429 4.22954 43.7285C3.77146 43.894 3.28631 43.9476 2.80764 43.8856C2.7266 43.8732 2.64406 43.8876 2.57043 43.927C2.49681 43.9664 2.43541 44.029 2.394 44.107C2.34971 44.1838 2.32617 44.273 2.32617 44.364C2.32617 44.4551 2.34971 44.5443 2.394 44.6211C3.11362 45.7068 4.06315 46.581 5.15947 47.1673C6.25579 47.7536 7.46548 48.0341 8.68266 47.9842C9.03449 47.9857 9.38615 47.9666 9.73616 47.9271C12.8191 47.5987 13.181 45.8921 13.4783 44.5211C13.6916 43.5001 13.892 42.8146 14.6352 42.5861C15.5688 42.3307 16.5242 42.1847 17.4855 42.1505C17.5656 42.153 17.6447 42.1301 17.7134 42.0846C17.7821 42.039 17.8376 41.9727 17.8733 41.8935Z" fill="#896E6C"/>
<path d="M25.2917 47.7068C24.0895 46.1988 23.0784 44.5173 22.2863 42.7085C22.2494 42.6303 22.1936 42.5649 22.1252 42.5196C22.0568 42.4742 21.9783 42.4506 21.8985 42.4514C21.2908 42.4362 20.6967 42.2494 20.1729 41.9088C20.1197 41.8768 20.0609 41.8578 20.0005 41.8528C19.9402 41.8479 19.8795 41.8573 19.8227 41.8802C19.7658 41.9032 19.7141 41.9393 19.6708 41.986C19.6275 42.0328 19.5938 42.0892 19.5718 42.1515C19.4095 42.6748 19.3671 43.2342 19.4484 43.78C19.5296 44.3257 19.7318 44.8407 20.0371 45.279C20.927 46.9428 22.1378 48.3697 23.5832 49.4581C25.0287 50.5466 26.6734 51.27 28.4005 51.5769H28.4716C28.5571 51.5772 28.6407 51.5486 28.7111 51.495C28.7816 51.4414 28.8355 51.3654 28.8658 51.277C28.9 51.1751 28.9014 51.0634 28.8696 50.9606C28.8378 50.8578 28.7748 50.7703 28.6913 50.7129C27.4343 49.8949 26.2895 48.8826 25.2917 47.7068Z" fill="#896E6C"/>
<path d="M20.4943 110.399C19.6932 110.18 18.9337 109.806 18.2516 109.292C17.5678 108.857 16.9191 108.358 16.3126 107.8C16.2462 107.733 16.1619 107.691 16.0723 107.681C15.9827 107.67 15.8925 107.692 15.815 107.743C15.5931 107.883 15.4025 108.077 15.2571 108.309C15.1117 108.541 15.0153 108.806 14.9748 109.085C14.8002 110.235 15.4272 112.127 17.7022 113.998C19.3568 115.355 20.4684 115.676 21.1471 115.676C21.391 115.683 21.6335 115.632 21.858 115.526C22.0421 115.433 22.1996 115.286 22.3135 115.101C22.4274 114.916 22.4934 114.7 22.5043 114.476C22.5884 113.405 20.9338 110.87 20.7464 110.585C20.6871 110.489 20.5968 110.423 20.4943 110.399Z" fill="#5A4F4A"/>
<path d="M41.3815 85.3646C41.3959 85.067 41.4304 84.7711 41.4849 84.4792C41.5028 84.3623 41.4801 84.2422 41.4214 84.143C41.3627 84.0437 41.2723 83.9726 41.1682 83.9437C38.0853 83.1154 32.8307 81.4302 28.9399 80.1235C26.8329 79.4095 25.062 78.7954 23.6013 78.2885C23.5117 78.2561 23.4148 78.2574 23.326 78.2923C23.2371 78.3272 23.1612 78.3936 23.1101 78.4813C22.8257 78.9882 21.4362 81.6088 21.8175 83.5652C22.1342 85.1076 22.4638 86.25 22.6642 87.0069C22.7805 87.4282 22.871 87.7209 22.9033 87.9423C23.0492 89.2075 22.9093 90.4929 22.4961 91.6839L22.0825 92.6764V92.7121C18.6053 100.959 16.7051 105.758 16.4337 106.993C16.4183 107.072 16.4209 107.153 16.4413 107.23C16.4616 107.308 16.4989 107.378 16.55 107.436C17.6978 108.483 18.9894 109.322 20.3762 109.92H20.4732C20.5354 109.922 20.597 109.907 20.653 109.877C20.7091 109.847 20.7582 109.803 20.7963 109.749C21.7141 108.535 25.8957 101.552 27.6473 98.6029C27.6783 98.5622 27.6985 98.5128 27.7054 98.4601C27.7959 98.0603 27.867 98.0031 27.9252 97.9531H27.964C28.0443 97.9183 28.1123 97.8557 28.1579 97.7746C29.108 96.1752 30.0257 94.6186 30.8272 93.2548C30.8807 93.174 30.9096 93.0764 30.9096 92.9763C30.9096 92.8761 30.8807 92.7786 30.8272 92.6978L28.048 88.6278L27.964 88.5064C27.9466 88.4819 27.934 88.4537 27.9269 88.4236C27.9198 88.3935 27.9183 88.3621 27.9225 88.3314C27.9268 88.3006 27.9366 88.2712 27.9515 88.2448C27.9664 88.2184 27.9861 88.1956 28.0092 88.1779C28.0308 88.159 28.0558 88.1454 28.0826 88.138C28.1093 88.1306 28.1372 88.1296 28.1643 88.1351C28.1912 88.1377 28.2172 88.1468 28.2407 88.1616C28.2641 88.1763 28.2843 88.1965 28.3001 88.2208C28.7589 88.892 32.2878 94.0616 32.7532 94.7757C33.2185 95.4897 35.9848 99.2027 35.9848 99.2384C36.0079 99.2778 36.0201 99.3236 36.0201 99.3705C36.0201 99.4174 36.0079 99.4633 35.9848 99.5026C35.9637 99.5448 35.9311 99.5786 35.8917 99.5991C35.8522 99.6196 35.8079 99.6259 35.765 99.6169C33.0182 99.0528 29.6508 98.4458 28.5133 98.3744C28.4393 98.3704 28.3656 98.3881 28.2998 98.4258C28.234 98.4634 28.1783 98.5196 28.1385 98.5886L28.0674 98.71C28.0365 98.7649 28.0146 98.8253 28.0028 98.8885C27.8278 100.502 27.7953 102.131 27.9058 103.751C27.9176 103.838 27.9511 103.919 28.0025 103.986C28.0538 104.053 28.1211 104.103 28.1966 104.13C29.9676 104.729 40.8257 106.786 42.7065 106.686C44.4321 106.593 45.2917 105.451 45.2917 103.208C45.2917 101.852 43.76 95.404 42.0989 88.6349C41.4849 85.9216 41.3815 85.4717 41.3815 85.3646Z" fill="#3C80B6"/>
<path d="M68.0057 53.2845C67.999 53.1626 67.9492 53.0486 67.8669 52.967C67.7846 52.8855 67.6766 52.8431 67.5662 52.8489C64.6966 52.8989 48.6227 54.0057 40.5178 54.584C40.4845 54.5884 40.4507 54.5827 40.42 54.5676C40.3893 54.5525 40.3628 54.5286 40.3434 54.4984C40.305 54.4455 40.2569 54.4023 40.2023 54.3716C40.1477 54.3408 40.0879 54.3232 40.0267 54.3199C37.2464 54.2048 34.502 53.5873 31.9024 52.4919C31.8021 52.4466 31.6896 52.4467 31.5893 52.4921C31.489 52.5375 31.4088 52.6246 31.366 52.7347L30.9976 53.6272L23.6167 71.7139C23.3775 72.2923 22.5115 73.0706 21.2124 74.1845C20.7276 74.5986 20.0619 75.1698 19.6677 75.6126C19.6166 75.6655 19.5785 75.732 19.557 75.8057C19.5355 75.8794 19.5314 75.9579 19.5449 76.0338C19.5561 76.1103 19.5852 76.1823 19.6294 76.2424C19.6737 76.3026 19.7314 76.3488 19.7969 76.3766C23.2676 77.9617 40.7634 83.6384 43.2001 83.974H43.2518C43.3266 83.9745 43.4002 83.9529 43.465 83.9115C43.5298 83.8701 43.5833 83.8103 43.6202 83.7383C44.3505 82.3102 46.6255 75.1199 47.7243 71.0284C48.3247 68.7343 48.706 66.377 48.8618 63.9951C48.8672 63.9287 48.8596 63.8619 48.8396 63.799C48.8195 63.7362 48.7874 63.6789 48.7455 63.631C48.7017 63.5848 48.6499 63.549 48.5933 63.5257C48.5366 63.5024 48.4762 63.492 48.4158 63.4953C42.2177 63.8809 36.5172 64.2093 34.9143 64.3021H34.8367C34.783 64.3022 34.7313 64.2791 34.6927 64.2378C34.6541 64.1965 34.6316 64.1401 34.6299 64.0808C34.6272 64.0509 34.6305 64.0208 34.6394 63.9924C34.6483 63.964 34.6627 63.9382 34.6816 63.9166C34.7205 63.8707 34.7735 63.8426 34.8303 63.838C45.0679 63.2668 64.9874 62.0529 67.0944 61.5531C67.1562 61.5367 67.2141 61.506 67.2643 61.4629C67.3144 61.4198 67.3557 61.3653 67.3852 61.3032C67.7768 59.9623 67.9816 58.5635 67.9928 57.1546C68.083 55.8667 68.0873 54.5731 68.0057 53.2845Z" fill="#3C80B6"/>
<path d="M79.6289 55.3691C78.8727 54.9621 76.7981 54.5979 74.6976 54.498C74.6474 54.495 74.5999 54.4726 74.5632 54.4347C74.5266 54.3969 74.5032 54.3459 74.4972 54.2909C74.4939 54.235 74.5082 54.1797 74.5376 54.1341C74.5671 54.0886 74.6099 54.0557 74.6587 54.041C76.1368 53.6872 77.5186 52.9533 78.6918 51.8988C78.7507 51.8413 78.7935 51.7664 78.8152 51.683C78.837 51.5995 78.8368 51.5109 78.8146 51.4276C78.7944 51.3439 78.7535 51.2681 78.6964 51.2088C78.6393 51.1495 78.5683 51.109 78.4914 51.092C77.6229 50.9775 76.7423 51.065 75.9062 51.349C73.5665 51.9917 71.5306 52.5343 71.5112 52.5343C71.4827 52.5442 71.4524 52.546 71.4231 52.5398C71.3938 52.5336 71.3663 52.5194 71.3432 52.4986C71.3184 52.4817 71.2973 52.4587 71.2817 52.4315C71.266 52.4043 71.2561 52.3736 71.2527 52.3415C71.1298 50.8909 70.805 49.4699 70.2897 48.1287C70.2524 48.0624 70.2012 48.0071 70.1404 47.9673C70.0797 47.9275 70.0111 47.9045 69.9406 47.9002C69.8693 47.8973 69.7984 47.9148 69.735 47.9511C69.6716 47.9874 69.6177 48.0412 69.5787 48.1073C69.1133 48.8856 68.8548 51.3205 68.6609 53.5983V53.7339C68.6588 53.7619 68.6514 53.7891 68.6392 53.8137C68.6269 53.8383 68.6101 53.8598 68.5898 53.8767C68.5487 53.9215 68.5161 53.9748 68.4939 54.0337C68.4717 54.0925 68.4604 54.1557 68.4606 54.2195C68.4957 56.3057 68.3485 58.3909 68.0211 60.4459C67.9987 60.5501 68.0097 60.6597 68.0521 60.756C68.0945 60.8523 68.1657 60.9294 68.2538 60.9743C68.281 60.9873 68.3053 61.0068 68.3248 61.0314C68.7966 61.6455 69.6175 61.8383 70.5159 62.0454L71.201 62.2096C72.9278 62.715 74.6974 63.0213 76.4814 63.1236C76.7532 63.1337 77.0251 63.1025 77.2893 63.0307C77.3515 63.0103 77.4088 62.9747 77.4569 62.9265C77.5051 62.8783 77.5427 62.8187 77.5672 62.7523C77.5898 62.6846 77.5982 62.612 77.5914 62.5402C77.5847 62.4684 77.5631 62.3993 77.5284 62.3381C77.1729 61.7169 75.8157 60.8029 74.7234 60.2531C74.6773 60.2311 74.6397 60.1918 74.6172 60.1422C74.5947 60.0926 74.5889 60.0358 74.6006 59.9818C74.6127 59.929 74.6415 59.8827 74.6818 59.8512C74.7221 59.8198 74.7712 59.8053 74.8203 59.8104C76.3094 59.9777 77.8122 59.9177 79.2864 59.6319C79.3657 59.6054 79.4365 59.5543 79.4904 59.4847C79.5442 59.4151 79.5788 59.3299 79.5901 59.2392C79.5981 59.1474 79.5823 59.0551 79.5446 58.9729C79.5068 58.8907 79.4486 58.8221 79.3769 58.7751C77.9686 58.1218 76.4852 57.6869 74.969 57.4826C74.9196 57.473 74.8748 57.4445 74.8426 57.4021C74.8104 57.3596 74.7927 57.306 74.7927 57.2506C74.7927 57.1952 74.8104 57.1415 74.8426 57.0991C74.8748 57.0567 74.9196 57.0281 74.969 57.0185C76.5418 57.0194 78.1045 56.7397 79.5966 56.1902C79.6657 56.1504 79.7236 56.0904 79.764 56.0167C79.8043 55.9431 79.8257 55.8586 79.8257 55.7725C79.8257 55.6864 79.8043 55.602 79.764 55.5283C79.7236 55.4547 79.6657 55.3947 79.5966 55.3548L79.6289 55.3691Z" fill="#FCE4DF"/>
<path d="M34.8221 64.7364C34.6507 64.7364 34.4863 64.6611 34.3651 64.5272C34.2439 64.3933 34.1758 64.2117 34.1758 64.0223C34.1758 63.8329 34.2439 63.6513 34.3651 63.5174C34.4863 63.3835 34.6507 63.3083 34.8221 63.3083C46.8695 62.6371 65.0892 61.4875 67.0152 61.0305C67.3655 59.7665 67.5505 58.4537 67.5645 57.1318C67.641 55.8765 67.641 54.617 67.5645 53.3617C64.9211 53.4045 50.3466 54.397 40.542 55.0968C40.4493 55.1264 40.3517 55.1326 40.2565 55.115C40.1612 55.0974 40.0708 55.0565 39.9918 54.9953C39.9127 54.934 39.8471 54.854 39.7998 54.761C39.7524 54.6681 39.7245 54.5646 39.7181 54.4582C39.7117 54.3518 39.7269 54.2451 39.7627 54.1461C39.7985 54.047 39.8539 53.9581 39.9248 53.8858C39.9958 53.8135 40.0805 53.7597 40.1728 53.7283C40.265 53.6969 40.3625 53.6888 40.458 53.7044C67.7714 51.748 68.1333 51.955 68.3272 52.0621C68.7279 52.2763 68.8119 52.7762 68.8507 53.7973C68.8507 53.8687 68.9929 61.3947 67.655 62.3015C67.3965 62.48 66.9699 62.7727 50.7668 63.8152C42.8364 64.3222 34.9126 64.7721 34.8286 64.7721L34.8221 64.7364Z" fill="#211613"/>
<path d="M76.3106 64.0666C74.5155 63.9772 72.7354 63.6634 71.0043 63.1312L70.358 62.9669C69.3756 62.7384 68.3544 62.5028 67.7016 61.6531C67.6257 61.5881 67.5638 61.5052 67.5205 61.4104C67.4772 61.3157 67.4536 61.2114 67.4513 61.1053C67.4491 60.9992 67.4683 60.8939 67.5075 60.797C67.5468 60.7001 67.6051 60.6141 67.6782 60.5452C67.7513 60.4764 67.8374 60.4264 67.9302 60.3989C68.0231 60.3715 68.1202 60.3672 68.2147 60.3865C68.3092 60.4057 68.3986 60.448 68.4764 60.5102C68.5543 60.5725 68.6186 60.6531 68.6647 60.7463C69.0395 61.239 69.8086 61.4175 70.6036 61.6031C70.8427 61.6602 71.0754 61.7102 71.3081 61.7745C73.8933 62.4885 76.4786 62.8313 77.1766 62.6028C76.4246 61.7802 75.5328 61.1298 74.5526 60.6891C74.4188 60.6198 74.3105 60.5019 74.2458 60.3551C74.1811 60.2083 74.1639 60.0414 74.1971 59.8823C74.2362 59.7278 74.3212 59.5924 74.4385 59.4979C74.5557 59.4033 74.6984 59.3551 74.8434 59.361C76.2825 59.5267 77.7355 59.4714 79.1608 59.1968C77.7989 58.5704 76.3659 58.1524 74.9016 57.9544C74.7631 57.9077 74.6428 57.8111 74.5599 57.6799C74.4771 57.5487 74.4365 57.3906 74.4447 57.2309C74.4529 57.0712 74.5094 56.9191 74.6051 56.7991C74.7009 56.6791 74.8303 56.5982 74.9727 56.5691C76.4846 56.5654 77.9867 56.3029 79.4258 55.7908C77.8858 55.2713 76.2856 55.0019 74.6754 54.9911C74.5353 54.966 74.4065 54.8906 74.309 54.7766C74.2116 54.6626 74.1508 54.5162 74.1361 54.3603C74.1214 54.2043 74.1535 54.0472 74.2277 53.9135C74.3018 53.7797 74.4137 53.6766 74.5461 53.6201C75.9631 53.2838 77.2903 52.5898 78.424 51.5923C77.6219 51.4962 76.8105 51.5812 76.0391 51.8422C73.7059 52.4848 71.6571 53.0275 71.6377 53.0346C71.5515 53.0558 71.4623 53.0572 71.3756 53.0387C71.2889 53.0203 71.2065 52.9825 71.1336 52.9275C71.06 52.8728 70.9982 52.8011 70.9524 52.7172C70.9066 52.6333 70.878 52.5394 70.8686 52.442C70.7432 51.0555 70.4363 49.6966 69.9573 48.4076C69.4919 49.1859 69.214 52.4134 69.1041 53.6844V53.8201C69.0846 54.0032 69.0017 54.1709 68.8728 54.288C68.7439 54.4051 68.579 54.4626 68.4126 54.4484C68.2468 54.4268 68.0951 54.3353 67.9891 54.1929C67.8831 54.0504 67.831 53.8682 67.8438 53.6844V53.5559C68.1799 49.593 68.4901 46.9867 69.9314 46.901C70.2933 46.901 71.3598 46.8082 72.0126 51.4923C72.8075 51.2852 74.2036 50.9068 75.7224 50.4855C77.377 50.0285 78.6761 50.0428 79.387 50.4855C79.5126 50.5595 79.6233 50.6609 79.7122 50.7837C79.8011 50.9064 79.8664 51.048 79.9041 51.1995C80.0592 51.9136 79.0833 52.9775 77.5709 53.8201C80.8994 54.3556 80.8736 55.3981 80.8671 55.7908C80.8671 56.5477 80.1433 57.1118 78.7666 57.4831C80.0592 57.9972 80.7055 58.6256 80.6409 59.3539C80.5633 60.2679 79.4517 60.782 77.3382 60.8248C78.521 61.8387 78.5727 62.6242 78.437 63.0812C78.3465 63.3882 78.1461 64.0666 76.3106 64.0666Z" fill="#211613"/>
<path d="M21.8973 42.9436C20.7761 42.8931 19.7119 42.3842 18.9113 41.5155C18.1619 40.7972 17.6058 39.8651 17.3037 38.8211C17.0017 37.7771 16.9653 36.6614 17.1985 35.5961C17.6703 33.7325 18.7691 32.5543 20.1328 32.4543C21.4965 32.3544 22.9895 33.4897 23.7199 35.3605C23.7768 35.4469 23.8155 35.5464 23.833 35.6515C23.8505 35.7566 23.8464 35.8648 23.821 35.9679C23.7956 36.0711 23.7496 36.1666 23.6864 36.2475C23.6231 36.3284 23.5442 36.3926 23.4555 36.4353C23.3668 36.478 23.2705 36.4981 23.1739 36.4943C23.0772 36.4904 22.9825 36.4626 22.8968 36.4129C22.8111 36.3632 22.7367 36.2928 22.6789 36.2071C22.6211 36.1213 22.5815 36.0224 22.563 35.9174C22.0459 34.5893 21.1217 33.7753 20.2168 33.8467C19.312 33.9181 18.7432 34.6821 18.4136 35.9888C18.2518 36.8057 18.2918 37.6557 18.5295 38.4496C18.7671 39.2436 19.1937 39.9523 19.7644 40.5016C20.6499 41.4013 21.7034 41.7869 22.4595 41.4727C22.6174 41.412 22.7904 41.4212 22.9423 41.4984C23.0941 41.5756 23.213 41.7148 23.2739 41.8868C23.3289 42.0612 23.3205 42.2524 23.2506 42.4201C23.1807 42.5879 23.0547 42.7192 22.8991 42.7865C22.5761 42.9036 22.2369 42.9568 21.8973 42.9436Z" fill="#211613"/>
<path d="M44.5494 43.3724C44.4361 43.3733 44.3247 43.3413 44.2262 43.2796C44.0851 43.1821 43.9835 43.0282 43.9425 42.8499C43.9016 42.6717 43.9245 42.4829 44.0064 42.3228C44.4053 41.5917 44.7574 40.8306 45.0599 40.045C44.7374 39.9849 44.4111 39.9539 44.084 39.9522C43.9212 39.9528 43.7642 39.8854 43.6443 39.7636C43.5245 39.6418 43.4507 39.4746 43.4377 39.2953L43.3019 36.7533C43.2969 36.6595 43.3085 36.5656 43.3363 36.4768C43.3641 36.388 43.4074 36.3061 43.4638 36.2358C43.5203 36.1656 43.5886 36.1082 43.6651 36.0672C43.7416 36.0261 43.8246 36.002 43.9095 35.9964C43.9944 35.9908 44.0794 36.0037 44.1598 36.0344C44.2401 36.065 44.3143 36.1129 44.3779 36.1752C44.4415 36.2376 44.4934 36.3131 44.5306 36.3976C44.5677 36.4821 44.5895 36.5738 44.5946 36.6676L44.6915 38.5812C45.2583 38.5536 45.8125 38.7713 46.2362 39.1882C46.4495 39.4809 46.7727 39.9022 45.0987 43.0368C45.0405 43.1397 44.9595 43.2246 44.8634 43.2833C44.7673 43.342 44.6592 43.3727 44.5494 43.3724Z" fill="#211613"/>
<path d="M60.624 30.912C60.4915 30.91 60.3628 30.863 60.2553 30.7774C60.1478 30.6919 60.0667 30.5718 60.023 30.4336C57.735 22.7149 51.9246 19.009 42.2557 19.1946C42.0843 19.1946 41.9199 19.1194 41.7987 18.9855C41.6775 18.8516 41.6094 18.67 41.6094 18.4806C41.6094 18.2912 41.6775 18.1096 41.7987 17.9757C41.9199 17.8418 42.0843 17.7666 42.2557 17.7666C52.4029 17.6095 58.7885 21.7081 61.238 29.9624C61.2859 30.1376 61.2709 30.3264 61.1963 30.4899C61.1218 30.6533 60.9933 30.7789 60.8373 30.8406C60.7715 30.8805 60.6988 30.9048 60.624 30.912Z" fill="#211613"/>
<path d="M20.7465 33.9042C20.6394 33.8985 20.5353 33.8636 20.4435 33.8024C20.3517 33.7413 20.2751 33.6559 20.2206 33.5539C20.1661 33.4519 20.1354 33.3365 20.1313 33.2182C20.1272 33.0998 20.1498 32.9822 20.1971 32.8759C26.9447 19.2306 38.3651 11.062 52.345 9.86954C59.5773 9.26261 63.4875 11.6761 65.4975 13.811C66.5713 14.9528 67.4143 16.3326 67.9713 17.8598C68.5282 19.387 68.7865 21.027 68.7291 22.6723C68.5158 28.8702 61.4322 32.1833 61.1284 32.3261C60.9822 32.3573 60.8308 32.3317 60.6997 32.2538C60.5686 32.1758 60.4659 32.0503 60.4089 31.8983C60.3519 31.7464 60.3442 31.5774 60.3869 31.4198C60.4297 31.2623 60.5204 31.1259 60.6437 31.0337C60.7147 31.0337 67.2814 27.9205 67.4623 22.6223C67.5179 21.175 67.2961 19.731 66.8116 18.3848C66.3271 17.0387 65.5908 15.8207 64.6508 14.8107C62.0332 12.0402 57.8257 10.8121 52.4678 11.2405C38.8951 12.3901 27.8689 20.3088 21.3282 33.5186C21.2731 33.6361 21.1895 33.7344 21.0868 33.8024C20.9841 33.8705 20.8663 33.9058 20.7465 33.9042Z" fill="#211613"/>
<path d="M24.5468 32.0625C23.5931 32.1017 22.6399 31.974 21.7224 31.6841C21.5971 31.5978 21.5023 31.4667 21.4538 31.3125C21.4053 31.1584 21.4061 30.9906 21.4559 30.8371C21.5058 30.6835 21.6017 30.5534 21.7278 30.4685C21.8539 30.3835 22.0025 30.3489 22.149 30.3703C23.6613 30.9701 27.8688 30.6487 32.3737 29.5777C35.8056 28.7708 36.6846 26.7215 37.6993 24.3652C37.9385 23.8082 38.1841 23.2299 38.4749 22.6729C40.2135 19.2669 45.035 11.2054 52.2932 9.87729C52.458 9.8522 52.6253 9.89833 52.7601 10.0061C52.895 10.1138 52.987 10.2748 53.0171 10.4557C53.0398 10.6378 52.998 10.8226 52.9005 10.9715C52.803 11.1205 52.6572 11.2222 52.4935 11.2554C45.7848 12.4835 41.2218 20.1238 39.5672 23.3584C39.3022 23.8725 39.0631 24.4294 38.8304 24.965C37.8221 27.3213 36.6717 29.9633 32.6322 30.9415C29.9776 31.612 27.269 31.9876 24.5468 32.0625Z" fill="#211613"/>
<path d="M18.7759 43.0725C18.6826 43.0725 18.5903 43.0501 18.5055 43.007C18.4207 42.9639 18.3454 42.9009 18.2847 42.8226C16.4077 40.2179 15.0334 37.2163 14.2464 34.0025C13.4594 30.7887 13.2765 27.431 13.7088 24.1361C14.3551 20.1803 16.7917 10.4337 25.4911 5.30685C33.3698 0.658447 41.8494 -0.905303 47.6275 1.22254C53.2893 3.30754 57.3546 9.61966 57.5291 9.88386C57.5886 10.0345 57.5993 10.2032 57.5593 10.3615C57.5193 10.5197 57.4311 10.658 57.3096 10.7528C57.1881 10.8476 57.0407 10.8932 56.8923 10.8819C56.7439 10.8706 56.6036 10.803 56.495 10.6907C56.4562 10.6265 52.4878 4.48571 47.2268 2.54352C41.7719 0.537063 33.6541 2.06511 26.0858 6.535C17.8775 11.3762 15.5637 20.6302 14.9497 24.386C14.5447 27.4828 14.7183 30.6384 15.4597 33.6583C16.2012 36.6781 17.4947 39.4981 19.2607 41.9443C19.3295 42.0479 19.3717 42.1702 19.3829 42.2982C19.3941 42.4261 19.3738 42.555 19.3241 42.6713C19.2745 42.7876 19.1973 42.8869 19.1008 42.9588C19.0044 43.0306 18.8921 43.0724 18.7759 43.0796V43.0725Z" fill="#211613"/>
<path d="M48.7652 45.3712C49.1142 45.7068 47.5825 50.8265 43.1681 51.0478C38.7538 51.2692 37.1057 46.0496 37.4353 45.4426C37.7649 44.8357 48.2352 44.8571 48.7652 45.3712Z" fill="#F29C97"/>
<path d="M42.8933 51.7477C41.7948 51.7261 40.721 51.3845 39.7803 50.7577C38.8395 50.1308 38.0651 49.2408 37.5353 48.1775C37.1088 47.3635 36.4883 45.7998 36.889 45.0786C37.07 44.7573 37.4125 44.643 37.9425 44.5573C39.5518 44.2931 48.3482 44.0575 49.169 44.8501C49.4987 45.1714 49.518 45.7426 49.2337 46.6495C48.8003 48.0688 47.9928 49.3125 46.9148 50.221C45.8369 51.1295 44.5377 51.6611 43.1841 51.7477H42.8933ZM38.0524 45.9354C38.3033 46.9732 38.7881 47.9238 39.4613 48.6988C39.9236 49.2581 40.4931 49.6964 41.1282 49.9817C41.7633 50.2671 42.448 50.3923 43.1324 50.3482C46.364 50.1911 47.857 47.0351 48.1285 45.8926C44.7742 45.6067 41.4045 45.621 38.0524 45.9354Z" fill="#211613"/>
<path d="M43.4285 84.8876C43.034 84.8673 42.6423 84.8052 42.2586 84.702C39.5635 84.0736 33.333 82.0814 28.8152 80.5677C18.8167 77.2117 18.6422 76.8404 18.4741 76.5119C18.0928 75.6622 18.9524 74.9196 20.6587 73.4487C21.4549 72.8349 22.1798 72.1155 22.8174 71.3065L30.8188 51.7847L31.9692 52.3559L23.9614 71.8849C23.6835 72.5633 22.8239 73.313 21.4343 74.534C20.956 74.941 20.2968 75.5051 19.9219 75.8978C23.2698 77.4259 40.7721 83.1311 43.1893 83.4595C43.8873 82.0314 46.1365 75.0338 47.2611 70.8496C47.9112 68.3458 48.2994 65.7679 48.418 63.1665C48.4232 62.9771 48.4962 62.7977 48.621 62.6679C48.7459 62.538 48.9123 62.4682 49.0837 62.4739C49.2551 62.4795 49.4175 62.5602 49.5351 62.6982C49.6526 62.8361 49.7158 63.0199 49.7107 63.2093C49.5891 65.9323 49.1813 68.6305 48.4956 71.2494C47.9139 73.3915 44.8633 83.838 43.9714 84.6805C43.8978 84.7531 43.8119 84.8088 43.7187 84.8443C43.6255 84.8799 43.5269 84.8946 43.4285 84.8876Z" fill="#211613"/>
<path d="M36.4507 79.6245C36.3828 79.6225 36.3154 79.6105 36.2504 79.5888C36.0941 79.5256 35.966 79.3983 35.8925 79.2334C35.8191 79.0685 35.8061 78.8787 35.8561 78.7034C36.5412 76.4327 39.6759 66.6789 39.734 66.5647C39.8103 66.4229 39.9287 66.3146 40.069 66.2582C40.2094 66.2019 40.3631 66.201 40.5039 66.2557C40.6448 66.3104 40.7642 66.4173 40.8419 66.5582C40.9195 66.6992 40.9505 66.8655 40.9297 67.0288C40.8974 67.1288 37.7563 76.8754 37.0518 79.1675C37.005 79.3017 36.9225 79.4171 36.8152 79.4987C36.708 79.5802 36.5809 79.6241 36.4507 79.6245Z" fill="#211613"/>
<path d="M20.6219 110.878C20.2341 110.878 19.5102 110.657 18.0366 109.693C17.5519 109.379 15.9361 108.265 15.6323 107.615C15.4191 107.151 15.2381 106.744 21.3199 92.3201C21.5332 91.8132 21.6883 91.449 21.7465 91.2991C22.0861 90.2846 22.2078 89.1969 22.102 88.1216C22.0697 87.9645 21.9856 87.6575 21.8758 87.2719C21.6625 86.5078 21.3393 85.3511 21.0162 83.7731C20.4668 81.1026 22.5092 77.7965 22.5932 77.6609C22.7006 77.551 22.8386 77.4846 22.9847 77.4727C23.1307 77.4607 23.2761 77.5039 23.397 77.5952C23.5179 77.6864 23.6071 77.8203 23.6502 77.975C23.6932 78.1296 23.6874 78.2958 23.6337 78.4463C23.1296 79.2603 21.8952 81.7452 22.2506 83.4446C22.5609 84.9655 22.8969 86.0937 23.0844 86.8434C23.2072 87.279 23.2977 87.6003 23.3364 87.8288C23.4982 89.1907 23.3471 90.5756 22.897 91.856C22.8323 92.0131 22.6837 92.3701 22.4639 92.8842C18.2241 102.945 17.0348 106.208 16.8474 107.065C17.9387 108.056 19.1617 108.856 20.4733 109.436C21.5203 108.05 27.0722 98.7251 30.4912 92.9342C30.5238 92.8324 30.5769 92.7401 30.6465 92.6642C30.716 92.5884 30.8003 92.5309 30.8928 92.4962C30.9854 92.4615 31.0839 92.4505 31.1809 92.4639C31.2779 92.4774 31.3709 92.515 31.4528 92.5738C31.5348 92.6327 31.6036 92.7113 31.654 92.8038C31.7045 92.8963 31.7353 93.0003 31.7441 93.1078C31.753 93.2154 31.7396 93.3238 31.7051 93.4248C31.6705 93.5258 31.6157 93.6169 31.5447 93.6911C21.7723 110.335 21.2036 110.642 21.0226 110.75C20.9015 110.83 20.7634 110.875 20.6219 110.878Z" fill="#211613"/>
<path d="M28.0555 98.139C26.3751 97.8105 24.5977 99.2315 24.3974 102.423C24.197 105.615 24.8951 108.428 26.0778 108.757C27.2606 109.085 28.0556 107.115 27.8552 104.166L28.0555 98.139Z" fill="#5A4F4A"/>
<path d="M26.3328 109.457C26.1953 109.459 26.0583 109.44 25.9256 109.4C24.1741 108.921 23.5795 105.408 23.7734 102.345C23.7818 101.558 23.9405 100.782 24.2389 100.067C24.5374 99.3518 24.969 98.7146 25.5055 98.1965C25.8783 97.8759 26.3084 97.6465 26.7675 97.5234C27.2266 97.4003 27.704 97.3863 28.1684 97.4825C28.2653 97.4772 28.3621 97.4961 28.4516 97.5379C28.541 97.5796 28.6208 97.6431 28.685 97.7236C28.7492 97.8041 28.7961 97.8995 28.8224 98.0028C28.8486 98.106 28.8534 98.2145 28.8365 98.3202C28.8196 98.4258 28.7813 98.5258 28.7246 98.6129C28.6678 98.6999 28.5941 98.7717 28.5088 98.823C28.4235 98.8742 28.3288 98.9036 28.2318 98.9088C28.1348 98.9141 28.0381 98.8952 27.9486 98.8534C27.6563 98.7965 27.3564 98.8091 27.0688 98.8904C26.7813 98.9716 26.5127 99.1197 26.2811 99.3247C25.8877 99.726 25.5737 100.213 25.359 100.755C25.1443 101.297 25.0336 101.882 25.0337 102.474C24.8334 105.68 25.596 107.9 26.2359 108.079C26.2933 108.097 26.3541 108.098 26.4121 108.082C26.47 108.066 26.523 108.032 26.5655 107.986C26.992 107.586 27.3669 106.265 27.2118 104.223C27.2054 104.129 27.2158 104.035 27.2424 103.946C27.269 103.856 27.3113 103.774 27.3668 103.702C27.4789 103.558 27.6382 103.47 27.8096 103.455C27.981 103.441 28.1506 103.503 28.2809 103.627C28.4112 103.751 28.4916 103.927 28.5044 104.116C28.6595 106.415 28.2394 108.264 27.3928 109.05C27.0945 109.321 26.7187 109.465 26.3328 109.457Z" fill="#211613"/>
<path d="M21.1454 116.611C20.2341 116.611 18.9544 116.176 17.2028 114.74C15.0118 112.941 13.8678 110.77 14.1522 108.928C14.2325 108.392 14.4497 107.892 14.7783 107.487C15.1069 107.082 15.5332 106.79 16.0072 106.643C16.0909 106.589 16.1845 106.557 16.2811 106.548C16.3777 106.54 16.4748 106.555 16.5652 106.594C16.6557 106.632 16.7371 106.693 16.8035 106.771C16.87 106.849 16.9197 106.942 16.949 107.044C16.9783 107.146 16.9864 107.254 16.9728 107.36C16.9592 107.466 16.9242 107.567 16.8704 107.656C16.8166 107.746 16.7453 107.82 16.6619 107.875C16.5785 107.929 16.485 107.962 16.3885 107.971C16.1363 108.041 15.9079 108.19 15.7311 108.4C15.5544 108.611 15.4369 108.874 15.3932 109.157C15.251 110.128 15.8327 111.877 17.9784 113.619C20.3246 115.554 21.4233 115.247 21.7077 115.105C21.8281 115.049 21.9323 114.957 22.0087 114.84C22.0851 114.723 22.1308 114.585 22.1407 114.441C22.186 113.798 21.2036 111.927 20.2599 110.57C20.1971 110.423 20.1818 110.256 20.2165 110.098C20.2513 109.94 20.3341 109.799 20.4511 109.7C20.5681 109.601 20.7123 109.549 20.8597 109.552C21.0072 109.556 21.149 109.616 21.2617 109.721C21.643 110.263 23.5109 113.055 23.3946 114.555C23.37 114.948 23.2478 115.326 23.0414 115.647C22.835 115.968 22.5524 116.22 22.2247 116.376C21.8844 116.539 21.5163 116.619 21.1454 116.611Z" fill="#211613"/>
<path d="M36.8413 30.184C36.4872 30.2146 36.1311 30.166 35.7943 30.0412C35.7038 29.9916 35.6251 29.9192 35.5645 29.83C35.5039 29.7407 35.4631 29.6369 35.4453 29.5271C35.3548 29.0201 35.6586 28.4846 36.3308 27.3064C37.0458 26.1814 37.6137 24.9507 38.0177 23.6505C38.0823 23.5022 38.1913 23.3831 38.3263 23.3134C38.4612 23.2436 38.6139 23.2276 38.7583 23.2679C38.9028 23.3082 39.0302 23.4024 39.119 23.5346C39.2078 23.6668 39.2526 23.8288 39.2456 23.9933C38.8145 25.4374 38.1939 26.8039 37.4036 28.049C37.2615 28.2989 37.0999 28.5774 36.9706 28.8202C39.2327 28.7488 46.1289 27.692 47.7964 26.9922C49.4639 26.2925 50.7436 21.08 50.8471 19.9304C50.8642 19.741 50.9487 19.5669 51.082 19.4464C51.2154 19.3259 51.3866 19.2688 51.558 19.2877C51.7294 19.3067 51.887 19.4001 51.9961 19.5474C52.1052 19.6947 52.1568 19.8838 52.1397 20.0732C52.0621 20.8872 50.8471 27.2136 48.2618 28.2918C46.7429 28.9273 39.6334 30.184 36.8413 30.184Z" fill="#211613"/>
<path d="M60.863 32.376C60.7502 32.3753 60.6396 32.3419 60.542 32.2793C60.4445 32.2167 60.3636 32.1269 60.3072 32.019C59.7225 30.9286 58.9279 29.9936 57.9796 29.2803C57.0313 28.5671 55.9526 28.0931 54.8199 27.8919L54.2124 27.7919C53.2494 27.6491 52.2734 27.5063 51.8469 26.7565C51.7498 26.5759 51.6923 26.3728 51.6789 26.1633C51.6654 25.9538 51.6963 25.7438 51.7693 25.5498C52.1308 23.9062 52.3835 22.2357 52.5255 20.5515C52.5169 20.4463 52.5296 20.3403 52.5626 20.2412C52.5955 20.142 52.648 20.0522 52.7162 19.9782C52.7844 19.9041 52.8666 19.8477 52.9569 19.8131C53.0472 19.7784 53.1434 19.7662 53.2384 19.7775C53.3335 19.7889 53.4251 19.8233 53.5066 19.8785C53.5882 19.9336 53.6576 20.008 53.71 20.0964C53.7624 20.1848 53.7963 20.2849 53.8094 20.3895C53.8225 20.4942 53.8145 20.6007 53.7858 20.7015C53.625 22.4847 53.3485 24.253 52.9585 25.9925C53.4122 26.1948 53.8922 26.3154 54.3804 26.3495C54.6195 26.3852 54.8522 26.4209 55.0267 26.4638C56.3434 26.703 57.5964 27.2595 58.6966 28.0937C59.7968 28.9279 60.7174 30.0194 61.393 31.2907C61.4687 31.4527 61.4855 31.6407 61.4398 31.8159C61.3942 31.9912 61.2895 32.1405 61.1474 32.2332C61.0646 32.3058 60.9669 32.3548 60.863 32.376Z" fill="#211613"/>
<path d="M25.1937 40.3451C25.059 40.3442 24.9279 40.2967 24.8188 40.2095C23.3632 38.8088 22.4591 36.8365 22.2982 34.7114C22.2815 34.5284 22.3292 34.3454 22.4316 34.2005C22.5339 34.0555 22.6829 33.9597 22.8476 33.9331C23.0131 33.9146 23.1788 33.9673 23.31 34.0804C23.4413 34.1935 23.5279 34.3581 23.5521 34.54C23.6679 35.6839 24.0099 36.7857 24.5539 37.7675C24.7585 35.8825 25.3177 34.0657 26.1955 32.4336C26.3118 32.2765 26.5639 31.9409 29.007 30.4343C29.1512 30.3686 29.3121 30.3627 29.4599 30.4178C29.6077 30.4729 29.7325 30.5852 29.8112 30.734C29.8899 30.8827 29.9173 31.0579 29.8883 31.2273C29.8593 31.3966 29.7758 31.5486 29.6533 31.6553C28.7836 32.1219 27.9586 32.6841 27.1908 33.3333C26.7836 33.8688 25.491 37.4604 25.8465 39.5169C25.8669 39.6535 25.8509 39.7938 25.8004 39.9206C25.7499 40.0474 25.6671 40.1552 25.5621 40.2309C25.4526 40.3092 25.3241 40.349 25.1937 40.3451Z" fill="#211613"/>
<path d="M31.1661 52.791C23.5396 52.791 20.4889 47.7356 19.3385 45.822C17.7162 43.1372 19.1123 41.1522 19.1705 41.0665C19.2848 40.9623 19.4281 40.9047 19.5763 40.9033C19.7246 40.902 19.8687 40.957 19.9846 41.0591C20.1005 41.1612 20.1811 41.3042 20.2129 41.4641C20.2447 41.6241 20.2258 41.7912 20.1593 41.9376C20.1141 42.0019 19.2997 43.2443 20.3855 45.0437C21.5554 46.9787 24.2634 51.5057 31.4117 51.3915C31.5831 51.3915 31.7475 51.4667 31.8687 51.6006C31.9899 51.7345 32.058 51.9162 32.058 52.1055C32.058 52.2949 31.9899 52.4765 31.8687 52.6104C31.7475 52.7444 31.5831 52.8196 31.4117 52.8196L31.1661 52.791Z" fill="#211613"/>
<path d="M8.74995 48.9125C7.02614 48.9574 5.33119 48.4184 3.89277 47.3679C2.45435 46.3174 1.34134 44.8057 0.703293 43.036C0.660392 42.8844 0.664441 42.7214 0.714772 42.5727C0.765104 42.424 0.858861 42.2981 0.981224 42.2148C1.10539 42.1367 1.24948 42.1063 1.39097 42.1282C1.53247 42.1502 1.66339 42.2233 1.76326 42.3362C2.05447 42.6433 2.41799 42.8537 2.81229 42.9433C3.20659 43.033 3.61577 42.9983 3.99307 42.8432C5.33741 42.3576 6.25517 40.7653 6.50723 38.4732C6.81746 35.6171 8.07131 33.475 9.9327 32.5539C10.7684 32.1486 11.6857 31.9926 12.5931 32.1016C13.5004 32.2107 14.3659 32.5808 15.1032 33.1751C15.2066 33.293 15.2701 33.4466 15.2829 33.6102C15.2957 33.7737 15.2571 33.9371 15.1737 34.0729C15.0902 34.2087 14.967 34.3086 14.8246 34.3558C14.6823 34.4029 14.5296 34.3945 14.3923 34.3318C13.8344 33.8756 13.1781 33.5888 12.4886 33.4998C11.7992 33.4109 11.1007 33.5229 10.4627 33.8248C9.00847 34.5389 8.02608 36.3097 7.76756 38.6375C7.31513 42.6932 5.25337 43.8571 4.38731 44.1641C3.8736 44.353 3.32844 44.4139 2.7909 44.3427C3.82501 45.9064 5.92555 47.87 9.74528 47.463C12.5374 47.1703 12.8347 45.7707 13.1191 44.4141C13.313 43.5001 13.5327 42.4576 14.5797 42.1434C15.9696 41.777 17.3981 41.6208 18.826 41.6793C18.9679 41.7212 19.0926 41.8153 19.1797 41.946C19.2667 42.0767 19.3108 42.2362 19.3048 42.3984C19.2988 42.5605 19.243 42.7155 19.1465 42.8379C19.0501 42.9603 18.9188 43.0427 18.7743 43.0717C17.4709 43.024 16.1674 43.1632 14.8964 43.4858C14.6185 43.5715 14.5216 43.8428 14.3277 44.7354C14.0174 46.2206 13.5392 48.4627 9.8487 48.8554C9.48353 48.8945 9.11683 48.9136 8.74995 48.9125Z" fill="#211613"/>
<path d="M31.9061 37.6032C31.7347 37.6032 31.5703 37.528 31.4491 37.394C31.3279 37.2601 31.2598 37.0785 31.2598 36.8891C31.2598 36.6998 31.3279 36.5181 31.4491 36.3842C31.5703 36.2503 31.7347 36.1751 31.9061 36.1751L36.1912 36.0252L33.4443 33.9616C33.3388 33.8436 33.2737 33.6886 33.2603 33.5234C33.2469 33.3582 33.286 33.1929 33.3708 33.0561C33.4557 32.9192 33.5811 32.8193 33.7254 32.7734C33.8698 32.7276 34.024 32.7387 34.1617 32.8048L38.505 36.0823C38.6061 36.1704 38.6811 36.2899 38.7202 36.4255C38.7594 36.561 38.7611 36.7064 38.725 36.843C38.6888 36.9796 38.6166 37.1011 38.5175 37.1921C38.4185 37.283 38.2971 37.3391 38.1689 37.3533L31.9449 37.5746L31.9061 37.6032Z" fill="#211613"/>
<path d="M56.4095 37.274L50.1855 37.0527C50.0573 37.0385 49.9359 36.9824 49.8369 36.8915C49.7378 36.8005 49.6656 36.679 49.6294 36.5424C49.5933 36.4058 49.595 36.2604 49.6342 36.1249C49.6734 35.9894 49.7483 35.8699 49.8494 35.7817L54.1991 32.5042C54.3365 32.4416 54.4891 32.4331 54.6314 32.4803C54.7738 32.5274 54.8971 32.6273 54.9805 32.7631C55.064 32.8989 55.1025 33.0624 55.0897 33.2259C55.0769 33.3894 55.0134 33.5431 54.9101 33.661L52.1438 35.7103L56.4289 35.8602C56.6003 35.8602 56.7647 35.9355 56.8859 36.0694C57.0071 36.2033 57.0753 36.3849 57.0753 36.5743C57.0753 36.7637 57.0071 36.9453 56.8859 37.0792C56.7647 37.2131 56.6003 37.2883 56.4289 37.2883L56.4095 37.274Z" fill="#211613"/>
<path d="M42.634 107.573C39.9394 107.337 37.2579 106.946 34.6003 106.401C27.7493 105.123 27.5296 104.795 27.368 104.559C27.2064 104.324 27.0061 104.024 27.0836 101.082C27.1612 98.0187 27.4843 97.7545 27.6912 97.5831C27.898 97.4117 28.2535 97.119 34.2965 98.2971C33.4628 97.1618 32.3964 95.7123 32.1055 95.2553C31.6208 94.5413 27.7041 88.779 27.6653 88.7219C27.5925 88.6522 27.5346 88.5655 27.496 88.468C27.4574 88.3705 27.439 88.2648 27.4421 88.1584C27.4453 88.0521 27.4699 87.9478 27.5142 87.8533C27.5585 87.7589 27.6214 87.6765 27.6982 87.6123C27.775 87.5481 27.8639 87.5037 27.9582 87.4823C28.0526 87.4609 28.1501 87.4631 28.2436 87.4887C28.337 87.5143 28.4242 87.5626 28.4986 87.6302C28.573 87.6978 28.6328 87.7829 28.6736 87.8793C28.8351 88.1149 32.6355 93.6844 33.1332 94.4413C33.6308 95.1982 36.3647 98.8469 36.3647 98.8827C36.4386 98.9951 36.4812 99.129 36.4872 99.2678C36.4932 99.4067 36.4625 99.5444 36.3986 99.6642C36.3348 99.784 36.2407 99.8806 36.1279 99.9422C36.0152 100.004 35.8885 100.028 35.7637 100.011C32.8229 99.4039 29.5332 98.8255 28.512 98.7755C28.3259 100.381 28.2869 102.003 28.3956 103.617C30.1859 104.231 41.0312 106.259 42.7633 106.159C43.7715 106.102 44.9284 105.709 44.9284 103.145C44.9284 101.667 42.7827 92.9061 41.7486 88.6933C40.973 85.5372 40.973 85.5158 40.973 85.3516C41.0124 84.828 41.0837 84.308 41.1863 83.795C41.2235 83.6164 41.3214 83.4605 41.4597 83.3595C41.5981 83.2585 41.7663 83.2201 41.9295 83.2523C42.0923 83.2919 42.235 83.3994 42.3277 83.5524C42.4205 83.7054 42.4561 83.8921 42.4272 84.0734C42.3432 84.5233 42.2527 85.0945 42.2398 85.3016C42.2268 85.5087 42.6276 86.9367 42.9701 88.3291C44.5988 94.984 46.2017 101.61 46.2017 103.145C46.2017 105.866 45.006 107.43 42.8344 107.551L42.634 107.573Z" fill="#211613"/>
<path d="M35.1581 43.8364C35.1581 45.5858 33.4325 46.9996 31.2802 46.9996C29.128 46.9996 27.4023 45.5715 27.4023 43.8364C27.4023 42.1012 29.128 40.666 31.2802 40.666C33.4325 40.666 35.1581 42.087 35.1581 43.8364Z" fill="#F8C6BE"/>
<path d="M61.3847 41.673C60.5746 41.0021 59.5855 40.6479 58.5732 40.6662C56.4468 40.6662 54.6953 42.0943 54.6953 43.8365C54.6953 45.5788 56.421 46.9997 58.5732 46.9997C59.1943 47.0026 59.8103 46.8766 60.3894 46.6284C60.7319 44.9933 61.1003 43.3439 61.3847 41.673Z" fill="#F8C6BE"/>
<path d="M41.0657 54.8253C34.6025 54.8253 28.3979 52.2119 24.9788 48.0204C23.6977 46.4213 22.6272 44.6304 21.799 42.7008C21.7293 42.5327 21.7213 42.3413 21.7767 42.1669C21.8322 41.9924 21.9467 41.8485 22.0963 41.7654C22.2477 41.6906 22.4194 41.6829 22.5758 41.7441C22.7322 41.8052 22.8614 41.9305 22.9365 42.0939C23.7135 43.9056 24.7164 45.588 25.916 47.0922C29.2833 51.2193 35.6108 53.7042 42.0739 53.4114C48.0524 53.1401 53.7076 52.8902 56.6031 50.491C59.4986 48.0918 61.0886 45.3499 60.7654 37.9168C60.6251 34.8927 60.2269 31.8899 59.5762 28.9484C59.5409 28.7678 59.5703 28.5791 59.6583 28.422C59.7463 28.2649 59.886 28.1516 60.048 28.1059C60.2097 28.0686 60.3781 28.1011 60.5187 28.1967C60.6593 28.2923 60.7614 28.4438 60.8042 28.62C61.4764 31.648 61.8897 34.7391 62.0387 37.8525C62.3877 45.8712 60.5909 48.9701 57.3723 51.6192C54.1536 54.2683 48.3238 54.5325 42.1386 54.811C41.7831 54.8181 41.4212 54.8253 41.0657 54.8253Z" fill="#211613"/>
<path d="M11.693 14.91C9.42446 15.7811 8.91387 16.4952 8.28694 19.6584C7.64063 16.4952 7.14943 15.7811 4.88086 14.91C7.14943 14.0317 7.66002 13.3248 8.28694 10.1616C8.91387 13.3248 9.3986 14.0317 11.693 14.91Z" fill="#FFE100"/>
<path d="M8.28523 20.3594C8.14225 20.3557 8.0044 20.2998 7.89329 20.2003C7.78218 20.1008 7.70408 19.9634 7.67122 19.8096C7.08953 16.8749 6.72114 16.3608 4.67232 15.5682C4.55573 15.5133 4.45631 15.4218 4.38644 15.305C4.31656 15.1882 4.2793 15.0513 4.2793 14.9113C4.2793 14.7713 4.31656 14.6344 4.38644 14.5176C4.45631 14.4008 4.55573 14.3092 4.67232 14.2544C6.72114 13.4618 7.08953 12.9477 7.67122 10.013C7.70408 9.85918 7.78218 9.72178 7.89329 9.62228C8.0044 9.52279 8.14225 9.46682 8.28523 9.46315C8.43375 9.45876 8.57909 9.51104 8.69681 9.61118C8.81453 9.71132 8.89743 9.85321 8.93155 10.013C9.50677 12.9477 9.87518 13.4618 11.9305 14.2544C12.0471 14.3092 12.1465 14.4008 12.2163 14.5176C12.2862 14.6344 12.3235 14.7713 12.3235 14.9113C12.3235 15.0513 12.2862 15.1882 12.2163 15.305C12.1465 15.4218 12.0471 15.5133 11.9305 15.5682C9.87518 16.3608 9.50677 16.8749 8.93155 19.8096C8.89743 19.9693 8.81453 20.1112 8.69681 20.2114C8.57909 20.3115 8.43375 20.3638 8.28523 20.3594ZM6.49494 14.9113C7.3255 15.3767 7.96531 16.1728 8.28523 17.1391C8.60514 16.1728 9.24496 15.3767 10.0755 14.9113C9.24496 14.4459 8.60514 13.6497 8.28523 12.6835C7.96531 13.6497 7.3255 14.4459 6.49494 14.9113Z" fill="#211613"/>
<path d="M12.0389 91.9196C13.92 91.9196 15.445 89.7937 15.445 87.1712C15.445 84.5488 13.92 82.4229 12.0389 82.4229C10.1578 82.4229 8.63281 84.5488 8.63281 87.1712C8.63281 89.7937 10.1578 91.9196 12.0389 91.9196Z" fill="#FFE100"/>
<path d="M12.0382 92.6125C11.8896 92.6169 11.7443 92.5646 11.6266 92.4645C11.5089 92.3643 11.426 92.2225 11.3918 92.0627C10.8102 89.1351 10.4482 88.6139 8.39294 87.8284C8.2744 87.7747 8.17301 87.6831 8.10166 87.5655C8.0303 87.4479 7.99219 87.3095 7.99219 87.168C7.99219 87.0264 8.0303 86.888 8.10166 86.7704C8.17301 86.6528 8.2744 86.5613 8.39294 86.5075C10.4482 85.722 10.8102 85.2079 11.3918 82.2732C11.426 82.1135 11.5089 81.9716 11.6266 81.8714C11.7443 81.7713 11.8896 81.719 12.0382 81.7234C12.1867 81.719 12.332 81.7713 12.4497 81.8714C12.5675 81.9716 12.6504 82.1135 12.6845 82.2732C13.2662 85.2008 13.6346 85.722 15.6834 86.5075C15.8019 86.5613 15.9033 86.6528 15.9747 86.7704C16.046 86.888 16.0841 87.0264 16.0841 87.168C16.0841 87.3095 16.046 87.4479 15.9747 87.5655C15.9033 87.6831 15.8019 87.7747 15.6834 87.8284C13.6346 88.6139 13.2662 89.1351 12.6845 92.0627C12.6504 92.2225 12.5675 92.3643 12.4497 92.4645C12.332 92.5646 12.1867 92.6169 12.0382 92.6125ZM10.2479 87.1715C11.08 87.6346 11.7205 88.4316 12.0382 89.3993C12.3558 88.4316 12.9963 87.6346 13.8285 87.1715C12.9975 86.7033 12.3578 85.9048 12.0382 84.9366C11.7185 85.9048 11.0789 86.7033 10.2479 87.1715Z" fill="#211613"/>
<path d="M5.09543 82.7087C7.57624 82.7087 9.58732 79.9083 9.58732 76.4537C9.58732 72.9992 7.57624 70.1987 5.09543 70.1987C2.61462 70.1987 0.603516 72.9992 0.603516 76.4537C0.603516 79.9083 2.61462 82.7087 5.09543 82.7087Z" fill="#FFE100"/>
<path d="M5.093 83.4017C4.95002 83.398 4.81218 83.342 4.70107 83.2425C4.58996 83.143 4.51187 83.0056 4.47901 82.8519C3.69697 78.9246 3.18636 78.1749 0.400733 77.1395C0.282192 77.0857 0.180803 76.9942 0.109449 76.8766C0.0380942 76.759 0 76.6206 0 76.479C0 76.3375 0.0380942 76.1991 0.109449 76.0815C0.180803 75.9639 0.282192 75.8723 0.400733 75.8185C3.16697 74.7546 3.69697 74.0049 4.47901 70.1062C4.51187 69.9524 4.58996 69.815 4.70107 69.7155C4.81218 69.6161 4.95002 69.5601 5.093 69.5564C5.24152 69.552 5.38687 69.6043 5.50458 69.7044C5.6223 69.8046 5.7052 69.9465 5.73932 70.1062C6.5149 74.0334 7.03195 74.7832 9.81758 75.8185C9.93612 75.8723 10.0375 75.9639 10.1089 76.0815C10.1802 76.1991 10.2183 76.3375 10.2183 76.479C10.2183 76.6206 10.1802 76.759 10.1089 76.8766C10.0375 76.9942 9.93612 77.0857 9.81758 77.1395C7.05134 78.2034 6.5149 78.9532 5.73932 82.8519C5.7052 83.0116 5.6223 83.1535 5.50458 83.2536C5.38687 83.3538 5.24152 83.406 5.093 83.4017ZM2.28799 76.4469C2.96525 76.7749 3.56783 77.2655 4.05193 77.8831C4.53602 78.5007 4.88945 79.2297 5.08653 80.0171C5.28388 79.2288 5.63816 78.4991 6.12347 77.8814C6.60877 77.2637 7.21285 76.7736 7.89157 76.4469C7.21183 76.1219 6.60684 75.6324 6.12134 75.0144C5.63583 74.3965 5.28218 73.6659 5.08653 72.8767C4.89114 73.665 4.53834 74.3949 4.05404 75.0127C3.56974 75.6305 2.96627 76.1206 2.28799 76.4469Z" fill="#211613"/>
</svg>
