<svg width="98" height="89" viewBox="0 0 98 89" fill="none" xmlns="http://www.w3.org/2000/svg">
<path d="M38.9941 88.3724C40.2149 88.1521 41.3205 87.4894 42.1136 86.5024L59.8278 64.4341C60.3129 63.8289 60.6656 63.1217 60.8613 62.3615C61.0571 61.6013 61.0913 60.8061 60.9617 60.0309L51.9912 6.88397C51.8204 5.86373 51.3713 4.91553 50.6969 4.15149C50.0226 3.38745 49.1513 2.83952 48.186 2.57251C47.2207 2.3055 46.2019 2.33057 45.2499 2.64476C44.2979 2.95894 43.4527 3.54911 42.8141 4.34545L27.9422 22.8777L7.87955 10.6813C7.01857 10.1574 6.0309 9.8998 5.03321 9.93895C4.03552 9.97809 3.06946 10.3123 2.24915 10.9022C1.42885 11.4921 0.788555 12.3129 0.403873 13.2678C0.0191879 14.2227 -0.0938187 15.2718 0.0782242 16.2911L9.04874 69.438C9.17941 70.2151 9.47271 70.9531 9.90804 71.6001C10.3434 72.2471 10.9102 72.7874 11.5685 73.1831L35.4563 87.7142C36.5246 88.3568 37.7768 88.5898 38.9941 88.3724ZM46.6593 6.74294C46.9325 6.6944 47.2132 6.76002 47.4399 6.92546C47.6666 7.0909 47.8208 7.34267 47.8688 7.62567L56.8343 60.7726C56.8626 60.9271 56.857 61.0863 56.8177 61.2382C56.7785 61.3901 56.7066 61.5309 56.6075 61.6501L38.8933 83.7236C38.7362 83.9225 38.5154 84.0562 38.2712 84.1003C38.0269 84.1444 37.7755 84.096 37.5628 83.9639L13.6701 69.4328C13.5382 69.3544 13.4247 69.2467 13.3376 69.1176C13.2505 68.9885 13.1919 68.8411 13.1661 68.6858L4.1956 15.5389C4.16185 15.3342 4.18515 15.1236 4.26281 14.9321C4.34048 14.7406 4.46928 14.576 4.63405 14.4577C4.79842 14.3414 4.99121 14.2758 5.19011 14.2684C5.38901 14.261 5.58587 14.3121 5.75787 14.4159L27.3475 27.5473C27.7756 27.8079 28.2789 27.9026 28.768 27.8147C29.2572 27.7267 29.7003 27.4616 30.0185 27.0667L46.0344 7.10857C46.1924 6.91136 46.4148 6.78123 46.6593 6.74294Z" fill="#231916"/>
<path d="M3.45997 12.6767C3.95221 12.3235 4.53159 12.1236 5.12983 12.1005C5.72807 12.0773 6.32025 12.232 6.83651 12.5461L28.4312 25.6774L44.437 5.72972C44.82 5.25173 45.3271 4.89738 45.8982 4.70857C46.4694 4.51975 47.0808 4.50437 47.6601 4.66423C48.2394 4.82409 48.7624 5.15251 49.1674 5.61067C49.5724 6.06884 49.8423 6.63759 49.9453 7.2497L58.8956 60.3861C58.9751 60.8511 58.9559 61.3284 58.8393 61.7848C58.7226 62.2413 58.5114 62.6659 58.2203 63.0291L40.5061 85.1027C40.0283 85.6942 39.3644 86.0919 38.6314 86.2257C37.8989 86.361 37.1439 86.2182 36.5047 85.8235L12.6119 71.2976C12.2173 71.0598 11.8776 70.7357 11.6165 70.3477C11.3553 69.9598 11.1791 69.5174 11.1 69.0516L2.12951 15.9047C2.03035 15.2911 2.10299 14.6609 2.33879 14.0888C2.57459 13.5167 2.96369 13.0266 3.45997 12.6767Z" fill="white"/>
<path d="M38.0921 83.0291L14.2044 68.5032L5.23387 15.3511L29.1267 29.8822L38.0921 83.0291Z" fill="#33AA85"/>
<path d="M38.092 83.0292L55.8063 60.9608L46.8358 7.81396L29.1266 29.8823L38.092 83.0292Z" fill="#FFE73F"/>
<path d="M38.0919 83.5407C38.1916 83.5407 38.2887 83.5077 38.3691 83.4466C38.4482 83.3892 38.5097 83.3095 38.5463 83.2169C38.5829 83.1243 38.5931 83.0227 38.5757 82.9243L29.6102 29.7774C29.5968 29.7051 29.5687 29.6365 29.5279 29.5762C29.4871 29.5159 29.4344 29.4652 29.3734 29.4275L5.47556 14.912C5.39454 14.8689 5.30378 14.8495 5.21294 14.8556C5.12209 14.8617 5.03455 14.8933 4.9596 14.9468C4.88465 15.0004 4.8251 15.074 4.78729 15.1598C4.74947 15.2457 4.73479 15.3405 4.74481 15.4343L13.7153 68.5864C13.7281 68.6597 13.7558 68.7293 13.7967 68.7906C13.8375 68.8518 13.8906 68.9033 13.9522 68.9416L37.8399 83.4675C37.9162 83.5145 38.0031 83.5397 38.0919 83.5407ZM28.6577 30.2005L37.4014 82.0311L14.6275 68.179L5.88377 16.3484L28.6577 30.2005Z" fill="#211613"/>
<path d="M38.0918 83.541C38.1638 83.5403 38.2347 83.5236 38.2999 83.4921C38.3651 83.4605 38.423 83.4149 38.4698 83.3582L56.184 61.2846C56.2287 61.2275 56.2612 61.1611 56.2795 61.09C56.2977 61.0189 56.3013 60.9446 56.2899 60.872L47.3042 7.72511C47.2847 7.63108 47.2406 7.54445 47.1766 7.47478C47.1126 7.4051 47.0314 7.35508 46.9417 7.33023C46.8521 7.30539 46.7575 7.30667 46.6686 7.33395C46.5796 7.36123 46.4996 7.41345 46.4374 7.48484L28.7434 29.5689C28.6987 29.626 28.6662 29.6924 28.6479 29.7635C28.6297 29.8346 28.6262 29.9089 28.6375 29.9815L37.608 83.1284C37.6251 83.2241 37.6677 83.313 37.7309 83.385C37.7941 83.457 37.8755 83.5092 37.9658 83.5358C38.0075 83.543 38.0498 83.5448 38.0918 83.541ZM55.2819 60.8145L38.3942 81.8539L29.6656 30.0285L46.5533 8.98392L55.2819 60.8145Z" fill="#211613"/>
<g style="mix-blend-mode:multiply" opacity="0.2">
<path d="M43.4592 15.6642C43.7062 14.2226 45.8279 14.8337 45.5809 16.2753C45.2937 17.9206 45.2786 19.1063 46.5889 20.2502C47.7836 21.2691 49.0853 22.1451 50.4694 22.8619C51.7343 23.5304 50.6205 25.4996 49.3606 24.831C47.5615 23.8752 45.5154 22.6634 44.2001 21.0389C42.8847 19.4145 43.1367 17.5237 43.4592 15.6642Z" fill="#211613"/>
</g>
<g style="mix-blend-mode:multiply" opacity="0.2">
<path d="M34.3172 42.0629C34.2432 40.6871 34.4652 39.3115 34.9674 38.0357C35.2697 37.294 36.3129 37.1425 36.9227 37.5134C37.2412 37.72 37.471 38.0454 37.5648 38.4225C37.6586 38.7996 37.6092 39.1996 37.4267 39.54C37.0235 40.5115 37.1646 41.6293 37.1797 42.674C37.1797 43.2642 36.8521 44.732 37.2805 45.1028C37.7089 45.4737 39.2964 45.2543 39.8457 45.2386C41.035 45.2021 42.2193 45.1237 43.4036 45.0401C45.616 44.8834 47.8335 44.6954 50.0509 44.7163C51.2304 44.7227 52.4084 44.803 53.5786 44.9566C54.5865 45.0871 55.8011 45.5781 56.809 45.364C58.6081 44.9879 59.3741 47.845 57.57 48.2211C56.2093 48.5084 54.9796 48.1428 53.634 47.9286C52.1577 47.7241 50.668 47.642 49.179 47.6831C46.2157 47.7197 43.2625 48.0749 40.2992 48.2054C38.2179 48.2838 35.0984 48.4614 34.3676 45.8184C34.0552 44.6588 34.3374 43.2381 34.3172 42.0629Z" fill="#211613"/>
</g>
<path d="M64.6407 39.1948C59.9236 38.9963 55.4737 38.8083 53.1252 36.9906C50.7768 35.1729 49.4916 33.094 49.7487 27.5051C49.8174 25.9544 49.9857 24.4101 50.2526 22.8825C50.2718 22.8435 50.2974 22.8081 50.3282 22.7781C50.8224 22.0115 51.4628 21.3579 52.2099 20.8575C52.957 20.3572 53.795 20.0206 54.6724 19.8687L55.1763 19.7903C55.8466 19.7016 56.5421 19.6075 56.7789 19.1949C56.8288 19.1062 56.858 19.0066 56.8641 18.9041C56.8703 18.8016 56.8532 18.6991 56.8142 18.6047C56.5459 17.5045 56.3556 16.3855 56.2447 15.2565C56.2369 15.1841 56.2517 15.1109 56.2871 15.0479C56.3225 14.9848 56.3766 14.9353 56.4413 14.9066C56.5723 14.8439 56.7033 14.7864 56.8394 14.7342C56.8816 14.7122 56.9282 14.7007 56.9755 14.7007C57.0227 14.7007 57.0694 14.7122 57.1116 14.7342C57.1532 14.757 57.1897 14.7889 57.2184 14.8277C57.2471 14.8664 57.2673 14.9112 57.2778 14.9588C57.7112 17.0481 58.6789 19.6598 59.9892 20.1821C61.1432 20.6417 66.6717 21.5454 68.7631 21.5454C68.9833 21.5685 69.2058 21.5473 69.4183 21.4827C69.4578 21.4627 69.4897 21.4296 69.509 21.3887C69.5299 21.3466 69.5591 21.3095 69.5947 21.2798C69.6303 21.2502 69.6715 21.2285 69.7156 21.2163C69.7594 21.2041 69.8052 21.2011 69.8502 21.2073C69.8952 21.2136 69.9385 21.2291 69.9777 21.2529C70.634 21.6664 71.3557 21.9564 72.1094 22.1095C72.8603 22.2766 73.6213 22.4177 74.3369 22.5378C74.4048 22.5506 74.4677 22.5832 74.5183 22.6318L74.5486 22.6632C75.2573 23.0342 75.932 23.4713 76.5644 23.969C76.9474 24.4443 77.9755 27.1813 77.6832 28.7744C77.6759 28.8079 77.6788 28.843 77.6914 28.8747C77.7041 28.9065 77.7258 28.9335 77.7538 28.952C77.7818 28.97 77.814 28.9796 77.847 28.9796C77.88 28.9796 77.9123 28.97 77.9402 28.952C78.8464 28.1279 79.4574 27.0106 79.6739 25.7814C79.68 25.7529 79.6884 25.725 79.6991 25.6979C79.8438 25.3715 80.0498 25.0782 80.305 24.8351C80.5603 24.5921 80.8597 24.4042 81.1857 24.2824C81.2242 24.2773 81.2632 24.2773 81.3016 24.2824H81.3269H81.3772C81.4128 24.2671 81.45 24.2566 81.4881 24.251C81.5754 24.246 81.6629 24.246 81.7502 24.251C82.5313 24.3085 83.1512 24.9666 83.4435 26.0531C83.5905 26.7127 83.5617 27.4014 83.3602 28.0455C83.1587 28.6895 82.792 29.2646 82.2995 29.7094C81.5184 30.4563 80.5608 30.754 79.8603 30.4929C79.8195 30.4775 79.7745 30.4793 79.735 30.4978C79.6955 30.5164 79.6645 30.5502 79.6487 30.5921C79.6385 30.6214 79.6364 30.653 79.6426 30.6835C79.6488 30.7139 79.6632 30.742 79.6839 30.7645C79.7278 30.8158 79.7556 30.8798 79.7637 30.9478C79.7717 31.0159 79.7598 31.0849 79.7293 31.1458C79.1397 32.3693 78.3976 33.5073 77.5219 34.5304C74.9769 37.4607 70.3103 39.2784 65.4722 39.2784C65.1799 39.2105 64.9078 39.2053 64.6407 39.1948Z" fill="#FCE4DF"/>
<path d="M64.9129 13.6061C65.6453 14.5899 66.3088 15.6268 66.8985 16.7087C66.9842 16.8654 67.08 17.0482 67.1858 17.278C67.1963 17.2979 67.2048 17.3189 67.211 17.3407C67.5472 18.3317 68.0099 19.2715 68.5868 20.1352C68.6977 20.3128 68.8236 20.5165 68.9244 20.6941C68.9546 20.7461 68.971 20.8056 68.9719 20.8664C68.9728 20.9271 68.9582 20.9871 68.9296 21.0401C68.9009 21.0931 68.8592 21.1374 68.8088 21.1683C68.7583 21.1993 68.7009 21.2159 68.6422 21.2164C66.8733 21.1641 61.4406 20.3859 60.0749 19.8531C58.437 19.2054 57.5551 14.8074 57.5551 14.7656C57.5377 14.6834 57.5508 14.5974 57.5919 14.5247C57.633 14.4521 57.6991 14.3982 57.7768 14.3739C59.9673 13.7138 62.2449 13.4176 64.5249 13.4964C64.5379 13.5012 64.5521 13.5012 64.5652 13.4964C64.6271 13.477 64.6932 13.4771 64.7551 13.4966C64.817 13.5162 64.8719 13.5542 64.9129 13.6061Z" fill="#896E6C"/>
<path d="M60.5587 8.92625C60.493 8.88492 60.4437 8.82065 60.4197 8.745C60.3956 8.66935 60.3985 8.58729 60.4276 8.51361C60.4574 8.43988 60.5107 8.37894 60.5785 8.34093C60.6464 8.30292 60.7247 8.29012 60.8006 8.30468C64.7078 9.123 68.4138 10.7557 71.6937 13.1037C74.9735 15.4517 77.7588 18.4659 79.8805 21.9636C79.9065 22.0133 79.9202 22.0689 79.9202 22.1255C79.9202 22.182 79.9065 22.2377 79.8805 22.2874C79.8578 22.3392 79.8228 22.3841 79.7787 22.4179C79.7346 22.4517 79.6829 22.4733 79.6285 22.4807C79.2079 22.5418 78.7833 22.5697 78.3585 22.5642C76.2634 22.5088 74.1787 22.2394 72.1346 21.7599C69.3024 21.1331 68.5515 19.4929 67.7552 17.7588C67.6695 17.5656 67.5788 17.3723 67.4881 17.179C67.4869 17.1704 67.4869 17.1616 67.4881 17.1529V17.1216C67.4125 16.9701 67.3117 16.7664 67.2059 16.5679C66.1375 14.6144 63.8798 11.0626 60.5587 8.92625Z" fill="#3C80B6"/>
<path d="M80.4398 22.8985C80.5809 23.1335 80.7119 23.3738 80.848 23.6141C80.8694 23.6544 80.8827 23.6988 80.887 23.7446C80.8913 23.7904 80.8866 23.8366 80.8732 23.8805C80.8605 23.9251 80.8392 23.9667 80.8107 24.0026C80.7821 24.0385 80.7468 24.068 80.7069 24.0894C80.3683 24.2712 80.0697 24.5238 79.83 24.8311C79.7997 24.8672 79.7626 24.8965 79.721 24.9171C79.6794 24.9378 79.6342 24.9494 79.5881 24.9512C79.5495 24.9522 79.5124 24.9675 79.4838 24.9943C79.4551 25.0211 79.4367 25.0578 79.4319 25.0975C79.4319 25.2594 79.3865 25.4161 79.3563 25.5624C79.3532 25.5917 79.3447 25.6201 79.3311 25.6459V25.6877C79.3197 25.7183 79.3062 25.748 79.2907 25.7765C79.2831 25.8091 79.2831 25.8432 79.2907 25.8758C79.3034 25.9236 79.3034 25.9741 79.2907 26.022C79.1483 26.575 78.9276 27.1031 78.6356 27.589C78.6059 27.6372 78.5649 27.6768 78.5164 27.7042C78.468 27.7316 78.4136 27.7459 78.3584 27.7457C78.3351 27.7505 78.3112 27.7505 78.2879 27.7457C78.2222 27.731 78.1627 27.6954 78.1175 27.6439C78.0723 27.5924 78.0438 27.5275 78.0359 27.4584C77.8807 26.1448 77.4692 24.8777 76.8264 23.7342C76.7295 23.6188 76.6155 23.52 76.4887 23.4417C76.4302 23.399 76.3867 23.3376 76.365 23.2669C76.3433 23.1962 76.3446 23.1201 76.3686 23.0502C76.3926 22.9803 76.438 22.9205 76.498 22.8799C76.5579 22.8393 76.629 22.8201 76.7004 22.8254C77.8391 22.9642 78.9911 22.9361 80.1223 22.7418C80.1841 22.7339 80.2468 22.7445 80.303 22.7722C80.3593 22.8 80.4067 22.8438 80.4398 22.8985Z" fill="#896E6C"/>
<path d="M56.3758 19.1223C55.9795 19.3234 55.5467 19.4355 55.1058 19.4514C54.9294 19.4514 54.753 19.4984 54.6018 19.5297C53.4089 19.7522 52.2872 20.276 51.3362 21.0549C51.2785 21.1057 51.2053 21.1335 51.1296 21.1333C51.0565 21.1321 50.9858 21.1065 50.928 21.0601C50.8694 21.0138 50.8276 20.9485 50.8094 20.8746C50.7911 20.8006 50.7974 20.7225 50.8272 20.6527C51.7558 18.4095 53.3852 16.5551 55.4535 15.3877C55.501 15.362 55.5537 15.3486 55.6072 15.3486C55.6607 15.3486 55.7135 15.362 55.761 15.3877C55.808 15.4139 55.8484 15.4512 55.879 15.4966C55.9096 15.5419 55.9296 15.5941 55.9373 15.6488C56.0346 16.6863 56.215 17.7136 56.4766 18.7201C56.4787 18.7339 56.4787 18.748 56.4766 18.7619C56.4952 18.8256 56.4955 18.8936 56.4776 18.9576C56.4597 19.0215 56.4244 19.0787 56.3758 19.1223Z" fill="#896E6C"/>
<path d="M56.5772 7.68822H56.6075C59.2532 8.14787 61.7781 9.77753 64.1114 12.5824C64.1514 12.6327 64.1772 12.6934 64.1861 12.7579C64.195 12.8224 64.1866 12.8882 64.1618 12.9481C64.1363 13.0076 64.0946 13.0581 64.0417 13.0933C63.9889 13.1286 63.9273 13.1471 63.8645 13.1465C61.19 13.0955 58.5352 13.6295 56.0733 14.7135H55.9926C55.9634 14.7192 55.9358 14.7317 55.912 14.7501C55.8909 14.7732 55.8651 14.7911 55.8364 14.8023C53.441 15.979 51.543 18.0224 50.4995 20.5479C50.48 20.5927 50.4506 20.632 50.4138 20.6628C50.3904 20.6879 50.3731 20.7183 50.3634 20.7516C50.3634 20.8091 50.3382 20.8613 50.3281 20.9136V21.0337V21.0755C50.2273 21.3471 50.1467 21.5978 50.0812 21.7911C50.0655 21.8313 50.0655 21.8762 50.0812 21.9164C50.1038 21.9859 50.1038 22.0611 50.0812 22.1306L50.0509 22.2768C50.041 22.3281 50.02 22.3764 49.9895 22.4181C49.9589 22.4597 49.9196 22.4936 49.8745 22.5171C49.8303 22.539 49.7824 22.5515 49.7334 22.5537C49.6811 22.5528 49.6296 22.5403 49.5822 22.5171C48.1157 21.7493 44.6837 19.613 44.5426 16.3014C44.4967 15.1957 44.6773 14.0924 45.0725 13.0643C45.4677 12.0361 46.0686 11.1064 46.8357 10.3364C48.9523 8.28367 52.3187 7.35393 56.5772 7.68822Z" fill="#3C80B6"/>
<g style="mix-blend-mode:multiply" opacity="0.2">
<path d="M56.5772 7.68822H56.6075C59.2532 8.14787 61.7781 9.77753 64.1114 12.5824C64.1514 12.6327 64.1772 12.6934 64.1861 12.7579C64.195 12.8224 64.1866 12.8882 64.1618 12.9481C64.1363 13.0076 64.0946 13.0581 64.0417 13.0933C63.9889 13.1286 63.9273 13.1471 63.8645 13.1465C61.19 13.0955 58.5352 13.6295 56.0733 14.7135H55.9926C55.9634 14.7192 55.9358 14.7317 55.912 14.7501C55.8909 14.7732 55.8651 14.7911 55.8364 14.8023C53.441 15.979 51.543 18.0224 50.4995 20.5479C50.48 20.5927 50.4506 20.632 50.4138 20.6628C50.3904 20.6879 50.3731 20.7183 50.3634 20.7516C50.3634 20.8091 50.3382 20.8613 50.3281 20.9136V21.0337V21.0755C50.2273 21.3471 50.1467 21.5978 50.0812 21.7911C50.0655 21.8313 50.0655 21.8762 50.0812 21.9164C50.1038 21.9859 50.1038 22.0611 50.0812 22.1306L50.0509 22.2768C50.041 22.3281 50.02 22.3764 49.9895 22.4181C49.9589 22.4597 49.9196 22.4936 49.8745 22.5171C49.8303 22.539 49.7824 22.5515 49.7334 22.5537C49.6811 22.5528 49.6296 22.5403 49.5822 22.5171C48.1157 21.7493 44.6837 19.613 44.5426 16.3014C44.4967 15.1957 44.6773 14.0924 45.0725 13.0643C45.4677 12.0361 46.0686 11.1064 46.8357 10.3364C48.9523 8.28367 52.3187 7.35393 56.5772 7.68822Z" fill="#211613"/>
</g>
<path d="M84.0279 28.3514C83.9861 28.3583 83.9436 28.3583 83.9019 28.3514C83.8277 28.3179 83.7678 28.2575 83.7335 28.1816C83.6992 28.1056 83.6928 28.0193 83.7154 27.9388C83.9125 27.2871 83.9212 26.5898 83.7406 25.933C83.413 24.7108 82.6672 23.9482 81.75 23.8803H81.5736C81.513 23.8818 81.4531 23.8667 81.3999 23.8364C81.3468 23.8061 81.3024 23.7618 81.2712 23.7079C76.0451 14.0239 67.2964 8.22611 56.6427 7.37471C55.739 7.30129 54.8317 7.28734 53.9263 7.33293C53.8635 7.33689 53.8008 7.32169 53.7462 7.28921C53.6916 7.25672 53.6473 7.20837 53.6189 7.15011C53.5899 7.09129 53.5778 7.02507 53.584 6.95932C53.5903 6.89357 53.6146 6.83107 53.6542 6.77926C54.6621 5.52567 57.2827 2.48572 60.5584 1.35227C64.8925 -0.146811 71.3079 0.981418 77.3 4.2982C83.8263 7.90749 85.6657 14.797 86.1495 17.5915C86.6645 21.2379 86.0281 24.9591 84.3353 28.1999C84.3024 28.252 84.2563 28.2936 84.2021 28.3203C84.1479 28.347 84.0876 28.3578 84.0279 28.3514Z" fill="#3C80B6"/>
<path d="M83.5291 30.4358C83.5022 30.3806 83.4903 30.3189 83.4947 30.2572C83.4991 30.1955 83.5198 30.1363 83.5543 30.0859C84.6539 28.4769 85.4774 26.6834 85.9884 24.7842C86.0073 24.7065 86.0542 24.6392 86.1195 24.5962C86.5989 24.2403 87.1591 24.0191 87.7455 23.9542C88.3319 23.8892 88.9245 23.9826 89.4658 24.2253C90.7055 24.8103 91.5421 26.1893 91.7588 28.0174C92.0864 30.7858 93.5529 31.5693 94.1677 31.7782C94.5249 31.8992 94.9032 31.9384 95.2764 31.8931C95.3396 31.884 95.404 31.8946 95.4614 31.9234C95.5188 31.9522 95.5667 31.998 95.599 32.055C95.6335 32.1112 95.6519 32.1765 95.6519 32.2431C95.6519 32.3097 95.6335 32.3749 95.599 32.4311C95.0378 33.2253 94.2975 33.8648 93.4426 34.2937C92.5878 34.7226 91.6445 34.9278 90.6954 34.8913C90.4211 34.8924 90.1469 34.8784 89.874 34.8495C87.4701 34.6092 87.1879 33.3609 86.956 32.358C86.7897 31.6111 86.6335 31.1096 86.054 30.9425C85.326 30.7557 84.5811 30.6489 83.8315 30.6239C83.769 30.6257 83.7074 30.6089 83.6538 30.5756C83.6002 30.5423 83.557 30.4938 83.5291 30.4358Z" fill="#896E6C"/>
<path d="M77.7487 34.6874C78.6861 33.5844 79.4745 32.3543 80.0921 31.0311C80.1209 30.974 80.1644 30.9261 80.2177 30.893C80.2711 30.8598 80.3323 30.8425 80.3945 30.8431C80.8684 30.832 81.3316 30.6953 81.7401 30.4461C81.7815 30.4228 81.8274 30.4088 81.8744 30.4052C81.9215 30.4016 81.9688 30.4085 82.0131 30.4253C82.0574 30.4421 82.0978 30.4684 82.1315 30.5027C82.1653 30.5369 82.1916 30.5782 82.2088 30.6237C82.3353 31.0065 82.3683 31.4157 82.305 31.8149C82.2417 32.2141 82.084 32.5909 81.8459 32.9115C81.152 34.1286 80.2079 35.1723 79.0809 35.9686C77.9538 36.7648 76.6713 37.294 75.3247 37.5185H75.2692C75.2025 37.5187 75.1374 37.4978 75.0824 37.4586C75.0275 37.4194 74.9854 37.3637 74.9618 37.2991C74.9351 37.2246 74.9341 37.1428 74.9589 37.0676C74.9837 36.9924 75.0328 36.9284 75.0979 36.8864C76.0781 36.2881 76.9707 35.5476 77.7487 34.6874Z" fill="#896E6C"/>
<path d="M81.4881 80.548C82.1128 80.3879 82.7049 80.1138 83.2368 79.7384C83.77 79.42 84.2758 79.0548 84.7487 78.6467C84.8005 78.5976 84.8662 78.567 84.9361 78.5594C85.006 78.5519 85.0763 78.5679 85.1368 78.6049C85.3098 78.7076 85.4584 78.849 85.5717 79.019C85.6851 79.1889 85.7603 79.3829 85.7919 79.5869C85.928 80.4279 85.4391 81.812 83.6652 83.1805C82.3751 84.173 81.5083 84.408 80.9791 84.408C80.7889 84.4129 80.5998 84.3755 80.4247 84.2983C80.2812 84.23 80.1584 84.1225 80.0696 83.9871C79.9808 83.8518 79.9293 83.6939 79.9208 83.5305C79.8553 82.747 81.1454 80.8927 81.2916 80.6838C81.3378 80.614 81.4082 80.5654 81.4881 80.548Z" fill="#5A4F4A"/>
<path d="M65.2001 62.2353C65.1889 62.0176 65.162 61.8011 65.1195 61.5876C65.1055 61.5021 65.1232 61.4143 65.169 61.3417C65.2148 61.2691 65.2852 61.217 65.3664 61.1959C67.7703 60.59 71.8675 59.3573 74.9013 58.4014C76.5443 57.8791 77.9251 57.4299 79.064 57.0591C79.1339 57.0354 79.2095 57.0364 79.2788 57.0619C79.3481 57.0874 79.4072 57.136 79.4471 57.2001C79.6688 57.5709 80.7523 59.4879 80.455 60.9191C80.208 62.0473 79.951 62.883 79.7948 63.4367C79.7041 63.7449 79.6335 63.959 79.6083 64.1209C79.4946 65.0464 79.6036 65.9867 79.9258 66.8579L80.2484 67.584V67.6101C82.9597 73.643 84.4413 77.153 84.653 78.0566C84.6649 78.1142 84.6629 78.1739 84.6471 78.2304C84.6312 78.287 84.6021 78.3385 84.5623 78.3805C83.6673 79.1468 82.6602 79.7604 81.5788 80.1982H81.5032C81.4547 80.199 81.4067 80.1881 81.3629 80.1663C81.3192 80.1446 81.281 80.1126 81.2512 80.0728C80.5356 79.1849 77.275 74.0765 75.9093 71.9193C75.885 71.8895 75.8693 71.8533 75.8639 71.8148C75.7934 71.5223 75.7379 71.4805 75.6925 71.444H75.6623C75.5997 71.4185 75.5466 71.3727 75.5111 71.3134C74.7703 70.1434 74.0547 69.0047 73.4298 68.0071C73.388 67.948 73.3655 67.8766 73.3655 67.8033C73.3655 67.7301 73.388 67.6587 73.4298 67.5996L75.5968 64.6224L75.6623 64.5336C75.6758 64.5156 75.6857 64.495 75.6912 64.473C75.6968 64.451 75.6979 64.4281 75.6946 64.4056C75.6913 64.3831 75.6836 64.3615 75.672 64.3422C75.6604 64.3229 75.6451 64.3063 75.627 64.2933C75.6102 64.2795 75.5907 64.2695 75.5698 64.2641C75.549 64.2587 75.5272 64.258 75.5061 64.262C75.4851 64.2639 75.4648 64.2705 75.4466 64.2813C75.4283 64.2921 75.4125 64.3069 75.4003 64.3246C75.0424 64.8156 72.2908 68.5973 71.928 69.1196C71.5651 69.6419 69.4082 72.358 69.4082 72.3842C69.3902 72.4129 69.3806 72.4465 69.3806 72.4808C69.3806 72.5151 69.3902 72.5486 69.4082 72.5774C69.4246 72.6083 69.45 72.633 69.4808 72.648C69.5115 72.663 69.5461 72.6676 69.5795 72.661C71.7214 72.2484 74.347 71.8044 75.234 71.7521C75.2917 71.7492 75.3491 71.7622 75.4005 71.7897C75.4518 71.8172 75.4952 71.8583 75.5262 71.9088L75.5817 71.9976C75.6057 72.0378 75.6228 72.082 75.6321 72.1282C75.7685 73.3086 75.7938 74.4999 75.7077 75.6853C75.6985 75.7487 75.6724 75.8082 75.6323 75.8571C75.5922 75.9061 75.5398 75.9424 75.4809 75.9621C74.1 76.4009 65.6335 77.9052 64.167 77.832C62.8214 77.7641 62.1511 76.9284 62.1511 75.2883C62.1511 74.2959 63.3455 69.5793 64.6407 64.6276C65.1195 62.6427 65.2001 62.3137 65.2001 62.2353Z" fill="#3C80B6"/>
<path d="M44.4419 38.7667C44.4471 38.6775 44.486 38.5941 44.5501 38.5345C44.6143 38.4748 44.6985 38.4438 44.7846 38.4481C47.0221 38.4846 59.5556 39.2942 65.8753 39.7173C65.9013 39.7205 65.9277 39.7163 65.9516 39.7053C65.9756 39.6943 65.9962 39.6768 66.0114 39.6547C66.0413 39.616 66.0787 39.5844 66.1213 39.5619C66.1639 39.5394 66.2106 39.5265 66.2583 39.5241C68.4262 39.4399 70.5661 38.9882 72.5931 38.1869C72.6714 38.1538 72.759 38.1538 72.8373 38.1871C72.9155 38.2203 72.978 38.284 73.0114 38.3645L73.2986 39.0174L79.0539 52.248C79.2403 52.6711 79.9156 53.2404 80.9286 54.0552C81.3066 54.3582 81.8256 54.7761 82.1331 55.0999C82.1729 55.1387 82.2026 55.1873 82.2193 55.2412C82.2361 55.2951 82.2393 55.3525 82.2288 55.4081C82.2201 55.464 82.1974 55.5166 82.1629 55.5606C82.1284 55.6046 82.0833 55.6385 82.0323 55.6588C79.326 56.8184 65.6838 60.9709 63.7839 61.2164H63.7435C63.6852 61.2167 63.6278 61.201 63.5773 61.1707C63.5268 61.1404 63.485 61.0966 63.4563 61.044C62.8868 59.9993 61.1129 54.7395 60.2561 51.7466C59.788 50.0684 59.4907 48.344 59.3692 46.6016C59.365 46.5531 59.3709 46.5041 59.3865 46.4582C59.4022 46.4122 59.4272 46.3703 59.4599 46.3352C59.494 46.3015 59.5344 46.2753 59.5786 46.2582C59.6227 46.2412 59.6698 46.2336 59.7169 46.236C64.5499 46.518 68.9948 46.7583 70.2446 46.8262H70.3051C70.347 46.8262 70.3873 46.8094 70.4174 46.7791C70.4475 46.7489 70.4651 46.7077 70.4664 46.6643C70.4685 46.6424 70.4659 46.6204 70.459 46.5996C70.452 46.5789 70.4408 46.56 70.4261 46.5442C70.3958 46.5106 70.3544 46.4901 70.3102 46.4867C62.3274 46.0688 46.7953 45.1809 45.1524 44.8153C45.1043 44.8033 45.0591 44.7808 45.02 44.7493C44.9809 44.7177 44.9487 44.6779 44.9257 44.6324C44.6204 43.6516 44.4607 42.6283 44.452 41.5977C44.3816 40.6556 44.3782 39.7093 44.4419 38.7667Z" fill="#3C80B6"/>
<path d="M35.3807 40.2919C35.9703 39.9942 37.588 39.7278 39.2259 39.6547C39.2649 39.6525 39.302 39.6361 39.3306 39.6084C39.3592 39.5807 39.3774 39.5435 39.3821 39.5032C39.3847 39.4623 39.3735 39.4218 39.3506 39.3885C39.3276 39.3552 39.2942 39.3311 39.2561 39.3204C38.1036 39.0616 37.0262 38.5247 36.1114 37.7534C36.0655 37.7113 36.0321 37.6565 36.0151 37.5955C35.9982 37.5344 35.9983 37.4696 36.0156 37.4087C36.0314 37.3474 36.0633 37.292 36.1078 37.2486C36.1524 37.2053 36.2077 37.1756 36.2676 37.1632C36.9449 37.0794 37.6315 37.1434 38.2835 37.3512C40.1078 37.8213 41.6953 38.2183 41.7104 38.2183C41.7326 38.2255 41.7562 38.2268 41.7791 38.2223C41.8019 38.2177 41.8234 38.2074 41.8414 38.1921C41.8608 38.1797 41.8772 38.1629 41.8894 38.143C41.9016 38.1232 41.9093 38.1007 41.912 38.0772C42.0078 37.0161 42.2611 35.9766 42.6629 34.9955C42.6919 34.947 42.7319 34.9065 42.7792 34.8774C42.8266 34.8483 42.8801 34.8315 42.935 34.8284C42.9907 34.8262 43.0459 34.839 43.0954 34.8656C43.1448 34.8921 43.1868 34.9315 43.2173 34.9798C43.5801 35.5492 43.7817 37.3303 43.9329 38.9965V39.0958C43.9345 39.1162 43.9403 39.1361 43.9498 39.1541C43.9594 39.1721 43.9725 39.1878 43.9883 39.2002C44.0204 39.233 44.0458 39.272 44.0631 39.3151C44.0804 39.3581 44.0893 39.4043 44.0891 39.451C44.0617 40.9771 44.1764 42.5024 44.4318 44.0057C44.4492 44.0819 44.4407 44.162 44.4076 44.2325C44.3745 44.3029 44.319 44.3593 44.2504 44.3922C44.2291 44.4017 44.2102 44.416 44.1949 44.434C43.827 44.8832 43.187 45.0242 42.4865 45.1757L41.9523 45.2958C40.6058 45.6655 39.226 45.8896 37.835 45.9644C37.623 45.9718 37.411 45.9489 37.205 45.8965C37.1565 45.8815 37.1118 45.8555 37.0743 45.8202C37.0367 45.785 37.0074 45.7414 36.9883 45.6928C36.9706 45.6433 36.9641 45.5902 36.9694 45.5377C36.9746 45.4851 36.9915 45.4345 37.0185 45.3898C37.2957 44.9354 38.354 44.2668 39.2057 43.8646C39.2417 43.8485 39.271 43.8198 39.2885 43.7835C39.306 43.7472 39.3106 43.7056 39.3015 43.6661C39.292 43.6275 39.2696 43.5936 39.2381 43.5707C39.2067 43.5477 39.1684 43.5371 39.1301 43.5408C37.9691 43.6632 36.7973 43.6192 35.6478 43.4102C35.5859 43.3908 35.5307 43.3535 35.4887 43.3025C35.4467 43.2516 35.4197 43.1893 35.4109 43.1229C35.4047 43.0558 35.417 42.9882 35.4464 42.9281C35.4759 42.868 35.5212 42.8178 35.5772 42.7834C36.6753 42.3055 37.832 41.9874 39.0142 41.838C39.0527 41.831 39.0876 41.8101 39.1128 41.7791C39.1379 41.748 39.1517 41.7088 39.1517 41.6682C39.1517 41.6277 39.1379 41.5885 39.1128 41.5574C39.0876 41.5264 39.0527 41.5055 39.0142 41.4985C37.7878 41.4991 36.5694 41.2945 35.4059 40.8926C35.352 40.8634 35.3069 40.8195 35.2754 40.7657C35.2439 40.7118 35.2272 40.65 35.2272 40.587C35.2272 40.524 35.2439 40.4623 35.2754 40.4084C35.3069 40.3545 35.352 40.3106 35.4059 40.2815L35.3807 40.2919Z" fill="#FCE4DF"/>
<path d="M70.3153 47.1449C70.4489 47.1449 70.5771 47.0898 70.6716 46.9919C70.7661 46.8939 70.8192 46.7611 70.8192 46.6225C70.8192 46.484 70.7661 46.3511 70.6716 46.2532C70.5771 46.1552 70.4489 46.1002 70.3153 46.1002C60.9214 45.6092 46.7148 44.7683 45.213 44.434C44.9398 43.5094 44.7956 42.549 44.7846 41.5821C44.725 40.6638 44.725 39.7424 44.7846 38.8242C46.8458 38.8555 58.2101 39.5816 65.8552 40.0934C65.9275 40.115 66.0036 40.1196 66.0779 40.1067C66.1521 40.0939 66.2226 40.064 66.2842 40.0191C66.3459 39.9743 66.397 39.9158 66.434 39.8478C66.4709 39.7798 66.4926 39.7041 66.4977 39.6263C66.5027 39.5484 66.4908 39.4704 66.4629 39.398C66.435 39.3255 66.3918 39.2604 66.3364 39.2076C66.2811 39.1547 66.215 39.1153 66.1431 39.0924C66.0712 39.0694 65.9952 39.0634 65.9207 39.0749C44.6233 37.6437 44.3411 37.7952 44.1899 37.8735C43.8775 38.0302 43.812 38.3959 43.7817 39.1428C43.7817 39.195 43.6709 44.7004 44.7141 45.3637C44.9156 45.4943 45.2483 45.7085 57.8825 46.4711C64.0661 46.8419 70.2447 47.171 70.3102 47.171L70.3153 47.1449Z" fill="#211613"/>
<path d="M37.9661 46.654C39.3658 46.5887 40.7538 46.3591 42.1036 45.9698L42.6076 45.8496C43.3736 45.6825 44.1698 45.5101 44.6788 44.8886C44.7381 44.841 44.7863 44.7804 44.8201 44.7111C44.8538 44.6417 44.8723 44.5655 44.874 44.4879C44.8758 44.4102 44.8608 44.3332 44.8302 44.2623C44.7996 44.1914 44.7541 44.1285 44.6971 44.0781C44.6401 44.0278 44.573 43.9912 44.5006 43.9711C44.4282 43.951 44.3525 43.9479 44.2788 43.962C44.2051 43.9761 44.1354 44.007 44.0747 44.0526C44.014 44.0981 43.9639 44.1571 43.9279 44.2252C43.6356 44.5856 43.0359 44.7162 42.4161 44.852C42.2296 44.8938 42.0482 44.9304 41.8668 44.9774C39.8509 45.4997 37.8351 45.7504 37.2908 45.5833C37.8772 44.9815 38.5725 44.5058 39.3369 44.1834C39.4412 44.1327 39.5256 44.0465 39.5761 43.9391C39.6265 43.8317 39.6399 43.7096 39.614 43.5932C39.5836 43.4802 39.5173 43.3812 39.4259 43.312C39.3344 43.2428 39.2232 43.2076 39.1101 43.2119C37.988 43.3331 36.8551 43.2927 35.7436 43.0918C36.8056 42.6335 37.923 42.3277 39.0647 42.1829C39.1727 42.1488 39.2665 42.0781 39.3312 41.9821C39.3958 41.8862 39.4274 41.7705 39.421 41.6537C39.4146 41.5369 39.3706 41.4256 39.2959 41.3379C39.2212 41.2501 39.1203 41.1908 39.0093 41.1696C37.8304 41.1669 36.6591 40.9748 35.537 40.6003C36.7378 40.2202 37.9856 40.0231 39.2411 40.0152C39.3504 39.9969 39.4508 39.9417 39.5268 39.8583C39.6028 39.7749 39.6502 39.6679 39.6617 39.5538C39.6731 39.4397 39.648 39.3248 39.5902 39.227C39.5324 39.1291 39.4452 39.0537 39.3419 39.0124C38.2371 38.7664 37.2021 38.2586 36.3182 37.529C36.9436 37.4587 37.5763 37.5209 38.1778 37.7118C39.9971 38.1819 41.5946 38.5788 41.6097 38.5841C41.6769 38.5995 41.7465 38.6006 41.8141 38.5871C41.8817 38.5736 41.9459 38.5459 42.0028 38.5057C42.0602 38.4657 42.1084 38.4132 42.1441 38.3518C42.1798 38.2905 42.2021 38.2218 42.2095 38.1505C42.3072 37.1363 42.5465 36.1422 42.92 35.1994C43.2829 35.7687 43.4996 38.1296 43.5853 39.0594V39.1586C43.6005 39.2926 43.6651 39.4152 43.7656 39.5009C43.8661 39.5866 43.9947 39.6286 44.1245 39.6183C44.2537 39.6025 44.3721 39.5355 44.4547 39.4313C44.5374 39.3271 44.578 39.1939 44.568 39.0594V38.9654C44.3059 36.0664 44.064 34.1599 42.9402 34.0973C42.658 34.0973 41.8264 34.0294 41.3174 37.4558C40.6976 37.3044 39.609 37.0275 38.4247 36.7194C37.1346 36.3851 36.1216 36.3955 35.5673 36.7194C35.4693 36.7735 35.3831 36.8477 35.3137 36.9375C35.2444 37.0273 35.1935 37.1308 35.1641 37.2417C35.0431 37.764 35.8041 38.5423 36.9834 39.1586C34.388 39.5504 34.4081 40.313 34.4132 40.6003C34.4132 41.1539 34.9776 41.5666 36.051 41.8382C35.0431 42.2142 34.5392 42.6739 34.5896 43.2067C34.65 43.8753 35.5169 44.2513 37.1648 44.2827C36.2426 45.0244 36.2022 45.5989 36.3081 45.9332C36.3786 46.1578 36.5348 46.654 37.9661 46.654Z" fill="#211613"/>
<path d="M80.3944 31.2033C81.2686 31.1664 82.0984 30.7941 82.7226 30.1587C83.3069 29.6332 83.7406 28.9514 83.9761 28.1877C84.2116 27.424 84.24 26.6079 84.0581 25.8286C83.6902 24.4653 82.8335 23.6035 81.7702 23.5303C80.7068 23.4572 79.5427 24.2877 78.9732 25.6562C78.9288 25.7194 78.8986 25.7922 78.885 25.8691C78.8713 25.946 78.8745 26.0251 78.8943 26.1006C78.9141 26.176 78.95 26.2459 78.9993 26.3051C79.0486 26.3643 79.1101 26.4112 79.1793 26.4424C79.2485 26.4737 79.3235 26.4884 79.3989 26.4856C79.4743 26.4827 79.5482 26.4624 79.615 26.426C79.6818 26.3897 79.7398 26.3382 79.7849 26.2755C79.8299 26.2128 79.8608 26.1404 79.8753 26.0636C80.2784 25.0921 80.9991 24.4966 81.7047 24.5489C82.4102 24.6011 82.8537 25.16 83.1107 26.1159C83.2369 26.7134 83.2057 27.3352 83.0204 27.916C82.8351 28.4967 82.5025 29.0152 82.0574 29.417C81.367 30.0751 80.5455 30.3572 79.9559 30.1273C79.8328 30.0829 79.6979 30.0897 79.5795 30.1462C79.4611 30.2027 79.3684 30.3045 79.3209 30.4303C79.2781 30.5579 79.2846 30.6977 79.3391 30.8204C79.3936 30.9431 79.4918 31.0392 79.6132 31.0884C79.865 31.1741 80.1295 31.213 80.3944 31.2033Z" fill="#211613"/>
<path d="M62.7307 31.5167C62.8189 31.5173 62.9058 31.4939 62.9826 31.4488C63.0927 31.3775 63.1719 31.2649 63.2038 31.1345C63.2357 31.0041 63.2179 30.866 63.154 30.7489C62.843 30.2141 62.5685 29.6573 62.3325 29.0827C62.584 29.0387 62.8385 29.016 63.0935 29.0148C63.2205 29.0152 63.3429 28.9659 63.4363 28.8768C63.5298 28.7877 63.5873 28.6654 63.5975 28.5342L63.7033 26.6747C63.7073 26.6061 63.6982 26.5374 63.6765 26.4725C63.6549 26.4075 63.6211 26.3476 63.5771 26.2962C63.5331 26.2448 63.4798 26.2029 63.4201 26.1728C63.3605 26.1428 63.2958 26.1252 63.2296 26.1211C63.1634 26.1169 63.0971 26.1264 63.0344 26.1488C62.9718 26.1713 62.914 26.2063 62.8644 26.2519C62.8148 26.2975 62.7743 26.3528 62.7453 26.4145C62.7163 26.4763 62.6994 26.5435 62.6954 26.612L62.6198 28.0119C62.1778 27.9916 61.7457 28.1509 61.4153 28.4559C61.249 28.67 60.9971 28.9782 62.3023 31.2712C62.3477 31.3465 62.4109 31.4085 62.4858 31.4515C62.5608 31.4944 62.645 31.5169 62.7307 31.5167Z" fill="#211613"/>
<path d="M50.1972 22.402C50.3005 22.4005 50.4009 22.3661 50.4848 22.3035C50.5686 22.2409 50.6318 22.1531 50.6659 22.052C52.4499 16.4056 56.9805 13.6947 64.5198 13.8306C64.6534 13.8306 64.7816 13.7755 64.8761 13.6776C64.9706 13.5796 65.0237 13.4468 65.0237 13.3082C65.0237 13.1697 64.9706 13.0368 64.8761 12.9389C64.7816 12.8409 64.6534 12.7859 64.5198 12.7859C56.6076 12.671 51.6285 15.6691 49.7184 21.7073C49.6812 21.8354 49.6928 21.9736 49.751 22.0931C49.8091 22.2127 49.9093 22.3045 50.0309 22.3497C50.0823 22.3789 50.1389 22.3967 50.1972 22.402Z" fill="#211613"/>
<path d="M81.2914 24.5911C81.3749 24.587 81.4561 24.5614 81.5277 24.5167C81.5993 24.472 81.659 24.4095 81.7015 24.3349C81.744 24.2603 81.7679 24.1759 81.7711 24.0893C81.7743 24.0027 81.7567 23.9167 81.7198 23.8389C76.4585 13.8573 67.5535 7.88182 56.6528 7.00953C51.0135 6.56555 47.9645 8.33102 46.3972 9.89278C45.5599 10.728 44.9026 11.7373 44.4683 12.8545C44.034 13.9716 43.8327 15.1713 43.8774 16.3749C44.0437 20.9087 49.5671 23.3323 49.804 23.4367C49.918 23.4595 50.036 23.4408 50.1383 23.3838C50.2405 23.3268 50.3206 23.235 50.365 23.1238C50.4095 23.0127 50.4155 22.889 50.3821 22.7738C50.3488 22.6586 50.2781 22.5588 50.182 22.4913C50.1265 22.4913 45.0063 20.214 44.8652 16.3383C44.8219 15.2796 44.9948 14.2233 45.3726 13.2385C45.7503 12.2538 46.3245 11.3629 47.0574 10.624C49.0984 8.5974 52.3792 7.699 56.557 8.0124C67.1402 8.85335 75.7378 14.646 80.8379 24.309C80.8808 24.395 80.946 24.4669 81.0261 24.5167C81.1062 24.5665 81.198 24.5923 81.2914 24.5911Z" fill="#211613"/>
<path d="M78.3282 23.2429C79.0717 23.2716 79.815 23.1781 80.5305 22.9661C80.6282 22.9029 80.7021 22.807 80.7399 22.6943C80.7777 22.5815 80.7771 22.4588 80.7382 22.3465C80.6993 22.2341 80.6245 22.139 80.5262 22.0768C80.4279 22.0147 80.312 21.9893 80.1978 22.005C79.0186 22.4437 75.7378 22.2087 72.2252 21.4252C69.5492 20.835 68.8638 19.3359 68.0726 17.6122C67.8861 17.2048 67.6946 16.7817 67.4678 16.3743C66.1122 13.8828 62.3526 7.98569 56.6931 7.01416C56.5646 6.99581 56.4342 7.02956 56.329 7.10837C56.2239 7.18718 56.1521 7.30498 56.1287 7.43725C56.111 7.57047 56.1436 7.70565 56.2196 7.81462C56.2956 7.92359 56.4093 7.99796 56.5369 8.02226C61.768 8.92066 65.326 14.5096 66.6161 16.8757C66.8227 17.2518 67.0092 17.6592 67.1906 18.051C67.9768 19.7746 68.8738 21.7073 72.0236 22.4228C74.0935 22.9134 76.2055 23.1881 78.3282 23.2429Z" fill="#211613"/>
<path d="M82.8284 31.2976C82.9012 31.2976 82.9732 31.2812 83.0393 31.2497C83.1054 31.2181 83.1641 31.1721 83.2114 31.1148C84.675 29.2095 85.7466 27.0137 86.3603 24.6628C86.9739 22.3119 87.1166 19.8556 86.7795 17.4454C86.2755 14.5517 84.3756 7.42195 77.5923 3.67164C71.449 0.27128 64.8371 -0.872619 60.3316 0.683919C55.917 2.20912 52.7471 6.8265 52.611 7.01976C52.5646 7.12994 52.5562 7.25333 52.5874 7.36913C52.6186 7.48492 52.6874 7.58602 52.7821 7.65537C52.8769 7.72472 52.9918 7.75808 53.1075 7.74981C53.2232 7.74155 53.3326 7.69216 53.4173 7.60999C53.4475 7.56298 56.5419 3.07096 60.6441 1.65023C64.8975 0.182487 71.2273 1.30027 77.1286 4.57004C83.5289 8.11143 85.3331 14.8808 85.8119 17.6282C86.1277 19.8936 85.9923 22.2019 85.4142 24.411C84.8361 26.62 83.8274 28.6829 82.4505 30.4723C82.3968 30.5481 82.3639 30.6376 82.3552 30.7312C82.3464 30.8248 82.3623 30.9191 82.401 31.0041C82.4397 31.0892 82.4998 31.1618 82.5751 31.2144C82.6503 31.267 82.7378 31.2975 82.8284 31.3028V31.2976Z" fill="#211613"/>
<path d="M59.4448 32.9793C59.1726 33.2248 60.367 36.9699 63.8091 37.1318C67.2511 37.2937 68.5362 33.4755 68.2792 33.0315C68.0222 32.5876 59.858 32.6032 59.4448 32.9793Z" fill="#F29C97"/>
<path d="M64.0208 37.644C64.8773 37.6282 65.7146 37.3784 66.4481 36.9198C67.1817 36.4613 67.7855 35.8102 68.1986 35.0324C68.5312 34.437 69.015 33.293 68.7026 32.7655C68.5615 32.5304 68.2944 32.4469 67.8811 32.3842C66.6263 32.1909 59.7674 32.0186 59.1273 32.5984C58.8703 32.8334 58.8552 33.2513 59.0769 33.9146C59.4148 34.9529 60.0445 35.8627 60.885 36.5272C61.7256 37.1918 62.7386 37.5807 63.794 37.644H64.0208ZM67.7954 33.3923C67.5998 34.1514 67.2218 34.8468 66.6968 35.4137C66.3363 35.8229 65.8923 36.1435 65.3971 36.3522C64.9019 36.5609 64.368 36.6525 63.8343 36.6203C61.3145 36.5054 60.1504 34.1967 59.9387 33.361C62.5542 33.1518 65.1816 33.1623 67.7954 33.3923Z" fill="#211613"/>
<path d="M63.6025 61.8851C63.9101 61.8702 64.2155 61.8248 64.5147 61.7493C66.6162 61.2896 71.4744 59.8323 74.9971 58.725C82.7933 56.27 82.9294 55.9984 83.0604 55.7581C83.3578 55.1366 82.6875 54.5934 81.3571 53.5174C80.7362 53.0684 80.1709 52.5421 79.6738 51.9504L73.4348 37.6699L72.5377 38.0878L78.7818 52.3735C78.9985 52.8697 79.6688 53.4181 80.7523 54.3113C81.1252 54.609 81.6393 55.0217 81.9316 55.3089C79.321 56.4267 65.6738 60.6001 63.789 60.8404C63.2447 59.7957 61.4909 54.6769 60.614 51.6161C60.1071 49.7846 59.8044 47.8988 59.7119 45.9958C59.7079 45.8573 59.651 45.7261 59.5537 45.6311C59.4563 45.5361 59.3265 45.485 59.1929 45.4892C59.0592 45.4933 58.9326 45.5524 58.8409 45.6532C58.7493 45.7541 58.7 45.8886 58.704 46.0272C58.7988 48.0191 59.1168 49.9928 59.6515 51.9086C60.105 53.4756 62.4837 61.1172 63.1792 61.7336C63.2365 61.7867 63.3035 61.8274 63.3762 61.8534C63.4489 61.8794 63.5258 61.8902 63.6025 61.8851Z" fill="#211613"/>
<path d="M69.0454 58.0355C69.0983 58.0341 69.1509 58.0253 69.2016 58.0094C69.3234 57.9632 69.4233 57.8701 69.4806 57.7494C69.5379 57.6288 69.548 57.4899 69.509 57.3617C68.9748 55.7007 66.5306 48.5657 66.4852 48.4821C66.4258 48.3784 66.3335 48.2992 66.224 48.258C66.1146 48.2167 65.9948 48.2161 65.8849 48.2561C65.775 48.2961 65.6819 48.3743 65.6214 48.4774C65.5609 48.5805 65.5367 48.7021 65.5529 48.8216C65.5781 48.8948 68.0273 56.0245 68.5767 57.7012C68.6132 57.7994 68.6775 57.8838 68.7611 57.9435C68.8448 58.0031 68.9438 58.0352 69.0454 58.0355Z" fill="#211613"/>
<path d="M81.3873 80.8978C81.6897 80.8978 82.2541 80.7358 83.4032 80.0307C83.7811 79.8009 85.041 78.9861 85.2779 78.5107C85.4442 78.1712 85.5853 77.8735 80.843 67.3225C80.6767 66.9516 80.5558 66.6852 80.5104 66.5755C80.2456 65.8335 80.1507 65.0378 80.2332 64.2512C80.2584 64.1363 80.324 63.9117 80.4096 63.6296C80.5759 63.0707 80.8279 62.2245 81.0799 61.0702C81.5083 59.1167 79.9157 56.6983 79.8502 56.5991C79.7665 56.5187 79.6588 56.4701 79.545 56.4614C79.4311 56.4527 79.3177 56.4843 79.2235 56.551C79.1292 56.6178 79.0596 56.7157 79.0261 56.8288C78.9925 56.942 78.997 57.0635 79.0389 57.1736C79.4319 57.7691 80.3945 59.5868 80.1173 60.8299C79.8754 61.9425 79.6134 62.7678 79.4672 63.3162C79.3715 63.6348 79.3009 63.8699 79.2707 64.037C79.1445 65.0333 79.2624 66.0464 79.6134 66.983C79.6638 67.0979 79.7797 67.359 79.951 67.7351C83.257 75.0947 84.1843 77.4818 84.3304 78.1085C83.4795 78.8336 82.5259 79.4185 81.5032 79.8427C80.6868 78.8294 76.3578 72.0078 73.6918 67.7717C73.6664 67.6972 73.625 67.6297 73.5708 67.5742C73.5165 67.5187 73.4508 67.4767 73.3786 67.4513C73.3065 67.4259 73.2297 67.4178 73.154 67.4277C73.0784 67.4375 73.0059 67.465 72.942 67.5081C72.8781 67.5511 72.8245 67.6086 72.7851 67.6763C72.7458 67.744 72.7217 67.82 72.7149 67.8987C72.708 67.9774 72.7184 68.0566 72.7453 68.1305C72.7723 68.2044 72.815 68.271 72.8704 68.3253C80.4903 80.5008 80.9338 80.7254 81.0749 80.8038C81.1693 80.8629 81.277 80.8953 81.3873 80.8978Z" fill="#211613"/>
<path d="M75.5917 71.5797C76.902 71.3394 78.2879 72.3789 78.4441 74.7137C78.6003 77.0485 78.0561 79.1065 77.1338 79.3467C76.2116 79.587 75.5917 78.1454 75.7479 75.9882L75.5917 71.5797Z" fill="#5A4F4A"/>
<path d="M76.9374 79.8583C77.0446 79.8598 77.1515 79.8458 77.2549 79.8165C78.6206 79.4665 79.0843 76.8967 78.9331 74.6559C78.9265 74.0801 78.8028 73.5122 78.5701 72.9892C78.3373 72.4663 78.0008 72.0001 77.5825 71.6212C77.2918 71.3867 76.9564 71.2188 76.5984 71.1288C76.2405 71.0387 75.8682 71.0285 75.5061 71.0988C75.4305 71.095 75.355 71.1088 75.2853 71.1394C75.2156 71.1699 75.1534 71.2163 75.1033 71.2752C75.0532 71.3341 75.0166 71.4039 74.9962 71.4794C74.9757 71.555 74.972 71.6344 74.9852 71.7116C74.9984 71.7889 75.0282 71.8621 75.0724 71.9258C75.1167 71.9894 75.1742 72.042 75.2407 72.0794C75.3072 72.1169 75.381 72.1384 75.4566 72.1422C75.5323 72.1461 75.6077 72.1322 75.6775 72.1017C75.9054 72.0601 76.1393 72.0693 76.3635 72.1287C76.5877 72.1882 76.7971 72.2965 76.9777 72.4464C77.2845 72.74 77.5293 73.0962 77.6967 73.4926C77.8641 73.8891 77.9505 74.3172 77.9503 74.7499C78.1066 77.0952 77.5119 78.7196 77.013 78.8502C76.9682 78.8636 76.9208 78.8644 76.8756 78.8524C76.8304 78.8405 76.7891 78.8163 76.756 78.7823C76.4234 78.4898 76.1311 77.5235 76.252 76.0296C76.257 75.961 76.2488 75.8921 76.2281 75.8268C76.2074 75.7614 76.1744 75.7009 76.1311 75.6488C76.0437 75.5435 75.9195 75.4785 75.7858 75.4681C75.6522 75.4577 75.52 75.5028 75.4184 75.5934C75.3168 75.684 75.2541 75.8127 75.2441 75.9513C75.1231 77.6332 75.4507 78.986 76.1109 79.5606C76.3435 79.7585 76.6365 79.8641 76.9374 79.8583Z" fill="#211613"/>
<path d="M80.9791 85.0924C81.6896 85.0924 82.6875 84.7738 84.0532 83.7239C85.7617 82.4076 86.6537 80.8198 86.4319 79.4721C86.3693 79.0798 86.2 78.714 85.9438 78.4179C85.6875 78.1219 85.3551 77.9077 84.9855 77.8007C84.9203 77.7612 84.8473 77.7375 84.7719 77.7312C84.6966 77.7249 84.6209 77.7363 84.5504 77.7644C84.4799 77.7926 84.4164 77.8368 84.3646 77.8938C84.3128 77.9509 84.274 78.0192 84.2512 78.0939C84.2283 78.1685 84.222 78.2476 84.2326 78.3251C84.2432 78.4027 84.2705 78.4768 84.3125 78.5419C84.3544 78.607 84.41 78.6616 84.475 78.7014C84.5401 78.7413 84.6129 78.7655 84.6882 78.7722C84.8848 78.823 85.063 78.932 85.2008 79.086C85.3386 79.24 85.4302 79.4322 85.4643 79.6393C85.5752 80.3496 85.1216 81.6293 83.4485 82.9038C81.6191 84.3193 80.7624 84.0947 80.5406 83.9903C80.4467 83.9493 80.3655 83.8823 80.3059 83.7966C80.2463 83.7109 80.2107 83.6098 80.203 83.5045C80.1677 83.0344 80.9337 81.6659 81.6695 80.6735C81.7185 80.5656 81.7304 80.4437 81.7033 80.3278C81.6762 80.212 81.6117 80.1092 81.5205 80.0366C81.4292 79.964 81.3168 79.926 81.2018 79.9288C81.0868 79.9315 80.9762 79.975 80.8884 80.0519C80.591 80.4489 79.1346 82.4912 79.2253 83.5881C79.2445 83.8756 79.3398 84.152 79.5007 84.387C79.6616 84.622 79.8819 84.8064 80.1374 84.92C80.4028 85.0394 80.6898 85.0982 80.9791 85.0924Z" fill="#211613"/>
<path d="M68.7429 21.8698C69.019 21.8922 69.2967 21.8567 69.5593 21.7654C69.6299 21.7291 69.6912 21.6761 69.7385 21.6108C69.7858 21.5455 69.8176 21.4696 69.8315 21.3893C69.902 21.0184 69.6651 20.6267 69.141 19.7648C68.5835 18.9419 68.1407 18.0416 67.8257 17.0905C67.7753 16.982 67.6903 16.8949 67.585 16.8439C67.4798 16.7929 67.3608 16.7811 67.2481 16.8106C67.1355 16.8401 67.0361 16.909 66.9669 17.0057C66.8977 17.1024 66.8628 17.2209 66.8682 17.3412C67.2043 18.3977 67.6883 19.3973 68.3045 20.3081C68.4153 20.4909 68.5413 20.6946 68.6421 20.8722C66.8782 20.8199 61.501 20.0469 60.2008 19.535C58.9005 19.0231 57.9027 15.2101 57.8221 14.3692C57.8087 14.2307 57.7428 14.1033 57.6388 14.0151C57.5349 13.927 57.4014 13.8852 57.2677 13.8991C57.1341 13.9129 57.0112 13.9813 56.9261 14.089C56.841 14.1968 56.8008 14.3351 56.8141 14.4737C56.8746 15.0691 57.8221 19.6969 59.8379 20.4856C61.0222 20.9505 66.5658 21.8698 68.7429 21.8698Z" fill="#211613"/>
<path d="M50.0108 23.4733C50.0987 23.4728 50.185 23.4484 50.261 23.4026C50.3371 23.3567 50.4002 23.2911 50.4442 23.2122C50.9001 22.4145 51.5197 21.7305 52.2591 21.2088C52.9985 20.687 53.8396 20.3403 54.7228 20.1931L55.1965 20.12C55.9474 20.0155 56.7084 19.9111 57.041 19.3626C57.1167 19.2305 57.1615 19.0819 57.172 18.9287C57.1825 18.7754 57.1584 18.6217 57.1015 18.4799C56.8196 17.2776 56.6226 16.0556 56.5119 14.8236C56.5186 14.7466 56.5087 14.6691 56.483 14.5966C56.4573 14.524 56.4163 14.4583 56.3632 14.4042C56.31 14.35 56.2459 14.3088 56.1755 14.2834C56.1051 14.258 56.0301 14.2491 55.956 14.2574C55.8819 14.2657 55.8104 14.2909 55.7468 14.3312C55.6833 14.3716 55.6291 14.426 55.5883 14.4907C55.5475 14.5553 55.521 14.6285 55.5108 14.7051C55.5005 14.7816 55.5068 14.8595 55.5292 14.9333C55.6546 16.2377 55.8701 17.5312 56.1742 18.8037C55.8205 18.9517 55.4462 19.0399 55.0655 19.0649C54.8791 19.091 54.6976 19.1171 54.5616 19.1485C53.5349 19.3235 52.5579 19.7305 51.7 20.3408C50.8421 20.951 50.1243 21.7494 49.5975 22.6794C49.5385 22.7979 49.5254 22.9354 49.561 23.0636C49.5966 23.1918 49.6782 23.301 49.789 23.3689C49.8536 23.422 49.9297 23.4578 50.0108 23.4733Z" fill="#211613"/>
<path d="M77.8242 29.302C77.9292 29.3013 78.0314 29.2666 78.1165 29.2028C79.2515 28.1782 79.9565 26.7354 80.0819 25.1809C80.095 25.0471 80.0577 24.9132 79.9779 24.8071C79.8981 24.7011 79.7819 24.631 79.6535 24.6115C79.5244 24.598 79.3953 24.6366 79.293 24.7193C79.1906 24.802 79.123 24.9224 79.1042 25.0555C79.0139 25.8923 78.7472 26.6983 78.3231 27.4164C78.1635 26.0376 77.7275 24.7085 77.043 23.5146C76.9523 23.3997 76.7558 23.1542 74.8508 22.0521C74.7383 22.0041 74.6129 21.9998 74.4977 22.0401C74.3824 22.0804 74.2851 22.1625 74.2237 22.2713C74.1623 22.3802 74.1409 22.5083 74.1636 22.6322C74.1862 22.7561 74.2513 22.8673 74.3468 22.9453C75.025 23.2867 75.6682 23.6979 76.2669 24.1728C76.5844 24.5645 77.5923 27.1918 77.3152 28.6961C77.2993 28.7961 77.3118 28.8987 77.3511 28.9914C77.3905 29.0842 77.455 29.1631 77.5369 29.2185C77.6223 29.2757 77.7225 29.3049 77.8242 29.302Z" fill="#211613"/>
<path d="M73.1675 38.4064C79.1142 38.4064 81.4929 34.7083 82.39 33.3085C83.6549 31.3445 82.5664 29.8925 82.521 29.8298C82.4318 29.7536 82.3201 29.7115 82.2045 29.7105C82.089 29.7095 81.9766 29.7497 81.8862 29.8244C81.7958 29.8991 81.733 30.0037 81.7082 30.1207C81.6834 30.2377 81.6981 30.36 81.75 30.467C81.7852 30.514 82.4202 31.4229 81.5736 32.7392C80.6614 34.1547 78.5498 37.4662 72.976 37.3827C72.8423 37.3827 72.7142 37.4377 72.6196 37.5356C72.5251 37.6336 72.472 37.7665 72.472 37.905C72.472 38.0435 72.5251 38.1764 72.6196 38.2743C72.7142 38.3723 72.8423 38.4273 72.976 38.4273L73.1675 38.4064Z" fill="#211613"/>
<path d="M90.645 35.5701C91.9891 35.6029 93.3107 35.2086 94.4323 34.4401C95.5539 33.6717 96.4218 32.5659 96.9193 31.2713C96.9527 31.1605 96.9496 31.0412 96.9103 30.9325C96.8711 30.8237 96.798 30.7315 96.7026 30.6706C96.6058 30.6135 96.4934 30.5912 96.3831 30.6073C96.2727 30.6234 96.1707 30.6769 96.0928 30.7594C95.8657 30.9841 95.5823 31.138 95.2748 31.2035C94.9674 31.2691 94.6483 31.2437 94.3541 31.1303C93.3059 30.7751 92.5903 29.6103 92.3937 27.9336C92.1518 25.8443 91.1741 24.2773 89.7227 23.6035C89.0711 23.3071 88.3558 23.193 87.6483 23.2728C86.9409 23.3525 86.266 23.6233 85.691 24.058C85.6104 24.1442 85.561 24.2566 85.551 24.3763C85.541 24.4959 85.571 24.6154 85.6361 24.7148C85.7012 24.8141 85.7973 24.8872 85.9083 24.9217C86.0193 24.9562 86.1383 24.95 86.2454 24.9041C86.6804 24.5704 87.1922 24.3606 87.7298 24.2955C88.2673 24.2305 88.812 24.3124 89.3095 24.5333C90.4434 25.0556 91.2094 26.351 91.411 28.0538C91.7638 31.0206 93.3714 31.872 94.0467 32.0966C94.4473 32.2347 94.8723 32.2793 95.2915 32.2272C94.4852 33.3711 92.8473 34.8075 89.8689 34.5098C87.6918 34.2956 87.4599 33.2718 87.2382 32.2794C87.087 31.6108 86.9157 30.8482 86.0993 30.6184C85.0155 30.3504 83.9016 30.2361 82.7882 30.2789C82.6776 30.3096 82.5803 30.3784 82.5125 30.474C82.4446 30.5696 82.4102 30.6863 82.4149 30.8049C82.4196 30.9235 82.4631 31.0369 82.5383 31.1264C82.6135 31.2159 82.7159 31.2763 82.8285 31.2974C83.8449 31.2626 84.8612 31.3644 85.8523 31.6004C86.069 31.6631 86.1446 31.8616 86.2958 32.5145C86.5377 33.6009 86.9106 35.241 89.7882 35.5283C90.073 35.5569 90.3589 35.5709 90.645 35.5701Z" fill="#211613"/>
<path d="M72.588 27.2965C72.7216 27.2965 72.8498 27.2415 72.9443 27.1435C73.0388 27.0456 73.0919 26.9127 73.0919 26.7742C73.0919 26.6357 73.0388 26.5028 72.9443 26.4049C72.8498 26.3069 72.7216 26.2519 72.588 26.2519L69.2467 26.1422L71.3885 24.6327C71.4708 24.5463 71.5216 24.433 71.532 24.3121C71.5425 24.1913 71.512 24.0704 71.4458 23.9703C71.3796 23.8701 71.2819 23.797 71.1693 23.7635C71.0568 23.73 70.9365 23.7381 70.8291 23.7865L67.4425 26.184C67.3637 26.2485 67.3052 26.3359 67.2747 26.435C67.2441 26.5342 67.2428 26.6405 67.271 26.7405C67.2992 26.8404 67.3555 26.9293 67.4327 26.9958C67.51 27.0623 67.6047 27.1034 67.7046 27.1137L72.5577 27.2756L72.588 27.2965Z" fill="#211613"/>
<path d="M53.483 27.0565L58.3361 26.8946C58.4361 26.8842 58.5307 26.8432 58.608 26.7767C58.6852 26.7102 58.7415 26.6212 58.7697 26.5213C58.7979 26.4214 58.7966 26.3151 58.766 26.2159C58.7355 26.1168 58.677 26.0293 58.5982 25.9649L55.2065 23.5674C55.0994 23.5215 54.9804 23.5154 54.8694 23.5498C54.7585 23.5843 54.6623 23.6574 54.5972 23.7567C54.5322 23.8561 54.5021 23.9756 54.5121 24.0953C54.5221 24.2149 54.5716 24.3273 54.6522 24.4135L56.8091 25.9126L53.4679 26.0223C53.3342 26.0223 53.206 26.0774 53.1115 26.1753C53.017 26.2733 52.9639 26.4061 52.9639 26.5446C52.9639 26.6832 53.017 26.816 53.1115 26.914C53.206 27.0119 53.3342 27.067 53.4679 27.067L53.483 27.0565Z" fill="#211613"/>
<path d="M64.2224 78.4793C66.3234 78.3072 68.4144 78.0213 70.4866 77.6227C75.8286 76.6877 75.9999 76.4474 76.1259 76.2751C76.2519 76.1027 76.4081 75.8833 76.3477 73.7313C76.2872 71.4905 76.0352 71.2973 75.8739 71.1719C75.7127 71.0465 75.4355 70.8324 70.7235 71.6942C71.3736 70.8637 72.2051 69.8034 72.4319 69.4691C72.8098 68.9468 75.8639 64.7316 75.8941 64.6898C75.9509 64.6389 75.996 64.5755 76.0261 64.5041C76.0562 64.4328 76.0706 64.3554 76.0681 64.2776C76.0656 64.1998 76.0464 64.1236 76.0119 64.0545C75.9773 63.9854 75.9283 63.9251 75.8684 63.8782C75.8085 63.8312 75.7393 63.7987 75.6657 63.7831C75.5921 63.7674 75.5161 63.769 75.4432 63.7877C75.3703 63.8065 75.3024 63.8418 75.2444 63.8913C75.1864 63.9407 75.1397 64.003 75.1079 64.0735C74.9819 64.2458 72.0186 68.32 71.6306 68.8737C71.2425 69.4273 69.1108 72.0964 69.1108 72.1225C69.0532 72.2048 69.02 72.3028 69.0153 72.4043C69.0106 72.5059 69.0346 72.6066 69.0844 72.6943C69.1341 72.7819 69.2075 72.8525 69.2954 72.8976C69.3834 72.9426 69.4821 72.9601 69.5795 72.9478C71.8725 72.5038 74.4377 72.0808 75.2339 72.0442C75.379 73.2185 75.4094 74.405 75.3246 75.5856C73.9287 76.0348 65.4722 77.5182 64.1216 77.4451C63.3354 77.4033 62.4333 77.116 62.4333 75.2408C62.4333 74.1596 64.1065 67.7506 64.9128 64.6689C65.5175 62.3602 65.5176 62.3446 65.5176 62.2244C65.4868 61.8414 65.4312 61.461 65.3512 61.0857C65.3222 60.9551 65.2459 60.8411 65.138 60.7672C65.0301 60.6933 64.899 60.6653 64.7717 60.6888C64.6448 60.7177 64.5335 60.7964 64.4612 60.9083C64.3889 61.0202 64.3611 61.1568 64.3836 61.2894C64.4492 61.6185 64.5197 62.0364 64.5298 62.1879C64.5399 62.3393 64.2274 63.384 63.9603 64.4025C62.6903 69.2706 61.4405 74.1178 61.4405 75.2408C61.4405 77.2309 62.3728 78.3748 64.0661 78.4636L64.2224 78.4793Z" fill="#211613"/>
<path d="M70.0532 31.8567C70.0532 33.1364 71.3988 34.1706 73.0769 34.1706C74.7551 34.1706 76.1007 33.126 76.1007 31.8567C76.1007 30.5875 74.7551 29.5376 73.0769 29.5376C71.3988 29.5376 70.0532 30.577 70.0532 31.8567Z" fill="#F8C6BE"/>
<path d="M49.6026 30.2736C50.2342 29.7828 51.0054 29.5237 51.7948 29.5371C53.4528 29.5371 54.8185 30.5818 54.8185 31.8563C54.8185 33.1307 53.473 34.1702 51.7948 34.1702C51.3105 34.1722 50.8301 34.0801 50.3787 33.8985C50.1116 32.7024 49.8243 31.4958 49.6026 30.2736Z" fill="#F8C6BE"/>
<path d="M65.447 39.8954C70.4866 39.8954 75.3246 37.9837 77.9906 34.9176C78.9895 33.7478 79.8242 32.4378 80.4701 31.0262C80.5244 30.9033 80.5306 30.7633 80.4874 30.6356C80.4442 30.508 80.3549 30.4027 80.2383 30.342C80.1202 30.2872 79.9863 30.2816 79.8643 30.3264C79.7424 30.3711 79.6417 30.4627 79.5831 30.5823C78.9772 31.9075 78.1952 33.1382 77.2598 34.2386C74.6342 37.2576 69.7004 39.0753 64.6608 38.8612C59.9992 38.6627 55.5896 38.4799 53.3318 36.7248C51.0741 34.9698 49.8343 32.9641 50.0863 27.5266C50.1957 25.3145 50.5062 23.1179 51.0136 20.9662C51.0411 20.8341 51.0182 20.6961 50.9496 20.5811C50.881 20.4662 50.772 20.3833 50.6457 20.3499C50.5197 20.3226 50.3883 20.3464 50.2787 20.4164C50.1691 20.4863 50.0894 20.5971 50.0561 20.7259C49.532 22.941 49.2097 25.2021 49.0935 27.4796C48.8213 33.3454 50.2224 35.6123 52.7321 37.5501C55.2418 39.488 59.7875 39.6812 64.6104 39.8849C64.8876 39.8902 65.1698 39.8954 65.447 39.8954Z" fill="#211613"/>
<path d="M88.3521 10.6971C90.121 11.3344 90.5191 11.8567 91.008 14.1706C91.5119 11.8567 91.8949 11.3344 93.6638 10.6971C91.8949 10.0546 91.4968 9.53755 91.008 7.22363C90.5191 9.53755 90.1411 10.0546 88.3521 10.6971Z" fill="#FFE100"/>
<path d="M91.0078 14.6823C91.1192 14.6797 91.2267 14.6387 91.3134 14.5659C91.4 14.4931 91.4609 14.3926 91.4865 14.2801C91.9401 12.1334 92.2273 11.7573 93.8249 11.1775C93.9158 11.1374 93.9933 11.0704 94.0478 10.985C94.1023 10.8996 94.1313 10.7994 94.1313 10.697C94.1313 10.5946 94.1023 10.4944 94.0478 10.409C93.9933 10.3235 93.9158 10.2566 93.8249 10.2164C92.2273 9.63665 91.9401 9.26058 91.4865 7.11381C91.4609 7.00131 91.4 6.9008 91.3134 6.82802C91.2267 6.75524 91.1192 6.7143 91.0078 6.71161C90.8919 6.7084 90.7786 6.74664 90.6868 6.8199C90.595 6.89315 90.5304 6.99695 90.5038 7.11381C90.0553 9.26058 89.768 9.63665 88.1654 10.2164C88.0745 10.2566 87.997 10.3235 87.9425 10.409C87.888 10.4944 87.859 10.5946 87.859 10.697C87.859 10.7994 87.888 10.8996 87.9425 10.985C87.997 11.0704 88.0745 11.1374 88.1654 11.1775C89.768 11.7573 90.0553 12.1334 90.5038 14.2801C90.5304 14.397 90.595 14.5008 90.6868 14.5741C90.7786 14.6473 90.8919 14.6855 91.0078 14.6823ZM92.4037 10.697C91.7561 11.0374 91.2572 11.6198 91.0078 12.3266C90.7583 11.6198 90.2594 11.0374 89.6118 10.697C90.2594 10.3565 90.7583 9.77414 91.0078 9.06731C91.2572 9.77414 91.7561 10.3565 92.4037 10.697Z" fill="#211613"/>
<path d="M88.0798 67.03C86.613 67.03 85.424 65.4748 85.424 63.5565C85.424 61.6381 86.613 60.083 88.0798 60.083C89.5466 60.083 90.7357 61.6381 90.7357 63.5565C90.7357 65.4748 89.5466 67.03 88.0798 67.03Z" fill="#FFE100"/>
<path d="M88.0797 67.5365C88.1955 67.5397 88.3088 67.5015 88.4006 67.4282C88.4924 67.3549 88.557 67.2512 88.5836 67.1343C89.0372 64.9928 89.3194 64.6115 90.922 64.0369C91.0144 63.9975 91.0935 63.9306 91.1491 63.8446C91.2048 63.7585 91.2345 63.6573 91.2345 63.5537C91.2345 63.4502 91.2048 63.3489 91.1491 63.2629C91.0935 63.1769 91.0144 63.1099 90.922 63.0706C89.3194 62.496 89.0372 62.12 88.5836 59.9732C88.557 59.8563 88.4924 59.7525 88.4006 59.6793C88.3088 59.606 88.1955 59.5678 88.0797 59.571C87.9639 59.5678 87.8505 59.606 87.7588 59.6793C87.667 59.7525 87.6023 59.8563 87.5757 59.9732C87.1222 62.1147 86.8349 62.496 85.2373 63.0706C85.1449 63.1099 85.0659 63.1769 85.0102 63.2629C84.9546 63.3489 84.9249 63.4502 84.9249 63.5537C84.9249 63.6573 84.9546 63.7585 85.0102 63.8446C85.0659 63.9306 85.1449 63.9975 85.2373 64.0369C86.8349 64.6115 87.1222 64.9928 87.5757 67.1343C87.6023 67.2512 87.667 67.3549 87.7588 67.4282C87.8505 67.5015 87.9639 67.5397 88.0797 67.5365ZM89.4756 63.5564C88.8268 63.8951 88.3274 64.4781 88.0797 65.186C87.832 64.4781 87.3326 63.8951 86.6837 63.5564C87.3317 63.2138 87.8304 62.6297 88.0797 61.9215C88.3289 62.6297 88.8277 63.2138 89.4756 63.5564Z" fill="#211613"/>
<path d="M93.4973 60.2918C91.563 60.2918 89.9948 58.2432 89.9948 55.7162C89.9948 53.1892 91.563 51.1406 93.4973 51.1406C95.4317 51.1406 96.9999 53.1892 96.9999 55.7162C96.9999 58.2432 95.4317 60.2918 93.4973 60.2918Z" fill="#FFE100"/>
<path d="M93.4974 60.7985C93.6089 60.7958 93.7164 60.7549 93.803 60.6821C93.8896 60.6094 93.9505 60.5088 93.9762 60.3964C94.5859 57.5235 94.9841 56.9751 97.1562 56.2177C97.2486 56.1784 97.3276 56.1114 97.3833 56.0254C97.4389 55.9394 97.4686 55.8381 97.4686 55.7346C97.4686 55.631 97.4389 55.5298 97.3833 55.4437C97.3276 55.3577 97.2486 55.2908 97.1562 55.2514C94.9992 54.4731 94.5859 53.9247 93.9762 51.0728C93.9505 50.9603 93.8896 50.8598 93.803 50.787C93.7164 50.7142 93.6089 50.6733 93.4974 50.6706C93.3816 50.6674 93.2683 50.7056 93.1765 50.7789C93.0847 50.8521 93.02 50.9559 92.9934 51.0728C92.3887 53.9456 91.9855 54.494 89.8135 55.2514C89.721 55.2908 89.642 55.3577 89.5863 55.4437C89.5307 55.5298 89.501 55.631 89.501 55.7346C89.501 55.8381 89.5307 55.9394 89.5863 56.0254C89.642 56.1114 89.721 56.1784 89.8135 56.2177C91.9704 56.996 92.3887 57.5444 92.9934 60.3964C93.02 60.5132 93.0847 60.617 93.1765 60.6903C93.2683 60.7635 93.3816 60.8017 93.4974 60.7985ZM95.6846 55.7111C95.1565 55.951 94.6866 56.3099 94.3092 56.7617C93.9317 57.2134 93.6561 57.7467 93.5024 58.3227C93.3486 57.746 93.0723 57.2123 92.6939 56.7604C92.3155 56.3086 91.8445 55.9501 91.3152 55.7111C91.8453 55.4733 92.317 55.1152 92.6956 54.6632C93.0741 54.2112 93.3499 53.6767 93.5024 53.0994C93.6548 53.6761 93.9299 54.21 94.3075 54.6619C94.6852 55.1139 95.1557 55.4724 95.6846 55.7111Z" fill="#211613"/>
</svg>
