<svg width="26" height="26" viewBox="0 0 26 26" fill="none" xmlns="http://www.w3.org/2000/svg">
<rect y="0.25" width="25.4286" height="25.4286" rx="12.7143" fill="#EAF6FF"/>
<path fill-rule="evenodd" clip-rule="evenodd" d="M11.1444 6.96443C11.1677 6.96448 11.1909 6.96451 11.2142 6.96451C11.2376 6.96451 11.2608 6.96448 11.2841 6.96443C11.5606 6.96397 11.8324 6.96352 12.0745 7.0284C12.7216 7.20178 13.2269 7.70718 13.4003 8.35423C13.4652 8.59636 13.4648 8.86816 13.4643 9.1447C13.4643 9.16795 13.4642 9.19122 13.4642 9.21451H19.4642C19.8785 9.21451 20.2142 9.5503 20.2142 9.96451C20.2142 10.3787 19.8785 10.7145 19.4642 10.7145H13.4642C13.4642 10.7378 13.4643 10.7611 13.4643 10.7843C13.4648 11.0609 13.4652 11.3327 13.4003 11.5748C13.2269 12.2219 12.7216 12.7273 12.0745 12.9006C11.8324 12.9655 11.5606 12.965 11.2841 12.9646C11.2608 12.9646 11.2376 12.9645 11.2142 12.9645C11.1909 12.9645 11.1677 12.9646 11.1444 12.9646C10.8679 12.965 10.5961 12.9655 10.3539 12.9006C9.7069 12.7273 9.2015 12.2219 9.02813 11.5748C8.96324 11.3327 8.96369 11.0609 8.96416 10.7843C8.9642 10.7611 8.96423 10.7378 8.96423 10.7145H7.46423C7.05002 10.7145 6.71423 10.3787 6.71423 9.96451C6.71423 9.5503 7.05002 9.21451 7.46423 9.21451H8.96423C8.96423 9.19122 8.9642 9.16795 8.96416 9.1447C8.96369 8.86816 8.96324 8.59636 9.02813 8.35423C9.2015 7.70718 9.7069 7.20178 10.3539 7.0284C10.5961 6.96352 10.8679 6.96397 11.1444 6.96443ZM10.8382 8.46853C10.7582 8.47217 10.7394 8.47804 10.7422 8.47729C10.6128 8.51197 10.5117 8.61304 10.477 8.74246C10.4764 8.74509 10.4715 8.76813 10.4682 8.83846C10.4644 8.92249 10.4642 9.03334 10.4642 9.21451V10.7145C10.4642 10.8957 10.4644 11.0065 10.4682 11.0906C10.4719 11.1706 10.4778 11.1894 10.477 11.1866C10.5117 11.316 10.6128 11.4171 10.7422 11.4517C10.7394 11.451 10.7582 11.4568 10.8382 11.4605C10.9222 11.4643 11.0331 11.4645 11.2142 11.4645C11.3954 11.4645 11.5063 11.4643 11.5903 11.4605C11.6702 11.4568 11.6891 11.451 11.6863 11.4517C11.8157 11.4171 11.9168 11.316 11.9515 11.1866C11.9507 11.1894 11.9566 11.1706 11.9602 11.0906C11.9641 11.0065 11.9642 10.8957 11.9642 10.7145V9.21451C11.9642 9.03334 11.9641 8.92249 11.9602 8.83846C11.9566 8.75848 11.9507 8.73965 11.9515 8.74246M10.8382 8.46853C10.9222 8.46469 11.0331 8.46451 11.2142 8.46451L10.8382 8.46853ZM11.2142 8.46451C11.3954 8.46451 11.5063 8.46469 11.5903 8.46853L11.2142 8.46451ZM11.5903 8.46853C11.6606 8.47173 11.6837 8.47666 11.6863 8.47729L11.5903 8.46853ZM15.6444 12.9644C15.6677 12.9645 15.6909 12.9645 15.7142 12.9645C15.7376 12.9645 15.7608 12.9645 15.7841 12.9644C16.0606 12.964 16.3324 12.9635 16.5745 13.0284C17.2216 13.2018 17.7269 13.7072 17.9003 14.3543C17.9652 14.5964 17.9648 14.8682 17.9643 15.1447C17.9643 15.1679 17.9642 15.1912 17.9642 15.2145H19.4642C19.8785 15.2145 20.2142 15.5503 20.2142 15.9645C20.2142 16.3787 19.8785 16.7145 19.4642 16.7145H17.9642C17.9642 16.7378 17.9643 16.7611 17.9643 16.7843C17.9648 17.0609 17.9652 17.3327 17.9003 17.5748C17.7269 18.2219 17.2216 18.7273 16.5745 18.9006C16.3324 18.9655 16.0606 18.965 15.7841 18.9646C15.7608 18.9646 15.7376 18.9645 15.7142 18.9645C15.6909 18.9645 15.6677 18.9646 15.6444 18.9646C15.3679 18.965 15.0961 18.9655 14.854 18.9006C14.2069 18.7273 13.7015 18.2219 13.5281 17.5748C13.4633 17.3327 13.4637 17.0609 13.4642 16.7843C13.4642 16.7611 13.4642 16.7378 13.4642 16.7145H7.46423C7.05002 16.7145 6.71423 16.3787 6.71423 15.9645C6.71423 15.5503 7.05002 15.2145 7.46423 15.2145H13.4642C13.4642 15.1913 13.4642 15.1679 13.4642 15.1447C13.4637 14.8682 13.4633 14.5964 13.5281 14.3543C13.7015 13.7072 14.2069 13.2018 14.854 13.0284C15.0961 12.9635 15.3679 12.964 15.6444 12.9644ZM15.3382 14.4686C15.2582 14.4722 15.2394 14.478 15.2422 14.4773C15.1127 14.512 15.0117 14.6131 14.977 14.7425C14.9777 14.7397 14.9719 14.7585 14.9683 14.8385C14.9644 14.9225 14.9642 15.0334 14.9642 15.2145V16.7145C14.9642 16.8957 14.9644 17.0066 14.9683 17.0906C14.9719 17.1706 14.9777 17.1894 14.977 17.1866C15.0117 17.316 15.1127 17.417 15.2422 17.4518C15.2394 17.451 15.2582 17.4569 15.3382 17.4605C15.4222 17.4644 15.533 17.4645 15.7142 17.4645C15.8954 17.4645 16.0063 17.4644 16.0903 17.4605C16.1702 17.4569 16.1891 17.451 16.1863 17.4518C16.3157 17.417 16.4168 17.316 16.4515 17.1866C16.4507 17.1894 16.4566 17.1706 16.4602 17.0906C16.4641 17.0066 16.4642 16.8957 16.4642 16.7145V15.2145C16.4642 15.0334 16.4641 14.9225 16.4602 14.8385C16.4566 14.7585 16.4507 14.7397 16.4515 14.7425C16.4168 14.6131 16.3157 14.512 16.1863 14.4773C16.1891 14.478 16.1702 14.4722 16.0903 14.4686C16.0063 14.4647 15.8954 14.4645 15.7142 14.4645C15.533 14.4645 15.4222 14.4647 15.3382 14.4686Z" fill="#0671D5"/>
</svg>
