<svg width="14" height="19" viewBox="0 0 14 19" fill="none" xmlns="http://www.w3.org/2000/svg">
<path d="M12.76 0.957031H1.24C0.64516 0.957031 0.160004 1.44219 0.160004 2.03703V18.957H13.84V2.03703C13.84 1.44219 13.3548 0.957031 12.76 0.957031ZM8.08 9.23703V7.07703H11.32V9.23703H8.08ZM11.32 10.677V12.837H8.08V10.677H11.32ZM8.08 5.63703V3.47703H11.32V5.63703H8.08ZM2.68 9.23703V7.07703H5.92V9.23703H2.68ZM5.92 10.677V12.837H2.68V10.677H5.92ZM2.68 5.63703V3.47703H5.92V5.63703H2.68ZM2.68 14.277H5.92V16.437H2.68V14.277ZM8.08 14.277H11.32V18.237H8.08V14.277Z" fill="#0671D5"/>
</svg>
