<svg width="24" height="25" viewBox="0 0 24 25" fill="none" xmlns="http://www.w3.org/2000/svg">
<g clip-path="url(#clip0_1241_7962)">
<path d="M20 5.8335H4C3.72386 5.8335 3.47386 5.94543 3.29289 6.12639C3.11193 6.30736 3 6.55736 3 6.8335V18.8335C3 19.3858 3.44772 19.8335 4 19.8335H20C20.5523 19.8335 21 19.3858 21 18.8335V6.8335C21 6.55736 20.8881 6.30736 20.7071 6.12639C20.5261 5.94543 20.2761 5.8335 20 5.8335Z" stroke="#0958A2" stroke-width="1.5" stroke-linecap="round" stroke-linejoin="round"/>
<path d="M3.29297 6.12646L10.5859 13.4193C11.3669 14.2004 12.6333 14.2004 13.4143 13.4193L20.7072 6.12646" stroke="#0958A2" stroke-width="1.5" stroke-linecap="round" stroke-linejoin="round"/>
</g>
<defs>
<clipPath id="clip0_1241_7962">
<rect width="24" height="24" fill="white" transform="translate(0 0.833496)"/>
</clipPath>
</defs>
</svg>
