<svg width="20" height="20" viewBox="0 0 20 20" fill="none" xmlns="http://www.w3.org/2000/svg">
<path d="M7.23655 12.8707C7.75836 13.9637 8.53819 15.0086 9.55828 15.9814C7.41999 15.665 5.64206 14.3788 4.67651 12.5999L7.23652 12.8707H7.23655ZM9.51946 3.07137C7.43632 3.39308 5.70163 4.63361 4.73128 6.35099L7.23716 6.10776C7.75252 5.03681 8.52052 4.01751 9.51944 3.07135L9.51946 3.07137ZM10.3052 6.14028L10.3399 3H10.3328C9.21206 3.96413 8.35919 5.00783 7.79079 6.11246L10.3051 6.14036L10.3052 6.14028ZM4.89306 7.11542L4.43014 7.11136L3.97249 7.10551L3.93657 10.3671L2.08368 7.08577L1.05063 7.0747L1 11.7161L1.46058 11.7224L1.91879 11.7265L1.95532 8.3807L3.86185 11.7474L4.8431 11.7585L4.89316 7.11534L4.89306 7.11542ZM9.29682 7.98672L9.30094 7.57288L9.30623 7.16191L5.83837 7.12535L5.78774 11.7685L9.3634 11.8056L9.3681 11.3929L9.37222 10.9814L6.78131 10.9541L6.79425 9.74266L9.09776 9.76702L9.10188 9.36881L9.106 8.96829L6.80249 8.94446L6.81372 7.95997L9.29682 7.98666V7.98672ZM13.998 10.5825L13.3525 7.20536L12.3047 7.19314L11.595 10.5848L10.8446 7.17863L9.82159 7.16703L11.082 11.8241L11.5491 11.8287L12.0173 11.8345L12.7965 8.18577L13.5133 11.8497L13.9833 11.856L14.4497 11.8607L15.8114 7.23145L14.8166 7.22099L13.998 10.5825L13.998 10.5825ZM10.8458 3.00575H10.8388L10.8046 6.14548L13.3208 6.17163C12.7754 5.0548 11.9461 3.99371 10.8459 3.00575H10.8458ZM16.2196 6.2018C15.1724 4.47919 13.3855 3.28453 11.3026 3.04207C12.6369 4.06044 13.3819 5.09543 13.8749 6.17738L16.2196 6.20174L16.2196 6.2018ZM11.3382 16C13.4753 15.7301 15.2703 14.4904 16.2766 12.7503L13.7277 12.9398C13.1817 14.0212 12.3783 15.0486 11.3382 16L11.3382 16ZM13.1699 12.934L10.731 12.9078L10.698 15.9065C11.7711 14.9853 12.6009 13.9852 13.1699 12.934L13.1699 12.934ZM19.6651 9.67527C19.4354 9.47501 18.9807 9.29509 18.2969 9.13891C17.8257 9.02748 17.5177 8.93632 17.374 8.85741C17.2273 8.78134 17.1537 8.67281 17.1555 8.53295C17.1567 8.34201 17.2291 8.18698 17.3722 8.08074C17.513 7.97799 17.7097 7.92518 17.9588 7.92865C18.2474 7.93098 18.4806 7.9995 18.6591 8.12891C18.8364 8.25953 18.9324 8.43424 18.9466 8.65599L19.9048 8.6676C19.8742 8.20034 19.6945 7.83112 19.3659 7.55368C19.039 7.27621 18.6102 7.13518 18.0825 7.12995C17.5195 7.12358 17.0701 7.25185 16.7362 7.50957C16.4028 7.77024 16.2338 8.13008 16.2291 8.57823C16.2249 8.98051 16.3463 9.2777 16.593 9.47097C16.8433 9.66309 17.3416 9.84654 18.0861 10.0178C18.4913 10.1106 18.7546 10.2018 18.8783 10.283C19.0031 10.3667 19.0656 10.4943 19.0638 10.6708C19.062 10.8478 18.9719 10.9837 18.7946 11.0824C18.6168 11.1799 18.3723 11.2275 18.0572 11.224C17.7527 11.2205 17.5142 11.1526 17.3458 11.0173C17.175 10.8844 17.0878 10.6958 17.0796 10.4467L16.1319 10.4369C16.149 10.9384 16.3251 11.3262 16.6573 11.6013C16.9901 11.8788 17.4548 12.0187 18.049 12.0244C18.6444 12.0303 19.115 11.9101 19.4661 11.6559C19.8183 11.4028 19.995 11.0597 19.9997 10.6232C20.0068 10.1902 19.8937 9.87323 19.6651 9.67529L19.6651 9.67527ZM10.1991 15.8984L10.2321 12.9032L7.79317 12.8771C8.34091 13.9393 9.1472 14.9563 10.1991 15.8984L10.1991 15.8984Z" fill="white"/>
</svg>
