<svg width="300" height="46" viewBox="0 0 300 46" fill="none" xmlns="http://www.w3.org/2000/svg">
<path d="M57.035 23.2068V29.6386C57.0371 29.7468 57.0178 29.8544 56.9777 29.9548C56.9379 30.0553 56.8783 30.1465 56.8027 30.2231C56.7272 30.2996 56.6371 30.3599 56.5379 30.4005C56.4387 30.4408 56.3324 30.4604 56.2256 30.4583H54.8928C54.7858 30.4614 54.6791 30.4422 54.5799 30.4019C54.4805 30.3613 54.3904 30.3006 54.3154 30.2233C54.2397 30.1469 54.1799 30.0557 54.1401 29.955C54.1 29.8546 54.0809 29.747 54.0834 29.6386V23.2778C54.0721 22.3814 53.7145 21.5251 53.0869 20.8927C52.4596 20.2604 51.6123 19.9023 50.7272 19.8952H45.5527L47.301 9.32129H43.5777C42.8006 9.32224 42.0486 9.60219 41.4561 10.1114C40.8633 10.6207 40.468 11.3262 40.3402 12.1027L36.709 34.1032H40.432C41.2094 34.1022 41.9611 33.8223 42.5539 33.3129C43.1467 32.8038 43.5418 32.0982 43.6695 31.3217L44.9645 23.5237H46.7775C46.8844 23.5215 46.9906 23.5411 47.0898 23.5815C47.1891 23.622 47.2791 23.6823 47.3547 23.7589C47.4303 23.8354 47.4899 23.9266 47.5297 24.0271C47.5697 24.1276 47.5891 24.2352 47.5869 24.3434V30.7041C47.5926 31.6043 47.9477 32.4661 48.5758 33.1033C49.2037 33.7402 50.0541 34.1014 50.943 34.1085H60.1645C61.0533 34.1014 61.9037 33.7402 62.5317 33.1033C63.1598 32.4661 63.5151 31.6043 63.5207 30.7041V19.8952H60.3156C59.4479 19.8966 58.6158 20.2457 58.0012 20.866C57.3865 21.4865 57.0393 22.328 57.035 23.2068Z" fill="white"/>
<path d="M118.37 16.453H102.334C101.9 16.4462 101.469 16.5277 101.067 16.693C100.665 16.8582 100.299 17.1037 99.9925 17.4148C99.6808 17.7121 99.4333 18.0713 99.2651 18.47C99.0972 18.8687 99.0122 19.2983 99.0157 19.7317V30.6609C99.0124 31.0937 99.0974 31.5223 99.2653 31.9201C99.4335 32.3179 99.681 32.6763 99.9925 32.9724C100.299 33.2835 100.665 33.529 101.067 33.6942C101.469 33.8595 101.9 33.941 102.334 33.9341H107.919C108.676 33.9341 109.409 33.6609 109.985 33.1637C110.567 32.6715 110.934 31.9664 111.005 31.2019L111.831 18.699H113.579C113.947 18.6909 114.304 18.8258 114.577 19.076C114.706 19.1894 114.809 19.3296 114.879 19.4872C114.949 19.6449 114.984 19.816 114.982 19.9887V30.3713C114.985 30.5442 114.95 30.7155 114.88 30.8731C114.81 31.0308 114.707 31.171 114.577 31.284C114.307 31.5385 113.948 31.6758 113.579 31.6665C113.238 31.6665 112.912 31.8034 112.671 32.0473C112.43 32.2912 112.295 32.6221 112.295 32.9671V33.9232H117.054C117.489 33.9309 117.921 33.8496 118.324 33.6845C118.727 33.5191 119.094 33.2733 119.401 32.9615C119.712 32.6652 119.96 32.307 120.128 31.9092C120.296 31.5114 120.381 31.0826 120.378 30.65V18.4749C120.379 18.2093 120.326 17.9462 120.223 17.7019C120.12 17.4576 119.969 17.2372 119.779 17.0542C119.596 16.863 119.377 16.7112 119.135 16.6079C118.893 16.5046 118.633 16.4519 118.37 16.453ZM106.694 30.6609C106.649 30.9461 106.493 31.2017 106.262 31.3714C106.022 31.5751 105.717 31.6837 105.404 31.6774C105.052 31.6859 104.71 31.5567 104.449 31.3166C104.325 31.2104 104.226 31.0771 104.159 30.9267C104.093 30.7762 104.061 30.6124 104.066 30.4479V20.0051C104.064 19.8322 104.1 19.6611 104.169 19.5037C104.239 19.346 104.342 19.2058 104.471 19.0924C104.744 18.8422 105.101 18.7073 105.469 18.7154H107.449L106.694 30.6609Z" fill="white"/>
<path d="M134.595 9.08643H129.615C128.717 9.08643 127.856 9.44724 127.221 10.0896C126.586 10.732 126.228 11.6035 126.227 12.5127V34.4967H131.207C132.105 34.4967 132.967 34.1351 133.603 33.4915C134.238 32.848 134.595 31.9751 134.595 31.065V23.4146H146.731C147.073 23.412 147.406 23.2995 147.681 23.0934C147.956 22.8871 148.16 22.5979 148.263 22.267L149.11 19.4801H134.595V9.08643Z" fill="white"/>
<path d="M209.415 31.6119C209.348 31.9053 209.35 32.2097 209.419 32.5024C209.485 32.7952 209.618 33.0686 209.805 33.3022C209.991 33.5356 210.229 33.7231 210.497 33.8507C210.766 33.9783 211.059 34.0423 211.356 34.0382H216.612L222.272 9.7373H214.524L209.415 31.6119Z" fill="white"/>
<path d="M230.947 9.67635H225.871L230.937 31.3708C231.121 32.1165 231.545 32.7783 232.145 33.2501C232.742 33.7218 233.48 33.976 234.24 33.9719H239.312L234.244 12.272C234.062 11.5272 233.639 10.8661 233.041 10.3952C232.443 9.92433 231.705 9.67111 230.947 9.67635Z" fill="white"/>
<path d="M245.355 19.4585C244.898 19.4558 244.451 19.6033 244.084 19.8793C243.717 20.1552 243.447 20.5445 243.316 20.9885L242.576 23.4094H262.076C262.529 23.4096 262.971 23.2629 263.334 22.9903C263.699 22.7179 263.967 22.3342 264.1 21.8957L264.834 19.475L245.355 19.4585Z" fill="white"/>
<path d="M176.021 12.1024L176.755 9.68701H157.254C156.802 9.68674 156.361 9.83362 155.996 10.1061C155.632 10.3786 155.364 10.7623 155.231 11.2007L154.497 13.6161H173.997C174.45 13.6163 174.891 13.4694 175.256 13.197C175.62 12.9245 175.888 12.5408 176.021 12.1024Z" fill="white"/>
<path d="M146.487 9.17334H144.426C143.905 9.17277 143.398 9.34193 142.979 9.65584C142.56 9.96975 142.252 10.4117 142.101 10.9166L140.795 15.1407H144.653L146.487 9.17334Z" fill="white"/>
<path d="M145.801 15.1407H147.911C148.417 15.1411 148.911 14.9768 149.319 14.6718C149.727 14.3669 150.028 13.9374 150.177 13.4466L151.472 9.17334H147.614L145.801 15.1407Z" fill="white"/>
<path d="M240.034 9.17334C239.513 9.17277 239.005 9.34193 238.587 9.65584C238.167 9.96975 237.86 10.4117 237.708 10.9166L236.425 15.1407H240.282L242.095 9.17334H240.034Z" fill="white"/>
<path d="M245.785 13.4466L247.09 9.17334H243.227L241.408 15.1407H243.52C244.025 15.1411 244.52 14.9768 244.928 14.6718C245.336 14.3669 245.637 13.9374 245.785 13.4466Z" fill="white"/>
<path d="M172.631 16.3552C172.585 16.3474 172.538 16.3474 172.491 16.3552L154.286 16.071C153.833 16.0645 153.391 16.2055 153.023 16.4731C152.656 16.7408 152.384 17.1209 152.246 17.5574C151.998 18.3661 151.744 19.1968 151.496 19.9783L167.074 20.2459C167.455 20.251 167.829 20.3622 168.152 20.5675C168.476 20.7729 168.737 21.0642 168.908 21.41C169.011 21.622 169.07 21.8534 169.08 22.0894C169.09 22.3254 169.052 22.5612 168.968 22.7815L167.036 27.9347C166.529 29.4756 165.876 30.3663 164.77 30.9729C164.167 31.2665 163.519 31.4514 162.854 31.5194L162.158 31.6178C161.856 31.6543 161.571 31.7762 161.334 31.9694C161.097 32.1627 160.919 32.4196 160.82 32.7106L160.48 34.208H167.775C169.564 34.1646 171.302 33.595 172.777 32.5686C174.281 31.4176 175.442 29.869 176.133 28.0931C176.783 26.5791 177.299 25.0102 177.676 23.4044C178.016 21.9891 178.043 21.3443 177.903 20.6722C177.293 17.7104 175.173 16.4809 172.631 16.3552Z" fill="white"/>
<path d="M199.918 10.141C198.154 12.4718 196.129 14.5847 193.879 16.4362C191.381 18.4367 188.652 20.1247 185.754 21.4636C184.783 21.8897 183.764 22.1925 182.721 22.3652C182.498 22.3978 182.279 22.4453 182.063 22.5072C181.764 22.5713 181.488 22.7129 181.26 22.9178C181.031 23.123 180.859 23.3845 180.762 23.6768L180.471 24.9063H183.801C185.168 24.9133 186.533 24.7629 187.869 24.4581L188.5 24.2997C189.494 24.0364 190.471 23.7114 191.424 23.3269V34.4966H196.404C197.328 34.4679 198.203 34.0703 198.838 33.3903C199.473 32.7104 199.816 31.8037 199.793 30.8681V17.9553L200.139 17.6329C203.225 15.3358 205.906 12.5254 208.065 9.32129H201.59C201.268 9.32311 200.951 9.39766 200.662 9.53948C200.373 9.68129 200.119 9.88681 199.918 10.141Z" fill="white"/>
<path d="M78.4612 15.9496C78.8754 15.946 79.2789 15.8157 79.6188 15.5758C79.9586 15.3359 80.219 14.9976 80.3658 14.6053L81.2291 12.2938H78.0455L79.0762 9.25H73.9988C73.5693 9.24955 73.1506 9.38528 72.8012 9.63813C72.452 9.891 72.1895 10.2483 72.0508 10.6599L71.5113 12.2992H68.7486C68.3307 12.2984 67.9225 12.4267 67.5783 12.6668C67.2342 12.907 66.9705 13.2477 66.8223 13.6435L65.959 15.955H70.2756L66.3529 27.4307H71.4574C71.8861 27.4314 72.3043 27.2965 72.6535 27.0447C73.0029 26.7929 73.2656 26.4369 73.4053 26.0263L76.8531 15.9277L78.4612 15.9496Z" fill="white"/>
<path d="M94.2248 13.2234L95.0394 11.0376H86.5896C86.1738 11.0405 85.7688 11.1711 85.4277 11.4121C85.0867 11.6531 84.8258 11.9931 84.6795 12.3873L83.8594 14.5732H92.3146C92.7305 14.5702 93.1355 14.4397 93.4765 14.1987C93.8176 13.9577 94.0785 13.6177 94.2248 13.2234Z" fill="white"/>
<path d="M91.5201 16.4644H88.3096C87.4361 16.4658 86.599 16.8182 85.9818 17.4442C85.3646 18.0702 85.0182 18.9185 85.0182 19.8031V23.9071H78.0307C77.1398 23.9128 76.2873 24.274 75.658 24.9125C75.0285 25.5508 74.6732 26.4148 74.6689 27.317V30.6996C74.6732 31.6016 75.0285 32.4656 75.658 33.1041C76.2873 33.7424 77.1398 34.1036 78.0307 34.1093H88.1586C89.0492 34.1036 89.9018 33.7424 90.5311 33.1041C91.1605 32.4656 91.5158 31.6016 91.5201 30.6996V27.5465H92.2647C92.6832 27.5469 93.092 27.4179 93.4361 27.1766C93.7805 26.9355 94.0438 26.5937 94.191 26.1967L95.0543 23.8852H91.5201V16.4644ZM85.0182 29.6285C85.0217 29.7373 85.0023 29.8459 84.9613 29.9466C84.9205 30.0475 84.8588 30.1383 84.7807 30.2132C84.7066 30.292 84.6168 30.3537 84.5172 30.3942C84.4176 30.4348 84.3106 30.4532 84.2033 30.4482H81.9803C81.8734 30.4504 81.7672 30.4308 81.668 30.3903C81.5688 30.3499 81.4787 30.2896 81.4031 30.213C81.3275 30.1365 81.268 30.0453 81.2281 29.9448C81.1881 29.8443 81.1688 29.7367 81.1709 29.6285V28.3881C81.167 28.2795 81.1857 28.1715 81.2258 28.0708C81.2656 27.97 81.326 27.879 81.4029 27.8034C81.475 27.7207 81.5641 27.6549 81.6637 27.6106C81.7635 27.5661 81.8715 27.5443 81.9803 27.5465H85.0127L85.0182 29.6285Z" fill="white"/>
<path d="M31.8 11.5559H28.3521C27.4799 11.5565 26.6414 11.8976 26.0113 12.5083C25.381 13.119 25.0078 13.9522 24.9689 14.8347L24.7369 20.3921L20.4957 19.9823L21.0353 9.45752H8.51171C8.08203 9.45699 7.6623 9.58971 7.30937 9.83785C6.95625 10.086 6.68672 10.4376 6.53691 10.8455L5.64648 13.2226H14.1719L13.956 17.1626C16.9777 17.1626 19.5353 19.933 20.3931 23.7201L24.5695 24.1462L24.1379 34.0919H27.5912C28.4634 34.0913 29.3017 33.7501 29.932 33.1395C30.5621 32.5289 30.9355 31.6955 30.9744 30.8131L31.2279 24.8021L32.7982 25.0043C32.9418 25.0201 33.0869 25.0058 33.2248 24.9621C33.3627 24.9184 33.49 24.8462 33.599 24.7503C33.7078 24.6544 33.7961 24.5365 33.858 24.4043C33.9197 24.2722 33.9539 24.1286 33.9582 23.9824V21.3867L31.4006 21.0915L31.8 11.5559Z" fill="white"/>
<path d="M14.2897 20.3877C11.975 20.3877 10.0918 23.1199 10.0918 26.5243C10.0918 29.9287 11.975 32.6611 14.2897 32.6611C16.6045 32.6611 18.4877 29.9287 18.4877 26.5243C18.4877 23.1199 16.61 20.3877 14.2897 20.3877ZM15.9895 28.262C16.1324 27.9471 16.234 27.6146 16.2916 27.273H17.7699C17.6844 28.3168 17.3371 29.3212 16.7609 30.191L15.9895 28.262ZM16.2916 25.7703C16.2332 25.4305 16.1317 25.0999 15.9895 24.7866L16.7502 22.8576C17.3293 23.7248 17.6803 24.7273 17.7699 25.7703H16.2916ZM15.9139 21.945L15.1693 23.8249C15.0186 23.748 14.8524 23.7068 14.6836 23.7046C14.5305 23.7058 14.3793 23.7412 14.2412 23.8085L13.3508 21.5571C13.6479 21.4291 13.967 21.3623 14.2897 21.3603C14.8828 21.3779 15.4537 21.5931 15.9139 21.9723V21.945ZM12.4066 22.1691L13.4049 24.7045C13.2447 25.0323 13.1338 25.3822 13.0756 25.743H10.8203C10.917 24.4076 11.4793 23.1506 12.4066 22.1964V22.1691ZM10.8203 27.2457H13.0756C13.133 27.6083 13.244 27.9602 13.4049 28.2893L12.4066 30.8249C11.4793 29.8685 10.9172 28.6097 10.8203 27.273V27.2457ZM13.3508 31.4369L14.2412 29.1855C14.3793 29.2528 14.5305 29.2882 14.6836 29.2894C14.8524 29.2872 15.0186 29.2461 15.1693 29.1691L15.9139 31.049C15.4516 31.4173 14.8832 31.6227 14.2951 31.6337C13.9725 31.6411 13.6514 31.5835 13.3508 31.4642V31.4369Z" fill="#A0A0A0"/>
<path d="M20.7066 26.5515C20.7066 21.371 17.6742 17.1743 13.935 17.1743H9.10567C5.36641 17.1743 2.33398 21.371 2.33398 26.5515C2.33398 31.579 5.19922 35.6828 8.80899 35.9123H14.2047C17.7982 35.743 20.7066 31.6172 20.7066 26.5515ZM14.291 32.661C11.9762 32.661 10.0932 29.9286 10.0932 26.5242C10.0932 23.1198 11.9762 20.3876 14.291 20.3876C16.6059 20.3876 18.4891 23.1198 18.4891 26.5242C18.4891 29.9286 16.6113 32.661 14.291 32.661Z" fill="black"/>
</svg>
