<svg width="16" height="16" viewBox="0 0 16 16" fill="none" xmlns="http://www.w3.org/2000/svg">
<g clip-path="url(#clip0_2935_31213)">
<path d="M4.86621 10.8614C5.33309 11.8704 6.03083 12.8349 6.94354 13.7329C5.03034 13.4407 3.43956 12.2535 2.57564 10.6114L4.86617 10.8614H4.86621ZM6.90881 1.81588C5.04494 2.11284 3.49286 3.25795 2.62464 4.84322L4.86675 4.6187C5.32786 3.63013 6.01502 2.68924 6.90879 1.81586L6.90881 1.81588ZM7.61179 4.64872L7.64289 1.75H7.63657C6.63376 2.63997 5.87067 3.60338 5.3621 4.62304L7.61176 4.64879L7.61179 4.64872ZM2.7694 5.54885L2.35521 5.5451L1.94573 5.5397L1.91359 8.55043L0.255741 5.52148L-0.668568 5.51126L-0.713867 9.7956L-0.301773 9.80148L0.108208 9.80523L0.140894 6.7168L1.84673 9.82452L2.72469 9.83473L2.76948 5.54878L2.7694 5.54885ZM6.7096 6.35313L6.71329 5.97112L6.71802 5.59176L3.6152 5.55801L3.5699 9.84397L6.76917 9.87825L6.77338 9.49731L6.77707 9.11742L4.45888 9.09223L4.47046 7.974L6.5315 7.99648L6.53518 7.6289L6.53887 7.25919L4.47784 7.2372L4.48788 6.32844L6.7096 6.35307V6.35313ZM10.9159 8.74925L10.3384 5.63187L9.40087 5.62059L8.76587 8.75137L8.0945 5.6072L7.17914 5.59649L8.30686 9.89529L8.72478 9.89957L9.14372 9.90497L9.84089 6.53687L10.4822 9.91891L10.9027 9.92479L11.3201 9.92907L12.5384 5.65596L11.6484 5.64629L10.9159 8.74922L10.9159 8.74925ZM8.09557 1.75531H8.08924L8.05871 4.65352L10.31 4.67766C9.822 3.64674 9.08002 2.66727 8.0956 1.75531H8.09557ZM12.9037 4.70551C11.9667 3.1154 10.3679 2.01264 8.50429 1.78883C9.69809 2.72887 10.3647 3.68424 10.8058 4.68297L12.9037 4.70546L12.9037 4.70551ZM8.5361 13.75C10.4483 13.5008 12.0543 12.3565 12.9547 10.7503L10.6741 10.9252C10.1855 11.9234 9.46675 12.8718 8.53614 13.75L8.5361 13.75ZM10.175 10.9198L7.99277 10.8957L7.96325 13.6637C8.92341 12.8134 9.66589 11.8902 10.175 10.9198L10.175 10.9198ZM15.9865 7.91179C15.781 7.72693 15.3741 7.56085 14.7623 7.41669C14.3407 7.31383 14.0651 7.22968 13.9365 7.15684C13.8053 7.08662 13.7394 6.98644 13.741 6.85734C13.7421 6.68108 13.8069 6.53798 13.935 6.43992C14.0609 6.34506 14.2369 6.29632 14.4598 6.29952C14.718 6.30167 14.9267 6.36492 15.0864 6.48438C15.245 6.60495 15.331 6.76622 15.3436 6.97092L16.201 6.98163C16.1735 6.55031 16.0128 6.2095 15.7188 5.95339C15.4263 5.69727 15.0427 5.56709 14.5705 5.56226C14.0667 5.55638 13.6647 5.67479 13.3659 5.91268C13.0676 6.1533 12.9164 6.48546 12.9121 6.89914C12.9084 7.27047 13.017 7.5448 13.2378 7.7232C13.4617 7.90055 13.9076 8.06988 14.5737 8.22793C14.9362 8.31367 15.1718 8.39778 15.2825 8.47281C15.3942 8.55001 15.4501 8.66783 15.4485 8.83075C15.4469 8.99415 15.3663 9.11955 15.2076 9.21064C15.0485 9.30066 14.8298 9.34457 14.5479 9.34136C14.2754 9.33814 14.062 9.27546 13.9113 9.15062C13.7585 9.02788 13.6805 8.85379 13.6731 8.62392L12.8252 8.61482C12.8405 9.07777 12.9981 9.43569 13.2953 9.68966C13.593 9.94579 14.0088 10.0749 14.5405 10.0802C15.0733 10.0857 15.4943 9.9747 15.8084 9.74002C16.1236 9.50642 16.2817 9.18975 16.2859 8.7868C16.2922 8.38709 16.191 8.09452 15.9865 7.91181L15.9865 7.91179ZM7.51693 13.6562L7.54646 10.8915L5.36424 10.8673C5.85432 11.8478 6.57573 12.7866 7.51691 13.6562L7.51693 13.6562Z" fill="white" fill-opacity="0.9"/>
</g>
<defs>
<clipPath id="clip0_2935_31213">
<rect width="16" height="16" fill="white"/>
</clipPath>
</defs>
</svg>
