<svg width="36" height="43" viewBox="0 0 36 43" fill="none" xmlns="http://www.w3.org/2000/svg">
<g clip-path="url(#clip0_1381_801)">
<path fill-rule="evenodd" clip-rule="evenodd" d="M26.75 10.5835H9.25V7.4585C9.25 6.7685 9.81 6.2085 10.5 6.2085H25.5C26.19 6.2085 26.75 6.7685 26.75 7.4585V10.5835ZM16.75 12.4585C16.75 12.2297 16.8156 12.0185 16.9231 11.8335H19.0769C19.1844 12.0185 19.25 12.2297 19.25 12.4585C19.25 13.1485 18.69 13.7085 18 13.7085C17.31 13.7085 16.75 13.1485 16.75 12.4585ZM26.75 18.7085C26.75 19.3985 26.19 19.9585 25.5 19.9585H10.5C9.81 19.9585 9.25 19.3985 9.25 18.7085V11.8335H15.5887C15.5362 12.0341 15.5 12.241 15.5 12.4585C15.5 13.8391 16.6194 14.9585 18 14.9585C19.3806 14.9585 20.5 13.8391 20.5 12.4585C20.5 12.241 20.4638 12.0341 20.4113 11.8335H26.75V18.7085ZM15.5 4.3335C15.5 3.9885 15.78 3.7085 16.125 3.7085H19.875C20.22 3.7085 20.5 3.9885 20.5 4.3335V4.9585H15.5V4.3335ZM25.5 4.9585H21.75V3.7085C21.75 3.0185 21.19 2.4585 20.5 2.4585H15.5C14.81 2.4585 14.25 3.0185 14.25 3.7085V4.9585H10.5C9.11937 4.9585 8 6.07787 8 7.4585V18.7085C8 20.0891 9.11937 21.2085 10.5 21.2085H25.5C26.8806 21.2085 28 20.0891 28 18.7085V7.4585C28 6.07787 26.8806 4.9585 25.5 4.9585Z" fill="white"/>
</g>
<path d="M7.128 36.1775V28.9655C6.9 28.9655 6.624 28.9895 6.456 29.0255V28.2455C6.684 28.2815 6.936 28.3055 7.32 28.3055H9.408C9.828 28.3055 10.08 28.2935 10.272 28.2575V29.0015C10.092 28.9775 10.02 28.9775 9.792 28.9775V37.5215C9.792 38.0735 9.816 38.4335 9.864 38.7455H9.06C9.096 38.4455 9.12 38.0735 9.12 37.4975V36.3095C8.388 36.5495 7.944 36.6815 7.428 36.8135C6.96 36.9335 6.696 37.0175 6.54 37.0775L6.324 36.2975C6.492 36.2975 6.732 36.2615 7.128 36.1775ZM7.812 28.9655V30.8495H9.12V28.9655H7.812ZM7.812 31.4735V33.2015H9.12V31.4735H7.812ZM7.812 33.8255V36.0215C8.304 35.9015 8.568 35.8295 9.12 35.6495V33.8255H7.812ZM12.588 29.1215H13.212C13.728 29.1215 13.932 29.1095 14.136 29.0735V29.7455C13.92 29.7215 13.848 29.7215 13.632 29.7215C13.524 30.3095 13.38 30.9335 13.236 31.3775H14.544C14.508 30.5855 14.496 30.1775 14.496 28.7375C14.484 28.3535 14.484 28.1975 14.448 27.9455H15.252C15.192 28.3055 15.18 28.4855 15.18 29.2775C15.18 29.8655 15.192 30.8015 15.216 31.3775H16.092C16.8 31.3775 17.052 31.3655 17.412 31.3055V32.0975C16.992 32.0375 16.692 32.0255 16.092 32.0255H15.24C15.324 33.2135 15.456 34.2335 15.636 34.9535C16.068 34.1495 16.404 33.2855 16.5 32.6495L17.16 33.0575C17.076 33.2135 17.004 33.3935 16.872 33.7655C16.584 34.5335 16.26 35.1695 15.864 35.7815C16.032 36.2855 16.176 36.6095 16.428 37.0775C16.584 37.3535 16.62 37.4015 16.788 37.5335C16.848 37.5815 16.848 37.5815 16.848 37.5815C16.896 37.5815 16.968 37.3895 17.028 37.0775C17.088 36.6815 17.136 36.3095 17.148 35.8175C17.376 36.0335 17.556 36.1535 17.796 36.2615C17.676 37.2455 17.616 37.5335 17.472 37.9055C17.34 38.2295 17.136 38.3975 16.896 38.3975C16.404 38.3975 15.84 37.6895 15.372 36.4895C14.676 37.3775 14.076 37.9535 13.116 38.6135C12.912 38.3495 12.84 38.2775 12.6 38.0975C13.74 37.3535 14.412 36.7295 15.132 35.7455C14.832 34.7615 14.64 33.4775 14.568 32.0255H10.968C10.608 32.0255 10.404 32.0375 10.056 32.0855V31.3295C10.344 31.3655 10.572 31.3775 10.956 31.3775H11.196C11.112 30.7655 11.04 30.3575 10.896 29.7095C10.572 29.7095 10.5 29.7215 10.296 29.7455V29.0615C10.572 29.1095 10.776 29.1215 11.184 29.1215H11.904V28.9535C11.904 28.4495 11.892 28.1975 11.832 27.9335H12.66C12.612 28.2095 12.588 28.4615 12.588 28.9655V29.1215ZM11.784 31.3775H12.624C12.804 30.8255 12.924 30.2975 12.996 29.7095H11.52C11.652 30.3215 11.736 30.8855 11.784 31.3775ZM13.8 36.0095V36.3455C13.8 36.4775 13.812 36.8495 13.812 36.9935C13.512 36.9695 13.38 36.9695 12.828 36.9695H11.34V37.9175H10.632C10.68 37.5695 10.692 37.2455 10.692 36.8015V33.9095C10.692 33.4295 10.68 33.1535 10.644 32.7695C10.884 32.8055 11.064 32.8175 11.496 32.8175H13.008C13.392 32.8175 13.572 32.8055 13.848 32.7695C13.812 33.0455 13.8 33.3455 13.8 33.9215V36.0095ZM11.352 33.4175V34.5575H13.164V33.4175H11.352ZM11.34 35.1215V36.3695H13.164V35.1215H11.34ZM15.612 28.9295L16.164 28.5935C16.62 29.1575 16.836 29.5055 17.256 30.2975L16.656 30.6935C16.332 29.9495 16.092 29.5535 15.612 28.9295ZM20.28 30.9695V29.1695C19.752 29.3015 19.476 29.3495 18.888 29.4575C18.78 29.1695 18.708 29.0255 18.552 28.8095C19.86 28.6415 20.688 28.4255 21.468 28.0655C21.66 27.9815 21.756 27.9335 21.876 27.8375L22.356 28.4375C22.188 28.5095 22.176 28.5095 21.948 28.6055C21.588 28.7495 21.264 28.8695 20.976 28.9655V30.9695H21.324C21.696 30.9695 21.912 30.9575 22.128 30.9215V31.6655C21.9 31.6295 21.66 31.6175 21.324 31.6175H21C21.396 32.6495 21.636 33.0815 22.176 33.7295C21.9 34.0775 21.888 34.1015 21.756 34.3655C21.36 33.7295 21.156 33.2855 20.916 32.5415C20.94 32.9375 20.94 33.0575 20.952 33.4655C20.952 33.6695 20.964 33.8375 20.964 33.9455C20.976 34.1735 20.976 34.3295 20.976 34.4015V37.3775C20.976 37.9775 20.988 38.3375 21.048 38.7455H20.208C20.256 38.3255 20.28 37.9415 20.28 37.3775V34.6175C20.28 34.0655 20.304 33.1895 20.34 32.6855C19.968 34.1135 19.512 35.0855 18.756 36.0935C18.624 35.8055 18.516 35.6375 18.312 35.4335C19.152 34.4135 19.848 32.9735 20.172 31.6175H19.584C19.248 31.6175 18.948 31.6415 18.636 31.6775V30.9095C18.936 30.9455 19.224 30.9695 19.596 30.9695H20.28ZM25.164 29.9735V29.1695C24.372 29.2295 23.724 29.2655 22.764 29.2775C22.68 29.0135 22.62 28.8695 22.464 28.6295C22.764 28.6415 22.992 28.6415 23.136 28.6415C24.984 28.6415 27.432 28.3295 28.296 27.9695L28.836 28.6175C28.752 28.6295 28.752 28.6295 28.344 28.7255C27.696 28.8695 26.76 29.0135 25.836 29.1095V29.9735H28.128C28.632 29.9735 28.956 29.9495 29.292 29.9015V30.6575C28.956 30.6095 28.62 30.5975 28.176 30.5975H25.836V31.4015H27.564C28.056 31.4015 28.344 31.3895 28.656 31.3655C28.62 31.6415 28.62 31.7855 28.62 32.3735V34.0775C28.62 34.7135 28.632 34.9535 28.656 35.2175C28.356 35.1935 28.08 35.1815 27.576 35.1815H25.836V36.0455H27.624C28.224 36.0455 28.524 36.0335 28.8 35.9855V36.7295C28.428 36.6935 28.056 36.6695 27.612 36.6695H25.836V37.6535H28.176C28.704 37.6535 29.064 37.6295 29.4 37.5815V38.3495C29.052 38.3015 28.716 38.2775 28.152 38.2775H23.028C22.428 38.2775 22.092 38.2895 21.78 38.3375V37.5935C22.08 37.6415 22.416 37.6535 23.028 37.6535H25.164V36.6695H23.4C22.86 36.6695 22.584 36.6815 22.248 36.7175V35.9975C22.56 36.0335 22.824 36.0455 23.388 36.0455H25.164V35.1815H23.58C23.088 35.1815 22.764 35.1935 22.512 35.2175C22.536 34.8335 22.548 34.5335 22.548 34.0775V32.3735C22.548 31.9055 22.536 31.6775 22.512 31.3655C22.824 31.3895 23.124 31.4015 23.64 31.4015H25.164V30.5975H23.184C22.68 30.5975 22.308 30.6095 22.044 30.6455V29.9135C22.38 29.9615 22.716 29.9735 23.184 29.9735H25.164ZM25.164 32.0015H23.22V32.9855H25.164V32.0015ZM25.836 32.0015V32.9855H27.948V32.0015H25.836ZM25.164 33.5735H23.22V34.5815H25.164V33.5735ZM25.836 33.5735V34.5815H27.948V33.5735H25.836Z" fill="white"/>
<defs>
<clipPath id="clip0_1381_801">
<rect width="20" height="20" fill="white" transform="translate(8 1.8335)"/>
</clipPath>
</defs>
</svg>
