<svg width="109" height="249" viewBox="0 0 109 249" fill="none" xmlns="http://www.w3.org/2000/svg">
<path d="M58.5969 98.439L59.8535 105.015L55.072 104.328L51.2954 97.7042C51.3599 97.0498 51.3329 96.3896 51.2153 95.7427C54.3739 96.8482 57.4822 97.9629 58.5969 98.439Z" fill="#1B75BC"/>
<path d="M46.469 98.3642C46.4672 98.4277 46.471 98.4913 46.4805 98.5542L44.1298 104.416L37.2013 105.332L35.828 98.7396L45.6107 95.4321C46.0095 96.3729 46.2976 97.3569 46.469 98.3642Z" fill="#1B75BC"/>
<path d="M38.6505 103.495H38.71L45.7643 102.722C45.8332 102.714 45.8998 102.693 45.9605 102.66C46.0213 102.627 46.0748 102.582 46.1182 102.528C46.1615 102.474 46.1938 102.412 46.2132 102.345C46.2326 102.279 46.2388 102.209 46.2313 102.14C46.2238 102.072 46.2027 102.005 46.1695 101.944C46.1362 101.884 46.0913 101.83 46.0373 101.787C45.9833 101.743 45.9213 101.711 45.8548 101.692C45.7884 101.672 45.7187 101.666 45.6499 101.674L39.0602 102.395L37.886 97.2789C37.8482 97.1502 37.763 97.0406 37.6475 96.9724C37.532 96.9042 37.3949 96.8824 37.2639 96.9115C37.133 96.9406 37.018 97.0184 36.9422 97.1291C36.8665 97.2398 36.8357 97.3752 36.856 97.5078L38.1378 103.081C38.1633 103.198 38.2281 103.303 38.3213 103.379C38.4145 103.454 38.5306 103.495 38.6505 103.495Z" fill="#27AAE1"/>
<path d="M58.1634 103.66C58.2406 103.66 58.3169 103.644 58.3869 103.611C58.457 103.578 58.5189 103.531 58.5685 103.472C58.6181 103.413 58.6541 103.343 58.6739 103.269C58.6936 103.194 58.6967 103.116 58.683 103.04L57.582 96.837C57.5505 96.706 57.4701 96.592 57.3573 96.5183C57.2445 96.4446 57.1078 96.4167 56.9752 96.4403C56.8425 96.464 56.7239 96.5374 56.6436 96.6456C56.5632 96.7538 56.5272 96.8885 56.5429 97.0224L57.5156 102.495L53.9084 101.925C53.84 101.914 53.7702 101.917 53.7028 101.933C53.6355 101.949 53.572 101.979 53.516 102.019C53.46 102.06 53.4126 102.111 53.3764 102.17C53.3403 102.229 53.3161 102.295 53.3052 102.363C53.2944 102.432 53.2972 102.502 53.3133 102.569C53.3295 102.636 53.3588 102.7 53.3995 102.756C53.4402 102.812 53.4916 102.859 53.5506 102.895C53.6096 102.932 53.6752 102.956 53.7436 102.967L58.0924 103.653L58.1634 103.66Z" fill="#27AAE1"/>
<path d="M84.3633 104.249L83.9902 105.274C82.0655 105.038 80.182 104.541 78.3916 103.796C76.9555 103.201 75.6376 102.354 74.5005 101.294L75.0315 100.2C76.0867 100.921 77.7782 102.003 79.3209 102.617C80.8888 103.244 83.0655 103.885 84.3633 104.249Z" fill="white"/>
<path d="M60.7818 97.2762C60.6966 97.1411 60.581 97.0278 60.4444 96.9451C60.3077 96.8625 60.1537 96.8129 59.9944 96.8001C59.6648 96.6216 58.85 96.2897 57.7948 95.896L55.831 90.1738L61.3105 92.3506L60.839 97.3678L60.7818 97.2762Z" fill="#58595B"/>
<path d="M65.7787 113.141C65.829 112.683 65.8725 112.269 65.9046 111.921C66.2616 108 63.9911 102.96 62.636 100.353L63.1694 94.6904C64.0712 95.6197 65.2866 97.2929 66.1449 100.106C66.4539 101.113 67.342 104.455 67.6602 106.231C67.1429 107.801 66.5981 109.925 66.0305 112.132L65.7787 113.141Z" fill="white"/>
<path d="M57.0032 144.673C56.7995 144.403 56.6095 144.114 56.4104 143.808C55.6528 142.649 54.7097 141.207 52.4071 140.02C50.576 139.07 48.0445 138.793 46.202 138.591L45.7442 138.541C45.678 138.391 45.5767 138.259 45.4489 138.156L42.8075 136.025C42.6473 134.686 42.1804 132.606 40.8071 131.418C39.2827 130.095 32.7708 125.403 30.9786 124.114L31.3632 109.694C31.5543 109.586 31.7061 109.42 31.7962 109.22C31.8864 109.02 31.9103 108.796 31.8644 108.582C31.8003 108.282 30.2622 101.205 27.6094 97.7027C25.4945 94.9034 23.5787 93.4774 22.1436 92.7519L27.6208 89.5703L34.8011 96.8833L34.2975 97.0527C34.0571 97.134 33.8547 97.3003 33.7283 97.5203C33.6019 97.7403 33.5601 97.9988 33.6108 98.2475L35.3687 106.68C35.4179 106.912 35.5455 107.121 35.73 107.271C35.9145 107.421 36.1449 107.503 36.3827 107.504C36.4284 107.507 36.4743 107.507 36.52 107.504L45.0003 106.391C45.1817 106.366 45.3532 106.292 45.4971 106.179C45.641 106.066 45.7524 105.916 45.8197 105.746L46.6964 103.562L50.299 107.632C50.4212 107.77 50.5782 107.873 50.7537 107.931C50.9292 107.988 51.1168 107.997 51.2971 107.958C51.4774 107.918 51.6438 107.831 51.779 107.705C51.9142 107.579 52.0133 107.42 52.0661 107.243L52.8489 104.633L53.5149 105.801C53.5936 105.938 53.7026 106.055 53.8334 106.144C53.9643 106.233 54.1137 106.291 54.2703 106.313L60.9904 107.266C61.0384 107.269 61.0866 107.269 61.1346 107.266C61.2872 107.266 61.4379 107.233 61.5761 107.168C61.7142 107.103 61.8363 107.009 61.9337 106.891C62.031 106.774 62.1012 106.636 62.1391 106.488C62.1771 106.341 62.1819 106.186 62.1532 106.037L61.5398 102.832C62.7277 105.375 64.085 108.971 63.8286 111.729C63.435 116.032 61.3932 130.445 61.3726 130.592C61.3483 130.769 61.3696 130.949 61.4345 131.116L65.7559 142.102L57.0581 144.755C57.0352 144.725 57.0215 144.7 57.0032 144.673ZM51.297 111.203C50.9053 111.202 50.5223 111.318 50.1964 111.535C49.8705 111.752 49.6164 112.061 49.4662 112.423C49.316 112.785 49.2765 113.183 49.3526 113.567C49.4287 113.951 49.6171 114.304 49.8939 114.582C50.1707 114.859 50.5235 115.047 50.9076 115.124C51.2917 115.201 51.69 115.162 52.0519 115.012C52.4138 114.862 52.7231 114.608 52.9408 114.283C53.1584 113.957 53.2746 113.574 53.2746 113.182C53.274 112.658 53.0655 112.155 52.6949 111.784C52.3242 111.413 51.8215 111.204 51.297 111.203ZM51.297 122.04C50.9059 122.04 50.5235 122.156 50.1983 122.374C49.8731 122.591 49.6196 122.9 49.4699 123.261C49.3203 123.623 49.2811 124.02 49.3574 124.404C49.4337 124.787 49.6221 125.14 49.8986 125.416C50.1752 125.693 50.5276 125.881 50.9112 125.958C51.2948 126.034 51.6924 125.995 52.0538 125.845C52.4151 125.695 52.724 125.442 52.9413 125.117C53.1586 124.791 53.2746 124.409 53.2746 124.018C53.274 123.494 53.0655 122.991 52.6947 122.62C52.324 122.25 51.8213 122.041 51.297 122.04ZM51.3794 132.187C50.9876 132.187 50.6045 132.302 50.2786 132.52C49.9527 132.737 49.6985 133.046 49.5484 133.408C49.3983 133.77 49.3589 134.168 49.4352 134.553C49.5115 134.937 49.7001 135.29 49.9771 135.567C50.2542 135.844 50.6072 136.032 50.9914 136.109C51.3757 136.185 51.774 136.146 52.1359 135.996C52.4977 135.845 52.8069 135.591 53.0243 135.265C53.2417 134.939 53.3575 134.556 53.357 134.165C53.3558 133.64 53.147 133.138 52.7764 132.768C52.4058 132.397 51.9035 132.188 51.3794 132.187Z" fill="#58595B"/>
<path d="M99.9683 86.7482C101.799 86.2149 103.436 85.8487 103.967 86.0615C104.654 86.4552 104.986 86.9473 104.976 87.1533C104.976 87.2609 104.777 87.4669 104.356 87.6592C103.852 87.8979 103.331 88.0984 102.797 88.2589C102.52 87.634 102.033 87.0137 101.424 86.8283C100.95 86.6984 100.454 86.6711 99.9683 86.7482Z" fill="#FEDCC6"/>
<path d="M63.7225 128.863C63.9949 126.915 64.423 123.828 64.8327 120.747C65.0197 120.748 65.2037 120.699 65.3649 120.605C65.5262 120.51 65.6587 120.373 65.7482 120.209C66.4349 118.948 67.2268 115.89 68.0554 112.656C68.8222 109.68 69.6897 106.288 70.2871 105.288C70.9523 104.221 71.8127 103.289 72.8231 102.541C74.1874 103.898 75.806 104.972 77.5863 105.702C79.6233 106.556 81.7723 107.114 83.9677 107.359C84.6887 109.286 85.4692 112.23 84.9679 113.477C84.4438 114.793 82.6493 118.055 80.9166 121.191C79.6921 123.411 78.4286 125.704 77.4467 127.6C75.3341 131.676 71.3537 133.871 67.9867 132.818C67.3893 132.631 66.0686 131.903 63.9491 129.069C63.8842 128.99 63.8078 128.92 63.7225 128.863Z" fill="white"/>
<path d="M84.1742 102.04C82.9313 101.678 81.2925 101.175 80.0862 100.692C78.6602 100.122 76.9962 99.0391 76.0395 98.3777L76.1471 98.1488C76.253 97.913 76.2677 97.6463 76.1883 97.4003C75.6641 95.7866 74.9317 92.7859 75.1995 91.6094C75.5771 89.9386 76.2432 88.8147 77.7424 87.3109C78.6171 86.4367 79.4072 85.4818 80.1023 84.459C80.1915 84.3308 80.2762 84.2095 80.3609 84.0928C80.8828 83.3695 81.3474 82.5661 81.7983 81.7901C82.2881 80.9433 83.1053 79.5356 83.5081 79.3616C83.6668 79.3573 83.8235 79.3979 83.96 79.479C84.0965 79.56 84.2073 79.678 84.2795 79.8194C84.7189 80.5862 84.6182 82.2639 83.0091 84.6696C81.8807 86.3565 81.7983 86.6105 81.8967 88.0685L81.9173 88.3867C82.0409 90.346 81.9517 90.703 81.867 91.051C81.8487 91.1265 81.8304 91.1997 81.812 91.2798C81.783 91.4127 81.7805 91.55 81.8045 91.6838C81.8286 91.8177 81.8787 91.9455 81.9522 92.0599C82.0256 92.1744 82.1209 92.2732 82.2325 92.3509C82.3442 92.4285 82.47 92.4834 82.6028 92.5124C82.7357 92.5414 82.873 92.544 83.0068 92.5199C83.1407 92.4959 83.2685 92.4457 83.3829 92.3723C83.4974 92.2988 83.5962 92.2036 83.6739 92.0919C83.7515 91.9803 83.8064 91.8545 83.8354 91.7216C83.8491 91.6598 83.8629 91.6026 83.8766 91.5476C84.03 90.9342 84.1192 90.3734 83.9865 88.2562L83.9659 87.9243C83.9109 87.1255 83.9087 87.0569 84.5427 86.0932C86.1197 85.5279 93.2999 83.0078 97.3375 82.4951C95.6506 82.9872 94.0919 83.5938 92.7414 84.1179C91.3498 84.6604 90.036 85.1708 89.3859 85.2006C89.1188 85.2177 88.8687 85.3375 88.6879 85.5348C88.507 85.7322 88.4095 85.9918 88.4157 86.2594C88.4219 86.527 88.5314 86.7818 88.7212 86.9705C88.911 87.1592 89.1664 87.2673 89.434 87.272H89.4798C90.4686 87.2285 91.803 86.7089 93.4922 86.052C96.5662 84.855 100.778 83.2184 104.891 83.7059C105.61 83.7906 106.097 84.4361 106.234 84.816C106.14 84.85 106.051 84.8978 105.971 84.958C105.667 84.6724 105.329 84.4256 104.964 84.2232C103.488 83.3901 100.107 84.3468 93.5517 86.6609C92.3638 87.0797 91.3361 87.4414 90.8394 87.5764C90.5798 87.6519 90.36 87.8257 90.2267 88.0609C90.0934 88.296 90.0573 88.574 90.1259 88.8354C90.1946 89.0968 90.3626 89.3211 90.5942 89.4605C90.8258 89.5999 91.1027 89.6433 91.3658 89.5815C91.9449 89.4281 92.9681 89.0711 94.2407 88.6179C94.9273 88.373 95.971 88.009 97.1155 87.6268C96.795 87.7664 96.4609 87.9198 96.1061 88.0846C95.598 88.3295 95.083 88.5858 94.584 88.8353C93.4647 89.3938 91.9312 90.1583 91.5123 90.2086C91.2391 90.2475 90.9926 90.3933 90.8269 90.6139C90.6612 90.8345 90.59 91.112 90.6288 91.3851C90.6677 91.6583 90.8134 91.9049 91.0341 92.0705C91.2547 92.2362 91.5321 92.3075 91.8053 92.2686C92.5194 92.1679 93.6227 91.63 95.5087 90.6893C96.0008 90.4444 96.5066 90.1926 97.0056 89.95C99.4044 88.7918 100.363 88.7117 100.723 88.7644C100.879 88.962 100.974 89.2004 100.997 89.451C100.102 90.3666 97.5641 91.8086 95.5041 92.9645C93.0527 94.3378 91.7504 95.0977 91.256 95.7317C91.2033 95.7981 91.114 95.9217 90.9927 96.0911C90.5189 96.7548 89.0769 98.7713 88.0973 99.3596C86.724 100.186 84.6228 101.552 84.5358 101.61C84.3777 101.717 84.2525 101.866 84.1742 102.04Z" fill="#FEDCC6"/>
<path d="M47.8242 87.764C47.7005 89.0159 47.3613 90.2371 46.8217 91.3735C44.3154 89.7118 38.2567 85.4636 35.7137 83.676C35.7137 83.6188 35.7137 83.5616 35.7137 83.5089C35.7137 83.4563 35.7137 83.3899 35.7137 83.3281C39.4464 84.3981 43.2832 85.0641 47.1581 85.3149C47.133 85.8848 47.1581 86.869 47.6159 87.5465C47.6738 87.6292 47.7441 87.7026 47.8242 87.764Z" fill="#FEDCC6"/>
<path d="M50.2284 93.2304C50.0991 93.0469 49.9518 92.8767 49.7889 92.7223C49.7365 92.6744 49.6798 92.6315 49.6195 92.5941C49.473 92.5071 49.3151 92.411 48.633 92.3812C49.4054 90.8089 49.8486 89.0954 49.9354 87.3457L53.1238 88.6847L55.2891 94.9883C53.3344 94.2879 51.3179 93.5921 50.3474 93.2579C50.3083 93.2463 50.2685 93.2371 50.2284 93.2304Z" fill="white"/>
<path d="M51.3378 160.058C51.1335 160.087 50.9253 160.049 50.745 159.948C49.7448 159.394 43.7319 154.762 41.3926 151.864C41.1432 151.557 40.7243 150.873 40.278 150.147C39.8316 149.422 39.312 148.579 38.8016 147.84C40.0878 146.847 41.2876 145.747 42.3883 144.551C43.4426 143.32 44.3633 141.98 45.135 140.555L45.9727 140.651C47.655 140.834 49.9553 141.086 51.466 141.859C53.2834 142.798 53.9632 143.839 54.6842 144.94C54.8947 145.261 55.1099 145.593 55.3525 145.918C56.0936 146.879 56.89 147.796 57.7375 148.664C57.771 148.697 57.8062 148.729 57.8428 148.758C58.2502 149.069 58.4791 149.408 58.486 149.71C58.4971 149.818 58.465 149.926 58.3967 150.01C58.3543 150.041 58.3072 150.065 58.2571 150.081C58.2422 150.075 58.2277 150.068 58.2136 150.06C57.543 149.41 56.7945 148.708 55.9545 147.945L55.6157 147.634C54.8856 146.964 53.6633 145.842 52.9171 144.725C52.8431 144.609 52.7467 144.51 52.6337 144.432C52.5208 144.354 52.3934 144.299 52.2591 144.271C52.1248 144.243 51.9862 144.242 51.8514 144.267C51.7166 144.293 51.5883 144.346 51.474 144.422C51.3597 144.498 51.2616 144.595 51.1854 144.71C51.1093 144.824 51.0567 144.952 51.0306 145.087C51.0045 145.222 51.0055 145.36 51.0335 145.495C51.0615 145.629 51.1159 145.756 51.1936 145.869C52.0771 147.195 53.4138 148.422 54.2127 149.156L54.5606 149.474C59.0468 153.549 60.134 155.171 60.3812 155.776C60.5094 156.087 60.4819 156.234 60.4682 156.261C60.4137 156.298 60.3488 156.318 60.2828 156.316C60.0989 156.314 59.9173 156.276 59.7486 156.203C59.5799 156.13 59.4277 156.023 59.3008 155.89L57.8199 154.489C56.1262 152.887 53.4001 150.314 52.7455 149.683C52.7132 149.642 52.6772 149.605 52.6379 149.571C52.5395 149.466 52.4208 149.382 52.289 149.324C52.1572 149.267 52.0151 149.236 51.8713 149.235C51.7274 149.234 51.5849 149.262 51.4523 149.318C51.3197 149.374 51.1998 149.456 51.0998 149.559C50.9373 149.735 50.4703 150.367 51.2783 151.145L51.6674 151.518L52.9858 152.77L56.3962 155.993L57.8772 157.392C57.9206 157.433 57.9664 157.47 58.0099 157.508C58.0538 157.567 58.1028 157.621 58.1564 157.671C58.9049 158.339 59.0513 159.015 58.8064 159.307C58.6073 159.55 58.1747 159.481 57.7284 159.14C56.6869 158.344 51.7979 153.594 50.0011 151.832C49.8025 151.653 49.5425 151.558 49.2755 151.567C49.0084 151.575 48.755 151.686 48.5678 151.877C48.3807 152.067 48.2744 152.323 48.2711 152.59C48.2677 152.857 48.3677 153.115 48.55 153.311C48.7789 153.528 53.0888 157.762 55.3571 159.825C55.3731 159.841 55.3868 159.861 55.4052 159.877C55.4416 159.9 55.4725 159.931 55.4956 159.967C55.5187 160.003 55.5333 160.044 55.5383 160.087C55.5434 160.129 55.5388 160.173 55.5248 160.213C55.5109 160.254 55.488 160.291 55.4578 160.321C55.277 160.537 54.9817 160.509 54.6521 160.244C54.4232 160.07 53.7961 159.495 52.9812 158.744C52.9584 158.719 52.9377 158.692 52.9126 158.667C52.8643 158.618 52.8115 158.574 52.7546 158.536C51.0677 156.982 48.7491 154.81 47.6367 153.764C47.5385 153.665 47.4216 153.588 47.2928 153.536C47.1641 153.483 47.0261 153.458 46.8872 153.46C46.7483 153.462 46.6112 153.492 46.4841 153.548C46.357 153.604 46.2425 153.685 46.1473 153.787C46.0522 153.888 45.9784 154.007 45.9303 154.138C45.8822 154.268 45.8608 154.407 45.8673 154.545C45.8739 154.684 45.9083 154.82 45.9684 154.946C46.0286 155.071 46.1133 155.183 46.2176 155.274C46.6433 155.684 49.3579 158.234 51.3378 160.058Z" fill="#FEDCC6"/>
<path d="M47.567 101.415L48.3452 99.4695H48.8213C49.2333 99.4695 49.6407 99.4467 49.8879 99.4375L51.4375 102.157L50.6226 104.876L47.567 101.415Z" fill="white"/>
<path d="M45.168 92.7613C45.0692 92.8558 44.9909 92.9696 44.9378 93.0955C44.8846 93.2215 44.8578 93.357 44.859 93.4937L36.9784 96.158L29.1069 88.1469L30.146 87.4602C30.3227 87.403 30.4808 87.2994 30.6038 87.1604L33.941 84.9653C35.8843 86.3295 42.1032 90.7013 45.168 92.7613Z" fill="white"/>
<path d="M48.5672 94.45C49.0547 95.1229 49.3271 96.4711 49.2538 97.3775C48.9494 97.3775 48.6564 97.3935 48.4047 97.3958C48.1721 96.3927 47.8551 95.4111 47.4571 94.4614C47.908 94.4454 48.3085 94.4408 48.5672 94.45Z" fill="#1B75BC"/>
<path d="M21.2181 94.6309C22.3625 95.2168 24.0448 96.4345 25.956 98.9637C27.572 101.102 28.7805 104.963 29.3894 107.231C29.3644 107.313 29.3498 107.398 29.3459 107.483L28.8881 124.608C28.8839 124.778 28.9211 124.945 28.9965 125.097C29.0719 125.248 29.1832 125.379 29.3207 125.478C29.4054 125.538 37.7896 131.541 39.4467 132.983C40.4744 133.874 40.7674 136.032 40.8086 137.035C40.2089 138.046 39.0439 139.905 37.8949 141.155C36.5055 142.681 34.0037 144.588 33.221 145.16C31.4132 145.227 29.6187 144.828 28.0092 144.002C26.0316 142.938 15.0816 133.979 14.253 129.415C14.0241 128.117 14.8481 122.674 15.5142 118.3C15.972 115.343 16.4297 112.285 16.6586 110.072C17.739 99.671 18.698 96.9518 21.2181 94.6309Z" fill="white"/>
<path d="M27.0295 145.835C28.8245 146.771 30.8194 147.257 32.8433 147.252C33.0333 147.252 33.1958 147.252 33.3285 147.241L36.137 149.005C36.3019 149.11 36.4932 149.166 36.6886 149.166C36.8412 149.165 36.9919 149.131 37.1304 149.067C37.5881 149.754 38.0757 150.523 38.5037 151.233C38.8914 151.899 39.3146 152.544 39.7717 153.164C42.2483 156.231 48.3962 161.02 49.7329 161.759C50.1856 162.009 50.6943 162.141 51.2115 162.141C51.844 162.153 52.4582 161.93 52.9351 161.514C53.1113 161.67 53.2532 161.791 53.3402 161.862C53.8405 162.291 54.4737 162.533 55.1324 162.549C55.4924 162.548 55.8479 162.469 56.1743 162.317C56.5007 162.165 56.7903 161.945 57.023 161.67C57.1235 161.55 57.2131 161.421 57.2908 161.285C57.6521 161.443 58.0412 161.526 58.4352 161.53C58.805 161.534 59.1711 161.456 59.5073 161.302C59.8436 161.148 60.1418 160.922 60.3808 160.64C60.6395 160.317 60.8205 159.939 60.9098 159.535C60.9991 159.131 60.9943 158.712 60.8958 158.31C61.1497 158.242 61.3903 158.132 61.6076 157.985C62.324 157.493 62.8734 156.449 62.2737 154.995C61.9372 154.174 61.0972 153.059 59.7079 151.594C59.9645 151.37 60.1709 151.094 60.3136 150.784C60.4564 150.475 60.5323 150.138 60.5364 149.797C60.5502 149.234 60.3854 148.149 59.1448 147.165C59.0487 147.067 58.8083 146.817 58.5016 146.479L65.2057 144.428L67.6777 152.018C67.5908 153.567 66.9384 164.378 64.9906 178.287C64.2078 183.865 63.8164 186.438 63.6607 187.443C62.3057 188.015 57.9546 189.594 50.898 189.693C34.0427 189.933 26.7915 188.493 25.2144 187.974C24.2989 179.1 22.2389 157.074 22.6967 153.78C23.1201 150.839 24.6331 146.769 25.4433 144.76C25.9499 145.15 26.4796 145.509 27.0295 145.835Z" fill="#58595B"/>
<path d="M43.6984 191.764L43.6847 191.936C42.4167 206.685 41.0983 225.413 41.9978 230.87C42.2725 232.538 43.8129 234.584 45.5936 236.773C45.985 237.333 46.5092 238.418 46.2299 238.913C45.5776 239.599 40.9792 239.959 38.9421 239.087C36.9851 238.247 32.7003 234.085 31.2149 232.552L31.1851 232.529C31.2736 231.962 31.3187 231.389 31.3202 230.815C31.3202 229.162 30.8212 224.303 30.1322 217.578C29.3952 210.382 28.395 200.617 27.5893 190.615C28.7452 190.805 29.9949 190.958 31.1371 191.073C33.815 191.363 37.9373 191.67 43.6984 191.764Z" fill="#FEDCC6"/>
<path d="M10.4574 56.425C13.3506 55.8733 14.7079 58.4369 14.7651 58.5445C14.7651 58.5628 14.788 58.5788 14.7971 58.5971C14.8179 58.6336 14.8408 58.6687 14.8658 58.7024L14.9093 58.7551C14.9413 58.7894 14.9734 58.8214 15.0077 58.8535L15.0466 58.8855C15.087 58.9179 15.1298 58.947 15.1748 58.9725L15.2069 58.9885C15.2555 59.0143 15.306 59.0365 15.3579 59.0549H15.39C15.429 59.068 15.4687 59.0787 15.509 59.0869C15.5257 59.088 15.5426 59.088 15.5594 59.0869C15.6017 59.0942 15.6446 59.098 15.6875 59.0984H15.7516H15.7676C15.8293 59.0931 15.8905 59.0832 15.9507 59.0686H15.9645C16.0293 59.0504 16.0921 59.0259 16.1522 58.9954C16.3921 58.8729 16.5751 58.662 16.6626 58.4071C16.6682 58.3907 16.6728 58.3738 16.6763 58.3568C16.6763 58.3225 16.6969 58.2881 16.7038 58.2515C18.4571 48.2148 23.765 42.6871 25.0673 41.4671L25.7242 41.5106C28.6998 41.7143 33.6232 42.0485 38.6198 40.4532C40.9189 40.8859 43.2523 41.1096 45.5917 41.1215C50.7417 41.1215 56.3815 39.9336 61.0943 36.07C64.1778 33.5358 66.4597 30.1614 67.6634 26.356C69.2336 27.8025 73.2551 31.8493 75.6104 37.3174C76.9969 40.5718 77.6869 44.0803 77.6361 47.6174C77.0821 50.5929 76.439 53.3762 75.8553 55.8962C74.7681 60.5747 73.9097 64.2713 74.308 66.6082C74.9764 70.5176 75.8874 75.8736 67.3086 79.6067C61.575 82.1039 56.013 83.3674 50.7806 83.3674H50.7669C34.9072 83.3674 24.1587 76.3588 19.5695 73.3695L18.6928 72.8019C18.5987 72.6088 18.4467 72.45 18.2579 72.3474C18.0692 72.2448 17.8532 72.2037 17.6399 72.2297C16.6021 72.2948 15.5635 72.116 14.6072 71.7078C12.7967 70.9273 11.2379 69.7852 9.54875 68.0044C7.65814 66.0085 6.49767 63.1978 6.5938 60.8723C6.73342 57.4962 9.34046 56.6378 10.4574 56.425ZM62.898 45.5345C62.978 45.6447 63.079 45.738 63.1952 45.8092C63.3114 45.8803 63.4404 45.9279 63.575 45.9491C63.7095 45.9704 63.8469 45.9649 63.9794 45.9331C64.1118 45.9012 64.2367 45.8435 64.3468 45.7634C64.9282 45.3354 66.5991 44.8478 68.4897 45.1179C70.5497 45.404 71.5202 46.6789 71.5591 46.7201C71.6562 46.8508 71.7825 46.9569 71.928 47.0301C72.0735 47.1032 72.234 47.1413 72.3968 47.1413C72.5863 47.1408 72.772 47.0884 72.9337 46.9896C73.0954 46.8909 73.2269 46.7496 73.3138 46.5812C73.4007 46.4128 73.4397 46.2238 73.4265 46.0348C73.4134 45.8458 73.3485 45.664 73.2391 45.5093C73.1819 45.4246 71.7514 43.4676 68.7758 43.0533C66.6723 42.7604 64.3468 43.1815 63.1223 44.081C63.0118 44.1615 62.9183 44.263 62.8472 44.3797C62.776 44.4964 62.7287 44.626 62.7078 44.7611C62.687 44.8962 62.6931 45.0341 62.7257 45.1668C62.7583 45.2995 62.8169 45.4245 62.898 45.5345ZM32.5039 46.9582C32.6144 47.0376 32.7395 47.0944 32.872 47.1253C33.0045 47.1563 33.1418 47.1607 33.276 47.1384C33.4103 47.116 33.5387 47.0674 33.6541 46.9952C33.7695 46.923 33.8694 46.8288 33.9482 46.7178C33.9825 46.6721 34.9507 45.3972 37.013 45.1156C38.9036 44.8501 40.5745 45.3331 41.1559 45.7611C41.265 45.849 41.3909 45.9139 41.5258 45.9518C41.6607 45.9897 41.8019 45.9999 41.9409 45.9817C42.0798 45.9635 42.2137 45.9174 42.3343 45.846C42.4549 45.7747 42.5598 45.6796 42.6427 45.5665C42.7255 45.4535 42.7846 45.3248 42.8163 45.1883C42.848 45.0518 42.8517 44.9103 42.8272 44.7723C42.8027 44.6343 42.7505 44.5027 42.6737 44.3855C42.5969 44.2682 42.4971 44.1678 42.3804 44.0902C41.1559 43.1907 38.8304 42.7695 36.7269 43.0625C33.7514 43.4768 32.3208 45.4338 32.2613 45.5185C32.1031 45.7417 32.0399 46.0186 32.0853 46.2884C32.1308 46.5582 32.2813 46.7991 32.5039 46.9582Z" fill="#FEDCC6"/>
<path d="M23.148 78.4412C23.279 78.3844 23.3967 78.301 23.4936 78.1963C25.2319 79.1703 27.0179 80.0564 28.845 80.8514C28.9457 82.4078 29.0235 84.7013 28.8977 85.7977L26.9155 87.1C26.7888 87.185 26.6823 87.2967 26.6032 87.4271C26.5241 87.5576 26.4745 87.7037 26.4577 87.8554L19.0669 92.1493C18.9136 92.2376 18.7856 92.3639 18.6953 92.516C18.605 92.6681 18.5553 92.8409 18.5512 93.0178C18.5471 93.1946 18.5885 93.3696 18.6717 93.5258C18.7548 93.6819 18.8767 93.8141 19.0257 93.9094C18.0593 94.9953 17.3013 96.25 16.7895 97.6106C16.144 94.9646 15.6931 91.2017 17.0459 87.5235C19.7719 80.0823 23.1159 78.4572 23.148 78.4412Z" fill="#754C29"/>
<path d="M30.6091 234.889C32.3257 236.589 35.9902 240.075 38.1235 240.991C39.1031 241.41 40.7991 241.666 42.5227 241.666C44.8688 241.666 47.2675 241.192 47.9885 240.007C48.0229 239.949 48.0549 239.892 48.0847 239.837C49.7395 241.948 51.1792 244.085 50.8542 245.244C50.813 245.335 50.4422 245.701 49.3367 246.045C46.4344 246.96 41.3256 246.917 39.0825 245.516C37.4597 244.502 37.0225 244.069 36.361 243.412C35.7246 242.772 35.0545 242.165 34.3537 241.595C33.8645 241.235 33.3556 240.903 32.8293 240.599C31.8634 240.007 30.2451 239.018 29.8537 238.471C29.5493 238.056 29.8125 237.235 30.268 235.928C30.371 235.601 30.4832 235.253 30.6091 234.889Z" fill="#58595B"/>
<path d="M35.417 146.108C36.5615 145.21 38.2964 143.803 39.4294 142.56C40.6036 141.271 41.7458 139.497 42.421 138.378L43.4922 139.241C42.7528 140.648 41.86 141.968 40.8302 143.178C39.505 144.679 37.58 146.183 36.6462 146.881L35.417 146.108Z" fill="white"/>
<path d="M51.3461 238.155C50.9387 238.066 49.9156 237.667 47.6519 236.015L47.2467 235.518C47.217 235.477 47.1918 235.443 47.1758 235.424C47.1587 235.403 47.1404 235.382 47.1209 235.362C45.807 233.746 44.6031 232.176 44.1865 231.039C44.2238 230.962 44.2515 230.882 44.2689 230.798C44.3947 230.185 44.4788 229.564 44.5207 228.94C44.7084 226.049 44.5207 223.218 44.2529 219.288C44.2002 218.509 44.143 217.685 44.0858 216.804C44.0794 216.708 44.0585 216.613 44.024 216.523C44.2941 210.823 44.8182 202.963 45.7498 192.112C45.759 191.996 45.7681 191.888 45.7773 191.789H47.352C48.4888 191.789 49.6806 191.781 50.9273 191.764C53.6277 191.738 56.3203 191.469 58.9727 190.96C58.7277 192.171 58.5011 193.309 58.2311 194.666C54.6032 213.023 54.0356 226.108 54.1248 229.604C54.1775 231.73 56.3862 234.202 58.7255 236.82C58.8857 237.184 58.7895 237.313 58.7415 237.379C58.08 238.272 54.3034 238.807 51.3461 238.155Z" fill="#FEDCC6"/>
<path d="M60.3534 238.679C61.9419 240.545 63.3084 242.431 62.9307 243.433C62.5599 244.376 56.7942 245.782 52.9466 244.411H52.9352C52.7704 243.118 52.0013 241.694 50.9416 240.19C52.0383 240.406 53.1541 240.511 54.2719 240.504C56.6409 240.501 59.2639 240.055 60.3534 238.679Z" fill="#58595B"/>
<path d="M32.9121 243.101L32.2071 243.216L30.0716 242.79L29.964 241.233C30.4905 241.59 31.0925 241.966 31.7494 242.378C32.198 242.641 32.6558 242.92 32.9121 243.101Z" fill="#58595B"/>
<path d="M51.2959 115.16C50.9041 115.16 50.521 115.045 50.195 114.827C49.8691 114.61 49.615 114.301 49.4648 113.939C49.3147 113.577 49.2753 113.179 49.3516 112.794C49.4279 112.41 49.6166 112.057 49.8936 111.78C50.1706 111.503 50.5236 111.314 50.9079 111.238C51.2922 111.162 51.6904 111.201 52.0523 111.351C52.4142 111.501 52.7233 111.756 52.9407 112.082C53.1581 112.407 53.2739 112.791 53.2734 113.182C53.2722 113.706 53.0635 114.209 52.6929 114.579C52.3223 114.95 51.82 115.159 51.2959 115.16Z" fill="black"/>
<path d="M51.2959 125.996C50.9047 125.996 50.5224 125.88 50.1972 125.662C49.872 125.445 49.6185 125.136 49.4688 124.775C49.3191 124.414 49.28 124.016 49.3563 123.632C49.4326 123.249 49.6209 122.896 49.8975 122.62C50.1741 122.343 50.5264 122.155 50.91 122.079C51.2937 122.002 51.6913 122.041 52.0526 122.191C52.414 122.341 52.7229 122.594 52.9402 122.919C53.1575 123.245 53.2734 123.627 53.2734 124.018C53.2722 124.542 53.0635 125.045 52.6929 125.415C52.3223 125.786 51.82 125.994 51.2959 125.996Z" fill="black"/>
<path d="M51.3798 136.144C50.9881 136.145 50.6051 136.029 50.2792 135.812C49.9533 135.594 49.6992 135.285 49.549 134.924C49.3988 134.562 49.3593 134.164 49.4354 133.78C49.5116 133.395 49.6999 133.042 49.9767 132.765C50.2535 132.488 50.6063 132.299 50.9904 132.223C51.3745 132.146 51.7728 132.185 52.1347 132.335C52.4966 132.485 52.8059 132.739 53.0236 133.064C53.2412 133.39 53.3574 133.773 53.3574 134.164C53.3568 134.689 53.1483 135.192 52.7777 135.563C52.407 135.934 51.9043 136.143 51.3798 136.144Z" fill="black"/>
<path d="M29.379 1.20327C33.2586 0.450228 40.9241 -0.646145 48.6788 0.48914C54.7466 1.37265 59.4205 3.43264 62.6272 6.589C67.6193 7.89138 73.5337 12.4485 77.1158 17.7862L77.3127 18.0769C79.5077 21.3363 82.513 25.8019 82.4604 35.7013C82.442 39.0819 79.7641 47.917 79.6496 48.2901C79.6333 48.3407 79.6142 48.3904 79.5924 48.4389C79.05 51.2931 78.448 53.9436 77.8758 56.3584C76.8435 60.8103 76.0263 64.326 76.3559 66.2509C77.0037 70.0505 78.2076 77.1185 68.1389 81.5017C62.142 84.1111 56.303 85.4341 50.7845 85.4341H50.7388L54.3552 86.9516C54.4898 87.008 54.611 87.0923 54.7107 87.1988C54.8105 87.3053 54.8867 87.4316 54.9343 87.5696V87.5925L62.7874 90.7122C62.9993 90.7939 63.1785 90.9431 63.2972 91.1367C63.4159 91.3302 63.4676 91.5575 63.4444 91.7834L63.4077 92.1725C64.4469 92.8981 66.7312 94.9375 68.1343 99.4969C68.3403 100.163 68.766 101.731 69.1414 103.274C70.0278 102.129 71.1039 101.145 72.3229 100.364C72.4424 100.292 72.5757 100.245 72.7143 100.227L73.6986 98.1923C73.7728 98.0414 73.8828 97.911 74.019 97.8123L74.0968 97.6452C73.726 96.4321 72.7624 92.9736 73.1813 91.1448C73.639 89.0963 74.5134 87.6085 76.2781 85.8415C77.0684 85.0526 77.7819 84.1904 78.4091 83.2665C78.5029 83.1314 78.5944 83.0033 78.6837 82.8797C79.1415 82.2411 79.5832 81.4834 80.009 80.751C81.055 78.9428 81.9614 77.3818 83.3553 77.2948C83.9049 77.2598 84.4531 77.3823 84.9355 77.6478C85.4179 77.9133 85.8147 78.311 86.0791 78.794C86.9031 80.2268 86.5941 81.9549 86.0219 83.4015C89.0134 82.3898 94.0009 80.822 97.2145 80.4397C98.8483 80.2203 100.506 80.6124 101.868 81.5407C101.9 81.5658 101.923 81.5933 101.95 81.6185C103.012 81.5275 104.08 81.5428 105.139 81.6643C107.015 81.8932 108.38 83.6487 108.343 85.0747C108.349 85.4675 108.221 85.8505 107.98 86.1608C107.739 86.4711 107.4 86.6903 107.018 86.7822C107.042 86.9289 107.052 87.0776 107.048 87.2262C107.025 87.7847 106.759 88.8285 105.216 89.5311C104.465 89.8971 103.675 90.1774 102.861 90.3666C102.779 90.5474 102.667 90.7136 102.532 90.8587C101.451 92.0031 98.9403 93.4222 96.5118 94.7933C95.1087 95.5829 93.1883 96.6679 92.8771 97.0318C92.8359 97.0844 92.7649 97.1829 92.6688 97.3179C91.5976 98.8171 90.341 100.447 89.1508 101.161C88.3291 101.653 87.2144 102.363 86.4682 102.843C86.5313 102.912 86.5852 102.989 86.6284 103.072C86.6953 103.2 86.7347 103.34 86.7442 103.484C86.7536 103.628 86.7329 103.772 86.6834 103.908L85.7861 106.377C86.1147 107.237 86.3996 108.114 86.6399 109.003C87.2693 111.358 87.3448 113.075 86.8687 114.256C86.2942 115.688 84.5524 118.852 82.7053 122.198C81.4899 124.407 80.231 126.689 79.272 128.559C77.1502 132.654 73.3758 135.155 69.6907 135.155C68.8984 135.157 68.1104 135.038 67.3538 134.803C66.3993 134.505 65.3853 133.807 64.2844 132.69L68.1022 142.391C68.1546 142.524 68.1788 142.666 68.1735 142.809C68.1682 142.952 68.1334 143.093 68.0713 143.222C68.0092 143.351 67.9212 143.465 67.8126 143.559C67.7041 143.652 67.5775 143.722 67.4407 143.764L67.1821 143.842L69.6999 151.578C69.7394 151.698 69.7565 151.825 69.7502 151.951C69.7502 152.066 69.1437 163.542 67.0333 178.591C65.9461 186.339 65.6211 188.264 65.6073 188.342C65.5811 188.499 65.5186 188.649 65.4249 188.778C65.3311 188.907 65.2087 189.012 65.0672 189.086C64.9642 189.141 63.6549 189.807 61.1761 190.459C60.8533 192.039 60.5833 193.384 60.2491 195.078C56.6555 213.25 56.0925 226.129 56.1795 229.56C56.2138 230.906 58.2898 233.252 60.1644 235.349C60.2666 235.428 60.3534 235.525 60.4208 235.635C63.2086 238.755 65.7859 241.7 64.8543 244.17C64.1951 245.914 61.2379 246.592 59.535 246.839C58.6155 246.972 57.6876 247.04 56.7585 247.04C55.3236 247.061 53.8938 246.865 52.5172 246.459C52.1327 247.001 51.472 247.459 50.5351 247.832C49.0313 248.414 46.8729 248.748 44.7099 248.748C42.1532 248.748 39.569 248.29 37.9691 247.301C36.1517 246.157 35.5933 245.612 34.886 244.912L34.8723 244.898C34.8334 244.898 34.7967 244.921 34.7555 244.928L32.3385 245.319C32.2836 245.323 32.2286 245.323 32.1737 245.319C32.1053 245.32 32.0371 245.314 31.97 245.301L28.8823 244.681C28.6589 244.636 28.4562 244.52 28.3056 244.349C28.1551 244.178 28.0649 243.962 28.0491 243.735L27.7058 238.734V238.707C27.4655 237.642 27.8706 236.475 28.2918 235.26C28.7358 233.985 29.2371 232.54 29.2371 230.826C29.2371 229.279 28.7449 224.463 28.0606 217.8C27.3098 210.455 26.2821 200.437 25.4673 190.208C24.5517 189.979 23.8445 189.715 23.5446 189.418C23.3399 189.223 23.2144 188.96 23.1921 188.679C23.0342 187.14 20.0335 157.765 20.6469 153.498C21.1482 150.006 22.9953 145.258 23.73 143.453C19.5047 140.054 12.954 133.919 12.2055 129.806C11.9285 128.277 12.4939 124.329 13.4575 118.009C13.9153 115.075 14.3731 112.042 14.5905 109.879C14.9545 106.364 15.2772 103.589 15.735 101.321V101.298C15.0094 99.2589 12.8052 93.0583 15.0872 86.828C17.3692 80.5976 20.1387 78.0066 21.4961 77.0476C20.2898 76.3174 19.2667 75.6537 18.4404 75.1158C17.9666 74.8068 17.5569 74.539 17.2113 74.3261C16.0313 74.3204 14.8642 74.08 13.778 73.6189C11.6974 72.7216 9.92807 71.433 8.03746 69.4371C6.5451 67.8646 5.00698 65.3423 4.60414 62.5384C0.802307 54.7173 -0.555016 45.9486 0.463531 35.7402C2.2626 17.8228 13.6086 4.27037 29.379 1.20327ZM53.1238 88.6865L49.9354 87.3475C49.8486 89.0972 49.4054 90.8107 48.633 92.3831C49.3197 92.4128 49.473 92.509 49.6195 92.5959C49.6798 92.6333 49.7365 92.6762 49.7889 92.7241C49.9519 92.8785 50.0991 93.0487 50.2284 93.2323C50.2686 93.239 50.3083 93.2482 50.3474 93.2597C51.3179 93.5939 53.3229 94.2897 55.2891 94.9901L53.1238 88.6865ZM47.1727 85.315C43.2978 85.0643 39.461 84.3982 35.7283 83.3283C35.7283 83.3901 35.7283 83.4519 35.7283 83.5091C35.7283 83.5663 35.7283 83.619 35.7283 83.6762C38.2713 85.4638 44.3299 89.712 46.8362 91.3737C47.3758 90.2372 47.715 89.0161 47.8388 87.7641C47.7635 87.7017 47.6979 87.6284 47.6442 87.5467C47.1773 86.8692 47.1407 85.885 47.1658 85.315H47.1727ZM31.043 84.3995L33.3982 82.8499C33.4737 82.8012 33.5553 82.7627 33.6409 82.7355C33.642 82.7202 33.642 82.7049 33.6409 82.6897C32.7253 82.3845 31.8388 82.0656 30.9812 81.7329C31.0109 82.5066 31.043 83.4793 31.0361 84.3926L31.043 84.3995ZM30.6104 87.1644C30.4873 87.3035 30.3293 87.407 30.1526 87.4643L29.1134 88.1509L36.9849 96.162L44.8655 93.4978C44.8644 93.3611 44.8912 93.2256 44.9443 93.0996C44.9975 92.9737 45.0758 92.8599 45.1745 92.7653C42.1097 90.7053 35.8908 86.3336 33.9476 84.9671L30.6104 87.1644ZM35.8359 98.7416L37.2092 105.334L44.1377 104.418L46.4883 98.5562C46.4789 98.4933 46.4751 98.4298 46.4769 98.3662C46.3058 97.3573 46.0177 96.3718 45.6186 95.4296L35.8359 98.7416ZM47.4634 94.4683C47.8615 95.4179 48.1785 96.3995 48.411 97.4026C48.6628 97.4026 48.9558 97.4026 49.2602 97.3843C49.3288 96.4687 49.0565 95.1297 48.5735 94.4568C48.308 94.4408 47.9074 94.4454 47.4565 94.4614L47.4634 94.4683ZM51.3018 97.7185L55.0785 104.342L59.86 105.029L58.6034 98.4532C57.4887 97.984 54.3804 96.8624 51.2217 95.7638C51.3358 96.4066 51.3605 97.062 51.295 97.7116L51.3018 97.7185ZM49.8965 99.4374C49.6493 99.4374 49.2419 99.4603 48.8299 99.4695H48.3538L47.5756 101.415L50.6266 104.869L51.4415 102.15L49.8965 99.4374ZM55.827 90.1812L57.7908 95.9034C58.8391 96.2971 59.6608 96.629 59.9904 96.8075C60.1497 96.8202 60.3037 96.8699 60.4404 96.9525C60.577 97.0351 60.6926 97.1485 60.7778 97.2836L60.8327 97.3706L61.3043 92.3533L55.827 90.1812ZM66.1521 100.108C65.2869 97.295 64.0715 95.6218 63.1765 94.6926L62.6432 100.355C63.9983 102.962 66.2688 108.002 65.9118 111.923C65.8797 112.271 65.8362 112.683 65.7859 113.143L66.0445 112.134C66.6122 109.927 67.1569 107.803 67.6742 106.233C67.3492 104.459 66.4611 101.113 66.1521 100.106V100.108ZM74.4974 101.296C75.6344 102.356 76.9523 103.203 78.3885 103.798C80.1788 104.543 82.0623 105.04 83.9871 105.276L84.3601 104.251C83.0623 103.887 80.8856 103.246 79.3246 102.619C77.7911 102.006 76.0904 100.923 75.0352 100.202L74.4974 101.296ZM102.797 88.2494C103.331 88.0889 103.852 87.8885 104.356 87.6497C104.777 87.4574 104.971 87.2514 104.976 87.1438C104.976 86.9378 104.665 86.4457 103.967 86.052C103.436 85.8415 101.801 86.2077 99.968 86.7387C100.451 86.6618 100.945 86.6884 101.417 86.8165C102.033 87.0042 102.52 87.6245 102.797 88.2494ZM88.0956 99.3825C89.0752 98.7942 90.5172 96.7777 90.991 96.114C91.1123 95.9446 91.2016 95.821 91.2542 95.7546C91.7486 95.1206 93.051 94.3698 95.5024 92.9874C97.5624 91.8315 100.103 90.3941 100.996 89.4739C100.972 89.2233 100.877 88.9849 100.721 88.7873C100.362 88.7346 99.4027 88.8147 97.0039 89.9729C96.5049 90.2155 95.9991 90.4673 95.507 90.7122C93.6209 91.6529 92.5177 92.1908 91.8036 92.2915C91.5304 92.3304 91.253 92.2591 91.0323 92.0934C90.8117 91.9277 90.6659 91.6812 90.6271 91.408C90.5882 91.1348 90.6595 90.8574 90.8252 90.6368C90.9909 90.4162 91.2374 90.2704 91.5106 90.2315C91.9295 90.172 93.463 89.4075 94.5823 88.8582C95.0813 88.6087 95.5962 88.3524 96.1044 88.1075C96.4591 87.9358 96.791 87.7824 97.1138 87.6497C95.9693 88.0319 94.9348 88.3959 94.239 88.6408C92.9572 89.0985 91.9501 89.451 91.3641 89.6044C91.101 89.6662 90.8241 89.6228 90.5925 89.4834C90.3609 89.344 90.1929 89.1197 90.1242 88.8583C90.0556 88.5968 90.0917 88.3189 90.225 88.0838C90.3583 87.8486 90.5781 87.6748 90.8377 87.5993C91.3344 87.4689 92.3621 87.1072 93.55 86.6838C100.105 84.3697 103.486 83.413 104.962 84.2461C105.327 84.4485 105.665 84.6953 105.969 84.9809C106.05 84.9207 106.138 84.8729 106.233 84.8389C106.095 84.459 105.608 83.8135 104.889 83.7288C100.769 83.2413 96.5645 84.8733 93.4905 86.0749C91.8013 86.7318 90.4669 87.2514 89.4781 87.2949H89.4323C89.1647 87.2902 88.9093 87.1821 88.7195 86.9934C88.5297 86.8047 88.4202 86.5498 88.414 86.2823C88.4078 86.0147 88.5053 85.7551 88.6862 85.5577C88.867 85.3604 89.1171 85.2406 89.3842 85.2235C90.0343 85.1937 91.3481 84.6833 92.7397 84.1408C94.0902 83.6167 95.6489 83.0101 97.3358 82.518C93.2982 83.0307 86.1203 85.5508 84.541 86.1161C83.907 87.0706 83.9092 87.1393 83.9642 87.9472L83.9848 88.2791C84.1175 90.3963 84.0283 90.9571 83.8749 91.5705C83.8612 91.6255 83.8474 91.6827 83.8337 91.7445C83.7751 92.0128 83.6123 92.2469 83.3812 92.3952C83.15 92.5435 82.8694 92.5939 82.6011 92.5353C82.3328 92.4767 82.0988 92.3139 81.9504 92.0828C81.8021 91.8516 81.7517 91.5711 81.8103 91.3027C81.8286 91.2203 81.8469 91.1471 81.8653 91.0738C81.9499 90.7259 82.0392 90.3689 81.9156 88.4096L81.895 88.0914C81.7966 86.6334 81.879 86.3794 83.0074 84.6925C84.6096 82.2868 84.7172 80.6091 84.2777 79.8423C84.2056 79.7009 84.0948 79.5829 83.9583 79.5019C83.8218 79.4208 83.6651 79.3802 83.5064 79.3845C83.1036 79.5585 82.2864 80.9662 81.7966 81.813C81.3388 82.589 80.881 83.3924 80.3592 84.1157C80.2745 84.2324 80.1898 84.3445 80.1005 84.4819C79.4051 85.5023 78.615 86.4549 77.7407 87.327C76.2415 88.8307 75.5754 89.9546 75.1978 91.6255C74.93 92.8019 75.6555 95.8027 76.1866 97.4163C76.266 97.6623 76.2513 97.929 76.1453 98.1648L76.0378 98.3937C76.9945 99.0552 78.6585 100.138 80.0845 100.708C81.2907 101.191 82.9296 101.694 84.1725 102.056C84.2536 101.89 84.3777 101.75 84.5318 101.648C84.6211 101.575 86.7177 100.209 88.0956 99.3825ZM67.9763 132.816C71.3433 133.869 75.3236 131.672 77.4363 127.597C78.4182 125.702 79.6817 123.409 80.9062 121.189C82.6389 118.044 84.4334 114.78 84.9575 113.475C85.4588 112.228 84.6783 109.284 83.9573 107.357C81.7619 107.112 79.6129 106.554 77.5759 105.7C75.7958 104.971 74.1772 103.897 72.8128 102.541C71.8023 103.289 70.9419 104.221 70.2767 105.288C69.6793 106.288 68.8118 109.671 68.045 112.656C67.2164 115.894 66.4428 118.952 65.7378 120.209C65.6483 120.373 65.5158 120.51 65.3545 120.605C65.1932 120.699 65.0093 120.749 64.8223 120.747C64.4126 123.83 63.9845 126.927 63.7122 128.863C63.7984 128.921 63.8756 128.991 63.9411 129.072C66.0583 131.894 67.379 132.628 67.9763 132.816ZM61.4462 131.12C61.3813 130.953 61.36 130.773 61.3844 130.596C61.405 130.449 63.4444 116.036 63.8403 111.733C64.0921 108.987 62.7348 105.379 61.5514 102.836L62.1649 106.041C62.1936 106.191 62.1888 106.345 62.1508 106.493C62.1129 106.641 62.0427 106.778 61.9454 106.896C61.848 107.013 61.7259 107.107 61.5878 107.172C61.4496 107.237 61.2989 107.27 61.1463 107.27C61.0983 107.273 61.0501 107.273 61.0021 107.27L54.282 106.318C54.1254 106.295 53.976 106.237 53.8451 106.149C53.7143 106.06 53.6054 105.942 53.5267 105.805L52.8606 104.638L52.0778 107.247C52.0244 107.423 51.925 107.583 51.7897 107.708C51.6545 107.833 51.4883 107.92 51.3083 107.959C51.1283 107.999 50.941 107.99 50.7657 107.933C50.5903 107.876 50.4333 107.774 50.3108 107.636L46.7081 103.567L45.82 105.746C45.7517 105.916 45.6392 106.066 45.494 106.179C45.3488 106.292 45.1761 106.365 44.9937 106.389L36.5134 107.501C36.4677 107.505 36.4218 107.505 36.3761 107.501C36.1383 107.501 35.9079 107.418 35.7234 107.268C35.5388 107.118 35.4113 106.91 35.3621 106.677L33.6042 98.2449C33.5535 97.9963 33.5953 97.7377 33.7217 97.5177C33.8481 97.2977 34.0505 97.1314 34.2909 97.0501L34.7944 96.8807L27.6142 89.5678L22.1369 92.7493C23.5721 93.4749 25.4879 94.9009 27.6028 97.7002C30.251 101.202 31.7937 108.279 31.8578 108.579C31.9037 108.794 31.8798 109.018 31.7896 109.218C31.6994 109.418 31.5477 109.584 31.3566 109.692L30.972 124.112C32.7642 125.4 39.2761 130.092 40.8005 131.415C42.1738 132.603 42.6316 134.684 42.801 136.023L45.4423 138.154C45.5701 138.256 45.6714 138.388 45.7376 138.538L46.1954 138.589C48.0265 138.79 50.5603 139.067 52.4005 140.017C54.7031 141.205 55.6461 142.647 56.4038 143.805C56.6029 144.112 56.7929 144.4 56.9966 144.67C57.0149 144.698 57.0355 144.723 57.0561 144.748L65.7538 142.095L61.4462 131.12ZM46.1633 153.812C46.3516 153.612 46.6116 153.495 46.8863 153.486C47.1609 153.477 47.4278 153.578 47.6282 153.766C48.7406 154.812 51.0615 156.984 52.7461 158.539C52.8029 158.577 52.8558 158.62 52.9041 158.669C52.9292 158.694 52.9498 158.722 52.9727 158.747C53.7876 159.498 54.4239 160.072 54.6436 160.246C54.9732 160.512 55.2685 160.539 55.4493 160.324C55.4795 160.293 55.5024 160.256 55.5163 160.216C55.5303 160.175 55.5349 160.132 55.5298 160.089C55.5248 160.047 55.5102 160.006 55.4871 159.969C55.4641 159.933 55.4331 159.903 55.3966 159.88C55.3783 159.864 55.3646 159.843 55.3486 159.827C53.0803 157.767 48.7635 153.531 48.5415 153.313C48.3591 153.118 48.2592 152.86 48.2626 152.593C48.2659 152.325 48.3722 152.07 48.5593 151.879C48.7464 151.689 49 151.577 49.267 151.569C49.534 151.561 49.7939 151.656 49.9926 151.834C51.7894 153.597 56.6784 158.346 57.7199 159.143C58.1776 159.484 58.5988 159.553 58.7979 159.31C59.0428 159.017 58.8964 158.342 58.1479 157.673C58.0943 157.624 58.0453 157.569 58.0014 157.511C57.9579 157.472 57.9121 157.435 57.8686 157.394L56.3878 155.996L52.9773 152.773L51.6589 151.521L51.2698 151.148C50.4618 150.37 50.9288 149.738 51.0913 149.562C51.1912 149.458 51.3112 149.376 51.4438 149.32C51.5764 149.265 51.719 149.237 51.8628 149.238C52.0066 149.239 52.1487 149.269 52.2805 149.327C52.4123 149.384 52.531 149.468 52.6294 149.573C52.6687 149.607 52.7047 149.645 52.737 149.685C53.3916 150.315 56.1177 152.89 57.8114 154.492L59.2923 155.893C59.4192 156.026 59.5715 156.132 59.7401 156.205C59.9088 156.278 60.0904 156.317 60.2743 156.318C60.3403 156.32 60.4052 156.301 60.4596 156.263C60.4734 156.243 60.5008 156.089 60.3727 155.778C60.1255 155.174 59.0383 153.551 54.5521 149.477L54.2042 149.159C53.4053 148.424 52.0686 147.197 51.1851 145.872C51.1074 145.759 51.0529 145.631 51.0249 145.497C50.997 145.363 50.996 145.224 51.0221 145.089C51.0482 144.955 51.1008 144.826 51.1769 144.712C51.253 144.598 51.3512 144.5 51.4655 144.424C51.5798 144.348 51.7081 144.296 51.8429 144.27C51.9777 144.244 52.1163 144.245 52.2506 144.274C52.3849 144.302 52.5123 144.356 52.6252 144.434C52.7382 144.512 52.8345 144.612 52.9086 144.727C53.6548 145.844 54.8771 146.966 55.6072 147.637L55.946 147.948C56.786 148.71 57.5345 149.413 58.2051 150.063C58.2191 150.071 58.2337 150.078 58.2486 150.083C58.2987 150.068 58.3458 150.044 58.3882 150.012C58.4565 149.928 58.4886 149.82 58.4775 149.713C58.4775 149.411 58.2486 149.072 57.8343 148.76C57.7977 148.731 57.7625 148.7 57.729 148.667C56.8815 147.798 56.0851 146.881 55.344 145.92C55.1014 145.595 54.8862 145.263 54.6756 144.943C53.9546 143.842 53.2749 142.8 51.4575 141.862C49.9583 141.088 47.658 140.836 45.9642 140.653L45.1264 140.557C44.3548 141.983 43.4341 143.322 42.3798 144.554C41.2798 145.749 40.0808 146.849 38.7954 147.843C39.3058 148.582 39.8117 149.401 40.2717 150.15C40.7318 150.898 41.1369 151.56 41.3864 151.866C43.7257 154.764 49.7385 159.397 50.7388 159.951C50.9191 160.051 51.1273 160.09 51.3316 160.061C49.3517 158.23 46.6371 155.687 46.2045 155.279C46.1054 155.186 46.0256 155.073 45.9699 154.949C45.9141 154.825 45.8835 154.69 45.8796 154.554C45.8758 154.418 45.8989 154.282 45.9476 154.155C45.9963 154.028 46.0696 153.911 46.1633 153.812ZM40.8302 143.178C41.86 141.968 42.7528 140.647 43.4922 139.241L42.421 138.378C41.7343 139.497 40.6036 141.271 39.4294 142.56C38.2964 143.803 36.5729 145.21 35.417 146.108L36.6462 146.881C37.58 146.183 39.505 144.679 40.8302 143.178ZM58.7247 236.825C56.3855 234.207 54.1767 231.735 54.124 229.608C54.0348 226.113 54.6024 213.028 58.2303 194.671C58.5004 193.314 58.727 192.176 58.9719 190.965C56.3196 191.473 53.6269 191.742 50.9265 191.769C49.6813 191.784 48.4896 191.792 47.3512 191.794H45.7765C45.7674 191.893 45.7582 192 45.749 192.116C44.8174 202.968 44.2933 210.828 44.0232 216.527C44.0577 216.618 44.0786 216.712 44.085 216.809C44.1422 217.688 44.1995 218.514 44.2521 219.292C44.5153 223.218 44.7099 226.054 44.5199 228.945C44.478 229.569 44.3939 230.19 44.2681 230.803C44.2507 230.886 44.223 230.967 44.1857 231.043C44.6092 232.188 45.8063 233.751 47.1201 235.367C47.1396 235.387 47.1579 235.407 47.175 235.429C47.191 235.447 47.2162 235.482 47.246 235.523L47.6511 236.019C49.9148 237.672 50.9379 238.079 51.3453 238.16C54.3026 238.812 58.0792 238.269 58.7407 237.388C58.7888 237.317 58.8849 237.189 58.7247 236.825ZM52.9361 244.408H52.9476C56.7952 245.782 62.5609 244.374 62.9317 243.431C63.3093 242.428 61.9429 240.542 60.3544 238.677C59.2649 240.05 56.6418 240.508 54.2728 240.508C53.155 240.516 52.0392 240.411 50.9425 240.194C52 241.691 52.7713 243.115 52.9361 244.408ZM30.0725 242.79L32.208 243.216L32.913 243.101C32.6566 242.92 32.1989 242.643 31.7502 242.367C31.0933 241.966 30.4913 241.591 29.9649 241.222L30.0725 242.79ZM29.8436 238.471C30.2441 239.018 31.8624 240.007 32.8191 240.6C33.3454 240.903 33.8544 241.235 34.3435 241.595C35.0444 242.165 35.7144 242.772 36.3509 243.413C37.0124 244.069 37.4496 244.502 39.0724 245.516C41.3132 246.917 46.4242 246.949 49.3265 246.045C50.4321 245.699 50.8029 245.335 50.8441 245.244C51.1691 244.085 49.7294 241.948 48.0745 239.837C48.0448 239.892 48.0127 239.949 47.9784 240.007C47.2574 241.192 44.8587 241.666 42.5126 241.666C40.789 241.666 39.093 241.41 38.1133 240.991C35.9801 240.075 32.3156 236.589 30.5989 234.889C30.4822 235.253 30.37 235.601 30.2487 235.928C29.7978 237.235 29.5415 238.057 29.8459 238.471H29.8436ZM30.1297 217.578C30.8164 224.303 31.3176 229.162 31.3176 230.815C31.3162 231.389 31.271 231.962 31.1826 232.529L31.2124 232.552C32.6978 234.085 36.9826 238.247 38.9396 239.087C40.9767 239.959 45.5774 239.599 46.2274 238.913C46.5044 238.418 45.9825 237.333 45.5911 236.772C43.8103 234.584 42.2699 232.538 41.9953 230.869C41.0957 225.413 42.4141 206.685 43.6822 191.936L43.6959 191.764C37.9348 191.67 33.8125 191.363 31.1345 191.077C29.9901 190.956 28.7426 190.803 27.5868 190.62C28.3947 200.617 29.395 210.382 30.132 217.578H30.1297ZM22.7023 153.782C22.2308 157.069 24.3045 179.102 25.2201 187.976C26.7971 188.495 34.0483 189.935 50.9036 189.695C57.9602 189.596 62.3114 188.017 63.6664 187.445C63.822 186.445 64.2134 183.872 64.9962 178.289C66.9441 164.391 67.5964 153.569 67.6834 152.02L65.2114 144.43L58.5233 146.469C58.83 146.806 59.0703 147.055 59.1665 147.156C60.407 148.14 60.5718 149.216 60.5581 149.788C60.554 150.129 60.4781 150.465 60.3353 150.775C60.1925 151.084 59.9861 151.36 59.7295 151.585C61.1189 153.05 61.9589 154.165 62.2953 154.986C62.895 156.44 62.3457 157.483 61.6293 157.976C61.412 158.123 61.1713 158.233 60.9174 158.301C61.016 158.702 61.0208 159.122 60.9315 159.526C60.8422 159.93 60.6612 160.308 60.4024 160.631C60.1634 160.913 59.8652 161.139 59.529 161.293C59.1927 161.447 58.8267 161.525 58.4569 161.521C58.0629 161.517 57.6737 161.433 57.3124 161.276C57.2347 161.412 57.1451 161.541 57.0447 161.661C56.812 161.935 56.5224 162.156 56.1959 162.308C55.8695 162.46 55.514 162.539 55.154 162.54C54.4953 162.524 53.8622 162.282 53.3618 161.853C53.2749 161.782 53.133 161.661 52.9567 161.505C52.4799 161.921 51.8656 162.144 51.2332 162.132C50.7159 162.132 50.2072 162 49.7546 161.75C48.4178 161.011 42.2699 156.222 39.7934 153.155C39.3363 152.534 38.913 151.89 38.5253 151.223C38.0882 150.514 37.6098 149.738 37.152 149.058C37.0135 149.122 36.8628 149.156 36.7102 149.156C36.5149 149.157 36.3235 149.101 36.1586 148.996L33.3502 147.229C33.2174 147.229 33.0549 147.241 32.8649 147.241C30.841 147.245 28.8461 146.759 27.0512 145.824C26.5013 145.498 25.9716 145.14 25.465 144.75C24.6433 146.771 23.1303 150.836 22.7023 153.782ZM15.5106 118.305C14.8446 122.679 14.0137 128.122 14.2495 129.419C15.078 133.983 26.0281 142.942 28.0056 144.006C29.6151 144.832 31.4096 145.231 33.2174 145.165C33.9956 144.588 36.502 142.686 37.8913 141.159C39.0357 139.9 40.2054 138.042 40.805 137.039C40.7638 136.037 40.4709 133.878 39.4432 132.988C37.7792 131.546 29.4019 125.542 29.3172 125.483C29.1797 125.384 29.0684 125.253 28.993 125.101C28.9176 124.95 28.8804 124.782 28.8846 124.613L29.3423 107.487C29.3462 107.402 29.3608 107.317 29.3858 107.236C28.7747 104.967 27.5547 101.106 25.9525 98.9682C24.0413 96.439 22.3658 95.2213 21.2145 94.6353C18.6968 96.9563 17.7354 99.6709 16.6597 110.085C16.4331 112.294 15.9661 115.359 15.5152 118.309L15.5106 118.305ZM17.0373 87.5261C15.6846 91.2135 16.1355 94.9672 16.781 97.6132C17.2927 96.2526 18.0508 94.9979 19.0172 93.9121C18.8682 93.8167 18.7463 93.6846 18.6631 93.5284C18.58 93.3722 18.5385 93.1973 18.5427 93.0204C18.5468 92.8435 18.5964 92.6707 18.6868 92.5186C18.7771 92.3665 18.9051 92.2402 19.0584 92.1519L26.4492 87.858C26.4659 87.7063 26.5156 87.5602 26.5947 87.4297C26.6737 87.2993 26.7803 87.1877 26.907 87.1026L28.8891 85.8003C29.015 84.7039 28.9372 82.4104 28.8365 80.854C27.0094 80.0591 25.2234 79.1729 23.4851 78.1989C23.3882 78.3036 23.2704 78.3871 23.1395 78.4438C23.1166 78.4575 19.7725 80.0826 17.0419 87.5307L17.0373 87.5261ZM9.54811 67.9974C11.2373 69.7781 12.796 70.9203 14.6065 71.7008C15.5629 72.109 16.6015 72.2877 17.6393 72.2226C17.8525 72.1966 18.0686 72.2378 18.2573 72.3403C18.446 72.4429 18.598 72.6018 18.6922 72.7949L19.5688 73.3625C24.158 76.3518 34.9043 83.3535 50.7663 83.3603H50.78C56.0124 83.3603 61.5743 82.0969 67.308 79.5997C75.8867 75.8665 74.9757 70.5106 74.3074 66.6012C73.9091 64.2642 74.7651 60.5677 75.8547 55.8892C76.4383 53.3714 77.0815 50.595 77.6354 47.6103C77.6863 44.0733 76.9962 40.5647 75.6098 37.3103C73.2545 31.8376 69.2329 27.7955 67.6628 26.3489C66.4591 30.1543 64.1771 33.5287 61.0937 36.0629C56.3809 39.9265 50.7411 41.1145 45.5911 41.1145C43.2517 41.1026 40.9182 40.8789 38.6192 40.4461C33.6226 42.0483 28.7014 41.7073 25.7236 41.5036L25.0667 41.4601C23.7643 42.6846 18.4564 48.2077 16.7032 58.2444C16.7032 58.2811 16.6848 58.3154 16.6757 58.3497C16.6722 58.3668 16.6676 58.3836 16.6619 58.4001C16.5745 58.6549 16.3915 58.8658 16.1515 58.9883C16.0915 59.0188 16.0287 59.0434 15.9639 59.0616H15.9501C15.8899 59.0761 15.8287 59.0861 15.767 59.0913H15.751H15.6869C15.6439 59.0909 15.6011 59.0871 15.5587 59.0799C15.5419 59.0809 15.5251 59.0809 15.5083 59.0799C15.468 59.0716 15.4283 59.0609 15.3893 59.0478H15.3573C15.3054 59.0295 15.2549 59.0073 15.2062 58.9815L15.1742 58.9654C15.1292 58.9399 15.0863 58.9108 15.046 58.8785L15.0071 58.8464C14.9728 58.8144 14.9407 58.7823 14.9087 58.748L14.8652 58.6954C14.8402 58.6617 14.8172 58.6265 14.7965 58.5901C14.7965 58.5718 14.7736 58.5557 14.7645 58.5374C14.7072 58.4298 13.3499 55.8663 10.4568 56.4179C9.33982 56.6308 6.73279 57.4891 6.59774 60.8629C6.50161 63.2067 7.66208 66.006 9.5527 68.0019L9.54811 67.9974ZM5.04129 58.2925C5.86758 56.2554 7.62545 54.8477 10.0631 54.3831C10.9497 54.2032 11.866 54.2315 12.7397 54.4659C13.6135 54.7002 14.421 55.1342 15.0986 55.7335C17.6164 45.0353 23.7529 39.835 24.0253 39.6061C24.2272 39.4415 24.4841 39.3596 24.744 39.3772C25.0759 39.3932 25.449 39.4207 25.8541 39.4482C28.8548 39.6519 33.4371 39.9632 38.0149 38.4891C38.1292 38.4239 38.2552 38.3819 38.3857 38.3655C43.0665 36.7633 47.6946 33.2224 50.574 25.7355C50.6797 25.489 50.8768 25.2931 51.1239 25.1889C51.3709 25.0846 51.6488 25.0802 51.8991 25.1765C52.1494 25.2727 52.3526 25.4622 52.4662 25.7052C52.5798 25.9481 52.5948 26.2256 52.5081 26.4794C50.0201 32.9523 46.2846 36.7221 42.2974 38.8897C49.3769 39.5763 55.3692 38.0794 59.7707 34.4698C64.1722 30.8603 66.1796 25.8499 66.2002 22.6936C66.195 22.5535 66.2182 22.4138 66.2685 22.2829C66.3188 22.1521 66.3951 22.0328 66.4928 21.9322C66.5905 21.8317 66.7076 21.752 66.8369 21.698C66.9663 21.644 67.1053 21.6168 67.2455 21.6181C67.3857 21.6193 67.5242 21.649 67.6525 21.7052C67.7809 21.7615 67.8966 21.8432 67.9925 21.9455C68.0884 22.0477 68.1626 22.1684 68.2106 22.3001C68.2585 22.4318 68.2793 22.5719 68.2716 22.7119C68.2666 23.1715 68.2314 23.6302 68.1663 24.0852C68.2149 24.1133 68.2616 24.1446 68.3059 24.179C68.5486 24.3782 74.3371 29.1528 77.505 36.507C78.2703 38.2948 78.8419 40.1594 79.2102 42.0689C79.8144 39.6633 80.3546 37.0952 80.3729 35.7013C80.4233 26.4359 77.7384 22.4464 75.58 19.2396L75.3832 18.9467C72.8219 15.1334 68.8667 11.668 65.1244 9.79115C65.1473 9.82777 65.1702 9.86439 65.1908 9.90101C65.3171 10.1367 65.3474 10.412 65.2755 10.6696C65.2036 10.9271 65.0351 11.1469 64.8049 11.2831C64.5748 11.4193 64.301 11.4613 64.0407 11.4004C63.7803 11.3395 63.5535 11.1803 63.4077 10.9562C62.831 9.98411 62.1394 9.08498 61.3477 8.2782L61.2905 8.21869C58.4088 5.26374 54.0806 3.37313 48.379 2.53998C42.9383 1.74345 36.1563 1.99751 29.7749 3.23808C14.9224 6.12665 4.23333 18.9604 2.53727 35.9324C1.70641 44.3212 2.52582 51.6777 5.04588 58.2971L5.04129 58.2925Z" fill="black"/>
<path d="M63.1229 44.0853C64.3475 43.1858 66.673 42.7646 68.7765 43.0576C71.752 43.4719 73.1826 45.4289 73.2398 45.5136C73.3492 45.6683 73.414 45.8501 73.4272 46.0391C73.4404 46.2281 73.4014 46.4171 73.3145 46.5855C73.2276 46.7539 73.0961 46.8951 72.9344 46.9939C72.7727 47.0927 72.5869 47.1451 72.3975 47.1456C72.2347 47.1456 72.0741 47.1075 71.9287 47.0344C71.7832 46.9612 71.6568 46.8551 71.5597 46.7244C71.5208 46.6718 70.5504 45.3969 68.4904 45.1222C66.5997 44.8567 64.9288 45.3396 64.3475 45.7677C64.2383 45.8556 64.1125 45.9205 63.9776 45.9584C63.8427 45.9963 63.7015 46.0065 63.5625 45.9883C63.4235 45.9701 63.2897 45.9239 63.1691 45.8526C63.0485 45.7812 62.9435 45.6862 62.8607 45.5731C62.7779 45.4601 62.7188 45.3314 62.6871 45.1949C62.6554 45.0584 62.6516 44.9169 62.6761 44.7789C62.7006 44.6409 62.7529 44.5093 62.8297 44.3921C62.9065 44.2748 63.0062 44.1744 63.1229 44.0968V44.0853Z" fill="black"/>
<path d="M36.7255 43.0576C38.829 42.7646 41.1545 43.1858 42.379 44.0853C42.4957 44.1629 42.5955 44.2634 42.6723 44.3806C42.7491 44.4979 42.8013 44.6294 42.8258 44.7674C42.8503 44.9054 42.8466 45.0469 42.8149 45.1835C42.7832 45.32 42.7241 45.4486 42.6412 45.5617C42.5584 45.6747 42.4535 45.7698 42.3329 45.8411C42.2123 45.9125 42.0784 45.9587 41.9395 45.9769C41.8005 45.995 41.6593 45.9849 41.5244 45.9469C41.3895 45.909 41.2636 45.8441 41.1545 45.7562C40.5731 45.3282 38.9022 44.8407 37.0116 45.1107C34.9516 45.3969 33.9811 46.6718 33.9468 46.713C33.7832 46.9262 33.5431 47.0675 33.2773 47.1072C33.0115 47.1468 32.7407 47.0818 32.5219 46.9256C32.3032 46.7695 32.1536 46.5345 32.1047 46.2703C32.0558 46.006 32.1115 45.7331 32.2599 45.509C32.3148 45.4289 33.7477 43.4719 36.7255 43.0576Z" fill="black"/>
<path d="M57.9514 70.4966C58.2264 70.4966 58.4901 70.3874 58.6846 70.1929C58.879 69.9985 58.9883 69.7347 58.9883 69.4597V69.0935C58.9591 68.8408 58.838 68.6077 58.6481 68.4385C58.4581 68.2693 58.2126 68.1758 57.9583 68.1758C57.7039 68.1758 57.4584 68.2693 57.2685 68.4385C57.0786 68.6077 56.9575 68.8408 56.9283 69.0935V69.4597C56.9277 69.7325 57.0348 69.9946 57.2264 70.1887C57.4181 70.3829 57.6786 70.4936 57.9514 70.4966Z" fill="black"/>
<path d="M65.1051 53.2868C65.5926 53.2897 66.0691 53.4319 66.4784 53.6966C66.4975 53.6953 66.5166 53.6953 66.5356 53.6966C66.864 53.6876 67.1875 53.6145 67.4878 53.4814C67.7574 53.3223 67.9968 53.117 68.1951 52.8748C68.2749 52.7606 68.3768 52.6636 68.4949 52.5897C68.613 52.5157 68.7448 52.4664 68.8824 52.4445C69.02 52.4226 69.1606 52.4287 69.2958 52.4624C69.431 52.4961 69.558 52.5567 69.6693 52.6405C69.7806 52.7244 69.8738 52.8298 69.9434 52.9505C70.013 53.0712 70.0575 53.2047 70.0744 53.343C70.0913 53.4813 70.0801 53.6216 70.0415 53.7555C70.003 53.8894 69.9378 54.0141 69.8499 54.1223C69.4763 54.5967 69.0147 54.9946 68.4904 55.2942C68.3436 55.3764 68.1905 55.4468 68.0326 55.5048C68.5772 56.6357 68.8522 57.8775 68.836 59.1326C68.836 62.3577 67.1765 64.9739 65.1257 64.9739C63.0748 64.9739 61.3834 62.3508 61.3834 59.1258C61.3834 55.9007 63.0565 53.2868 65.1051 53.2868Z" fill="black"/>
<path d="M35.9779 53.2868C36.4654 53.2897 36.9419 53.4318 37.3513 53.6965H37.4085C37.737 53.6884 38.0606 53.6152 38.3607 53.4814C38.6302 53.3223 38.8696 53.117 39.0679 52.8748C39.2333 52.6551 39.4793 52.51 39.7517 52.4716C40.024 52.4332 40.3005 52.5045 40.5202 52.6699C40.74 52.8354 40.885 53.0813 40.9234 53.3537C40.9618 53.626 40.8905 53.9025 40.7251 54.1222C40.3508 54.596 39.8893 54.9938 39.3655 55.2941C39.2142 55.3769 39.0565 55.4473 38.894 55.5047C39.4393 56.6355 39.7151 57.8773 39.6997 59.1326C39.6997 62.3576 38.0379 64.9738 35.9871 64.9738C33.9363 64.9738 32.2768 62.3576 32.2768 59.1326C32.2768 55.9076 33.9179 53.2868 35.9779 53.2868Z" fill="black"/>
<path d="M32.4396 57.4614C32.4396 57.718 32.5157 57.969 32.6583 58.1824C32.8009 58.3958 33.0036 58.5621 33.2407 58.6604C33.4779 58.7586 33.7388 58.7843 33.9906 58.7342C34.2423 58.6842 34.4735 58.5605 34.655 58.379C34.8365 58.1975 34.9601 57.9663 35.0102 57.7146C35.0603 57.4628 35.0346 57.2019 34.9364 56.9647C34.8381 56.7276 34.6718 56.5249 34.4584 56.3823C34.245 56.2397 33.994 56.1636 33.7374 56.1636C33.5669 56.1636 33.3982 56.1971 33.2407 56.2624C33.0833 56.3276 32.9402 56.4232 32.8197 56.5437C32.6992 56.6642 32.6036 56.8073 32.5384 56.9647C32.4731 57.1222 32.4396 57.2909 32.4396 57.4614Z" fill="white"/>
<path d="M61.5704 57.4614C61.5704 57.7181 61.6466 57.9692 61.7893 58.1826C61.932 58.3961 62.1348 58.5624 62.3721 58.6606C62.6094 58.7588 62.8704 58.7843 63.1223 58.7341C63.3741 58.6838 63.6053 58.56 63.7867 58.3782C63.9681 58.1965 64.0915 57.9651 64.1414 57.7132C64.1912 57.4613 64.1651 57.2002 64.0666 56.9631C63.968 56.726 63.8013 56.5235 63.5876 56.3812C63.3739 56.2388 63.1227 56.1631 62.8659 56.1636C62.6956 56.1636 62.527 56.1972 62.3696 56.2624C62.2123 56.3277 62.0694 56.4233 61.9491 56.5438C61.8287 56.6644 61.7334 56.8075 61.6684 56.9649C61.6034 57.1223 61.5701 57.291 61.5704 57.4614Z" fill="white"/>
<path d="M51.5433 78.1212C50.9207 78.1212 49.8129 76.3908 49.0026 74.2827H54.6836C53.5163 76.5991 52.1864 78.1189 51.5433 78.1212Z" fill="#F599B1"/>
<path d="M46.7373 72.628C46.8337 72.4986 46.959 72.3935 47.1033 72.3212C47.2475 72.2488 47.4067 72.2112 47.5681 72.2114H56.3162C56.4865 72.2117 56.6541 72.2539 56.8043 72.3343C56.9544 72.4147 57.0824 72.5309 57.177 72.6725C57.2716 72.8141 57.3298 72.9769 57.3465 73.1464C57.3633 73.3159 57.338 73.4869 57.273 73.6443C56.8144 74.7107 56.2836 75.7446 55.6845 76.7388C54.2677 79.0598 52.9195 80.1905 51.5645 80.1927C50.1912 80.1927 48.9575 79.0369 47.8016 76.6564C47.3196 75.6491 46.9118 74.608 46.5816 73.5413C46.5353 73.3874 46.5253 73.2248 46.5523 73.0664C46.5793 72.9079 46.6426 72.7579 46.7373 72.628ZM51.5576 78.1213C52.1917 78.1213 53.5215 76.5992 54.698 74.2829H49.017C49.8227 76.3909 50.9305 78.1213 51.5439 78.1213H51.5576Z" fill="black"/>
<path d="M59.7821 34.4679C55.3806 38.0775 49.3883 39.5813 42.3088 38.8877C46.2205 36.7614 49.8873 33.09 52.3798 26.8414C56.9772 26.4402 61.5346 25.6686 66.0078 24.5342C65.3921 27.5921 63.3848 31.5176 59.7821 34.4679Z" fill="#754C29"/>
<path d="M29.7737 3.2376C36.1551 1.99703 42.9371 1.74296 48.3778 2.53949C54.0794 3.37264 58.4076 5.26326 61.3054 8.19989L61.3626 8.2594C62.1542 9.06618 62.8458 9.96531 63.4226 10.9374C63.5684 11.1615 63.7951 11.3207 64.0555 11.3816C64.3158 11.4425 64.5896 11.4005 64.8198 11.2643C65.0499 11.1281 65.2185 10.9083 65.2904 10.6508C65.3623 10.3932 65.3319 10.1179 65.2056 9.88222C65.185 9.84559 65.1621 9.80897 65.1392 9.77235C67.1757 10.8271 69.0674 12.1403 70.7676 13.6795C70.0122 14.0213 69.173 14.3608 68.2498 14.698C61.4015 17.1654 52.2277 18.5388 42.3855 18.5388C32.5433 18.5388 23.3649 17.1654 16.5211 14.698C15.1226 14.2008 13.7611 13.6049 12.4469 12.915C17.0408 7.92156 23.1129 4.53021 29.7737 3.2376Z" fill="#754C29"/>
<path d="M76.4912 20.5991C78.4253 23.6227 80.4189 27.6946 80.3823 35.6851C80.3823 37.0791 79.8238 39.6472 79.2196 42.0528C78.8514 40.1432 78.2797 38.2786 77.5143 36.4908C74.3465 29.1366 68.558 24.3598 68.3153 24.1629C68.271 24.1285 68.2243 24.0972 68.1757 24.0691C68.1757 24.0164 68.1757 23.9684 68.1917 23.9157C69.2378 23.6044 70.2517 23.2702 71.2199 22.92C73.0298 22.2724 74.7914 21.4968 76.4912 20.5991Z" fill="#754C29"/>
<path d="M7.30885 20.084C9.30035 21.2152 11.3884 22.1673 13.5483 22.9291C21.3305 25.7444 31.5641 27.294 42.3882 27.294C44.9884 27.294 47.5542 27.2024 50.0605 27.0284C47.1628 33.6319 42.8071 36.85 38.4056 38.363C38.275 38.3794 38.149 38.4214 38.0348 38.4866C33.457 39.9606 28.8792 39.6493 25.8739 39.4456C25.4688 39.4182 25.0957 39.3907 24.7638 39.3747C24.5039 39.3571 24.247 39.4389 24.0451 39.6036C23.7682 39.8324 17.6225 45.0328 15.1185 55.731C14.4409 55.1316 13.6334 54.6977 12.7596 54.4633C11.8858 54.229 10.9696 54.2007 10.083 54.3806C7.64531 54.8383 5.88747 56.2529 5.06118 58.29C2.54341 51.6705 1.72169 44.3141 2.55713 35.9253C3.12706 30.0772 4.78193 24.719 7.30885 20.084Z" fill="#754C29"/>
<path d="M51.9259 25.1382C52.1823 25.237 52.3889 25.4335 52.5005 25.6846C52.6121 25.9356 52.6194 26.2207 52.521 26.4772L52.3768 26.8411C51.6138 26.9128 50.8394 26.9754 50.0536 27.0288C50.2367 26.6099 50.4152 26.1796 50.5869 25.7333C50.6857 25.4769 50.8822 25.2703 51.1333 25.1587C51.3843 25.0471 51.6694 25.0397 51.9259 25.1382Z" fill="black"/>
<path d="M67.2574 21.6636C67.3936 21.6648 67.5282 21.6928 67.6535 21.746C67.7788 21.7992 67.8925 21.8766 67.9879 21.9737C68.0833 22.0709 68.1587 22.1858 68.2097 22.3121C68.2607 22.4384 68.2863 22.5734 68.2851 22.7096C68.2789 23.1161 68.249 23.5219 68.1958 23.925C67.4817 24.1386 66.7515 24.3416 66.0054 24.5338C66.1336 23.9277 66.2033 23.3107 66.2137 22.6913C66.2179 22.4173 66.3297 22.1559 66.525 21.9636C66.7203 21.7713 66.9834 21.6635 67.2574 21.6636Z" fill="black"/>
<path d="M13.5459 22.9294C11.3883 22.1672 9.3026 21.2151 7.31331 20.0843C8.72127 17.4897 10.4483 15.0814 12.4541 12.9155C13.7683 13.6055 15.1298 14.2013 16.5283 14.6986C23.3606 17.166 32.5436 18.5393 42.3858 18.5393C52.228 18.5393 61.4064 17.166 68.2501 14.6986C69.1749 14.3629 70.0141 14.0233 70.7679 13.68C72.5247 15.237 74.0823 17.0052 75.4052 18.9444L75.602 19.2374C75.8973 19.6769 76.2017 20.1324 76.5176 20.6107C74.811 21.5085 73.0426 22.2833 71.2257 22.9294C70.2529 23.2796 69.2435 23.616 68.1975 23.925C68.2507 23.522 68.2805 23.1162 68.2868 22.7096C68.2945 22.5697 68.2737 22.4296 68.2258 22.2979C68.1778 22.1661 68.1036 22.0455 68.0077 21.9433C67.9118 21.841 67.7961 21.7593 67.6677 21.703C67.5393 21.6467 67.4008 21.6171 67.2606 21.6158C67.1205 21.6146 66.9815 21.6418 66.8521 21.6958C66.7227 21.7498 66.6057 21.8295 66.5079 21.93C66.4102 22.0305 66.3339 22.1498 66.2836 22.2807C66.2333 22.4115 66.2101 22.5512 66.2153 22.6913C66.205 23.3108 66.1352 23.9278 66.007 24.5339C61.5338 25.6683 56.9764 26.4399 52.3791 26.8411L52.5233 26.4771C52.6099 26.2234 52.5949 25.9459 52.4814 25.7029C52.3678 25.46 52.1646 25.2705 51.9143 25.1742C51.664 25.078 51.3861 25.0824 51.139 25.1867C50.892 25.2909 50.6949 25.4868 50.5891 25.7333C50.4175 26.1796 50.239 26.6099 50.0558 27.0288C47.5381 27.2027 44.9837 27.2943 42.3835 27.2943C31.5548 27.2943 21.3121 25.7447 13.5459 22.9294Z" fill="#A97C50"/>
<path d="M48.1074 244.584C48.2252 244.77 48.3962 244.915 48.5981 245.002C48.8 245.089 49.0233 245.113 49.239 245.071C49.4547 245.029 49.6526 244.922 49.8069 244.766C49.9611 244.609 50.0646 244.41 50.1037 244.194C50.1428 243.977 50.1157 243.754 50.026 243.554C49.9363 243.353 49.7882 243.184 49.6009 243.069C49.4137 242.954 49.1961 242.898 48.9766 242.909C48.7571 242.919 48.5459 242.996 48.3707 243.128C48.1432 243.287 47.9878 243.529 47.9385 243.802C47.8891 244.075 47.9499 244.356 48.1074 244.584Z" fill="#BCBEC0"/>
<path d="M60.2803 242.927C60.3983 243.112 60.5694 243.257 60.7713 243.344C60.9732 243.43 61.1964 243.454 61.4119 243.412C61.6274 243.369 61.8251 243.263 61.9792 243.106C62.1333 242.95 62.2366 242.75 62.2756 242.534C62.3146 242.318 62.2876 242.095 62.1979 241.895C62.1083 241.694 61.9603 241.525 61.7732 241.41C61.5862 241.295 61.3687 241.239 61.1493 241.25C60.93 241.26 60.7188 241.337 60.5435 241.469C60.3154 241.627 60.1596 241.87 60.1102 242.143C60.0609 242.417 60.1221 242.699 60.2803 242.927Z" fill="#BCBEC0"/>
<path d="M25.9307 68.3383C25.9307 69.3133 27.6771 70.1007 29.8218 70.1007C31.9665 70.1007 33.7129 69.3133 33.7129 68.3383C33.7129 67.3632 31.9665 66.5781 29.8218 66.5781C27.6771 66.5781 25.9307 67.3655 25.9307 68.3383Z" fill="#FBBEA7"/>
<path d="M66.5479 68.3383C66.5479 69.3133 68.2943 70.1007 70.439 70.1007C72.5837 70.1007 74.3301 69.3133 74.3301 68.3383C74.3301 67.3632 72.586 66.5781 70.439 66.5781C68.292 66.5781 66.5479 67.3655 66.5479 68.3383Z" fill="#FBBEA7"/>
</svg>
