<svg width="79" height="250" viewBox="0 0 79 250" fill="none" xmlns="http://www.w3.org/2000/svg">
<path d="M42.2495 93.8149C42.2254 94.59 42.1725 95.5913 42.0762 96.9007C42.0762 96.9248 42.0762 96.9536 42.0762 96.9777C42.0762 97.0018 42.1051 97.0451 42.1147 97.0788L44.1269 104.781L51.5356 105.71L51.9111 97.6709C50.6595 97.0884 47.8866 95.8224 46.8276 95.3891C45.3304 94.784 43.8022 94.2586 42.2495 93.8149Z" fill="#1B75BC"/>
<path d="M32.2075 95.3603C31.1436 95.7936 28.3563 97.0596 27.1191 97.6421L27.4946 105.681L34.9082 104.752L36.9204 97.05C36.9311 97.0155 36.944 96.9818 36.9589 96.9489V96.8719C36.8674 95.5625 36.8097 94.5612 36.7904 93.7861C35.2361 94.2296 33.7063 94.7551 32.2075 95.3603Z" fill="#1B75BC"/>
<path d="M29.3232 103.775C29.2006 103.774 29.0818 103.732 28.9863 103.655C28.9316 103.607 28.8871 103.549 28.8557 103.483C28.8242 103.418 28.8064 103.347 28.8033 103.274L28.5434 96.0967C28.538 95.9619 28.5852 95.8303 28.6751 95.7297C28.7649 95.6291 28.8903 95.5674 29.0248 95.5575C29.0918 95.5536 29.159 95.563 29.2224 95.5851C29.2858 95.6072 29.3442 95.6416 29.3943 95.6863C29.4444 95.731 29.4851 95.7852 29.5143 95.8457C29.5434 95.9062 29.5603 95.9719 29.5639 96.0389L29.8046 102.648L35.9858 101.854C36.123 101.837 36.2615 101.875 36.3708 101.96C36.48 102.045 36.551 102.169 36.5683 102.307C36.5855 102.444 36.5475 102.582 36.4627 102.692C36.3778 102.801 36.253 102.872 36.1158 102.889L29.3762 103.751L29.3232 103.775Z" fill="#27AAE1"/>
<path d="M49.7414 103.775H49.674L42.9345 102.913C42.7979 102.895 42.6741 102.824 42.5901 102.715C42.5062 102.605 42.469 102.467 42.4868 102.331C42.506 102.194 42.5775 102.071 42.6863 101.986C42.795 101.902 42.9324 101.863 43.0693 101.878L49.2504 102.673L49.4863 96.063C49.4914 95.9251 49.5511 95.7949 49.6522 95.701C49.7023 95.6545 49.761 95.6184 49.825 95.5946C49.8891 95.5708 49.9572 95.5598 50.0255 95.5624C50.0937 95.5649 50.1608 95.5808 50.2229 95.6093C50.2851 95.6378 50.341 95.6782 50.3874 95.7283C50.4339 95.7783 50.4701 95.8371 50.4939 95.9011C50.5177 95.9651 50.5286 96.0333 50.5261 96.1015L50.271 103.279C50.2612 103.41 50.2022 103.533 50.1057 103.622C50.0092 103.711 49.8825 103.761 49.7511 103.761L49.7414 103.775Z" fill="#27AAE1"/>
<path d="M37.623 27.8831C38.5074 29.7737 39.5325 31.5953 40.6896 33.3325C42.6011 36.1232 45.2443 38.3334 48.3293 39.7207C48.4785 39.7766 48.6122 39.8674 48.7193 39.9854C50.9463 40.59 53.2479 40.8752 55.5551 40.8327C58.3499 40.7947 61.1363 40.516 63.8833 39.9999C64.0473 39.9647 64.2173 39.9695 64.379 40.0139C64.5407 40.0583 64.6894 40.141 64.8124 40.255C64.9761 40.4091 68.8513 44.0532 70.5555 47.2786C71.8408 49.7685 72.8729 52.3812 73.6364 55.0773C73.8721 55.0119 74.1143 54.9732 74.3585 54.9617C74.9747 52.6847 76.5489 46.5902 76.7655 43.1386C77.3336 34.8971 76.2119 28.0227 73.4246 22.6984C73.2417 22.3566 73.0587 22.0197 72.871 21.6875C64.408 25.7986 51.8772 27.912 39.4331 27.912C38.8506 27.9023 38.2344 27.8927 37.623 27.8831Z" fill="#754C29"/>
<path d="M27.098 34.4199C31.1851 38.8777 39.5566 39.7875 44.4283 39.9223C42.2838 38.4747 40.433 36.6338 38.9741 34.4969C37.5622 32.3814 36.3364 30.1474 35.3107 27.8199C30.8486 27.6629 26.4019 27.2094 22 26.4624C23.1746 28.879 24.9413 32.0659 27.098 34.4199Z" fill="#754C29"/>
<path d="M2.62455 34.1068C1.35848 43.7588 4.03024 53.459 4.48275 55.0042C4.87366 54.9844 5.26524 55.0266 5.64292 55.1294C5.99915 52.1544 7.17377 44.3654 10.3317 37.2118C13.0998 30.9536 16.0796 27.2805 17.6827 25.6005C13.7824 24.7572 9.98458 23.495 6.35539 21.8359C4.48447 25.7086 3.22588 29.8481 2.62455 34.1068Z" fill="#754C29"/>
<path d="M67.4792 14.2204C60.7059 6.96575 51.3909 2.93164 40.8097 2.93164C31.4032 2.93164 25.2846 4.80428 21.5538 8.82395C21.5538 8.82395 21.5538 8.82395 21.5201 8.85284L21.4335 8.92986L21.3613 8.98281C21.3309 9.00487 21.2987 9.0242 21.265 9.04058L21.1783 9.07909L21.082 9.11279L20.9809 9.13686H20.9328C17.2212 9.67121 14.0921 11.5968 11.5215 14.2589C17.2068 16.7285 26.5603 18.9574 39.4426 18.9574C52.3248 18.9574 61.7987 16.7044 67.4792 14.2204Z" fill="#754C29"/>
<path d="M39.4583 18.9574C26.5617 18.9574 17.2081 16.7285 11.5373 14.2589C9.42335 16.4969 7.67529 19.054 6.35742 21.8361C9.982 23.4942 13.7749 24.7564 17.6703 25.6007C18.0373 25.2083 18.4263 24.8371 18.8353 24.4886C18.6523 24.0072 18.5464 23.7425 18.5223 23.6895C18.4749 23.5612 18.4533 23.4248 18.4586 23.2881C18.4639 23.1514 18.4961 23.017 18.5533 22.8928C18.6105 22.7685 18.6916 22.6567 18.792 22.5638C18.8925 22.4709 19.0102 22.3986 19.1385 22.3512C19.2669 22.3038 19.4033 22.2821 19.54 22.2875C19.6767 22.2928 19.811 22.3249 19.9353 22.3822C20.0596 22.4394 20.1714 22.5205 20.2643 22.6209C20.3572 22.7214 20.4294 22.8391 20.4768 22.9674C20.4768 23.0011 21.0352 24.4694 21.998 26.4624C26.3936 27.2085 30.8338 27.662 35.2894 27.8199C35.0872 27.3385 34.9717 27.0737 34.9573 27.0352C34.8737 26.784 34.889 26.5104 35.0002 26.2702C35.1114 26.0299 35.3101 25.8411 35.5556 25.7423C35.8012 25.6435 36.0753 25.642 36.3219 25.7382C36.5685 25.8345 36.7691 26.0211 36.8829 26.2602C36.8829 26.2602 37.1476 26.9101 37.605 27.8825C38.2163 27.8825 38.8277 27.8825 39.4391 27.8825C51.8832 27.8825 64.414 25.7692 72.877 21.658C71.3785 18.9635 69.5601 16.4597 67.4613 14.2012C61.8 16.7044 52.4176 18.9574 39.4583 18.9574Z" fill="#A97C50"/>
<path d="M35.5472 25.6829C35.4204 25.7338 35.3049 25.8091 35.2072 25.9046C35.1096 26.0001 35.0317 26.114 34.9781 26.2396C34.9244 26.3652 34.8961 26.5002 34.8946 26.6368C34.8931 26.7734 34.9186 26.9089 34.9695 27.0356C34.9695 27.0742 35.0995 27.363 35.3017 27.8203C36.0767 27.8492 36.847 27.8733 37.622 27.8829C37.1406 26.9201 36.9047 26.2798 36.8999 26.2606C36.7962 26.0054 36.5958 25.8015 36.3425 25.6933C36.0891 25.5851 35.8033 25.5814 35.5472 25.6829Z" fill="#9F7A5C"/>
<path d="M19.1507 22.3512C18.892 22.4476 18.6819 22.6425 18.5665 22.8932C18.451 23.144 18.4395 23.4303 18.5345 23.6895C18.5345 23.7425 18.6645 24.0313 18.8474 24.4886C18.4335 24.8366 18.0397 25.2079 17.668 25.6007C19.0737 25.9216 20.5178 26.2088 22.0005 26.4624C21.0378 24.4694 20.489 23.0011 20.4793 22.9674C20.3829 22.711 20.1896 22.5027 19.9411 22.3875C19.6926 22.2722 19.4087 22.2592 19.1507 22.3512Z" fill="#9F7A5C"/>
<path d="M30.1846 245.267C30.0209 245.802 29.2218 246.033 28.4468 245.787C27.6717 245.542 27.1374 244.906 27.3011 244.377C27.4647 243.847 28.2638 243.611 29.0437 243.857C29.8236 244.102 30.3483 244.738 30.1846 245.267Z" fill="#BCBEC0"/>
<path d="M44.4728 245.643C44.3043 246.177 43.51 246.408 42.7302 246.163C41.9503 245.917 41.4208 245.282 41.5844 244.752C41.7481 244.223 42.5472 243.987 43.3271 244.233C44.107 244.478 44.6269 245.113 44.4728 245.643Z" fill="#BCBEC0"/>
<path d="M28.6317 233.242C28.3885 234.506 28.067 235.754 27.6689 236.978C27.64 237.074 27.6063 237.185 27.5774 237.291C27.8325 238.138 28.4295 239.414 29.0216 239.698C29.9844 240.218 35.3183 240.584 36.5266 240.088C37.1717 239.823 37.9948 238.485 38.4522 237.469C38.4566 237.35 38.481 237.233 38.5244 237.122C38.4233 229.454 38.0959 214.497 37.5616 193.315C32.5563 193.104 27.5654 192.632 22.6094 191.9C26.9997 218.858 28.8627 231.63 28.6317 233.242Z" fill="#FEDCC6"/>
<path d="M71.6871 55.8039C70.9531 53.1904 69.9597 50.6569 68.7216 48.2411C67.47 45.8726 64.7694 43.1094 63.7729 42.1322C61.0702 42.6107 58.3335 42.8715 55.5891 42.912C53.0596 42.9423 50.5382 42.6182 48.0986 41.9492C46.173 42.0648 31.8562 42.6569 25.574 35.8018C22.9503 32.9471 20.9188 29.0622 19.7298 26.4819C18.5504 27.6228 15.2528 31.2044 12.2392 38.0355C8.46027 46.5996 7.60338 56.4297 7.59375 56.5308C7.59375 56.5308 7.59375 56.5308 7.59375 56.5549C7.94517 57.7198 8.30622 58.8126 8.66245 59.8765C9.28346 61.7395 9.87076 63.5014 10.2944 65.3596C10.5169 66.4995 10.6665 67.6524 10.7421 68.8113C10.9395 71.0835 11.1657 73.6541 12.2537 75.392C13.8423 77.9386 19.6335 80.7692 22.4304 81.6501C24.8374 82.4011 33.5026 84.3026 39.5297 84.3026C45.5568 84.3026 54.2075 82.377 56.6338 81.6501C59.4259 80.7788 65.2171 77.9482 66.8105 75.392C67.8936 73.6541 68.1199 71.0835 68.3221 68.8113C68.3953 67.6521 68.5449 66.4991 68.7698 65.3596C69.2212 63.5072 69.7659 61.6788 70.4017 59.8813C70.8205 58.6008 71.2682 57.2577 71.6871 55.8039ZM38.4706 69.9859C38.4706 69.8493 38.4975 69.7141 38.5498 69.5879C38.602 69.4618 38.6786 69.3472 38.7752 69.2506C38.8717 69.154 38.9864 69.0774 39.1125 69.0252C39.2387 68.9729 39.3739 68.946 39.5104 68.946C39.647 68.946 39.7822 68.9729 39.9083 69.0252C40.0345 69.0774 40.1491 69.154 40.2457 69.2506C40.3422 69.3472 40.4188 69.4618 40.4711 69.5879C40.5234 69.7141 40.5502 69.8493 40.5502 69.9859V70.3517C40.5502 70.6275 40.4407 70.892 40.2457 71.087C40.0507 71.282 39.7862 71.3915 39.5104 71.3915C39.2346 71.3915 38.9702 71.282 38.7752 71.087C38.5802 70.892 38.4706 70.6275 38.4706 70.3517V69.9859ZM19.1762 47.5527C19.0968 47.664 18.9964 47.7585 18.8805 47.831C18.7646 47.9034 18.6356 47.9523 18.5008 47.9749C18.366 47.9974 18.2281 47.9932 18.095 47.9625C17.9618 47.9318 17.836 47.8752 17.7248 47.7958C17.6135 47.7165 17.519 47.616 17.4465 47.5001C17.3741 47.3843 17.3252 47.2552 17.3026 47.1205C17.28 46.9857 17.2842 46.8478 17.315 46.7146C17.3457 46.5815 17.4023 46.4557 17.4817 46.3444C18.5977 44.9706 20.2056 44.0864 21.9635 43.8797C24.0816 43.5812 26.4116 44.0096 27.644 44.9098C27.754 44.9908 27.847 45.0926 27.9176 45.2094C27.9883 45.3263 28.0352 45.4559 28.0558 45.5909C28.0764 45.7259 28.0701 45.8636 28.0375 45.9962C28.0048 46.1288 27.9463 46.2537 27.8654 46.3637C27.7845 46.4737 27.6827 46.5667 27.5658 46.6373C27.449 46.708 27.3194 46.7549 27.1844 46.7755C27.0494 46.7961 26.9116 46.7898 26.779 46.7572C26.6465 46.7245 26.5216 46.666 26.4116 46.5851C25.8291 46.1567 24.149 45.6753 22.2523 45.94C21.0611 46.0734 19.9634 46.6489 19.1762 47.5527ZM24.4716 66.5631C22.4208 66.5631 20.76 63.9491 20.76 60.7238C20.7601 60.0976 20.8263 59.4731 20.9574 58.8608C20.955 58.8223 20.955 58.7837 20.9574 58.7452C21.0863 58.174 21.2818 57.6198 21.5398 57.094C21.3747 57.0365 21.2138 56.9673 21.0584 56.887C20.5346 56.5846 20.0724 56.1861 19.6961 55.7124C19.5301 55.4922 19.4584 55.215 19.4968 54.9419C19.5352 54.6688 19.6804 54.4222 19.9007 54.2562C20.1209 54.0902 20.3981 54.0185 20.6712 54.0569C20.9443 54.0953 21.1909 54.2405 21.3569 54.4608C21.5563 54.7007 21.7957 54.9043 22.0646 55.0625C22.3671 55.2005 22.6949 55.2742 23.0274 55.2792H23.0948C23.4987 55.0198 23.9675 54.8796 24.4475 54.8748C26.4982 54.8748 28.1591 57.4888 28.1591 60.7141C28.1591 63.9395 26.5127 66.5631 24.4619 66.5631H24.4716ZM43.7708 76.7639C42.4344 77.1799 41.0448 77.4004 39.6452 77.4186H39.3323C37.9516 77.4008 36.581 77.1802 35.2645 76.7639C35.0062 76.673 34.7942 76.4839 34.6745 76.2376C34.5548 75.9913 34.5371 75.7078 34.6252 75.4485C34.7134 75.1893 34.9002 74.9752 35.1451 74.8529C35.3901 74.7305 35.6734 74.7097 35.9336 74.795C37.0431 75.1372 38.1955 75.3203 39.3564 75.339H39.6019C40.7867 75.3192 41.963 75.1345 43.0968 74.7902C43.3575 74.7073 43.6404 74.7304 43.8842 74.8546C44.1279 74.9788 44.3129 75.1941 44.399 75.4537C44.4852 75.7134 44.4655 75.9965 44.3443 76.2418C44.2231 76.487 44.0101 76.6746 43.7515 76.7639H43.7708ZM54.6456 66.5631C52.5948 66.5631 50.934 63.9491 50.934 60.7238C50.9341 60.0976 51.0003 59.4731 51.1314 58.8608C51.1291 58.8223 51.1291 58.7837 51.1314 58.7452C51.2582 58.1733 51.4537 57.6189 51.7139 57.094C51.5487 57.0365 51.3878 56.9673 51.2325 56.887C50.7086 56.5846 50.2464 56.1861 49.8701 55.7124C49.7041 55.4922 49.6324 55.215 49.6708 54.9419C49.7092 54.6688 49.8545 54.4222 50.0747 54.2562C50.2949 54.0902 50.5721 54.0185 50.8452 54.0569C51.1183 54.0953 51.365 54.2405 51.5309 54.4608C51.7303 54.7007 51.9697 54.9043 52.2386 55.0625C52.5411 55.2005 52.8689 55.2742 53.2014 55.2792H53.2688C53.6723 55.0191 54.1414 54.8789 54.6215 54.8748C56.6674 54.8748 58.3331 57.4888 58.3331 60.7141C58.3331 63.9395 56.6626 66.5631 54.6359 66.5631H54.6456ZM61.3274 47.7886C61.217 47.8683 61.0919 47.9253 60.9593 47.9563C60.8268 47.9874 60.6894 47.9918 60.5551 47.9695C60.4208 47.9471 60.2923 47.8983 60.1769 47.8259C60.0616 47.7536 59.9618 47.6591 59.8832 47.5479C59.0987 46.6406 57.9995 46.0644 56.8071 45.9352C54.8815 45.6705 53.2303 46.1518 52.643 46.5803C52.5336 46.6694 52.4073 46.7354 52.2717 46.7741C52.136 46.8129 51.9939 46.8236 51.854 46.8057C51.7141 46.7878 51.5793 46.7416 51.4578 46.67C51.3363 46.5983 51.2306 46.5027 51.1472 46.3889C51.0639 46.2751 51.0045 46.1456 50.9728 46.0081C50.9411 45.8707 50.9377 45.7282 50.9627 45.5894C50.9878 45.4506 51.0409 45.3183 51.1187 45.2007C51.1965 45.083 51.2975 44.9824 51.4154 44.905C52.643 44.0048 54.9777 43.5764 57.0911 43.8748C58.8496 44.0838 60.4582 44.9675 61.5777 46.3396C61.6567 46.4519 61.7126 46.5788 61.7423 46.7128C61.772 46.8469 61.7748 46.9855 61.7507 47.1207C61.7265 47.2558 61.6758 47.3849 61.6015 47.5003C61.5272 47.6158 61.4308 47.7154 61.3177 47.7934L61.3274 47.7886Z" fill="#FEDCC6"/>
<path d="M74.7192 57.0843C74.1945 56.8629 73.5349 57.4069 73.3231 57.6042C73.0054 58.6296 72.6781 59.6068 72.3603 60.5552C71.7538 62.3701 71.1809 64.0838 70.7813 65.8506C70.5804 66.8984 70.4469 67.958 70.3818 69.023C70.2878 70.303 70.1271 71.5772 69.9004 72.8405C70.325 72.7751 70.7324 72.6262 71.0991 72.4024C72.3652 71.6418 73.4676 70.5153 74.671 68.7486C75.8264 67.0589 76.6544 64.2235 76.8325 61.3495C76.9962 58.9281 75.8457 57.5609 74.7192 57.0843Z" fill="#FEDCC6"/>
<path d="M50.6526 94.7875L53.411 96.0536C53.5985 96.1404 53.7559 96.2811 53.863 96.4577C53.9702 96.6343 54.0223 96.8389 54.0128 97.0452L53.5314 106.909C53.5253 107.052 53.4896 107.192 53.4266 107.321C53.3637 107.449 53.2748 107.563 53.1655 107.655C52.9765 107.813 52.738 107.9 52.4916 107.901C52.4484 107.906 52.4048 107.906 52.3616 107.901L43.1813 106.736C42.9754 106.711 42.7818 106.624 42.6255 106.488C42.4693 106.351 42.3577 106.171 42.3052 105.97L42.2763 105.855L40.2929 108.358C40.1951 108.481 40.0706 108.581 39.9289 108.649C39.7872 108.717 39.6319 108.753 39.4746 108.753C39.3157 108.753 39.1588 108.717 39.0167 108.646C38.8746 108.575 38.7511 108.471 38.6562 108.344L36.7739 105.874V105.961C36.7199 106.161 36.6072 106.342 36.4503 106.478C36.2934 106.614 36.0993 106.701 35.893 106.726L26.6357 107.877C26.5925 107.881 26.5489 107.881 26.5057 107.877C26.2431 107.876 25.9903 107.777 25.7976 107.599C25.6049 107.42 25.4865 107.176 25.4659 106.914L24.9845 97.0501C24.9762 96.8439 25.0289 96.6399 25.1359 96.4635C25.2429 96.2871 25.3996 96.1462 25.5862 96.0584L28.3446 94.7923L25.8654 90.2431L18.9141 92.135L21.1429 100.015C21.2729 99.9463 21.4162 99.9057 21.5632 99.8966C21.7102 99.8874 21.8575 99.9099 21.995 99.9625C22.2519 100.061 22.4594 100.257 22.5722 100.507C22.685 100.758 22.6938 101.043 22.5968 101.301C22.5679 101.373 19.8865 108.493 20.546 113.085C20.7337 114.404 21.0274 116.152 21.3933 118.169C21.8313 120.677 22.3272 123.517 22.7075 126.184C22.7194 126.262 22.7194 126.342 22.7075 126.42C25.4996 128.524 30.665 132.428 31.9166 133.535C33.3608 134.796 33.8663 136.881 34.0348 138.041C34.1344 138.082 34.2257 138.141 34.3044 138.214L36.6391 140.361C36.8168 140.524 36.9311 140.744 36.9617 140.982C38.6961 140.42 40.4917 140.068 42.31 139.933L42.7914 139.88C42.8576 139.732 42.9563 139.6 43.0802 139.495L45.7616 137.333C45.8063 137.3 45.8529 137.27 45.9012 137.242C45.9638 136.038 46.3008 133.973 47.7546 132.717C49.0351 131.605 53.7962 128.144 56.3909 126.271C56.7712 123.58 57.2767 120.706 57.7195 118.169C58.071 116.147 58.3791 114.404 58.5668 113.085C59.2215 108.493 56.5401 101.373 56.516 101.301C56.4445 101.11 56.4308 100.902 56.4765 100.703C56.5222 100.504 56.6254 100.323 56.7731 100.183C56.9209 100.042 57.1068 99.9483 57.3076 99.9125C57.5084 99.8768 57.7153 99.9008 57.9025 99.9818L60.1217 92.135L53.1511 90.2383L50.6526 94.7875ZM39.4697 137.463C39.0754 137.464 38.6896 137.348 38.3612 137.13C38.0328 136.911 37.7766 136.601 37.625 136.236C37.4735 135.872 37.4333 135.471 37.5097 135.085C37.586 134.698 37.7755 134.342 38.054 134.063C38.3325 133.784 38.6876 133.593 39.0744 133.516C39.4611 133.439 39.8621 133.478 40.2265 133.629C40.591 133.779 40.9025 134.035 41.1217 134.363C41.3409 134.691 41.4579 135.076 41.4579 135.47C41.4567 135.998 41.2469 136.503 40.8745 136.877C40.5021 137.25 39.9971 137.461 39.4697 137.463ZM39.5516 127.253C39.1572 127.254 38.7714 127.138 38.443 126.919C38.1147 126.701 37.8585 126.39 37.7069 126.026C37.5553 125.662 37.5151 125.261 37.5915 124.874C37.6679 124.487 37.8573 124.132 38.1358 123.852C38.4144 123.573 38.7695 123.383 39.1562 123.306C39.5429 123.228 39.9439 123.268 40.3083 123.418C40.6728 123.569 40.9843 123.824 41.2035 124.152C41.4228 124.48 41.5398 124.866 41.5398 125.26C41.5385 125.787 41.3288 126.293 40.9563 126.666C40.5839 127.039 40.0789 127.25 39.5516 127.253ZM39.5516 116.349C39.1572 116.35 38.7714 116.234 38.443 116.016C38.1147 115.797 37.8585 115.486 37.7069 115.122C37.5553 114.758 37.5151 114.357 37.5915 113.97C37.6679 113.584 37.8573 113.228 38.1358 112.949C38.4144 112.67 38.7695 112.479 39.1562 112.402C39.5429 112.325 39.9439 112.364 40.3083 112.515C40.6728 112.665 40.9843 112.921 41.2035 113.249C41.4228 113.576 41.5398 113.962 41.5398 114.356C41.5385 114.884 41.3288 115.389 40.9563 115.762C40.5839 116.136 40.0789 116.347 39.5516 116.349Z" fill="#58595B"/>
<path d="M54.5058 84.3506C52.9894 84.702 51.0831 85.0919 49.0371 85.4385L53.5719 86.8346C53.7187 86.8807 53.8536 86.9587 53.9668 87.063C54.0799 87.1673 54.1687 87.2953 54.2266 87.4379C54.2846 87.5805 54.3103 87.7341 54.302 87.8878C54.2937 88.0415 54.2515 88.1914 54.1784 88.3269V88.3606L57.1198 89.1597C56.986 88.047 56.581 86.984 55.9404 86.0644C55.2616 85.2508 54.7994 84.6828 54.5058 84.3506Z" fill="#754C29"/>
<path d="M60.6141 113.384C60.4215 114.732 60.1327 116.489 59.7572 118.525C59.5935 119.44 59.4299 120.393 59.2758 121.366C59.3394 121.49 59.3786 121.626 59.3913 121.765L59.738 125.799C59.7525 125.979 59.7203 126.16 59.6444 126.323C59.5684 126.487 59.4514 126.628 59.3047 126.733C59.2229 126.796 50.7936 132.837 49.1183 134.286C48.0352 135.249 47.9245 137.314 47.9774 138.041C47.9871 138.123 47.9871 138.205 47.9774 138.287L55.5113 146.557C57.2944 146.604 59.0608 146.202 60.6478 145.387C62.5204 144.376 71.5948 135.639 72.4565 130.893C72.7598 129.237 71.3589 122.627 70.3335 117.803C70.0158 116.311 69.7125 114.886 69.4622 113.639C68.2924 107.785 64.3931 97.652 63.5169 96.3811C62.9665 95.6269 62.3616 94.9142 61.7069 94.2485L59.2614 102.914C60.0316 105.557 61.1003 109.966 60.6141 113.384Z" fill="white"/>
<path d="M50.7598 157.721C50.7887 157.721 50.808 157.528 50.6828 157.239C50.4229 156.604 49.59 155.723 48.6417 154.765C48.401 155.059 48.1266 155.367 47.8281 155.684L49.5949 157.36C49.7353 157.523 49.9192 157.644 50.1253 157.708C50.3314 157.772 50.5514 157.776 50.7598 157.721Z" fill="#FEDCC6"/>
<path d="M45.6341 161.312C45.127 160.853 44.4851 160.25 43.7085 159.502C43.4918 159.685 43.2752 159.868 43.0586 160.041L43.1789 160.147L43.2271 160.2C44.3535 161.235 44.7868 161.615 44.9312 161.731C45.2634 162 45.5619 162.029 45.7448 161.808C45.7752 161.777 45.7982 161.74 45.8122 161.699C45.8262 161.658 45.8309 161.614 45.8258 161.571C45.8207 161.528 45.806 161.487 45.7829 161.45C45.7597 161.414 45.7286 161.383 45.6918 161.36L45.6341 161.312Z" fill="#FEDCC6"/>
<path d="M41.5959 161.533L41.3985 161.35L41.2012 161.504C41.3293 161.541 41.4638 161.551 41.5959 161.533Z" fill="#009444"/>
<path d="M49.0986 160.782C49.3441 160.484 49.1997 159.819 48.4439 159.131C48.3877 159.081 48.3376 159.024 48.2947 158.963L48.1647 158.852L46.3546 157.133C46.0032 157.461 45.6422 157.793 45.2715 158.12C47.0382 159.795 47.7411 160.407 48.0106 160.614C48.4776 160.956 48.8964 161.023 49.0986 160.782Z" fill="#FEDCC6"/>
<path d="M53.392 147.351L46.2962 139.567L45.2227 140.429L52.0778 148.179L53.392 147.351Z" fill="white"/>
<path d="M40.5938 237.493C41.0751 238.508 41.8887 239.847 42.5193 240.111C43.7228 240.593 49.0519 240.241 50.0195 239.722C50.6309 239.399 51.2615 238.008 51.4974 237.165L51.4396 236.978C51.0334 235.754 50.7038 234.506 50.4528 233.242C50.2265 231.624 52.0895 218.858 56.4895 191.904C51.5337 192.643 46.5429 193.125 41.5373 193.348C41.0174 214.819 40.69 229.935 40.5938 237.493Z" fill="#FEDCC6"/>
<path d="M60.6882 147.654C59.1244 148.305 57.4475 148.64 55.7538 148.641H55.2725L52.4418 150.422C52.2759 150.526 52.084 150.581 51.8882 150.581C51.7348 150.582 51.5834 150.547 51.4453 150.48C50.9639 151.164 50.4825 151.924 50.0541 152.661L49.8423 153.003C51.1469 154.307 52.1722 155.366 52.6151 156.44C53.2169 157.884 52.6633 158.953 51.946 159.444C51.728 159.594 51.4852 159.705 51.2287 159.771C51.3276 160.176 51.3322 160.597 51.242 161.004C51.1519 161.41 50.9694 161.791 50.7088 162.115C50.4695 162.4 50.1701 162.628 49.8321 162.783C49.4942 162.938 49.1261 163.016 48.7543 163.011C48.3565 163.004 47.9639 162.919 47.599 162.761C47.5197 162.9 47.4278 163.032 47.3246 163.155C47.0873 163.434 46.7919 163.657 46.4593 163.809C46.1267 163.961 45.7648 164.039 45.399 164.036C44.7389 164.022 44.1035 163.783 43.5986 163.357C43.5263 163.3 43.406 163.199 43.1797 162.996C42.7038 163.418 42.0873 163.647 41.4515 163.637C40.9327 163.636 40.4226 163.503 39.9688 163.252C39.7546 163.132 39.5473 163 39.3478 162.857C39.0927 163.03 38.8664 163.17 38.7316 163.252C38.2762 163.503 37.7645 163.636 37.2441 163.637C36.6097 163.647 35.9947 163.418 35.5207 162.996L35.1019 163.357C34.5957 163.784 33.9584 164.024 33.2966 164.036C32.9309 164.038 32.5691 163.961 32.2365 163.809C31.9039 163.656 31.6086 163.433 31.371 163.155C31.2857 163.029 31.2116 162.895 31.1496 162.756C30.7828 162.914 30.3887 162.999 29.9894 163.006C29.6179 163.01 29.2501 162.931 28.9122 162.777C28.5744 162.622 28.2749 162.394 28.035 162.111C27.7752 161.786 27.5936 161.405 27.5043 160.998C27.4149 160.592 27.4203 160.17 27.5199 159.766C27.263 159.701 27.0201 159.59 26.8026 159.439C26.0805 158.958 25.5269 157.898 26.1286 156.435C26.4704 155.607 27.3129 154.509 28.7137 153.012C28.3398 152.69 28.0756 152.259 27.9579 151.78H27.9002C27.6776 151.781 27.461 151.708 27.284 151.573L24.877 149.787C24.7468 149.691 24.6412 149.566 24.5689 149.421C22.4332 149.116 20.3469 148.532 18.3637 147.683C17.5934 150.485 17.1024 152.497 16.958 153.378C16.7269 154.919 17.9593 175.349 18.8836 189.233C19.4227 189.324 20.2219 189.449 21.2039 189.598C21.4154 189.563 21.6328 189.595 21.8249 189.69C26.196 190.335 33.5758 191.274 39.4585 191.274H39.6318C47.2283 191.274 57.3232 189.709 60.2164 189.233C61.1311 175.349 62.3634 154.919 62.142 153.378C61.9591 152.488 61.4777 150.475 60.6882 147.654Z" fill="#58595B"/>
<path d="M51.0169 241.561C50.0541 242.042 47.2957 242.422 44.9417 242.422C43.8606 242.473 42.7787 242.342 41.7404 242.037C41.3214 241.851 40.9409 241.588 40.6187 241.262C40.6187 242.109 40.6187 242.706 40.5898 242.99C40.5898 243.169 40.5898 243.351 40.5898 243.549C40.6524 245.527 40.7102 247.236 44.157 247.443C51.1613 247.867 51.946 246.307 52.851 244.502C53.1688 243.862 52.851 242.061 52.3696 240.237C52.0301 240.779 51.5664 241.233 51.0169 241.561Z" fill="#58595B"/>
<path d="M26.9688 148.767L28.2589 149.729C28.5168 149.277 28.8621 148.881 29.2746 148.564C30.0431 147.77 30.7679 146.934 31.4458 146.061C31.6479 145.792 31.8357 145.498 32.0379 145.19C32.8153 143.85 33.8992 142.713 35.2007 141.873L33.7131 140.501L26.9688 148.767Z" fill="white"/>
<path d="M37.2806 242.037C36.2439 242.342 35.1636 242.473 34.0842 242.423C31.7253 242.423 28.9525 242.066 28.0089 241.561C27.4796 241.256 27.0294 240.83 26.6947 240.319C26.2133 242.114 25.91 243.872 26.2133 244.502C27.1135 246.307 27.8934 247.872 34.9074 247.444C38.3542 247.237 38.4071 245.518 38.4697 243.549C38.4697 243.352 38.4697 243.169 38.4697 242.991C38.4697 242.692 38.4408 242.076 38.4408 241.185C38.1139 241.543 37.7196 241.832 37.2806 242.037Z" fill="#58595B"/>
<path d="M42.5347 142.003C40.845 142.186 38.5295 142.441 37.0227 143.221C35.6575 143.908 34.5292 144.987 33.7829 146.321C33.5711 146.644 33.3545 146.976 33.109 147.284C32.3609 148.249 31.5572 149.17 30.702 150.042L30.5961 150.134C30.427 150.241 30.2819 150.381 30.1701 150.547C30.0582 150.713 29.982 150.9 29.9462 151.097C29.9373 151.206 29.97 151.314 30.0376 151.4C30.0825 151.43 30.1311 151.454 30.1821 151.472L30.2254 151.448C30.8993 150.798 31.6696 150.09 32.4928 149.325L32.8346 149.012C33.8466 148.138 34.7588 147.155 35.5545 146.08C35.7077 145.851 35.9459 145.691 36.2167 145.637C36.4876 145.583 36.7688 145.638 36.9987 145.792C37.2285 145.945 37.388 146.183 37.4422 146.454C37.4963 146.725 37.4407 147.006 37.2875 147.236C36.4028 148.451 35.382 149.56 34.2451 150.543L33.8936 150.865C29.3829 154.962 28.2902 156.594 28.0398 157.201C27.9147 157.509 27.9339 157.682 27.9628 157.682C28.1738 157.736 28.3957 157.729 28.6028 157.661C28.8099 157.594 28.9936 157.469 29.1326 157.302L31.5396 155.02L34.4569 152.237L35.4919 151.275C35.9203 150.875 36.6376 150.201 37.3549 150.933C37.4553 151.036 37.5337 151.158 37.585 151.292C37.6363 151.426 37.6595 151.569 37.6532 151.713C37.6468 151.856 37.6111 151.997 37.5482 152.126C37.4853 152.255 37.3966 152.37 37.2875 152.464C37.2408 152.511 37.1891 152.553 37.1335 152.589C36.5606 153.123 34.5146 155.078 32.9742 156.546L30.5672 158.833L30.4324 158.948C30.3879 159.007 30.3379 159.062 30.2832 159.112C29.5322 159.786 29.3829 160.465 29.6285 160.763C29.874 161.061 30.2687 160.936 30.7164 160.595C31.7659 159.791 36.6858 155.01 38.491 153.239C38.5846 153.128 38.7003 153.038 38.8308 152.975C38.9613 152.911 39.1036 152.876 39.2485 152.871C39.3935 152.865 39.538 152.891 39.6726 152.945C39.8072 152.999 39.9291 153.08 40.0303 153.184C40.1315 153.288 40.2099 153.412 40.2603 153.548C40.3108 153.684 40.3322 153.829 40.3233 153.974C40.3143 154.119 40.2752 154.26 40.2083 154.389C40.1415 154.518 40.0484 154.631 39.9352 154.721C39.7137 154.943 35.3667 159.203 33.0849 161.278C33.0715 161.298 33.0553 161.316 33.0368 161.331C33.0007 161.355 32.9703 161.386 32.9477 161.422C32.925 161.459 32.9106 161.5 32.9056 161.543C32.9005 161.585 32.9049 161.629 32.9184 161.669C32.9319 161.71 32.9543 161.748 32.9838 161.779C33.1667 162 33.4652 161.971 33.8022 161.702C34.0236 161.524 34.6735 160.936 35.5063 160.171L35.5497 160.118C35.5975 160.071 35.6491 160.027 35.7037 159.988C37.403 158.423 39.7378 156.238 40.8595 155.174C41.0606 154.982 41.3295 154.879 41.6071 154.885C41.8847 154.892 42.1483 155.009 42.3398 155.21C42.5313 155.411 42.6351 155.68 42.6283 155.958C42.6215 156.235 42.5048 156.499 42.3037 156.69C41.8704 157.1 39.1361 159.67 37.1383 161.504C37.3456 161.534 37.5568 161.495 37.74 161.394C38.7509 160.835 44.7973 156.175 47.1513 153.258C47.4017 152.95 47.8253 152.262 48.273 151.535C48.8025 150.673 49.3898 149.729 49.9771 148.916L43.719 141.834C43.3676 141.911 42.9728 141.955 42.5347 142.003Z" fill="#FEDCC6"/>
<path d="M24.7937 147.351C24.9681 147.373 25.1339 147.439 25.2751 147.543L32.0869 139.186C32.0667 139.109 32.0538 139.03 32.0484 138.951C32.0195 138.214 31.6921 136.062 30.5609 135.099C28.8808 133.655 19.7535 126.781 19.662 126.709C19.5202 126.604 19.4079 126.464 19.3362 126.303C19.2645 126.142 19.2358 125.965 19.2528 125.789L19.5946 121.755C19.6132 121.551 19.6901 121.358 19.8161 121.197C19.6572 120.282 19.4983 119.382 19.3347 118.52C18.9784 116.479 18.6703 114.722 18.4778 113.374C17.9964 110.004 19.0217 105.671 19.8209 103.019L17.3369 94.2046C16.6695 94.8849 16.0518 95.612 15.4883 96.3805C14.6073 97.6514 10.708 107.785 9.53821 113.639C9.28788 114.885 8.9846 116.31 8.67169 117.803C7.64631 122.617 6.24063 129.236 6.54391 130.892C7.40561 135.638 16.48 144.371 18.3526 145.387C20.3843 146.373 22.5575 147.035 24.7937 147.351Z" fill="white"/>
<path d="M40.0551 95.9283C40.1321 94.6815 40.185 93.3914 40.1706 92.6693C39.9684 92.6693 39.7325 92.6308 39.5111 92.6211C39.2896 92.6115 39.0297 92.65 38.8516 92.6693C38.8516 93.3914 38.8901 94.6815 38.9671 95.9283L39.5111 96.015L40.0551 95.9283Z" fill="#1B75BC"/>
<path d="M37.4297 103.332L39.4804 106.023L41.589 103.327L40.1977 98.0317L39.7597 98.104C39.7052 98.1086 39.6504 98.1086 39.596 98.104H39.5093H39.4275C39.3714 98.1087 39.3151 98.1087 39.259 98.104L38.8257 98.0317L37.4297 103.332Z" fill="white"/>
<path d="M51.7338 88.4474L46.554 86.8491L41.4512 90.8255C41.5378 90.864 41.5908 90.8977 41.6293 90.9169C41.7659 90.9852 41.8842 91.085 41.9746 91.208C42.065 91.3311 42.1249 91.4739 42.1492 91.6246C44.0001 92.1243 45.8211 92.7286 47.6034 93.4346L48.7492 93.916L51.6376 88.6207C51.6623 88.5591 51.6946 88.5009 51.7338 88.4474Z" fill="white"/>
<path d="M8.25192 65.8416C7.85236 64.0796 7.28912 62.3707 6.67774 60.5462C6.34558 59.5545 6.0086 58.5387 5.67644 57.4556C5.48282 57.2837 5.2489 57.1636 4.99641 57.1063C4.74391 57.0491 4.48105 57.0567 4.23224 57.1283C3.16836 57.3834 2.11891 58.9431 2.26814 61.3309C2.44626 64.2192 3.27426 67.0402 4.42962 68.7299C5.63311 70.4967 6.73551 71.6183 8.0064 72.3838C8.35258 72.5942 8.73437 72.7394 9.13287 72.8122C8.90638 71.5521 8.7457 70.2811 8.65147 69.0043C8.58376 67.9428 8.45032 66.8865 8.25192 65.8416Z" fill="#FEDCC6"/>
<path d="M30.2719 93.916L31.4176 93.4346C33.1997 92.7262 35.0207 92.1203 36.8719 91.6197C36.8922 91.4676 36.9505 91.3231 37.0414 91.1994C37.1322 91.0757 37.2527 90.9769 37.3918 90.912C37.4465 90.8761 37.5045 90.8455 37.5651 90.8206L32.4671 86.8442L27.2969 88.4473C27.3397 88.5122 27.3753 88.5816 27.4028 88.6543L30.2719 93.916Z" fill="white"/>
<path d="M39.521 86.3921C37.9817 86.3795 36.444 86.288 34.9141 86.1177L39.5114 89.7041L44.1088 86.1225C42.5866 86.2888 41.057 86.3788 39.5259 86.3921H39.521Z" fill="#FEDCC6"/>
<path d="M24.4609 54.8842C23.981 54.8891 23.5121 55.0293 23.1082 55.2886H23.0408C22.7084 55.2837 22.3806 55.2099 22.078 55.072C21.8103 54.9042 21.574 54.6908 21.38 54.4414C21.2978 54.3323 21.195 54.2405 21.0773 54.1712C20.9596 54.1019 20.8295 54.0565 20.6943 54.0375C20.559 54.0185 20.4214 54.0263 20.2892 54.0605C20.157 54.0947 20.0328 54.1546 19.9238 54.2368C19.8147 54.3189 19.7229 54.4218 19.6536 54.5395C19.5843 54.6571 19.5389 54.7873 19.5199 54.9225C19.5009 55.0577 19.5087 55.1954 19.5429 55.3276C19.5771 55.4598 19.637 55.5839 19.7192 55.693C20.0955 56.1666 20.5576 56.5651 21.0815 56.8676C21.2369 56.9479 21.3978 57.0171 21.5629 57.0746C21.3049 57.6003 21.1094 58.1545 20.9804 58.7258C21.0644 58.4122 21.2648 58.1424 21.5408 57.9715C21.8168 57.8005 22.1475 57.7411 22.4657 57.8055C22.7839 57.8699 23.0656 58.0532 23.2534 58.318C23.4411 58.5828 23.5209 58.9093 23.4764 59.2308C23.4318 59.5524 23.2664 59.8449 23.0137 60.0487C22.761 60.2526 22.4402 60.3524 22.1164 60.3279C21.7927 60.3034 21.4905 60.1565 21.2714 59.9169C21.0523 59.6774 20.9327 59.3633 20.9371 59.0387C20.9324 58.973 20.9324 58.907 20.9371 58.8413C20.806 59.4537 20.7399 60.0781 20.7397 60.7043C20.7397 63.9297 22.4006 66.5437 24.4513 66.5437C26.5021 66.5437 28.1629 63.9297 28.1629 60.7043C28.1629 57.479 26.5117 54.8842 24.4609 54.8842Z" fill="black"/>
<path d="M54.6366 54.8846C54.1565 54.8887 53.6874 55.0289 53.2839 55.289H53.2165C52.884 55.2841 52.5562 55.2103 52.2537 55.0724C51.9848 54.9142 51.7454 54.7106 51.546 54.4706C51.38 54.2504 51.1334 54.1051 50.8603 54.0668C50.5872 54.0284 50.31 54.1001 50.0898 54.2661C49.8696 54.432 49.7243 54.6787 49.6859 54.9518C49.6475 55.2249 49.7192 55.502 49.8852 55.7223C50.2615 56.1959 50.7237 56.5944 51.2476 56.8969C51.4029 56.9772 51.5638 57.0464 51.729 57.1039C51.4688 57.6288 51.2732 58.1832 51.1465 58.7551C51.2305 58.4415 51.4309 58.1717 51.7068 58.0007C51.9828 57.8298 52.3135 57.7704 52.6317 57.8348C52.9499 57.8992 53.2316 58.0825 53.4194 58.3473C53.6072 58.6121 53.6869 58.9386 53.6424 59.2601C53.5978 59.5817 53.4324 59.8742 53.1797 60.078C52.9271 60.2819 52.6062 60.3817 52.2825 60.3572C51.9588 60.3327 51.6566 60.1857 51.4374 59.9462C51.2183 59.7067 51.0988 59.3926 51.1031 59.068C51.0984 59.0023 51.0984 58.9363 51.1031 58.8706C50.9721 59.483 50.9059 60.1074 50.9058 60.7336C50.9058 63.959 52.5666 66.573 54.6173 66.573C56.6681 66.573 58.3289 63.959 58.3289 60.7336C58.3289 57.5083 56.6633 54.8846 54.6366 54.8846Z" fill="black"/>
<path d="M51.1228 58.8606C51.1228 58.8221 51.1228 58.7836 51.1228 58.7451C51.1205 58.7836 51.1205 58.8222 51.1228 58.8606Z" fill="white"/>
<path d="M52.3978 60.3529C52.6421 60.355 52.882 60.2882 53.0901 60.1602C53.2981 60.0321 53.4659 59.848 53.5741 59.629C53.6824 59.41 53.7267 59.1649 53.702 58.9218C53.6773 58.6787 53.5846 58.4476 53.4345 58.2548C53.2844 58.062 53.0831 57.9154 52.8535 57.8318C52.6239 57.7483 52.3755 57.7311 52.1366 57.7823C51.8977 57.8334 51.6781 57.9509 51.5029 58.1212C51.3277 58.2915 51.2041 58.5077 51.1461 58.7451C51.1461 58.7836 51.1461 58.8221 51.1461 58.8606C51.1414 58.9263 51.1414 58.9923 51.1461 59.058C51.1471 59.3937 51.278 59.716 51.5113 59.9573C51.7446 60.1987 52.0623 60.3405 52.3978 60.3529Z" fill="white"/>
<path d="M20.947 58.8606C20.947 58.8221 20.947 58.7836 20.947 58.7451C20.9447 58.7836 20.9447 58.8222 20.947 58.8606Z" fill="white"/>
<path d="M22.2288 60.353C22.4729 60.3541 22.7124 60.2865 22.9198 60.1579C23.1273 60.0293 23.2944 59.8449 23.4019 59.6257C23.5094 59.4066 23.5531 59.1616 23.5278 58.9188C23.5026 58.676 23.4095 58.4452 23.2592 58.2529C23.1089 58.0605 22.9075 57.9144 22.678 57.8312C22.4485 57.748 22.2002 57.7312 21.9615 57.7825C21.7229 57.8339 21.5035 57.9514 21.3286 58.1216C21.1536 58.2919 21.0302 58.5079 20.9723 58.7451C20.9723 58.7836 20.9723 58.8221 20.9723 58.8606C20.9676 58.9263 20.9676 58.9923 20.9723 59.058C20.9734 59.3945 21.1049 59.7175 21.3392 59.959C21.5736 60.2005 21.8924 60.3417 22.2288 60.353Z" fill="white"/>
<path d="M75.2923 21.7062C68.3457 8.45332 55.7813 0.852051 40.8098 0.852051C30.9845 0.852051 24.4423 2.85948 20.2926 7.14874C14.7325 8.07783 9.83665 11.7702 6.11545 17.8791C3.23351 22.7816 1.34731 28.2047 0.564928 33.8374C-0.7878 44.1056 2.04763 54.1284 2.49052 55.6592C0.930791 56.7038 0.0113202 58.899 0.174995 61.4697C0.377183 64.7432 1.32072 67.9011 2.69271 69.9134C4.06469 71.9256 5.37891 73.2543 6.91938 74.1786C7.73898 74.6787 8.67915 74.9466 9.63928 74.9536H9.71149C9.90883 75.499 10.1604 76.0231 10.4625 76.5182C12.5999 79.9361 19.5079 82.94 21.7849 83.6477C24.4774 84.3977 27.2096 84.9971 29.9687 85.4433L25.4291 86.8393C25.2814 86.8844 25.1456 86.9617 25.0315 87.0658C24.9174 87.1699 24.828 87.2981 24.7696 87.4411C24.7117 87.584 24.686 87.7378 24.6944 87.8917C24.7027 88.0457 24.7448 88.1959 24.8178 88.3317V88.3654L17.3561 90.4017C17.0892 90.4723 16.8609 90.6453 16.7206 90.8831C16.5864 91.1252 16.5519 91.4102 16.6244 91.6774L16.6869 91.894C15.6347 92.9098 14.6686 94.0112 13.7986 95.1868C12.5565 96.9776 8.65723 107.544 7.54038 113.22C7.29487 114.462 6.99159 115.877 6.67868 117.36C5.2056 124.292 4.19467 129.342 4.54127 131.253C5.43667 136.192 13.3268 144.159 16.5136 146.595C15.8589 148.954 15.1128 151.77 14.9106 153.051C14.5592 155.289 16.6244 186.623 16.8651 190.186C16.8747 190.413 16.9585 190.632 17.1036 190.807C17.2488 190.983 17.4473 191.106 17.669 191.158C17.7027 191.158 18.7473 191.346 20.4274 191.601C24.6685 217.568 26.7337 231.485 26.5604 232.953C26.3223 234.113 26.0169 235.257 25.6458 236.381C24.3652 240.632 23.5228 243.77 24.3556 245.436C25.5639 247.843 26.9359 249.6 32.7993 249.6C33.4829 249.6 34.2291 249.576 35.0378 249.528C37.4448 249.383 38.7831 248.565 39.5389 247.54C40.2995 248.565 41.6426 249.383 44.0448 249.528C44.8535 249.576 45.5949 249.6 46.2785 249.6C52.1467 249.6 53.4994 247.848 54.7222 245.436C55.555 243.77 54.7222 240.622 53.4369 236.381C53.0676 235.258 52.7606 234.115 52.5174 232.958C52.3441 231.485 54.4093 217.553 58.6552 191.592C60.2871 191.341 61.2981 191.163 61.3366 191.158C61.5662 191.116 61.7751 190.998 61.9303 190.824C62.0854 190.65 62.1781 190.428 62.1935 190.195C62.4294 186.633 64.4946 155.299 64.1431 153.06C63.941 151.775 63.1803 148.94 62.5353 146.571C65.7462 144.097 73.5689 136.183 74.4643 131.263C74.8109 129.337 73.7952 124.302 72.3269 117.37C72.0092 115.887 71.7107 114.481 71.4604 113.23C70.3243 107.554 66.425 96.9872 65.2022 95.1964C64.3328 94.0337 63.3666 92.9467 62.3138 91.947L62.386 91.687C62.4243 91.555 62.4355 91.4165 62.419 91.28C62.4024 91.1435 62.3585 91.0118 62.2898 90.8927C62.1514 90.6552 61.9247 90.4821 61.6591 90.4113L59.2521 89.7566C59.1703 88.6879 58.8429 86.435 57.548 84.7886C57.2399 84.4035 56.9799 84.0761 56.7489 83.7969L57.2303 83.6525C59.5073 82.9448 66.4202 79.9409 68.5576 76.523C68.8577 76.0269 69.1092 75.5029 69.3085 74.9584H69.4481C70.4083 74.9515 71.3484 74.6835 72.168 74.1834C73.7085 73.2591 75.0083 71.9449 76.3947 69.9182C77.7811 67.8915 78.7054 64.748 78.9124 61.4745C79.0954 58.5139 77.8148 56.5931 76.3321 55.6159C76.9435 53.3774 78.5995 47.0133 78.8595 43.2728C79.4612 34.6414 78.2577 27.3915 75.2923 21.7062ZM8.00252 72.3926C6.73163 71.632 5.62923 70.5055 4.42574 68.7388C3.27038 67.0491 2.44238 64.2136 2.26426 61.3397C2.11503 58.9327 3.16448 57.3922 4.22837 57.1371C4.47717 57.0655 4.74003 57.058 4.99253 57.1152C5.24502 57.1724 5.47895 57.2926 5.67256 57.4644C6.00472 58.5476 6.3417 59.5633 6.67387 60.555C7.27561 62.3699 7.84848 64.0788 8.24804 65.8504C8.44845 66.8985 8.58351 67.958 8.65241 69.0228C8.74663 70.2996 8.90732 71.5706 9.13381 72.8307C8.73299 72.7554 8.34948 72.6069 8.00252 72.3926ZM32.4672 86.8345L37.5652 90.8109C37.5046 90.8358 37.4466 90.8664 37.3919 90.9023C37.2528 90.9672 37.1323 91.066 37.0414 91.1897C36.9506 91.3134 36.8923 91.4579 36.872 91.61C35.0206 92.1137 33.1995 92.7229 31.4177 93.4345L30.272 93.9159L27.3836 88.6205C27.3561 88.5478 27.3206 88.4784 27.2777 88.4135L32.4672 86.8345ZM47.6023 93.4345C45.8216 92.727 44.0022 92.1211 42.1529 91.6196C42.1285 91.4689 42.0687 91.3261 41.9783 91.2031C41.8879 91.08 41.7695 90.9802 41.633 90.912C41.5945 90.912 41.5415 90.859 41.4549 90.8205L46.5577 86.8442L51.7327 88.4424C51.6895 88.5046 51.6555 88.5727 51.6316 88.6446L48.7432 93.94L47.6023 93.4345ZM51.9012 97.6467L51.5257 105.686L44.117 104.757L42.1047 97.0546C42.1047 97.0209 42.0759 96.9872 42.0662 96.9535C42.0566 96.9198 42.0662 96.9006 42.0662 96.8765C42.1625 95.5671 42.2155 94.5658 42.2395 93.7907C43.7886 94.2284 45.3136 94.7474 46.808 95.3456C47.8767 95.803 50.6496 97.0691 51.9012 97.6515V97.6467ZM39.2597 98.08C39.3158 98.0847 39.3721 98.0847 39.4282 98.08H39.51H39.5967C39.6511 98.0846 39.7059 98.0846 39.7603 98.08L40.1984 98.0078L41.5897 103.303L39.4811 105.999L37.4304 103.308L38.8264 97.9885L39.2597 98.08ZM38.8505 92.6691C39.0527 92.6691 39.2934 92.6306 39.51 92.6209C39.7266 92.6113 39.9673 92.6498 40.1695 92.6691C40.1695 93.3912 40.131 94.6813 40.054 95.9281L39.51 96.0148L38.966 95.9281C38.889 94.6813 38.8505 93.3912 38.8505 92.6691ZM39.51 89.7037L34.9127 86.1172C36.4426 86.2875 37.9803 86.3791 39.5196 86.3916C41.0508 86.3784 42.5804 86.2884 44.1026 86.1221L39.51 89.7037ZM36.9586 96.9776C36.9437 97.0104 36.9308 97.0442 36.9201 97.0787L34.9078 104.781L27.4943 105.71L27.1188 97.6708C28.3753 97.0883 31.1433 95.8222 32.2072 95.389C33.7016 94.7907 35.2266 94.2717 36.7757 93.834C36.7757 94.6091 36.8527 95.6104 36.9442 96.9198L36.9586 96.9776ZM6.54389 130.892C6.24061 129.236 7.64629 122.626 8.67167 117.803C8.98458 116.311 9.28786 114.886 9.53819 113.639C10.708 107.785 14.6073 97.6515 15.4883 96.3806C16.0517 95.6122 16.6695 94.885 17.3368 94.2047L19.8305 103.029C19.0313 105.701 18.006 110.023 18.4874 113.384C18.6799 114.732 18.9688 116.489 19.3443 118.53C19.4935 119.391 19.6524 120.292 19.8257 121.206C19.6997 121.367 19.6229 121.561 19.6042 121.765L19.2624 125.799C19.2454 125.974 19.2741 126.151 19.3458 126.313C19.4175 126.474 19.5298 126.614 19.6716 126.718C19.7631 126.791 28.8904 133.65 30.5705 135.109C31.7017 136.072 32.0146 138.224 32.058 138.96C32.0634 139.04 32.0763 139.119 32.0965 139.196L25.2847 147.553C25.1435 147.449 24.9777 147.382 24.8033 147.361C22.5666 147.042 20.3934 146.376 18.3622 145.387C16.4799 144.376 7.40559 135.639 6.54389 130.892ZM49.9756 148.944C49.3883 149.758 48.801 150.702 48.2715 151.563C47.8238 152.29 47.4001 152.979 47.1498 153.287C44.7958 156.204 38.7494 160.864 37.7385 161.422C37.5553 161.524 37.344 161.563 37.1367 161.533C39.1345 159.699 41.8689 157.128 42.3021 156.719C42.5032 156.528 42.62 156.264 42.6268 155.986C42.6335 155.709 42.5297 155.44 42.3382 155.239C42.1467 155.038 41.8832 154.921 41.6056 154.914C41.3279 154.907 41.059 155.011 40.8579 155.203C39.7363 156.257 37.4015 158.442 35.7022 160.017C35.6475 160.056 35.596 160.099 35.5481 160.147L35.5048 160.2C34.672 160.965 34.0221 161.552 33.8006 161.73C33.4637 162 33.1652 162.029 32.9823 161.807C32.9527 161.776 32.9304 161.739 32.9169 161.698C32.9034 161.657 32.899 161.614 32.904 161.571C32.9091 161.528 32.9234 161.487 32.9461 161.451C32.9688 161.414 32.9992 161.383 33.0352 161.36C33.0537 161.344 33.0699 161.327 33.0834 161.307C35.3652 159.232 39.7122 154.972 39.9336 154.75C40.0469 154.659 40.1399 154.546 40.2068 154.417C40.2736 154.289 40.3128 154.147 40.3217 154.003C40.3307 153.858 40.3092 153.713 40.2588 153.577C40.2083 153.441 40.13 153.317 40.0288 153.213C39.9275 153.109 39.8057 153.027 39.6711 152.973C39.5364 152.919 39.392 152.894 39.247 152.899C39.102 152.904 38.9597 152.94 38.8293 153.003C38.6988 153.067 38.583 153.157 38.4894 153.267C36.6842 155.039 31.7499 159.819 30.7149 160.623C30.2672 160.965 29.8291 161.032 29.6269 160.792C29.4247 160.551 29.5306 159.829 30.2816 159.14C30.3364 159.091 30.3864 159.036 30.4309 158.977L30.5656 158.861L32.9726 156.575C34.5131 155.106 36.559 153.152 37.1319 152.618C37.1876 152.581 37.2392 152.54 37.286 152.492C37.395 152.399 37.4838 152.284 37.5467 152.155C37.6096 152.026 37.6453 151.885 37.6516 151.742C37.6579 151.598 37.6347 151.455 37.5834 151.321C37.5321 151.186 37.4538 151.064 37.3534 150.962C36.6361 150.23 35.9092 150.904 35.4903 151.303L34.4553 152.266L31.5381 155.053L29.1311 157.335C28.9921 157.503 28.8083 157.628 28.6013 157.695C28.3942 157.762 28.1723 157.769 27.9613 157.716C27.9324 157.716 27.9131 157.523 28.0383 157.234C28.2886 156.628 29.3814 154.996 33.8921 150.899L34.2435 150.576C35.3805 149.594 36.4013 148.484 37.286 147.269C37.4392 147.039 37.4948 146.758 37.4406 146.487C37.3865 146.216 37.2269 145.978 36.9971 145.825C36.7673 145.672 36.486 145.616 36.2152 145.67C35.9444 145.725 35.7061 145.884 35.5529 146.114C34.7572 147.188 33.8451 148.172 32.833 149.046L32.4912 149.358C31.6488 150.124 30.8978 150.832 30.2239 151.481L30.1805 151.506C30.1295 151.488 30.081 151.463 30.0361 151.433C29.9684 151.347 29.9358 151.239 29.9446 151.13C29.9804 150.933 30.0566 150.746 30.1685 150.58C30.2804 150.415 30.4255 150.274 30.5945 150.167L30.7004 150.076C31.5557 149.204 32.3594 148.283 33.1074 147.317C33.3529 146.99 33.5888 146.658 33.7814 146.355C34.5276 145.021 35.656 143.941 37.0212 143.254C38.528 142.474 40.8435 142.219 42.5332 142.036C42.9713 141.988 43.366 141.945 43.7126 141.897L49.9756 148.944ZM45.2242 140.433L46.2929 139.567L53.3887 147.351L52.0745 148.179L45.2242 140.433ZM45.2723 158.12C45.643 157.793 46.0041 157.46 46.3555 157.133L48.1656 158.852L48.2955 158.962C48.3385 159.024 48.3886 159.081 48.4448 159.131C49.2006 159.805 49.345 160.484 49.0995 160.782C48.8539 161.081 48.4592 160.955 48.0115 160.614C47.7419 160.407 47.0343 159.795 45.2723 158.12ZM45.7297 161.798C45.5467 162.019 45.2483 161.99 44.9161 161.721C44.7717 161.605 44.3384 161.239 43.212 160.19L43.1638 160.137L43.0435 160.031C43.2601 159.858 43.4767 159.675 43.6934 159.492C44.4829 160.243 45.1247 160.846 45.6189 161.302L45.6623 161.35C45.6992 161.372 45.7309 161.402 45.7549 161.437C45.779 161.473 45.7948 161.513 45.8012 161.556C45.8077 161.598 45.8046 161.641 45.7922 161.682C45.7799 161.723 45.7585 161.761 45.7297 161.793V161.798ZM47.8286 155.665C48.127 155.347 48.4014 155.039 48.6421 154.745C49.6049 155.708 50.4233 156.584 50.6833 157.22C50.8084 157.528 50.7892 157.701 50.7603 157.701C50.55 157.755 50.3289 157.747 50.1227 157.68C49.9164 157.612 49.7336 157.488 49.5953 157.321L47.8286 155.665ZM32.0387 145.18C31.8365 145.488 31.6488 145.782 31.4466 146.051C30.7687 146.924 30.044 147.76 29.2755 148.555C28.8629 148.872 28.5176 149.268 28.2597 149.72L26.9696 148.757L33.7092 140.482L35.1967 141.853C33.8959 142.697 32.8136 143.837 32.0387 145.18ZM22.5985 191.914C27.5545 192.646 32.5454 193.119 37.5507 193.329C38.0755 214.511 38.4028 229.478 38.5135 237.137C38.4702 237.247 38.4458 237.364 38.4413 237.483C37.9599 238.499 37.1464 239.837 36.5157 240.102C35.3074 240.583 29.9783 240.232 29.0107 239.712C28.4282 239.404 27.8313 238.128 27.5665 237.305C27.5954 237.199 27.6291 237.088 27.658 236.992C28.0561 235.768 28.3777 234.52 28.6208 233.257C28.8615 231.629 26.9985 218.858 22.5985 191.914ZM38.4846 243.549C38.4221 245.527 38.3691 247.236 34.9223 247.443C27.9083 247.867 27.1285 246.307 26.2282 244.502C25.9105 243.871 26.2282 242.095 26.7096 240.319C27.0443 240.83 27.4945 241.255 28.0239 241.561C28.9867 242.042 31.7403 242.422 34.0991 242.422C35.1786 242.472 36.2589 242.342 37.2956 242.037C37.7484 241.837 38.1561 241.547 38.4943 241.185C38.4943 242.076 38.4943 242.692 38.5232 242.99C38.4991 243.149 38.4895 243.351 38.4846 243.549ZM52.8736 244.512C51.9686 246.317 51.1839 247.881 44.1796 247.453C40.7328 247.246 40.675 245.527 40.6124 243.558C40.6124 243.361 40.6124 243.178 40.6124 243C40.6124 242.711 40.6413 242.119 40.6413 241.272C40.9635 241.598 41.3439 241.861 41.763 242.047C42.8013 242.352 43.8832 242.482 44.9642 242.432C47.3183 242.432 50.0911 242.076 51.0395 241.57C51.5943 241.244 52.063 240.79 52.4067 240.246C52.8496 242.061 53.1913 243.862 52.8736 244.502V244.512ZM50.4666 233.252C50.7177 234.516 51.0473 235.764 51.4535 236.987L51.5113 237.175C51.2754 238.018 50.6447 239.409 50.0334 239.731C49.0706 240.251 43.7367 240.617 42.5332 240.121C41.8881 239.856 41.0601 238.518 40.6076 237.502C40.7039 229.944 41.0312 214.829 41.5704 193.339C46.576 193.116 51.5668 192.634 56.5226 191.895C52.1034 218.858 50.2404 231.625 50.4666 233.242V233.252ZM60.1812 189.233C57.2929 189.714 47.1835 191.274 39.5967 191.274H39.4234C33.5407 191.274 26.1609 190.335 21.7898 189.69C21.5976 189.595 21.3802 189.563 21.1688 189.599C20.206 189.449 19.3876 189.324 18.8484 189.233C17.9289 175.349 16.6966 154.919 16.9228 153.378C17.0672 152.488 17.5583 150.49 18.3285 147.683C20.3118 148.532 22.3981 149.116 24.5337 149.421C24.606 149.566 24.7116 149.691 24.8418 149.787L27.2488 151.573C27.4258 151.708 27.6424 151.781 27.865 151.78H27.9228C28.0404 152.259 28.3046 152.69 28.6786 153.012C27.2777 154.49 26.4352 155.607 26.0935 156.435C25.4917 157.879 26.0453 158.948 26.7674 159.439C26.9849 159.59 27.2279 159.701 27.4847 159.766C27.3851 160.17 27.3798 160.592 27.4691 160.999C27.5584 161.405 27.74 161.786 27.9998 162.111C28.2397 162.394 28.5393 162.622 28.8771 162.777C29.2149 162.931 29.5827 163.01 29.9543 163.006C30.3649 163.003 30.7709 162.918 31.1481 162.756C31.2257 162.895 31.3159 163.027 31.4177 163.151C31.6552 163.429 31.9506 163.652 32.2832 163.804C32.6158 163.956 32.9776 164.034 33.3433 164.031C34.0051 164.019 34.6423 163.779 35.1485 163.353L35.5674 162.992C36.0413 163.413 36.6564 163.642 37.2908 163.632C37.8112 163.631 38.3229 163.499 38.7783 163.247C38.9275 163.165 39.1393 163.025 39.3945 162.852C39.5939 162.995 39.8013 163.127 40.0155 163.247C40.4693 163.498 40.9794 163.631 41.4982 163.632C42.134 163.642 42.7505 163.413 43.2264 162.992C43.4527 163.194 43.573 163.295 43.6452 163.353C44.1502 163.778 44.7856 164.018 45.4456 164.031C45.8114 164.034 46.1733 163.956 46.506 163.804C46.8386 163.652 47.1339 163.429 47.3712 163.151C47.4745 163.028 47.5664 162.895 47.6456 162.756C48.0106 162.914 48.4032 162.999 48.801 163.006C49.1727 163.011 49.5408 162.933 49.8788 162.778C50.2168 162.623 50.5162 162.395 50.7555 162.111C51.0161 161.786 51.1985 161.406 51.2887 160.999C51.3789 160.593 51.3743 160.171 51.2754 159.766C51.5319 159.7 51.7747 159.589 51.9927 159.439C52.7099 158.958 53.2636 157.898 52.6618 156.435C52.2189 155.362 51.1935 154.302 49.8889 152.998L50.1008 152.656C50.5388 151.944 51.0202 151.159 51.492 150.475C51.6301 150.542 51.7815 150.577 51.9349 150.576C52.1307 150.577 52.3226 150.522 52.4885 150.418L55.3191 148.636H55.8005C57.4942 148.635 59.171 148.3 60.7348 147.65C61.5051 150.471 62.0009 152.463 62.1453 153.378C62.3283 154.923 61.0959 175.354 60.1812 189.233ZM61.6736 94.2432C62.3283 94.9089 62.9332 95.6217 63.4836 96.3758C64.3598 97.6467 68.2591 107.78 69.4289 113.634C69.6792 114.881 69.9825 116.306 70.3002 117.798C71.3256 122.612 72.7072 129.231 72.4232 130.887C71.5615 135.634 62.4871 144.366 60.6145 145.382C59.0275 146.197 57.2611 146.599 55.478 146.552L47.9441 138.282C47.9538 138.2 47.9538 138.118 47.9441 138.036C47.8912 137.309 48.0019 135.225 49.085 134.281C50.7603 132.837 59.1944 126.791 59.2714 126.728C59.4181 126.623 59.5351 126.482 59.6111 126.318C59.687 126.154 59.7192 125.974 59.7047 125.794L59.3581 121.76C59.3454 121.621 59.3061 121.485 59.2425 121.36C59.411 120.398 59.5747 119.435 59.7239 118.52C60.0801 116.484 60.3882 114.727 60.5808 113.379C61.0622 109.961 59.9983 105.551 59.1944 102.889L61.6736 94.2432ZM60.109 92.1299L57.8898 99.9767C57.7026 99.8958 57.4957 99.8717 57.2949 99.9074C57.0941 99.9432 56.9082 100.037 56.7604 100.178C56.6127 100.318 56.5095 100.499 56.4638 100.698C56.4181 100.897 56.4318 101.105 56.5034 101.296C56.5274 101.368 59.2088 108.488 58.5541 113.08C58.3664 114.399 58.0727 116.142 57.7069 118.164C57.264 120.701 56.7441 123.575 56.3782 126.266C53.7835 128.138 49.0224 131.6 47.7419 132.712C46.2977 133.968 45.9511 136.033 45.8885 137.237C45.8402 137.265 45.7936 137.295 45.7489 137.328L43.0675 139.49C42.9436 139.595 42.8449 139.727 42.7787 139.875L42.2973 139.928C40.479 140.063 38.6834 140.415 36.949 140.977C36.9184 140.739 36.8041 140.519 36.6264 140.356L34.3061 138.204C34.2275 138.131 34.1361 138.072 34.0365 138.031C33.868 136.871 33.3722 134.787 31.9184 133.525C30.6427 132.418 25.5013 128.514 22.714 126.41C22.726 126.332 22.726 126.253 22.714 126.174C22.3337 123.507 21.8379 120.667 21.3998 118.159C21.0436 116.142 20.7403 114.395 20.5526 113.076C19.8931 108.483 22.5744 101.363 22.6033 101.291C22.6974 101.035 22.687 100.752 22.5745 100.503C22.4619 100.255 22.2561 100.06 22.0016 99.9622C21.864 99.9097 21.7168 99.8872 21.5698 99.8963C21.4228 99.9054 21.2795 99.946 21.1495 100.015L18.9158 92.1347L25.8865 90.238L28.3657 94.7872L25.6072 96.0533C25.4206 96.1411 25.2639 96.2821 25.1569 96.4585C25.0499 96.6348 24.9972 96.8388 25.0055 97.045L25.4869 106.909C25.5004 107.176 25.6158 107.427 25.8092 107.612C26.0026 107.796 26.2594 107.9 26.5267 107.9C26.5699 107.905 26.6135 107.905 26.6567 107.9L35.8803 106.745C36.0866 106.72 36.2807 106.633 36.4376 106.497C36.5945 106.361 36.7072 106.18 36.7612 105.98V105.893L38.6435 108.363C38.7384 108.49 38.8619 108.594 39.004 108.665C39.1461 108.736 39.303 108.772 39.4619 108.772C39.6232 108.772 39.7824 108.734 39.9269 108.663C40.0714 108.591 40.1973 108.486 40.2947 108.358L42.2588 105.845L42.2877 105.96C42.3402 106.161 42.4518 106.341 42.608 106.478C42.7643 106.614 42.9579 106.701 43.1638 106.726L52.3874 107.881C52.4306 107.886 52.4742 107.886 52.5174 107.881C52.7638 107.881 53.0023 107.794 53.1913 107.636C53.3006 107.543 53.3895 107.429 53.4524 107.301C53.5154 107.173 53.5511 107.032 53.5572 106.89L54.0386 97.0257C54.0482 96.8193 53.996 96.6148 53.8889 96.4382C53.7817 96.2616 53.6243 96.1209 53.4369 96.034L50.6784 94.768L53.1625 90.2188L60.109 92.1299ZM57.1003 89.1549L54.159 88.3557V88.3221C54.232 88.1866 54.2742 88.0366 54.2825 87.8829C54.2908 87.7292 54.2651 87.5756 54.2072 87.433C54.1492 87.2904 54.0605 87.1624 53.9473 87.0581C53.8341 86.9538 53.6992 86.8758 53.5524 86.8297L49.0176 85.4337C51.0636 85.0871 52.9699 84.6971 54.4863 84.3457C54.78 84.6779 55.2421 85.2218 55.9016 86.0595C56.5498 86.9787 56.9615 88.0435 57.1003 89.1597V89.1549ZM68.7598 65.3738C68.5349 66.5133 68.3853 67.6663 68.312 68.8254C68.1099 71.0976 67.8836 73.6683 66.8005 75.4061C65.207 77.9527 59.4158 80.7833 56.6237 81.6643C54.2167 82.4153 45.5516 84.3168 39.5196 84.3168C33.4877 84.3168 24.8466 82.3912 22.4204 81.6643C19.6235 80.793 13.8323 77.9624 12.2436 75.4061C11.1557 73.6683 10.9294 71.0976 10.732 68.8254C10.6564 67.6665 10.5069 66.5136 10.2844 65.3738C9.86072 63.5156 9.27341 61.7537 8.65241 59.8907C8.29618 58.8268 7.93513 57.734 7.58371 56.569C7.58371 56.569 7.58371 56.569 7.58371 56.545C7.58371 56.4439 8.45022 46.6137 12.2292 38.0497C15.2427 31.2234 18.5403 27.6418 19.7197 26.4961C20.9088 29.0908 22.9403 32.9613 25.5639 35.816C31.8221 42.6711 46.1437 42.0742 48.0885 41.9634C50.5282 42.6324 53.0495 42.9564 55.5791 42.9262C58.3235 42.8856 61.0602 42.6249 63.7628 42.1464C64.7593 43.1092 67.46 45.8868 68.7116 48.2553C69.9497 50.6711 70.9431 53.2046 71.677 55.8181C71.2582 57.2623 70.8105 58.615 70.3821 59.9148C69.7499 61.7077 69.2085 63.5313 68.7598 65.3786V65.3738ZM76.8424 61.3349C76.6643 64.2233 75.8363 67.0443 74.6809 68.734C73.4774 70.5007 72.375 71.6224 71.109 72.3878C70.7423 72.6116 70.3349 72.7605 69.9103 72.8259C70.137 71.5626 70.2977 70.2884 70.3917 69.0084C70.4568 67.9434 70.5903 66.8838 70.7913 65.8359C71.1908 64.0788 71.754 62.3651 72.3702 60.5406C72.6831 59.5778 73.0105 58.615 73.333 57.5896C73.5448 57.3922 74.2044 56.8483 74.7291 57.0697C75.8459 57.5607 76.9965 58.9279 76.8424 61.3397V61.3349ZM76.7895 43.1236C76.5536 46.5752 74.9794 52.6697 74.3825 54.9467C74.1382 54.9582 73.896 54.9969 73.6604 55.0623C72.8969 52.3662 71.8647 49.7536 70.5794 47.2636C68.8753 44.0382 65 40.3941 64.8364 40.24C64.7094 40.1248 64.5561 40.0425 64.3899 40.0005C64.2236 39.9586 64.0496 39.9581 63.8832 39.9993C61.1349 40.519 58.3469 40.8009 55.5502 40.8418C53.2448 40.8854 50.9449 40.6018 48.7192 39.9993C48.6121 39.8813 48.4784 39.7905 48.3292 39.7346C45.2442 38.3473 42.6009 36.1371 40.6894 33.3464C39.213 31.1089 37.9525 28.7362 36.9249 26.2602C36.8112 26.0212 36.6105 25.8345 36.3639 25.7383C36.1173 25.642 35.8433 25.6435 35.5977 25.7423C35.3521 25.8412 35.1535 26.03 35.0423 26.2702C34.9311 26.5105 34.9157 26.7841 34.9993 27.0353C36.0852 29.6466 37.4235 32.1457 38.9949 34.497C40.4538 36.6338 42.3046 38.4747 44.4492 39.9223C39.587 39.7875 31.2155 38.8777 27.1188 34.4199C23.181 30.121 20.5333 23.0397 20.5092 22.9675C20.4618 22.8391 20.3896 22.7214 20.2967 22.621C20.2038 22.5206 20.092 22.4394 19.9677 22.3822C19.8434 22.325 19.7091 22.2928 19.5724 22.2875C19.4357 22.2822 19.2993 22.3039 19.171 22.3513C19.0426 22.3987 18.9249 22.4709 18.8245 22.5638C18.724 22.6568 18.6429 22.7685 18.5857 22.8928C18.5285 23.0171 18.4963 23.1514 18.491 23.2881C18.4857 23.4248 18.5074 23.5612 18.5548 23.6896C18.5548 23.7425 18.6847 24.0314 18.8677 24.4887C18.6173 24.6957 14.2655 28.3399 10.3517 37.212C7.19378 44.3656 6.01917 52.1354 5.66293 55.1297C5.28526 55.0269 4.89367 54.9846 4.50276 55.0045C4.05025 53.4592 1.37849 43.759 2.64457 34.107C3.85288 24.9605 9.72593 10.7496 20.9618 9.17061H21.0099L21.111 9.14654L21.2073 9.11284L21.2939 9.07433C21.3277 9.05795 21.3599 9.03862 21.3902 9.01656L21.4624 8.9636L21.5491 8.88658C21.5491 8.88658 21.5491 8.88658 21.5828 8.8577C25.304 4.83802 31.4225 2.96539 40.8387 2.96539C55.0062 2.96539 66.9064 10.1623 73.4774 22.7027C76.2359 28.0125 77.3623 34.8869 76.7895 43.1284V43.1236Z" fill="black"/>
<path d="M26.4123 46.5853C26.5223 46.6663 26.6472 46.7247 26.7798 46.7574C26.9124 46.7901 27.0501 46.7963 27.1851 46.7757C27.3201 46.7552 27.4497 46.7082 27.5666 46.6376C27.6834 46.5669 27.7852 46.4739 27.8662 46.3639C27.9471 46.2539 28.0055 46.129 28.0382 45.9965C28.0709 45.8639 28.0771 45.7261 28.0565 45.5911C28.036 45.4561 27.989 45.3265 27.9184 45.2097C27.8477 45.0928 27.7547 44.991 27.6447 44.9101C26.4123 44.0099 24.0824 43.5814 21.9642 43.8799C20.2064 44.0866 18.5985 44.9709 17.4824 46.3446C17.4031 46.4559 17.3464 46.5817 17.3157 46.7149C17.285 46.848 17.2808 46.9859 17.3034 47.1207C17.3259 47.2555 17.3748 47.3845 17.4473 47.5004C17.5197 47.6163 17.6142 47.7167 17.7255 47.7961C17.8368 47.8754 17.9626 47.932 18.0957 47.9628C18.2289 47.9935 18.3668 47.9977 18.5016 47.9751C18.6363 47.9525 18.7654 47.9036 18.8812 47.8312C18.9971 47.7588 19.0976 47.6642 19.1769 47.553C19.9641 46.6491 21.0619 46.0736 22.2531 45.9403C24.1498 45.6755 25.8539 46.1569 26.4123 46.5853Z" fill="black"/>
<path d="M39.5086 71.3913C39.7843 71.3913 40.0488 71.2817 40.2438 71.0867C40.4388 70.8917 40.5484 70.6273 40.5484 70.3515V69.9856C40.5484 69.8491 40.5215 69.7139 40.4692 69.5877C40.417 69.4615 40.3404 69.3469 40.2438 69.2504C40.1473 69.1538 40.0326 69.0772 39.9065 69.0249C39.7803 68.9727 39.6451 68.9458 39.5086 68.9458C39.372 68.9458 39.2368 68.9727 39.1106 69.0249C38.9845 69.0772 38.8699 69.1538 38.7733 69.2504C38.6767 69.3469 38.6002 69.4615 38.5479 69.5877C38.4956 69.7139 38.4687 69.8491 38.4688 69.9856V70.3515C38.4688 70.6273 38.5783 70.8917 38.7733 71.0867C38.9683 71.2817 39.2328 71.3913 39.5086 71.3913Z" fill="black"/>
<path d="M57.0766 43.8799C54.9632 43.5814 52.6284 44.0099 51.4009 44.9101C51.2829 44.9875 51.182 45.0881 51.1042 45.2057C51.0264 45.3234 50.9733 45.4556 50.9482 45.5945C50.9231 45.7333 50.9266 45.8757 50.9583 46.0132C50.99 46.1506 51.0493 46.2802 51.1327 46.394C51.2161 46.5077 51.3217 46.6034 51.4432 46.675C51.5647 46.7467 51.6996 46.7929 51.8395 46.8108C51.9794 46.8287 52.1215 46.8179 52.2571 46.7792C52.3928 46.7404 52.5191 46.6745 52.6284 46.5853C53.2157 46.1569 54.891 45.6755 56.7925 45.9403C57.985 46.0694 59.0841 46.6457 59.8687 47.553C60.0289 47.7777 60.2718 47.9295 60.544 47.9751C60.8162 48.0207 61.0954 47.9563 61.3201 47.7961C61.5448 47.6358 61.6966 47.3929 61.7422 47.1207C61.7878 46.8485 61.7234 46.5694 61.5632 46.3446C60.4436 44.9726 58.835 44.0889 57.0766 43.8799Z" fill="black"/>
<path d="M43.105 74.7897C41.9712 75.134 40.7949 75.3187 39.6101 75.3385H39.3646C38.2037 75.3198 37.0513 75.1366 35.9418 74.7945C35.6816 74.7092 35.3983 74.73 35.1533 74.8523C34.9084 74.9747 34.7215 75.1887 34.6334 75.448C34.5453 75.7072 34.563 75.9908 34.6827 76.2371C34.8024 76.4833 35.0144 76.6725 35.2727 76.7634C36.5892 77.1797 37.9598 77.4003 39.3405 77.4181H39.6342C41.0337 77.3999 42.4233 77.1793 43.7597 76.7634C44.0183 76.6741 44.2313 76.4865 44.3525 76.2412C44.4737 75.996 44.4934 75.7128 44.4072 75.4532C44.3211 75.1935 44.1361 74.9783 43.8924 74.8541C43.6486 74.7299 43.3657 74.7067 43.105 74.7897Z" fill="black"/>
<path d="M39.5544 112.368C39.1599 112.367 38.7739 112.483 38.4454 112.702C38.1169 112.921 37.8607 113.232 37.7093 113.596C37.5578 113.961 37.518 114.362 37.5947 114.749C37.6714 115.136 37.8614 115.491 38.1404 115.77C38.4194 116.049 38.7749 116.239 39.162 116.316C39.549 116.393 39.9502 116.353 40.3145 116.202C40.6789 116.05 40.9901 115.794 41.2087 115.465C41.4274 115.137 41.5436 114.751 41.5426 114.356C41.5413 113.829 41.3315 113.324 40.9589 112.952C40.5863 112.579 40.0813 112.369 39.5544 112.368Z" fill="black"/>
<path d="M39.5544 123.281C39.1599 123.28 38.7739 123.396 38.4454 123.615C38.1169 123.834 37.8607 124.145 37.7093 124.509C37.5578 124.874 37.518 125.275 37.5947 125.662C37.6714 126.049 37.8614 126.404 38.1404 126.683C38.4194 126.963 38.7749 127.152 39.162 127.229C39.549 127.306 39.9502 127.266 40.3145 127.115C40.6789 126.963 40.9901 126.707 41.2087 126.378C41.4274 126.05 41.5436 125.664 41.5426 125.269C41.5413 124.743 41.3315 124.238 40.9589 123.865C40.5863 123.492 40.0813 123.283 39.5544 123.281Z" fill="black"/>
<path d="M39.4704 133.482C39.0759 133.481 38.6899 133.598 38.3614 133.816C38.0329 134.035 37.7767 134.346 37.6253 134.711C37.4738 135.075 37.434 135.476 37.5107 135.863C37.5875 136.25 37.7774 136.606 38.0564 136.885C38.3354 137.164 38.691 137.354 39.078 137.43C39.4651 137.507 39.8662 137.467 40.2305 137.316C40.5949 137.164 40.9061 136.908 41.1248 136.58C41.3434 136.251 41.4596 135.865 41.4586 135.471C41.4574 134.944 41.2475 134.439 40.8749 134.066C40.5023 133.694 39.9974 133.484 39.4704 133.482Z" fill="black"/>
<path d="M61.6109 71.0162C63.7777 71.0162 65.5343 70.2231 65.5343 69.2447C65.5343 68.2663 63.7777 67.4731 61.6109 67.4731C59.4441 67.4731 57.6875 68.2663 57.6875 69.2447C57.6875 70.2231 59.4441 71.0162 61.6109 71.0162Z" fill="#FBBEA7"/>
<path d="M17.9 71.0162C20.0668 71.0162 21.8233 70.2231 21.8233 69.2447C21.8233 68.2663 20.0668 67.4731 17.9 67.4731C15.7331 67.4731 13.9766 68.2663 13.9766 69.2447C13.9766 70.2231 15.7331 71.0162 17.9 71.0162Z" fill="#FBBEA7"/>
<path d="M30.1846 245.267C30.0209 245.802 29.2218 246.033 28.4468 245.787C27.6717 245.542 27.1374 244.906 27.3011 244.377C27.4647 243.847 28.2638 243.611 29.0437 243.857C29.8236 244.102 30.3483 244.738 30.1846 245.267Z" fill="#BCBEC0"/>
<path d="M44.4728 245.643C44.3043 246.177 43.51 246.408 42.7302 246.163C41.9503 245.917 41.4208 245.282 41.5844 244.752C41.7481 244.223 42.5472 243.987 43.3271 244.233C44.107 244.478 44.6269 245.113 44.4728 245.643Z" fill="#BCBEC0"/>
<path d="M18.0447 69.7066C17.8972 69.7064 17.7515 69.6749 17.6171 69.6144C17.4827 69.5538 17.3626 69.4654 17.2648 69.3552L5.71124 56.3237C5.61926 56.22 5.5486 56.0993 5.50329 55.9683C5.45799 55.8373 5.43892 55.6987 5.44719 55.5603C5.45546 55.422 5.4909 55.2866 5.55149 55.1619C5.61207 55.0373 5.69662 54.9258 5.8003 54.8338C5.90397 54.7418 6.02475 54.6711 6.15574 54.6258C6.28672 54.5805 6.42535 54.5615 6.56371 54.5698C6.70206 54.578 6.83743 54.6135 6.96208 54.674C7.08674 54.7346 7.19824 54.8192 7.29022 54.9229L18.8438 67.9543C19.0191 68.1598 19.1075 68.4254 19.0905 68.6949C19.0734 68.9645 18.9521 69.2168 18.7523 69.3985C18.5658 69.5899 18.3118 69.7005 18.0447 69.7066Z" fill="black"/>
<path d="M61.3255 70.1881C61.0711 70.1888 60.8256 70.0943 60.6371 69.9234C60.4373 69.7417 60.316 69.4893 60.299 69.2198C60.2819 68.9502 60.3704 68.6846 60.5457 68.4792L72.0655 55.4044C72.2487 55.1982 72.5063 55.0732 72.7817 55.057C73.057 55.0407 73.3276 55.1345 73.5338 55.3178C73.74 55.501 73.8649 55.7586 73.8812 56.0339C73.8974 56.3093 73.8036 56.5798 73.6204 56.786L62.1054 69.8463C62.0065 69.9546 61.886 70.041 61.7517 70.0999C61.6174 70.1588 61.4722 70.1888 61.3255 70.1881Z" fill="black"/>
<path d="M39.6818 86.0403C53.7531 86.0403 63.2703 79.4018 63.2703 79.4018C63.2703 79.4018 62.7889 74.1064 62.6926 73.2929C62.5963 72.4793 63.848 66.1393 63.848 66.1393C63.848 66.1393 57.2143 67.9301 55.1347 67.8194C53.055 67.7087 43.4897 65.7397 39.6818 65.7397C35.8739 65.7397 26.3038 67.7038 24.2289 67.8194C22.1541 67.9349 15.5156 66.1393 15.5156 66.1393C15.5156 66.1393 16.7865 72.4841 16.671 73.2929C16.5554 74.1016 16.0933 79.4018 16.0933 79.4018C16.0933 79.4018 25.6105 86.0403 39.6818 86.0403Z" fill="white"/>
<path d="M39.6827 87.0796C25.4525 87.0796 15.9016 80.5374 15.502 80.2582C15.3479 80.1529 15.2253 80.0077 15.1473 79.8381C15.0693 79.6685 15.0388 79.481 15.0592 79.2954C15.0592 79.0788 15.5406 74.0337 15.6368 73.1432C15.6368 72.5607 15.064 69.162 14.5007 66.3266C14.466 66.153 14.4761 65.9734 14.5301 65.8049C14.5841 65.6363 14.6803 65.4843 14.8095 65.3633C14.9387 65.2423 15.0966 65.1563 15.2684 65.1134C15.4401 65.0705 15.62 65.0722 15.7909 65.1182C17.5913 65.5996 22.6075 66.8465 24.172 66.7598C24.8941 66.7165 26.7379 66.4132 28.8705 66.0618C32.5917 65.4456 37.2227 64.6802 39.6827 64.6802C42.1426 64.6802 46.7737 65.4456 50.4949 66.0618C52.6323 66.4132 54.4712 66.7165 55.1933 66.7598C56.7578 66.8465 61.7788 65.6045 63.5792 65.1182C63.7474 65.0742 63.924 65.0736 64.0924 65.1166C64.2608 65.1595 64.4155 65.2446 64.542 65.3638C64.6711 65.4848 64.7671 65.6367 64.821 65.8052C64.8749 65.9737 64.8849 66.1531 64.8501 66.3266C64.2821 69.162 63.69 72.5847 63.7092 73.148C63.8296 74.0337 64.2725 79.0788 64.2917 79.2954C64.3095 79.4807 64.2778 79.6674 64.2001 79.8365C64.1223 80.0056 64.0011 80.1511 63.8488 80.2582C63.4685 80.5374 53.9176 87.0796 39.6827 87.0796ZM17.1869 78.867C24.0046 82.8824 31.7728 85 39.6851 85C47.5974 85 55.3655 82.8824 62.1832 78.867C62.0291 77.1243 61.7451 74 61.6681 73.4368C61.567 72.7532 62.0628 69.913 62.5105 67.5589C60.3443 68.1029 56.6616 68.9405 55.0826 68.8539C54.2449 68.8106 52.4397 68.5121 50.1579 68.1318C46.5137 67.5301 41.9741 66.7791 39.6827 66.7791C37.3912 66.7791 32.8564 67.5301 29.2074 68.1318C26.9256 68.5121 25.1252 68.8106 24.2876 68.8539C22.7038 68.9405 19.0211 68.1029 16.8548 67.5589C17.3073 69.913 17.8176 72.7532 17.702 73.4368C17.6202 74 17.341 77.1243 17.1869 78.867Z" fill="black"/>
<path d="M53.1683 72.5758C52.7182 72.5794 52.2682 72.5585 51.8204 72.5132C49.76 72.2725 41.8891 71.6563 39.6843 71.6563C37.4795 71.6563 29.6135 72.2725 27.5531 72.5132C25.4927 72.7539 21.2949 72.2436 21.1361 72.2244C20.9305 72.1995 20.7433 72.094 20.6155 71.931C20.4878 71.768 20.43 71.561 20.4549 71.3555C20.4798 71.1499 20.5853 70.9627 20.7483 70.8349C20.9112 70.7072 21.1182 70.6494 21.3238 70.6743C21.3671 70.6743 25.5264 71.1798 27.3702 70.9631C29.2139 70.7465 37.2629 70.0918 39.6843 70.0918C42.1058 70.0918 50.1018 70.7417 52.0033 70.9631C53.9048 71.1846 58.0063 70.6791 58.0448 70.6743C58.2504 70.6488 58.4577 70.7059 58.6211 70.8332C58.7845 70.9605 58.8906 71.1475 58.9162 71.3531C58.9417 71.5586 58.8845 71.7659 58.7572 71.9293C58.6299 72.0927 58.443 72.1989 58.2374 72.2244C56.5547 72.4269 54.8628 72.5442 53.1683 72.5758Z" fill="#BCBEC0"/>
<path d="M39.7715 78.2894C32.2665 78.2894 21.3821 76.4505 21.2761 76.4312C21.0719 76.3968 20.8897 76.2826 20.7696 76.1137C20.6495 75.9449 20.6014 75.7353 20.6359 75.531C20.6704 75.3268 20.7846 75.1445 20.9534 75.0245C21.1222 74.9044 21.3318 74.8563 21.5361 74.8908C21.642 74.8908 32.4013 76.7249 39.7715 76.7249C47.1417 76.7249 57.7324 74.9678 57.8383 74.9485C58.0426 74.9141 58.2522 74.9622 58.421 75.0822C58.5899 75.2023 58.7041 75.3845 58.7385 75.5888C58.773 75.7931 58.7249 76.0027 58.6048 76.1715C58.4848 76.3403 58.3026 76.4545 58.0983 76.489C57.9875 76.5035 47.2765 78.2894 39.7715 78.2894Z" fill="#BCBEC0"/>
<path d="M39.6842 82.6704C31.8807 82.6704 21.9543 79.8735 21.5355 79.7531C21.3363 79.6963 21.1678 79.5627 21.0672 79.3817C20.9665 79.2007 20.9419 78.9871 20.9987 78.7879C21.0555 78.5887 21.1891 78.4203 21.3701 78.3196C21.5512 78.219 21.7647 78.1943 21.9639 78.2512C22.065 78.28 32.1021 81.1106 39.6842 81.1106C47.2662 81.1106 57.3081 78.28 57.4092 78.2512C57.5079 78.2233 57.611 78.2152 57.7127 78.2273C57.8145 78.2393 57.9129 78.2713 58.0023 78.3213C58.0917 78.3714 58.1704 78.4386 58.2338 78.5191C58.2973 78.5995 58.3442 78.6917 58.372 78.7903C58.3999 78.8889 58.408 78.9921 58.3959 79.0938C58.3839 79.1956 58.3519 79.294 58.3019 79.3834C58.2518 79.4728 58.1846 79.5514 58.1041 79.6149C58.0237 79.6783 57.9315 79.7253 57.8329 79.7531C57.414 79.8735 47.4876 82.6704 39.6842 82.6704Z" fill="#BCBEC0"/>
</svg>
