<svg width="15" height="15" viewBox="0 0 15 15" fill="none" xmlns="http://www.w3.org/2000/svg">
<path d="M10.3983 3.8178V2.76096C10.3983 2.66936 10.2931 2.61878 10.222 2.67483L4.05869 7.4887C4.00632 7.52942 3.96395 7.58157 3.9348 7.64116C3.90565 7.70075 3.8905 7.76621 3.8905 7.83255C3.8905 7.89888 3.90565 7.96434 3.9348 8.02393C3.96395 8.08352 4.00632 8.13567 4.05869 8.17639L10.222 12.9903C10.2944 13.0463 10.3983 12.9957 10.3983 12.9041V11.8473C10.3983 11.7803 10.3669 11.716 10.3149 11.675L5.39306 7.83323L10.3149 3.99006C10.3669 3.94905 10.3983 3.88479 10.3983 3.8178Z" fill="#BFBFBF"/>
</svg>
