<svg width="14" height="18" viewBox="0 0 14 18" fill="none" xmlns="http://www.w3.org/2000/svg">
<path d="M6.9978 0.517578C3.58721 0.517578 0.811403 3.29449 0.811401 6.70508C0.811399 12.7062 6.64954 17.2684 6.64954 17.2684C6.85463 17.4318 7.14537 17.4318 7.35046 17.2684C7.35046 17.2684 13.1897 12.7062 13.1897 6.70508C13.1897 3.29449 10.4084 0.517578 6.9978 0.517578ZM6.9978 3.89368C8.54444 3.89368 9.81359 5.15845 9.8136 6.70508C9.81361 8.25173 8.54445 9.51978 6.9978 9.51978C5.45116 9.51978 4.18639 8.25173 4.1864 6.70508C4.18641 5.15845 5.45117 3.89368 6.9978 3.89368Z" fill="#0671D5"/>
</svg>
