<svg width="36" height="43" viewBox="0 0 36 43" fill="none" xmlns="http://www.w3.org/2000/svg">
<g clip-path="url(#clip0_1381_766)">
<path d="M18 3.5C14.75 3.5 12.1666 6.08333 12.1666 9.33333C12.1666 14.3333 18 20.1667 18 20.1667C18 20.1667 23.8333 14.25 23.8333 9.33333C23.8333 6.08333 21.25 3.5 18 3.5ZM18 11.4167C16.8333 11.4167 15.9166 10.5 15.9166 9.33333C15.9166 8.16667 16.8333 7.25 18 7.25C19.1666 7.25 20.0833 8.16667 20.0833 9.33333C20.0833 10.5 19.1666 11.4167 18 11.4167Z" fill="white"/>
</g>
<path d="M8.868 30.5855H10.176C10.716 30.5855 10.968 30.5735 11.22 30.5375C11.184 30.7895 11.184 30.7895 11.136 32.3135C11.052 34.9055 10.872 36.8255 10.656 37.6055C10.512 38.0735 10.344 38.3015 10.056 38.4095C9.852 38.4695 9.588 38.5055 9.264 38.5055C9.012 38.5055 8.844 38.4935 8.196 38.4215C8.172 38.0975 8.148 37.9175 8.052 37.6055C8.532 37.7255 8.964 37.7855 9.324 37.7855C9.828 37.7855 9.936 37.6295 10.08 36.7415C10.272 35.4935 10.356 34.1495 10.416 31.2575H8.856C8.748 33.2135 8.568 34.3295 8.148 35.5415C7.74 36.7775 7.176 37.7015 6.24 38.7095C6 38.4455 5.916 38.3615 5.604 38.1815C6.588 37.2335 7.104 36.3935 7.524 35.0975C7.872 33.9935 8.016 33.0095 8.1 31.2575H7.884C7.236 31.2575 6.996 31.2695 6.768 31.3175V30.5135C7.104 30.5735 7.368 30.5855 7.884 30.5855H8.124C8.148 30.0935 8.148 29.8175 8.148 29.3615C8.148 28.4615 8.136 28.2815 8.064 27.9575H8.964C8.916 28.2695 8.904 28.4495 8.892 28.8335C8.88 29.9615 8.88 30.2015 8.868 30.5855ZM2.352 28.9655V28.7015C2.352 28.3655 2.34 28.2095 2.304 27.9695H3.108C3.072 28.1495 3.06 28.2695 3.06 28.6895V28.9655H4.536V28.7015C4.536 28.3055 4.524 28.1855 4.488 27.9695H5.292C5.256 28.1735 5.244 28.2935 5.244 28.6775V28.9655H5.784C6.144 28.9655 6.42 28.9535 6.816 28.9055V29.6495C6.552 29.6015 6.3 29.5895 5.796 29.5895H5.244V29.7575C5.244 30.0455 5.256 30.2495 5.292 30.4175H4.5C4.524 30.2735 4.536 30.1175 4.536 29.7575V29.5895H3.06V29.7455C3.06 30.1175 3.072 30.2375 3.096 30.4055H2.304C2.34 30.2135 2.352 30.0215 2.352 29.7455V29.5895H1.692C1.212 29.5895 0.936 29.6015 0.744 29.6495V28.8935C0.984 28.9415 1.296 28.9655 1.728 28.9655H2.352ZM3.396 33.1415H2.028C1.584 33.1415 1.512 33.1415 1.188 33.1655C1.2 32.9735 1.212 32.8055 1.212 32.6255V31.2335C1.212 31.0295 1.212 30.9455 1.188 30.7055C1.44 30.7295 1.536 30.7295 2.04 30.7295H5.556C6.06 30.7295 6.156 30.7295 6.42 30.7055C6.396 30.9455 6.396 31.0175 6.396 31.2695V32.6135C6.396 32.8295 6.408 32.9855 6.42 33.1655C6.132 33.1415 6.036 33.1415 5.568 33.1415H4.08V33.9935H5.376C5.832 33.9935 6.096 33.9815 6.444 33.9335V34.6655C6.12 34.6175 5.808 34.6055 5.376 34.6055H4.08V35.4575H5.088C5.544 35.4575 5.832 35.4455 6.144 35.3975V36.1295C5.796 36.0815 5.52 36.0695 5.088 36.0695H4.08V37.1135C4.74 37.0295 5.16 36.9455 6.228 36.7175L6.276 37.3175C4.536 37.7135 3.78 37.8455 1.524 38.1575C1.308 38.1815 1.164 38.2055 0.936 38.2535L0.768 37.4375C0.888 37.4495 0.936 37.4495 0.984 37.4495C1.404 37.4495 1.86 37.4015 3.396 37.1975V36.0695H2.292C1.896 36.0695 1.608 36.0935 1.308 36.1295V35.3975C1.512 35.4335 1.824 35.4575 2.304 35.4575H3.396V34.6055H1.992C1.596 34.6055 1.272 34.6295 0.996 34.6655V33.9335C1.236 33.9815 1.524 33.9935 2.016 33.9935H3.396V33.1415ZM3.396 31.3055H1.884V32.5655H3.396V31.3055ZM4.08 31.3055V32.5655H5.736V31.3055H4.08ZM23.412 29.0015V29.7575C23.124 29.7215 22.884 29.7095 22.38 29.7095C21.936 30.6935 21.6 31.1975 20.976 31.8335C21.72 32.3135 22.536 32.6375 23.688 32.9255C23.508 33.1895 23.46 33.2975 23.34 33.6455C22.104 33.2615 21.264 32.8535 20.472 32.2775C19.8 32.8175 19.02 33.2255 17.724 33.7295C17.616 33.4895 17.52 33.3215 17.316 33.1055C18.444 32.7455 19.2 32.3855 19.932 31.8575C19.344 31.3295 18.996 30.9335 18.588 30.2495C18.276 30.6935 18.084 30.9095 17.544 31.4495C17.376 31.2455 17.28 31.1615 17.016 30.9815C17.7 30.3575 18.024 29.9855 18.384 29.3735C18.744 28.7975 18.96 28.2935 19.08 27.7655L19.812 27.9575C19.764 28.0655 19.764 28.0655 19.692 28.2215C19.548 28.5455 19.428 28.8215 19.32 29.0615H22.236C22.764 29.0615 23.112 29.0375 23.412 29.0015ZM21.624 29.7095H18.996C19.404 30.4415 19.788 30.8975 20.436 31.4375C21.024 30.8855 21.24 30.5615 21.624 29.7095ZM14.94 32.3255H13.692C13.188 32.3255 12.888 32.3495 12.624 32.3975V31.6055C12.912 31.6535 13.212 31.6655 13.728 31.6655H15.36C14.796 30.9815 14.352 30.5495 13.572 29.9615L14.052 29.5295C14.628 29.9975 14.832 30.1655 15.204 30.5255C15.852 29.9375 16.056 29.7095 16.536 29.0135H13.992C13.5 29.0135 13.176 29.0375 12.912 29.0855V28.3055C13.2 28.3535 13.512 28.3655 14.052 28.3655H16.188C16.812 28.3655 16.932 28.3655 17.16 28.3295L17.568 28.7735C17.448 28.8935 17.376 28.9775 17.208 29.2055C16.668 29.9495 16.284 30.3695 15.636 30.9695C15.768 31.1255 15.816 31.1735 15.972 31.3535L15.672 31.6655H16.5C16.908 31.6655 17.136 31.6535 17.352 31.6295L17.676 32.0255C17.592 32.2055 17.592 32.2055 17.364 32.7935C17.136 33.4055 16.992 33.7175 16.692 34.2335C16.452 34.0535 16.404 34.0295 16.116 33.8975C16.476 33.3455 16.644 32.9855 16.872 32.3255H15.672L15.732 37.7975C15.744 38.3855 15.492 38.5895 14.772 38.5895C14.376 38.5895 14.1 38.5775 13.572 38.5175C13.56 38.2895 13.512 38.0615 13.404 37.8095C13.944 37.9055 14.316 37.9415 14.676 37.9415C14.928 37.9415 15.024 37.8695 15.024 37.6655V33.5615C14.472 34.8935 13.764 35.9375 12.888 36.8015C12.744 36.5135 12.648 36.3815 12.408 36.1415C13.548 35.1575 14.28 34.0415 14.94 32.3255ZM20.136 34.4735H21.984C22.476 34.4735 22.752 34.4615 22.968 34.4255C22.932 34.6655 22.932 34.6655 22.86 35.5175C22.728 36.9095 22.512 37.8455 22.248 38.1695C22.068 38.3975 21.792 38.4935 21.372 38.4935C20.952 38.4935 20.7 38.4695 19.956 38.3615C19.932 38.0495 19.908 37.9175 19.8 37.5935C20.484 37.7495 20.88 37.8095 21.264 37.8095C21.684 37.8095 21.792 37.6535 21.948 36.8735C22.044 36.4055 22.092 36.0455 22.164 35.1335H19.98C19.476 36.8375 18.54 37.8455 16.644 38.6615C16.524 38.3975 16.392 38.2295 16.188 38.0375C17.112 37.6655 17.724 37.3055 18.24 36.8255C18.732 36.3575 19.02 35.8775 19.248 35.1335H17.988C17.436 35.1335 17.16 35.1455 16.872 35.1935V34.4135C17.16 34.4615 17.424 34.4735 18.012 34.4735H19.404C19.488 34.0535 19.524 33.7175 19.524 33.3935C19.524 33.2855 19.524 33.2495 19.5 33.1295L20.352 33.1655C20.316 33.3935 20.292 33.5255 20.244 33.8375C20.196 34.1255 20.172 34.2695 20.136 34.4735ZM29.784 32.6015V37.1015C29.784 37.3895 29.856 37.4855 30.144 37.5575C30.432 37.6415 30.972 37.6655 32.076 37.6655C33.768 37.6655 34.272 37.5935 34.464 37.3175C34.62 37.1015 34.704 36.5495 34.716 35.6975C34.992 35.8655 35.136 35.9255 35.484 36.0095C35.34 38.2295 35.124 38.3735 32.004 38.3735C29.52 38.3735 29.028 38.1935 29.028 37.2575V32.8535L28.764 32.9375C28.092 33.1655 28.044 33.1895 27.768 33.3215L27.552 32.5055C27.888 32.4695 28.212 32.3975 28.596 32.2655L29.028 32.1215V30.2375C29.028 29.7335 29.004 29.3615 28.956 29.0135H29.856C29.808 29.3735 29.784 29.7215 29.784 30.2015V31.8815L31.5 31.3055V29.0855C31.5 28.6175 31.476 28.3295 31.428 27.9695H32.316C32.268 28.3175 32.244 28.6655 32.244 29.0975V31.0655L34.092 30.4535C34.464 30.3335 34.716 30.2255 35.04 30.0815C34.992 31.2815 34.944 32.1215 34.848 33.2975C34.764 34.3655 34.608 34.8695 34.296 35.0495C34.08 35.1695 33.852 35.2175 33.432 35.2175C33.324 35.2175 33.18 35.2055 32.904 35.1815C32.868 34.8695 32.82 34.6775 32.724 34.4255C33.048 34.4975 33.36 34.5335 33.648 34.5335C33.924 34.5335 33.984 34.4735 34.044 34.1255C34.128 33.6815 34.188 32.7935 34.236 31.0895L32.244 31.7735V35.0855C32.244 35.5655 32.268 35.8895 32.316 36.2375H31.428C31.476 35.9015 31.5 35.5655 31.5 35.0735V32.0255L29.784 32.6015ZM26.112 31.1255V29.3255C26.112 28.7615 26.088 28.3415 26.04 27.9935H26.928C26.88 28.3775 26.856 28.7375 26.856 29.3375V31.1255H27.192C27.696 31.1255 27.924 31.1135 28.152 31.0655V31.8455C27.852 31.8095 27.6 31.7975 27.18 31.7975H26.856V35.5655C27.372 35.3255 27.588 35.2175 28.212 34.8695L28.284 35.6015C27.12 36.2495 26.544 36.5135 25.188 37.0655C25.02 37.1255 24.84 37.2095 24.708 37.2695L24.504 36.4415C24.936 36.3695 25.248 36.2615 26.112 35.9015V31.7975H25.668C25.164 31.7975 24.972 31.8095 24.66 31.8695V31.0535C24.936 31.1135 25.176 31.1255 25.668 31.1255H26.112Z" fill="white"/>
<defs>
<clipPath id="clip0_1381_766">
<rect width="20" height="20" fill="white" transform="translate(8 1.8335)"/>
</clipPath>
</defs>
</svg>
