<svg width="32" height="33" viewBox="0 0 32 33" fill="none" xmlns="http://www.w3.org/2000/svg">
<rect y="0.399902" width="32" height="32" rx="16" fill="#ECF2F8"/>
<g clip-path="url(#clip0_2758_4759)">
<path d="M16.0712 6.39307C11.9719 6.39307 8.5 9.88494 8.5 14.0206C8.5 18.3518 12.5244 22.7812 15.2313 25.8943C15.2419 25.9068 15.6794 26.3924 16.2181 26.3924H16.2656C16.805 26.3924 17.2394 25.9068 17.25 25.8943C19.79 22.9743 23.5 18.1587 23.5 14.0206C23.5 9.88432 20.7919 6.39307 16.0712 6.39307ZM16.3219 25.0556C16.3 25.0774 16.2681 25.1018 16.24 25.1224C16.2113 25.1024 16.18 25.0774 16.1569 25.0556L15.83 24.6793C13.2638 21.7356 9.74938 17.7037 9.74938 14.0199C9.74938 10.5624 12.6444 7.64182 16.0706 7.64182C20.3388 7.64182 22.2494 10.8449 22.2494 14.0199C22.2494 16.8162 20.255 20.5299 16.3219 25.0556ZM16.0219 10.1774C13.9513 10.1774 12.2719 11.8562 12.2719 13.9274C12.2719 15.9987 13.9513 17.6774 16.0219 17.6774C18.0925 17.6774 19.7719 15.9981 19.7719 13.9274C19.7719 11.8568 18.0931 10.1774 16.0219 10.1774ZM16.0219 16.4274C14.6431 16.4274 13.4931 15.2787 13.4931 13.8999C13.4931 12.5212 14.6144 11.3999 15.9931 11.3999C17.3725 11.3999 18.4931 12.5212 18.4931 13.8999C18.4938 15.2787 17.4012 16.4274 16.0219 16.4274Z" fill="#0671D5"/>
</g>
<defs>
<clipPath id="clip0_2758_4759">
<rect width="20" height="20" fill="white" transform="translate(6 6.3999)"/>
</clipPath>
</defs>
</svg>
