<svg width="300" height="46" viewBox="0 0 300 46" fill="none" xmlns="http://www.w3.org/2000/svg">
<path d="M74.035 23.97V30.3389C74.0371 30.4461 74.0178 30.5526 73.9778 30.6521C73.9379 30.7516 73.8783 30.8419 73.8028 30.9177C73.7272 30.9935 73.6371 31.0533 73.5379 31.0934C73.4387 31.1334 73.3324 31.1528 73.2256 31.1506H71.8928C71.7858 31.1537 71.6791 31.1347 71.5799 31.0948C71.4805 31.0546 71.3904 30.9945 71.3154 30.9179C71.2397 30.8423 71.1799 30.752 71.1401 30.6523C71.1 30.5528 71.0809 30.4463 71.0834 30.3389V24.0404C71.0721 23.1527 70.7145 22.3048 70.0869 21.6786C69.4596 21.0524 68.6123 20.6979 67.7272 20.6908H62.5527L64.301 10.2202H60.5777C59.8006 10.2212 59.0486 10.4984 58.4561 11.0027C57.8633 11.5069 57.468 12.2056 57.3402 12.9745L53.709 34.7599H57.432C58.2094 34.7589 58.9611 34.4817 59.5539 33.9774C60.1467 33.4732 60.5418 32.7745 60.6695 32.0056L61.9645 24.2838H63.7775C63.8844 24.2817 63.9906 24.3011 64.0899 24.341C64.1891 24.3812 64.2791 24.4409 64.3547 24.5167C64.4303 24.5925 64.4899 24.6828 64.5297 24.7823C64.5697 24.8818 64.5891 24.9884 64.5869 25.0955V31.3941C64.5926 32.2855 64.9477 33.1389 65.5758 33.7698C66.2037 34.4005 67.0541 34.7581 67.943 34.7652H77.1645C78.0533 34.7581 78.9037 34.4005 79.5317 33.7698C80.1598 33.1389 80.5151 32.2855 80.5207 31.3941V20.6908H77.3156C76.4479 20.6922 75.6158 21.0379 75.0012 21.6521C74.3865 22.2666 74.0393 23.0998 74.035 23.97Z" fill="#0071D4"/>
<path d="M135.37 17.2821H119.334C118.9 17.2753 118.469 17.3561 118.067 17.5197C117.665 17.6833 117.299 17.9264 116.992 18.2345C116.681 18.5289 116.433 18.8846 116.265 19.2794C116.097 19.6742 116.012 20.0996 116.016 20.5288V31.3511C116.012 31.7797 116.097 32.2041 116.265 32.598C116.434 32.9919 116.681 33.3468 116.992 33.64C117.299 33.9481 117.665 34.1912 118.067 34.3548C118.469 34.5185 118.9 34.5992 119.334 34.5924H124.919C125.676 34.5924 126.409 34.3219 126.985 33.8295C127.567 33.3421 127.934 32.6439 128.005 31.8868L128.831 19.5061H130.579C130.947 19.4981 131.304 19.6317 131.577 19.8795C131.706 19.9917 131.809 20.1306 131.879 20.2867C131.949 20.4428 131.984 20.6122 131.982 20.7832V31.0644C131.985 31.2356 131.95 31.4052 131.88 31.5613C131.81 31.7174 131.707 31.8563 131.577 31.9681C131.307 32.2202 130.948 32.3561 130.579 32.3469C130.238 32.3469 129.912 32.4825 129.671 32.724C129.43 32.9655 129.295 33.2932 129.295 33.6348V34.5816H134.054C134.489 34.5892 134.921 34.5087 135.324 34.3452C135.727 34.1814 136.094 33.938 136.401 33.6293C136.712 33.3359 136.96 32.9811 137.128 32.5873C137.296 32.1934 137.381 31.7687 137.378 31.3404V19.2843C137.379 19.0212 137.326 18.7607 137.223 18.5188C137.12 18.2769 136.969 18.0586 136.779 17.8774C136.596 17.6881 136.377 17.5378 136.135 17.4355C135.893 17.3332 135.633 17.281 135.37 17.2821ZM123.694 31.3511C123.649 31.6336 123.493 31.8866 123.262 32.0547C123.022 32.2564 122.717 32.364 122.404 32.3577C122.052 32.3661 121.71 32.2382 121.449 32.0004C121.325 31.8952 121.226 31.7632 121.159 31.6144C121.093 31.4653 121.061 31.3031 121.066 31.1402V20.7995C121.064 20.6283 121.1 20.4589 121.169 20.3029C121.239 20.1468 121.342 20.008 121.471 19.8957C121.744 19.648 122.101 19.5143 122.469 19.5224H124.449L123.694 31.3511Z" fill="#0071D4"/>
<path d="M151.595 9.98779H146.615C145.717 9.98779 144.856 10.3451 144.221 10.9812C143.586 11.6173 143.228 12.4803 143.227 13.3806V35.1497H148.207C149.105 35.1497 149.967 34.7917 150.603 34.1543C151.238 33.5171 151.595 32.6528 151.595 31.7516V24.176H163.731C164.073 24.1734 164.406 24.062 164.681 23.8579C164.956 23.6536 165.16 23.3672 165.263 23.0395L166.11 20.2799H151.595V9.98779Z" fill="#0071D4"/>
<path d="M226.415 32.2932C226.348 32.5836 226.35 32.8851 226.419 33.175C226.485 33.4648 226.618 33.7355 226.805 33.9669C226.991 34.198 227.229 34.3837 227.497 34.51C227.766 34.6363 228.059 34.6998 228.356 34.6957H233.612L239.272 10.6323H231.524L226.415 32.2932Z" fill="#0071D4"/>
<path d="M247.947 10.5723H242.871L247.937 32.0547C248.121 32.7932 248.545 33.4485 249.145 33.9157C249.742 34.3828 250.48 34.6345 251.24 34.6304H256.312L251.244 13.1426C251.062 12.4051 250.639 11.7505 250.041 11.2842C249.443 10.8179 248.705 10.5672 247.947 10.5723Z" fill="#0071D4"/>
<path d="M262.355 20.2583C261.898 20.2556 261.451 20.4017 261.084 20.675C260.717 20.9482 260.447 21.3337 260.316 21.7734L259.576 24.1706H279.076C279.529 24.1708 279.971 24.0255 280.334 23.7556C280.699 23.4859 280.967 23.1059 281.1 22.6716L281.834 20.2746L262.355 20.2583Z" fill="#0071D4"/>
<path d="M193.021 12.9743L193.755 10.5825H174.254C173.802 10.5822 173.361 10.7277 172.996 10.9975C172.632 11.2674 172.364 11.6473 172.231 12.0814L171.497 14.4732H190.997C191.45 14.4734 191.891 14.328 192.256 14.0582C192.62 13.7883 192.888 13.4084 193.021 12.9743Z" fill="#0071D4"/>
<path d="M163.488 10.0737H161.427C160.905 10.0732 160.398 10.2407 159.979 10.5515C159.561 10.8624 159.253 11.3 159.101 11.7999L157.795 15.9827H161.653L163.488 10.0737Z" fill="#0071D4"/>
<path d="M162.801 15.9832H164.911C165.417 15.9837 165.911 15.8209 166.319 15.519C166.727 15.217 167.028 14.7918 167.177 14.3058L168.472 10.0742H164.614L162.801 15.9832Z" fill="#0071D4"/>
<path d="M257.034 10.0737C256.513 10.0732 256.005 10.2407 255.587 10.5515C255.167 10.8624 254.86 11.3 254.708 11.7999L253.425 15.9827H257.282L259.095 10.0737H257.034Z" fill="#0071D4"/>
<path d="M262.785 14.3053L264.09 10.0737H260.227L258.408 15.9827H260.52C261.025 15.9832 261.52 15.8204 261.928 15.5185C262.336 15.2165 262.637 14.7913 262.785 14.3053Z" fill="#0071D4"/>
<path d="M189.632 17.1859C189.585 17.1782 189.538 17.1782 189.491 17.1859L171.286 16.9045C170.833 16.8981 170.391 17.0377 170.024 17.3027C169.656 17.5677 169.384 17.9441 169.246 18.3763C168.998 19.1772 168.744 19.9997 168.496 20.7736L184.074 21.0386C184.456 21.0437 184.829 21.1538 185.152 21.3571C185.476 21.5604 185.737 21.8489 185.908 22.1913C186.011 22.4013 186.07 22.6304 186.08 22.8641C186.09 23.0978 186.052 23.3312 185.968 23.5494L184.036 28.6522C183.529 30.178 182.876 31.06 181.77 31.6608C181.168 31.9514 180.519 32.1346 179.854 32.2019L179.158 32.2993C178.857 32.3355 178.571 32.4562 178.334 32.6475C178.098 32.8389 177.919 33.0933 177.82 33.3815L177.48 34.8642H184.775C186.565 34.8213 188.302 34.2572 189.777 33.2408C191.281 32.1011 192.442 30.5676 193.133 28.8091C193.783 27.3099 194.299 25.7563 194.677 24.1662C195.017 22.7648 195.044 22.1263 194.903 21.4607C194.294 18.5279 192.173 17.3103 189.632 17.1859Z" fill="#0071D4"/>
<path d="M216.918 11.0319C215.154 13.3399 213.129 15.4322 210.879 17.2655C208.381 19.2466 205.652 20.918 202.754 22.2438C201.783 22.6657 200.764 22.9656 199.721 23.1366C199.498 23.1689 199.279 23.2159 199.063 23.2772C198.764 23.3407 198.488 23.481 198.26 23.6839C198.031 23.887 197.859 24.1459 197.762 24.4354L197.471 25.6529H200.801C202.168 25.6598 203.533 25.5109 204.869 25.2091L205.5 25.0522C206.494 24.7915 207.471 24.4697 208.424 24.0889V35.1495H213.404C214.328 35.1211 215.203 34.7274 215.838 34.054C216.473 33.3808 216.816 32.4829 216.793 31.5564V18.7699L217.139 18.4506C220.225 16.1759 222.906 13.3931 225.065 10.2202H218.59C218.268 10.222 217.951 10.2958 217.662 10.4363C217.373 10.5767 217.119 10.7802 216.918 11.0319Z" fill="#0071D4"/>
<path d="M95.4611 16.784C95.8754 16.7804 96.2789 16.6514 96.6188 16.4139C96.9586 16.1763 97.219 15.8414 97.3658 15.4529L98.2291 13.1639H95.0455L96.0762 10.1499H90.9988C90.5693 10.1495 90.1506 10.2839 89.8012 10.5342C89.452 10.7846 89.1895 11.1384 89.0508 11.546L88.5113 13.1693H85.7486C85.3307 13.1686 84.9225 13.2955 84.5783 13.5333C84.2342 13.7712 83.9705 14.1086 83.8223 14.5005L82.959 16.7894H87.2756L83.3529 28.1529H88.4574C88.8861 28.1536 89.3043 28.0201 89.6535 27.7707C90.0029 27.5214 90.2656 27.1688 90.4053 26.7622L93.8531 16.7624L95.4611 16.784Z" fill="#0071D4"/>
<path d="M111.225 14.0844L112.039 11.9199H103.59C103.174 11.9228 102.769 12.0521 102.428 12.2908C102.087 12.5294 101.826 12.8661 101.679 13.2565L100.859 15.4209H109.315C109.73 15.418 110.136 15.2887 110.477 15.0501C110.818 14.8115 111.079 14.4748 111.225 14.0844Z" fill="#0071D4"/>
<path d="M108.52 17.2935H105.309C104.436 17.2949 103.599 17.6438 102.982 18.2637C102.364 18.8836 102.018 19.7237 102.018 20.5996V24.6635H95.0304C94.1396 24.6692 93.2871 25.0268 92.6578 25.6591C92.0283 26.2911 91.673 27.1467 91.6687 28.0401V31.3896C91.673 32.2828 92.0283 33.1383 92.6578 33.7706C93.2871 34.4027 94.1396 34.7603 95.0304 34.766H105.158C106.049 34.7603 106.902 34.4027 107.531 33.7706C108.16 33.1383 108.516 32.2828 108.52 31.3896V28.2673H109.264C109.683 28.2677 110.092 28.1399 110.436 27.901C110.78 27.6622 111.044 27.3238 111.191 26.9307L112.054 24.6417H108.52V17.2935ZM102.018 30.329C102.021 30.4367 102.002 30.5442 101.961 30.6439C101.92 30.7438 101.859 30.8337 101.78 30.908C101.706 30.9859 101.617 31.047 101.517 31.0872C101.417 31.1273 101.31 31.1456 101.203 31.1407H98.98C98.8732 31.1428 98.7669 31.1234 98.6677 31.0833C98.5685 31.0433 98.4785 30.9836 98.4029 30.9078C98.3273 30.832 98.2677 30.7417 98.2279 30.6422C98.1878 30.5427 98.1685 30.4361 98.1707 30.329V29.1007C98.1668 28.9932 98.1855 28.8862 98.2255 28.7865C98.2654 28.6866 98.3257 28.5965 98.4027 28.5217C98.4748 28.4398 98.5638 28.3746 98.6634 28.3307C98.7632 28.2867 98.8712 28.2651 98.98 28.2673H102.012L102.018 30.329Z" fill="#0071D4"/>
<path d="M48.8 12.4334H45.3521C44.4798 12.4339 43.6414 12.7717 43.0113 13.3764C42.381 13.9811 42.0078 14.8063 41.9689 15.6801L41.7369 21.1832L37.4957 20.7774L38.0353 10.3555H25.5117C25.082 10.3549 24.6623 10.4864 24.3094 10.7321C23.9562 10.9778 23.6867 11.326 23.5369 11.7299L22.6465 14.0838H31.1719L30.956 17.9852C33.9777 17.9852 36.5353 20.7286 37.3931 24.4787L41.5695 24.9006L41.1379 34.7491H44.5912C45.4634 34.7485 46.3017 34.4106 46.932 33.806C47.5621 33.2013 47.9355 32.3761 47.9744 31.5024L48.2279 25.5501L49.7982 25.7503C49.9417 25.7659 50.0869 25.7518 50.2248 25.7086C50.3626 25.6653 50.49 25.5938 50.599 25.4988C50.7078 25.4038 50.796 25.287 50.858 25.1562C50.9197 25.0254 50.9539 24.8832 50.9582 24.7384V22.168L48.4005 21.8758L48.8 12.4334Z" fill="#0071D4"/>
<path d="M31.2906 21.1787C28.9759 21.1787 27.0927 23.8842 27.0927 27.2553C27.0927 30.6264 28.9759 33.3322 31.2906 33.3322C33.6054 33.3322 35.4886 30.6264 35.4886 27.2553C35.4886 23.8842 33.6109 21.1787 31.2906 21.1787ZM32.9904 28.9761C33.1333 28.6642 33.2349 28.335 33.2925 27.9967H34.7709C34.6853 29.0303 34.338 30.0249 33.7619 30.8862L32.9904 28.9761ZM33.2925 26.5087C33.2341 26.1722 33.1326 25.8449 32.9904 25.5346L33.7511 23.6245C34.3302 24.4832 34.6812 25.4759 34.7709 26.5087H33.2925ZM32.9148 22.7208L32.1703 24.5823C32.0195 24.5061 31.8533 24.4654 31.6845 24.4632C31.5314 24.4644 31.3802 24.4995 31.2421 24.5661L30.3517 22.3367C30.6488 22.21 30.9679 22.1438 31.2906 22.1418C31.8837 22.1592 32.4546 22.3723 32.9148 22.7478V22.7208ZM29.4076 22.9427L30.4058 25.4534C30.2456 25.7779 30.1347 26.1244 30.0765 26.4817H27.8212C27.9179 25.1594 28.4802 23.9146 29.4076 22.9697V22.9427ZM27.8212 27.9697H30.0765C30.1339 28.3287 30.2449 28.6772 30.4058 29.0031L29.4076 31.5139C28.4802 30.5669 27.9181 29.3204 27.8212 27.9967V27.9697ZM30.3517 32.1199L31.2421 29.8906C31.3802 29.9572 31.5314 29.9922 31.6845 29.9934C31.8533 29.9912 32.0195 29.9505 32.1703 29.8743L32.9148 31.7359C32.4525 32.1006 31.8841 32.3039 31.296 32.3148C30.9734 32.3221 30.6523 32.2651 30.3517 32.147V32.1199Z" fill="#A0A0A0"/>
<path d="M37.7076 27.2821C37.7076 22.1523 34.6752 17.9966 30.9359 17.9966H26.1066C22.3673 17.9966 19.3349 22.1523 19.3349 27.2821C19.3349 32.2605 22.2001 36.3242 25.8099 36.5514H31.2056C34.7992 36.3837 37.7076 32.2983 37.7076 27.2821ZM31.2919 33.3319C28.9771 33.3319 27.0941 30.6262 27.0941 27.2551C27.0941 23.884 28.9771 21.1784 31.2919 21.1784C33.6068 21.1784 35.49 23.884 35.49 27.2551C35.49 30.6262 33.6123 33.3319 31.2919 33.3319Z" fill="black"/>
</svg>
