<svg width="26" height="26" viewBox="0 0 26 26" fill="none" xmlns="http://www.w3.org/2000/svg">
<rect y="0.535645" width="25.4286" height="25.4286" rx="12.7143" fill="#EAF6FF"/>
<path d="M9.58007 16.1114C10.047 17.1204 10.7447 18.0849 11.6574 18.9829C9.7442 18.6907 8.15342 17.5035 7.28951 15.8614L9.58004 16.1114H9.58007ZM11.6227 7.06588C9.75881 7.36284 8.20672 8.50795 7.33851 10.0932L9.58062 9.8687C10.0417 8.88013 10.7289 7.93924 11.6227 7.06586L11.6227 7.06588ZM12.3257 9.89872L12.3568 7H12.3504C11.3476 7.88997 10.5845 8.85338 10.076 9.87304L12.3256 9.89879L12.3257 9.89872ZM7.48326 10.7988L7.06907 10.7951L6.6596 10.7897L6.62746 13.8004L4.96961 10.7715L4.0453 10.7613L4 15.0456L4.41209 15.0515L4.82208 15.0552L4.85476 11.9668L6.5606 15.0745L7.43856 15.0847L7.48335 10.7988L7.48326 10.7988ZM11.4235 11.6031L11.4272 11.2211L11.4319 10.8418L8.32906 10.808L8.28376 15.094L11.483 15.1283L11.4873 14.7473L11.4909 14.3674L9.17275 14.3422L9.18433 13.224L11.2454 13.2465L11.2491 12.8789L11.2527 12.5092L9.1917 12.4872L9.20175 11.5784L11.4235 11.6031V11.6031ZM15.6298 13.9993L15.0522 10.8819L14.1147 10.8706L13.4797 14.0014L12.8084 10.8572L11.893 10.8465L13.0207 15.1453L13.4386 15.1496L13.8576 15.155L14.5548 11.7869L15.1961 15.1689L15.6166 15.1748L16.0339 15.1791L17.2523 10.906L16.3622 10.8963L15.6298 13.9992L15.6298 13.9993ZM12.8094 7.00531H12.8031L12.7726 9.90352L15.0238 9.92766C14.5359 8.89674 13.7939 7.91727 12.8095 7.00531H12.8094ZM17.6175 9.95551C16.6806 8.3654 15.0818 7.26264 13.2182 7.03883C14.412 7.97887 15.0786 8.93424 15.5196 9.93297L17.6175 9.95546L17.6175 9.95551ZM13.25 19C15.1621 18.7508 16.7681 17.6065 17.6685 16.0003L15.3879 16.1752C14.8994 17.1734 14.1806 18.1218 13.25 19L13.25 19ZM14.8889 16.1698L12.7066 16.1457L12.6771 18.9137C13.6373 18.0634 14.3798 17.1402 14.8888 16.1698L14.8889 16.1698ZM20.7003 13.1618C20.4948 12.9769 20.088 12.8109 19.4761 12.6667C19.0546 12.5638 18.779 12.4797 18.6504 12.4068C18.5192 12.3366 18.4533 12.2364 18.4549 12.1073C18.456 11.9311 18.5208 11.788 18.6488 11.6899C18.7748 11.5951 18.9508 11.5463 19.1737 11.5495C19.4319 11.5517 19.6406 11.6149 19.8003 11.7344C19.9589 11.855 20.0448 12.0162 20.0575 12.2209L20.9148 12.2316C20.8874 11.8003 20.7267 11.4595 20.4327 11.2034C20.1402 10.9473 19.7565 10.8171 19.2844 10.8123C18.7806 10.8064 18.3785 10.9248 18.0797 11.1627C17.7815 11.4033 17.6302 11.7355 17.626 12.1491C17.6223 12.5205 17.7309 12.7948 17.9517 12.9732C18.1756 13.1505 18.6214 13.3199 19.2876 13.4779C19.6501 13.5637 19.8857 13.6478 19.9963 13.7228C20.1081 13.8 20.1639 13.9178 20.1623 14.0807C20.1608 14.2441 20.0801 14.3696 19.9215 14.4606C19.7624 14.5507 19.5437 14.5946 19.2617 14.5914C18.9893 14.5881 18.7759 14.5255 18.6252 14.4006C18.4724 14.2779 18.3943 14.1038 18.387 13.8739L17.5391 13.8648C17.5544 14.3278 17.712 14.6857 18.0092 14.9397C18.3069 15.1958 18.7227 15.3249 19.2544 15.3302C19.7871 15.3357 20.2082 15.2247 20.5223 14.99C20.8374 14.7564 20.9955 14.4398 20.9997 14.0368C21.006 13.6371 20.9049 13.3445 20.7004 13.1618L20.7003 13.1618ZM12.2308 18.9062L12.2603 16.1415L10.0781 16.1173C10.5682 17.0978 11.2896 18.0366 12.2308 18.9062L12.2308 18.9062Z" fill="#0671D5"/>
</svg>
