<svg width="20" height="21" viewBox="0 0 20 21" fill="none" xmlns="http://www.w3.org/2000/svg">
<path d="M17.4995 16.6698V14.4117C17.5087 14.0426 17.3816 13.6829 17.1424 13.4012C16.4679 12.6067 14.1545 12.0985 13.2375 12.2937C12.5228 12.4458 12.0226 13.1635 11.5337 13.6515C9.64553 12.5799 8.08215 11.0197 7.0085 9.13515C7.49741 8.64723 8.21656 8.14812 8.36903 7.43472C8.56428 6.52096 8.05677 4.22239 7.26776 3.54518C6.99024 3.30698 6.63539 3.17763 6.26937 3.18123H4.00675C3.14465 3.18203 2.4274 3.95528 2.50589 4.82214C2.5 12.2937 8.33336 18.1812 15.8554 18.1752C16.7269 18.2539 17.503 17.5331 17.4995 16.6698Z" fill="white"/>
</svg>
