<svg width="18" height="19" viewBox="0 0 18 19" fill="none" xmlns="http://www.w3.org/2000/svg">
<path d="M11.6672 11.8678L11.3255 12.2274C11.3255 12.2274 10.5136 13.0823 8.29733 10.749C6.08109 8.41566 6.89302 7.56083 6.89302 7.56083L7.10814 7.33436C7.63808 6.77646 7.68803 5.88076 7.22568 5.22686L6.27994 3.88924C5.70771 3.07991 4.60197 2.97299 3.94609 3.66351L2.76889 4.90289C2.44367 5.24528 2.22574 5.68912 2.25217 6.18149C2.31978 7.44113 2.85803 10.1513 5.86152 13.3134C9.04658 16.6667 12.0351 16.8 13.2572 16.6794C13.6438 16.6412 13.9799 16.4328 14.2508 16.1475L15.3163 15.0258C16.0355 14.2687 15.8327 12.9707 14.9125 12.441L13.4796 11.6163C12.8754 11.2685 12.1394 11.3706 11.6672 11.8678Z" fill="#0671D5"/>
<path d="M9.94461 2.36691C9.99426 2.06024 10.2841 1.85221 10.5908 1.90185C10.6098 1.90549 10.6709 1.91691 10.7029 1.92403C10.7669 1.93829 10.8562 1.96023 10.9675 1.99265C11.1901 2.05748 11.501 2.16429 11.8742 2.33538C12.6214 2.67795 13.6158 3.2772 14.6476 4.30905C15.6795 5.3409 16.2787 6.33526 16.6213 7.08247C16.7924 7.45568 16.8992 7.76663 16.964 7.98922C16.9964 8.10053 17.0184 8.1898 17.0326 8.25379C17.0398 8.28579 17.045 8.31149 17.0486 8.33047L17.053 8.35387C17.1025 8.66051 16.8964 8.96246 16.5898 9.01211C16.284 9.06161 15.9959 8.85453 15.9451 8.54936C15.9435 8.54111 15.9391 8.51913 15.9346 8.49836C15.9253 8.45681 15.9093 8.39094 15.8839 8.30382C15.8332 8.12957 15.745 7.87058 15.5986 7.55132C15.3063 6.91358 14.7805 6.03295 13.8521 5.10455C12.9238 4.17615 12.0431 3.65041 11.4054 3.35804C11.0861 3.21167 10.8271 3.12352 10.6528 3.07276C10.5658 3.04739 10.4563 3.02226 10.4147 3.01301C10.1095 2.96214 9.89511 2.6727 9.94461 2.36691Z" fill="#0671D5"/>
<path fill-rule="evenodd" clip-rule="evenodd" d="M10.1143 4.95304C10.1996 4.65433 10.511 4.48137 10.8097 4.56671L10.6552 5.10757C10.8097 4.56671 10.8097 4.56671 10.8097 4.56671L10.8108 4.56702L10.8119 4.56735L10.8144 4.56808L10.8203 4.56982L10.8351 4.57444C10.8464 4.57806 10.8605 4.58277 10.8773 4.58874C10.911 4.6007 10.9556 4.61769 11.0102 4.64109C11.1194 4.68792 11.2687 4.76024 11.4521 4.86877C11.8192 5.08603 12.3203 5.44692 12.9091 6.03564C13.4978 6.62438 13.8587 7.12551 14.0759 7.49262C14.1845 7.676 14.2568 7.82529 14.3036 7.93456C14.327 7.98916 14.3441 8.03368 14.356 8.06736C14.362 8.0842 14.3666 8.09832 14.3703 8.10963L14.3749 8.12448L14.3766 8.13029L14.3774 8.13279L14.3777 8.13394C14.3777 8.13394 14.378 8.13502 13.8371 8.28955L14.378 8.13502C14.4634 8.43372 14.2904 8.74504 13.9917 8.83039C13.6955 8.91499 13.3869 8.74572 13.2985 8.45166L13.2957 8.44358C13.2917 8.43231 13.2835 8.41012 13.2696 8.37772C13.2419 8.31297 13.1915 8.20704 13.1078 8.0656C12.9406 7.78305 12.6386 7.35611 12.1136 6.83114C11.5886 6.30618 11.1617 6.00415 10.8791 5.83692C10.7377 5.75321 10.6318 5.70288 10.567 5.67513C10.5346 5.66125 10.5124 5.65297 10.5011 5.64897L10.493 5.64621C10.199 5.5578 10.0297 5.24921 10.1143 4.95304Z" fill="#0671D5"/>
</svg>
