<svg width="31" height="30" viewBox="0 0 31 30" fill="none" xmlns="http://www.w3.org/2000/svg">
<path d="M26.7493 23.983V20.5959C26.763 20.0421 26.5724 19.5026 26.2135 19.08C25.2018 17.8882 21.7318 17.126 20.3563 17.4187C19.2842 17.647 18.5339 18.7235 17.8005 19.4555C14.9683 17.8481 12.6232 15.5077 11.0127 12.681C11.7461 11.9491 12.8248 11.2004 13.0535 10.1303C13.3464 8.75971 12.5852 5.31186 11.4016 4.29605C10.9854 3.93875 10.4531 3.74471 9.90406 3.75011H6.51013C5.21697 3.75132 4.14109 4.91118 4.25883 6.21148C4.24999 17.4187 13 26.25 24.283 26.2411C25.5903 26.3591 26.7545 25.2779 26.7493 23.983Z" fill="#0671D5"/>
</svg>
