<svg width="31" height="31" viewBox="0 0 31 31" fill="none" xmlns="http://www.w3.org/2000/svg">
<g clip-path="url(#clip0_2457_23260)">
<path d="M26.1634 17.9244C25.6164 16.7113 22.7708 15.6326 21.7899 15.2909C20.2659 11.953 21.0874 7.74364 21.0874 7.74364C20.8216 8.94137 20.478 9.39916 20.478 9.39916C20.2083 11.5643 18.4443 13.3475 18.4443 13.3475C18.4108 13.93 18.4856 14.4252 18.6248 14.8465C15.8972 19.2498 13.6668 16.9455 12.567 15.1479C12.7791 14.6632 12.9048 14.0749 12.8655 13.3465C12.8655 13.3465 11.1015 11.5643 10.8318 9.3982C10.8318 9.3982 10.4892 8.94041 10.2186 7.74268C10.2186 7.74268 11.041 11.9386 9.52851 15.2736C8.35093 15.7756 7.17239 16.1345 7.17239 16.1345C5.89596 16.6259 5.35755 17.3581 5.35755 17.3581C3.47074 20.1538 3.25 26.3786 3.25 26.3786C3.27399 27.8009 3.88726 27.9468 3.88726 27.9468C8.22521 29.8835 15.0239 30.2261 15.0239 30.2261C22.0078 30.373 27.0934 28.2424 27.0934 28.2424C27.8324 27.775 27.8544 27.4084 27.8544 27.4084C28.3679 22.9476 26.1634 17.9244 26.1634 17.9244ZM17.8723 25.153H13.306V23.4207H17.8723V25.153Z" fill="#0671D5"/>
<path d="M18.667 5.0238C18.7399 5.30212 19.19 6.73403 20.6987 7.38088C20.6987 7.38088 20.7554 6.79161 20.9185 6.73595C20.9185 6.73595 21.1018 6.82808 21.1584 7.04978C21.1584 7.04978 21.5519 3.2867 19.8388 1.88358L19.8503 1.86247C16.2754 -1.29214 12.2273 1.10621 12.2273 1.10621C9.26171 3.01798 10.0919 7.13903 10.0919 7.13903C15.6669 7.66496 18.5797 5.09962 18.667 5.0238Z" fill="#0671D5"/>
</g>
<defs>
<clipPath id="clip0_2457_23260">
<rect width="30" height="30" fill="white" transform="translate(0.25 0.233398)"/>
</clipPath>
</defs>
</svg>
