<svg width="31" height="31" viewBox="0 0 31 31" fill="none" xmlns="http://www.w3.org/2000/svg">
<g clip-path="url(#clip0_2301_2116)">
<path d="M16.5936 15.0459L16.1249 13.1709L17.9999 12.7021C18.4686 12.6084 18.8436 12.0459 18.6561 11.5771C18.5624 11.1084 17.9999 10.7334 17.5311 10.9209L15.1874 11.5771L12.5624 10.0771L15.1874 8.57715L17.5311 9.2334C17.6249 9.2334 17.7186 9.2334 17.8124 9.2334C18.1874 9.2334 18.5624 8.95215 18.7499 8.57715C18.8436 8.1084 18.5624 7.5459 18.0936 7.45215L16.2186 6.9834L16.6874 5.1084C16.7811 4.63965 16.4999 4.07715 16.0311 3.9834C15.5624 3.88965 14.9999 4.1709 14.9061 4.63965L14.2499 6.9834L11.6249 8.4834V5.4834L13.4061 3.70215C13.7811 3.32715 13.7811 2.76465 13.4061 2.38965C13.0311 2.01465 12.4686 2.01465 12.0936 2.38965L10.7811 3.70215L9.28114 2.38965C8.90614 2.01465 8.34364 2.01465 7.96864 2.38965C7.59364 2.76465 7.59364 3.32715 7.96864 3.70215L9.74989 5.4834V8.4834L7.03114 6.9834L6.37489 4.5459C6.28114 4.07715 5.81239 3.7959 5.24989 3.88965C4.78114 4.07715 4.49989 4.5459 4.59364 5.1084L5.06239 6.9834L3.18739 7.45215C2.71864 7.5459 2.43739 8.01465 2.62489 8.57715C2.71864 8.95215 3.09364 9.2334 3.56239 9.2334C3.65614 9.2334 3.74989 9.2334 3.84364 9.2334L6.18739 8.57715L8.81239 10.0771L6.18739 11.5771L3.84364 10.9209C3.37489 10.8271 2.81239 11.1084 2.71864 11.5771C2.62489 12.0459 2.90614 12.6084 3.37489 12.7021L5.24989 13.1709L4.78114 15.0459C4.68739 15.5146 4.96864 16.0771 5.43739 16.1709C5.53114 16.1709 5.62489 16.1709 5.71864 16.1709C6.09364 16.1709 6.46864 15.8896 6.65614 15.5146L7.31239 13.1709L9.93739 11.6709V14.6709L8.15614 16.4521C7.78114 16.8271 7.78114 17.3896 8.15614 17.7646C8.53114 18.1396 9.09364 18.1396 9.46864 17.7646L10.7811 16.4521L12.0936 17.7646C12.2811 17.9521 12.5624 18.0459 12.7499 18.0459C12.9374 18.0459 13.2186 17.9521 13.4061 17.7646C13.7811 17.3896 13.7811 16.8271 13.4061 16.4521L11.6249 14.6709V11.6709L14.2499 13.1709L14.9061 15.5146C14.9999 15.8896 15.3749 16.1709 15.8436 16.1709C15.9374 16.1709 16.0311 16.1709 16.1249 16.1709C16.4061 16.0771 16.6874 15.6084 16.5936 15.0459Z" fill="#0671D5"/>
<path d="M27.6562 22.3589L25.8749 22.8276L24.1874 21.7964L25.8749 20.7651L27.6562 21.2339C27.7499 21.2339 27.8437 21.2339 27.9374 21.2339C28.3124 21.2339 28.6874 20.9526 28.8749 20.5776C28.9687 20.1089 28.6874 19.5464 28.2187 19.4526L26.9062 19.0776L27.2812 17.7651C27.3749 17.2964 27.0937 16.7339 26.6249 16.6401C26.1562 16.5464 25.5937 16.8276 25.4999 17.2964L25.0312 19.0776L23.2499 20.2026V18.2339L24.5624 16.9214C24.9374 16.5464 24.9374 15.9839 24.5624 15.6089C24.1874 15.2339 23.6249 15.2339 23.2499 15.6089L22.3124 16.5464L21.3749 15.6089C20.9999 15.2339 20.4374 15.2339 20.0624 15.6089C19.6874 15.9839 19.6874 16.5464 20.0624 16.9214L21.3749 18.2339V20.2026L19.6874 19.1714L19.2187 17.3901C19.1249 16.9214 18.5624 16.5464 18.0937 16.7339C17.6249 16.8276 17.2499 17.3901 17.4374 17.8589L17.8124 19.1714L16.4999 19.5464C16.0312 19.6401 15.6562 20.2026 15.8437 20.6714C15.9374 21.0464 16.3124 21.3276 16.7812 21.3276C16.8749 21.3276 16.9687 21.3276 17.0624 21.3276L18.8437 20.8589L20.4374 21.7964L18.7499 22.8276L16.9687 22.3589C16.4999 22.2651 15.9374 22.5464 15.8437 23.0151C15.7499 23.4839 16.0312 24.0464 16.4999 24.1401L17.8124 24.5151L17.4374 25.8276C17.3437 26.2964 17.6249 26.8589 18.0937 26.9526C18.1874 26.9526 18.2812 26.9526 18.3749 26.9526C18.7499 26.9526 19.1249 26.6714 19.3124 26.2964L19.7812 24.5151L21.4687 23.4839V25.4526L20.1562 26.7651C19.7812 27.1401 19.7812 27.7026 20.1562 28.0776C20.5312 28.4526 21.0937 28.4526 21.4687 28.0776L22.4062 27.1401L23.3437 28.0776C23.5312 28.2651 23.8124 28.3589 23.9999 28.3589C24.1874 28.3589 24.4687 28.2651 24.6562 28.0776C25.0312 27.7026 25.0312 27.1401 24.6562 26.7651L23.2499 25.4526V23.4839L24.9374 24.5151L25.4062 26.2964C25.4999 26.6714 25.8749 26.9526 26.3437 26.9526C26.4374 26.9526 26.5312 26.9526 26.6249 26.9526C27.0937 26.8589 27.4687 26.2964 27.2812 25.8276L26.9062 24.5151L28.2187 24.1401C28.6874 24.0464 29.0624 23.4839 28.8749 23.0151C28.6874 22.5464 28.2187 22.1714 27.6562 22.3589Z" fill="#0671D5"/>
</g>
<defs>
<clipPath id="clip0_2301_2116">
<rect width="30" height="30" fill="white" transform="translate(0.75 0.233398)"/>
</clipPath>
</defs>
</svg>
