<svg width="30" height="31" viewBox="0 0 30 31" fill="none" xmlns="http://www.w3.org/2000/svg">
<g clip-path="url(#clip0_3438_1519)">
<path fill-rule="evenodd" clip-rule="evenodd" d="M28.125 13.4106H1.875V8.72314C1.875 7.68814 2.715 6.84814 3.75 6.84814H26.25C27.285 6.84814 28.125 7.68814 28.125 8.72314V13.4106ZM13.125 16.2231C13.125 15.88 13.2234 15.5631 13.3847 15.2856H16.6153C16.7766 15.5631 16.875 15.88 16.875 16.2231C16.875 17.2581 16.035 18.0981 15 18.0981C13.965 18.0981 13.125 17.2581 13.125 16.2231ZM28.125 25.5981C28.125 26.6331 27.285 27.4731 26.25 27.4731H3.75C2.715 27.4731 1.875 26.6331 1.875 25.5981V15.2856H11.3831C11.3044 15.5866 11.25 15.8969 11.25 16.2231C11.25 18.2941 12.9291 19.9731 15 19.9731C17.0709 19.9731 18.75 18.2941 18.75 16.2231C18.75 15.8969 18.6956 15.5866 18.6169 15.2856H28.125V25.5981ZM11.25 4.03564C11.25 3.51814 11.67 3.09814 12.1875 3.09814H17.8125C18.33 3.09814 18.75 3.51814 18.75 4.03564V4.97314H11.25V4.03564ZM26.25 4.97314H20.625V3.09814C20.625 2.06314 19.785 1.22314 18.75 1.22314H11.25C10.215 1.22314 9.375 2.06314 9.375 3.09814V4.97314H3.75C1.67906 4.97314 0 6.65221 0 8.72314V25.5981C0 27.6691 1.67906 29.3481 3.75 29.3481H26.25C28.3209 29.3481 30 27.6691 30 25.5981V8.72314C30 6.65221 28.3209 4.97314 26.25 4.97314Z" fill="#0671D5"/>
</g>
<defs>
<clipPath id="clip0_3438_1519">
<rect width="30" height="30" fill="white" transform="translate(0 0.285645)"/>
</clipPath>
</defs>
</svg>
