<svg width="31" height="31" viewBox="0 0 31 31" fill="none" xmlns="http://www.w3.org/2000/svg">
<g clip-path="url(#clip0_2457_19270)">
<path d="M25.435 24.2217C24.747 23.1918 23.7021 22.6224 22.7208 22.2519C22.228 22.067 21.7467 21.9301 21.3228 21.814C20.8993 21.6989 20.5313 21.602 20.2842 21.5086C19.8516 21.3481 19.3944 21.1401 19.0755 20.9161C18.9161 20.8048 18.7937 20.6901 18.7224 20.5928C18.6506 20.4931 18.6309 20.4242 18.6299 20.3639C18.6299 19.9477 18.6299 19.4279 18.6299 18.7429C19.1835 18.1272 19.9788 17.1729 20.3054 15.6598C20.4196 15.6082 20.5324 15.5499 20.6412 15.4743C20.9119 15.2874 21.1417 15.0161 21.3364 14.6472C21.5324 14.2767 21.7059 13.8031 21.8909 13.1552C21.9848 12.8267 22.0281 12.5415 22.0281 12.2871C22.0286 11.9942 21.9679 11.7403 21.8576 11.5342C21.7122 11.2601 21.489 11.0973 21.2892 11.0067L21.7405 10.3342V9.58848C21.7834 9.53018 21.8108 9.47668 21.8041 9.43432V7.81906L22.9525 5.52313C23.2435 4.94117 23.0186 4.23301 22.4447 3.92568L15.818 0.375781C15.4635 0.185938 15.0371 0.185938 14.6825 0.375781L8.05529 3.92568C7.48201 4.23301 7.25701 4.94117 7.54805 5.52313L8.69649 7.82053V9.43437C8.68928 9.4782 8.71336 9.53164 8.76006 9.59234V10.3343L9.21147 11.0057C9.16471 11.0265 9.11654 11.0501 9.06692 11.0804C8.91082 11.1768 8.75332 11.3276 8.64299 11.5343C8.53266 11.7404 8.47195 11.9943 8.47248 12.2872C8.47248 12.5415 8.51584 12.8267 8.60977 13.1553C8.85738 14.0181 9.08092 14.5754 9.37043 14.9844C9.51545 15.1872 9.68022 15.3501 9.8594 15.4743C9.96826 15.5499 10.0811 15.6083 10.1952 15.6598C10.5218 17.173 11.3171 18.1273 11.8707 18.7429C11.8707 19.428 11.8707 19.9477 11.8707 20.364C11.8707 20.4151 11.8499 20.4888 11.771 20.5943C11.6544 20.7508 11.4131 20.9407 11.1264 21.1015C10.8407 21.2639 10.5122 21.405 10.2246 21.5062C9.88688 21.6262 9.34254 21.7504 8.73311 21.9253C7.81734 22.1903 6.73442 22.5718 5.85328 23.3272C5.41348 23.7049 5.02758 24.1794 4.75588 24.769C4.48424 25.3582 4.32809 26.0587 4.32861 26.8776C4.32861 27.0679 4.33682 27.2644 4.35369 27.4677C4.3667 27.6103 4.42061 27.7259 4.48471 27.8213C4.60565 27.9995 4.76654 28.1315 4.96787 28.2679C5.32055 28.501 5.80951 28.7294 6.43524 28.9534C8.30777 29.6211 11.4087 30.2324 15.2506 30.2334C18.3718 30.2334 21.0064 29.8283 22.8871 29.319C23.8279 29.0642 24.579 28.7848 25.1219 28.5059C25.3941 28.3657 25.6137 28.2265 25.7881 28.0747C25.8753 27.9976 25.9519 27.9172 26.016 27.8213C26.0801 27.726 26.134 27.6104 26.1465 27.4678C26.1634 27.265 26.1716 27.0684 26.1716 26.8791C26.173 25.787 25.8926 24.9068 25.435 24.2217ZM13.84 8.29262C13.84 7.51367 14.4711 6.88256 15.2505 6.88256C16.029 6.88256 16.6601 7.51361 16.6601 8.29262V8.42797C16.6601 9.2065 16.029 9.83803 15.2505 9.83803C14.4711 9.83803 13.84 9.2065 13.84 8.42797V8.29262ZM14.1055 27.224L10.8942 22.1546C11.1866 22.0323 11.4862 21.8776 11.7637 21.6989L13.6015 24.3417L14.488 22.6745L14.1055 27.224ZM13.5577 23.6028L12.0768 21.4739C12.2122 21.3631 12.3408 21.2456 12.4463 21.1074C12.5951 20.9122 12.7083 20.6685 12.7156 20.3915L14.789 21.2865L13.5577 23.6028ZM12.7185 19.9729C12.7185 19.5942 12.7185 19.1442 12.7185 18.5806V18.4183L12.6096 18.2969C12.0311 17.6528 11.2482 16.7977 10.9765 15.2784L10.9337 15.0356L10.7019 14.9527C10.554 14.9002 10.4418 14.8463 10.3436 14.7779C10.1985 14.6758 10.067 14.5361 9.91336 14.2499C9.7616 13.9651 9.60117 13.5398 9.42539 12.9228C9.34781 12.653 9.32039 12.4434 9.32039 12.2873C9.32086 12.1067 9.35555 12.0011 9.3907 11.9342C9.4442 11.8374 9.50977 11.7959 9.59309 11.7622C9.6307 11.7478 9.66867 11.74 9.70102 11.7348L10.5725 13.033L10.9453 10.8484L10.9863 10.7115C12.1242 11.0724 13.6021 11.3619 15.2507 11.3619C16.8948 11.3619 18.3776 11.0748 19.5159 10.7149L19.5554 10.8484L19.9283 13.033L20.7998 11.7357C20.8547 11.7444 20.9284 11.7627 20.9853 11.8003C21.0339 11.8316 21.0734 11.8677 21.1096 11.9342C21.1447 12.0011 21.1794 12.1067 21.1804 12.2873C21.1804 12.4434 21.1525 12.6529 21.0754 12.9228C20.8417 13.7465 20.6322 14.2254 20.4395 14.4913C20.3432 14.6257 20.255 14.7095 20.1572 14.7779C20.0589 14.8464 19.9467 14.9004 19.7988 14.9528L19.5666 15.0356L19.5242 15.2785C19.2526 16.7978 18.4696 17.6529 17.8911 18.297L17.7823 18.4184V18.5807C17.7823 19.1444 17.7823 19.5943 17.7823 19.9729L15.2508 21.066L12.7185 19.9729ZM17.7849 20.3915C17.7912 20.6594 17.8952 20.9016 18.0393 21.0953C18.1472 21.2408 18.2768 21.3669 18.4184 21.4811L16.9424 23.6027L15.7116 21.2865L17.7849 20.3915ZM16.3951 27.2249L16.0126 22.6749L16.8986 24.3417L18.733 21.7037C18.7942 21.7428 18.8554 21.7813 18.9195 21.8179C19.1415 21.9441 19.3761 22.0511 19.6107 22.1498L16.3951 27.2249Z" fill="#0671D5"/>
</g>
<defs>
<clipPath id="clip0_2457_19270">
<rect width="30" height="30" fill="white" transform="translate(0.25 0.233398)"/>
</clipPath>
</defs>
</svg>
