<svg width="31" height="31" viewBox="0 0 31 31" fill="none" xmlns="http://www.w3.org/2000/svg">
<g clip-path="url(#clip0_2457_8789)">
<path d="M23.1061 6.46563C23.507 7.93006 23.5061 9.47542 23.1037 10.9394C23.1037 10.9394 23.0932 10.9796 23.0746 11.0519C23.1964 11.0828 23.3107 11.1381 23.4105 11.2145C23.5104 11.2909 23.5936 11.3867 23.6553 11.4962C23.9531 12.0129 23.9405 12.9649 23.7406 13.5539C23.599 13.9711 23.367 14.6092 22.8078 15.0669C22.6847 15.1693 22.5417 15.2451 22.3879 15.2895C22.234 15.3339 22.0726 15.3459 21.9139 15.3248L21.8281 15.3104C21.7439 15.5951 21.6411 15.8739 21.5205 16.1452C21.3277 16.6687 20.3939 18.306 19.1443 19.3053V19.9261C18.9944 20.0475 15.9356 22.4592 15.7038 22.6231H15.1649C14.933 22.4587 11.8745 20.0471 11.7244 19.9261V19.5167C11.1711 19.1444 10.6768 18.6913 10.2578 18.1724C9.56154 17.3315 9.04487 16.3569 8.73963 15.3087C8.57063 15.3444 8.3957 15.3412 8.22813 15.2993C8.06056 15.2573 7.90474 15.1778 7.77251 15.0666C7.21329 14.6089 6.98128 13.9709 6.83963 13.5537C6.63966 12.9647 6.6271 12.0127 6.92503 11.496C7.04356 11.2851 7.23997 11.1291 7.47215 11.0614C7.45268 10.9837 7.44138 10.9405 7.44138 10.9405C7.21942 10.1133 7.11929 9.25814 7.14414 8.40205C7.27979 5.19194 8.97521 3.20861 10.4724 2.09523C11.7619 1.1363 13.3748 0.563477 15.2723 0.563477C17.1699 0.563477 18.7828 1.13503 20.0723 2.09396C21.5484 3.16664 22.6177 4.70754 23.1061 6.46563Z" fill="white"/>
<path d="M8.3126 11.1149C8.15334 11.0392 7.97823 11.003 7.80202 11.0092C7.69088 11.0122 7.5806 11.0297 7.474 11.0613C7.23023 10.1966 7.11913 9.29984 7.14448 8.40176C7.23162 6.3404 7.96188 4.7849 8.86975 3.64087C9.04125 4.12679 9.80817 4.56822 10.1875 4.85602C10.7031 5.2472 10.6139 5.76573 10.3252 6.25638C9.86647 7.03717 9.4897 7.8633 9.20088 8.72159C8.91758 9.56296 8.77582 10.4349 8.56236 11.2875C8.48881 11.2171 8.4045 11.1588 8.3126 11.1149Z" fill="#5DA8EF"/>
<path d="M22.1904 11.1567C22.1074 11.2059 22.0324 11.2676 21.9682 11.3396C21.7471 10.4707 21.6053 9.57999 21.3164 8.72191C21.0275 7.86363 20.6508 7.03751 20.1921 6.25669C19.9039 5.76604 19.814 5.24751 20.3298 4.85633C20.7217 4.55897 21.5271 4.09771 21.6626 3.59277C22.5872 4.7413 23.3095 6.31155 23.3978 8.40207C23.4363 9.31444 23.3287 10.0584 23.0769 11.053C22.9794 11.027 22.8792 11.0124 22.7783 11.0095C22.5723 11.0019 22.3685 11.053 22.1904 11.1567Z" fill="#5DA8EF"/>
<path d="M23.4148 11.0254C23.7295 9.83007 23.8001 8.58354 23.6223 7.3603C23.4752 6.36106 23.1468 5.39711 22.6532 4.51589C21.7958 2.99866 20.4927 1.78171 18.9204 1.02997C16.8567 0.0858617 14.5077 -0.0232967 12.3653 0.725344C10.6816 1.34264 9.23586 2.47615 8.23468 3.96404C7.02714 5.74625 6.60173 7.97381 6.93447 10.0877C6.98426 10.4036 7.051 10.7164 7.13041 11.0263C7.23414 11.4283 7.85652 11.2578 7.75279 10.8546C7.45654 9.74926 7.38963 8.59496 7.55616 7.46276C7.69498 6.54329 7.99759 5.65618 8.44963 4.84356C8.83731 4.15391 9.32923 3.52829 9.90797 2.98886C10.0368 2.86715 10.1693 2.74951 10.3055 2.63595C10.4613 2.50582 10.5245 2.45626 10.6705 2.34884C11.0593 2.06285 11.4745 1.8145 11.9104 1.60717C13.7755 0.721771 16.0481 0.653194 17.987 1.33943C18.4358 1.49935 18.8676 1.7036 19.2759 1.94913C19.4816 2.07207 19.6814 2.20477 19.8752 2.34723C19.9109 2.37335 19.9463 2.39986 19.9815 2.42676L20.0293 2.46318C19.9876 2.43091 20.0286 2.46318 20.0359 2.46871C20.1087 2.52634 20.1811 2.58466 20.2523 2.64436C20.8308 3.12479 21.3396 3.68337 21.7641 4.30405C22.8653 5.96327 23.301 7.97643 22.9845 9.9425C22.9351 10.2492 22.8701 10.5534 22.7928 10.8537C22.6891 11.2563 23.3115 11.4279 23.4152 11.0253L23.4148 11.0254Z" fill="#0671D5"/>
<path d="M8.60247 3.83442C8.7984 4.28818 9.26819 4.6011 9.65787 4.87449C9.83185 4.97386 9.99093 5.09729 10.1304 5.24112C10.1853 5.30919 10.2213 5.39055 10.2348 5.47699C10.2482 5.56342 10.2385 5.65186 10.2068 5.73338C10.1396 5.97818 9.98531 6.19441 9.86245 6.41743C9.70877 6.69727 9.56524 6.98245 9.43185 7.27297C9.16253 7.85028 8.93759 8.44727 8.75898 9.05875C8.55786 9.76527 8.42831 10.4894 8.25128 11.2025C8.15124 11.6059 8.77351 11.7776 8.87366 11.374C9.03502 10.724 9.15719 10.0646 9.33008 9.4172C9.4981 8.79341 9.71848 8.18493 9.98888 7.59823C10.122 7.30801 10.2656 7.02283 10.4195 6.74268C10.5795 6.49039 10.713 6.22227 10.8179 5.94257C10.8996 5.6952 10.9007 5.42829 10.821 5.18027C10.7118 4.9084 10.5202 4.67755 10.2731 4.52008C9.87962 4.23528 9.3529 3.95613 9.15973 3.50813C9.09058 3.34815 8.85557 3.31219 8.71818 3.39287C8.64599 3.43763 8.59376 3.50842 8.57231 3.59061C8.55085 3.6728 8.56182 3.76009 8.60293 3.83442H8.60247Z" fill="#0671D5"/>
<path d="M21.3574 3.5087C21.1845 3.91036 20.734 4.17718 20.3743 4.42844C20.1513 4.5845 19.9259 4.74228 19.7864 4.98259C19.6525 5.22287 19.6076 5.50268 19.6597 5.77279C19.7167 6.03558 19.821 6.28585 19.9673 6.51147C20.1313 6.79577 20.2845 7.08594 20.4267 7.382C20.707 7.96033 20.9392 8.56082 21.1208 9.17734C21.3309 9.90058 21.4623 10.6433 21.6437 11.3735C21.7438 11.7769 22.3663 11.6058 22.2661 11.202C22.1091 10.5698 21.9895 9.9287 21.8238 9.29848C21.6574 8.68057 21.4432 8.0765 21.1834 7.49172C21.0591 7.20742 20.9249 6.9275 20.7809 6.65196C20.644 6.39056 20.4645 6.1393 20.3533 5.86592C20.2771 5.71317 20.2616 5.53728 20.3097 5.37354C20.3781 5.1987 20.5587 5.08448 20.7153 4.9751C21.1489 4.67209 21.6962 4.34119 21.9148 3.83406C21.9553 3.7596 21.9659 3.67251 21.9445 3.59049C21.9231 3.50847 21.8713 3.43768 21.7995 3.39252C21.6634 3.31288 21.4273 3.34734 21.358 3.50777L21.3574 3.5087Z" fill="#0671D5"/>
<path d="M8.79037 11.0594C8.56952 10.862 8.29398 10.7362 8.00016 10.6988C7.70634 10.6613 7.40806 10.7138 7.14474 10.8495C6.76117 11.0467 6.54472 11.4404 6.45136 11.8476C6.35013 12.3421 6.34965 12.852 6.44993 13.3467C6.55021 13.8414 6.74921 14.3108 7.03502 14.7269C7.43703 15.3101 8.01366 15.7412 8.75233 15.6361C8.92522 15.6114 9.01973 15.3918 8.97778 15.2391C8.95312 15.1578 8.89817 15.0891 8.82427 15.0471C8.75038 15.0051 8.66318 14.9932 8.58072 15.0137C8.18124 15.0713 7.82948 14.7319 7.61718 14.4366C7.41175 14.1404 7.25441 13.8137 7.15096 13.4684C7.02936 13.0858 6.98843 12.6822 7.03075 12.2829C7.04495 12.0972 7.0882 11.915 7.15892 11.7427C7.14739 11.7686 7.18911 11.6858 7.19534 11.6746C7.20779 11.6525 7.22116 11.6311 7.23441 11.6095C7.27717 11.5403 7.21724 11.6192 7.25181 11.5831C7.2759 11.5578 7.29792 11.5313 7.32327 11.5068C7.33664 11.4936 7.35116 11.481 7.36546 11.4691C7.33929 11.4909 7.35266 11.4782 7.37214 11.4652C7.41305 11.437 7.45636 11.4125 7.50157 11.3919C7.5826 11.3619 7.66717 11.3425 7.75318 11.3342C7.85727 11.3223 7.96272 11.3323 8.06274 11.3635C8.16276 11.3947 8.25514 11.4465 8.33395 11.5155C8.64019 11.7952 9.09787 11.34 8.79037 11.0591V11.0594Z" fill="#0671D5"/>
<path d="M22.2461 11.5156C22.3798 11.4051 22.5455 11.3405 22.7186 11.3314C22.8918 11.3222 23.0634 11.369 23.2079 11.4647C23.2516 11.4934 23.2004 11.4502 23.2466 11.4969C23.2686 11.519 23.2907 11.5407 23.312 11.5636C23.3235 11.5752 23.3333 11.5888 23.3437 11.6016C23.3365 11.5926 23.3091 11.5455 23.3339 11.5914C23.3466 11.6145 23.3631 11.636 23.3763 11.659C23.4577 11.8152 23.5112 11.9845 23.5342 12.1592C23.654 12.8954 23.442 13.6786 23.058 14.2937C22.8417 14.6405 22.4592 15.0791 21.9994 15.0135C21.9169 14.9936 21.83 15.0058 21.7563 15.0477C21.6825 15.0895 21.6275 15.1579 21.6024 15.2389C21.5608 15.3903 21.6542 15.6111 21.8277 15.6359C23.0372 15.8088 23.7358 14.6101 24.0571 13.6225C24.2151 13.1065 24.2514 12.561 24.1631 12.0287C24.0961 11.5966 23.9216 11.1861 23.5589 10.9251C23.0318 10.546 22.2571 10.6324 21.7897 11.0592C21.4823 11.3399 21.9395 11.7953 22.2461 11.5156Z" fill="#0671D5"/>
<path d="M21.6436 14.7304C21.5805 15.0253 21.4969 15.3155 21.3934 15.5987C21.3136 15.823 21.2541 15.9173 21.1805 16.1317C21.1672 16.1704 21.2181 16.0517 21.1909 16.1067C21.1844 16.1197 21.1793 16.1334 21.173 16.1467C21.1615 16.1725 21.1492 16.1981 21.137 16.2237C21.1024 16.2962 21.0659 16.3677 21.0283 16.4387C20.9439 16.5981 20.8535 16.7544 20.7593 16.9082C20.2851 17.7163 19.6766 18.4376 18.96 19.0412C18.5696 19.3743 18.1084 19.6139 17.6115 19.742C17.2068 19.8348 17.3781 20.4573 17.7831 20.3644C18.8049 20.1302 19.6554 19.3788 20.3208 18.6031C20.8905 17.9603 21.3665 17.2402 21.7346 16.4642C21.7675 16.3912 21.7966 16.3168 21.8274 16.243C21.7861 16.3419 21.8237 16.2554 21.8318 16.2373C21.851 16.1935 21.8696 16.149 21.888 16.1048C21.9155 16.0387 21.9418 15.9721 21.967 15.9051C22.0932 15.5793 22.1934 15.244 22.2667 14.9024C22.2873 14.8199 22.2754 14.7327 22.2335 14.6587C22.1915 14.5848 22.1227 14.5299 22.0413 14.5053C21.9588 14.4834 21.871 14.4947 21.7967 14.5369C21.7225 14.579 21.6677 14.6487 21.6443 14.7307L21.6436 14.7304Z" fill="#0671D5"/>
<path d="M8.2953 14.8785C8.51938 15.8778 8.92429 16.8277 9.49004 17.6813C10.0992 18.5934 10.8992 19.4476 11.8681 19.9805C12.3564 20.2504 12.8891 20.4307 13.4409 20.5129C13.5233 20.5329 13.6102 20.5208 13.6839 20.479C13.7576 20.4372 13.8127 20.3689 13.8379 20.288C13.8796 20.1361 13.786 19.9164 13.6124 19.8909C12.7091 19.7499 11.8702 19.3369 11.2075 18.707C10.4136 17.9748 9.78391 17.0826 9.3598 16.0894C9.17078 15.6431 9.02279 15.1804 8.91768 14.7073C8.82617 14.3024 8.20367 14.4737 8.2953 14.8789V14.8785Z" fill="#0671D5"/>
<path d="M14.051 16.9525C14.4554 17.1615 14.9058 17.2656 15.3608 17.2554C15.8291 17.2524 16.3036 17.1608 16.6789 16.8684C16.8165 16.7612 16.7914 16.5246 16.6789 16.412C16.6174 16.3534 16.5357 16.3208 16.4507 16.3208C16.3658 16.3208 16.2841 16.3534 16.2225 16.412C16.3192 16.3367 16.2398 16.3974 16.2149 16.4133C16.19 16.4292 16.1612 16.446 16.1333 16.4606C16.1121 16.4722 16.0138 16.5117 16.0987 16.4799C16.0613 16.4939 16.0243 16.5086 15.9861 16.5208C15.8833 16.5536 15.7779 16.5777 15.671 16.5928C15.7158 16.5863 15.6506 16.5946 15.6356 16.5961C15.6046 16.5992 15.5737 16.6017 15.5427 16.6038C15.4682 16.6086 15.3929 16.6105 15.3187 16.61C15.2518 16.61 15.185 16.6076 15.1181 16.6027C15.0875 16.6007 15.0568 16.5982 15.0259 16.5951C15.0259 16.5951 14.9186 16.5807 14.9761 16.5896C14.8766 16.5746 14.7783 16.5527 14.6818 16.5243C14.6405 16.5119 14.6003 16.4972 14.5596 16.4832C14.5463 16.4787 14.5337 16.4717 14.5202 16.4679C14.6008 16.4909 14.5486 16.4806 14.526 16.47C14.4756 16.4462 14.4256 16.4213 14.3762 16.3953C14.302 16.3539 14.2146 16.3427 14.1323 16.3642C14.05 16.3857 13.9792 16.4381 13.9347 16.5105C13.8923 16.5846 13.8807 16.6723 13.9022 16.7548C13.9238 16.8374 13.9768 16.9082 14.0499 16.9521L14.051 16.9525Z" fill="#0671D5"/>
<path d="M15.0555 13.8544C15.1163 14.0739 15.165 14.2967 15.2013 14.5216L15.1898 14.4357C15.1941 14.4662 15.195 14.4972 15.1923 14.5279L15.2038 14.4422C15.2018 14.4562 15.1984 14.4701 15.1937 14.4835L15.2262 14.4064C15.2221 14.4157 15.2172 14.4246 15.2116 14.4331L15.262 14.3678C15.2556 14.3757 15.2483 14.3829 15.2403 14.3893L15.3056 14.3388C15.2886 14.3493 15.271 14.3587 15.2527 14.3668L15.3298 14.3343C15.3013 14.3465 15.2714 14.3552 15.2407 14.3602L15.3266 14.3487C15.2988 14.352 15.2707 14.352 15.2429 14.3487L15.3288 14.3602C15.2972 14.3558 15.2663 14.3487 15.2347 14.3438C15.1506 14.3243 15.0623 14.3359 14.9861 14.3765C14.9122 14.4196 14.8585 14.4904 14.8368 14.5732C14.8151 14.656 14.8271 14.744 14.8703 14.8179C14.8907 14.8544 14.9184 14.8864 14.9515 14.9119C14.9847 14.9374 15.0227 14.9559 15.0632 14.9662C15.1332 14.9757 15.2015 14.9935 15.2724 14.9967C15.3788 14.9973 15.4838 14.9725 15.5785 14.9242C15.6382 14.8973 15.6911 14.8574 15.7333 14.8074C15.7754 14.7574 15.8059 14.6985 15.8223 14.6352C15.8439 14.5318 15.8428 14.4248 15.8192 14.3218C15.7828 14.1069 15.7332 13.8939 15.6779 13.6831C15.6666 13.6422 15.6474 13.604 15.6214 13.5705C15.5953 13.5371 15.563 13.5091 15.5261 13.4882C15.4892 13.4672 15.4486 13.4538 15.4066 13.4485C15.3645 13.4433 15.3218 13.4464 15.2809 13.4576C15.2401 13.4689 15.2018 13.4881 15.1684 13.5141C15.1349 13.5402 15.107 13.5726 15.086 13.6094C15.0651 13.6463 15.0516 13.6869 15.0464 13.729C15.0411 13.771 15.0442 13.8137 15.0555 13.8546V13.8544Z" fill="#0671D5"/>
<path d="M11.6603 11.97C11.5489 12.3321 11.6215 13.1649 12.3074 13.2358C13.2139 13.2304 13.2622 12.2234 12.957 11.75C12.7071 11.3623 11.9725 11.2012 11.6603 11.97Z" fill="#0671D5"/>
<path d="M18.9202 11.9701C19.0316 12.3321 18.959 13.1649 18.2731 13.2358C17.3665 13.2303 17.3182 12.2234 17.6234 11.7499C17.8739 11.3623 18.6079 11.2012 18.9202 11.9701Z" fill="#0671D5"/>
<path d="M17.2828 16.4141C17.332 16.5046 17.374 16.5991 17.4141 16.6939L17.3816 16.6168C17.4716 16.8294 17.5506 17.0465 17.6182 17.2672C17.6295 17.3081 17.6487 17.3463 17.6747 17.3798C17.7008 17.4132 17.7332 17.4412 17.77 17.4621C17.8069 17.4831 17.8475 17.4965 17.8896 17.5017C17.9316 17.507 17.9743 17.5039 18.0152 17.4926C18.0561 17.4813 18.0943 17.4621 18.1278 17.4361C18.1612 17.41 18.1892 17.3776 18.2101 17.3408C18.231 17.3039 18.2445 17.2633 18.2497 17.2212C18.255 17.1791 18.2519 17.1365 18.2406 17.0956C18.1874 16.9209 18.1253 16.7487 18.0586 16.5789C17.9956 16.4111 17.9225 16.2473 17.8396 16.0884C17.7958 16.0151 17.725 15.962 17.6424 15.9405C17.5598 15.9189 17.4721 15.9307 17.3981 15.9731C17.3256 16.0176 17.2731 16.0884 17.2516 16.1707C17.2301 16.253 17.2413 16.3404 17.2828 16.4147V16.4141Z" fill="#0671D5"/>
<path d="M12.8476 16.0335C12.7608 16.2004 12.6842 16.3724 12.6182 16.5485C12.547 16.7283 12.4818 16.9108 12.4254 17.0959C12.4035 17.1784 12.4149 17.2662 12.457 17.3405C12.4992 17.4147 12.5688 17.4695 12.6508 17.493C12.7333 17.5139 12.8207 17.5022 12.8947 17.4601C12.9687 17.4181 13.0236 17.3491 13.0478 17.2675C13.1194 17.0337 13.2031 16.8037 13.2985 16.5785L13.266 16.6556C13.3086 16.5551 13.3529 16.4551 13.4052 16.3592C13.4266 16.3226 13.4406 16.2821 13.4463 16.2401C13.4521 16.1981 13.4495 16.1554 13.4387 16.1144C13.428 16.0734 13.4092 16.0349 13.3836 16.0012C13.358 15.9674 13.326 15.939 13.2894 15.9176C13.2528 15.8962 13.2123 15.8823 13.1703 15.8765C13.1283 15.8708 13.0856 15.8733 13.0446 15.8841C13.0036 15.8949 12.9651 15.9136 12.9314 15.9392C12.8976 15.9648 12.8692 15.9969 12.8478 16.0335H12.8476Z" fill="#0671D5"/>
<path d="M14.5106 13.4261C14.8449 12.8856 14.9706 12.2417 14.8641 11.6152C14.8137 11.3383 14.6991 11.0771 14.5296 10.8524C14.3601 10.6278 14.1404 10.4459 13.888 10.3213C13.3065 10.0667 12.6763 9.94272 12.0417 9.95805C11.4566 9.96324 10.8252 10.0387 10.312 10.339C9.83252 10.6087 9.47533 11.0527 9.31453 11.5788C9.20029 12.0484 9.22903 12.5414 9.39706 12.9945C9.75239 13.973 10.6287 14.5814 11.65 14.6868C12.1913 14.7535 12.7407 14.6931 13.2546 14.5106C13.7794 14.2941 14.2201 13.9137 14.5109 13.4261C14.7343 13.0746 14.176 12.7505 13.9536 13.1004C13.7625 13.4241 13.4832 13.6867 13.1484 13.8576C12.8157 13.9994 12.4564 14.0678 12.095 14.0582C11.6866 14.0767 11.2799 13.9949 10.9104 13.8199C10.5927 13.6573 10.3288 13.4063 10.1504 13.0972C9.97707 12.7947 9.8887 12.451 9.89462 12.1024C9.89597 11.9101 9.93876 11.7203 10.0201 11.5461C10.1014 11.3718 10.2193 11.2171 10.3658 11.0925C10.6933 10.7963 11.1095 10.6819 11.5404 10.6339C12.0627 10.5701 12.5923 10.6021 13.1031 10.7285C13.5538 10.8453 14.0358 11.0614 14.1865 11.55C14.2597 11.8102 14.2768 12.083 14.2366 12.3502C14.1964 12.6175 14.0999 12.8732 13.9534 13.1004C13.736 13.4556 14.2938 13.7802 14.5106 13.4261Z" fill="#0671D5"/>
<path d="M16.6256 13.1005C16.3661 12.6974 16.2663 12.212 16.3458 11.7392C16.3845 11.5395 16.4734 11.353 16.6043 11.1973C16.7351 11.0415 16.9036 10.9218 17.0936 10.8493C17.5877 10.6683 18.1123 10.5855 18.6381 10.6056C19.096 10.6194 19.5816 10.6747 19.9772 10.9179C20.1499 11.0173 20.3001 11.1513 20.4186 11.3115C20.537 11.4717 20.621 11.6546 20.6654 11.8488C20.7236 12.2009 20.6782 12.5623 20.5346 12.889C20.5472 12.8583 20.5 12.9631 20.4952 12.9729C20.477 13.0098 20.4578 13.0462 20.4376 13.082C20.4145 13.1228 20.39 13.163 20.3639 13.2024C20.351 13.2221 20.3375 13.2415 20.3241 13.261C20.3207 13.266 20.2807 13.3207 20.3004 13.2955C20.1914 13.4346 20.0644 13.5586 19.9228 13.6644C19.5989 13.8941 19.2169 14.028 18.8204 14.0507C18.3782 14.0981 17.9311 14.0448 17.5125 13.8948C17.4371 13.8625 17.364 13.8253 17.2935 13.7834C17.2143 13.7388 17.1399 13.6863 17.0712 13.6268C16.8974 13.4745 16.7473 13.2971 16.6258 13.1005C16.4036 12.7509 15.8447 13.0744 16.0684 13.4262C16.322 13.8553 16.6924 14.2035 17.1364 14.43C17.58 14.6249 18.0615 14.7184 18.5459 14.7037C19.0737 14.7161 19.5958 14.5912 20.0609 14.3413C20.4765 14.1048 20.8153 13.7538 21.037 13.3302C21.2534 12.9127 21.3529 12.4444 21.3251 11.9749C21.3071 11.7059 21.234 11.4434 21.1104 11.2038C20.9869 10.9641 20.8154 10.7523 20.6068 10.5816C20.1342 10.1897 19.59 10.0444 18.9891 9.98319C18.366 9.91672 17.736 9.97491 17.1356 10.1543C16.8267 10.2373 16.5398 10.3874 16.2954 10.5937C16.046 10.8082 15.8618 11.0882 15.7635 11.4021C15.6725 11.7423 15.6526 12.0977 15.705 12.4459C15.7575 12.7942 15.8811 13.1279 16.0683 13.4262C16.2848 13.78 16.8433 13.4561 16.6256 13.1005Z" fill="#0671D5"/>
<path d="M14.581 12.0998H15.9986C16.0842 12.0998 16.1663 12.0658 16.2268 12.0053C16.2873 11.9447 16.3213 11.8627 16.3213 11.7771C16.3213 11.6915 16.2873 11.6094 16.2268 11.5489C16.1663 11.4883 16.0842 11.4543 15.9986 11.4543H14.581C14.4954 11.4543 14.4133 11.4883 14.3528 11.5489C14.2922 11.6094 14.2582 11.6915 14.2582 11.7771C14.2582 11.8627 14.2922 11.9447 14.3528 12.0053C14.4133 12.0658 14.4954 12.0998 14.581 12.0998Z" fill="#0671D5"/>
<path d="M18.4039 19.7256C18.4513 20.2009 18.4983 20.726 18.7212 21.1579C18.8239 21.3525 18.974 21.5181 19.1576 21.6394C19.2622 21.7101 19.3918 21.735 19.495 21.8022C19.465 21.7826 19.4149 21.7676 19.47 21.7917L19.5167 21.8115L19.6599 21.8727C19.7781 21.9233 19.8963 21.974 20.0145 22.0248C20.2826 22.1401 20.5507 22.2554 20.8188 22.3706C21.0074 22.4513 21.1952 22.5394 21.3871 22.6127C21.4696 22.6347 21.5575 22.6234 21.6318 22.5812C21.7061 22.5391 21.7608 22.4694 21.7841 22.3872C21.805 22.3047 21.7932 22.2174 21.7512 22.1434C21.7092 22.0695 21.6402 22.0146 21.5587 21.9903C21.5472 21.986 21.5363 21.9811 21.5252 21.9766C21.4682 21.9535 21.597 22.0071 21.5547 21.989L21.5041 21.9676C21.4139 21.9291 21.3237 21.8907 21.2335 21.8523C20.9859 21.7462 20.7383 21.6399 20.4907 21.5334C20.2771 21.4412 20.0635 21.3496 19.8497 21.2585C19.6597 21.1778 19.4848 21.1152 19.3607 20.9668C19.3691 20.9768 19.388 21.0069 19.3482 20.9503C19.3352 20.9318 19.3231 20.9124 19.3116 20.8927C19.2924 20.8605 19.2573 20.7908 19.2521 20.7785C19.2208 20.6935 19.195 20.6066 19.1749 20.5183C19.1158 20.2574 19.0739 19.9929 19.0494 19.7265C19.047 19.6417 19.0123 19.5609 18.9523 19.5009C18.8922 19.4409 18.8115 19.4061 18.7266 19.4038C18.6412 19.4044 18.5595 19.4386 18.4991 19.499C18.4387 19.5594 18.4045 19.6411 18.4039 19.7265V19.7256Z" fill="#0671D5"/>
<path d="M2.55941 26.5808C1.43981 28.3493 0.871252 30.3682 0.367813 32.615C4.91352 31.8682 10.8143 31.5069 15.4754 31.5069C20.1074 31.5069 25.9637 31.8642 30.4975 32.6011C29.9725 30.2614 29.376 28.169 28.1578 26.3496C26.6688 24.1246 24.2622 23.0377 21.8018 22.2479L20.8446 21.9661H20.5496C20.5607 22.072 20.5487 22.1791 20.5145 22.28C20.1106 22.9701 19.6611 23.6323 19.169 24.2624L16.9713 24.2374C16.5205 23.6338 16.022 22.9825 15.7035 22.6238H15.1651C14.8461 22.9827 14.3475 23.6341 13.8973 24.2374L11.6997 24.2624C11.2075 23.6324 10.758 22.9701 10.3542 22.28C10.3201 22.1791 10.3083 22.072 10.3196 21.9661H10.0247L9.06585 22.2472C6.60559 23.037 4.19893 24.1239 2.70993 26.3489C2.65868 26.4257 2.60851 26.503 2.55941 26.5808Z" fill="#0671D5"/>
<path d="M11.8011 19.751C11.7654 20.0908 11.7226 20.545 11.5685 20.8255C11.512 20.9449 11.4218 21.0453 11.3092 21.1144C11.294 21.1237 11.1718 21.1862 11.2096 21.1685C11.2442 21.152 11.2108 21.1685 11.2027 21.1715C11.1572 21.1908 11.1114 21.2098 11.0658 21.2291C10.6915 21.3859 10.3174 21.5431 9.94351 21.7006C9.63947 21.8283 9.33542 21.9762 9.02146 22.0794C8.93997 22.1037 8.87103 22.1586 8.82903 22.2326C8.78702 22.3065 8.7752 22.3938 8.79602 22.4763C8.81954 22.5584 8.87429 22.6279 8.94853 22.6701C9.02276 22.7122 9.11056 22.7236 9.19308 22.7017C9.54035 22.5875 9.87643 22.4227 10.2133 22.2816C10.5931 22.1225 10.9728 21.963 11.3522 21.8032C11.6979 21.6582 11.9861 21.4502 12.1504 21.1013C12.3457 20.6855 12.3987 20.2029 12.4462 19.7512C12.4456 19.6658 12.4115 19.584 12.3511 19.5236C12.2907 19.4632 12.2089 19.429 12.1235 19.4285C12.0385 19.4303 11.9575 19.4649 11.8974 19.5251C11.8372 19.5852 11.8026 19.6662 11.8008 19.7512L11.8011 19.751Z" fill="#0671D5"/>
<path d="M0.762086 32.3352C1.25573 30.1975 1.87615 27.9984 3.2016 26.2106C4.40211 24.5912 6.23653 23.6058 8.09169 22.9222C8.75626 22.6776 9.43097 22.4767 10.1096 22.2768C10.5072 22.1597 10.338 21.5366 9.9381 21.6544C8.35217 22.1213 6.77108 22.6426 5.34248 23.4926C4.43502 24.0189 3.62461 24.697 2.94654 25.4974C2.22849 26.3665 1.69566 27.3704 1.26806 28.4094C0.769924 29.6196 0.433836 30.8902 0.139702 32.1637C0.0463449 32.5679 0.668498 32.74 0.762086 32.3353V32.3352Z" fill="#0671D5"/>
<path d="M3.74875 15.7352C3.11868 15.0392 2.48662 14.3334 1.85255 13.6177L1.31131 17.5972C5.85609 22.0867 10.9894 27.499 16.3983 31.7311C16.83 31.7245 17.2532 31.7214 17.6662 31.7214C18.4204 31.7214 19.2106 31.7318 20.0227 31.7534C15.1623 27.6656 9.54164 22.1308 3.74875 15.7352Z" fill="white"/>
<path d="M1.6247 13.8458C4.04577 16.5793 6.52739 19.2576 9.06956 21.8808C11.3535 24.2287 13.692 26.5251 16.1077 28.7376C17.3063 29.8358 18.5266 30.9099 19.7686 31.9601C19.8302 32.0185 19.9119 32.0511 19.9968 32.0511C20.0817 32.0511 20.1634 32.0185 20.225 31.9601C20.2848 31.8992 20.3184 31.8172 20.3184 31.7319C20.3184 31.6465 20.2848 31.5645 20.225 31.5037C17.9219 29.5641 15.7036 27.525 13.5401 25.4317C11.056 23.0284 8.63862 20.5586 6.28808 18.0223C4.86582 16.4962 3.46354 14.9518 2.08123 13.389C2.05126 13.359 2.01568 13.3352 1.97653 13.319C1.93737 13.3028 1.8954 13.2944 1.85302 13.2944C1.81064 13.2944 1.76867 13.3028 1.72952 13.319C1.69036 13.3352 1.65478 13.359 1.62482 13.389C1.59485 13.4189 1.57107 13.4545 1.55486 13.4937C1.53864 13.5328 1.53029 13.5748 1.53029 13.6172C1.53029 13.6595 1.53864 13.7015 1.55486 13.7407C1.57107 13.7798 1.59485 13.8154 1.62482 13.8454L1.6247 13.8458Z" fill="#0671D5"/>
<path d="M1.08307 17.8253C2.95437 19.6743 4.79974 21.5491 6.673 23.3965C8.62774 25.3245 10.6108 27.2259 12.6712 29.0415C13.8175 30.0517 14.9878 31.0346 16.1915 31.9763C16.2534 32.0343 16.335 32.0666 16.4198 32.0666C16.5045 32.0666 16.5862 32.0343 16.648 31.9763C16.7596 31.8646 16.7863 31.6278 16.648 31.5198C14.4896 29.831 12.437 28.0108 10.4399 26.1352C8.45981 24.2756 6.53469 22.3593 4.61533 20.4376C3.59178 19.413 2.5665 18.3901 1.53949 17.3689C1.24374 17.0766 0.787093 17.5329 1.08307 17.8253Z" fill="#0671D5"/>
<path d="M30.7288 32.1637C30.2211 29.9649 29.5723 27.6802 28.1975 25.8483C26.905 24.1265 25.0181 23.0706 23.0331 22.3311C22.3416 22.0733 21.6385 21.8629 20.9311 21.6546C20.5318 21.537 20.3613 22.1598 20.7595 22.277C22.2797 22.7245 23.7901 23.2182 25.1629 24.0277C26.03 24.5273 26.8042 25.173 27.4512 25.9364C28.1204 26.7412 28.6234 27.7028 29.0142 28.6697C29.4929 29.8538 29.8195 31.0928 30.1064 32.3348C30.1999 32.7394 30.8224 32.5681 30.7288 32.1632V32.1637Z" fill="#0671D5"/>
<path d="M11.7245 19.9258C11.3715 20.3208 10.9362 20.8995 10.5907 21.2995C10.3874 21.5351 10.2378 21.9674 10.3535 22.2792C10.4862 22.5443 11.9533 24.8967 12.9413 25.5294C13.2535 25.1135 14.5464 23.3187 15.165 22.6229C14.9331 22.4589 11.8746 20.0473 11.7245 19.9258Z" fill="white"/>
<path d="M19.1443 19.9258C19.4973 20.3208 19.9325 20.8995 20.2779 21.2995C20.4812 21.5351 20.6308 21.9674 20.5152 22.2792C20.3825 22.5443 18.9155 24.8967 17.9275 25.5294C17.6153 25.1135 16.3222 23.3187 15.7038 22.6229C15.9356 22.4589 18.9942 20.0473 19.1443 19.9258Z" fill="white"/>
<path d="M14.1753 24.4005C14.5678 23.8751 14.9591 23.3436 15.3933 22.8519C15.4271 22.8164 15.4526 22.7739 15.4679 22.7273C15.4831 22.6807 15.4878 22.6313 15.4815 22.5827C15.4753 22.5341 15.4582 22.4875 15.4317 22.4463C15.4051 22.4052 15.3696 22.3705 15.3279 22.3447C15.2786 22.3095 15.2306 22.272 15.1826 22.2351L15.1249 22.1903C15.0878 22.1617 15.1866 22.2381 15.1243 22.1897L14.9629 22.0646C14.6927 21.8542 14.4229 21.6433 14.1536 21.4316C13.572 20.9752 12.9911 20.518 12.4108 20.06C12.2582 19.9396 12.1045 19.8201 11.9532 19.6979C11.892 19.6388 11.8101 19.6057 11.725 19.6057C11.6399 19.6057 11.5581 19.6388 11.4968 19.6979C11.2288 19.9995 10.9803 20.3177 10.727 20.6315C10.4762 20.9427 10.1891 21.2247 10.0609 21.6119C10.0052 21.7649 9.98308 21.9281 9.99617 22.0904C10.0093 22.2526 10.0572 22.4102 10.1368 22.5522C10.2818 22.8008 10.4393 23.0425 10.5989 23.2819C10.8748 23.6954 11.1656 24.0982 11.4713 24.4902C11.5786 24.6279 11.8151 24.6028 11.9277 24.4902C11.9863 24.4287 12.019 24.347 12.019 24.262C12.019 24.1771 11.9863 24.0954 11.9277 24.0338C11.6292 23.6512 11.3507 23.2523 11.0839 22.8467C10.9176 22.6194 10.7691 22.3797 10.6396 22.1296C10.6598 22.1743 10.6408 22.1411 10.6408 22.1214C10.6371 22.0653 10.6371 22.0091 10.6408 21.953C10.6512 21.8793 10.6706 21.8072 10.6984 21.7383C10.7891 21.5597 10.9071 21.3963 11.0482 21.2542C11.349 20.8866 11.6379 20.5087 11.9534 20.1535H11.497C12.47 20.9392 13.4602 21.705 14.4468 22.4735C14.6312 22.6171 14.8127 22.7657 15.0029 22.9014L14.9375 22.3943C14.4667 22.927 14.044 23.5045 13.6188 24.0735C13.5761 24.1474 13.5643 24.2352 13.5858 24.3179C13.6074 24.4005 13.6606 24.4713 13.734 24.515C13.8083 24.5563 13.8957 24.5673 13.9779 24.5458C14.0601 24.5244 14.1309 24.4721 14.1756 24.3998L14.1753 24.4005Z" fill="#0671D5"/>
<path d="M17.2508 24.0745C16.8256 23.5054 16.4029 22.928 15.9321 22.3953L15.8667 22.9024C16.3063 22.5886 16.7242 22.2397 17.1491 21.9065C17.7356 21.4464 18.3214 20.9854 18.9065 20.5234C19.062 20.4007 19.2184 20.279 19.3725 20.1546H18.9162C19.2317 20.5098 19.5206 20.8877 19.8214 21.2553C19.9542 21.4176 20.0944 21.5463 20.1712 21.7394C20.199 21.8083 20.2184 21.8804 20.2288 21.9541C20.2325 22.0102 20.2325 22.0664 20.2288 22.1225C20.2288 22.142 20.2098 22.1754 20.23 22.1307C20.1005 22.3808 19.952 22.6205 19.7857 22.8478C19.519 23.253 19.2403 23.6519 18.9419 24.0349C18.8838 24.0967 18.8515 24.1783 18.8515 24.2631C18.8515 24.3479 18.8838 24.4295 18.9419 24.4913C19.0533 24.6029 19.2904 24.6296 19.3983 24.4913C19.8673 23.8949 20.2996 23.2704 20.6925 22.6213C20.7368 22.5519 20.7762 22.4796 20.8105 22.4047C20.8861 22.1986 20.899 21.9748 20.8475 21.7614C20.7683 21.355 20.5002 21.0723 20.2482 20.7629C19.9581 20.4069 19.6779 20.0422 19.3722 19.6988C19.3108 19.64 19.2291 19.6072 19.1441 19.6072C19.0591 19.6072 18.9773 19.64 18.9159 19.6988C17.9517 20.4773 16.9703 21.2362 15.9928 21.998C15.932 22.0453 15.8712 22.0925 15.8105 22.1398L15.7312 22.2013L15.7569 22.1814L15.7142 22.2143C15.6566 22.2585 15.5998 22.3035 15.5413 22.3456C15.4996 22.3713 15.4642 22.406 15.4376 22.4472C15.411 22.4884 15.394 22.535 15.3877 22.5836C15.3814 22.6322 15.3861 22.6816 15.4014 22.7282C15.4167 22.7747 15.4422 22.8173 15.476 22.8527C15.9106 23.3444 16.3013 23.876 16.6939 24.4013C16.739 24.4732 16.8097 24.5251 16.8918 24.5466C16.9739 24.568 17.061 24.5573 17.1355 24.5166C17.2088 24.4729 17.2621 24.4021 17.2836 24.3194C17.3052 24.2368 17.2934 24.149 17.2507 24.075L17.2508 24.0745Z" fill="#0671D5"/>
<path d="M24.1782 33.656C24.1782 28.9881 20.6237 25.0578 15.5263 25.0578C10.4108 25.0578 6.87495 29.0199 6.87495 33.656L4.46944 33.6336C4.46944 27.7078 8.98875 22.6438 15.5271 22.6438C22.0424 22.6438 26.5856 27.6675 26.5856 33.6336L24.1782 33.656Z" fill="#5DA8EF"/>
<path d="M26.9078 33.6338C26.9143 31.3215 26.2255 29.0607 24.9308 27.1449C23.6242 25.2464 21.7577 23.8032 19.5916 23.0164C17.2336 22.1783 14.6743 22.0887 12.2635 22.7598C10.0392 23.3794 8.06551 24.6815 6.62074 26.4826C5.19159 28.2923 4.34019 30.4903 4.17731 32.7906C4.1568 33.0714 4.14711 33.3529 4.14665 33.6345C4.14596 34.0494 4.7914 34.0504 4.79209 33.6345C4.78652 31.4492 5.43859 29.3127 6.6635 27.503C7.88593 25.724 9.63252 24.3703 11.6602 23.6303C13.8958 22.8334 16.3229 22.7457 18.6102 23.3793C20.7132 23.9626 22.5799 25.1919 23.9465 26.8935C25.2794 28.5851 26.0752 30.6371 26.2316 32.785C26.2522 33.0676 26.262 33.3508 26.2625 33.6341C26.2632 34.049 26.9086 34.0501 26.9079 33.6341L26.9078 33.6338Z" fill="#0671D5"/>
<path d="M24.501 33.6563C24.5061 31.8334 23.9631 30.0509 22.9425 28.5404C21.9099 27.0414 20.4352 25.9021 18.7241 25.2815C16.8652 24.622 14.8481 24.5527 12.9484 25.0832C11.2014 25.5707 9.6508 26.5926 8.51377 28.0057C7.38273 29.4334 6.70798 31.1687 6.57747 32.9854C6.56087 33.2088 6.55315 33.4325 6.55269 33.6563C6.55177 34.0712 7.1972 34.0723 7.19812 33.6563C7.19404 31.965 7.69743 30.3114 8.64321 28.9093C9.58884 27.5287 10.941 26.4769 12.5118 25.9C14.2468 25.2785 16.1315 25.2076 17.9083 25.6972C19.5479 26.1492 21.0031 27.107 22.0665 28.4343C23.097 29.7466 23.7119 31.3367 23.8325 33.0009C23.8483 33.2192 23.8555 33.4379 23.8555 33.6568C23.8565 34.0717 24.5019 34.0729 24.501 33.6568V33.6563Z" fill="#0671D5"/>
<path d="M21.993 29.6283C21.8111 29.5511 21.6106 29.5287 21.4161 29.5637C21.2216 29.5987 21.0416 29.6896 20.898 29.8254C20.7123 30.0444 20.6161 30.488 20.6567 30.7723C20.7332 31.227 20.887 31.6653 21.1114 32.068C21.2083 32.2393 21.3453 32.3846 21.5106 32.4914C21.6759 32.5982 21.8646 32.6633 22.0606 32.6812C22.0606 32.6812 23.3018 32.9392 23.7608 32.3969C24.2197 31.8546 23.8129 30.6239 23.5625 30.4362C23.3122 30.2486 21.993 29.6283 21.993 29.6283Z" fill="white"/>
<path d="M22.0788 29.3169C21.6376 29.1366 21.0281 29.2224 20.6891 29.5763C20.3748 29.9042 20.282 30.4446 20.349 30.8787C20.4256 31.3628 20.5938 31.828 20.8446 32.2492C20.9741 32.4615 21.1516 32.6404 21.363 32.7715C21.5744 32.9025 21.8136 32.9821 22.0614 33.0036C22.1468 33.0031 22.2285 32.9689 22.2889 32.9085C22.3494 32.8481 22.3835 32.7663 22.3841 32.6809C22.3822 32.5959 22.3476 32.5149 22.2874 32.4548C22.2273 32.3947 22.1463 32.3601 22.0614 32.3582C21.3698 32.2813 21.1113 31.4123 20.9945 30.8349C20.9355 30.5623 20.9864 30.2775 21.1362 30.0424C21.1116 30.0752 21.1663 30.0125 21.167 30.0118C21.2268 29.9557 21.1304 30.0301 21.208 29.9823C21.2627 29.9472 21.3223 29.9204 21.3849 29.9028C21.5579 29.8525 21.7432 29.8654 21.9075 29.9392C22.0688 30.0051 22.2622 29.8675 22.3044 29.7138C22.3251 29.6313 22.3132 29.5441 22.2712 29.4702C22.2293 29.3963 22.1605 29.3413 22.0791 29.3168L22.0788 29.3169Z" fill="#0671D5"/>
<path d="M25.7973 27.718C24.5057 27.257 22.6995 27.857 22.0015 29.0803C21.7332 29.5504 21.7389 30.3208 22.4713 30.5075C22.0079 30.9294 21.9617 31.4696 22.2217 31.8842C22.3445 32.0801 22.6457 32.1724 22.869 32.18C22.9913 32.1837 23.1135 32.1721 23.2329 32.1454L23.2008 32.18C23.1035 32.2885 23.0344 32.4193 22.9996 32.5609C22.9649 32.7024 22.9655 32.8503 23.0015 32.9916C23.0222 33.1258 23.0695 33.2546 23.1406 33.3703C23.2117 33.486 23.3053 33.5863 23.4157 33.6654C23.7208 33.8541 24.2498 33.7632 24.5198 33.6238L24.5731 33.5962L24.5066 33.6769C24.2593 33.9785 24.5572 34.5505 24.7815 34.699C25.4279 35.1266 26.179 34.7408 26.9109 34.3902C27.4756 34.1196 28.0045 33.5638 28.1586 33.0281C28.2823 32.5978 28.3357 32.2772 28.2804 31.5298C28.182 30.2001 27.6349 29.0012 26.3986 28.043C26.2166 27.9035 26.0136 27.7938 25.7973 27.718Z" fill="white"/>
<path d="M22.1703 30.3494C21.821 30.7251 21.6335 31.2492 21.8067 31.7524C21.8745 31.9833 22.021 32.1831 22.2207 32.3172C22.4325 32.4429 22.6752 32.5071 22.9214 32.5026C23.4631 32.5011 23.9346 32.2189 24.4082 31.991C24.8837 31.762 25.3618 31.5378 25.8311 31.2962C26.2 31.106 25.8744 30.5489 25.5053 30.7389C25.1265 30.934 24.7417 31.1174 24.3576 31.3015C23.9928 31.4765 23.624 31.7062 23.232 31.8126C23.0686 31.8607 22.8959 31.8683 22.7288 31.8348C22.6656 31.8276 22.6055 31.8032 22.5551 31.7643C22.5047 31.7255 22.4658 31.6736 22.4426 31.6143C22.3225 31.3433 22.408 31.0419 22.627 30.8058C22.9095 30.5019 22.4541 30.0443 22.1706 30.3494H22.1703Z" fill="#0671D5"/>
<path d="M24.228 33.5143C23.9957 33.8247 24.0923 34.2634 24.2651 34.5771C24.3572 34.7417 24.4864 34.8826 24.6425 34.9886C24.7985 35.0946 24.9771 35.1629 25.1641 35.1879C25.6352 35.2602 26.0828 35.1147 26.5113 34.9311C26.9246 34.7715 27.3121 34.5521 27.6617 34.2799C27.9817 34.0188 28.2348 33.6851 28.4 33.3066C28.5146 33.0161 28.5853 32.7101 28.6097 32.3987C28.674 31.6517 28.5835 30.8994 28.344 30.1889C28.0978 29.4657 27.6875 28.8093 27.1453 28.271C26.6508 27.7776 26.0938 27.3927 25.3918 27.2856C24.1086 27.0897 22.6966 27.6005 21.9045 28.6445C21.6783 28.9259 21.5434 29.2696 21.5179 29.6298C21.4971 30.0363 21.6824 30.4891 22.0596 30.6829C22.4702 30.894 22.8694 30.6983 23.2431 30.5078C23.6516 30.2994 24.0696 30.1096 24.483 29.9114C24.6611 29.826 24.8387 29.7396 25.0147 29.65C25.3849 29.4613 25.0586 28.9043 24.6889 29.0926C24.3581 29.2612 24.0219 29.4188 23.6861 29.5783C23.3484 29.7389 23.0171 29.924 22.6741 30.0721C22.5703 30.1173 22.4475 30.1627 22.3658 30.1183C22.3172 30.0873 22.2754 30.0467 22.2432 29.999C22.2109 29.9512 22.1888 29.8974 22.1782 29.8407C22.157 29.7188 22.1606 29.5939 22.1888 29.4735C22.2171 29.353 22.2694 29.2396 22.3426 29.1398C22.6263 28.7247 23.0204 28.397 23.4804 28.1939C23.9425 27.9774 24.449 27.8725 24.9591 27.8877C25.2004 27.8926 25.4394 27.9354 25.6674 28.0145C25.8849 28.0906 26.0877 28.2036 26.2667 28.3487C26.787 28.759 27.2131 29.2763 27.516 29.8656C27.7759 30.404 27.9273 30.9883 27.9617 31.5851C27.9725 31.7434 27.98 31.902 27.9794 32.0606C27.9794 32.1379 27.9771 32.2152 27.9723 32.2924C27.9704 32.3218 27.9681 32.3511 27.9655 32.3805C27.9643 32.3927 27.9518 32.5016 27.9596 32.444C27.9347 32.7516 27.837 33.0489 27.6747 33.3114C27.5124 33.5739 27.2901 33.7941 27.026 33.9539C26.6749 34.1783 26.2953 34.3546 25.8972 34.4779C25.7121 34.545 25.5152 34.5732 25.3187 34.5608C25.2388 34.5527 25.1606 34.5326 25.0866 34.5012C25.052 34.4862 25.0205 34.4655 24.9878 34.4475C24.8789 34.3873 24.9967 34.4742 24.9492 34.4219C24.8677 34.3369 24.8054 34.2353 24.7666 34.1241C24.7225 33.9858 24.7183 33.9294 24.7855 33.8398C24.8281 33.7658 24.84 33.678 24.8184 33.5953C24.7968 33.5127 24.7436 33.4419 24.6702 33.3982C24.5959 33.357 24.5086 33.3459 24.4263 33.3674C24.3441 33.3888 24.2733 33.4412 24.2287 33.5135L24.228 33.5143Z" fill="#0671D5"/>
<path d="M8.87569 29.6283C9.05759 29.5511 9.25806 29.5287 9.45253 29.5637C9.64701 29.5987 9.82705 29.6896 9.97063 29.8254C10.1563 30.0444 10.2525 30.488 10.2121 30.7724C10.1355 31.227 9.98174 31.6653 9.7574 32.0681C9.66049 32.2394 9.52351 32.3846 9.35819 32.4914C9.19287 32.5982 9.00414 32.6633 8.80815 32.6812C8.80815 32.6812 7.56684 32.9392 7.10801 32.3969C6.64917 31.8546 7.05591 30.6239 7.30613 30.4363C7.55635 30.2486 8.87569 29.6283 8.87569 29.6283Z" fill="white"/>
<path d="M8.9614 29.9391C9.11887 29.868 9.29598 29.8531 9.46311 29.8969C9.53315 29.9147 9.59992 29.9435 9.66089 29.9822C9.71045 30.0129 9.66089 29.9725 9.70192 30.0117C9.70826 30.0177 9.75794 30.076 9.7327 30.0423C9.88234 30.2775 9.93324 30.5623 9.87435 30.8348C9.75759 31.4122 9.49919 32.2812 8.80754 32.3581C8.72271 32.3605 8.64201 32.3953 8.58201 32.4553C8.522 32.5153 8.48723 32.596 8.48482 32.6808C8.48536 32.7663 8.51954 32.848 8.57994 32.9084C8.64034 32.9688 8.72211 33.003 8.80754 33.0036C9.05165 32.9822 9.2875 32.9046 9.49665 32.7769C9.7058 32.6493 9.88256 32.4749 10.0131 32.2675C10.2717 31.8424 10.4437 31.3704 10.5194 30.8786C10.5856 30.4502 10.4964 29.9126 10.1889 29.5864C9.84853 29.2257 9.23767 29.1336 8.78979 29.3167C8.70871 29.3417 8.64024 29.3967 8.59834 29.4705C8.55644 29.5443 8.54428 29.6313 8.56434 29.7137C8.6063 29.8664 8.79901 30.0054 8.9614 29.9391Z" fill="#0671D5"/>
<path d="M5.07144 27.718C6.363 27.257 8.16918 27.857 8.86717 29.0803C9.13549 29.5504 9.12973 30.3208 8.39739 30.5075C8.86083 30.9294 8.90705 31.4696 8.64703 31.8842C8.52417 32.0801 8.22289 32.1724 7.99976 32.18C7.87746 32.1837 7.75518 32.1721 7.63578 32.1454L7.66793 32.18C7.76525 32.2885 7.83433 32.4193 7.86909 32.5609C7.90385 32.7024 7.9032 32.8503 7.86721 32.9916C7.84655 33.1258 7.79926 33.2546 7.72813 33.3703C7.65699 33.486 7.56344 33.5863 7.45298 33.6654C7.1479 33.8541 6.61887 33.7632 6.34894 33.6238L6.29558 33.5962L6.36208 33.6769C6.60942 33.9785 6.31148 34.5505 6.08708 34.699C5.44084 35.1266 4.6896 34.7408 3.95784 34.3902C3.39308 34.1196 2.86405 33.5638 2.71007 33.0281C2.58629 32.5978 2.53304 32.2772 2.58825 31.5298C2.68656 30.2001 3.23368 29.0012 4.47015 28.043C4.65211 27.9035 4.85507 27.7938 5.07144 27.718Z" fill="white"/>
<path d="M8.24229 30.8066C8.46128 31.0425 8.54737 31.3432 8.4267 31.6151C8.40373 31.6746 8.36489 31.7266 8.31441 31.7654C8.26392 31.8043 8.20374 31.8286 8.1404 31.8356C7.97348 31.8698 7.80071 31.8622 7.63743 31.8135C7.24556 31.706 6.87674 31.4775 6.51195 31.3024C6.1278 31.118 5.74307 30.9349 5.36411 30.7398C4.99529 30.5499 4.66854 31.1067 5.0384 31.2971C5.50772 31.5392 5.9858 31.7629 6.46135 31.9919C6.9339 32.2198 7.40645 32.502 7.94747 32.5035C8.19374 32.508 8.43639 32.4438 8.64822 32.3181C8.84789 32.1839 8.99435 31.9841 9.06222 31.7533C9.23511 31.2501 9.04782 30.726 8.69871 30.3503C8.41529 30.0455 7.95968 30.5027 8.24229 30.8067V30.8066Z" fill="#0671D5"/>
<path d="M6.08313 33.84C6.08313 33.84 6.1388 33.931 6.11633 33.8794C6.11806 33.8835 6.13696 33.9831 6.1312 33.9255C6.13684 33.9679 6.13371 34.0111 6.12197 34.0523C6.10847 34.1096 6.08876 34.1653 6.06319 34.2183C6.05224 34.2399 6.04014 34.2612 6.02862 34.282C6.02182 34.2935 5.95335 34.3901 5.98148 34.356C5.96384 34.3773 5.86334 34.461 5.92454 34.4198C5.85368 34.4689 5.77549 34.5064 5.69288 34.5309C5.5518 34.5689 5.40407 34.5754 5.2602 34.5499C4.87606 34.4885 4.51634 34.3018 4.16988 34.135C3.86199 33.99 3.58697 33.7835 3.3617 33.5284C3.17564 33.3153 3.04417 33.0602 2.97859 32.785C2.91542 32.5559 2.88549 32.3189 2.88973 32.0813C2.87658 31.4486 2.9804 30.819 3.19597 30.2241C3.41942 29.6462 3.76639 29.124 4.21264 28.6941C4.41898 28.4785 4.654 28.2924 4.91109 28.1409C5.12522 28.0268 5.3574 27.9506 5.59744 27.9154C6.09629 27.8463 6.60445 27.899 7.07849 28.0691C7.56058 28.23 7.99341 28.5117 8.3357 28.8874C8.51823 29.0763 8.64468 29.3122 8.70095 29.5688C8.72572 29.7033 8.70585 29.8422 8.64436 29.9643C8.6235 30.0129 8.58948 30.0547 8.54614 30.0849C8.5028 30.1151 8.45186 30.1326 8.39909 30.1354C8.22678 30.1167 8.06197 30.0049 7.91144 29.9293C7.71885 29.8325 7.52384 29.7404 7.32928 29.6475C6.94536 29.4644 6.55937 29.2851 6.18029 29.092C5.81147 28.9038 5.48403 29.4608 5.85458 29.6494C6.23354 29.8425 6.61965 30.0216 7.00357 30.2049C7.21172 30.3041 7.42068 30.4024 7.62595 30.5072C7.79748 30.6054 7.9791 30.6848 8.16766 30.7441C8.37911 30.7993 8.60336 30.7767 8.79955 30.6804C8.99574 30.5841 9.15082 30.4206 9.23654 30.2195C9.31518 30.0317 9.35316 29.8294 9.34798 29.6259C9.34279 29.4224 9.29456 29.2223 9.20646 29.0387C8.9529 28.4631 8.40382 27.9991 7.85981 27.7096C7.27681 27.3964 6.62433 27.2351 5.96257 27.2406C5.31711 27.2422 4.6909 27.4606 4.1844 27.8607C3.56621 28.343 3.06911 28.9628 2.73264 29.671C2.4225 30.3689 2.25708 31.1225 2.24637 31.8861C2.22597 32.5717 2.3501 33.2742 2.77724 33.8279C3.03395 34.1643 3.36061 34.4409 3.73467 34.6388C4.1378 34.8667 4.56876 35.0414 5.01678 35.1585C5.44081 35.2507 5.90598 35.2221 6.27008 34.9635C6.41455 34.8519 6.53408 34.7112 6.62098 34.5507C6.70788 34.3901 6.76023 34.2132 6.77467 34.0312C6.7935 33.8483 6.74601 33.6649 6.64086 33.5141C6.59579 33.4423 6.525 33.3903 6.44294 33.3689C6.36088 33.3475 6.27374 33.3582 6.19931 33.3989C6.12585 33.4425 6.07251 33.5132 6.05083 33.5959C6.02916 33.6785 6.04088 33.7664 6.08348 33.8404L6.08313 33.84Z" fill="#0671D5"/>
</g>
<defs>
<clipPath id="clip0_2457_8789">
<rect width="30" height="30" fill="white" transform="translate(0.75 0.233398)"/>
</clipPath>
</defs>
</svg>
