<svg width="31" height="31" viewBox="0 0 31 31" fill="none" xmlns="http://www.w3.org/2000/svg">
<g clip-path="url(#clip0_2457_19335)">
<path d="M29.6436 3.7843C27.2918 4.82252 24.1488 4.97504 21.2131 3.75811C19.7854 3.16631 16.7767 1.71131 15.7499 0.233398C14.7233 1.71131 11.7145 3.16631 10.2869 3.75805C7.35096 4.97504 4.20822 4.82246 1.85621 3.7843C1.43416 3.59785 0.97168 3.90617 0.97168 4.3676C0.97168 29.1479 15.7499 30.2334 15.7499 30.2334C15.7499 30.2334 30.5282 29.1479 30.5282 4.3676C30.5282 3.90617 30.0658 3.59785 29.6436 3.7843ZM5.97389 7.57695C7.85082 7.57695 9.68316 7.21191 11.42 6.49191C12.3651 6.10016 14.1574 5.29016 15.7498 4.19164C17.3423 5.29016 19.1348 6.10016 20.0798 6.49191C21.8169 7.21197 23.6492 7.57707 25.526 7.57695C26.1856 7.57695 26.8415 7.53002 27.4847 7.43826C26.5148 24.6239 17.4383 26.9628 15.7499 27.2492C14.0616 26.9628 4.98506 24.6238 4.01516 7.4382C4.6584 7.53014 5.31436 7.57695 5.97389 7.57695Z" fill="#0671D5"/>
<path d="M15.7499 24.2145C17.5042 23.7056 22.7626 21.2919 24.227 10.4878C22.4132 10.3513 20.6421 9.92859 18.9467 9.2257C18.2228 8.92564 17.0255 8.39303 15.7499 7.67285C14.4744 8.39303 13.2772 8.92564 12.5533 9.2257C10.858 9.92848 9.08709 10.3512 7.27296 10.4878C8.73728 21.2919 13.9957 23.7056 15.7499 24.2145Z" fill="#0671D5"/>
<path d="M18.2885 14.6334H17.8269V14.0334C17.8269 13.0334 16.9038 12.2334 15.75 12.2334C14.5962 12.2334 13.6731 13.0334 13.6731 14.0334V14.6334H13.2115C12.9346 14.6334 12.75 14.7934 12.75 15.0334V17.8334C12.75 18.0734 12.9346 18.2334 13.2115 18.2334H18.2885C18.5654 18.2334 18.75 18.0734 18.75 17.8334V15.0334C18.75 14.7934 18.5654 14.6334 18.2885 14.6334ZM14.5962 14.0334C14.5962 13.4734 15.1038 13.0334 15.75 13.0334C16.3962 13.0334 16.9038 13.4734 16.9038 14.0334V14.6334H14.5962V14.0334Z" fill="white"/>
</g>
<defs>
<clipPath id="clip0_2457_19335">
<rect width="30" height="30" fill="white" transform="translate(0.75 0.233398)"/>
</clipPath>
</defs>
</svg>
