<svg width="31" height="31" viewBox="0 0 31 31" fill="none" xmlns="http://www.w3.org/2000/svg">
<g clip-path="url(#clip0_2457_15921)">
<path d="M15.25 1.2334C22.982 1.2334 29.25 7.50141 29.25 15.2334C29.25 22.9654 22.982 29.2334 15.25 29.2334C7.51801 29.2334 1.25 22.9654 1.25 15.2334C1.25 7.50141 7.51801 1.2334 15.25 1.2334ZM16.1258 3.01422L16.125 6.4834C16.125 6.96665 15.7332 7.3584 15.25 7.3584C14.7668 7.3584 14.375 6.96665 14.375 6.4834L14.3751 3.01416C8.30692 3.44236 3.45897 8.29032 3.03076 14.3585L6.5 14.3584C6.98325 14.3584 7.375 14.7501 7.375 15.2334C7.375 15.7166 6.98325 16.1084 6.5 16.1084L3.03082 16.1092C3.45943 22.1769 8.30721 27.0245 14.3751 27.4526L14.375 23.9834C14.375 23.5001 14.7668 23.1084 15.25 23.1084C15.7332 23.1084 16.125 23.5001 16.125 23.9834L16.1258 27.4526C22.1933 27.024 27.0406 22.1767 27.4692 16.1092L24 16.1084C23.5168 16.1084 23.125 15.7166 23.125 15.2334C23.125 14.7501 23.5168 14.3584 24 14.3584L27.4692 14.3585C27.0411 8.29061 22.1935 3.44283 16.1258 3.01422ZM15.25 10.8584C17.6662 10.8584 19.625 12.8172 19.625 15.2334C19.625 17.6496 17.6662 19.6084 15.25 19.6084C12.8338 19.6084 10.875 17.6496 10.875 15.2334C10.875 12.8172 12.8338 10.8584 15.25 10.8584ZM15.25 12.6084C13.8003 12.6084 12.625 13.7837 12.625 15.2334C12.625 16.6831 13.8003 17.8584 15.25 17.8584C16.6997 17.8584 17.875 16.6831 17.875 15.2334C17.875 13.7837 16.6997 12.6084 15.25 12.6084Z" fill="#0671D5" stroke="#0671D5" stroke-width="0.7"/>
</g>
<defs>
<clipPath id="clip0_2457_15921">
<rect width="30" height="30" fill="white" transform="translate(0.25 0.233398)"/>
</clipPath>
</defs>
</svg>
