<svg width="31" height="31" viewBox="0 0 31 31" fill="none" xmlns="http://www.w3.org/2000/svg">
<g clip-path="url(#clip0_2301_9399)">
<path d="M21.6776 3.42822L15.249 10.831H18.9503V19.8122C18.9503 21.9822 18.0884 24.0632 16.5538 25.5978L16.2231 25.9285C20.7418 25.9285 24.4048 22.2655 24.4048 17.7468V10.831H28.1062L21.6776 3.42822ZM22.262 8.68789V17.7462C22.262 19.1592 21.7743 20.4603 20.9583 21.49C21.0477 20.9401 21.0931 20.3797 21.0931 19.8116V8.68818H19.9479L21.6776 6.69658L23.4073 8.68818H22.262V8.68789Z" fill="#0671D5"/>
<path d="M9.89172 12.0195C5.74973 12.0195 2.39172 15.3775 2.39172 19.5195C2.39172 23.6615 5.74973 27.0195 9.89172 27.0195C14.034 27.0195 17.3917 23.6615 17.3917 19.5195C17.3917 15.3775 14.034 12.0195 9.89172 12.0195ZM9.89172 24.8765C6.93772 24.8765 4.5345 22.4732 4.5345 19.5192C4.5345 16.5652 6.93772 14.162 9.89172 14.162C12.8457 14.162 15.2489 16.5652 15.2489 19.5192C15.2489 22.4732 12.8457 24.8765 9.89172 24.8765Z" fill="#0671D5"/>
<path d="M11.7875 15.7368L9.89523 17.6297L8.00294 15.7368L6.86681 16.873L8.16027 18.1667H7.21046V19.7739H9.09161V20.3259H7.27052V21.9331H9.09161V23.6883H10.6988V21.9331H12.5205V20.3259H10.6988V19.7739H12.5806V18.1667H11.6302L12.9239 16.873L11.7875 15.7368ZM4.53448 8.80225H13.1059V10.945H4.53448V8.80225ZM4.53448 5.57959H16.3203V7.72236H4.53448V5.57959Z" fill="#0671D5"/>
</g>
<defs>
<clipPath id="clip0_2301_9399">
<rect width="30" height="30" fill="white" transform="translate(0.25 0.233398)"/>
</clipPath>
</defs>
</svg>
