<svg width="31" height="31" viewBox="0 0 31 31" fill="none" xmlns="http://www.w3.org/2000/svg">
<g clip-path="url(#clip0_2457_8846)">
<path d="M4.2511 5.21318C0.916242 8.52204 0.916242 13.8885 4.25108 17.1973L7.20613 20.133C7.43221 20.3577 7.79757 20.3564 8.02218 20.1304C8.2468 19.9043 8.24559 19.5389 8.01951 19.3143L5.0642 16.3783C2.18407 13.5207 2.18407 8.88987 5.06395 6.03245C7.94662 3.17255 12.6219 3.17255 15.5046 6.03248C15.7295 6.25569 16.0924 6.25569 16.3174 6.03245C19.1998 3.17255 23.8753 3.17255 26.7577 6.03245C29.6379 8.88987 29.6379 13.5207 26.7577 16.3781L25.3759 17.7515C25.1499 17.9762 25.1487 18.3415 25.3734 18.5675C25.5981 18.7936 25.9634 18.7947 26.1895 18.57L27.5709 17.197C30.9057 13.8885 30.9057 8.52201 27.5705 5.21316C24.3705 2.03808 19.2625 1.91202 15.911 4.83501C12.5592 1.91202 7.45146 2.03808 4.25113 5.21316L4.2511 5.21318Z" fill="#0671D5" stroke="#0671D5" stroke-width="0.7"/>
<path d="M17.5908 8.42748L25.3734 16.21C25.7989 16.6356 25.7989 17.326 25.3733 17.7518C24.9475 18.1776 24.2573 18.1776 23.8317 17.7518L20.9819 14.902C20.7566 14.6767 20.3912 14.6767 20.1659 14.902C19.9405 15.1274 19.9405 15.4927 20.1659 15.7181L23.0156 18.5678C23.8917 19.4443 25.3128 19.4443 26.1894 18.5678C27.0656 17.6912 27.0656 16.2702 26.1894 15.394L18.4068 7.6114C18.1815 7.38605 17.8161 7.38605 17.5908 7.6114C17.3654 7.83675 17.3654 8.2021 17.5908 8.42745L17.5908 8.42748Z" fill="#0671D5" stroke="#0671D5" stroke-width="0.7"/>
<path d="M16.8784 12.4104L23.0112 18.5431C23.437 18.969 23.437 19.6592 23.0113 20.0848C22.5853 20.5107 21.8953 20.5107 21.4695 20.0849L18.62 17.2354C18.3947 17.0101 18.0293 17.0101 17.804 17.2354C17.5786 17.4608 17.5786 17.8261 17.804 18.0515L20.6534 20.9009C21.53 21.7775 22.9507 21.7775 23.8272 20.9009C24.7038 20.0248 24.7038 18.6036 23.8272 17.7271L17.6945 11.5943C17.4691 11.369 17.1038 11.369 16.8784 11.5943C16.6531 11.8197 16.6531 12.185 16.8784 12.4104Z" fill="#0671D5" stroke="#0671D5" stroke-width="0.7"/>
<path d="M14.5623 14.8189L20.6489 20.9055C21.0747 21.3313 21.0747 22.0216 20.649 22.4472C20.2231 22.8731 19.533 22.8731 19.1072 22.4472L11.9334 15.2735C11.7081 15.0481 11.3427 15.0481 11.1174 15.2735C10.892 15.4988 10.892 15.8642 11.1174 16.0895L18.2911 23.2633C19.1677 24.1399 20.5885 24.1399 21.465 23.2633C22.3415 22.3871 22.3415 20.966 21.465 20.0895L15.3784 14.0028C15.153 13.7775 14.7876 13.7775 14.5623 14.0028C14.3369 14.2282 14.3369 14.5935 14.5623 14.8189ZM17.509 7.58123L12.9244 12.137C12.7881 12.2732 12.5894 12.3229 12.4065 12.2674L11.0789 11.863C10.8703 11.7996 10.8047 11.5371 10.9588 11.3829L16.4712 5.87057C16.6965 5.64522 16.6965 5.27986 16.4712 5.05451C16.2458 4.82916 15.8804 4.82916 15.6551 5.05451L10.1426 10.567C9.37268 11.3374 9.70084 12.6502 10.7428 12.9671L12.0707 13.3715C12.6615 13.551 13.3029 13.3906 13.7391 12.9543L18.3224 8.39985C18.5485 8.17521 18.5497 7.80985 18.325 7.5838C18.1004 7.35774 17.735 7.35659 17.509 7.58123Z" fill="#0671D5" stroke="#0671D5" stroke-width="0.7"/>
<path d="M11.1646 17.6357C11.5688 17.2315 11.5688 16.5761 11.1646 16.1719L11.0867 16.094C10.6825 15.6898 10.0271 15.6898 9.62288 16.094L7.95149 17.7654C7.54728 18.1696 7.54728 18.825 7.95149 19.2292L8.02939 19.3071C8.4336 19.7113 9.08903 19.7113 9.49321 19.3071L11.1646 17.6357ZM11.9807 18.4518L10.3093 20.1232C9.45439 20.9781 8.06825 20.9781 7.21334 20.1232L7.13543 20.0453C6.28052 19.1903 6.28052 17.8042 7.13543 16.9493L8.80682 15.2779C9.66173 14.423 11.0479 14.423 11.9028 15.2779L11.9807 15.3558C12.8356 16.2107 12.8356 17.5969 11.9807 18.4518Z" fill="#0671D5" stroke="#0671D5" stroke-width="0.7"/>
<path d="M13.5319 18.5393L13.454 18.4614C13.0498 18.0572 12.3943 18.0572 11.9902 18.4614L10.3188 20.1328C9.91455 20.537 9.91455 21.1924 10.3188 21.5966L10.3967 21.6745C10.8009 22.0787 11.4563 22.0787 11.8605 21.6745L13.5319 20.0031C13.9361 19.5989 13.9361 18.9435 13.5319 18.5393ZM12.6765 22.4906C11.8216 23.3455 10.4355 23.3455 9.58058 22.4906L9.50268 22.4127C8.64777 21.5578 8.64777 20.1716 9.50268 19.3167L11.1741 17.6453C12.029 16.7904 13.4151 16.7904 14.27 17.6453L14.3479 17.7232C15.2028 18.5781 15.2028 19.9643 14.3479 20.8192L12.6765 22.4906Z" fill="#0671D5" stroke="#0671D5" stroke-width="0.7"/>
<path d="M15.8996 22.3706C16.3038 21.9664 16.3038 21.3109 15.8996 20.9068L15.8217 20.8288C15.4175 20.4246 14.762 20.4246 14.3579 20.8288L12.6865 22.5002C12.2823 22.9044 12.2823 23.5599 12.6865 23.9641L12.7644 24.042C13.1686 24.4462 13.824 24.4462 14.2282 24.042L15.8996 22.3706ZM16.7156 23.1866L15.0443 24.858C14.1893 25.7129 12.8032 25.7129 11.9483 24.858L11.8704 24.7801C11.0155 23.9252 11.0155 22.5391 11.8704 21.6842L13.5418 20.0128C14.3967 19.1579 15.7828 19.1579 16.6377 20.0128L16.7156 20.0907C17.5706 20.9456 17.5706 22.3317 16.7156 23.1866Z" fill="#0671D5" stroke="#0671D5" stroke-width="0.7"/>
<path d="M18.2668 23.2744L18.1889 23.1965C17.7847 22.7923 17.1293 22.7923 16.7251 23.1965L15.0537 24.8679C14.6495 25.2721 14.6495 25.9276 15.0537 26.3317L15.1316 26.4096C15.5358 26.8139 16.1912 26.8139 16.5954 26.4096L18.2668 24.7383C18.671 24.334 18.671 23.6786 18.2668 23.2744ZM17.4115 27.2257C16.5566 28.0806 15.1704 28.0806 14.3155 27.2257L14.2376 27.1478C13.3827 26.2929 13.3827 24.9067 14.2376 24.0518L15.909 22.3804C16.7639 21.5255 18.1501 21.5255 19.005 22.3804L19.0829 22.4583C19.9378 23.3133 19.9378 24.6994 19.0829 25.5543L17.4115 27.2257Z" fill="#0671D5" stroke="#0671D5" stroke-width="0.7"/>
</g>
<defs>
<clipPath id="clip0_2457_8846">
<rect width="30" height="30" fill="white" transform="translate(0.75 0.733398)"/>
</clipPath>
</defs>
</svg>
