<svg width="31" height="31" viewBox="0 0 31 31" fill="none" xmlns="http://www.w3.org/2000/svg">
<g clip-path="url(#clip0_2457_19322)">
<path d="M15.1948 7.23957C17.1295 7.23957 18.6979 5.67119 18.6979 3.73649C18.6979 1.80178 17.1295 0.233398 15.1948 0.233398C13.2601 0.233398 11.6917 1.80178 11.6917 3.73649C11.6917 5.67119 13.2601 7.23957 15.1948 7.23957Z" fill="#0671D5"/>
<path d="M27.4576 13.3742L24.1927 12.6932C23.0804 12.4602 21.9822 12.97 21.4016 13.8764C20.8377 13.5867 20.2313 13.3369 19.5863 13.1297V11.1882C19.5876 9.71927 18.3851 8.51807 16.9214 8.51807H13.5831C12.1116 8.51807 10.9142 9.71927 10.9142 11.1882V13.1399C10.2757 13.3433 9.67574 13.5931 9.10797 13.8841C8.52737 12.9738 7.42787 12.4602 6.31423 12.6932L3.04671 13.3742C1.61251 13.6742 0.681676 15.0968 0.981647 16.5362L1.80176 20.4538C2.09917 21.8893 3.52305 22.8201 4.95857 22.5202L5.99235 22.3039C6.50987 23.0686 7.22572 23.7702 8.14234 24.3702C10.0516 25.6216 12.5737 26.3116 15.2502 26.3116C19.3456 26.3116 22.8731 24.665 24.4978 22.3L25.5484 22.5202C26.9826 22.8188 28.4065 21.8893 28.7039 20.4538L29.5252 16.5362C29.8239 15.0968 28.8931 13.6742 27.4576 13.3742ZM15.2489 24.974C12.8311 24.974 10.5652 24.365 8.87485 23.2514C8.29549 22.8729 7.81528 22.4519 7.43037 22.0013L8.22214 21.8352C9.65891 21.5366 10.5897 20.1139 10.2898 18.6772L9.55465 15.1547C9.98335 14.9243 10.434 14.7221 10.9129 14.5497V15.1921C10.9129 16.6585 12.1128 17.8597 13.5817 17.8597H16.92C18.3851 17.8597 19.585 16.6572 19.585 15.1921V14.5162C20.0729 14.69 20.5312 14.8896 20.9561 15.1161L20.2107 18.6785C19.9133 20.1152 20.8428 21.5379 22.2796 21.8365L23.079 22.0039C21.5882 23.769 18.6387 24.974 15.2489 24.974Z" fill="#0671D5"/>
<path d="M26.747 11.8448C28.6817 11.8448 30.25 10.2764 30.25 8.34171C30.25 6.40701 28.6817 4.83862 26.747 4.83862C24.8123 4.83862 23.2439 6.40701 23.2439 8.34171C23.2439 10.2764 24.8123 11.8448 26.747 11.8448Z" fill="#0671D5"/>
<path d="M4.47184 11.7713C6.36693 11.3748 7.57714 9.51707 7.18573 7.62324C6.78662 5.73072 4.93272 4.51538 3.03633 4.91192C1.14381 5.30715 -0.0715353 7.16361 0.325005 9.05744C0.720291 10.9525 2.57676 12.1666 4.47184 11.7713Z" fill="#0671D5"/>
</g>
<defs>
<clipPath id="clip0_2457_19322">
<rect width="30" height="30" fill="white" transform="translate(0.25 0.233398)"/>
</clipPath>
</defs>
</svg>
