<svg width="140" height="129" viewBox="0 0 140 129" fill="none" xmlns="http://www.w3.org/2000/svg">
<path d="M17.2178 87.9402C17.4002 88.2012 18.5087 91.1085 17.9144 91.1573L17.787 91.3947C18.8499 91.9576 19.3594 93.0426 18.6439 95.0553L18.5402 95.854C20.3311 96.3258 21.4161 97.5098 20.4805 100.125L20.4098 100.537C20.7838 100.691 21.1096 100.943 21.3532 101.266C22.6111 103.016 20.5371 107.516 18.0968 106.638L17.5103 106.763L18.4128 110.995L18.8578 113.054C19.2855 115.05 20.0528 116.231 21.8454 117.221L33.3726 124.129L38.0897 126.959C38.8911 127.391 39.8114 127.549 40.7109 127.41L40.7031 127.308C38.8492 118.855 31.9889 87.4747 31.9889 87.4747L31.8065 87.3552L23.5278 81.4383L22.4193 80.6379C15.5102 75.2588 11.51 79.7904 12.5132 83.4683L13.0447 85.5533V85.5926H13.1233C14.7994 85.6036 16.32 86.6414 17.2178 87.9402Z" fill="#5DC3B6"/>
<path d="M40.7042 127.307L40.712 127.409C40.7254 127.413 40.7395 127.413 40.7529 127.409H40.7686C41.6633 127.169 42.4503 126.633 43.0014 125.888L44.2593 124.058L53.7126 110.249C54.917 108.601 55.1277 107.207 54.6796 105.218L48.0755 75.6912C47.4576 71.9285 41.9432 69.4881 37.9037 77.2636L32.1755 87.2861L31.9852 87.4842C31.9852 87.4842 38.8503 118.854 40.7042 127.307Z" fill="#FCD946"/>
<path d="M59.358 92.9876L59.2149 93.019C62.1694 106.605 65.0611 120.335 65.0611 120.335C65.0611 120.335 68.4197 106.447 71.6211 92.8367L71.1777 92.7973L67.992 84.2797L70.338 78.0608L70.4009 78.0058L65.3142 72.7383L59.8108 77.8391L60.1992 78.259L62.7732 83.9636L59.358 92.9876Z" fill="#C1CFDA"/>
<path d="M14.7854 109.837L22.4304 123.86V124.129H33.3711L21.8439 117.221C20.0529 116.231 19.2856 115.05 18.8563 113.054L18.4113 110.995C17.2644 110.69 16.1623 110.237 15.1329 109.647L14.7854 109.837Z" fill="#D3D3D1"/>
<path d="M99.9622 74.3451C94.8755 69.3543 76.8213 66.4155 76.8213 66.4155L76.5524 66.4076C76.5425 66.5895 76.5156 66.77 76.4722 66.9469L77.3606 67.0649C77.337 67.8888 76.0681 73.6485 74.3574 81.1032C73.5177 84.7402 72.5758 88.7718 71.6167 92.8365C68.4153 106.447 65.0566 120.335 65.0566 120.335C65.0566 120.335 62.165 106.604 59.2105 93.0189C58.2828 88.7561 57.3566 84.5106 56.5091 80.6991C54.9006 73.4897 53.586 67.8652 53.1583 66.7567L53.1174 66.3447C52.1363 66.502 43.0337 67.9517 35.9579 70.3528C29.5017 72.54 26.3805 75.8561 23.536 81.4366L31.8147 87.3535L31.9971 87.473L32.1873 87.2749L37.9156 77.2524C41.9472 69.4817 47.4694 71.922 48.0874 75.68L54.6914 105.206C55.1427 107.202 54.9289 108.597 53.7244 110.238L44.2649 124.039L44.3844 124.118H123.531V123.207C126.328 108.174 127.913 85.7056 127.913 85.7056L124.88 84.9194L112.37 81.6473L109.614 80.9256L108.647 85.5688C106.491 80.7227 103.432 77.7446 99.9622 74.3451ZM69.0096 119.684C68.8074 119.491 68.6891 119.227 68.6803 118.949C68.6714 118.67 68.7728 118.399 68.9625 118.194L69.5568 117.566L70.1433 116.937L70.6968 116.328L71.2519 115.718L71.7786 115.124L72.3006 114.521L73.307 113.333L74.2504 112.167L75.1451 111.035L75.9848 109.917L76.771 108.832L77.5069 107.771L78.1971 106.733L78.8261 105.735L79.4126 104.762L79.9582 103.818L80.4504 102.908L80.8938 102.027L81.2979 101.187L81.6533 100.387L81.9677 99.6198L82.2445 98.8902L82.4662 98.2093L82.6565 97.5678L82.8137 96.9734L82.9175 96.4262L82.9804 95.9671L82.9568 95.9121L82.8923 95.8004L82.798 95.6668L82.6706 95.5095L82.2901 95.1133L81.8309 94.7092L81.3089 94.2815L80.7538 93.8459L80.1988 93.4104L79.6689 92.9905L79.4157 92.7767L79.1689 92.5707L78.9472 92.3569L78.7412 92.143L78.5431 91.9197L78.4094 91.7216C78.269 91.504 78.2188 91.2403 78.2695 90.9863C78.3201 90.7323 78.4677 90.508 78.6808 90.3608C78.8939 90.2137 79.156 90.1553 79.4114 90.198C79.6669 90.2407 79.8957 90.3811 80.0494 90.5895L80.1202 90.7011L80.2066 90.8033L80.3419 90.9386L80.5086 91.088L80.6988 91.2625L80.9205 91.4449L81.4268 91.8411L81.9819 92.2767L82.5527 92.7201L83.1234 93.1918L83.6691 93.6745L84.1408 94.1573L84.3798 94.4356L84.5779 94.7123L84.7509 95.0126L84.8861 95.346L84.9804 95.7265V96.1385L84.894 96.7564L84.7666 97.398L84.6094 98.0867L84.4034 98.8006L84.1565 99.5522L83.864 100.338L83.5386 101.162L83.1596 102.026L82.7398 102.914L82.2791 103.84L81.7649 104.799L81.202 105.782L80.5998 106.795L79.9425 107.84L79.238 108.919L78.4849 110.02L77.6767 111.144L76.8213 112.293L75.9109 113.466L74.9439 114.653L73.9218 115.866L73.3825 116.495L72.8447 117.113L72.2739 117.742L71.711 118.371L71.1088 119L70.5223 119.629C70.4275 119.733 70.3127 119.817 70.1848 119.877C70.0569 119.936 69.9185 119.969 69.7775 119.974C69.6366 119.98 69.4961 119.956 69.3642 119.907C69.2324 119.857 69.1118 119.781 69.0096 119.684Z" fill="#D3D3D1"/>
<path d="M85.1561 35.5196L86.9863 35.5432C87.3131 35.5086 87.6428 35.5112 87.9691 35.5511L88.0634 34.8451C88.0634 34.8451 91.8372 24.332 90.0918 18.7626C87.3197 9.93046 78.8555 6.31394 72.7231 2.6251C65.8549 -1.48671 52.7915 2.72888 51.7537 9.71661C49.1781 8.81248 44.6308 10.572 42.3193 16.9496C39.9906 23.4059 43.3335 35.2649 43.3335 35.2649L43.8052 35.2964C44.8273 34.6674 46.0554 34.529 47.2205 35.3042L47.601 34.6076C51.6326 33.6485 50.175 16.7515 55.6815 17.9402L56.3231 18.1226C56.3231 18.1226 58.1062 18.4088 58.7068 18.3286C60.7918 18.0676 60.5135 17.9324 62.3233 17.0298V17.0062C68.1145 14.1067 75.9104 16.3411 78.6589 20.5316C82.1072 25.7739 82.2487 33.3953 85.1561 35.5196Z" fill="#515151"/>
<path d="M17.7855 91.3954L17.9128 91.158C18.5072 91.1092 17.3987 88.2019 17.2163 87.9408C16.32 86.642 14.7995 85.6043 13.128 85.5822H13.0494C8.94546 85.5256 6.75983 85.1467 5.42015 88.5698C4.91227 89.8529 6.5287 91.4378 6.5287 91.4378C6.5287 91.4378 5.49878 93.4662 5.85571 94.7021C6.52869 97.0859 8.33538 97.0859 8.33538 97.0859C8.33538 97.0859 6.95639 98.3784 8.10581 100.611C9.25523 102.844 10.8622 102.473 10.8622 102.473C10.8622 102.473 9.95965 104.138 10.521 105.382C11.0289 106.483 13.0007 107.179 13.0494 107.362C13.3262 108.313 14.1737 109.072 15.1328 109.643C16.1622 110.233 17.2644 110.686 18.4113 110.991L17.5087 106.759L18.0952 106.633C20.5356 107.512 22.6111 103.017 21.3517 101.262C21.108 100.939 20.7823 100.687 20.4082 100.533L20.479 100.121C21.4224 97.5057 20.3217 96.3264 18.5386 95.85L18.6424 95.0512C19.3626 93.0433 18.8484 91.9583 17.7855 91.3954Z" fill="white"/>
<path d="M70.3356 78.061L67.9896 84.2798L71.1753 92.7959L71.6187 92.8352C72.5778 88.7706 73.5197 84.739 74.3594 81.102L73.3059 81.0155L70.3985 78.0044L70.3356 78.061Z" fill="white"/>
<path d="M56.8048 80.6366L56.5123 80.6995C57.3599 84.511 58.286 88.7565 59.2137 93.0193L59.3568 92.9878L62.7783 83.9638L60.2043 78.2592L59.8159 77.8394L56.8048 80.6366Z" fill="white"/>
<path d="M65.5898 72.1362C65.5898 72.1362 55.1476 71.1456 53.9353 66.147L53.2072 66.3294C53.2072 66.3294 53.1758 66.3372 53.1192 66.3451L53.1601 66.7571C53.5878 67.8656 54.9023 73.4901 56.5108 80.6995L56.8033 80.6366L59.8144 77.8393L65.3178 72.7385L65.5898 72.1362Z" fill="white"/>
<path d="M65.5898 72.1362L65.3115 72.7384L70.3982 78.0059L73.3055 81.0171L74.359 81.1036C76.0698 73.6488 77.3387 67.8954 77.3623 67.0652L76.4739 66.9473C75.4927 70.9946 65.5898 72.1362 65.5898 72.1362Z" fill="white"/>
<path d="M53.8791 59.304L53.9342 66.1407C55.1465 71.1394 65.5888 72.13 65.5888 72.13C65.5888 72.13 75.4948 70.9884 76.4729 66.9411C76.5163 66.7642 76.5431 66.5836 76.5531 66.4018V66.3231L77.0908 59.9329L76.7197 59.5445C74.0655 61.9126 70.4993 63.5683 65.746 63.4095C60.7316 63.2444 57.1198 61.5226 54.5128 59.1719L53.8791 59.304Z" fill="white"/>
<path d="M60.2423 49.9766C60.2423 49.9766 60.9861 55.7205 66.208 55.7205C71.4299 55.7205 72.3545 49.9766 72.3545 49.9766C70.3735 50.3688 68.3609 50.5793 66.3417 50.6055C64.3121 50.5774 62.2892 50.3669 60.2974 49.9766H60.2423Z" fill="white"/>
<path d="M75.2048 38.18C75.1262 39.0275 74.3101 39.6455 73.3824 39.559C72.4546 39.4725 71.7754 38.7194 71.8461 37.8718C71.9169 37.0243 72.7408 36.4064 73.6685 36.4928C74.5963 36.5793 75.285 37.3325 75.2048 38.18ZM86.9851 35.5431L85.1549 35.5195C82.2475 33.3952 82.106 25.7707 78.6672 20.5299C75.9186 16.3394 68.1227 14.1051 62.3316 17.0046V17.0203C60.5249 17.9228 60.8032 18.0581 58.7151 18.3191C58.1144 18.3993 56.3313 18.1131 56.3313 18.1131L55.6898 17.9307C50.1864 16.7435 51.6409 33.6405 47.6093 34.5981L47.2287 35.2947C46.0636 34.5195 44.8356 34.6531 43.8135 35.2868C43.2162 35.6791 42.7086 36.1931 42.3238 36.7952C41.939 37.3973 41.6858 38.0739 41.5807 38.7807C40.9942 43.2258 43.8292 45.7134 47.6093 47.5201L48.2665 47.4399C48.9159 50.5611 50.5402 55.5849 54.5089 59.1652C57.116 61.5097 60.7277 63.2377 65.7421 63.4028C70.4954 63.5601 74.0616 61.9059 76.7158 59.5379C80.9928 55.7185 82.9189 50.0469 83.6784 47.0924L84.4646 46.9571C90.8029 46.9571 93.5279 36.1359 87.9663 35.5494C87.6405 35.5102 87.3114 35.5081 86.9851 35.5431ZM56.5263 38.18C56.4461 37.3325 57.1364 36.5809 58.0625 36.4928C58.9887 36.4048 59.8063 37.0243 59.8849 37.8718C59.9636 38.7194 59.2748 39.4725 58.3487 39.559C57.4226 39.6455 56.6033 39.0275 56.5263 38.18ZM60.2419 49.973H60.3C62.2919 50.3633 64.3148 50.5738 66.3443 50.602C68.3636 50.5757 70.3762 50.3652 72.3572 49.973C72.3572 49.973 71.431 55.717 66.2107 55.717C60.9903 55.717 60.2403 49.9761 60.2403 49.9761L60.2419 49.973Z" fill="white"/>
<path d="M130.615 65.8217C130.734 65.5764 133.214 60.617 134.388 58.7239C136.258 55.7049 137.129 51.1654 135.489 50.7613C132.816 50.0961 132.439 54.6922 131.005 57.0839C129.619 59.3811 127.13 62.3671 126.934 62.5982C127.036 62.2099 128.723 56.0461 128.929 55.0004C129.215 53.5743 131.338 46.9042 128.556 46.5095C126.228 46.184 126.198 51.461 125.412 54.8039C124.625 58.1468 122.581 61.0463 122.581 61.0463C122.581 61.0463 121.503 56.7835 119.143 56.3165C116.053 55.7064 115.348 56.002 113.985 57.2128C112.804 58.2506 111.172 61.301 112.702 62.0683C115.521 63.4835 114.936 61.0384 117.185 61.3482C119.278 61.6328 119.427 63.6848 119.143 64.8971C118.746 66.5607 117.059 67.5985 115.526 67.0355C113.531 66.2981 115.369 63.0197 112.707 63.0197C110.884 63.0197 110.211 67.3532 111.098 71.3691C111.526 73.3094 112.873 75.9164 113.831 77.6193L113.792 77.6429L112.509 81.1022L112.373 81.6337L124.883 84.9058L124.986 84.5017L126.269 81.5613V81.2469C131.03 79.1949 132.797 72.4839 134.398 69.9571C135.387 68.3847 140.307 60.4975 138.683 59.5557C136.227 58.1405 135.34 61.3057 134.453 63.0149C133.587 64.6738 130.789 65.7588 130.615 65.8217Z" fill="white"/>
<path d="M59.8836 37.8724C59.805 37.0249 58.9889 36.4069 58.0612 36.4934C57.1335 36.5799 56.4448 37.3331 56.525 38.1806C56.6052 39.0281 57.4197 39.6461 58.3474 39.5596C59.2751 39.4731 59.9544 38.7199 59.8836 37.8724Z" fill="#343434"/>
<path d="M73.3834 39.5594C74.3111 39.6459 75.1272 39.0279 75.2058 38.1804C75.2844 37.3329 74.5957 36.5813 73.6696 36.4932C72.7434 36.4051 71.9258 37.0247 71.8472 37.8722C71.7685 38.7197 72.4572 39.4729 73.3834 39.5594Z" fill="#343434"/>
<path d="M82.9814 95.9351L82.9736 95.9665L82.9814 95.9744V95.9351Z" fill="#343434"/>
<path d="M84.9648 95.7282L84.8705 95.3477L84.7353 95.0143L84.5623 94.714L84.3642 94.4373L84.1252 94.159L83.6535 93.6762L83.1079 93.1935L82.5371 92.7218L81.9663 92.2784L81.4112 91.8428L80.9049 91.4466L80.6832 91.2642L80.493 91.0897L80.3263 90.9403L80.1911 90.805L80.1046 90.7028L80.0338 90.5912C79.8801 90.3828 79.6513 90.2423 79.3958 90.1997C79.1404 90.157 78.8783 90.2154 78.6652 90.3625C78.4521 90.5097 78.3046 90.734 78.2539 90.988C78.2032 91.2419 78.2534 91.5057 78.3938 91.7233L78.5275 91.9214L78.7256 92.1447L78.9316 92.3586L79.1533 92.5724L79.4001 92.7784L79.6533 92.9922L80.1832 93.4121L80.7382 93.8476L81.2933 94.2832L81.8153 94.7109L82.2745 95.115L82.655 95.5112L82.7824 95.6685L82.8767 95.8021L82.9412 95.9138L82.9648 95.9688V95.9373V95.9767V95.9688L82.9019 96.4279L82.7981 96.9751L82.6408 97.5695L82.4506 98.211L82.2289 98.8919L81.9521 99.6215L81.6377 100.389L81.2823 101.189L80.8782 102.029L80.4348 102.909L79.9426 103.82L79.397 104.763L78.8105 105.737L78.1815 106.735L77.4913 107.773L76.7554 108.834L75.9692 109.919L75.1295 111.037L74.2348 112.169L73.2914 113.334L72.2851 114.523L71.7788 115.124L71.2552 115.726L70.7001 116.336L70.1466 116.945L69.5601 117.574L68.9657 118.202C68.7778 118.407 68.6781 118.677 68.6883 118.954C68.6985 119.232 68.8177 119.494 69.0201 119.684C69.2225 119.874 69.4917 119.976 69.7692 119.969C70.0466 119.961 70.31 119.845 70.502 119.644L71.0885 119.015L71.6907 118.386L72.2536 117.757L72.8244 117.129L73.3621 116.511L73.9015 115.882L74.9235 114.669L75.8906 113.482L76.801 112.309L77.6564 111.16L78.4646 110.035L79.2178 108.935L79.9222 107.856L80.5794 106.81L81.1817 105.798L81.7446 104.815L82.2588 103.856L82.7195 102.93L83.1393 102.041L83.5182 101.178L83.8437 100.354L84.1362 99.568L84.3831 98.8164L84.589 98.1025L84.7463 97.4138L84.8737 96.7723L84.9601 96.1543L84.9648 95.7282Z" fill="#343434"/>
<path d="M66.3405 51.5992C68.4293 51.5732 70.5112 51.3532 72.5593 50.9419C72.69 50.9186 72.8147 50.8692 72.926 50.7968C73.0372 50.7243 73.1328 50.6302 73.207 50.5201C73.2811 50.41 73.3324 50.2861 73.3578 50.1557C73.3831 50.0254 73.382 49.8913 73.3545 49.7614C73.327 49.6315 73.2736 49.5084 73.1976 49.3996C73.1216 49.2907 73.0244 49.1982 72.912 49.1276C72.7995 49.0571 72.674 49.0098 72.5429 48.9887C72.4118 48.9676 72.2778 48.973 72.1489 49.0047C70.2351 49.3834 68.2911 49.5887 66.3405 49.6179C63.474 49.6179 60.5226 49.011 60.499 49.0047C60.3705 48.9749 60.2374 48.9711 60.1074 48.9934C59.9774 49.0157 59.8532 49.0638 59.742 49.1348C59.6308 49.2058 59.535 49.2982 59.46 49.4068C59.3851 49.5153 59.3325 49.6377 59.3055 49.7668C59.2785 49.8959 59.2776 50.0291 59.3027 50.1586C59.3279 50.2881 59.3786 50.4112 59.452 50.5208C59.5254 50.6304 59.6199 50.7243 59.73 50.7968C59.8402 50.8694 59.9637 50.9193 60.0933 50.9435C62.1515 51.3511 64.2425 51.5706 66.3405 51.5992Z" fill="#343434"/>
<path d="M66.209 56.7113C71.0063 56.7113 72.9703 52.4092 73.3351 50.1355C73.3566 50.0067 73.3525 49.8749 73.3229 49.7476C73.2933 49.6204 73.2388 49.5003 73.1626 49.3942C73.0864 49.2881 72.99 49.1981 72.8789 49.1295C72.7678 49.0608 72.6442 49.0147 72.5153 48.994C72.3863 48.9733 72.2545 48.9782 72.1275 49.0086C72.0005 49.039 71.8807 49.0943 71.7751 49.1711C71.6695 49.248 71.5801 49.345 71.5121 49.4565C71.4442 49.5681 71.3989 49.6919 71.379 49.821C71.346 50.0191 70.5079 54.7316 66.209 54.7316C61.91 54.7316 61.2512 50.0506 61.2245 49.8572C61.2078 49.7283 61.166 49.604 61.1013 49.4913C61.0367 49.3787 60.9505 49.2798 60.8476 49.2005C60.7447 49.1211 60.6272 49.0628 60.5018 49.0288C60.3764 48.9949 60.2456 48.986 60.1167 49.0026C59.9879 49.0192 59.8635 49.0611 59.7509 49.1257C59.6382 49.1904 59.5394 49.2766 59.46 49.3795C59.3806 49.4823 59.3223 49.5998 59.2884 49.7252C59.2544 49.8506 59.2455 49.9815 59.2621 50.1103C59.5577 52.3856 61.3912 56.7113 66.209 56.7113Z" fill="#343434"/>
<path d="M18.7249 107.734C19.7328 107.734 20.7266 107.18 21.5049 106.149C22.6591 104.621 23.2173 102.157 22.1559 100.682C21.8095 100.214 21.3434 99.8486 20.8068 99.6235C19.1935 98.9254 16.9214 99.2178 15.8301 99.3578C15.6729 99.3798 15.4528 99.3908 15.2012 99.4065C13.9071 99.4836 12.9464 99.5763 12.3866 100.079C12.1953 100.252 12.0786 100.492 12.0613 100.749C12.044 101.006 12.1274 101.259 12.2938 101.456C12.4602 101.652 12.6966 101.776 12.9528 101.801C13.2091 101.827 13.465 101.751 13.6665 101.591C13.948 101.465 14.9056 101.408 15.3191 101.383C15.6336 101.364 15.9056 101.347 16.0912 101.322C16.9293 101.215 18.9073 100.958 20.0221 101.44C20.2343 101.525 20.42 101.665 20.5599 101.845C20.9451 102.38 20.758 103.861 19.9309 104.956C19.6479 105.333 19.074 105.93 18.4387 105.699C18.1925 105.613 17.9222 105.628 17.6867 105.74C17.4512 105.852 17.2694 106.053 17.1808 106.298C17.0922 106.543 17.1039 106.814 17.2134 107.051C17.3229 107.287 17.5214 107.471 17.7658 107.563C18.0732 107.674 18.3977 107.732 18.7249 107.734Z" fill="#343434"/>
<path d="M16.0896 106.748H16.1745C17.3805 106.644 18.184 106.378 19.2438 105.929C19.4857 105.826 19.6767 105.631 19.7749 105.387C19.8731 105.143 19.8704 104.87 19.7674 104.628C19.6644 104.386 19.4695 104.195 19.2257 104.097C18.9818 103.999 18.7089 104.002 18.467 104.105C17.5566 104.493 16.956 104.691 16.0047 104.774C15.7524 104.799 15.5191 104.919 15.3529 105.111C15.1866 105.302 15.1001 105.55 15.1109 105.803C15.1218 106.056 15.2293 106.296 15.4114 106.472C15.5934 106.648 15.8362 106.748 16.0896 106.751V106.748Z" fill="#343434"/>
<path d="M20.479 101.115C20.6833 101.116 20.8826 101.052 21.0496 100.935C21.2165 100.817 21.343 100.651 21.4115 100.458C21.9382 98.9879 21.9445 97.7458 21.4319 96.7693C20.9602 95.8667 20.0687 95.2362 18.7934 94.8981C16.7383 94.3431 13.9819 94.6198 11.9693 94.8211C11.6548 94.8541 11.3481 94.884 11.0761 94.9076C10.814 94.9297 10.5715 95.055 10.4017 95.256C10.232 95.4569 10.1491 95.7171 10.1712 95.9792C10.1933 96.2413 10.3186 96.4839 10.5196 96.6536C10.7206 96.8233 10.9807 96.9062 11.2428 96.8841C11.5211 96.8589 11.8293 96.829 12.1595 96.796C14.0181 96.6089 16.5622 96.3542 18.273 96.8133C18.9947 97.0052 19.4633 97.3008 19.6708 97.6939C19.9759 98.2741 19.7668 99.1578 19.5403 99.7946C19.4539 100.041 19.4683 100.311 19.5802 100.547C19.6921 100.782 19.8925 100.964 20.1378 101.053C20.247 101.093 20.3625 101.114 20.479 101.115Z" fill="#343434"/>
<path d="M18.6344 96.0446C18.8385 96.0448 19.0377 95.982 19.2046 95.8646C19.3716 95.7472 19.4981 95.581 19.5669 95.3889C20.6676 92.3416 19.2068 91.0302 18.2429 90.5145C16.4504 89.5584 13.683 89.8651 11.8512 90.0679C11.414 90.1166 11.0036 90.1622 10.8086 90.1622C10.5459 90.1622 10.2939 90.2666 10.1082 90.4524C9.92239 90.6382 9.81802 90.8901 9.81802 91.1528C9.81802 91.4156 9.92239 91.6675 10.1082 91.8533C10.2939 92.0391 10.5459 92.1435 10.8086 92.1435C11.1121 92.1435 11.5351 92.0963 12.0666 92.0365C13.5588 91.8714 16.0557 91.5931 17.3105 92.263C17.658 92.4469 18.3766 92.8275 17.6989 94.7159C17.613 94.9622 17.6277 95.2325 17.7399 95.468C17.8521 95.7035 18.0526 95.8853 18.298 95.9738C18.4049 96.0176 18.5189 96.0415 18.6344 96.0446Z" fill="#343434"/>
<path d="M18.6043 112.039C18.8469 112.039 19.0809 111.949 19.2619 111.787C19.4429 111.626 19.5583 111.403 19.5862 111.162C19.6141 110.921 19.5526 110.679 19.4134 110.48C19.2741 110.281 19.0668 110.141 18.8307 110.085C18.8307 110.085 18.7788 110.072 18.7065 110.048C17.635 109.763 16.605 109.34 15.6419 108.791C14.7362 108.251 14.1686 107.662 14.0003 107.081C13.8855 106.635 13.5286 106.452 13.0396 106.182C12.5836 105.94 11.6386 105.435 11.4232 104.966C11.1354 104.33 11.5631 103.264 11.7376 102.94C11.8269 102.771 11.8659 102.581 11.85 102.391C11.8341 102.201 11.764 102.02 11.648 101.869C11.532 101.718 11.3751 101.603 11.1958 101.539C11.0166 101.474 10.8226 101.463 10.637 101.506C10.5772 101.515 9.73127 101.605 8.9891 100.156C8.22806 98.6769 8.94507 97.8781 9.02841 97.7979C9.16626 97.6578 9.26 97.4803 9.29801 97.2875C9.33602 97.0946 9.31665 96.8949 9.24227 96.7129C9.16846 96.5332 9.04336 96.3792 8.88257 96.2702C8.72178 96.1611 8.53242 96.1018 8.33814 96.0997C8.24852 96.0997 7.25162 95.9991 6.81135 94.4345C6.64153 93.848 7.07077 92.5697 7.41513 91.8888C7.50954 91.701 7.54198 91.4882 7.5078 91.2808C7.47361 91.0734 7.37456 90.8822 7.22487 90.7347C6.75316 90.2708 6.17454 89.3636 6.34436 88.9374C7.27836 86.5631 8.36329 86.4829 11.9877 86.5568C12.3242 86.5568 12.6732 86.5725 13.038 86.5757H13.1308C14.5727 86.5898 15.7693 87.5804 16.403 88.5003C16.7004 89.1815 16.928 89.8912 17.0822 90.6183C16.9641 90.8012 16.9089 91.0176 16.925 91.2347C16.9349 91.3647 16.9704 91.4914 17.0296 91.6075C17.0887 91.7237 17.1702 91.827 17.2695 91.9115C17.3688 91.996 17.4838 92.06 17.6079 92.0998C17.732 92.1397 17.8628 92.1545 17.9926 92.1435C18.1946 92.1257 18.3882 92.0548 18.5539 91.938C18.7196 91.8212 18.8514 91.6626 18.9361 91.4784C19.4691 90.3447 18.1247 87.5191 18.0225 87.3713C16.8558 85.6794 14.9815 84.6133 13.1324 84.596H13.0443C12.6968 84.596 12.3525 84.5835 12.0222 84.5772C8.51109 84.5033 5.97327 84.4482 4.49365 88.211C3.97004 89.5349 4.78139 90.8841 5.35689 91.6152C5.01882 92.4407 4.57067 93.8512 4.89772 94.9786C5.32384 96.4834 6.13209 97.2586 6.85853 97.6516C6.57236 98.4599 6.47798 99.6219 7.22015 101.062C7.90572 102.402 8.76267 103.015 9.4954 103.286C9.31143 104.01 9.22967 104.937 9.61333 105.787C10.1086 106.869 11.3556 107.534 12.1009 107.932L12.2204 107.996C12.6166 108.94 13.4201 109.778 14.6214 110.492C15.7318 111.13 16.9213 111.619 18.1593 111.946C18.2867 111.987 18.3842 112.009 18.3842 112.009C18.4562 112.027 18.53 112.037 18.6043 112.039ZM12.0914 107.614C12.0978 107.64 12.1057 107.665 12.115 107.69C12.1053 107.665 12.0974 107.64 12.0914 107.614Z" fill="#343434"/>
<path d="M66.3738 64.4059C70.6082 64.4059 74.3081 63.0191 77.3805 60.2784C81.8241 56.3097 83.8384 50.4682 84.6434 47.3392C84.9579 46.1001 85.079 45.3139 85.0837 45.2809C85.1031 45.1523 85.0969 45.0212 85.0655 44.895C85.034 44.7688 84.978 44.6501 84.9006 44.5456C84.8231 44.4412 84.7258 44.353 84.6142 44.2863C84.5027 44.2195 84.379 44.1755 84.2503 44.1566C83.9909 44.1209 83.7279 44.1883 83.5176 44.3445C83.3074 44.5006 83.1668 44.7329 83.1261 44.9916C83.1261 44.9916 83.016 45.7164 82.7251 46.847C81.9766 49.7575 80.1149 55.1807 76.0613 58.7972C73.231 61.3288 69.7607 62.5332 65.781 62.4137C61.5261 62.2722 57.9599 60.9309 55.1768 58.4293C51.315 54.9433 49.8007 49.921 49.241 47.2385C49.0474 46.3438 48.914 45.4371 48.8416 44.5246C48.8247 44.264 48.7055 44.0206 48.5101 43.8474C48.3147 43.6742 48.0588 43.5852 47.798 43.5997C47.5373 43.6142 47.2928 43.7311 47.1178 43.9249C46.9428 44.1187 46.8514 44.3738 46.8635 44.6346C46.942 45.6455 47.0885 46.6499 47.3022 47.6411C48.0459 51.2088 49.785 56.2311 53.8512 59.9057C56.996 62.7361 60.982 64.2424 65.7165 64.3997C65.9351 64.4028 66.1552 64.4059 66.3738 64.4059Z" fill="#343434"/>
<path d="M84.4674 47.95C88.6908 47.95 91.7491 43.7486 91.9567 39.8254C92.1139 36.8961 90.5856 34.8315 88.0729 34.5658C87.6833 34.5212 87.2901 34.518 86.8999 34.5563C86.2532 34.6217 85.6154 34.7561 84.9973 34.9573C84.8734 34.9971 84.7585 35.0608 84.6593 35.145C84.56 35.2291 84.4783 35.332 84.4188 35.4477C84.3593 35.5634 84.3232 35.6897 84.3125 35.8194C84.3018 35.949 84.3168 36.0795 84.3565 36.2034C84.3963 36.3273 84.46 36.4422 84.5442 36.5414C84.6283 36.6407 84.7312 36.7224 84.8469 36.7819C84.9626 36.8414 85.0889 36.8775 85.2186 36.8882C85.3483 36.8989 85.4788 36.8839 85.6027 36.8442C86.0828 36.6872 86.5783 36.5818 87.0807 36.5297C87.3332 36.5034 87.5877 36.5034 87.8402 36.5297C89.8387 36.7404 90.0415 38.6178 89.9771 39.7185C89.8434 42.2721 87.804 45.9657 84.4737 45.9657C84.211 45.9657 83.959 46.07 83.7732 46.2558C83.5875 46.4416 83.4831 46.6935 83.4831 46.9563C83.4831 47.219 83.5875 47.471 83.7732 47.6567C83.959 47.8425 84.211 47.9469 84.4737 47.9469L84.4674 47.95Z" fill="#343434"/>
<path d="M47.6131 48.5109C47.8388 48.5122 48.0581 48.4364 48.2349 48.2961C48.4116 48.1558 48.5351 47.9594 48.585 47.7393C48.6349 47.5192 48.6082 47.2887 48.5092 47.0859C48.4102 46.883 48.245 46.7201 48.0408 46.624C43.7608 44.5799 42.1239 42.2716 42.5673 38.9083C42.6538 38.3462 42.8567 37.8083 43.1629 37.3291C43.4692 36.8499 43.872 36.4398 44.3457 36.1251C45.1508 35.6251 45.9401 35.6219 46.6854 36.1251C46.831 36.2256 46.9682 36.3376 47.0958 36.46C47.1899 36.55 47.3007 36.6205 47.422 36.6676C47.5433 36.7147 47.6727 36.7374 47.8028 36.7345C47.9329 36.7315 48.0612 36.703 48.1802 36.6505C48.2993 36.5981 48.4069 36.5226 48.4968 36.4286C48.5867 36.3345 48.6573 36.2237 48.7043 36.1024C48.7514 35.9811 48.7742 35.8517 48.7712 35.7216C48.7683 35.5915 48.7398 35.4632 48.6873 35.3442C48.6348 35.2251 48.5594 35.1175 48.4654 35.0276C48.258 34.8315 48.0362 34.6512 47.8018 34.4882C46.3961 33.5448 44.7624 33.5448 43.2985 34.4505C42.5772 34.921 41.964 35.5392 41.4994 36.2643C41.0348 36.9894 40.7294 37.8048 40.6034 38.6567C39.8691 44.234 44.0092 46.8992 47.187 48.4181C47.3203 48.4806 47.4659 48.5123 47.6131 48.5109Z" fill="#343434"/>
<path d="M47.6098 35.5907C47.6871 35.5912 47.7642 35.5822 47.8394 35.564C50.2782 34.9838 50.9968 31.2384 51.8286 26.9017C52.4575 23.65 53.1588 19.9627 54.5378 19.0507C54.6749 18.9592 54.8299 18.8978 54.9926 18.8707C55.1552 18.8436 55.3218 18.8513 55.4812 18.8935C55.7344 18.9401 55.9959 18.8864 56.2101 18.7436C56.4244 18.6008 56.5746 18.3802 56.629 18.1285C56.6834 17.8768 56.6377 17.6139 56.5015 17.3953C56.3653 17.1768 56.1494 17.0199 55.8995 16.9579C55.4822 16.8568 55.0485 16.8434 54.6258 16.9183C54.2031 16.9933 53.8005 17.1551 53.4434 17.3934C51.3694 18.7645 50.6461 22.5336 49.8819 26.5227C49.3284 29.4034 48.5737 33.3469 47.3802 33.6315C47.1455 33.6889 46.9398 33.83 46.8019 34.0284C46.664 34.2268 46.6033 34.4687 46.6313 34.7087C46.6593 34.9487 46.7741 35.1702 46.954 35.3315C47.134 35.4928 47.3666 35.5827 47.6083 35.5845L47.6098 35.5907Z" fill="#343434"/>
<path d="M43.3431 36.2477C43.434 36.2474 43.5245 36.2347 43.612 36.21C43.7372 36.1748 43.8542 36.1153 43.9564 36.0348C44.0586 35.9543 44.1439 35.8545 44.2074 35.741C44.2709 35.6275 44.3115 35.5026 44.3267 35.3734C44.3419 35.2443 44.3314 35.1134 44.296 34.9882C44.2645 34.8719 41.0663 23.3525 43.2613 17.2768C45.34 11.5328 49.3654 9.92424 51.4283 10.6507L51.5101 10.6758C51.753 10.7629 52.0201 10.7532 52.2561 10.6487C52.492 10.5442 52.6787 10.3529 52.7775 10.1145C52.8268 9.99629 52.8523 9.86953 52.8525 9.74145C52.8528 9.61338 52.8279 9.4865 52.7791 9.36808C52.7303 9.24965 52.6587 9.142 52.5683 9.05127C52.4779 8.96054 52.3705 8.8885 52.2523 8.83929C52.183 8.81099 52.1121 8.78684 52.04 8.76696C49.1326 7.78421 43.9485 9.55316 41.3981 16.6038C38.9876 23.2833 42.2503 35.0291 42.3902 35.526C42.4486 35.7338 42.5733 35.9168 42.7453 36.0471C42.9173 36.1774 43.1273 36.2479 43.3431 36.2477Z" fill="#343434"/>
<path d="M66.5281 46.3631C67.0426 46.3695 67.5522 46.2621 68.0203 46.0486C68.1143 46.004 68.1985 45.9413 68.2683 45.8641C68.338 45.787 68.3919 45.6968 68.4267 45.5989C68.4616 45.5009 68.4769 45.397 68.4716 45.2931C68.4664 45.1893 68.4407 45.0874 68.3961 44.9935C68.3515 44.8995 68.2889 44.8153 68.2117 44.7456C68.1345 44.6758 68.0444 44.622 67.9464 44.5871C67.8485 44.5522 67.7446 44.5369 67.6407 44.5422C67.5368 44.5474 67.435 44.5731 67.3411 44.6177C66.8206 44.8661 66.0045 44.8205 65.3583 44.5155C65.2643 44.4709 65.1625 44.4452 65.0586 44.44C64.9548 44.4347 64.8509 44.45 64.7529 44.4849C64.6549 44.5198 64.5648 44.5736 64.4876 44.6434C64.4105 44.7131 64.3478 44.7973 64.3032 44.8913C64.2586 44.9852 64.2329 45.0871 64.2277 45.1909C64.2224 45.2948 64.2377 45.3987 64.2726 45.4967C64.3075 45.5946 64.3613 45.6848 64.4311 45.7619C64.5008 45.8391 64.585 45.9018 64.679 45.9464C65.2574 46.219 65.8887 46.3612 66.5281 46.3631Z" fill="#343434"/>
<path d="M66.3546 60.0995C66.869 60.1052 67.3784 59.9979 67.8468 59.785C68.0367 59.6949 68.1831 59.5331 68.2537 59.3351C68.3244 59.1371 68.3134 58.9191 68.2234 58.7291C68.1333 58.5392 67.9714 58.3928 67.7734 58.3222C67.5754 58.2516 67.3575 58.2625 67.1675 58.3526C66.647 58.601 65.831 58.557 65.1847 58.2503C65.0908 58.2057 64.9889 58.1801 64.8851 58.1748C64.7812 58.1696 64.6773 58.1848 64.5793 58.2197C64.4814 58.2546 64.3912 58.3085 64.3141 58.3782C64.2369 58.448 64.1742 58.5322 64.1296 58.6262C64.085 58.7201 64.0594 58.8219 64.0541 58.9258C64.0489 59.0297 64.0641 59.1336 64.099 59.2315C64.1339 59.3295 64.1878 59.4196 64.2575 59.4968C64.3272 59.574 64.4115 59.6366 64.5054 59.6812C65.0838 59.9542 65.715 60.097 66.3546 60.0995Z" fill="#343434"/>
<path d="M56.5112 32.1437C56.6667 32.1439 56.8189 32.098 56.9483 32.0117C56.9687 31.9991 58.2943 31.1657 59.2361 31.6626C59.4217 31.7612 59.6389 31.7821 59.8398 31.7206C60.0408 31.6591 60.2091 31.5203 60.3077 31.3347C60.4063 31.1492 60.4272 30.932 60.3657 30.731C60.3042 30.5301 60.1654 30.3618 59.9799 30.2632C58.1795 29.3087 56.1558 30.6358 56.0709 30.694C55.9258 30.7861 55.8149 30.9232 55.7551 31.0843C55.6953 31.2455 55.69 31.4218 55.7399 31.5862C55.7899 31.7507 55.8923 31.8942 56.0316 31.9949C56.1709 32.0956 56.3393 32.1479 56.5112 32.1437Z" fill="#343434"/>
<path d="M75.7752 32.1425C75.9468 32.1468 76.1151 32.0948 76.2544 31.9944C76.3937 31.8941 76.4963 31.7509 76.5466 31.5867C76.5969 31.4226 76.592 31.2465 76.5328 31.0853C76.4736 30.9242 76.3632 30.7869 76.2186 30.6943C76.1337 30.6362 74.1069 29.3091 72.3159 30.2651C72.1306 30.3639 71.992 30.5323 71.9309 30.7333C71.8697 30.9343 71.8908 31.1513 71.9897 31.3367C72.0885 31.522 72.2569 31.6605 72.4579 31.7217C72.6588 31.7829 72.8759 31.7618 73.0612 31.6629C74.0047 31.1661 75.3271 32.0041 75.3396 32.012C75.4688 32.0975 75.6203 32.1429 75.7752 32.1425Z" fill="#343434"/>
<path d="M85.1558 36.5042C85.3646 36.504 85.5679 36.4378 85.7368 36.3152C85.9058 36.1926 86.0316 36.0197 86.0965 35.8213C86.1613 35.6229 86.1619 35.4091 86.098 35.2104C86.0341 35.0117 85.9091 34.8382 85.7408 34.7148C84.4923 33.8028 83.7423 31.2382 82.9466 28.5227C82.1369 25.7505 81.217 22.6073 79.4968 19.9814C75.9684 14.6038 67.1331 13.4906 61.886 16.1149C61.7696 16.1731 61.6659 16.2537 61.5807 16.352C61.4955 16.4504 61.4304 16.5645 61.3893 16.688C61.3482 16.8114 61.3319 16.9417 61.3411 17.0715C61.3504 17.2013 61.3851 17.328 61.4434 17.4444C61.5016 17.5607 61.5822 17.6645 61.6805 17.7497C61.7788 17.8349 61.893 17.8999 62.0164 17.941C62.1399 17.9821 62.2702 17.9985 62.4 17.9892C62.5298 17.98 62.6565 17.9452 62.7728 17.887C68.1834 15.1762 75.4385 17.4153 77.8379 21.0679C79.3993 23.4533 80.2704 26.4408 81.0472 29.0824C81.9765 32.2634 82.7768 35.0104 84.5725 36.3155C84.7419 36.439 84.9462 36.5051 85.1558 36.5042Z" fill="#343434"/>
<path d="M60.6543 17.5364C60.917 17.5364 61.169 17.432 61.3547 17.2462C61.5405 17.0605 61.6449 16.8085 61.6449 16.5458C61.6449 15.7753 63.1339 14.7627 64.0129 14.7627C64.1462 14.768 64.2792 14.7463 64.4039 14.699C64.5287 14.6516 64.6425 14.5796 64.7387 14.4871C64.8349 14.3947 64.9115 14.2838 64.9637 14.161C65.016 14.0383 65.043 13.9062 65.043 13.7728C65.043 13.6394 65.016 13.5074 64.9637 13.3846C64.9115 13.2619 64.8349 13.151 64.7387 13.0586C64.6425 12.9661 64.5287 12.8941 64.4039 12.8467C64.2792 12.7994 64.1462 12.7777 64.0129 12.783C62.3021 12.783 59.6636 14.3994 59.6636 16.5458C59.6636 16.8085 59.768 17.0605 59.9538 17.2462C60.1396 17.432 60.3915 17.5364 60.6543 17.5364Z" fill="#343434"/>
<path d="M58.1648 18.7231C58.2568 18.7237 58.3484 18.711 58.4368 18.6854C58.6895 18.6136 58.9033 18.4444 59.0313 18.215C59.1593 17.9856 59.1909 17.7148 59.1192 17.462C58.6727 15.8897 59.0029 14.3613 60.1004 12.9021C62.3127 9.98059 66.7485 8.35787 68.9797 8.35787C69.113 8.36319 69.246 8.34152 69.3707 8.29417C69.4955 8.24682 69.6093 8.17477 69.7055 8.08233C69.8017 7.9899 69.8783 7.87898 69.9305 7.75624C69.9828 7.6335 70.0098 7.50146 70.0098 7.36805C70.0098 7.23464 69.9828 7.1026 69.9305 6.97986C69.8783 6.85712 69.8017 6.74621 69.7055 6.65377C69.6093 6.56133 69.4955 6.48928 69.3707 6.44193C69.246 6.39458 69.113 6.37291 68.9797 6.37823C65.8742 6.37823 60.9306 8.5214 58.5201 11.7102C57.0484 13.6584 56.5971 15.833 57.2135 17.9998C57.2714 18.2076 57.3958 18.3908 57.5675 18.5214C57.7393 18.652 57.949 18.7228 58.1648 18.7231Z" fill="#343434"/>
<path d="M88.0647 35.8358C88.2687 35.8356 88.4677 35.7726 88.6345 35.6553C88.8013 35.5379 88.928 35.372 88.9972 35.1802C89.1544 34.7383 92.8668 24.2882 91.0413 18.4672C88.5459 10.5171 81.8538 6.7072 75.9463 3.34542C75.0123 2.81395 74.1034 2.29663 73.2402 1.77302C68.5623 -1.02742 61.985 -0.156309 57.5398 1.94598C53.6922 3.76682 51.2282 6.54367 50.7785 9.56582C50.7718 9.61427 50.7681 9.66312 50.7675 9.71205C50.7647 9.9674 50.8606 10.214 51.0352 10.4003C51.2098 10.5867 51.4496 10.6984 51.7046 10.7122C51.9596 10.726 52.21 10.6408 52.4037 10.4744C52.5974 10.3079 52.7193 10.0731 52.744 9.81897C53.1104 7.4761 55.1639 5.25902 58.3858 3.73694C63.081 1.51358 68.7636 1.40508 72.2228 3.47121C73.0971 3.99639 74.0201 4.52314 74.9683 5.06247C80.5566 8.24186 86.8886 11.8474 89.1528 19.0568C90.7818 24.2457 87.1732 34.405 87.137 34.5072C87.0833 34.6567 87.0663 34.817 87.0876 34.9745C87.1088 35.132 87.1676 35.2821 87.2591 35.412C87.3505 35.542 87.4719 35.6481 87.6129 35.7213C87.7539 35.7945 87.9105 35.8327 88.0694 35.8327L88.0647 35.8358Z" fill="#343434"/>
<path d="M53.9372 67.1358C54.1996 67.1337 54.4505 67.0275 54.6348 66.8406C54.819 66.6537 54.9216 66.4013 54.9199 66.1389L54.8649 59.3021C54.8628 59.0407 54.7575 58.7908 54.5719 58.6067C54.3864 58.4226 54.1356 58.3193 53.8743 58.3193H53.8664C53.6039 58.3214 53.353 58.4276 53.1688 58.6145C52.9845 58.8014 52.882 59.0538 52.8836 59.3162L52.9403 66.1546C52.9413 66.2845 52.9679 66.4129 53.0185 66.5325C53.0692 66.6521 53.1429 66.7605 53.2355 66.8516C53.3281 66.9428 53.4377 67.0147 53.5581 67.0635C53.6785 67.1122 53.8073 67.1368 53.9372 67.1358Z" fill="#343434"/>
<path d="M76.5534 67.323C76.8017 67.3234 77.041 67.2302 77.2237 67.0621C77.4065 66.894 77.5191 66.6632 77.5393 66.4157L78.0786 60.0145C78.1004 59.7528 78.0174 59.4932 77.8478 59.2927C77.6783 59.0922 77.4361 58.9672 77.1745 58.9452C77.0445 58.9323 76.9133 58.9456 76.7886 58.9844C76.6638 59.0231 76.5482 59.0866 76.4484 59.1709C76.3487 59.2552 76.2669 59.3587 76.208 59.4753C76.149 59.5918 76.1141 59.719 76.1053 59.8494L75.5675 66.2506C75.5563 66.3801 75.5708 66.5106 75.6101 66.6345C75.6494 66.7584 75.7129 66.8733 75.7967 66.9726C75.8806 67.072 75.9832 67.1538 76.0988 67.2134C76.2143 67.2729 76.3405 67.3091 76.47 67.3198C76.4977 67.3224 76.5256 67.3234 76.5534 67.323Z" fill="#343434"/>
<path d="M81.9861 89.1529C82.1639 89.1533 82.3385 89.1057 82.4915 89.0152C82.6445 88.9247 82.7703 88.7947 82.8557 88.6387L85.686 83.4656C85.7552 83.339 85.796 83.1989 85.8055 83.055C85.815 82.911 85.793 82.7667 85.741 82.6322L81.6858 72.1207C81.5854 71.8841 81.397 71.6958 81.1604 71.5956C80.9237 71.4953 80.6574 71.4909 80.4176 71.5834C80.1778 71.6759 79.9833 71.8579 79.8752 72.0911C79.7671 72.3242 79.7538 72.5903 79.8383 72.833L83.7299 82.9168L81.115 87.6874C81.0328 87.8381 80.991 88.0075 80.9939 88.1791C80.9969 88.3508 81.0443 88.5187 81.1317 88.6665C81.219 88.8142 81.3433 88.9367 81.4922 89.022C81.6412 89.1073 81.8098 89.1524 81.9814 89.1529H81.9861Z" fill="#343434"/>
<path d="M23.339 82.7992C23.5231 82.7996 23.7037 82.7486 23.8603 82.6519C24.017 82.5552 24.1436 82.4168 24.2258 82.252L24.4161 81.8794C26.987 76.8477 29.7622 73.5001 36.2782 71.2924C43.5113 68.8379 52.8749 67.385 53.2695 67.3237C53.3272 67.3162 53.3844 67.3057 53.4409 67.2923C53.6945 67.2256 53.9117 67.062 54.0458 66.8367C54.1799 66.6114 54.2202 66.3425 54.158 66.0878C54.0963 65.8391 53.9401 65.6242 53.7225 65.4889C53.5049 65.3535 53.2432 65.3083 52.9928 65.3629C52.5415 65.4321 43.0254 66.9102 35.6414 69.4166C28.5138 71.8302 25.3847 75.6323 22.6487 80.9863L22.4538 81.3668C22.3781 81.5177 22.3423 81.6854 22.3498 81.854C22.3572 82.0227 22.4078 82.1866 22.4965 82.3301C22.5852 82.4737 22.7092 82.5922 22.8567 82.6743C23.0042 82.7564 23.1702 82.7994 23.339 82.7992Z" fill="#343434"/>
<path d="M108.654 86.5534C108.793 86.5528 108.931 86.5239 109.058 86.4685C109.298 86.3613 109.485 86.1632 109.579 85.9179C109.673 85.6726 109.666 85.4001 109.558 85.1603C107.333 80.1774 104.269 77.1757 100.72 73.7022L100.657 73.6393C95.4069 68.4866 77.7316 65.5604 76.9816 65.4377C76.7275 65.4072 76.4716 65.4762 76.2673 65.6302C76.063 65.7842 75.9261 66.0113 75.8855 66.2639C75.8449 66.5165 75.9035 66.775 76.0492 66.9854C76.1949 67.1957 76.4163 67.3415 76.6671 67.3922C76.8448 67.4221 94.4697 70.3389 99.2734 75.0529L99.3379 75.1174C102.741 78.4493 105.681 81.3299 107.753 85.9669C107.831 86.141 107.957 86.289 108.117 86.393C108.277 86.4971 108.464 86.5528 108.654 86.5534Z" fill="#343434"/>
<path d="M98.7745 124.85C98.8075 124.85 98.839 124.85 98.872 124.85C99.0014 124.838 99.1271 124.8 99.2419 124.739C99.3566 124.678 99.4583 124.595 99.5409 124.495C99.6236 124.394 99.6856 124.279 99.7236 124.154C99.7615 124.03 99.7745 123.9 99.762 123.77C99.1613 117.526 98.6204 113.913 98.1896 111.01C98.0323 109.91 97.8751 108.947 97.7587 108.004C97.7455 107.872 97.706 107.744 97.6425 107.628C97.579 107.511 97.4928 107.409 97.389 107.327C97.2852 107.244 97.1659 107.183 97.0383 107.148C96.9106 107.113 96.7771 107.103 96.6456 107.12C96.5142 107.137 96.3875 107.18 96.2731 107.247C96.1587 107.314 96.0589 107.403 95.9796 107.509C95.9002 107.616 95.843 107.737 95.8113 107.865C95.7795 107.994 95.7739 108.128 95.7948 108.258C95.9175 109.213 96.0653 110.194 96.2319 111.304C96.6628 114.183 97.2005 117.767 97.7949 123.96C97.82 124.203 97.9339 124.428 98.1146 124.593C98.2954 124.757 98.5303 124.849 98.7745 124.85Z" fill="#343434"/>
<path d="M22.4281 124.851C22.5997 124.851 22.7685 124.806 22.9176 124.721C23.0668 124.636 23.1914 124.514 23.2791 124.366C23.3667 124.219 23.4145 124.051 23.4178 123.879C23.421 123.707 23.3796 123.538 23.2976 123.387L15.6447 109.364C15.629 109.336 15.6133 109.309 15.596 109.283C15.4485 109.063 15.2204 108.911 14.9612 108.859C14.702 108.807 14.4328 108.86 14.2123 109.006C14.1043 109.077 14.0114 109.169 13.9391 109.276C13.8668 109.383 13.8165 109.504 13.791 109.631C13.7656 109.757 13.7655 109.888 13.7909 110.015C13.8162 110.141 13.8665 110.262 13.9387 110.369L21.5507 124.335C21.6364 124.493 21.7634 124.624 21.9179 124.715C22.0725 124.805 22.2488 124.853 22.4281 124.851Z" fill="#343434"/>
<path d="M71.1741 93.7879C71.334 93.7875 71.4915 93.7485 71.633 93.6742C71.7746 93.5999 71.8961 93.4924 71.9873 93.361C72.0784 93.2296 72.1364 93.0781 72.1563 92.9194C72.1763 92.7608 72.1576 92.5996 72.1018 92.4498L69.0466 84.2827L71.2606 78.4114C71.3065 78.2897 71.328 78.1601 71.3239 78.0301C71.3198 77.9 71.2901 77.7721 71.2365 77.6535C71.1829 77.5349 71.1065 77.4281 71.0116 77.3391C70.9167 77.25 70.8052 77.1806 70.6835 77.1346C70.5618 77.0887 70.4322 77.0672 70.3022 77.0713C70.1721 77.0754 70.0442 77.1051 69.9256 77.1587C69.807 77.2123 69.7002 77.2887 69.6112 77.3836C69.5221 77.4785 69.4527 77.59 69.4067 77.7117L67.0623 83.9305C66.9781 84.1551 66.9781 84.4025 67.0623 84.6271L70.2479 93.1432C70.3182 93.3323 70.4445 93.4954 70.61 93.6106C70.7756 93.7258 70.9724 93.7877 71.1741 93.7879Z" fill="#343434"/>
<path d="M59.3586 93.9767C59.5595 93.9766 59.7555 93.9154 59.9209 93.8015C60.0863 93.6875 60.2132 93.526 60.2848 93.3383L63.7063 84.3143C63.7524 84.1927 63.7741 84.0631 63.77 83.9331C63.766 83.803 63.7363 83.675 63.6827 83.5564L61.1056 77.8581C61.052 77.7395 60.9755 77.6325 60.8806 77.5435C60.7857 77.4544 60.6742 77.3848 60.5525 77.3388C60.4307 77.2928 60.301 77.2713 60.1709 77.2754C60.0408 77.2795 59.9128 77.3092 59.7942 77.3628C59.6756 77.4164 59.5686 77.4928 59.4796 77.5877C59.3905 77.6826 59.3209 77.7941 59.2749 77.9159C59.229 78.0377 59.2074 78.1673 59.2115 78.2974C59.2156 78.4275 59.2453 78.5555 59.2989 78.6742L61.7046 83.9904L58.4293 92.6386C58.3722 92.7885 58.3524 92.9501 58.3716 93.1093C58.3908 93.2686 58.4485 93.4208 58.5397 93.5528C58.6308 93.6848 58.7527 93.7927 58.8948 93.8671C59.037 93.9415 59.1951 93.9802 59.3555 93.9799L59.3586 93.9767Z" fill="#343434"/>
<path d="M65.5896 73.1271C65.6274 73.1271 65.6651 73.1271 65.7028 73.1271C66.7862 73.0013 76.3244 71.7733 77.436 67.1866C77.4949 66.9469 77.5307 66.702 77.543 66.4555C77.543 66.4429 77.543 66.3501 77.543 66.336C77.543 66.0732 77.4386 65.8213 77.2528 65.6355C77.0671 65.4497 76.8151 65.3453 76.5524 65.3453C76.2896 65.3453 76.0377 65.4497 75.8519 65.6355C75.6661 65.8213 75.5618 66.0732 75.5618 66.336C75.5577 66.469 75.5398 66.6013 75.5083 66.7306C74.9202 69.1521 69.1511 70.7151 65.5786 71.1475C62.7939 70.8613 55.7417 69.4068 54.8973 65.9193C54.8348 65.6638 54.6733 65.4437 54.4485 65.3073C54.2236 65.171 53.9538 65.1295 53.6984 65.192C53.443 65.2546 53.2228 65.416 53.0865 65.6409C52.9501 65.8657 52.9086 66.1356 52.9712 66.391C54.3344 72.0123 65.0393 73.091 65.4937 73.1334L65.5896 73.1271Z" fill="#343434"/>
<path d="M73.3062 82.0081C73.5004 82.0074 73.6901 81.9498 73.8519 81.8423C74.0137 81.7348 74.1403 81.5822 74.2162 81.4034C74.292 81.2246 74.3137 81.0274 74.2785 80.8364C74.2434 80.6454 74.153 80.4689 74.0185 80.3288L66.0244 72.0501C65.8447 71.8632 65.5987 71.7545 65.3395 71.7474C65.0803 71.7404 64.8287 71.8355 64.6391 72.0124L56.1309 79.9105C55.9468 80.0912 55.8405 80.3366 55.8345 80.5945C55.8285 80.8524 55.9234 81.1025 56.0989 81.2915C56.2744 81.4806 56.5168 81.5937 56.7744 81.6068C57.032 81.6199 57.2846 81.5321 57.4785 81.3619L65.2744 74.1288L72.5939 81.7093C72.6864 81.8045 72.7972 81.8801 72.9196 81.9314C73.0419 81.9827 73.1734 82.0088 73.3062 82.0081Z" fill="#343434"/>
<path d="M65.0585 121.326C65.2808 121.326 65.4966 121.251 65.6711 121.114C65.8457 120.976 65.9689 120.784 66.0208 120.568C66.0554 120.428 69.4172 106.522 72.5824 93.0634C73.54 88.9988 74.485 84.9656 75.3247 81.327C77.9773 69.7668 78.3358 67.6472 78.3516 67.0937C78.3518 66.8357 78.2513 66.5879 78.0716 66.4028C77.8919 66.2177 77.6471 66.1101 77.3893 66.1027C77.1314 66.0953 76.8808 66.1888 76.6909 66.3633C76.5009 66.5378 76.3864 66.7796 76.3719 67.0371C76.3593 67.4192 75.9552 69.7259 73.3938 80.8821C72.5557 84.5159 71.6123 88.5475 70.6547 92.609C68.5524 101.546 66.3636 110.681 65.1214 115.847C64.0333 110.715 62.1119 101.696 60.1794 92.8087C59.2517 88.5443 58.3256 84.2973 57.478 80.4842C55.5912 72.0483 54.4905 67.4334 54.0832 66.4003C54.0385 66.2761 53.9694 66.162 53.88 66.0649C53.7906 65.9677 53.6827 65.8894 53.5626 65.8346C53.4425 65.7798 53.3126 65.7495 53.1807 65.7456C53.0487 65.7416 52.9173 65.7641 52.7941 65.8117C52.671 65.8593 52.5585 65.931 52.4635 66.0227C52.3685 66.1143 52.2927 66.224 52.2407 66.3454C52.1887 66.4667 52.1614 66.5972 52.1605 66.7293C52.1597 66.8613 52.1852 66.9921 52.2357 67.1142C52.4825 67.7557 53.2593 70.6725 55.5377 80.9151C56.3852 84.725 57.3113 88.9689 58.2375 93.2285C61.159 106.657 64.0554 120.401 64.0837 120.539C64.1303 120.759 64.25 120.957 64.4234 121.099C64.5968 121.242 64.8135 121.322 65.0381 121.326H65.0585Z" fill="#343434"/>
<path d="M123.534 124.209C123.765 124.209 123.989 124.128 124.166 123.98C124.344 123.832 124.464 123.627 124.506 123.4C127.281 108.473 128.893 86.0018 128.909 85.777C128.925 85.5463 128.86 85.3173 128.725 85.1296C128.59 84.9418 128.393 84.8071 128.17 84.7486L109.87 79.9638C109.74 79.9299 109.605 79.9227 109.472 79.9427C109.339 79.9627 109.212 80.0095 109.098 80.0803C108.984 80.151 108.885 80.2442 108.808 80.3542C108.731 80.4642 108.677 80.5887 108.65 80.7201L103.555 105.183C103.51 105.437 103.565 105.699 103.71 105.913C103.854 106.126 104.076 106.275 104.328 106.328C104.581 106.381 104.844 106.333 105.062 106.194C105.279 106.056 105.435 105.838 105.494 105.588L110.378 82.1432L126.871 86.4562C126.556 90.6341 125.012 109.831 122.558 123.038C122.51 123.295 122.565 123.561 122.712 123.778C122.86 123.994 123.087 124.143 123.344 124.192C123.407 124.204 123.471 124.21 123.534 124.209Z" fill="#343434"/>
<path d="M10.3862 69.3858C10.5393 69.3862 10.6904 69.3511 10.8276 69.2832C10.9647 69.2154 11.0843 69.1166 11.1768 68.9946C11.2693 68.8727 11.3323 68.731 11.3607 68.5806C11.3891 68.4302 11.3823 68.2752 11.3407 68.1279C11.17 67.5532 11.0418 66.9667 10.957 66.3731C10.9462 66.1106 10.8315 65.8632 10.6382 65.6852C10.4449 65.5072 10.1888 65.4133 9.92631 65.4242C9.66379 65.435 9.41635 65.5497 9.23839 65.743C9.06043 65.9363 8.96654 66.1924 8.97739 66.4549C9.00412 67.0996 9.36261 68.4047 9.43337 68.6562C9.49025 68.8655 9.61433 69.0503 9.7865 69.1821C9.95867 69.3139 10.1694 69.3855 10.3862 69.3858Z" fill="#343434"/>
<path d="M6.46651 73.7036C6.6489 73.7031 6.82757 73.6522 6.98287 73.5566C7.13818 73.4609 7.26408 73.3243 7.34668 73.1617C7.42929 72.9991 7.46539 72.8168 7.45102 72.635C7.43666 72.4532 7.37238 72.2788 7.26526 72.1312L5.85011 70.1987C5.69323 69.991 5.46091 69.8534 5.20337 69.8157C4.94584 69.7779 4.68379 69.843 4.47388 69.9969C4.26397 70.1509 4.12308 70.3812 4.08166 70.6382C4.04025 70.8952 4.10164 71.1581 4.25257 71.3702L5.66772 73.3027C5.76013 73.4274 5.88057 73.5287 6.01932 73.5983C6.15807 73.668 6.31126 73.7041 6.46651 73.7036Z" fill="#343434"/>
<path d="M2.5937 77.9511C2.84422 77.95 3.08503 77.8541 3.26764 77.6825C3.45025 77.511 3.56112 77.2767 3.57786 77.0267C3.59461 76.7767 3.516 76.5297 3.3579 76.3354C3.19979 76.141 2.97394 76.0138 2.72579 75.9793C2.5261 75.9526 1.48988 75.8095 0.944255 75.8457C0.814476 75.852 0.687188 75.8838 0.569698 75.9392C0.452209 75.9947 0.346833 76.0728 0.259519 76.169C0.172205 76.2653 0.104666 76.3777 0.0608201 76.5C0.0169744 76.6223 -0.00233126 76.7521 0.00396657 76.8819C0.0102646 77.0116 0.0420752 77.1389 0.0975578 77.2564C0.153041 77.3739 0.231092 77.4793 0.327313 77.5666C0.423534 77.6539 0.536027 77.7215 0.658338 77.7653C0.780648 77.8091 0.910409 77.8285 1.04019 77.8222C1.51388 77.8335 1.98646 77.8734 2.45534 77.9417C2.50119 77.9481 2.54741 77.9512 2.5937 77.9511Z" fill="#343434"/>
<path d="M31.8074 88.4638C32.0424 88.464 32.2714 88.3895 32.4614 88.2511C32.6513 88.1126 32.7923 87.9174 32.8641 87.6936C32.9358 87.4698 32.9346 87.229 32.8605 87.0059C32.7865 86.7829 32.6434 86.5891 32.4521 86.4527L23.068 79.7354C17.9829 75.7745 14.7107 77.1567 13.5425 77.9366C11.6776 79.1803 10.8348 81.5201 11.4481 83.7544L11.9732 85.819C12.046 86.104 12.229 86.3485 12.482 86.4986C12.735 86.6487 13.0373 86.6921 13.3223 86.6193C13.6074 86.5466 13.8518 86.3636 14.0019 86.1105C14.152 85.8575 14.1955 85.5553 14.1227 85.2702L13.5912 83.1868C13.2327 81.8738 13.7217 80.4807 14.7736 79.7778C16.3964 78.6976 18.9358 79.325 21.7378 81.5075L22.8809 82.333L31.1627 88.2531C31.3501 88.3894 31.5757 88.4631 31.8074 88.4638Z" fill="#343434"/>
<path d="M40.0674 128.565C40.3358 128.565 40.6038 128.545 40.8693 128.507C41.0012 128.489 41.1296 128.451 41.2498 128.393C41.4897 128.272 41.6775 128.068 41.7784 127.819C41.8792 127.57 41.8861 127.292 41.798 127.038C41.7098 126.784 41.5325 126.571 41.299 126.438C41.0654 126.305 40.7915 126.261 40.5281 126.315C39.8768 126.413 39.2112 126.298 38.6302 125.988L22.4078 116.27C20.9298 115.451 20.315 114.586 19.936 112.822L18.3998 105.644C18.3688 105.501 18.3101 105.367 18.227 105.247C18.1438 105.127 18.0379 105.025 17.9152 104.946C17.7926 104.867 17.6556 104.813 17.5121 104.787C17.3687 104.761 17.2215 104.764 17.079 104.795C16.9365 104.826 16.8015 104.885 16.6818 104.968C16.562 105.051 16.4598 105.157 16.3809 105.279C16.3021 105.402 16.2481 105.539 16.2222 105.683C16.1963 105.826 16.1989 105.973 16.2299 106.116L17.7677 113.294C18.2771 115.671 19.3008 117.091 21.3009 118.198L37.517 127.915C38.2976 128.346 39.1757 128.57 40.0674 128.565Z" fill="#343434"/>
<path d="M40.4573 128.613C40.6617 128.613 41.6979 128.577 42.058 127.87C42.1508 127.687 42.1914 127.483 42.1753 127.279C42.1592 127.075 42.087 126.879 41.9668 126.714C41.558 126.153 40.9731 126.242 40.5847 126.305C40.4691 126.324 40.3572 126.36 40.2529 126.414C39.978 126.46 39.7309 126.609 39.5607 126.83C39.3905 127.051 39.3097 127.327 39.3345 127.605C39.3593 127.883 39.4878 128.141 39.6945 128.328C39.9011 128.515 40.1707 128.618 40.4495 128.615L40.4573 128.613Z" fill="#343434"/>
<path d="M40.468 128.614C40.6375 128.614 40.8048 128.575 40.957 128.5L41.0073 128.485L41.0655 128.47C42.1999 128.16 43.1969 127.477 43.8958 126.532L54.629 110.879C55.9639 109.051 56.2973 107.333 55.7627 104.968L49.1586 75.4446C48.9855 74.3603 48.4767 73.3576 47.7038 72.5777C46.9309 71.7978 45.9329 71.2799 44.8502 71.0969C43.4618 70.8768 39.9145 70.9868 36.9238 76.7497L31.2129 86.7249C31.0669 86.9804 31.0284 87.2833 31.1058 87.5671C31.1832 87.851 31.3702 88.0924 31.6256 88.2384C31.8811 88.3843 32.184 88.4228 32.4678 88.3454C32.7517 88.268 32.9931 88.081 33.1391 87.8256L38.8657 77.8032C40.5246 74.6081 42.5734 72.9728 44.4949 73.2825C45.7418 73.4791 46.7639 74.5404 46.9808 75.8644L53.5849 105.454C53.9811 107.209 53.7846 108.254 52.7987 109.595L42.0671 125.255C41.6778 125.767 41.1326 126.139 40.5136 126.315C40.4727 126.323 40.4334 126.334 40.3941 126.345L40.306 126.373C40.0597 126.432 39.8338 126.557 39.6519 126.733C39.4988 126.889 39.3953 127.087 39.3544 127.302C39.3136 127.517 39.3371 127.739 39.4221 127.941C39.5071 128.143 39.6498 128.315 39.8322 128.435C40.0147 128.556 40.2287 128.62 40.4475 128.62L40.468 128.614Z" fill="#343434"/>
<path d="M40.706 128.415C40.7859 128.416 40.8656 128.407 40.9434 128.389C41.0861 128.358 41.2213 128.3 41.3413 128.217C41.4613 128.134 41.5636 128.029 41.6423 127.906C41.721 127.783 41.7745 127.646 41.7998 127.502C41.825 127.359 41.8215 127.212 41.7894 127.069C39.9355 118.616 33.0767 87.2358 33.0767 87.2358L30.9084 87.7076C30.9084 87.7076 37.7703 119.091 39.6242 127.546C39.6786 127.792 39.8155 128.013 40.0122 128.171C40.2089 128.329 40.4536 128.415 40.706 128.415Z" fill="#343434"/>
<path d="M112.506 82.1034C112.708 82.1034 112.906 82.0415 113.072 81.9259C113.237 81.8104 113.364 81.6468 113.434 81.4572L114.717 77.9979C114.768 77.8749 114.793 77.7429 114.791 77.61C114.789 77.4771 114.761 77.3458 114.707 77.2241C114.654 77.1024 114.577 76.9926 114.48 76.9015C114.383 76.8103 114.269 76.7395 114.144 76.6934C114.019 76.6473 113.887 76.6267 113.754 76.6329C113.621 76.6392 113.491 76.672 113.371 76.7297C113.251 76.7873 113.144 76.8684 113.057 76.9682C112.969 77.0681 112.902 77.1846 112.86 77.3108L111.577 80.77C111.532 80.8921 111.511 81.0218 111.516 81.1519C111.521 81.282 111.551 81.4098 111.606 81.5281C111.66 81.6463 111.737 81.7528 111.832 81.8412C111.928 81.9297 112.04 81.9985 112.162 82.0437C112.272 82.0841 112.389 82.1044 112.506 82.1034Z" fill="#343434"/>
<path d="M124.988 85.5023C125.181 85.5022 125.369 85.4459 125.531 85.3404C125.692 85.2348 125.819 85.0845 125.896 84.908L127.179 81.9676C127.234 81.8479 127.265 81.7184 127.269 81.5866C127.273 81.4549 127.251 81.3236 127.204 81.2005C127.157 81.0774 127.086 80.9649 126.995 80.8697C126.904 80.7744 126.795 80.6984 126.674 80.646C126.553 80.5936 126.423 80.5659 126.291 80.5645C126.159 80.5631 126.028 80.5881 125.906 80.638C125.784 80.6879 125.673 80.7617 125.58 80.855C125.487 80.9483 125.414 81.0593 125.364 81.1814L124.081 84.1202C124.015 84.2709 123.988 84.4356 124.002 84.5995C124.016 84.7633 124.07 84.9212 124.16 85.0588C124.25 85.1964 124.373 85.3094 124.517 85.3877C124.662 85.4659 124.824 85.507 124.988 85.5071V85.5023Z" fill="#343434"/>
<path d="M114.865 80.3604C115.052 80.3594 115.235 80.3048 115.392 80.2031C115.614 80.0638 115.773 79.8418 115.832 79.5858C115.891 79.3299 115.846 79.061 115.706 78.8383C115.706 78.8288 115.269 78.1417 114.7 77.1338C113.285 74.629 112.382 72.5613 112.073 71.1587C111.381 68.0281 111.747 65.1034 112.481 64.1883C112.533 64.1222 112.639 64.0137 112.714 64.0137C113.233 64.0137 113.286 64.0137 113.423 65.1144C113.538 66.0343 113.711 67.4258 115.192 67.973C115.669 68.1475 116.178 68.2176 116.684 68.1786C117.19 68.1395 117.682 67.9922 118.126 67.7466C118.624 67.4763 119.058 67.1039 119.401 66.6538C119.744 66.2036 119.988 65.686 120.117 65.1348C120.229 64.6631 120.521 63.0247 119.622 61.7165C119.112 60.9727 118.32 60.5089 117.332 60.3752C115.917 60.1787 115.192 60.806 114.713 61.2196C114.302 61.5781 114.164 61.6992 113.159 61.1913C113.126 61.1756 113.104 61.1646 113.09 61.0498C112.989 60.2714 113.898 58.6251 114.651 57.9647C115.702 57.0354 116.054 56.7225 118.963 57.2965C120.282 57.5575 121.331 60.1048 121.636 61.2982C121.682 61.4819 121.78 61.6484 121.919 61.778C122.057 61.9075 122.229 61.9946 122.416 62.0288C122.602 62.0631 122.794 62.0432 122.97 61.9714C123.145 61.8995 123.296 61.7789 123.405 61.6237C123.494 61.4995 125.57 58.5198 126.392 55.0385C126.598 54.1642 126.752 53.1689 126.902 52.2082C127.163 50.5257 127.658 47.3935 128.429 47.5004C128.484 47.5057 128.537 47.5237 128.585 47.5528C128.632 47.582 128.672 47.6216 128.702 47.6687C129.447 48.7694 128.479 52.6374 128.161 53.9079C128.067 54.2885 127.991 54.5951 127.949 54.7995C127.782 55.6549 126.534 60.2714 126.116 61.7888L125.968 62.3376C125.911 62.5876 125.954 62.8498 126.087 63.0691C126.219 63.2884 126.432 63.4477 126.68 63.5135C126.928 63.5792 127.191 63.5464 127.415 63.4218C127.639 63.2972 127.806 63.0906 127.881 62.8454L128.028 62.3077C128.751 59.6456 129.73 56.0102 129.892 55.1863C129.929 55.0055 129.998 54.7287 130.083 54.3891C130.808 51.4896 131.487 48.2567 130.344 46.5617C130.158 46.2802 129.914 46.0421 129.627 45.8638C129.341 45.6855 129.019 45.5712 128.685 45.5286C125.966 45.1497 125.417 48.7348 124.927 51.8953C124.784 52.8198 124.636 53.7822 124.455 54.5778C124.086 56.0331 123.534 57.4358 122.812 58.7525C122.161 57.3373 121.048 55.6832 119.353 55.3451C116.018 54.6894 114.975 55.0306 113.348 56.4709C112.307 57.3845 110.918 59.6299 111.131 61.2951C111.176 61.687 111.326 62.0596 111.565 62.3737C111.326 62.5289 111.113 62.7216 110.936 62.9445C109.543 64.6741 109.478 68.6051 110.137 71.5833C110.58 73.5943 111.925 76.2407 112.967 78.1055C113.568 79.1685 114.022 79.8902 114.022 79.8902C114.111 80.034 114.235 80.1528 114.382 80.2351C114.53 80.3174 114.696 80.3605 114.865 80.3604ZM116.809 62.3155C116.893 62.3163 116.977 62.3226 117.06 62.3344C117.493 62.3942 117.796 62.5593 117.986 62.8376C118.313 63.3093 118.323 64.0955 118.188 64.6773C118.122 64.9559 117.999 65.2177 117.827 65.4458C117.654 65.6738 117.435 65.8631 117.184 66.0012C116.986 66.1124 116.766 66.1797 116.54 66.1987C116.313 66.2177 116.085 66.1879 115.871 66.1113C115.587 66.0075 115.5 65.7858 115.386 64.8675C115.343 64.348 115.22 63.8382 115.021 63.3565C115.384 63.2012 115.719 62.9841 116.008 62.7149C116.312 62.4492 116.469 62.3155 116.81 62.3155H116.809Z" fill="#343434"/>
<path d="M130.614 66.8181C130.742 66.8183 130.87 66.793 130.989 66.7436C131.108 66.6942 131.216 66.6217 131.307 66.5304L131.316 66.521C131.395 66.4427 131.46 66.3518 131.508 66.2521C131.678 65.8999 134.104 61.0632 135.228 59.2439C136.736 56.8083 137.875 52.9795 137.082 51.0391C136.973 50.7384 136.792 50.4687 136.555 50.2529C136.319 50.0372 136.033 49.8818 135.724 49.8001C133.002 49.124 131.95 52.025 131.189 54.1415C130.875 55.0173 130.544 55.923 130.154 56.574C128.749 58.9043 126.206 61.9201 126.181 61.95C126.024 62.1357 125.937 62.3704 125.934 62.6135C125.934 62.8267 126.004 63.034 126.131 63.2047C126.259 63.3754 126.438 63.5004 126.642 63.5612C126.847 63.6219 127.065 63.6151 127.265 63.5419C127.465 63.4686 127.637 63.3327 127.753 63.1544C128.299 62.5035 130.535 59.7769 131.851 57.5945C132.342 56.7768 132.703 55.7799 133.051 54.8145C133.903 52.4559 134.403 51.5124 135.252 51.7216C135.629 52.1492 135.331 55.3223 133.548 58.2014C132.359 60.1229 129.978 64.8872 129.746 65.3542C129.663 65.5052 129.622 65.6749 129.625 65.8467C129.629 66.0185 129.677 66.1864 129.764 66.3341C129.852 66.4817 129.977 66.604 130.127 66.6889C130.276 66.7737 130.445 66.8183 130.617 66.8181H130.614Z" fill="#343434"/>
<path d="M125.274 82.5849C125.363 82.5851 125.45 82.5734 125.535 82.5504C125.916 82.4479 126.289 82.3192 126.652 82.1651C130.559 80.4826 132.545 76.1413 133.995 72.9697C134.459 71.9555 134.86 71.0829 135.229 70.4948C140.509 62.0903 140.074 60.3261 139.931 59.7475C139.883 59.5313 139.792 59.3273 139.662 59.1482C139.532 58.9691 139.367 58.8187 139.176 58.7065C138.332 58.2175 137.517 58.0933 136.756 58.337C135.314 58.7962 134.566 60.4299 133.965 61.7413C133.83 62.0353 133.701 62.3199 133.57 62.5699C132.97 63.7146 130.819 64.6926 130.268 64.8908C130.021 64.9806 129.82 65.1649 129.709 65.403C129.598 65.6411 129.586 65.9136 129.676 66.1605C129.766 66.4074 129.95 66.6084 130.189 66.7194C130.427 66.8305 130.699 66.8423 130.946 66.7525C131.081 66.7022 134.248 65.5292 135.319 63.485C135.464 63.2052 135.608 62.8922 135.758 62.5652C136.173 61.6595 136.742 60.4173 137.349 60.2239C137.577 60.1774 137.813 60.2166 138.014 60.334C138.038 61.0573 137.157 63.691 133.547 69.4381C133.107 70.1347 132.68 71.0671 132.187 72.1458C130.869 75.0249 129.067 78.9653 125.866 80.3458C125.586 80.463 125.3 80.5612 125.007 80.6399C124.777 80.7039 124.577 80.849 124.446 81.0485C124.314 81.248 124.259 81.4884 124.29 81.7253C124.322 81.9623 124.438 82.1798 124.618 82.3378C124.797 82.4958 125.028 82.5836 125.267 82.5849H125.274Z" fill="#343434"/>
<path d="M119.943 77.3326C120.157 77.3312 120.364 77.2609 120.534 77.1323C120.704 77.0036 120.828 76.8235 120.887 76.6187C121.044 76.0825 122.346 71.3323 120.289 69.2662C120.199 69.1692 120.089 69.0915 119.968 69.0376C119.847 68.9836 119.716 68.9546 119.583 68.9523C119.451 68.95 119.319 68.9743 119.196 69.0239C119.072 69.0735 118.961 69.1474 118.866 69.2411C118.772 69.3348 118.698 69.4465 118.648 69.5694C118.598 69.6924 118.573 69.8242 118.575 69.9569C118.577 70.0896 118.606 70.2206 118.659 70.3421C118.713 70.4636 118.79 70.5731 118.887 70.6641C119.857 71.639 119.373 74.7256 118.984 76.0668C118.912 76.3191 118.942 76.5898 119.069 76.8197C119.196 77.0496 119.408 77.2199 119.66 77.2933C119.753 77.3191 119.848 77.3323 119.943 77.3326Z" fill="#343434"/>
<path d="M61.04 120.22C61.2245 120.22 61.4049 120.165 61.5587 120.064C61.7126 119.962 61.8332 119.817 61.9056 119.647C61.9781 119.478 61.9992 119.291 61.9664 119.109C61.9335 118.927 61.8482 118.759 61.7209 118.626C59.0601 115.838 56.6611 112.813 54.5539 109.586C54.4082 109.399 54.1976 109.274 53.964 109.236C53.7303 109.197 53.4907 109.248 53.2926 109.378C53.0946 109.508 52.9527 109.707 52.895 109.937C52.8374 110.167 52.8683 110.41 52.9815 110.618C55.1545 113.941 57.6283 117.058 60.3718 119.929C60.4583 120.02 60.5619 120.092 60.6767 120.142C60.7914 120.192 60.9149 120.219 61.04 120.22Z" fill="#343434"/>
<path d="M51.9823 94.1372C52.1919 94.1372 52.3954 94.0675 52.561 93.939C52.6616 93.8604 52.789 93.7818 52.9368 93.6764C53.6066 93.2359 54.235 92.7354 54.8142 92.1811C54.996 92.0091 55.1021 91.7719 55.109 91.5217C55.1159 91.2714 55.0232 91.0287 54.8512 90.8469C54.6791 90.6651 54.4419 90.559 54.1917 90.5521C53.9415 90.5452 53.6988 90.6379 53.517 90.81C53.0138 91.293 52.4669 91.7283 51.8833 92.1103C51.715 92.2235 51.5562 92.3305 51.4115 92.4484C51.2562 92.569 51.1423 92.7351 51.086 92.9236C51.0297 93.1121 51.0337 93.3134 51.0975 93.4995C51.1612 93.6856 51.2816 93.8471 51.4416 93.9614C51.6017 94.0758 51.7935 94.1372 51.9902 94.1372H51.9823Z" fill="#343434"/>
</svg>
