<svg width="140" height="124" viewBox="0 0 140 124" fill="none" xmlns="http://www.w3.org/2000/svg">
<path d="M74.3655 74.918C78.4303 74.8692 81.4164 74.4729 83.6116 73.1348C80.2843 88.2902 74.9284 114.832 74.9284 114.832C74.9284 114.832 68.5285 88.3343 65.0801 73.2181C67.4105 74.3361 70.5727 74.9698 74.3655 74.918Z" fill="#D3D3D1"/>
<path d="M125.205 104.347L117.559 118.363V118.633H106.618L118.146 111.733C119.937 110.735 120.704 109.554 121.124 107.557L121.569 105.513C122.716 105.205 123.818 104.75 124.848 104.159L125.205 104.347Z" fill="#C1CFDA"/>
<path d="M113.044 78.0995L113.179 78.2819L108.18 81.8545L107.99 81.9819L107.807 81.7759L102.079 71.753C100.384 68.4807 98.4197 67.0151 96.668 66.6991L97.0564 65.1533C98.5534 65.5496 100.076 65.9852 101.5 66.4773C107.126 68.3942 109.693 69.9541 113.044 78.0995Z" fill="#C1CFDA"/>
<path d="M106.618 118.633L101.888 121.464C101.086 121.894 100.167 122.055 99.2666 121.923L99.2823 121.811C101.128 113.362 107.997 82.0056 107.997 81.982L108.187 81.8547L113.186 78.282L117.575 75.1449C124.484 69.7655 128.477 74.2879 127.481 77.9644L126.944 80.0479V80.0888H126.867C125.195 80.1045 123.674 81.1423 122.778 82.4475C122.597 82.7085 121.487 85.616 122.074 85.671L122.201 85.9101C121.146 86.4636 120.629 87.5501 121.352 89.5613L121.448 90.3696C119.665 90.8413 118.58 92.0254 119.515 94.6325L119.594 95.0524C119.221 95.2083 118.896 95.4594 118.65 95.7804C117.392 97.5243 119.467 102.025 121.907 101.152L122.494 101.279L121.583 105.509L121.138 107.554C120.718 109.551 119.951 110.731 118.16 111.73L106.618 118.633Z" fill="#5DC3B6"/>
<path d="M107.809 81.7759L107.991 81.9818C107.991 82.0054 101.13 113.362 99.2843 121.808L99.2685 121.919C99.2528 121.919 99.2371 121.919 99.2198 121.919C98.3263 121.671 97.5407 121.133 96.9869 120.389L95.7289 118.561L86.2689 104.767C85.0644 103.111 84.8537 101.716 85.3019 99.735L91.8999 70.1852C92.2648 68.0057 94.2586 66.2713 96.6692 66.699C98.421 67.0135 100.385 68.4806 102.08 71.7529L107.809 81.7759Z" fill="#FCD946"/>
<path d="M65.0798 73.2184C68.5282 88.3345 74.9282 114.837 74.9282 114.837C74.9282 114.837 80.284 88.2952 83.6113 73.1397C84.7844 67.8232 85.7027 63.9015 86.0518 63.0225H86.7799C86.7799 63.0225 91.8118 63.7914 97.0559 65.1532L96.6754 66.6989C94.2664 66.2712 92.2725 68.0056 91.9061 70.1851L85.3064 99.7192C84.8552 101.708 85.069 103.103 86.2735 104.751L95.7319 118.553L95.6124 118.631H16.4513V117.721C13.6491 102.675 12.0625 80.2064 12.0625 80.2064L15.0958 79.4202L27.6063 76.1479L30.3629 75.4277L31.679 81.7506L31.8127 81.7176C33.9764 77.3996 36.5427 73.1146 40.0131 70.0813C44.7745 65.93 60.9269 63.3715 62.9491 63.0618C62.9648 63.7112 63.8281 67.7131 65.0798 73.2184ZM70.975 114.186C71.1776 113.994 71.2962 113.73 71.305 113.451C71.3139 113.172 71.2122 112.901 71.0222 112.697L70.4278 112.068L69.8412 111.439L69.2877 110.829L68.7326 110.219L68.2137 109.623L67.6838 109.02L66.6853 107.833L65.7418 106.668L64.8471 105.536L64.0074 104.418L63.2211 103.333L62.4821 102.279L61.7918 101.241L61.1628 100.243L60.5763 99.2679L60.0306 98.3244L59.5337 97.4045L59.0934 96.5349L58.6893 95.6874L58.3308 94.8886L58.0163 94.1196L57.7474 93.3994L57.521 92.7091L57.3386 92.066L57.1813 91.4732L57.0791 90.9259L57.0146 90.4668L57.0382 90.4102L57.0948 90.3001L57.197 90.1649L57.3165 90.0076L57.7049 89.6192L58.1641 89.2072L58.6861 88.7795L59.2412 88.3424L59.7963 87.9147L60.3262 87.4948L60.5794 87.2731L60.8263 87.0671L61.048 86.8611L61.254 86.6473L61.4521 86.4177L61.5858 86.2195C61.7262 86.0019 61.7764 85.7381 61.7257 85.4841C61.675 85.2301 61.5275 85.0058 61.3144 84.8587C61.1012 84.7115 60.8392 84.6531 60.5837 84.6958C60.3283 84.7385 60.0994 84.8789 59.9457 85.0874L59.8749 85.1974L59.7884 85.3012L59.6532 85.4349L59.4865 85.5921L59.2884 85.7682L59.0746 85.9506L58.5682 86.3548L58.0131 86.7825L57.4423 87.2259L56.8652 87.6977L56.3259 88.182L55.8541 88.6647L55.6151 88.9415L55.4186 89.2198L55.244 89.5201L55.1009 89.8535L55.0144 90.2419V90.6429L55.1009 91.2609L55.2204 91.9103L55.3855 92.5912L55.5915 93.3035L55.8463 94.0646L56.1309 94.8508L56.4643 95.6748L56.8432 96.5381L57.2631 97.425L57.7238 98.3527L58.238 99.3103L58.8009 100.293L59.4032 101.315L60.0526 102.361L60.7571 103.43L61.5182 104.531L62.3186 105.655L63.1818 106.805L64.0939 107.976L65.0594 109.165L66.0815 110.385L66.6208 111.003L67.1586 111.621L67.7294 112.25L68.2924 112.879L68.8946 113.521L69.4811 114.15C69.6747 114.352 69.9406 114.47 70.2206 114.477C70.5006 114.483 70.7719 114.379 70.975 114.186Z" fill="#C1CFDA"/>
<path d="M76.9651 15.1452L76.9337 15.2176C75.4036 15.2176 74.5749 14.6782 73.1849 15.2726C60.874 15.7082 63.7501 38.4933 54.6628 42.0832C53.6014 42.5031 52.3811 42.6603 50.9471 42.4873L50.9392 43.033C52.128 44.5693 53.8152 45.67 55.8516 45.67L56.4287 45.4955C57.0404 47.5024 57.8583 49.4405 58.8692 51.279L58.3549 51.4771C48.4673 47.3415 45.7422 43.8632 45.0283 39.6176C43.1665 28.4232 58.6946 -10.2486 79.9371 4.13952C91.6708 0.978859 97.4701 14.9219 102.406 29.3651C107.229 43.4686 88.9709 51.4787 88.9709 51.4787L88.908 51.4473C90.0272 49.3805 90.8509 47.1669 91.3547 44.8712L91.902 44.9986C95.6759 43.1918 98.5173 40.7042 97.9308 36.2588C97.599 33.6768 94.7859 31.0932 92.2825 32.7742L92.2432 32.4094C89.276 28.9389 83.0647 18.0213 76.9651 15.1452Z" fill="#515151"/>
<path d="M122.198 85.9033L122.071 85.6643C121.484 85.6093 122.594 82.7018 122.775 82.4407C123.671 81.1419 125.192 80.104 126.864 80.082H126.936C131.038 80.0254 133.226 79.6527 134.572 83.0697C135.08 84.3529 133.471 85.9458 133.471 85.9458C133.471 85.9458 134.501 87.9664 134.144 89.2024C133.463 91.5862 131.649 91.5862 131.649 91.5862C131.649 91.5862 133.028 92.8772 131.886 95.1117C130.777 97.2833 129.225 96.9987 129.129 96.9814C129.2 97.1386 130.001 98.6938 129.463 99.881C128.963 100.991 126.991 101.688 126.936 101.862C126.658 102.822 125.802 103.573 124.851 104.144C123.821 104.735 122.719 105.19 121.572 105.498L122.483 101.268L121.896 101.141C119.456 102.013 117.38 97.5128 118.64 95.769C118.885 95.4479 119.21 95.1968 119.583 95.0409L119.504 94.6211C118.561 92.0139 119.662 90.8346 121.437 90.3581L121.341 89.5499C120.629 87.5434 121.143 86.4568 122.198 85.9033Z" fill="white"/>
<path d="M73.1858 15.2729C74.5727 14.6785 75.4045 15.2179 76.9345 15.2179L76.966 15.1455C83.0656 18.0216 89.2768 28.9392 92.2488 32.4097L92.2881 32.7745C94.7899 31.0935 97.6046 33.6771 97.9348 36.2591C98.5214 40.7044 95.6846 43.1921 91.906 44.9989L91.3588 44.8715C90.8549 47.1672 90.0313 49.3808 88.912 51.4476C88.1475 52.8452 87.2074 54.1393 86.1146 55.2985C83.4524 58.0865 79.5936 60.2329 73.9767 60.4154C69.2593 60.5726 65.7134 58.9498 63.0591 56.6053C61.2932 55.0438 59.9141 53.1663 58.8685 51.2809C57.8576 49.4424 57.0397 47.5042 56.428 45.4973C56.086 44.3991 55.816 43.2798 55.6197 42.1464L54.6621 42.0835C63.751 38.4936 60.8749 15.7085 73.1858 15.2729ZM82.9964 35.6584C83.0672 34.8093 82.3863 34.0576 81.4585 33.9696C80.5308 33.8815 79.7162 34.501 79.6455 35.3486C79.5747 36.1962 80.2556 36.9494 81.1739 37.0359C82.0922 37.1224 82.9162 36.5059 82.9964 35.6584ZM66.1364 37.0359C67.0563 36.9494 67.745 36.1962 67.6664 35.3486C67.5878 34.501 66.7764 33.8768 65.8565 33.9696C64.9366 34.0623 64.24 34.8093 64.3202 35.6584C64.4004 36.5075 65.2087 37.1239 66.1348 37.0359H66.1364Z" fill="white"/>
<path d="M62.9496 63.0538L62.8945 56.8032L63.0596 56.6051C65.714 58.9496 69.2552 60.574 73.9773 60.4152C79.5941 60.2327 83.453 58.0863 86.1152 55.2983L86.0523 63.0223C85.7032 63.9013 84.7849 67.8231 83.6118 73.1396C81.4103 74.4778 78.4305 74.8693 74.3657 74.9228C70.5713 74.9699 67.4107 74.3362 65.0881 73.2182C63.8286 67.713 62.9653 63.711 62.9496 63.0538Z" fill="white"/>
<path d="M81.4562 33.9696C82.3839 34.0576 83.0648 34.8093 82.9941 35.6584C82.9233 36.5076 82.0993 37.124 81.1716 37.0359C80.2438 36.9478 79.5629 36.1962 79.6431 35.3486C79.7233 34.5011 80.53 33.8768 81.4562 33.9696Z" fill="#343434"/>
<path d="M71.0235 112.697C71.1198 112.797 71.1952 112.916 71.2454 113.046C71.2956 113.176 71.3195 113.314 71.3158 113.454C71.3121 113.593 71.2808 113.73 71.2238 113.857C71.1668 113.984 71.0852 114.098 70.9836 114.194C70.8821 114.289 70.7627 114.363 70.6323 114.412C70.5019 114.461 70.3631 114.484 70.224 114.478C70.0848 114.473 69.948 114.441 69.8216 114.382C69.6951 114.324 69.5815 114.241 69.4872 114.139L68.9007 113.51L68.2984 112.868L67.7355 112.239L67.1647 111.61L66.6269 110.992L66.0875 110.374L65.0654 109.154L64.0999 107.965L63.1879 106.794L62.3246 105.644L61.5242 104.52L60.7632 103.419L60.0587 102.35L59.4093 101.312L58.807 100.29L58.2441 99.3073L57.7299 98.3481L57.2691 97.4203L56.8493 96.5334L56.4703 95.6749L56.137 94.8509L55.8523 94.0646L55.5976 93.3036L55.3916 92.5912L55.2265 91.9104L55.107 91.2609L55.0205 90.643V90.2388L55.107 89.8504L55.2501 89.5171L55.4246 89.2167L55.6212 88.9384L55.8602 88.6616L56.3319 88.1789L56.8713 87.6946L57.4484 87.2228L58.0192 86.7794L58.5743 86.3517L59.0806 85.9476L59.2945 85.7651L59.4926 85.5906L59.6593 85.4334L59.7945 85.2997L59.881 85.1959L59.9518 85.0858C60.1055 84.8774 60.3343 84.737 60.5898 84.6943C60.8453 84.6516 61.1073 84.71 61.3204 84.8572C61.5336 85.0043 61.6811 85.2286 61.7318 85.4826C61.7824 85.7366 61.7322 86.0004 61.5918 86.218L61.4582 86.4162L61.2601 86.6457L61.0493 86.869L60.8245 87.075L60.5776 87.281L60.3276 87.498L59.7977 87.9179L59.2426 88.3456L58.6875 88.7827L58.1654 89.2104L57.7063 89.6224L57.3179 90.014L57.1984 90.1712L57.0962 90.3064L57.0396 90.4165L57.016 90.4731V90.4417V90.481L57.0804 90.9402L57.1827 91.4874L57.3399 92.0802L57.5223 92.7233L57.7519 93.4121L58.0208 94.1323L58.3353 94.9012L58.6906 95.7016L59.0948 96.5491L59.5351 97.4046L60.0272 98.3166L60.5729 99.2601L61.1594 100.235L61.7884 101.234L62.4787 102.271L63.2146 103.333L64.0009 104.418L64.8406 105.536L65.7353 106.668L66.6788 107.833L67.6773 109.02L68.2151 109.623L68.7387 110.225L69.2938 110.835L69.8473 111.445L70.4338 112.074L71.0235 112.697Z" fill="#343434"/>
<path d="M67.6627 35.3488C67.7413 36.1963 67.0526 36.9495 66.1327 37.036C65.2128 37.1225 64.3904 36.5061 64.3118 35.6585C64.2332 34.811 64.9203 34.0578 65.8481 33.9697C66.7759 33.8817 67.5841 34.5059 67.6627 35.3488Z" fill="#343434"/>
<path d="M57.0078 90.4336L57.0157 90.465L57.0078 90.4729V90.4336Z" fill="#343434"/>
<path d="M56.4289 45.4974L55.8518 45.6704C53.8076 45.6704 52.1282 44.5618 50.9395 43.0318L50.9473 42.4862C52.3814 42.6591 53.6016 42.5019 54.6631 42.082L55.6207 42.1449C55.8169 43.2788 56.0869 44.3987 56.4289 45.4974Z" fill="white"/>
<path d="M9.36239 60.3215C9.24289 60.0761 6.7631 55.1166 5.59791 53.2233C3.72824 50.2042 2.85709 45.6755 4.49718 45.2603C7.17037 44.5952 7.5399 49.1915 8.98185 51.5832C10.3688 53.8806 12.8564 56.8667 13.0545 57.0963C12.9508 56.7079 11.2635 50.5533 11.0496 49.4997C10.7729 48.0735 8.64849 41.4015 11.4302 41.0084C13.759 40.6845 13.7889 45.9601 14.5673 49.3047C15.3456 52.6494 17.3977 55.5474 17.3977 55.5474C17.3977 55.5474 18.4748 51.2845 20.8351 50.8174C23.925 50.2073 24.631 50.5155 25.9928 51.7122C27.1737 52.75 28.8059 55.8006 27.2759 56.5695C27.1973 56.6088 27.1187 56.6482 27.0464 56.6796C24.488 57.8527 24.9786 55.5474 22.7928 55.8478C20.7015 56.1418 20.5505 58.186 20.8351 59.3968C21.2314 61.0605 22.9108 62.0983 24.4518 61.537C26.3922 60.8231 24.6971 57.686 27.0731 57.5272C27.1389 57.5205 27.2051 57.5179 27.2712 57.5193C29.0937 57.5193 29.7589 61.853 28.872 65.8786C28.4521 67.8111 27.1061 70.4183 26.1469 72.1213L26.1862 72.1448L27.4694 75.6043L27.6046 76.1342L15.0972 79.4144L14.995 79.0103L13.7118 76.0713L13.814 75.7946C8.98185 73.8054 7.19867 67.0076 5.59004 64.4649C4.5931 62.8924 -0.319292 55.0049 1.30507 54.063C3.76126 52.6478 4.64814 55.8132 5.53501 57.5225C6.39829 59.1798 9.18785 60.2586 9.36239 60.3215Z" fill="white"/>
<path d="M73.3464 61.4172C69.1416 61.4172 65.4636 60.0492 62.4036 57.3477C60.6317 55.7479 59.1431 53.86 58.0006 51.7638C56.9556 49.8654 56.1124 47.8626 55.4847 45.7884C55.1279 44.643 54.8469 43.4752 54.6434 42.2928C54.6136 42.0377 54.684 41.781 54.8398 41.5767C54.9957 41.3725 55.2247 41.2368 55.4787 41.1983C55.7327 41.1597 55.9917 41.2213 56.2011 41.3701C56.4105 41.5189 56.5539 41.7432 56.6012 41.9957C56.7911 43.0825 57.0506 44.1561 57.378 45.2098C57.9675 47.1492 58.758 49.0217 59.7367 50.7968C60.8704 52.8237 62.2086 54.5282 63.7181 55.8617C66.5486 58.3588 69.986 59.5444 73.947 59.4249C78.6456 59.2677 82.4997 57.6527 85.4009 54.6131C86.4353 53.5154 87.3252 52.29 88.0489 50.9666C89.1205 48.9812 89.9107 46.8563 90.3966 44.6531C90.6383 43.628 90.8029 42.5862 90.8888 41.5365C90.907 41.2772 91.0264 41.0354 91.2213 40.8633C91.4162 40.6912 91.6709 40.6026 91.9305 40.6167C92.1901 40.6307 92.4338 40.7462 92.609 40.9383C92.7842 41.1304 92.8768 41.3836 92.867 41.6434C92.7764 42.8039 92.5966 43.9558 92.3292 45.0887C91.8016 47.4745 90.9443 49.7751 89.7818 51.9242C88.977 53.3965 87.9866 54.7594 86.835 55.9796C83.5611 59.4092 79.2478 61.2332 74.0131 61.4046C73.7866 61.4141 73.5602 61.4172 73.3464 61.4172Z" fill="#343434"/>
<path d="M55.8492 46.6631C53.6918 46.6631 51.6696 45.5891 50.1553 43.6408C49.9943 43.4323 49.9227 43.1683 49.9564 42.907C49.99 42.6458 50.126 42.4085 50.3345 42.2476C50.5431 42.0866 50.807 42.015 51.0683 42.0487C51.3296 42.0823 51.5668 42.2183 51.7277 42.4268C52.3819 43.2681 53.7893 44.6817 55.857 44.6817C56.1198 44.6817 56.3718 44.7861 56.5575 44.9719C56.7433 45.1577 56.8477 45.4097 56.8477 45.6724C56.8477 45.9351 56.7433 46.1871 56.5575 46.3729C56.3718 46.5587 56.1198 46.6631 55.857 46.6631H55.8492Z" fill="#343434"/>
<path d="M91.9091 45.9844C91.6833 45.9861 91.4637 45.9106 91.2866 45.7704C91.1096 45.6302 90.9858 45.4337 90.9357 45.2136C90.8856 44.9934 90.9122 44.7627 91.0112 44.5597C91.1101 44.3567 91.2755 44.1936 91.4798 44.0975C95.7616 42.0533 97.3986 39.7433 96.9551 36.3814C96.7979 35.147 95.9094 33.9047 94.8449 33.4235C94.5278 33.2655 94.1738 33.1966 93.8206 33.2243C93.4675 33.252 93.1285 33.3752 92.84 33.5808C92.693 33.6825 92.5542 33.7956 92.4248 33.9189C92.2351 34.1003 91.981 34.1989 91.7186 34.193C91.4561 34.1871 91.2068 34.0772 91.0253 33.8874C90.8439 33.6977 90.7453 33.4436 90.7512 33.1812C90.7571 32.9187 90.867 32.6693 91.0568 32.4879C91.2647 32.2902 91.4876 32.1088 91.7235 31.9454C92.2909 31.5475 92.9536 31.307 93.6441 31.2484C94.3347 31.1898 95.0284 31.3153 95.6547 31.6121C97.3294 32.37 98.6691 34.2239 98.9128 36.1188C99.6472 41.6932 95.5069 44.3585 92.3289 45.8775C92.1986 45.9438 92.0552 45.9804 91.9091 45.9844Z" fill="#343434"/>
<path d="M72.9925 43.3476C72.4779 43.3541 71.9683 43.2467 71.5002 43.0331C71.3104 42.943 71.1642 42.7812 71.0938 42.5833C71.0233 42.3855 71.0343 42.1677 71.1244 41.9779C71.2145 41.7882 71.3762 41.642 71.5741 41.5715C71.772 41.501 71.9898 41.512 72.1795 41.6021C72.7 41.8474 73.5145 41.8065 74.1624 41.4983C74.3524 41.4082 74.5703 41.3973 74.7683 41.4679C74.9664 41.5386 75.1282 41.685 75.2183 41.8749C75.3084 42.0649 75.3193 42.2829 75.2487 42.4809C75.1781 42.6789 75.0317 42.8408 74.8417 42.9308C74.2633 43.2035 73.632 43.3458 72.9925 43.3476Z" fill="#343434"/>
<path d="M92.2487 33.4054C92.1055 33.4059 91.964 33.3752 91.8339 33.3154C91.7039 33.2557 91.5884 33.1684 91.4955 33.0595C90.6778 32.105 89.6494 30.641 88.4574 28.9475C85.2213 24.3496 80.7901 18.0518 76.5429 16.0532C76.3856 15.9809 76.2079 15.896 76.0397 15.8394C75.9178 15.7937 75.8062 15.7245 75.7111 15.6358C75.616 15.547 75.5393 15.4403 75.4854 15.3219C75.4316 15.2035 75.4015 15.0756 75.3971 14.9456C75.3926 14.8156 75.4138 14.6859 75.4594 14.5641C75.5051 14.4423 75.5743 14.3306 75.663 14.2355C75.7518 14.1404 75.8585 14.0637 75.9769 14.0099C76.0953 13.956 76.2232 13.9259 76.3532 13.9215C76.4832 13.917 76.6129 13.9382 76.7347 13.9838C76.947 14.064 77.1671 14.16 77.3794 14.2575C82.1094 16.4762 86.7152 23.0271 90.0724 27.8027C91.2344 29.4554 92.2392 30.8816 92.9956 31.7653C93.0803 31.8641 93.1447 31.9786 93.1851 32.1022C93.2255 32.2259 93.2411 32.3563 93.2311 32.486C93.221 32.6157 93.1854 32.7422 93.1264 32.8581C93.0674 32.9741 92.986 33.0772 92.8871 33.1617C92.7104 33.3169 92.4838 33.4034 92.2487 33.4054Z" fill="#343434"/>
<path d="M52.0511 43.5459C51.6427 43.5452 51.2347 43.52 50.8293 43.4704C50.0835 43.3804 49.3469 43.2257 48.6279 43.0081C48.5033 42.9712 48.3871 42.9102 48.2861 42.8284C48.1851 42.7467 48.1011 42.6459 48.0391 42.5317C47.977 42.4175 47.938 42.2922 47.9244 42.163C47.9108 42.0337 47.9227 41.903 47.9596 41.7784C47.9964 41.6538 48.0575 41.5377 48.1392 41.4366C48.221 41.3356 48.3218 41.2517 48.436 41.1896C48.5502 41.1275 48.6755 41.0886 48.8047 41.075C48.934 41.0613 49.0646 41.0733 49.1893 41.1101C49.7983 41.2952 50.4223 41.4268 51.0542 41.5032C52.2807 41.6526 53.339 41.5394 54.2951 41.162C57.9117 39.7311 59.4842 34.6001 61.1589 29.1672C63.2597 22.3144 65.6404 14.5433 73.1474 14.2822C73.259 14.2822 73.399 14.2822 73.5389 14.2822C73.669 14.2822 73.7978 14.3078 73.918 14.3576C74.0382 14.4074 74.1474 14.4804 74.2394 14.5724C74.3314 14.6644 74.4044 14.7736 74.4542 14.8938C74.5039 15.014 74.5296 15.1428 74.5296 15.2729C74.5276 15.4068 74.4988 15.539 74.4451 15.6617C74.3913 15.7844 74.3136 15.8951 74.2165 15.9874C74.1194 16.0796 74.0049 16.1516 73.8796 16.199C73.7544 16.2464 73.6209 16.2684 73.487 16.2635C73.4068 16.2635 73.3298 16.2635 73.2464 16.2635C67.1138 16.4821 65.1435 22.9261 63.0521 29.7506C61.3224 35.3926 59.5329 41.2296 55.0231 43.0081C54.0752 43.373 53.0668 43.5555 52.0511 43.5459Z" fill="#343434"/>
<path d="M88.9697 52.4699C88.7421 52.4703 88.5213 52.3923 88.3445 52.249C88.1676 52.1058 88.0455 51.906 87.9986 51.6833C87.9518 51.4605 87.983 51.2285 88.0871 51.0261C88.1912 50.8237 88.3619 50.6633 88.5703 50.5719C88.6159 50.5531 93.0597 48.5733 96.8462 44.9598C101.768 40.2628 103.322 35.124 101.461 29.688C96.6654 15.6364 91.0627 2.16662 80.1922 5.10085C79.9415 5.16065 79.6774 5.12041 79.4559 4.98867C79.2344 4.85693 79.073 4.64405 79.0059 4.39523C78.9388 4.1464 78.9712 3.88122 79.0964 3.65596C79.2216 3.4307 79.4297 3.26309 79.6765 3.18872C92.2012 -0.184226 98.2316 14.1142 103.341 29.0496C108.401 43.8433 89.5626 52.3064 89.3723 52.3897C89.2452 52.4444 89.1081 52.4717 88.9697 52.4699Z" fill="#343434"/>
<path d="M83.0084 29.62C82.853 29.6207 82.7009 29.5753 82.5712 29.4895C82.5461 29.4722 81.2221 28.6404 80.2817 29.1389C80.0968 29.2379 79.88 29.2594 79.6792 29.1987C79.4784 29.1379 79.3099 28.9999 79.2109 28.8149C79.1118 28.63 79.0903 28.4133 79.1511 28.2124C79.2118 28.0116 79.3499 27.8431 79.5348 27.7441C81.3353 26.788 83.3591 28.1152 83.444 28.1734C83.5891 28.2655 83.7 28.4026 83.7598 28.5638C83.8196 28.7249 83.8249 28.9012 83.7749 29.0657C83.725 29.2301 83.6225 29.3737 83.4833 29.4744C83.344 29.5751 83.1755 29.6273 83.0037 29.6232L83.0084 29.62Z" fill="#343434"/>
<path d="M63.7457 29.6184C63.5742 29.6223 63.4061 29.5701 63.2671 29.4696C63.128 29.3691 63.0257 29.2259 62.9756 29.0618C62.9256 28.8977 62.9305 28.7218 62.9898 28.5608C63.049 28.3998 63.1593 28.2626 63.3038 28.1701C63.3903 28.112 65.4141 26.7832 67.2067 27.7409C67.2985 27.7898 67.3797 27.8563 67.4458 27.9367C67.5119 28.017 67.5615 28.1096 67.5918 28.2091C67.6221 28.3086 67.6325 28.4131 67.6224 28.5166C67.6123 28.6202 67.5819 28.7207 67.533 28.8125C67.484 28.9043 67.4175 28.9855 67.3371 29.0516C67.2568 29.1177 67.1642 29.1673 67.0647 29.1976C66.9652 29.2279 66.8607 29.2383 66.7572 29.2282C66.6536 29.2181 66.5531 29.1877 66.4613 29.1388C65.5178 28.6419 64.1954 29.48 64.1812 29.4894C64.0519 29.5743 63.9004 29.6192 63.7457 29.6184Z" fill="#343434"/>
<path d="M73.5609 32.2021C73.404 32.2025 73.2492 32.1661 73.1089 32.0959C72.9685 32.0257 72.8466 31.9237 72.7527 31.798C71.5938 30.2507 71.1299 20.5297 72.0325 16.7228C72.3344 15.4506 72.781 14.7053 73.4367 14.3782C73.6664 14.2803 73.9247 14.2727 74.1597 14.357C74.3948 14.4413 74.5893 14.6113 74.7044 14.8329C74.8195 15.0546 74.8466 15.3115 74.7804 15.5523C74.7142 15.7931 74.5594 15.9999 74.3472 16.1315C73.9855 16.5089 73.4509 18.7481 73.5248 23.2627C73.5861 27.0696 74.0421 30.1202 74.3424 30.6312C74.4507 30.7776 74.5164 30.951 74.5322 31.1324C74.548 31.3137 74.5132 31.4959 74.4318 31.6587C74.3504 31.8215 74.2255 31.9586 74.0709 32.0548C73.9164 32.151 73.7382 32.2026 73.5562 32.2037L73.5609 32.2021Z" fill="#343434"/>
<path d="M83.0116 27.8468C82.9589 27.8466 82.9063 27.8419 82.8544 27.8326C78.5568 27.1329 75.2908 19.0457 75.2908 15.2655C75.2855 15.1322 75.3072 14.9991 75.3545 14.8744C75.4019 14.7497 75.4739 14.6358 75.5664 14.5396C75.6588 14.4434 75.7697 14.3669 75.8925 14.3146C76.0152 14.2623 76.1473 14.2354 76.2807 14.2354C76.4141 14.2354 76.5461 14.2623 76.6689 14.3146C76.7916 14.3669 76.9026 14.4434 76.995 14.5396C77.0875 14.6358 77.1595 14.7497 77.2069 14.8744C77.2542 14.9991 77.2759 15.1322 77.2706 15.2655C77.2706 18.6416 80.3054 25.411 83.1736 25.8781C83.4195 25.9176 83.6415 26.0484 83.7953 26.2442C83.9492 26.4401 84.0236 26.6867 84.0037 26.935C83.9839 27.1833 83.8713 27.415 83.6883 27.584C83.5053 27.7529 83.2654 27.8468 83.0164 27.8468H83.0116Z" fill="#343434"/>
<path d="M58.3533 52.4697C58.2226 52.4695 58.0932 52.4433 57.9727 52.3927C47.4372 47.9898 44.7876 44.1639 44.0517 39.783C42.7638 32.0418 49.5097 10.6043 61.7451 2.75766C67.7676 -1.0996 74.2493 -0.906192 80.4905 3.32061C80.5983 3.3936 80.6906 3.48712 80.7623 3.59581C80.8339 3.7045 80.8835 3.82624 80.9081 3.95408C80.9327 4.08192 80.9319 4.21335 80.9057 4.34087C80.8795 4.4684 80.8284 4.58951 80.7554 4.6973C80.6824 4.8051 80.5889 4.89746 80.4802 4.96911C80.3715 5.04076 80.2498 5.0903 80.122 5.11491C79.9941 5.13951 79.8627 5.1387 79.7352 5.11251C79.6076 5.08632 79.4865 5.03526 79.3787 4.96227C73.7634 1.15846 68.1906 0.977629 62.8128 4.42605C51.6184 11.6028 44.7719 32.0496 46.0031 39.456C46.6321 43.189 49.0348 46.5085 58.7401 50.5655C58.9512 50.654 59.1251 50.8128 59.2323 51.015C59.3395 51.2173 59.3734 51.4504 59.3282 51.6747C59.283 51.8991 59.1615 52.1009 58.9843 52.2458C58.8072 52.3908 58.5853 52.4699 58.3564 52.4697H58.3533Z" fill="#343434"/>
<path d="M121.27 102.248C120.256 102.248 119.257 101.688 118.476 100.649C117.328 99.1188 116.774 96.661 117.834 95.1939C118.184 94.7268 118.652 94.3624 119.191 94.1388C120.798 93.4296 123.067 93.7237 124.158 93.8667C124.316 93.8872 124.534 93.8982 124.787 93.9139C126.085 93.991 127.046 94.0853 127.601 94.5917C127.788 94.7656 127.901 95.0053 127.916 95.2607C127.931 95.516 127.846 95.7672 127.68 95.9616C127.514 96.156 127.279 96.2786 127.024 96.3037C126.77 96.3289 126.515 96.2546 126.314 96.0965C126.033 95.9723 125.082 95.9157 124.67 95.8905C124.355 95.8716 124.083 95.8543 123.897 95.8292C123.066 95.7207 121.094 95.466 119.988 95.9534C119.772 96.0369 119.582 96.177 119.438 96.3591C119.053 96.8906 119.24 98.364 120.067 99.4584C120.352 99.839 120.924 100.437 121.565 100.215C121.688 100.171 121.818 100.152 121.947 100.158C122.077 100.165 122.204 100.196 122.322 100.252C122.439 100.308 122.545 100.386 122.632 100.482C122.719 100.578 122.787 100.691 122.831 100.813C122.874 100.935 122.894 101.065 122.887 101.195C122.881 101.325 122.849 101.452 122.793 101.57C122.738 101.687 122.66 101.792 122.563 101.88C122.467 101.967 122.355 102.034 122.232 102.078C121.924 102.19 121.598 102.248 121.27 102.248Z" fill="#343434"/>
<path d="M123.895 101.249H123.807C122.607 101.144 121.807 100.88 120.747 100.427C120.627 100.375 120.519 100.301 120.429 100.207C120.338 100.114 120.266 100.003 120.218 99.8824C120.17 99.7614 120.147 99.6321 120.149 99.5018C120.15 99.3716 120.178 99.2431 120.23 99.1235C120.281 99.0039 120.356 98.8957 120.449 98.805C120.543 98.7143 120.653 98.6429 120.774 98.5948C120.895 98.5468 121.025 98.5231 121.155 98.525C121.285 98.527 121.414 98.5545 121.533 98.6062C122.442 98.9946 123.041 99.1927 123.986 99.276C124.238 99.3005 124.472 99.4207 124.638 99.6119C124.804 99.803 124.891 100.051 124.88 100.304C124.87 100.557 124.762 100.796 124.581 100.973C124.399 101.149 124.156 101.249 123.903 101.253L123.895 101.249Z" fill="#343434"/>
<path d="M119.51 95.6165C119.306 95.6166 119.107 95.5535 118.94 95.4358C118.773 95.3181 118.646 95.1516 118.578 94.9592C118.051 93.4936 118.045 92.2545 118.557 91.278C119.029 90.3754 119.916 89.7449 121.188 89.4068C123.248 88.8533 126 89.1285 128.009 89.3297C128.335 89.3628 128.638 89.3926 128.914 89.4162C129.172 89.4434 129.409 89.5709 129.575 89.7714C129.74 89.9718 129.82 90.2292 129.797 90.4879C129.774 90.7467 129.651 90.9862 129.453 91.1549C129.256 91.3236 129 91.4079 128.741 91.3897C128.459 91.3645 128.146 91.3331 127.813 91.3C125.956 91.1129 123.41 90.8597 121.699 91.3189C120.984 91.5107 120.517 91.8064 120.311 92.1979C120.007 92.7782 120.215 93.6572 120.441 94.2909C120.495 94.4403 120.512 94.6005 120.491 94.7578C120.47 94.9152 120.411 95.0652 120.32 95.1951C120.228 95.3251 120.107 95.4312 119.966 95.5045C119.825 95.5778 119.669 95.6162 119.51 95.6165Z" fill="#343434"/>
<path d="M121.348 90.5454C121.144 90.5457 120.944 90.4828 120.777 90.3654C120.61 90.248 120.484 90.0818 120.415 89.8897C119.314 86.8391 120.772 85.5324 121.733 85.026C123.521 84.0653 126.293 84.375 128.123 84.5795C128.559 84.6282 128.973 84.6754 129.166 84.6754C129.299 84.6701 129.432 84.6917 129.557 84.7391C129.682 84.7864 129.796 84.8585 129.892 84.9509C129.988 85.0434 130.065 85.1543 130.117 85.277C130.169 85.3998 130.196 85.5318 130.196 85.6652C130.196 85.7987 130.169 85.9307 130.117 86.0535C130.065 86.1762 129.988 86.2871 129.892 86.3796C129.796 86.472 129.682 86.5441 129.557 86.5914C129.432 86.6388 129.299 86.6604 129.166 86.6551C128.861 86.6551 128.438 86.6079 127.908 86.5482C126.417 86.3815 123.92 86.1032 122.668 86.7746C122.354 86.9445 121.607 87.3329 122.283 89.2214C122.337 89.3707 122.353 89.5307 122.332 89.6879C122.311 89.845 122.252 89.9948 122.161 90.1245C122.07 90.2543 121.948 90.3602 121.808 90.4335C121.667 90.5067 121.511 90.5451 121.352 90.5454H121.348Z" fill="#343434"/>
<path d="M121.383 106.541C121.139 106.54 120.904 106.45 120.723 106.287C120.541 106.124 120.427 105.899 120.4 105.657C120.374 105.415 120.438 105.171 120.58 104.973C120.722 104.775 120.932 104.636 121.17 104.583L121.315 104.547C122.373 104.265 123.389 103.846 124.339 103.302C125.249 102.754 125.819 102.165 125.984 101.592C126.128 101.132 126.446 100.963 126.927 100.707C127.35 100.482 128.342 99.9553 128.558 99.4805C128.759 99.0323 128.641 98.2524 128.243 97.4363L130.019 96.5557L129.125 96.9818L130.026 96.5714C130.416 97.3734 130.978 98.9301 130.358 100.29C129.868 101.38 128.607 102.05 127.852 102.451L127.754 102.501C127.378 103.419 126.572 104.262 125.356 104.992C124.25 105.63 123.065 106.121 121.831 106.451C121.674 106.494 121.587 106.513 121.587 106.513C121.52 106.529 121.451 106.538 121.383 106.541Z" fill="#343434"/>
<path d="M129.383 97.996C129.246 97.9965 129.109 97.986 128.974 97.9646C128.846 97.9397 128.724 97.8899 128.616 97.8179C128.507 97.746 128.413 97.6533 128.341 97.5453C128.268 97.4372 128.217 97.3159 128.191 97.1882C128.165 97.0605 128.164 96.9289 128.189 96.8009C128.214 96.673 128.264 96.5513 128.336 96.4426C128.408 96.3339 128.501 96.2405 128.609 96.1676C128.717 96.0948 128.838 96.0439 128.966 96.0179C129.093 95.992 129.225 95.9914 129.353 96.0163C129.595 96.0367 130.347 95.9613 131.007 94.6671C131.793 93.1135 130.982 92.321 130.974 92.3084C130.829 92.1727 130.728 91.9964 130.685 91.8026C130.641 91.6088 130.657 91.4063 130.729 91.2215C130.802 91.0367 130.929 90.8781 131.093 90.7663C131.258 90.6544 131.452 90.5946 131.65 90.5944C131.741 90.5944 132.743 90.4953 133.185 88.9307C133.356 88.3395 132.927 87.0689 132.583 86.3943C132.487 86.2068 132.454 85.9937 132.488 85.7859C132.521 85.5782 132.62 85.3865 132.77 85.2386C133.242 84.7668 133.822 83.8595 133.654 83.4334C132.71 81.059 131.624 80.9725 127.98 81.0527L126.95 81.0715H126.867C125.425 81.0857 124.23 82.0748 123.595 82.9962C123.293 83.6855 123.061 84.4036 122.904 85.1395C123.003 85.2961 123.056 85.4773 123.058 85.6625C123.059 85.8478 123.008 86.0297 122.911 86.1876C122.814 86.3455 122.675 86.473 122.509 86.5557C122.343 86.6384 122.158 86.6729 121.973 86.6554C121.772 86.6368 121.58 86.5651 121.416 86.4476C121.252 86.3302 121.122 86.1713 121.039 85.9871C120.514 84.8518 121.859 82.026 121.961 81.8798C123.127 80.1862 125.003 79.1201 126.851 79.1028H126.931L127.935 79.0839C131.457 79.01 134.007 78.9566 135.482 82.7163C136.006 84.0404 135.193 85.3895 134.619 86.127C134.957 86.9494 135.405 88.3584 135.077 89.4858C134.652 90.9923 133.839 91.7675 133.111 92.159C133.397 92.9673 133.493 94.1262 132.757 95.5666C131.677 97.6988 130.145 97.996 129.383 97.996Z" fill="#343434"/>
<path d="M86.0522 64.0129H86.0428C85.7803 64.0104 85.5296 63.9039 85.3456 63.7166C85.1616 63.5294 85.0595 63.2769 85.0616 63.0144L85.1244 55.2888C85.1269 55.0277 85.2324 54.7782 85.4179 54.5944C85.6034 54.4107 85.854 54.3076 86.1151 54.3076C86.2452 54.3086 86.3738 54.3353 86.4936 54.386C86.6134 54.4368 86.7221 54.5106 86.8133 54.6033C86.9046 54.696 86.9767 54.8058 87.0255 54.9264C87.0743 55.047 87.0989 55.176 87.0979 55.3061L87.0334 63.0301C87.0318 63.29 86.9279 63.5388 86.7443 63.7227C86.5607 63.9066 86.3121 64.0108 86.0522 64.0129Z" fill="#343434"/>
<path d="M62.95 64.0449C62.6889 64.0449 62.4384 63.9418 62.2528 63.7581C62.0673 63.5743 61.9618 63.3247 61.9594 63.0636L61.9043 56.8115C61.9022 56.549 62.0044 56.2965 62.1884 56.1092C62.3723 55.922 62.6231 55.8155 62.8855 55.813H62.895C63.1559 55.813 63.4063 55.9161 63.5916 56.0999C63.7769 56.2837 63.882 56.5333 63.8841 56.7942L63.9407 63.0463C63.9428 63.3088 63.8406 63.5614 63.6566 63.7486C63.4727 63.9358 63.2219 64.0424 62.9595 64.0449H62.95Z" fill="#343434"/>
<path d="M57.9936 83.6531C57.8159 83.6535 57.6413 83.6059 57.4883 83.5154C57.3352 83.4249 57.2094 83.2949 57.1241 83.1389L54.2936 77.9639C54.2244 77.8377 54.1835 77.6978 54.174 77.5541C54.1645 77.4104 54.1866 77.2664 54.2386 77.1321L58.294 66.6186C58.3928 66.3794 58.5813 66.1885 58.8191 66.0865C59.0569 65.9845 59.3252 65.9797 59.5666 66.0729C59.8079 66.1662 60.0032 66.3502 60.1107 66.5855C60.2181 66.8209 60.2292 67.089 60.1416 67.3325L56.2513 77.4167L58.8664 82.186C58.949 82.3367 58.9911 82.5063 58.9883 82.6782C58.9856 82.85 58.9382 83.0182 58.8508 83.1662C58.7634 83.3142 58.639 83.4369 58.4898 83.5223C58.3406 83.6077 58.1718 83.6528 57.9999 83.6531H57.9936Z" fill="#343434"/>
<path d="M113.047 79.0901C112.851 79.0903 112.659 79.0321 112.496 78.9229C112.332 78.8137 112.205 78.6584 112.131 78.4769C108.924 70.6853 106.584 69.2575 101.183 67.4145C99.9565 66.9915 98.5256 66.5654 96.8053 66.1109C91.6775 64.7791 86.6833 64.0086 86.633 64.0007C86.5046 63.9811 86.3812 63.9364 86.2701 63.8691C86.1589 63.8018 86.0621 63.7133 85.9852 63.6086C85.9082 63.5039 85.8526 63.3851 85.8216 63.2589C85.7906 63.1327 85.7847 63.0017 85.8043 62.8732C85.8239 62.7448 85.8687 62.6215 85.9359 62.5103C86.0032 62.3992 86.0917 62.3023 86.1964 62.2254C86.3011 62.1484 86.4199 62.0929 86.5461 62.0618C86.6723 62.0308 86.8033 62.0249 86.9318 62.0445C86.9837 62.0445 92.0737 62.8308 97.3101 64.1941C99.0822 64.6658 100.557 65.103 101.828 65.5401C107.589 67.5042 110.476 69.2512 113.966 77.7221C114.028 77.8725 114.052 78.036 114.036 78.198C114.02 78.3601 113.965 78.5156 113.874 78.651C113.784 78.7863 113.661 78.8972 113.517 78.9738C113.374 79.0504 113.213 79.0904 113.05 79.0901H113.047Z" fill="#343434"/>
<path d="M31.8138 82.702C31.6597 82.7023 31.5078 82.6662 31.3703 82.5966C31.254 82.5385 31.1502 82.458 31.065 82.3597C30.9798 82.2614 30.9148 82.1473 30.8738 82.0239C30.8327 81.9005 30.8164 81.7702 30.8258 81.6405C30.8352 81.5107 30.8701 81.3841 30.9285 81.2679C32.8233 77.494 35.4886 72.7105 39.3616 69.3281C44.2362 65.0825 59.7424 62.5398 62.8008 62.0759C62.958 62.0476 63.0571 62.0382 63.0571 62.0382C63.3145 62.0165 63.5702 62.0962 63.7697 62.2603C63.9692 62.4245 64.0967 62.66 64.125 62.9168C64.1533 63.1736 64.0801 63.4312 63.9212 63.6349C63.7623 63.8385 63.5301 63.972 63.2741 64.0069C63.2584 64.0069 63.2065 64.0069 63.1169 64.0305C61.2849 64.3104 45.2206 66.8499 40.6667 70.8204C37.0579 73.9748 34.5137 78.5349 32.6991 82.1516C32.6177 82.3169 32.4916 82.4561 32.3351 82.5534C32.1786 82.6507 31.998 82.7021 31.8138 82.702Z" fill="#343434"/>
<path d="M41.2121 119.352H41.1177C40.9883 119.339 40.8626 119.302 40.7478 119.241C40.6329 119.18 40.5312 119.097 40.4484 118.997C40.3656 118.897 40.3033 118.781 40.2652 118.657C40.2271 118.533 40.2138 118.402 40.2262 118.273C40.8221 112.024 41.3631 108.406 41.7986 105.5C41.9559 104.41 42.1131 103.445 42.2279 102.512C42.2401 102.38 42.2789 102.251 42.3419 102.134C42.405 102.017 42.4909 101.913 42.5948 101.83C42.6986 101.747 42.8181 101.685 42.9462 101.649C43.0743 101.613 43.2083 101.603 43.3403 101.62C43.4722 101.637 43.5995 101.681 43.7143 101.748C43.8292 101.815 43.9293 101.904 44.0088 102.011C44.0883 102.118 44.1455 102.239 44.177 102.369C44.2084 102.498 44.2135 102.632 44.1919 102.764C44.0693 103.715 43.923 104.693 43.7579 105.797C43.3271 108.681 42.7909 112.269 42.1996 118.466C42.1736 118.71 42.0582 118.935 41.8758 119.099C41.6935 119.262 41.457 119.352 41.2121 119.352Z" fill="#343434"/>
<path d="M117.559 119.351C117.388 119.352 117.219 119.307 117.069 119.222C116.92 119.137 116.795 119.015 116.707 118.867C116.619 118.72 116.572 118.551 116.569 118.38C116.565 118.208 116.607 118.038 116.69 117.887L124.335 103.872C124.46 103.642 124.669 103.47 124.919 103.392C125.168 103.313 125.438 103.336 125.672 103.454C125.902 103.569 126.077 103.771 126.158 104.016C126.24 104.26 126.222 104.526 126.107 104.757L118.429 118.836C118.344 118.992 118.218 119.122 118.065 119.213C117.912 119.304 117.737 119.352 117.559 119.351Z" fill="#343434"/>
<path d="M73.8349 55.4697C73.3201 55.4743 72.8104 55.367 72.341 55.1552C72.1507 55.066 72.0035 54.9048 71.932 54.707C71.8605 54.5093 71.8705 54.2913 71.9597 54.1009C72.049 53.9105 72.2102 53.7634 72.4079 53.6919C72.6057 53.6204 72.8237 53.6303 73.0141 53.7196C73.5424 53.968 74.3554 53.9271 74.9969 53.6205C75.0907 53.5755 75.1924 53.5494 75.2962 53.5437C75.4001 53.538 75.504 53.5528 75.6022 53.5872C75.7003 53.6217 75.7907 53.6751 75.8681 53.7445C75.9456 53.8139 76.0086 53.8979 76.0536 53.9916C76.0987 54.0854 76.1248 54.1871 76.1305 54.2909C76.1362 54.3948 76.1214 54.4987 76.0869 54.5968C76.0525 54.6949 75.999 54.7853 75.9296 54.8628C75.8603 54.9403 75.7763 55.0033 75.6825 55.0483C75.1055 55.3239 74.4744 55.4678 73.8349 55.4697Z" fill="#343434"/>
<path d="M73.9672 75.9152C70.33 75.9152 67.1159 75.2862 64.6519 74.1115C64.5846 74.0825 64.5198 74.0478 64.4584 74.0077C64.2476 73.8656 64.0995 73.6479 64.0447 73.3996C63.99 73.1513 64.0328 72.8914 64.1643 72.6738C64.2959 72.4562 64.506 72.2975 64.7513 72.2306C64.9966 72.1636 65.2583 72.1936 65.4821 72.3142L65.5309 72.3378C67.7905 73.4212 70.8411 73.97 74.3524 73.9323C78.7396 73.8804 81.2713 73.4055 83.0953 72.2938C83.3197 72.157 83.5892 72.1149 83.8446 72.1768C84.1 72.2388 84.3203 72.3996 84.4571 72.624C84.5939 72.8483 84.6359 73.1179 84.574 73.3732C84.5121 73.6286 84.3512 73.8489 84.1269 73.9857C81.9742 75.2987 79.15 75.857 74.3776 75.912L73.9672 75.9152Z" fill="#343434"/>
<path d="M74.9296 115.826C74.7077 115.826 74.4922 115.751 74.3177 115.614C74.1432 115.477 74.0198 115.285 73.9673 115.07C73.9028 114.804 67.5202 88.3896 64.1158 73.4402C62.2288 65.1281 61.9709 63.5336 61.9615 63.0776C61.9541 62.9451 61.9734 62.8124 62.0183 62.6874C62.0632 62.5625 62.1327 62.4478 62.2228 62.3503C62.3129 62.2528 62.4216 62.1743 62.5426 62.1197C62.6636 62.065 62.7943 62.0352 62.927 62.032C63.0597 62.0289 63.1917 62.0524 63.3152 62.1013C63.4386 62.1501 63.551 62.2233 63.6456 62.3164C63.7402 62.4095 63.8151 62.5207 63.8659 62.6434C63.9167 62.7661 63.9423 62.8977 63.9412 63.0304C63.9522 63.3449 64.24 65.0495 66.0468 72.9999C68.6193 84.2792 72.8839 102.1 74.8526 110.267C76.5194 102.075 80.1691 84.2399 82.652 72.9323C84.4258 64.8545 84.918 63.1987 85.1318 62.653C85.2331 62.4154 85.4233 62.2268 85.6617 62.1274C85.9 62.0279 86.1678 62.0255 86.408 62.1207C86.6481 62.2158 86.8416 62.401 86.9472 62.6368C87.0527 62.8725 87.0621 63.1402 86.9732 63.3827C86.7719 63.8906 86.1869 66.0307 84.5799 73.349C81.2918 88.322 75.9533 114.762 75.8999 115.027C75.8542 115.245 75.7362 115.442 75.5649 115.585C75.3937 115.727 75.1792 115.808 74.9564 115.814L74.9296 115.826Z" fill="#343434"/>
<path d="M73.3775 52.002C70.5722 52.002 68.311 49.6008 67.5028 48.3256C67.362 48.1037 67.3152 47.835 67.3725 47.5786C67.4299 47.3222 67.5868 47.0991 67.8086 46.9583C68.0305 46.8176 68.2992 46.7707 68.5556 46.8281C68.812 46.8854 69.0351 47.0423 69.1759 47.2642C69.8536 48.335 71.588 50.0207 73.3775 50.0207H73.4058C75.1072 50.0018 76.9376 47.9938 77.5571 47.0236C77.6236 46.9067 77.7131 46.8045 77.8203 46.7234C77.9275 46.6422 78.05 46.5837 78.1805 46.5514C78.3111 46.5192 78.4468 46.5138 78.5794 46.5356C78.7121 46.5575 78.8389 46.6061 78.9522 46.6786C79.0654 46.751 79.1627 46.8458 79.2382 46.957C79.3137 47.0683 79.3657 47.1937 79.3911 47.3258C79.4166 47.4578 79.4149 47.5936 79.3861 47.7249C79.3574 47.8563 79.3022 47.9804 79.2239 48.0897C78.367 49.4294 76.0539 51.9721 73.4247 52.002H73.3775Z" fill="#343434"/>
<path d="M16.4496 118.71C16.2188 118.71 15.9952 118.629 15.8178 118.481C15.6403 118.334 15.52 118.129 15.4778 117.902C12.6945 102.974 11.0906 80.5005 11.0749 80.2756C11.058 80.0452 11.1226 79.8161 11.2574 79.6284C11.3922 79.4408 11.5886 79.3064 11.8124 79.2488L30.1128 74.4638C30.2426 74.4296 30.378 74.4222 30.5107 74.442C30.6435 74.4618 30.7708 74.5085 30.885 74.5791C30.9992 74.6497 31.0978 74.7428 31.1748 74.8527C31.2518 74.9627 31.3056 75.0871 31.333 75.2186L36.4184 99.6862C36.4503 99.8156 36.4558 99.9501 36.4345 100.082C36.4132 100.213 36.3656 100.339 36.2946 100.452C36.2235 100.565 36.1304 100.662 36.0209 100.738C35.9114 100.814 35.7877 100.867 35.6572 100.894C35.5267 100.921 35.3921 100.921 35.2614 100.895C35.1308 100.868 35.0068 100.816 34.8968 100.741C34.7869 100.666 34.6932 100.569 34.6215 100.457C34.5498 100.344 34.5015 100.219 34.4795 100.087L29.6064 76.6479L13.1112 80.9565C13.4273 85.1393 14.9636 104.333 17.423 117.532C17.4713 117.79 17.4158 118.056 17.2684 118.272C17.1211 118.489 16.894 118.638 16.6367 118.688C16.5752 118.701 16.5125 118.708 16.4496 118.71Z" fill="#343434"/>
<path d="M129.605 63.8858C129.452 63.8862 129.301 63.8511 129.164 63.7832C129.027 63.7153 128.907 63.6165 128.814 63.4946C128.722 63.3726 128.659 63.2309 128.631 63.0805C128.602 62.9301 128.609 62.7751 128.651 62.6278C128.821 62.055 128.949 61.4706 129.034 60.8793C129.04 60.7493 129.071 60.6216 129.126 60.5036C129.18 60.3856 129.258 60.2796 129.354 60.1915C129.449 60.1035 129.562 60.0351 129.684 59.9905C129.806 59.9458 129.936 59.9256 130.066 59.9311C130.196 59.9365 130.323 59.9675 130.441 60.0223C130.559 60.0772 130.665 60.1547 130.753 60.2504C130.842 60.3462 130.91 60.4584 130.955 60.5806C130.999 60.7028 131.019 60.8326 131.014 60.9626C130.986 61.5916 130.629 62.9046 130.558 63.164C130.499 63.3717 130.375 63.5546 130.203 63.6849C130.031 63.8151 129.821 63.8857 129.605 63.8858Z" fill="#343434"/>
<path d="M133.523 68.204C133.34 68.2037 133.161 68.1529 133.006 68.0573C132.851 67.9617 132.725 67.8249 132.642 67.6622C132.56 67.4994 132.524 67.317 132.538 67.1351C132.553 66.9532 132.618 66.7789 132.726 66.6315L134.141 64.6974C134.215 64.5869 134.312 64.4927 134.424 64.4204C134.536 64.348 134.661 64.299 134.792 64.2762C134.924 64.2535 135.058 64.2575 135.188 64.288C135.318 64.3185 135.44 64.3749 135.547 64.4538C135.655 64.5326 135.745 64.6324 135.813 64.747C135.881 64.8617 135.926 64.9889 135.943 65.121C135.961 65.2532 135.952 65.3875 135.916 65.516C135.881 65.6445 135.82 65.7645 135.737 65.8688L134.322 67.803C134.229 67.9278 134.109 68.0292 133.97 68.0989C133.831 68.1685 133.678 68.2045 133.523 68.204Z" fill="#343434"/>
<path d="M137.404 72.4493C137.152 72.4517 136.908 72.3576 136.723 72.1862C136.537 72.0148 136.425 71.779 136.408 71.5272C136.39 71.2754 136.47 71.0266 136.631 70.8317C136.791 70.6368 137.02 70.5107 137.27 70.479C137.861 70.3953 138.456 70.3502 139.052 70.3438C139.314 70.3563 139.561 70.4726 139.738 70.667C139.915 70.8615 140.007 71.1183 139.995 71.3808C139.982 71.6433 139.866 71.8901 139.671 72.0669C139.477 72.2437 139.22 72.336 138.958 72.3235C138.484 72.3285 138.011 72.3674 137.542 72.4399C137.496 72.4463 137.45 72.4494 137.404 72.4493Z" fill="#343434"/>
<path d="M108.182 82.9633C107.947 82.9635 107.718 82.889 107.528 82.7506C107.338 82.6122 107.197 82.4169 107.125 82.1931C107.053 81.9693 107.055 81.7285 107.129 81.5054C107.203 81.2823 107.346 81.0886 107.537 80.9521L116.925 74.2424C122.007 70.2845 125.275 71.6604 126.441 72.4372C128.306 73.6794 129.151 76.0177 128.544 78.2553L128.008 80.3263C127.971 80.4672 127.907 80.5996 127.82 80.7158C127.732 80.8321 127.622 80.93 127.497 81.0038C127.372 81.0777 127.233 81.1262 127.089 81.1465C126.944 81.1667 126.798 81.1584 126.657 81.1219C126.516 81.0855 126.384 81.0216 126.267 80.934C126.151 80.8464 126.053 80.7368 125.979 80.6113C125.905 80.4859 125.857 80.3472 125.837 80.203C125.816 80.0589 125.825 79.9121 125.861 79.7712L126.397 77.6861C126.753 76.3778 126.264 74.9846 125.21 74.2848C123.589 73.2045 121.053 73.8383 118.25 76.0146L108.825 82.7526C108.638 82.8886 108.413 82.9623 108.182 82.9633Z" fill="#343434"/>
<path d="M99.8782 123.069C99.6257 123.069 99.3736 123.052 99.1234 123.018L99.0636 123.009C98.8006 122.969 98.5606 122.836 98.3874 122.634C98.2143 122.432 98.1194 122.174 98.1202 121.908C98.1186 121.744 98.1536 121.582 98.2226 121.434C98.2916 121.285 98.3928 121.154 98.5189 121.05C98.645 120.946 98.7927 120.871 98.9514 120.83C99.1102 120.79 99.2758 120.786 99.4363 120.818C100.095 120.916 100.768 120.8 101.356 120.488L117.587 110.775C119.065 109.951 119.68 109.083 120.05 107.323L121.596 100.143C121.657 99.8557 121.83 99.604 122.076 99.4437C122.323 99.2835 122.623 99.2277 122.911 99.2888C123.199 99.3499 123.45 99.5228 123.611 99.7695C123.771 100.016 123.827 100.316 123.766 100.604L122.22 107.787C121.721 110.155 120.701 111.578 118.697 112.695L102.462 122.407C101.671 122.844 100.782 123.072 99.8782 123.069Z" fill="#343434"/>
<path d="M99.4899 123.1C99.3168 123.099 99.1444 123.078 98.9757 123.039C97.7885 122.781 97.7382 122.069 97.8137 121.666C97.8891 121.264 98.1989 120.621 99.3971 120.817C99.4369 120.823 99.4763 120.832 99.5151 120.842C100.688 121.166 100.699 121.879 100.6 122.275C100.518 122.607 100.265 123.1 99.4899 123.1Z" fill="#343434"/>
<path d="M99.2215 123.022C99.1149 123.023 99.0089 123.007 98.907 122.976C97.7742 122.661 96.7785 121.978 96.0766 121.034L85.3555 105.387C84.0205 103.552 83.6871 101.831 84.2217 99.4757L90.8135 69.9431C91.0585 68.5352 91.8498 67.2811 93.015 66.4538C93.5665 66.0631 94.1907 65.7868 94.8508 65.6412C95.5108 65.4957 96.1934 65.4838 96.8581 65.6062C98.5123 65.9066 100.928 67.1268 103.061 71.2435L108.766 81.2256C108.839 81.352 108.885 81.4913 108.904 81.6358C108.922 81.7802 108.912 81.9268 108.874 82.0673C108.835 82.2077 108.77 82.3393 108.681 82.4544C108.592 82.5696 108.481 82.666 108.354 82.7383C108.228 82.8106 108.089 82.8572 107.944 82.8757C107.8 82.8941 107.653 82.8839 107.513 82.8456C107.372 82.8073 107.241 82.7418 107.126 82.6527C107.01 82.5636 106.914 82.4527 106.842 82.3263L101.113 72.3034C99.7498 69.6758 98.1082 68.0876 96.4665 67.7904C96.0915 67.7185 95.7057 67.7232 95.3325 67.8042C94.9593 67.8853 94.6064 68.0411 94.2949 68.2621C93.5984 68.7622 93.129 69.5184 92.9898 70.3645L86.3854 99.9584C85.9892 101.71 86.1857 102.754 87.1717 104.103L97.9022 119.753C98.3101 120.284 98.8814 120.667 99.5281 120.842C99.7853 120.917 100.007 121.082 100.152 121.307C100.297 121.532 100.356 121.802 100.317 122.067C100.279 122.332 100.146 122.575 99.9434 122.749C99.7406 122.924 99.4814 123.02 99.2136 123.019L99.2215 123.022Z" fill="#343434"/>
<path d="M99.285 122.918C99.2047 122.918 99.1246 122.91 99.046 122.893C98.759 122.829 98.5089 122.654 98.3504 122.407C98.1918 122.159 98.1378 121.859 98.2 121.572L101.079 108.398C103.616 96.7976 106.767 82.389 106.897 81.7758C106.944 81.4999 107.093 81.2519 107.315 81.0815C107.537 80.911 107.815 80.8308 108.094 80.8569C108.372 80.8829 108.631 81.0134 108.817 81.222C109.003 81.4306 109.104 81.702 109.099 81.9818C109.099 82.117 109.099 82.117 103.248 108.871L100.367 122.045C100.313 122.292 100.176 122.513 99.9797 122.672C99.783 122.831 99.5378 122.918 99.285 122.918Z" fill="#343434"/>
<path d="M27.471 76.6023C27.2688 76.6023 27.0715 76.5403 26.9057 76.4248C26.7398 76.3092 26.6133 76.1456 26.5432 75.956L25.2601 72.4966C25.1688 72.2505 25.1789 71.9783 25.2883 71.7397C25.3977 71.5011 25.5974 71.3158 25.8435 71.2244C26.0895 71.1331 26.3618 71.1433 26.6004 71.2527C26.8389 71.3621 27.0243 71.5618 27.1156 71.8078L28.4003 75.2673C28.4913 75.5135 28.4808 75.7859 28.3711 76.0244C28.2614 76.2629 28.0615 76.4481 27.8154 76.5394C27.7053 76.5809 27.5886 76.6022 27.471 76.6023Z" fill="#343434"/>
<path d="M14.9952 79.9999C14.8024 80.0002 14.6138 79.9441 14.4526 79.8385C14.2914 79.7329 14.1646 79.5824 14.0878 79.4056L12.8031 76.4666C12.7132 76.2284 12.7184 75.9648 12.8177 75.7303C12.917 75.4959 13.1027 75.3087 13.3364 75.2075C13.57 75.1064 13.8336 75.0991 14.0725 75.1871C14.3114 75.2751 14.5072 75.4518 14.6193 75.6804L15.9025 78.6193C15.9682 78.77 15.9955 78.9347 15.9817 79.0986C15.9679 79.2625 15.9136 79.4203 15.8235 79.5579C15.7335 79.6955 15.6107 79.8086 15.466 79.8868C15.3214 79.9651 15.1596 80.0061 14.9952 80.0062V79.9999Z" fill="#343434"/>
<path d="M25.12 74.8585C24.9424 74.8588 24.768 74.8113 24.6151 74.721C24.4622 74.6306 24.3364 74.5008 24.251 74.3451C24.1656 74.1894 24.1237 74.0135 24.1297 73.836C24.1357 73.6585 24.1893 73.4859 24.2851 73.3363C24.2851 73.3363 24.7222 72.6476 25.2867 71.6412C26.7019 69.1252 27.6045 67.0684 27.908 65.6658C28.5999 62.5209 28.2382 59.5929 27.5039 58.6809C27.452 58.6164 27.3467 58.5079 27.2743 58.5079C27.2523 58.5079 27.1642 58.5079 27.1422 58.5079C26.7664 58.5331 26.6972 58.5378 26.5636 59.6008C26.4488 60.5223 26.2742 61.9139 24.7961 62.458C24.3183 62.632 23.8089 62.7016 23.3019 62.6623C22.795 62.623 22.3024 62.4755 21.8572 62.23C21.3606 61.9593 20.9269 61.5867 20.5846 61.1366C20.2424 60.6864 19.9992 60.1689 19.8711 59.6181C19.7595 59.1464 19.4686 57.5141 20.3617 56.209C20.8728 55.4652 21.6638 54.9982 22.6528 54.8598C24.0759 54.668 24.7977 55.2907 25.2757 55.7042C25.6846 56.0596 25.7946 56.1571 26.6327 55.7718L26.8262 55.6775C26.8623 55.6602 26.8843 55.6476 26.8985 55.5344C26.9991 54.756 26.0887 53.1096 25.337 52.4476C24.2803 51.5199 23.9218 51.207 21.0253 51.7809C19.6101 52.0608 18.5974 54.8331 18.3521 55.7828C18.3052 55.9661 18.2068 56.1321 18.0685 56.2612C17.9302 56.3903 17.7578 56.4771 17.5717 56.5114C17.3857 56.5456 17.1937 56.5258 17.0185 56.4544C16.8433 56.383 16.6922 56.2629 16.5831 56.1083C16.4935 55.9825 14.4194 53.0043 13.5954 49.5228C13.3894 48.6485 13.2353 47.6532 13.0859 46.6924C12.8249 45.0083 12.339 41.8492 11.5591 41.9828C11.4999 41.9868 11.4425 42.005 11.3918 42.036C11.3412 42.0669 11.2987 42.1096 11.2682 42.1605C10.5275 43.2613 11.449 46.9739 11.7965 48.3734C11.894 48.7681 11.9726 49.0873 12.0135 49.298C12.1881 50.1581 13.4492 54.7906 13.8627 56.3143L14.0027 56.8301C14.0408 56.9572 14.053 57.0907 14.0385 57.2226C14.0241 57.3545 13.9833 57.4821 13.9185 57.5979C13.8538 57.7138 13.7664 57.8154 13.6617 57.8968C13.5569 57.9782 13.4369 58.0378 13.3086 58.0719C13.1804 58.1061 13.0466 58.1141 12.9153 58.0955C12.7839 58.077 12.6576 58.0322 12.5438 57.9639C12.43 57.8956 12.3312 57.8052 12.253 57.6979C12.1749 57.5907 12.1191 57.4688 12.089 57.3396L11.9522 56.8332C11.2257 54.16 10.2398 50.5182 10.0652 49.6848C10.0259 49.4882 9.95516 49.2021 9.8671 48.8498C9.15163 45.9612 8.48176 42.7376 9.62022 41.0519C9.80904 40.7718 10.0561 40.5357 10.3446 40.3598C10.6331 40.1839 10.9562 40.0725 11.2918 40.033C14.0058 39.6509 14.5593 43.2377 15.05 46.3999C15.193 47.3245 15.3424 48.2869 15.5217 49.0825C15.8908 50.538 16.443 51.9408 17.1649 53.2575C17.8159 51.8422 18.9292 50.1864 20.6244 49.8499C23.9485 49.1942 24.9911 49.5354 26.628 50.9727C27.6706 51.8894 29.0591 54.1365 28.8452 55.7986C28.8011 56.1906 28.6517 56.5634 28.4128 56.8773C28.6479 57.0327 28.8566 57.2249 29.0308 57.4465C30.4224 59.1762 30.4837 63.1074 29.8249 66.0951C29.3909 68.0969 28.0464 70.7433 26.9944 72.6114C26.4016 73.6665 25.955 74.371 25.9361 74.3993C25.8488 74.5375 25.7285 74.6518 25.5861 74.732C25.4436 74.8121 25.2835 74.8556 25.12 74.8585ZM23.178 56.8144C23.0943 56.8159 23.0108 56.8227 22.928 56.8348C22.4972 56.8961 22.1921 57.0613 22.0003 57.3427C21.6543 57.8475 21.6763 58.6463 21.8006 59.1762C21.8646 59.4547 21.9866 59.7165 22.1587 59.9447C22.3307 60.1728 22.5489 60.3621 22.7991 60.5002C22.9982 60.6121 23.219 60.6799 23.4466 60.6992C23.6742 60.7184 23.9033 60.6887 24.1184 60.6119C24.3998 60.5081 24.4863 60.288 24.6027 59.3681C24.6452 58.8493 24.7688 58.3405 24.9691 57.8601C24.6053 57.7027 24.2708 57.4847 23.98 57.2154C23.6749 56.9512 23.5177 56.8144 23.178 56.8144Z" fill="#343434"/>
<path d="M9.36431 61.3176C9.23509 61.3177 9.10714 61.2921 8.98785 61.2425C8.86855 61.1928 8.76028 61.12 8.66928 61.0283L8.66142 61.0204C8.58379 60.9417 8.51952 60.8509 8.47115 60.7515C8.29975 60.3977 5.85928 55.5341 4.75541 53.7414C3.25056 51.312 2.11367 47.4877 2.8999 45.5457C3.00895 45.2441 3.1893 44.9734 3.42559 44.7565C3.66188 44.5397 3.9471 44.3832 4.25694 44.3003C6.97259 43.6163 8.02143 46.5159 8.78722 48.6278C9.10171 49.5068 9.43665 50.4172 9.82977 51.0698C11.2356 53.3986 13.7798 56.4162 13.805 56.4492C13.9619 56.6344 14.0492 56.8685 14.0518 57.1112C14.0546 57.3253 13.9879 57.5344 13.8617 57.7073C13.7355 57.8802 13.5566 58.0074 13.3519 58.07C13.1472 58.1325 12.9278 58.127 12.7265 58.0542C12.5252 57.9814 12.353 57.8453 12.2356 57.6663C11.7781 57.1191 9.47124 54.3185 8.12836 52.0935C7.6346 51.2742 7.26979 50.271 6.91913 49.3024C6.06842 46.9562 5.57309 46.0002 4.73025 46.2203C4.35286 46.6449 4.64848 49.8166 6.43481 52.7005C7.57642 54.556 9.96499 59.3127 10.2339 59.8599C10.3137 60.0111 10.3532 60.1804 10.3484 60.3513C10.3437 60.5223 10.2949 60.6891 10.2069 60.8357C10.1188 60.9822 9.99438 61.1036 9.84568 61.188C9.69699 61.2724 9.52902 61.3171 9.35803 61.3176H9.36431Z" fill="#343434"/>
<path d="M14.7021 77.0854C14.6183 77.0857 14.5348 77.0751 14.4537 77.0539C14.1063 76.9627 13.7658 76.8471 13.4347 76.708C9.46108 75.0742 7.45933 70.6776 5.98593 67.4666C5.52362 66.4539 5.12264 65.5796 4.75311 64.9947C1.24494 59.4517 -0.336968 55.8382 0.053004 54.25C0.0996202 54.0331 0.190787 53.8284 0.320719 53.6486C0.450651 53.4689 0.616509 53.3181 0.807787 53.2059C1.6522 52.7168 2.46674 52.5942 3.22782 52.8363C4.66977 53.2955 5.41826 54.9277 6.01895 56.2391C6.15418 56.5348 6.28469 56.8178 6.41364 57.0678C6.95928 58.1151 8.86354 59.0853 9.70009 59.3904C9.82234 59.4349 9.93463 59.503 10.0305 59.5909C10.1265 59.6788 10.2041 59.7847 10.2591 59.9026C10.3141 60.0206 10.3453 60.1481 10.3509 60.2781C10.3566 60.4081 10.3366 60.5379 10.2921 60.6601C10.2476 60.7824 10.1795 60.8947 10.0916 60.9906C10.0037 61.0865 9.89777 61.1642 9.77986 61.2191C9.66195 61.2741 9.53436 61.3053 9.40439 61.311C9.27442 61.3167 9.14461 61.2967 9.02236 61.2522C8.8887 61.2034 5.72018 60.0335 4.65719 57.9814C4.51252 57.7031 4.36785 57.3902 4.21847 57.0647C3.80334 56.1574 3.23411 54.9167 2.62713 54.7233C2.39892 54.6764 2.16144 54.7156 1.96041 54.8334C1.92581 55.6479 3.04384 58.59 6.42621 63.9348C6.86808 64.633 7.29422 65.5655 7.78797 66.6442C9.11671 69.5548 10.9329 73.5395 14.1911 74.8776C14.4371 74.9822 14.6904 75.0689 14.949 75.1371C15.181 75.1985 15.3828 75.3421 15.517 75.5411C15.6511 75.7402 15.7084 75.9812 15.6782 76.2193C15.6481 76.4574 15.5325 76.6765 15.3529 76.8358C15.1734 76.9951 14.9421 77.0838 14.7021 77.0854Z" fill="#343434"/>
<path d="M20.0402 71.8328C19.8272 71.8315 19.6203 71.7615 19.4503 71.6331C19.2803 71.5048 19.1563 71.325 19.0967 71.1205C18.9395 70.5858 17.6296 65.8417 19.6848 63.7676C19.8696 63.5812 20.1208 63.4758 20.3833 63.4746C20.6457 63.4734 20.8979 63.5766 21.0843 63.7613C21.2707 63.9461 21.3761 64.1973 21.3773 64.4598C21.3785 64.7222 21.2754 64.9744 21.0906 65.1608C20.1188 66.142 20.6079 69.2257 20.9978 70.5654C21.0709 70.8173 21.041 71.0879 20.9148 71.3178C20.7887 71.5477 20.5765 71.7182 20.3248 71.7919C20.2324 71.819 20.1365 71.8328 20.0402 71.8328Z" fill="#343434"/>
<path d="M79.8967 114.23C79.7117 114.231 79.5308 114.176 79.3764 114.075C79.2219 113.973 79.1008 113.828 79.0281 113.658C78.9554 113.488 78.9343 113.3 78.9674 113.118C79.0005 112.936 79.0863 112.768 79.2142 112.634C79.7599 112.065 80.315 111.534 80.9204 110.977C82.4614 109.532 84.21 107.895 86.0891 105.017C86.1514 104.903 86.2368 104.802 86.34 104.722C86.4431 104.643 86.5616 104.585 86.6881 104.553C86.8146 104.522 86.9463 104.516 87.0749 104.538C87.2035 104.56 87.3261 104.608 87.4352 104.679C87.5442 104.751 87.6373 104.844 87.7084 104.954C87.7796 105.063 87.8273 105.186 87.8485 105.315C87.8698 105.443 87.8642 105.575 87.832 105.701C87.7998 105.828 87.7417 105.946 87.6615 106.049C85.6708 109.11 83.8294 110.832 82.2114 112.343C81.6343 112.884 81.0902 113.394 80.5807 113.927C80.4934 114.021 80.3877 114.097 80.2701 114.149C80.1524 114.202 80.0254 114.229 79.8967 114.23Z" fill="#343434"/>
<path d="M87.86 88.1411C87.651 88.1408 87.448 88.0711 87.2829 87.9429C87.1869 87.869 87.0266 87.7637 86.8552 87.6536C86.3205 87.3045 85.5862 86.828 84.9682 86.1189C84.8759 86.0278 84.8034 85.9187 84.7552 85.7984C84.707 85.678 84.6841 85.5491 84.6879 85.4195C84.6917 85.2899 84.7222 85.1625 84.7775 85.0453C84.8327 84.928 84.9116 84.8234 85.009 84.7379C85.1065 84.6525 85.2205 84.588 85.344 84.5486C85.4675 84.5092 85.5978 84.4956 85.7268 84.5088C85.8557 84.5219 85.9806 84.5615 86.0936 84.6251C86.2065 84.6886 86.3052 84.7748 86.3834 84.8782C86.8248 85.3427 87.328 85.7442 87.8788 86.0717C88.0927 86.2101 88.2767 86.3296 88.4339 86.4522C88.5893 86.5728 88.7031 86.739 88.7594 86.9275C88.8158 87.1159 88.8118 87.3173 88.748 87.5034C88.6842 87.6895 88.5639 87.851 88.4038 87.9653C88.2438 88.0797 88.052 88.1411 87.8552 88.1411H87.86Z" fill="#343434"/>
</svg>
