<svg width="58" height="53" viewBox="0 0 58 53" fill="none" xmlns="http://www.w3.org/2000/svg">
<g clip-path="url(#clip0_1381_834)">
<path d="M35 11.8335L23 23.8335" stroke="#02257C" stroke-width="1.5" stroke-linecap="round" stroke-linejoin="round"/>
<path d="M23 11.8335L35 23.8335" stroke="#02257C" stroke-width="1.5" stroke-linecap="round" stroke-linejoin="round"/>
</g>
<path d="M17.024 41.7375H15.328C15.28 41.2575 15.056 40.6015 14.384 39.0015C13.456 36.8095 12.832 36.1855 11.552 36.1855H8.592V39.9295C8.592 40.7455 8.624 41.1615 8.72 41.7375H7.232C7.328 41.1615 7.36 40.7295 7.36 39.9455V31.3695C7.36 30.6815 7.328 30.1695 7.232 29.5295C7.792 29.5615 8.24 29.5775 8.976 29.5775H12.496C14.816 29.5775 16.096 30.6655 16.096 32.6495C16.096 33.6735 15.792 34.4415 15.136 35.0015C14.672 35.4175 14.272 35.6095 13.408 35.8015C14.064 35.9935 14.464 36.4255 15.04 37.5615C15.424 38.3135 15.808 39.1455 16.304 40.2495C16.576 40.8735 16.8 41.3535 17.024 41.7375ZM8.592 35.0815H12.384C13.104 35.0815 13.76 34.8255 14.192 34.3935C14.608 33.9935 14.8 33.4655 14.8 32.7775C14.8 31.4175 14 30.6815 12.48 30.6815H8.592V35.0815ZM26.2974 37.6095H19.5614C19.6094 38.6815 19.7694 39.2735 20.2014 39.8495C20.7134 40.5535 21.4974 40.9375 22.4574 40.9375C23.7534 40.9375 24.6494 40.2975 25.0974 39.0655L26.2174 39.5135C25.9134 40.1855 25.7054 40.4735 25.3374 40.8415C24.5854 41.5775 23.6094 41.9615 22.4414 41.9615C19.9294 41.9615 18.3454 40.2015 18.3454 37.4335C18.3454 34.6975 19.9134 32.9055 22.3134 32.9055C24.3774 32.9055 25.8654 34.2335 26.1854 36.3775C26.2014 36.5535 26.2654 37.1775 26.2974 37.6095ZM19.6094 36.6015H25.0174C24.9214 35.7055 24.6814 35.1295 24.1694 34.6335C23.6734 34.1535 23.0494 33.9135 22.2814 33.9135C21.3054 33.9135 20.4894 34.4095 20.0094 35.3055C19.7854 35.7055 19.7054 35.9935 19.6094 36.6015ZM27.6876 39.4015L28.9996 39.1775C29.1116 39.7695 29.2396 40.0575 29.5596 40.3455C29.9596 40.7135 30.5996 40.9055 31.4156 40.9055C32.8076 40.9055 33.6876 40.3135 33.6876 39.3695C33.6876 38.9215 33.5276 38.5855 33.1916 38.3775C32.8076 38.1375 32.4876 38.0415 31.3036 37.8015C30.0236 37.5295 29.4796 37.3375 28.9356 36.9695C28.3756 36.5855 28.0716 35.9935 28.0716 35.2895C28.0716 34.7135 28.3116 34.1695 28.7596 33.7375C29.3196 33.1935 30.1836 32.9055 31.2556 32.9055C32.3436 32.9055 33.1916 33.1615 33.7676 33.6735C34.1836 34.0255 34.4076 34.3935 34.6156 35.1295L33.3516 35.3375C33.2556 34.9055 33.1756 34.7135 32.9516 34.4895C32.5836 34.0895 32.0076 33.8815 31.2876 33.8815C30.1196 33.8815 29.2876 34.4735 29.2876 35.3215C29.2876 35.6895 29.4796 36.0095 29.8316 36.2015C30.1996 36.4095 30.6156 36.5375 31.6076 36.7455C33.1596 37.0975 33.6716 37.2895 34.1516 37.6575C34.6476 38.0575 34.9196 38.6655 34.9196 39.3215C34.9196 40.9215 33.5596 41.9135 31.3676 41.9135C29.9116 41.9135 28.7916 41.4815 28.1996 40.6655C27.9596 40.3295 27.8476 40.0575 27.6876 39.4015ZM44.2974 37.6095H37.5614C37.6094 38.6815 37.7694 39.2735 38.2014 39.8495C38.7134 40.5535 39.4974 40.9375 40.4574 40.9375C41.7534 40.9375 42.6494 40.2975 43.0974 39.0655L44.2174 39.5135C43.9134 40.1855 43.7054 40.4735 43.3374 40.8415C42.5854 41.5775 41.6094 41.9615 40.4414 41.9615C37.9294 41.9615 36.3454 40.2015 36.3454 37.4335C36.3454 34.6975 37.9134 32.9055 40.3134 32.9055C42.3774 32.9055 43.8654 34.2335 44.1854 36.3775C44.2014 36.5535 44.2654 37.1775 44.2974 37.6095ZM37.6094 36.6015H43.0174C42.9214 35.7055 42.6814 35.1295 42.1694 34.6335C41.6734 34.1535 41.0494 33.9135 40.2814 33.9135C39.3054 33.9135 38.4894 34.4095 38.0094 35.3055C37.7854 35.7055 37.7054 35.9935 37.6094 36.6015ZM47.1596 30.7295H48.5996C48.5196 31.2415 48.4876 31.8175 48.4876 32.5055V33.1135H49.2556C49.9916 33.1135 50.3276 33.0975 50.8876 33.0175V34.2335C50.3756 34.1535 49.9756 34.1375 49.2556 34.1375H48.4876V39.7055C48.4876 40.1695 48.5516 40.4095 48.6956 40.5535C48.8716 40.7295 49.1436 40.8255 49.4796 40.8255C49.8956 40.8255 50.2156 40.7295 50.7436 40.4095L51.0956 41.5295C50.4396 41.8015 49.9436 41.8975 49.2876 41.8975C48.5836 41.8975 48.0396 41.7215 47.7196 41.4015C47.3996 41.0815 47.2716 40.6175 47.2716 39.8655V34.1375H46.6316C46.0876 34.1375 45.7196 34.1695 45.1916 34.2335V33.0175C45.6396 33.0975 45.9596 33.1135 46.6316 33.1135H47.2716V32.5055C47.2716 31.8655 47.2396 31.2575 47.1596 30.7295Z" fill="#02257C"/>
<path d="M6 43.4335H51.2876V44.2335H6V43.4335Z" fill="#02257C"/>
<defs>
<clipPath id="clip0_1381_834">
<rect width="24" height="24" fill="white" transform="translate(17 5.8335)"/>
</clipPath>
</defs>
</svg>
