<svg width="24" height="25" viewBox="0 0 24 25" fill="none" xmlns="http://www.w3.org/2000/svg">
<path d="M21 6.8335C21 8.49035 19.6569 9.8335 18 9.8335C16.3431 9.8335 15 8.49035 15 6.8335C15 5.17665 16.3431 3.8335 18 3.8335C19.6569 3.8335 21 5.17665 21 6.8335Z" stroke="#0671D5" stroke-width="1.5"/>
<path d="M8.68439 11.4913L15.3125 8.17725" stroke="#0671D5" stroke-width="1.5"/>
<path d="M9 12.8335C9 14.4904 7.65685 15.8335 6 15.8335C4.34315 15.8335 3 14.4904 3 12.8335C3 11.1766 4.34315 9.8335 6 9.8335C7.65685 9.8335 9 11.1766 9 12.8335Z" stroke="#0671D5" stroke-width="1.5"/>
<path d="M15.3156 17.4911L8.69379 14.1802" stroke="#0671D5" stroke-width="1.5"/>
<path d="M21 18.8335C21 20.4904 19.6569 21.8335 18 21.8335C16.3431 21.8335 15 20.4904 15 18.8335C15 17.1766 16.3431 15.8335 18 15.8335C19.6569 15.8335 21 17.1766 21 18.8335Z" stroke="#0671D5" stroke-width="1.5"/>
</svg>
