<svg width="30" height="31" viewBox="0 0 30 31" fill="none" xmlns="http://www.w3.org/2000/svg">
<g clip-path="url(#clip0_3438_1538)">
<g clip-path="url(#clip1_3438_1538)">
<path fill-rule="evenodd" clip-rule="evenodd" d="M8.75 1.53564C8.05965 1.53564 7.5 2.09529 7.5 2.78564V4.03564H6.25C4.17894 4.03564 2.5 5.71458 2.5 7.78564V25.2856C2.5 27.3568 4.17894 29.0356 6.25 29.0356H16.3762C15.6439 28.318 15.0371 27.4726 14.592 26.5356H6.25C5.55965 26.5356 5 25.976 5 25.2856V14.0356H25V14.398C25.903 14.6668 26.745 15.0774 27.5 15.604V7.78564C27.5 5.71458 25.8211 4.03564 23.75 4.03564H22.5V2.78564C22.5 2.09529 21.9404 1.53564 21.25 1.53564C20.5596 1.53564 20 2.09529 20 2.78564V4.03564H10V2.78564C10 2.09529 9.44035 1.53564 8.75 1.53564ZM20 7.78564V6.53564H10V7.78564C10 8.47599 9.44035 9.03564 8.75 9.03564C8.05965 9.03564 7.5 8.47599 7.5 7.78564V6.53564H6.25C5.55965 6.53564 5 7.09529 5 7.78564V11.5356H25V7.78564C25 7.09529 24.4404 6.53564 23.75 6.53564H22.5V7.78564C22.5 8.47599 21.9404 9.03564 21.25 9.03564C20.5596 9.03564 20 8.47599 20 7.78564Z" fill="#0671D5"/>
<path d="M21.25 20.2856C21.25 19.5953 21.8096 19.0356 22.5 19.0356C23.1904 19.0356 23.75 19.5953 23.75 20.2856V22.4144L24.8501 23.5144C25.3383 24.0026 25.3383 24.794 24.8501 25.2823C24.362 25.7704 23.5705 25.7704 23.0824 25.2823L21.6161 23.816C21.3535 23.5534 21.2321 23.2029 21.2521 22.8591C21.2507 22.8348 21.25 22.8103 21.25 22.7856V20.2856Z" fill="#0671D5"/>
<path fill-rule="evenodd" clip-rule="evenodd" d="M30 22.7856C30 26.9278 26.6421 30.2856 22.5 30.2856C18.3579 30.2856 15 26.9278 15 22.7856C15 18.6435 18.3579 15.2856 22.5 15.2856C26.6421 15.2856 30 18.6435 30 22.7856ZM17.4774 22.7856C17.4774 25.5595 19.7261 27.8083 22.5 27.8083C25.2739 27.8083 27.5226 25.5595 27.5226 22.7856C27.5226 20.0118 25.2739 17.763 22.5 17.763C19.7261 17.763 17.4774 20.0118 17.4774 22.7856Z" fill="#0671D5"/>
</g>
</g>
<defs>
<clipPath id="clip0_3438_1538">
<rect width="30" height="30" fill="white" transform="translate(0 0.285645)"/>
</clipPath>
<clipPath id="clip1_3438_1538">
<rect width="30" height="30" fill="white" transform="translate(0 0.285645)"/>
</clipPath>
</defs>
</svg>
