<svg width="20" height="26" viewBox="0 0 20 26" fill="none" xmlns="http://www.w3.org/2000/svg">
<path d="M9.3946 5.92425C9.5243 5.92425 9.5892 5.84856 9.62163 5.72965C9.95673 3.92422 9.93515 3.881 11.8162 3.52422C11.9459 3.50263 12.0216 3.42694 12.0216 3.29719C12.0216 3.16748 11.9459 3.09179 11.8162 3.07015C9.94594 2.69183 10 2.64856 9.62163 0.864772C9.5892 0.745859 9.5243 0.670166 9.3946 0.670166C9.26484 0.670166 9.19999 0.745859 9.16756 0.864772C8.78919 2.64856 8.85404 2.69183 6.97297 3.07015C6.85406 3.09179 6.76758 3.16748 6.76758 3.29719C6.76758 3.42694 6.85406 3.50263 6.97297 3.52422C8.85404 3.90264 8.83241 3.92422 9.16756 5.72965C9.19999 5.84856 9.26484 5.92425 9.3946 5.92425ZM4.16219 13.3621C4.36759 13.3621 4.50813 13.2323 4.52972 13.0378C4.91893 10.1512 5.01621 10.1512 8.00002 9.57831C8.19462 9.54584 8.33512 9.41613 8.33512 9.21074C8.33512 9.01613 8.19462 8.87558 8.00002 8.84316C5.01621 8.43236 4.90809 8.33503 4.52972 5.39449C4.50813 5.19993 4.36759 5.05939 4.16219 5.05939C3.96758 5.05939 3.82704 5.19993 3.8054 5.40533C3.44866 8.30261 3.29728 8.29181 0.335152 8.84316C0.140546 8.88642 0 9.01613 0 9.21074C0 9.42693 0.140546 9.54584 0.378372 9.57831C3.31891 10.054 3.44866 10.1297 3.8054 13.0161C3.82704 13.2323 3.96758 13.3621 4.16219 13.3621ZM11.4919 25.3296C11.773 25.3296 11.9784 25.1242 12.0324 24.8324C12.8 18.908 13.6324 18.0107 19.4919 17.362C19.7946 17.3296 20 17.1026 20 16.8215C20 16.5404 19.7946 16.3242 19.4919 16.281C13.6324 15.6323 12.8 14.735 12.0324 8.81073C11.9784 8.51884 11.773 8.32424 11.4919 8.32424C11.2108 8.32424 11.0054 8.51884 10.9622 8.81073C10.1946 14.735 9.35137 15.6323 3.50268 16.281C3.1892 16.3242 2.98381 16.5404 2.98381 16.8215C2.98381 17.1026 3.1892 17.3296 3.50268 17.362C9.34054 18.1296 10.1513 18.9188 10.9622 24.8324C11.0054 25.1242 11.2108 25.3296 11.4919 25.3296Z" fill="url(#paint0_linear_887_31816)"/>
<defs>
<linearGradient id="paint0_linear_887_31816" x1="7.97593" y1="-0.259381" x2="14.9905" y2="29.9643" gradientUnits="userSpaceOnUse">
<stop stop-color="#F8B133"/>
<stop offset="0.9961" stop-color="#E5332A"/>
</linearGradient>
</defs>
</svg>
