<svg width="647" height="329" viewBox="0 0 647 329" fill="none" xmlns="http://www.w3.org/2000/svg">
  <g clip-path="url(#clip0_3750_23819)">
    <path d="M189.134 116.709C186.056 111.386 176.521 111.534 169.751 112.226C162.981 112.919 156.118 120.141 157.364 131.822C158.611 143.503 169.05 148.056 184.475 149.262L189.134 116.709Z" fill="#A5BFE4"/>
    <path d="M646.997 3.53888L632.811 2.66726L629.251 2.44936C628.004 2.37932 626.695 2.34819 625.355 2.29372L616.545 1.98242L611.676 1.80343C610.001 1.74117 608.287 1.6867 606.518 1.67113L595.401 1.49992C587.611 1.32093 579.26 1.4221 570.379 1.4221C565.938 1.4221 561.381 1.49993 556.722 1.57775L542.458 1.819L527.711 2.27037C522.733 2.41823 517.692 2.55831 512.613 2.80734L497.274 3.46884C492.132 3.69453 486.975 4.02138 481.818 4.30154C471.48 4.81517 461.196 5.57005 451.069 6.25489C445.99 6.57396 440.941 7.03312 436.002 7.42223L428.601 8.02147C426.155 8.20824 423.725 8.42096 421.31 8.65962C411.681 9.58571 402.356 10.4028 393.545 11.4379C389.143 11.9437 384.851 12.3718 380.714 12.8932L368.74 14.4496L363.115 15.2278L357.756 16.0061L347.87 17.5081C346.311 17.726 344.824 18.0061 343.382 18.2863L339.222 19.0645L331.876 20.3642C327.482 21.2747 324.085 22.1152 321.748 22.6288L318.165 23.407L317.043 18.9322L320.712 18.154C323.104 17.6637 326.602 16.8543 331.073 15.9905L338.49 14.7376L342.705 14.0294C344.161 13.7804 345.673 13.5158 347.239 13.3212L357.21 11.9437L362.601 11.1655L368.265 10.5118L380.254 9.18103C384.414 8.71409 388.73 8.34054 393.155 7.90473C401.989 7.00199 411.338 6.30937 421.021 5.51558C423.436 5.31324 425.875 5.13424 428.337 4.9786L435.753 4.48832C440.731 4.17703 445.771 3.77235 450.859 3.52332C460.986 2.98634 471.347 2.37154 481.685 1.96686C486.85 1.76452 492.015 1.49993 497.165 1.35206L512.527 0.90069C517.614 0.72948 522.655 0.651658 527.648 0.573836L542.45 0.332581L556.722 0.285889C561.396 0.285889 565.954 0.239196 570.394 0.285889C579.283 0.410406 587.681 0.433751 595.433 0.721695L606.549 1.04077C608.318 1.04077 610.04 1.1575 611.707 1.25089L616.576 1.49214L625.387 1.92795C626.75 2.00577 628.059 2.05246 629.282 2.13807L632.842 2.40267L646.997 3.53888Z" fill="#E0E0E0"/>
    <path d="M638.97 9.88919L626.552 9.3133C624.573 9.23548 622.392 9.08761 620.008 9.04092L612.296 8.86193L603.524 8.65181L593.793 8.59733L583.222 8.55064L571.902 8.69072C564.112 8.73741 555.956 9.01758 547.487 9.24326C543.249 9.33665 538.918 9.55455 534.594 9.72576C530.271 9.89697 525.83 10.0682 521.351 10.3017C512.47 10.8153 503.433 11.22 494.427 11.8581C489.924 12.1694 485.414 12.4573 480.926 12.7998L467.55 13.8893C463.11 14.2317 458.724 14.6675 454.385 15.08C450.045 15.4924 445.761 15.8582 441.554 16.3329C433.14 17.2746 424.999 18.0995 417.31 19.1267C413.462 19.6248 409.714 20.0684 406.107 20.5742L395.661 22.1307L390.753 22.8622L386.078 23.6405L377.454 25.088C372.064 26.0841 367.382 27.0569 363.517 27.804C359.685 28.6678 356.693 29.3604 354.652 29.8741L351.536 30.6523L350.406 26.1775L353.608 25.4771C355.696 25.0257 358.758 24.3331 362.653 23.5159C366.548 22.8233 371.316 21.9595 376.769 21.0023L385.479 19.6793L390.192 18.9633L395.139 18.3096L405.663 16.9633C409.302 16.5119 413.072 16.1306 416.936 15.687C424.664 14.7765 432.844 14.0838 441.289 13.2745C445.519 12.8854 449.819 12.5819 454.174 12.2239C458.529 11.8659 462.931 11.5079 467.418 11.2433L480.833 10.3639C485.336 10.0837 489.854 9.88141 494.373 9.63237C503.402 9.10318 512.446 8.85415 521.343 8.46503C525.799 8.30161 530.216 8.22378 534.587 8.09927C538.957 7.97475 543.257 7.84245 547.495 7.82689C555.979 7.7335 564.174 7.58564 571.949 7.66346H583.269L593.848 7.87358L603.578 8.0837L612.319 8.40277L620.031 8.70628C622.415 8.79189 624.597 8.97088 626.568 9.07983L638.97 9.88919Z" fill="#E0E0E0"/>
    <path d="M630.967 16.2414L620.318 15.9223L614.701 15.7589L608.095 15.681L600.577 15.611H596.502H592.241C586.429 15.681 580.135 15.6577 573.482 15.8834L563.245 16.1402L552.557 16.576C545.304 16.825 537.81 17.2997 530.206 17.7278C526.397 17.9301 522.572 18.257 518.723 18.506C514.875 18.755 511.011 19.0274 507.154 19.3932L495.601 20.3893C491.76 20.7317 487.943 21.1675 484.157 21.5333L478.493 22.1014C476.616 22.296 474.754 22.5372 472.9 22.7473L461.923 24.0236L451.336 25.4322C449.607 25.6657 447.893 25.8758 446.21 26.1248L441.216 26.9031C437.929 27.4011 434.727 27.8525 431.642 28.3583L422.73 29.8603C419.863 30.3195 417.136 30.8409 414.55 31.339L407.188 32.7398L395.284 35.2924L385.009 37.8216L383.871 33.3079L394.334 30.9732L406.393 28.6385L413.841 27.3622C416.458 26.9108 419.208 26.4361 422.099 26.0237L431.089 24.6851C434.205 24.2415 437.415 23.8446 440.725 23.401L445.75 22.7473C447.449 22.5294 449.178 22.3504 450.915 22.1481L461.565 20.9341L472.596 19.8523C474.458 19.6733 476.328 19.4788 478.213 19.3153L483.9 18.8484C487.709 18.5449 491.542 18.1869 495.391 17.9223L506.991 17.1441C510.886 16.8562 514.734 16.6927 518.591 16.4748C522.447 16.2569 526.288 16.0312 530.105 15.9067C537.732 15.6188 545.234 15.2764 552.51 15.1285L563.214 14.9028L573.466 14.825C580.127 14.7316 586.429 14.8717 592.241 14.9106H596.51L600.585 15.0195L608.102 15.2297L614.716 15.432L620.326 15.7044L630.967 16.2414Z" fill="#E0E0E0"/>
    <path d="M608.302 23.9683H606.136C604.719 23.9683 602.646 23.9683 600.005 24.0461C594.723 24.1628 587.182 24.4274 578.138 24.9333C573.619 25.1979 568.727 25.4936 563.554 25.8827C558.381 26.2718 552.936 26.6609 547.296 27.1979C541.655 27.7349 535.844 28.2563 529.946 28.8945C524.049 29.5326 518.05 30.2252 512.028 30.9645C506.006 31.7039 500.07 32.521 494.204 33.4004C488.338 34.2798 482.573 35.1903 477.003 36.1475C471.433 37.1047 466.096 38.1087 461.025 39.1671C455.953 40.2254 451.201 41.2916 446.823 42.35C442.444 43.4084 438.479 44.5057 434.989 45.5563C431.499 46.6069 428.5 47.603 426.046 48.4669L422.797 49.6809C421.862 50.0389 421.083 50.3891 420.46 50.6459L418.505 51.4708L416.674 47.2373L418.738 46.459C419.416 46.2022 420.242 45.852 421.223 45.5018L424.62 44.3267C427.168 43.494 430.268 42.529 433.859 41.564C437.451 40.599 441.51 39.5951 445.95 38.5912C450.391 37.5872 455.236 36.6378 460.362 35.7195C465.489 34.8012 470.911 33.914 476.52 33.0658C482.129 32.2175 487.94 31.4393 493.853 30.7311C499.766 30.0229 505.773 29.3458 511.771 28.7155C517.77 28.0851 523.807 27.5481 529.736 27.0734C535.664 26.5987 541.499 26.1629 547.155 25.7893C552.811 25.4158 558.272 25.1045 563.461 24.8555C568.649 24.6064 573.588 24.4119 578.075 24.2562C587.136 23.9683 594.685 23.8827 599.966 23.8982C602.615 23.8982 604.687 23.8982 606.105 23.9605L608.302 23.9683Z" fill="#E0E0E0"/>
    <path d="M603.509 30.7783L601.483 30.825C600.159 30.825 598.227 30.934 595.765 31.0274C593.303 31.1207 590.312 31.2997 586.876 31.5254C583.441 31.7511 579.584 32.0468 575.377 32.4126C558.527 33.8757 536.129 36.5761 513.95 40.5062C508.403 41.4712 502.88 42.5451 497.45 43.6191C492.02 44.693 486.707 45.8993 481.589 47.1444C476.47 48.3896 471.539 49.6503 466.896 50.95C462.253 52.2496 457.89 53.5648 453.917 54.9111L450.988 55.8761L448.222 56.8645C446.423 57.4871 444.74 58.1486 443.159 58.7634C441.577 59.3782 440.105 59.9852 438.757 60.5611C437.409 61.137 436.163 61.6584 435.072 62.1876L432.143 63.5495L430.032 64.6701L428.263 65.5806L426.137 61.5027L428.006 60.6L430.242 59.5182L433.312 58.1797C434.457 57.6661 435.742 57.1524 437.152 56.6232C438.562 56.094 440.066 55.4715 441.71 54.8956C443.353 54.3197 445.075 53.6815 446.929 53.0901L449.773 52.1484L452.764 51.2379C456.839 49.9772 461.287 48.7787 466.008 47.5647C470.729 46.3506 475.73 45.23 480.919 44.1094C486.107 42.9887 491.49 41.977 496.967 40.9964C502.444 40.0159 508.022 39.0976 513.615 38.2726C535.958 34.8951 558.457 32.7628 575.354 31.7355C579.576 31.4709 583.448 31.2842 586.884 31.1363C590.319 30.9884 593.319 30.9184 595.788 30.8717C598.258 30.825 600.19 30.8017 601.514 30.8172L603.509 30.7783Z" fill="#E0E0E0"/>
    <path d="M598.717 37.5869L596.832 37.6803C595.601 37.7348 593.801 37.8593 591.503 38.0227C589.205 38.1861 586.431 38.4352 583.245 38.7543C580.059 39.0733 576.467 39.478 572.564 39.9839C568.661 40.4897 564.431 41.0734 559.967 41.7504C555.503 42.4275 550.806 43.2057 545.945 44.0851C541.083 44.9645 536.105 45.9139 531.049 46.9723C525.993 48.0307 520.875 49.1825 515.772 50.3887C510.67 51.595 505.59 52.9102 500.62 54.2799C498.135 54.9414 495.681 55.6885 493.258 56.3811C490.835 57.0737 488.444 57.8286 486.114 58.5913C483.785 59.3539 481.479 60.0777 479.259 60.8559C477.039 61.6341 474.85 62.4124 472.746 63.1906C468.532 64.747 464.597 66.3035 460.998 67.8599L455.864 70.1246L451.307 72.2881C448.487 73.7122 446.033 74.9652 444.07 76.0936C442.106 77.222 440.572 78.1092 439.536 78.7318L437.978 79.689L435.562 75.759L437.237 74.8095C438.328 74.1947 439.917 73.2531 441.997 72.2102C444.077 71.1674 446.609 69.8756 449.546 68.5059L454.259 66.4202L459.549 64.2568C463.25 62.817 467.285 61.3151 471.593 59.8753C473.751 59.1438 475.964 58.4123 478.246 57.7119C480.529 57.0115 482.85 56.3111 485.257 55.6107C487.665 54.9103 490.064 54.2721 492.518 53.5873C494.972 52.9024 497.465 52.2721 499.989 51.6728C505.029 50.4121 510.171 49.2681 515.321 48.1552C520.47 47.0424 525.651 46.0462 530.753 45.1435C535.856 44.2408 540.881 43.4003 545.766 42.661C550.65 41.9216 555.371 41.2757 559.858 40.7076C564.346 40.1395 568.591 39.6648 572.518 39.2834C576.444 38.9021 580.051 38.5908 583.245 38.3496C586.439 38.1083 589.236 37.9527 591.534 37.836C593.832 37.7192 595.64 37.6647 596.87 37.6492L598.717 37.5869Z" fill="#E0E0E0"/>
    <path d="M593.933 44.397L592.188 44.5604C591.043 44.6849 589.368 44.8017 587.241 45.0585L583.728 45.5098C582.45 45.6655 581.071 45.8445 579.599 46.0857C576.654 46.5449 573.366 47.0429 569.728 47.7278C566.09 48.4126 562.234 49.1597 558.121 50.0158C556.064 50.4127 553.968 50.9419 551.818 51.4244C549.668 51.9069 547.471 52.3816 545.259 52.9808L538.497 54.7007C536.214 55.2688 533.931 55.9614 531.618 56.5996C526.943 57.8447 522.331 59.3467 517.673 60.7787C515.336 61.5024 513.053 62.3351 510.747 63.1133C508.441 63.8916 506.151 64.6698 503.915 65.5181L497.246 68.0239L495.603 68.6465L493.99 69.3158L490.804 70.6621C488.7 71.5493 486.613 72.382 484.571 73.2692L478.744 75.9697C474.919 77.6584 471.468 79.5728 468.227 81.2227L465.89 82.4523C465.111 82.8492 464.402 83.3083 463.685 83.7208L459.642 86.0555C458.38 86.8337 457.173 87.4874 456.09 88.1489L453.184 90.0945L447.668 93.7755L445.035 89.9933L450.816 86.3745L453.854 84.4679C454.984 83.8142 456.191 83.1605 457.554 82.4289L461.761 80.0942C462.54 79.6974 463.249 79.246 464.051 78.8646L466.498 77.6895C469.84 76.1331 473.4 74.2653 477.326 72.67L483.309 70.1096C485.358 69.2691 487.493 68.4909 489.643 67.6582L492.892 66.413L494.543 65.7904L496.218 65.2145L503.011 62.8799C505.286 62.0627 507.631 61.3934 509.96 60.6619C512.29 59.9304 514.635 59.1833 516.972 58.5296C521.708 57.2299 526.414 55.8525 531.111 54.7396C533.448 54.1715 535.786 53.5411 538.076 53.0353L544.9 51.4788C547.136 50.9574 549.364 50.5683 551.53 50.1169C553.696 49.6656 555.815 49.2298 557.887 48.8951C562.039 48.1636 565.95 47.4632 569.572 46.9496C573.195 46.4359 576.584 45.969 579.505 45.5954C580.978 45.3931 582.372 45.2608 583.658 45.1363L587.187 44.7939C589.321 44.5915 590.996 44.5293 592.141 44.4437L593.933 44.397Z" fill="#E0E0E0"/>
    <path d="M610.566 47.1587L608.852 47.3066C607.73 47.3922 606.094 47.5789 604.006 47.8124L600.563 48.2638L596.512 48.863C593.63 49.3222 590.381 49.8669 586.852 50.5595C583.323 51.2522 579.513 52.046 575.494 52.9409C571.474 53.8359 567.259 54.8709 562.92 56.0538C558.581 57.2367 554.109 58.443 549.598 59.8127C545.088 61.1823 540.538 62.6454 536.004 64.1707C531.47 65.6961 526.991 67.3537 522.612 69.0813C520.416 69.9141 518.273 70.8324 516.131 71.6884C513.988 72.5445 511.916 73.4628 509.898 74.3889C507.881 75.3149 505.855 76.2099 503.923 77.1438C501.991 78.0777 500.098 79.0037 498.275 79.9298C496.452 80.8559 494.707 81.8131 493.001 82.7003C491.295 83.5875 489.714 84.5603 488.163 85.4319L483.801 88.0779L479.905 90.576C477.568 92.2103 475.473 93.6344 473.852 94.9029C472.232 96.1714 470.962 97.1676 470.105 97.8602L468.796 98.9264L465.867 95.3543L467.262 94.2803C468.181 93.5877 469.49 92.5293 471.25 91.3231C473.011 90.1168 475.146 88.646 477.638 87.0428L481.674 84.5914L486.223 82.0233C487.836 81.1828 489.495 80.2723 491.24 79.3851C492.986 78.4979 494.793 77.5874 496.694 76.7235C498.595 75.8597 500.503 74.9414 502.505 74.0776C504.508 73.2137 506.549 72.3343 508.636 71.4705C510.724 70.6067 512.874 69.7895 515.04 68.9257C517.206 68.0619 519.418 67.2681 521.654 66.4976C526.118 64.8867 530.699 63.3847 535.295 61.9606C539.891 60.5364 544.511 59.1901 549.084 57.9838C553.657 56.7776 558.176 55.6492 562.569 54.6141C566.963 53.5791 571.224 52.7075 575.268 51.8903C579.311 51.0732 583.167 50.4117 586.727 49.8514C590.288 49.291 593.552 48.8163 596.45 48.4428L600.524 47.9603L603.983 47.6178C606.079 47.4466 607.722 47.3065 608.844 47.2599L610.566 47.1587Z" fill="#E0E0E0"/>
    <path d="M627.212 49.9209L625.53 50.0688C624.424 50.1621 622.819 50.3334 620.77 50.5824C618.721 50.8314 616.251 51.1738 613.416 51.633C610.58 52.0921 607.402 52.6758 603.935 53.3529C600.468 54.0299 596.744 54.8549 592.81 55.8121C588.876 56.7693 584.755 57.8277 580.501 58.9872C576.248 60.1468 571.885 61.4464 567.484 62.8784C563.082 64.3103 558.626 65.7967 554.24 67.3999C549.854 69.003 545.46 70.7229 541.183 72.4661C536.906 74.2094 532.77 76.0693 528.82 77.9838C524.87 79.8982 521.1 81.8204 517.578 83.7426C514.057 85.6649 510.816 87.6338 507.903 89.5404C507.178 90.0152 506.454 90.4665 505.768 90.9335L503.766 92.3343C502.449 93.2215 501.273 94.1398 500.144 94.988C499.014 95.8363 498.009 96.669 497.074 97.4394L495.726 98.5523L494.55 99.6107C493.81 100.288 493.14 100.879 492.579 101.424L491.2 102.817L490.047 103.984L486.721 100.786L487.991 99.5796L489.51 98.1321C490.117 97.5795 490.85 96.9803 491.652 96.2877L492.922 95.2059L494.363 94.0853C495.368 93.3071 496.443 92.451 497.651 91.6261C498.858 90.8012 500.105 89.8673 501.483 88.9879L503.595 87.6182C504.311 87.1513 505.075 86.7077 505.838 86.2408C508.884 84.3652 512.289 82.5131 515.911 80.622C519.534 78.7309 523.429 76.8942 527.503 75.1199C531.578 73.3455 535.831 71.6101 540.171 69.9291C544.51 68.2481 548.989 66.6839 553.484 65.2208C557.979 63.7578 562.49 62.357 566.962 61.0885C571.433 59.8199 575.866 58.6604 580.159 57.5787C584.451 56.4969 588.627 55.5786 592.623 54.777C596.62 53.9755 600.367 53.2206 603.857 52.6525C607.347 52.0844 610.549 51.5863 613.4 51.2205C616.251 50.8548 618.744 50.5824 620.793 50.3878C622.842 50.1933 624.47 50.0843 625.569 50.0298L627.212 49.9209Z" fill="#E0E0E0"/>
    <path d="M632.514 54.3193L630.855 54.5139C629.78 54.6228 628.199 54.833 626.181 55.1131C624.163 55.3933 621.74 55.7824 618.959 56.2805C616.178 56.7785 613.046 57.4011 609.65 58.1326C606.253 58.8642 602.592 59.6891 598.743 60.7164C594.895 61.7436 590.836 62.8176 586.676 64.0394C582.516 65.2612 578.239 66.6231 573.923 68.0706C569.607 69.5181 565.252 71.0901 560.944 72.74C556.636 74.3898 552.375 76.1642 548.207 78.0086C544.039 79.853 540.019 81.7674 536.155 83.7052C532.291 85.643 528.645 87.6508 525.249 89.6742L522.74 91.2073L520.348 92.7171C518.79 93.6821 517.302 94.7093 515.869 95.6665C514.435 96.6238 513.142 97.6121 511.865 98.5148C510.587 99.4176 509.457 100.367 508.359 101.215C506.209 102.966 504.355 104.515 502.906 105.885C501.457 107.254 500.358 108.328 499.61 109.083L498.473 110.235L495.154 107.036L496.393 105.854C497.172 105.075 498.372 103.931 499.961 102.593C501.55 101.254 503.49 99.6511 505.773 97.9234C506.941 97.0829 508.156 96.149 509.489 95.2463C510.821 94.3435 512.207 93.363 513.703 92.4369C515.199 91.5108 516.734 90.4991 518.377 89.5575L520.87 88.0944L523.472 86.6624C526.994 84.7091 530.795 82.818 534.745 80.9347C538.695 79.0514 542.855 77.2537 547.116 75.5494C551.378 73.845 555.686 72.1719 560.118 70.6388C564.551 69.1056 568.945 67.6659 573.362 66.3196C577.779 64.9733 582.079 63.767 586.294 62.6619C590.509 61.5568 594.606 60.5685 598.509 59.7124C602.412 58.8564 606.113 58.1015 609.533 57.4556C612.953 56.8097 616.108 56.3038 618.881 55.8991C621.655 55.4945 624.132 55.1832 626.142 54.9497C628.152 54.7162 629.757 54.5761 630.816 54.4983L632.514 54.3193Z" fill="#E0E0E0"/>
    <path d="M643.117 63.1743L641.558 63.4311C640.522 63.5946 638.995 63.8747 637.063 64.2094C635.131 64.544 632.786 65.0498 630.114 65.6335C627.442 66.2172 624.427 66.9254 621.163 67.7581C617.899 68.5908 614.378 69.5636 610.67 70.6297C606.961 71.6959 603.074 72.9099 599.085 74.2641C591.108 76.9334 582.725 80.1163 574.507 83.7117C570.393 85.4939 566.358 87.4317 562.408 89.3772C558.458 91.3228 554.618 93.3851 551.034 95.5019C547.451 97.6186 543.976 99.7276 540.766 101.813C537.557 103.899 534.628 106.023 531.979 108.039C529.33 110.055 526.962 111.977 524.913 113.736L522.077 116.234L519.74 118.436C518.315 119.736 517.31 120.872 516.57 121.596L515.463 122.732L512.152 119.518L513.336 118.382C514.116 117.65 515.214 116.506 516.733 115.199C517.512 114.537 518.291 113.806 519.21 113.004L522.225 110.522C524.391 108.778 526.9 106.864 529.665 104.903C532.431 102.942 535.539 100.887 538.85 98.8249C542.161 96.7626 545.737 94.7236 549.492 92.7392C553.247 90.7547 557.181 88.8013 561.177 86.9025C565.174 85.0036 569.373 83.2448 573.572 81.5794C581.939 78.2408 590.508 75.3302 598.61 72.8866C602.653 71.657 606.595 70.5986 610.342 69.6102C614.09 68.6219 617.65 67.7892 620.953 67.0732C624.256 66.3573 627.294 65.7425 629.99 65.2288C632.685 64.7152 635.046 64.3416 637.001 64.0304C638.956 63.7191 640.476 63.5089 641.519 63.3844L643.117 63.1743Z" fill="#E0E0E0"/>
    <path d="M625.436 73.665L621.073 74.6612C619.694 75.0036 618.027 75.4783 616.118 75.9919C614.21 76.5056 612.091 77.2215 609.769 77.9375L606.178 79.1749C604.931 79.5951 603.654 80.0387 602.353 80.5446L598.34 82.101C596.977 82.638 595.598 83.2295 594.196 83.7976C591.368 84.9182 588.525 86.2645 585.627 87.5486L581.287 89.6343L579.106 90.6926L576.956 91.8133L572.663 94.0701L568.488 96.4437C567.802 96.8329 567.109 97.222 566.431 97.6189L564.437 98.8562L560.541 101.284L556.864 103.782L555.088 104.996C554.512 105.401 553.959 105.837 553.405 106.249L550.196 108.662C549.144 109.44 548.233 110.281 547.298 111.035L544.672 113.246C543.893 114.024 543.114 114.709 542.437 115.37C541.199 116.491 540.021 117.676 538.908 118.919L535.978 122.102L532.48 119.09L535.706 115.806C536.943 114.553 538.243 113.364 539.601 112.242C540.38 111.58 541.159 110.857 542.032 110.133L544.859 107.961C545.857 107.183 546.838 106.405 547.976 105.627L551.38 103.292C551.964 102.895 552.549 102.514 553.164 102.086L555.034 100.934L558.929 98.5527L563.011 96.2181L565.091 95.0507C565.8 94.6772 566.517 94.3192 567.233 93.9534L571.565 91.7355L576.005 89.6498L578.226 88.6148L580.384 87.7042L584.847 85.7898C587.847 84.6303 590.76 83.4007 593.651 82.4045C595.092 81.8909 596.502 81.3617 597.896 80.8481C599.291 80.3344 600.662 79.9375 601.994 79.5017C603.326 79.0659 604.627 78.6535 605.889 78.2877L609.551 77.206C611.888 76.5912 614.069 75.9997 616.009 75.5406C617.949 75.0814 619.632 74.7079 621.026 74.4277L625.436 73.665Z" fill="#E0E0E0"/>
    <path d="M614.425 99.667L610.529 101.402C609.291 101.963 607.834 102.757 606.136 103.605C604.437 104.453 602.614 105.589 600.581 106.718L597.465 108.656C596.398 109.325 595.291 110.002 594.201 110.78L590.804 113.115C589.659 113.893 588.522 114.796 587.345 115.66C585.008 117.356 582.671 119.302 580.279 121.201L576.789 124.212L575.036 125.73L573.33 127.286L569.949 130.461L566.716 133.738C565.626 134.804 564.613 135.925 563.6 137.037C562.587 138.15 561.598 139.216 560.655 140.314C559.713 141.411 558.832 142.532 557.944 143.598L556.635 145.193L555.467 146.843L553.177 149.956C552.444 150.96 551.821 151.979 551.182 152.937C550.543 153.894 549.951 154.812 549.383 155.692L547.918 158.267L546.633 160.524C546.227 161.217 545.963 161.91 545.667 162.501L543.883 166.26L539.676 164.361L541.748 160.47C542.091 159.855 542.41 159.139 542.87 158.439L544.319 156.104L545.978 153.481L547.98 150.711C548.689 149.754 549.383 148.719 550.185 147.722C550.987 146.726 551.829 145.699 552.694 144.649L554.002 143.045L555.412 141.489L558.342 138.259C559.354 137.185 560.437 136.135 561.504 135.053C562.572 133.971 563.655 132.882 564.808 131.847L568.243 128.672C569.42 127.644 570.627 126.633 571.819 125.613L573.619 124.057L575.465 122.601L579.134 119.722C581.643 117.916 584.05 116.064 586.519 114.461C587.743 113.683 588.919 112.811 590.119 112.064L593.64 109.885C594.769 109.154 595.915 108.523 597.021 107.901L600.207 106.103C602.311 105.045 604.196 104.017 605.933 103.223C607.67 102.43 609.174 101.722 610.444 101.216L614.425 99.667Z" fill="#E0E0E0"/>
    <path d="M571.625 143.076L568.891 146.056C568.018 147.006 567.076 148.243 565.93 149.621C565.346 150.298 564.793 151.068 564.201 151.877L562.323 154.414C561.692 155.309 561.069 156.274 560.407 157.255C559.745 158.236 559.044 159.247 558.413 160.368L556.395 163.668C555.709 164.804 555.086 166.002 554.408 167.193C553.029 169.528 551.822 172.135 550.513 174.687C549.329 177.31 548.036 179.933 546.968 182.649C546.423 184.003 545.823 185.333 545.325 186.703C544.826 188.073 544.328 189.419 543.829 190.765C543.33 192.112 542.925 193.481 542.481 194.812C542.037 196.143 541.578 197.45 541.243 198.773C540.526 201.404 539.778 203.933 539.272 206.377L538.493 209.918C538.282 211.069 538.087 212.182 537.9 213.248C537.714 214.315 537.495 215.334 537.386 216.315C537.277 217.295 537.145 218.221 537.044 219.093L536.74 221.537C536.67 222.315 536.638 222.992 536.592 223.614L536.335 227.56L531.73 227.288C531.73 227.288 531.902 225.793 532.198 223.179C532.276 222.525 532.346 221.801 532.455 221.015C532.564 220.229 532.735 219.396 532.891 218.494C533.047 217.591 533.218 216.642 533.39 215.638C533.561 214.634 533.842 213.591 534.075 212.525C534.309 211.459 534.59 210.299 534.854 209.116C535.119 207.933 535.509 206.781 535.852 205.521C536.498 203.046 537.41 200.493 538.251 197.847C538.664 196.517 539.217 195.209 539.708 193.871C540.199 192.532 540.689 191.155 541.266 189.824L542.988 185.769C543.556 184.407 544.234 183.084 544.85 181.746C546.073 179.045 547.514 176.454 548.838 173.862C550.295 171.341 551.635 168.812 553.146 166.485C553.925 165.317 554.58 164.15 555.32 163.037L557.517 159.808C558.21 158.741 558.966 157.769 559.675 156.811C560.384 155.854 561.061 154.92 561.747 154.049L563.757 151.589C564.388 150.811 564.988 150.033 565.603 149.403C566.818 148.08 567.831 146.881 568.719 145.978L571.625 143.076Z" fill="#E0E0E0"/>
    <path d="M593.922 97.1221L590.167 98.7641C588.975 99.2778 587.581 100.025 585.952 100.819C585.173 101.208 584.293 101.675 583.405 102.173L580.608 103.729C579.642 104.282 578.668 104.904 577.64 105.527C576.612 106.15 575.537 106.772 574.524 107.496L571.26 109.675C570.138 110.406 569.055 111.231 567.925 112.056C565.643 113.613 563.43 115.473 561.124 117.255C560.003 118.189 558.896 119.154 557.775 120.103L556.092 121.543L554.464 123.045C553.381 124.057 552.282 125.037 551.231 126.064C550.179 127.092 549.158 128.142 548.114 129.177C547.071 130.212 546.136 131.278 545.177 132.329C544.219 133.38 543.253 134.399 542.381 135.442C540.651 137.59 538.898 139.59 537.457 141.668L535.284 144.625L533.43 147.497C532.845 148.423 532.238 149.279 531.747 150.143C531.256 151.007 530.796 151.831 530.368 152.61C529.939 153.388 529.527 154.104 529.16 154.773C528.794 155.442 528.529 156.096 528.249 156.664L526.566 160.267L522.359 158.369L524.323 154.649C524.642 154.057 524.969 153.396 525.374 152.703L526.753 150.493L528.311 147.987C528.872 147.108 529.542 146.244 530.197 145.318L532.269 142.438L534.653 139.489C536.211 137.434 538.143 135.458 540.02 133.349C540.963 132.298 542.022 131.317 543.035 130.282C544.048 129.247 545.076 128.189 546.19 127.216L549.486 124.197C550.6 123.208 551.768 122.259 552.913 121.294L554.635 119.846L556.411 118.469C557.595 117.566 558.748 116.64 559.948 115.761C562.363 114.064 564.685 112.329 567.061 110.834C568.245 110.056 569.398 109.278 570.535 108.601L573.924 106.57C575.015 105.893 576.137 105.332 577.188 104.741C578.24 104.149 579.268 103.589 580.304 103.083L583.187 101.659C584.098 101.208 584.963 100.78 585.812 100.43C587.479 99.7058 588.928 99.0287 590.136 98.5696L593.922 97.1221Z" fill="#E0E0E0"/>
    <path d="M553.549 268.845C553.549 272.581 531.37 275.608 504.01 275.608C476.65 275.608 454.471 272.581 454.471 268.845C454.471 265.11 476.65 262.106 504.041 262.106C531.432 262.106 553.549 265.11 553.549 268.845Z" fill="#231916"/>
    <path d="M438.042 317.415C438.042 321.765 412.193 325.291 380.307 325.291C348.421 325.291 322.572 321.765 322.572 317.415C322.572 313.065 348.421 309.532 380.307 309.532C412.193 309.532 438.042 313.057 438.042 317.415Z" fill="#231916"/>
    <path d="M439.315 249.327L381.323 270.238L358.84 216.19L395.455 155.489L529.894 130.585L539.819 148.243C539.819 148.243 541.743 182.68 535.386 203.389C529.029 224.097 516.596 220.51 516.596 220.51L467.648 220.183L439.315 249.327Z" fill="#231916"/>
    <path d="M132 310.035C109.845 312.495 110.46 326.012 187.998 327.857C265.536 329.701 345.543 325.398 382.462 311.911L389.847 310.681C438.467 304.533 519.697 267.031 488.31 267.031C500.619 263.342 479.694 257.809 424.312 257.809C368.93 257.809 233.54 284.829 233.54 284.829L132 310.035Z" fill="#231916"/>
    <path d="M102.467 112.998L108.598 176.75L134.135 118.01L120.237 180.525L162.702 132.555L130.146 187.716L185.372 155.194L137.345 197.615L199.925 183.731L141.131 209.249L204.942 215.366L141.131 221.483L199.925 247.001L137.345 233.117L185.372 275.531L130.146 243.016L162.702 298.177L120.237 250.199L134.135 312.714L108.598 253.982L102.467 317.726L96.3516 253.982L70.8069 312.714L84.705 250.199L42.2395 298.177L74.7956 243.016L19.5695 275.531L67.5972 233.117L5.01701 247.001L63.8111 221.483L0 215.366L63.8111 209.249L5.01701 183.731L67.5972 197.615L19.5695 155.194L74.7956 187.716L42.2395 132.555L84.705 180.525L70.8069 118.01L96.3516 176.75L102.467 112.998Z" fill="#FFD1C5"/>
    <path d="M535.353 203.319C540.923 178.12 540.175 136.641 524.072 144.174C512.745 149.458 509.535 173.918 507.035 197.094C504.316 222.246 502.976 226.184 493.113 231.841C475.749 241.803 445.592 258.449 417.811 273.391C423.662 232.589 422.158 177.474 395.274 186.004C376.18 192.058 359.89 224.915 364.112 293.757C343.717 302.878 292.441 320.007 189.296 320.878C127.035 321.408 106.952 308.31 99.9091 263.134C93.9027 224.363 117.632 182.642 153.741 161.801C166.127 154.657 169.758 152.953 175.102 140.68C185.128 117.644 198.341 94.391 208.912 79.0288C226.386 53.6508 250.638 22.8719 318.796 13.7589C386.954 4.64585 434.6 7.88328 472.5 56.2345C484.887 72.0403 493.191 81.1378 508.928 85.0289C524.805 88.959 535.415 97.9397 542.325 122.695C547.864 142.485 548.238 175.109 535.353 203.319Z" fill="#B6CBE9"/>
    <path d="M122.141 234.719C141.235 239.217 197.544 239.217 232.453 233.163" stroke="#95B6DF" stroke-width="2.11794" stroke-miterlimit="10"/>
    <path d="M295.902 39.6098C350.895 34.4112 385.188 39.4852 386.481 58.3962C387.696 76.2954 387.104 90.1245 383.645 115.253C380.786 136.102 341.951 145.558 266.47 151.114C193.864 156.453 174.216 159.581 182.934 136.982C192.937 111.051 206.71 87.3618 219.65 70.4509C231.834 54.5284 252.962 43.6643 295.902 39.6098Z" fill="#6C9BD2"/>
    <path d="M395.155 57.0125C395.56 64.5069 396.713 96.4142 396.441 107.745C396.168 119.076 401.341 122.679 408.048 119.333C414.756 115.987 455.476 98.7255 465.526 92.2896C475.576 85.8536 480.483 78.6472 473.519 68.0867C466.554 57.5261 456.318 44.6465 443.689 37.1989C431.061 29.7512 424.104 29.0197 409.848 34.6385C399.767 38.5841 394.454 43.8838 395.155 57.0125Z" fill="#6C9BD2"/>
    <path d="M314.784 183.777C264.925 193.692 185.549 253.405 250.63 247.872C315.711 242.339 335.085 224.12 344.317 204.291C353.549 184.462 338.225 179.123 314.784 183.777Z" fill="white"/>
    <path d="M329.01 185.894C335.834 185.894 340.578 187.45 342.37 190.252C344.481 193.559 342.775 198.867 340.968 202.742C332.881 220.081 315.782 238.627 250.319 244.206C247.6 244.44 245.084 244.557 242.848 244.557C235.058 244.557 230.025 243.086 229.791 240.72C229.706 239.825 229.947 236.362 236.803 229.319C241.882 224.097 249.228 218.307 258.055 212.587C276.907 200.361 298.923 190.711 315.524 187.411C319.966 186.477 324.487 185.974 329.025 185.909M329.025 182.221C324.244 182.283 319.481 182.804 314.8 183.777C267.146 193.256 192.491 248.23 242.864 248.23C245.201 248.23 247.771 248.113 250.654 247.872C315.735 242.339 335.109 224.12 344.341 204.291C351.524 188.859 343.842 182.197 329.033 182.197L329.025 182.221Z" fill="#595857"/>
    <path d="M99.125 246.799C105.638 249.562 113.693 249.709 117.939 249.274C124.093 248.635 131.393 244.488 125.862 236.947C117.713 225.849 112.517 206.308 118.741 193.506C107.204 209.452 100.036 228.082 99.125 246.799Z" fill="white"/>
    <path d="M383.285 120.531C411.915 125.815 428.096 163.427 428.096 229.817C428.096 233.638 429.14 247.288 435.933 243.475C442.726 239.662 482.792 219.677 490.738 215.218C498.684 210.758 501.232 198.68 503.779 178.641C504.862 170.08 506.981 158.796 510.253 149.364C514.46 137.208 515.2 127.309 511.118 117.729C504.301 101.721 486.453 89.0825 471.106 89.0825" stroke="#95B6DF" stroke-width="2.11794" stroke-miterlimit="10"/>
    <path d="M447.76 106.801C463.426 113.463 486.236 136.031 468.498 226.742" stroke="#95B6DF" stroke-width="2.11794" stroke-miterlimit="10"/>
    <path d="M173.826 269.84C135.988 269.295 102.154 307.53 170.351 312.269C263.867 318.767 230.781 270.665 173.826 269.84Z" fill="#3F3B3A"/>
    <path d="M367.511 133.216C376.128 137.154 376.128 137.154 365.953 144.111C354.525 151.979 335.462 170.781 331.613 182.174" stroke="#95B6DF" stroke-width="2.11794" stroke-miterlimit="10"/>
    <path d="M113.701 204.899L114.41 202.798C114.706 202.128 115.057 201.288 115.493 200.37C115.727 199.926 115.984 199.459 116.272 198.961L116.677 198.183L117.152 197.404C117.48 196.883 117.815 196.338 118.157 195.778L119.31 194.089C120.089 192.914 121.024 191.755 121.936 190.564C122.847 189.373 123.875 188.159 124.951 186.976C125.48 186.385 126.002 185.77 126.555 185.179L128.23 183.428C129.344 182.26 130.521 181.14 131.658 180.027C132.795 178.914 133.956 177.863 135.117 176.914L136.808 175.466L138.475 174.128C139.542 173.241 140.601 172.462 141.591 171.739C142.58 171.015 143.492 170.4 144.302 169.847L145.439 169.069L146.429 168.454L148.314 167.287L148.431 167.474L146.639 168.766L145.696 169.443L144.575 170.275C143.796 170.875 142.931 171.544 142.019 172.33C141.108 173.116 140.087 173.886 139.075 174.851L137.516 176.26L135.919 177.817C134.813 178.836 133.738 179.957 132.624 181.062C131.51 182.167 130.427 183.35 129.368 184.54L127.81 186.338L126.252 188.144C125.215 189.326 124.304 190.572 123.369 191.739C122.434 192.906 121.616 194.074 120.876 195.225L119.762 196.868L118.796 198.424L118.344 199.163L117.955 199.887L117.222 201.226C116.802 202.066 116.49 202.782 116.202 203.405C115.727 204.728 115.462 205.482 115.462 205.482L113.701 204.899Z" fill="#95B6DF"/>
    <mask id="mask0_3750_23819" style="mask-type:luminance" maskUnits="userSpaceOnUse" x="181" y="30" width="296" height="125">
      <path d="M295.908 39.6094C350.9 34.4109 385.194 39.4849 386.487 58.3958C387.702 76.295 387.11 90.1241 383.651 115.253C380.792 136.102 341.957 145.557 266.476 151.114C193.87 156.452 174.222 159.581 182.94 136.981C192.943 111.051 206.716 87.3614 219.656 70.4505C231.84 54.528 252.967 43.664 295.908 39.6094ZM395.158 57.0106C395.563 64.5049 396.716 96.4122 396.443 107.743C396.17 119.074 401.343 122.677 408.051 119.331C414.758 115.985 455.478 98.7235 465.528 92.2876C475.578 85.8517 480.486 78.6453 473.521 68.0847C466.556 57.5242 456.32 44.6445 443.692 37.1969C431.063 29.7493 424.107 29.0177 409.85 34.6365C399.769 38.5822 394.456 43.8819 395.158 57.0106Z" fill="white"/>
    </mask>
    <g mask="url(#mask0_3750_23819)">
      <path d="M295.932 143.211C296.399 117.639 298.869 82.346 315.945 77.1397C317.098 67.0227 321.71 59.5595 334.175 58.8669C346.639 58.1743 352.171 65.7153 351.945 75.3186C364.869 77.5677 368.406 104.946 367.712 138.604L354.952 154.947L295.932 143.211Z" fill="#898989"/>
      <path d="M297.456 87.5117C315.974 97.6287 338.387 108.275 341.861 145.256C348.016 164.011 356.663 147.108 345.383 155.583C327.753 168.813 305.909 158.307 297.861 152.61C295.61 151.054 282.732 151.7 284.033 147.848C289.487 131.661 280.793 123.793 273.758 119.878L297.456 87.5117Z" fill="#A3CA10"/>
      <path d="M312.255 108.831C319.266 109.384 324.875 112.193 327.485 112.995C325.795 114.87 311.375 119.22 301.411 122.964C288.167 127.913 277.993 151.159 316.641 139.306C331.645 134.691 352.851 126.8 352.851 110.512C349.345 101.516 333.024 89.7255 310.86 92.4493C297.258 95.6089 299.79 108.831 312.255 108.831Z" fill="#BDD400"/>
      <path d="M263.397 93.0513C252.7 86.522 233.708 85.7982 222.544 89.9384C216.888 97.3627 215.797 111.814 227.997 127.605C258.582 167.294 252.708 132.507 246.079 122.484C241.786 115.993 240.805 107.41 240.376 102.055C243.749 101.324 252.475 101.067 258.995 104.258L263.397 93.0513Z" fill="#BDD400"/>
      <path d="M277.129 98.6025C263.683 103.832 271.357 118.984 278.687 129.164" stroke="#E7201A" stroke-width="0.250221" stroke-miterlimit="10"/>
      <path d="M251.179 83.8481C246.816 80.4629 242.57 83.3734 242.75 89.1323C242.929 94.8912 247.517 103.483 252.589 101.849L251.179 83.8481Z" fill="#F8C5AC"/>
      <path d="M255.054 108.342C251.767 100.941 244.101 80.808 243.945 63.1267C245.667 58.2783 249.523 54.9786 254.252 52.3794C255.202 47.7567 257.368 41.1651 260.087 39.1495C278.893 37.9432 294.24 43.5465 303.713 53.251C308.948 58.6208 311.994 62.0994 316.03 62.7064C313.334 64.4108 308.793 64.2629 306.759 63.6248C309.727 68.1618 312.392 71.407 315.056 73.1658C310.67 72.0685 308.317 71.6094 307.071 71.1346C308.395 72.8779 311.48 75.3993 312.579 76.3955C311.605 80.6913 303.456 96.2869 301.586 99.1664L255.054 108.342Z" fill="#896138"/>
      <path d="M305.455 67.4203C304.793 89.2574 298.443 124.698 284.865 132.457C278.701 133.153 272.479 133.153 266.316 132.457C252.48 125.025 247.089 94.2069 251.514 65.7627C253.524 52.7041 260.863 44.8206 278.079 45.1475C296.301 45.4977 305.79 56.1983 305.455 67.4203Z" fill="#FBDAC8"/>
      <path d="M261.017 111.667C261.617 109.465 265.38 110.889 267.031 111.963C268.356 112.819 274.385 112.243 277.12 111.06C282.48 108.726 285.269 109.27 287.949 116.181C290.628 123.092 282.822 122.539 278.694 121.022C274.565 119.504 271.074 118.866 268.247 120.757C265.029 122.905 261.43 122.018 262.116 118.516C262.801 115.014 260.495 113.582 261.017 111.667Z" fill="#EF845D"/>
      <path d="M284.469 120.29C285.03 123.27 284.352 125.683 282.389 128.803C280.285 132.134 279.46 137.286 281.088 140.274C281.288 141.038 281.549 141.785 281.867 142.508C287.001 154.275 298.273 148.866 304.272 144.804C312.343 143.333 319.604 139.123 319.074 137.021C318.63 135.232 313.62 137.628 307.63 138.508C313.465 135.527 319.502 130.189 318.466 127.737C317.259 124.866 313.262 129.971 303.984 133.807C311.369 128.85 315.459 121.41 313.753 118.935C312.047 116.461 308.463 123.216 302.153 127.636C307.77 120.99 307.661 112.896 305.838 112.367C303.602 111.714 302.13 118.912 296.957 124.041V124.087C294.762 125.22 292.464 126.14 290.094 126.834L289.579 126.998C289.96 124.253 289.362 121.462 287.889 119.114C285.754 116.219 283.9 117.301 284.469 120.29Z" fill="#FBDAC8"/>
      <path d="M288.249 128.418C289.262 126.246 289.363 121.297 286.605 118.394C286.076 117.834 284.728 117.499 285.172 119.476C285.616 121.452 285.624 125.88 282.484 130.947C280.669 133.881 279.571 140.924 284.299 142.558C283.692 143.538 286.13 150.076 293.29 149.562C288.896 150.138 284.557 148.675 281.884 142.558C281.566 141.835 281.306 141.088 281.105 140.324C279.477 137.336 280.326 132.184 282.406 128.853C284.37 125.74 285.047 123.32 284.486 120.34C283.926 117.359 285.772 116.269 287.945 119.258C289.418 121.606 290.017 124.397 289.636 127.141L288.249 128.418Z" fill="#F8C5AC"/>
      <path d="M282.389 128.805C284.352 125.693 285.03 123.272 284.469 120.292C283.908 117.311 285.754 116.222 287.928 119.21C289.221 120.984 290.436 125.265 289.283 128.323C292.719 132.339 291.511 137.771 288.808 140.635C292.532 135.833 289.766 129.444 288.231 128.416C289.244 126.245 289.345 121.296 286.588 118.393C286.058 117.832 284.71 117.498 285.154 119.475C285.598 121.451 285.606 125.879 282.466 130.946C280.651 133.879 279.561 140.899 284.266 142.549C284 142.516 283.739 142.453 283.487 142.362C279.062 140.806 279.6 133.21 282.389 128.805Z" fill="#F8C5AC"/>
      <path d="M296.936 127.397C295.549 124.673 297.465 124.782 298.868 127.039C301.205 131.195 303.916 138.02 304.321 142.534C304.317 142.565 304.317 142.596 304.321 142.627C304.321 142.829 304.321 143.008 304.321 143.195C304.282 144.985 303.277 144.487 302.576 142.541C301.672 139.926 298.455 130.378 296.936 127.397Z" fill="#F8C5AC"/>
      <path d="M258.506 77.9883L268.797 87.9262" stroke="#A27A51" stroke-width="1.07238" stroke-miterlimit="10" stroke-linecap="round"/>
      <path d="M255.678 88.5576L265.276 92.869L258.638 96.6979" stroke="#A27A51" stroke-width="1.07238" stroke-linecap="round" stroke-linejoin="round"/>
      <path d="M289.56 89.0605L280.305 93.442L286.436 96.9751" stroke="#A27A51" stroke-width="1.07238" stroke-linecap="round" stroke-linejoin="round"/>
      <path d="M302.123 84.3985L305.208 84.7409L307.233 77.6124L300.611 74.8652" fill="#896138"/>
      <path d="M299.465 103.131C305.004 105.124 310.621 96.4075 311.15 90.4151C311.68 84.4228 307.162 81.1309 302.106 84.415C301.327 85.808 300.423 89.2478 300.143 92.7031C299.839 96.7654 299.566 101.303 299.465 103.131Z" fill="#F8C5AC"/>
      <path d="M302.977 78.314C302.977 81.8628 301.575 86.4854 300.157 92.7035C298.911 81.3258 293.146 67.4811 288.105 62.7884C289.515 66.0725 290.925 76.7031 290.98 82.8589C288.214 75.3957 281.998 67.9481 275.578 60.4382C277.238 62.9285 278.243 70.9209 278.508 75.1389C273.927 67.6368 266.503 61.2242 261.018 58.2514C254.404 63.3332 250.034 78.5242 250.112 90.8668C248.322 83.122 247.493 75.1869 247.642 67.2399C247.642 67.2399 254.591 52.6092 255.627 50.9749C256.663 49.3407 269.533 42.4144 277.713 43.0292C285.893 43.644 294.852 46.8815 299.214 50.7415C303.577 54.6015 304.185 55.5276 305.447 62.4149C306.709 69.3022 307.644 76.0883 307.059 78.7576" fill="#896138"/>
      <path d="M228.082 130.588C229.461 125.553 239.604 116.697 243.367 114.93C244.885 116.889 246.586 118.7 248.446 120.339C253.245 124.549 256.237 131.903 249.365 137.95C239.736 146.464 231.806 136.814 228.082 130.588Z" fill="#FBDAC8"/>
      <path d="M238.146 118.699C234.149 109.22 238.239 100.255 240.311 100.574C242.649 100.932 240.911 108.076 243.428 114.932" fill="#FBDAC8"/>
      <path d="M228.074 130.625C221.375 125.917 216.607 119.014 217.908 117.356C219.209 115.698 223.704 121.636 230.108 124.975" fill="#FBDAC8"/>
      <path d="M230.307 126.473C225.227 121.804 219.969 111.36 222.361 109.188C224.752 107.017 226.256 113.858 233.703 121.64" fill="#FBDAC8"/>
      <path d="M234.015 122.462C228.437 114.477 227.58 104.835 230.361 103.193C233.142 101.551 233.399 110.719 238.307 117.715" fill="#FBDAC8"/>
      <path d="M247.944 137.152C242.366 136.615 241.127 125.385 248.598 121.969C248.847 118.716 251.753 115.338 253.677 114.272C256.91 112.482 258.133 114.272 256.365 116.716C254.597 119.159 254.184 121.658 254.651 125.276C255.313 130.475 252.602 137.588 247.944 137.152Z" fill="#FBDAC8"/>
      <path d="M253.711 114.239C251.389 115.751 249.672 118.029 248.858 120.675L248.453 120.317C246.6 118.684 244.905 116.881 243.389 114.932H243.428C240.919 108.076 242.649 100.924 240.312 100.574C238.434 100.286 234.921 107.578 237.195 115.975C233.3 109.305 232.911 101.694 230.348 103.196C227.785 104.698 228.322 113.189 232.926 120.8C226.133 113.407 224.661 107.103 222.355 109.189C220.384 110.979 223.601 118.356 227.637 123.524C222.55 120.185 219.067 115.92 217.883 117.352C216.543 119.01 221.35 125.913 228.05 130.621C231.773 136.847 239.735 146.481 249.333 137.983C249.926 137.461 250.476 136.891 250.977 136.279C253.719 134.255 255.145 129.236 254.646 125.329C254.179 121.679 254.584 119.197 256.36 116.769C258.136 114.341 256.944 112.481 253.711 114.239Z" fill="#FBDAC8"/>
      <path d="M249.524 122.492C249.524 120.103 251.519 115.565 255.25 114.095C255.959 113.814 257.33 114.095 256.092 115.69C254.853 117.285 252.975 121.301 253.676 127.223C254.089 130.647 252.118 137.488 247.133 136.982C247.273 138.126 242.295 143.029 236.039 139.519C239.778 141.854 244.328 142.391 249.345 137.963C249.938 137.44 250.488 136.87 250.989 136.259C253.731 134.235 255.157 129.216 254.658 125.309C254.191 121.659 254.596 119.176 256.372 116.748C258.148 114.32 256.917 112.515 253.684 114.305C251.362 115.817 249.645 118.094 248.831 120.741L249.524 122.492Z" fill="#F8C5AC"/>
      <path d="M254.649 125.309C254.181 121.659 254.586 119.176 256.363 116.748C258.139 114.32 256.908 112.515 253.675 114.305C251.751 115.371 248.845 118.748 248.596 122.001C243.789 124.196 242.589 129.628 243.836 133.371C242.48 127.441 247.692 122.811 249.515 122.523C249.515 120.134 251.509 115.597 255.241 114.126C255.95 113.846 257.321 114.126 256.082 115.721C254.844 117.316 252.966 121.332 253.667 127.254C254.08 130.671 252.109 137.504 247.147 137.013C247.4 137.095 247.661 137.152 247.926 137.185C252.6 137.589 255.311 130.476 254.649 125.309Z" fill="#F8C5AC"/>
      <path d="M242.06 117.895C244.46 116.011 242.676 115.303 240.456 116.751C236.607 119.56 231.239 124.587 228.972 128.517C228.972 128.517 228.972 128.572 228.933 128.595C228.832 128.774 228.754 128.938 228.669 129.101C227.952 130.743 229.082 130.72 230.538 129.241C232.455 127.296 239.419 119.957 242.06 117.895Z" fill="#F8C5AC"/>
      <path d="M238.934 159.382C228.588 144.814 231.011 125.343 244.348 115.887C257.685 106.432 276.888 110.587 287.234 125.148C297.58 139.709 295.157 159.188 281.82 168.643C268.483 178.099 249.31 173.935 238.934 159.382ZM277.449 162.495C287.678 155.242 289.54 140.308 281.602 129.14C273.663 117.973 258.947 114.79 248.718 122.043C238.49 129.296 236.628 144.222 244.566 155.39C252.504 166.558 267.228 169.725 277.449 162.495Z" fill="#3F3B3A"/>
      <path d="M285.127 135.918C286.833 140.354 281.746 142.347 279.674 140.059C275.328 135.361 269.543 132.238 263.228 131.179C255.531 129.926 250.569 130.735 247.305 132.362C244.04 133.988 240.714 131.405 243.409 127.482C246.105 123.56 240.083 122.969 237.489 131.031C234.895 139.094 244.227 157.444 244.227 157.444L289.552 151.008L287.854 133.701L285.127 135.918Z" fill="#3F3B3A"/>
      <path d="M254.547 148.277C250.901 143.141 251.758 136.277 256.456 132.946C261.153 129.616 267.931 131.079 271.577 136.207C275.223 141.336 274.366 148.207 269.668 151.538C264.971 154.869 258.193 153.414 254.547 148.277Z" fill="#3F3B3A"/>
      <path d="M381.193 142.171C362.325 138.903 293.053 139.79 256.126 142.755C231.33 124.443 198.174 133.852 184.089 151.525L178.168 165.284L323.435 198.453L376.067 182.203L381.193 142.171Z" fill="#595857"/>
      <path d="M275.594 85.5785C277.705 87.5163 283.719 90.5358 291.26 84.8003" stroke="#A27A51" stroke-width="1.07238" stroke-miterlimit="10" stroke-linecap="round"/>
      <path d="M271.769 83.6455C271.387 85.7234 272.252 88.4939 273.116 89.1865" stroke="#A27A51" stroke-width="1.07238" stroke-miterlimit="10" stroke-linecap="round"/>
      <path d="M375.959 138.028C376.419 112.456 378.888 77.1629 395.965 71.9566C397.118 61.8396 401.737 54.3764 414.194 53.6838C426.651 52.9912 432.198 60.5322 431.964 70.1355C444.888 72.3846 448.433 99.7627 447.74 133.421L375.959 138.028Z" fill="#898989"/>
      <path d="M272.043 95.4429L267.127 105.56C268.685 107.801 274.473 107.895 276.935 105.56L272.043 95.4429Z" fill="#F8C5AC"/>
    </g>
    <path d="M452.989 102.685C444.723 72.0777 424.047 36.466 414.948 27.8354L408.389 31.9211C416.958 41.0575 435.569 77.7976 442.067 108.833" fill="#B6CBE9"/>
    <path d="M414.066 39.6407C411.557 35.8896 408.83 34.9013 405.372 36.6523C401.913 38.4033 406.93 26.3875 411.604 25.3836C416.278 24.3797 427.855 30.7845 423.64 30.9712C419.425 31.158 420.041 33.6717 421.887 36.4188C423.733 39.166 414.066 39.6407 414.066 39.6407Z" fill="#B6CBE9"/>
    <path d="M411.714 117.613C407.748 105.877 400.737 90.04 396.133 82.9814C396.405 92.6704 396.592 102.437 396.468 107.745C396.211 119.076 401.368 122.679 408.075 119.332C408.823 118.912 410.093 118.344 411.714 117.613Z" fill="#3F3B3A"/>
    <path d="M414.054 39.6342C411.6 35.9688 408.928 34.9649 405.571 36.5602C398.294 40.3969 394.563 45.899 395.155 57.0121C395.56 64.5064 396.713 96.4137 396.44 107.745C396.168 119.076 401.34 122.679 408.048 119.332C411.896 117.402 427.01 110.873 441.071 104.453C435.252 80.2655 422.912 53.6345 414.054 39.6342Z" stroke="#595857" stroke-width="4.23588" stroke-miterlimit="10"/>
    <path d="M473.521 68.086C466.564 57.5254 456.319 44.6458 443.691 37.167C435.807 32.4976 430.144 30.482 423.53 30.9412H423.428C423.179 30.9412 422.914 30.9957 422.649 31.0268C419.533 31.5482 420.18 33.8673 421.87 36.3499C431.601 50.3113 445.093 75.8838 452.004 99.2695C456.619 97.1494 461.123 94.7934 465.497 92.211C475.585 85.8529 480.485 78.6465 473.521 68.086Z" stroke="#595857" stroke-width="4.23588" stroke-miterlimit="10"/>
    <path d="M403.004 105.269C407.336 88.7553 419.146 80.4283 430.466 79.0897C450.417 76.7551 457.483 80.5684 459.29 93.0978C462.118 112.662 445.828 114.694 410.288 119.114C398.541 120.561 401.758 109.985 403.004 105.269Z" fill="#CCDAF0"/>
    <path d="M415.498 260.027C416.184 261.055 416.916 264.183 415.708 267.81C416.154 266.148 416.119 264.394 415.607 262.751C415.529 261.973 415.498 260.985 415.498 260.027Z" fill="#B5B6B6"/>
    <mask id="mask1_3750_23819" style="mask-type:luminance" maskUnits="userSpaceOnUse" x="321" y="144" width="240" height="185">
      <path d="M321.867 307.343C342.161 302.573 355.771 297.467 364.153 293.716C359.9 224.874 376.19 192.018 395.315 185.963C398.533 184.228 434.984 207.575 442.198 221.123C454.257 243.785 438.528 262.167 443.919 259.257C463.107 248.774 481.173 238.719 493.155 231.84C503.017 226.182 504.357 222.244 507.076 197.092C509.577 173.924 512.787 149.464 524.114 144.172L560.113 207.108L553.102 295.281L461.362 324.137L384.44 328.254L321.867 307.343Z" fill="white"/>
    </mask>
    <g mask="url(#mask1_3750_23819)">
      <path d="M405.29 207.313C388.268 203.344 381.521 205.655 375.25 208.613C362.622 214.06 350.664 231.111 345.537 253.018C340.411 274.925 343.574 295.47 352.463 305.977C356.771 311.424 361.812 316.467 378.818 320.444C395.824 324.42 401.301 321.541 405.874 319.37L429.066 220.263C425.934 216.294 422.32 211.29 405.29 207.313Z" fill="#3F3B3A"/>
      <path d="M377.266 260.439C384.067 231.279 402.998 210.75 419.506 214.641C436.013 218.532 443.866 245.248 437.042 274.401C430.217 303.553 411.333 324.067 394.802 320.207C378.271 316.347 370.45 289.592 377.266 260.439Z" fill="#595857"/>
      <path d="M381.508 261.43C387.841 234.355 405.401 215.312 420.732 218.884C436.064 222.456 443.324 247.321 437.014 274.387C430.704 301.454 413.121 320.474 397.789 316.925C382.458 313.377 375.174 288.497 381.508 261.43Z" fill="#3F3B3A"/>
      <path d="M388.302 263.006C393.506 240.78 407.926 225.145 420.515 228.087C433.105 231.029 439.08 251.434 433.876 273.652C428.672 295.871 414.26 311.513 401.678 308.579C389.097 305.645 383.106 285.232 388.302 263.006Z" fill="#EFEFEF"/>
      <path d="M389.961 263.395C394.635 243.558 407.466 229.612 418.7 232.266C429.934 234.92 435.27 253.091 430.627 272.92C425.984 292.75 413.122 306.703 401.896 304.088C390.67 301.474 385.326 283.232 389.961 263.395Z" fill="#B5B6B6"/>
      <path d="M391.117 263.409C395.301 245.509 406.893 232.972 417.005 235.338C427.117 237.704 431.931 254.093 427.755 271.961C423.58 289.829 411.98 302.406 401.868 300.04C391.756 297.674 386.934 281.277 391.117 263.409Z" fill="#DCDDDD"/>
      <path d="M404.192 266.468C405.391 261.348 408.718 257.737 411.616 258.414C414.514 259.091 415.901 263.799 414.732 268.92C413.563 274.04 410.175 277.675 407.277 276.974C404.379 276.274 402.992 271.597 404.192 266.468Z" fill="#B5B6B6"/>
      <path d="M405.951 266.728C406.597 263.966 408.389 262.02 409.955 262.386C411.521 262.752 412.292 265.289 411.614 268.051C410.936 270.814 409.176 272.76 407.61 272.394C406.044 272.028 405.304 269.491 405.951 266.728Z" fill="#DCDDDD"/>
      <path d="M406.523 266.863C407.045 264.637 408.486 263.073 409.741 263.369C410.995 263.665 411.595 265.704 411.081 267.922C410.566 270.139 409.117 271.711 407.863 271.416C406.609 271.12 406.001 269.112 406.523 266.863Z" fill="#3F3B3A"/>
      <path d="M504.864 171.054C496.824 171 490.459 172.735 486.408 175.303C479.397 179.7 474.068 198.86 473.944 221.872C473.819 244.884 478.968 264.122 485.917 268.636C489.945 271.259 496.294 273.064 504.342 273.095C512.389 273.126 519.51 271.212 523.397 268.994L523.888 175.319C520 173.077 512.973 171.093 504.864 171.054Z" fill="#3F3B3A"/>
      <path d="M505.572 222.068C505.705 195.756 512.677 174.487 521.153 174.557C529.629 174.627 536.36 196.005 536.22 222.317C536.079 248.629 529.123 269.906 520.639 269.836C512.155 269.766 505.44 248.38 505.572 222.068Z" fill="#595857"/>
      <path d="M507.793 222.08C507.925 197.652 514.391 177.893 522.244 177.963C530.097 178.033 536.368 197.877 536.267 222.322C536.165 246.766 529.676 266.517 521.816 266.447C513.955 266.377 507.668 246.54 507.793 222.08Z" fill="#3F3B3A"/>
      <path d="M412.338 255.371C411.458 254.351 409.845 253.884 407.827 255.13C408.451 254.25 410.725 252.717 412.143 252.966C410.585 252.141 409.354 252.227 407.414 253.705C408.521 252.149 412.042 249.379 414.332 250.048C412.634 248.919 410.211 248.997 406.776 251.97C408.24 249.635 412.042 245.822 415.828 246.966C413.25 245.464 408.287 247.262 405.755 250.857C407.033 248.522 411.878 243.448 415.376 243.752C412.081 242.81 408.419 245.472 406.137 247.853C407.975 244.421 413.522 240.483 417.043 240.149C413.359 239.293 408.373 241.861 405.74 245.666C409.136 239.176 414.364 237.596 416.584 237.106C412.33 236.118 404.898 240.701 402.078 247.775C399.258 254.849 405.194 256.663 407.259 257.028C409.222 255.2 410.936 254.826 412.338 255.371Z" fill="#B5B6B6"/>
      <path d="M408.254 257.434C409.251 256.383 411.534 255.363 413.037 257.527C412.619 257.137 412.074 256.91 411.502 256.887C410.93 256.865 410.369 257.047 409.921 257.402C409.369 257.484 408.809 257.494 408.254 257.434Z" fill="#B5B6B6"/>
      <path d="M403.694 262.332C402.171 264.483 401.249 267 401.022 269.624C400.934 267.2 401.318 264.782 402.151 262.503C400.79 264.853 400.03 267.502 399.939 270.216C399.631 266.331 400.211 262.427 401.637 258.799C400.009 261.492 398.693 265.422 398.521 271.165C397.96 268.659 397.812 262.27 400.632 256.2C398.295 260.309 396.558 268.449 397.267 272.753C396.581 270.55 396.285 262.41 398.435 256.76C396.02 262.06 395.553 268.13 395.693 271.959C394.673 268.791 395.444 259.577 397.251 253.818C394.665 259.741 393.356 267.974 394.19 272.457C392.219 266.581 394.19 258.021 395.195 254.402C392.211 261.235 390.762 273.562 393.411 278.527C396.059 283.492 400.484 273.928 401.855 270.644C401.814 267.768 402.443 264.922 403.694 262.332Z" fill="#B5B6B6"/>
      <path d="M402.691 269.028C402.629 267.355 403.299 263.581 405.441 261.246C404.433 262.733 403.811 264.447 403.634 266.235C403.393 267.129 403.042 268.11 402.691 269.028Z" fill="#B5B6B6"/>
      <path d="M403.014 276.695C403.209 278.563 404.089 280.625 405.865 281.435C405.133 281.668 403.084 280.867 402.25 279.201C402.944 281.536 403.808 282.711 405.608 283.232C404.299 283.653 400.996 282.773 399.742 279.832C400.435 282.625 402.079 284.976 405.382 285.552C403.575 286.33 399.672 286.205 397.592 281.31C398.721 285.349 402.617 288.579 405.593 287.676C403.879 288.672 398.862 288.688 396.688 284.89C398.495 289.108 401.861 290.198 404.229 290.182C401.767 291.661 396.688 289.902 394.257 286.672C396.345 291.194 400.544 293.715 403.668 292.672C399.056 295.536 395.06 291.832 393.447 290.042C395.855 295.256 402.406 298.283 406.847 294.275C411.287 290.268 408.085 282.54 406.886 280.143C404.985 280.011 403.731 278.625 403.014 276.695Z" fill="#B5B6B6"/>
      <path d="M406.423 278.734C405.379 278.734 403.517 277.45 403.307 273.854C403.657 275.925 404.686 276.905 405.278 277.053C405.704 277.582 406.087 278.144 406.423 278.734Z" fill="#B5B6B6"/>
      <path d="M411.193 278.605C412.416 278.387 414.145 277.048 415.633 274.247C415.36 275.437 413.732 278.714 412.268 279.982C414.044 278.986 415.228 277.647 416.56 274.76C416.077 276.9 413.693 282.216 411.232 284.099C413.288 283.134 415.594 280.651 417.822 275.274C417.261 278.247 415.002 284.566 410.92 287.609C413.974 285.998 418.095 279.826 419.224 274.994C418.858 277.811 416.046 285.959 412.556 289.266C416.093 286.574 418.64 281.173 419.965 277.336C419.458 281.414 415.555 289.547 412.252 293.305C416.147 290.192 419.996 283.507 421.133 278.379C420.253 286.021 415.789 292.294 413.81 294.807C418.282 291.196 423.774 280.737 423.875 273.32C423.977 265.904 417.565 270.667 415.454 272.472C414.262 275.593 412.751 277.546 411.193 278.605Z" fill="#B5B6B6"/>
      <path d="M414.34 273.176C413.764 274.865 411.933 277.846 409.666 277.908C411.017 277.324 412.097 276.251 412.689 274.904C413.2 274.292 413.752 273.715 414.34 273.176Z" fill="#B5B6B6"/>
      <path d="M416.969 265.425C417.64 262.985 417.603 260.405 416.86 257.985C417.421 258.491 418.418 261.324 418.418 263.768C418.823 260.818 418.699 258.834 417.709 256.515C418.722 257.41 420.553 261.573 420.28 265.667C420.992 261.871 420.445 257.948 418.722 254.491C420.187 255.565 422.687 259.581 422.212 266.367C422.991 261.332 421.62 254.304 419.345 252.195C420.825 252.974 424.113 257.962 424.121 263.807C424.505 259.377 423.468 254.939 421.16 251.137C423.311 252.18 425.975 258.966 426.364 264.523C426.676 258.063 424.869 251.417 422.469 249.293C426.536 251.153 427.774 258.74 428.164 262.079C428.522 254.639 425.367 245.145 420.989 244.569C416.611 243.993 415.847 254.686 415.738 258.172C416.881 260.407 417.311 262.939 416.969 265.425Z" fill="#B5B6B6"/>
      <path d="M512.89 222.16C512.991 202.097 518.304 185.863 524.755 185.895C531.205 185.926 536.347 202.237 536.238 222.284C536.129 242.332 530.824 258.581 524.381 258.55C517.938 258.519 512.789 242.223 512.89 222.16Z" fill="#EFEFEF"/>
      <path d="M514.184 222.173C514.277 204.273 519.014 189.783 524.771 189.814C530.528 189.845 535.109 204.382 535.023 222.282C534.937 240.181 530.185 254.671 524.436 254.64C518.687 254.609 514.067 240.072 514.184 222.173Z" fill="#B5B6B6"/>
      <path d="M514.687 221.956C514.772 205.831 519.041 192.772 524.23 192.803C529.418 192.834 533.578 205.924 533.461 222.049C533.345 238.174 529.107 251.209 523.926 251.209C518.745 251.209 514.609 238.081 514.687 221.956Z" fill="#DCDDDD"/>
      <path d="M521.397 221.986C521.397 217.363 522.651 213.62 524.139 213.627C525.627 213.635 526.811 217.394 526.788 222.017C526.764 226.639 525.533 230.383 524.053 230.375C522.573 230.367 521.381 226.608 521.397 221.986Z" fill="#B5B6B6"/>
      <path d="M521.438 221.859C521.438 219.361 522.108 217.345 522.91 217.345C523.713 217.345 524.351 219.376 524.336 221.867C524.32 224.357 523.666 226.388 522.863 226.38C522.061 226.373 521.422 224.349 521.438 221.859Z" fill="#DCDDDD"/>
      <path d="M521.733 221.869C521.733 219.861 522.278 218.243 522.917 218.243C523.555 218.243 524.077 219.877 524.07 221.877C524.062 223.877 523.532 225.535 522.885 225.535C522.239 225.535 521.725 223.869 521.733 221.869Z" fill="#3F3B3A"/>
      <path d="M524.127 210.881C523.581 210.181 522.748 210.103 521.906 211.566C522.109 210.687 523.051 208.936 523.768 208.866C522.935 208.453 522.327 208.78 521.548 210.422C521.914 208.866 523.324 205.807 524.516 205.924C523.566 205.294 522.397 205.838 521.042 209.037C521.501 206.764 522.942 202.733 524.937 202.967C523.519 202.188 521.299 204.71 520.457 208.266C520.823 205.994 522.631 200.71 524.352 200.282C522.646 200.126 521.158 203.13 520.309 205.62C520.823 202.321 523.098 197.838 524.789 196.865C522.896 196.865 520.753 200.041 519.881 203.823C520.831 197.597 523.2 195.208 524.236 194.383C522.054 194.383 518.93 199.776 518.338 206.383C517.746 212.99 520.839 213.387 521.867 213.286C522.592 211.356 523.379 210.694 524.127 210.881Z" fill="#B5B6B6"/>
      <path d="M522.396 213.487C522.763 212.389 523.768 211.066 524.734 212.615C524.087 211.977 523.472 212.615 523.222 213.121C522.973 213.295 522.693 213.42 522.396 213.487Z" fill="#B5B6B6"/>
      <path d="M520.734 218.529C520.216 220.746 520.045 223.03 520.228 225.299C519.918 223.208 519.842 221.088 520.002 218.98C519.59 221.305 519.509 223.676 519.76 226.023C519.179 222.684 519.037 219.282 519.339 215.906C518.733 219.611 518.68 223.385 519.184 227.105C518.239 222.76 518.034 218.288 518.576 213.875C517.875 217.86 517.929 225.167 518.747 228.716C517.689 224.153 517.292 219.461 517.571 214.786C517.11 219.303 517.217 223.86 517.89 228.35C517.049 225.836 516.418 217.79 516.667 212.505C516.052 218.093 516.332 225.385 517.205 229.074C515.647 224.404 515.647 216.708 515.725 213.408C515.016 219.852 515.662 230.693 517.485 234.42C519.308 238.148 520.43 229.082 520.734 226C520.408 223.52 520.408 221.009 520.734 218.529Z" fill="#B5B6B6"/>
      <path d="M520.915 224.484C520.605 222.084 520.772 219.645 521.406 217.309C521.076 218.826 520.963 220.383 521.071 221.932C521.048 222.718 520.985 223.628 520.915 224.484Z" fill="#B5B6B6"/>
      <path d="M521.952 230.974C522.248 232.53 522.902 234.125 523.861 234.476C523.526 234.818 522.443 234.53 521.851 233.277C522.443 235.129 522.988 235.97 523.931 236.055C523.339 236.678 521.633 236.585 520.705 234.304C521.344 236.561 522.38 238.258 524.071 238.087C523.292 239.114 521.368 239.775 519.833 235.985C520.822 239.223 523.074 241.223 524.421 239.877C523.705 241.067 521.259 242.071 519.786 239.246C521.126 242.499 522.902 242.772 524.04 242.289C522.996 244.04 520.332 243.542 518.797 241.254C520.308 244.717 522.63 246.04 524.04 244.538C522.1 247.9 519.755 245.511 518.773 244.297C520.511 248.289 524.032 249.589 525.785 245.277C527.538 240.966 525.107 234.989 524.227 233.168C523.261 233.394 522.505 232.483 521.952 230.974Z" fill="#B5B6B6"/>
      <path d="M523.85 232.048C523.343 232.266 522.292 231.519 521.816 228.476C522.214 230.18 522.814 230.811 523.117 230.811C523.392 231.205 523.636 231.618 523.85 232.048Z" fill="#B5B6B6"/>
      <path d="M526.135 230.974C526.703 230.546 527.405 229.083 527.817 226.367C527.735 228.262 527.394 230.136 526.805 231.939C527.584 230.74 527.997 229.379 528.363 226.624C528.363 228.554 527.779 233.573 526.805 235.651C527.701 234.414 528.55 231.838 529.048 226.795C529.095 229.449 528.69 235.301 527.038 238.717C528.347 236.741 529.679 230.663 529.703 226.266C529.827 228.756 529.344 236.289 528.012 239.807C529.438 236.803 530.084 231.674 530.31 228.133C530.513 231.729 529.531 239.464 528.308 243.34C529.866 239.892 531.004 233.418 530.996 228.803C531.213 234.033 530.617 239.265 529.228 244.313C531.012 240.336 532.546 230.305 531.783 223.923C531.019 217.542 528.417 222.904 527.592 224.857C527.501 226.97 527.007 229.047 526.135 230.974Z" fill="#B5B6B6"/>
      <path d="M527.091 225.725C526.989 227.282 526.429 230.177 525.338 230.706C525.994 229.767 526.389 228.671 526.483 227.531C526.639 226.931 526.873 226.309 527.091 225.725Z" fill="#B5B6B6"/>
      <path d="M527.509 218.586C527.58 216.436 527.288 214.289 526.644 212.236C526.979 212.563 527.789 214.781 528.023 216.905C528.021 214.827 527.635 212.766 526.886 210.827C527.478 211.403 528.825 214.602 529.137 218.166C529.11 214.977 528.437 211.827 527.158 208.905C527.984 209.528 529.643 212.477 530.15 218.384C529.971 213.917 528.545 208.166 527.205 206.811C527.984 207.162 530.157 210.812 530.804 215.808C530.344 210.703 528.989 207.247 527.976 205.551C529.137 206.018 531.178 211.302 531.973 215.979C531.42 210.391 529.815 205.084 528.397 203.714C530.586 204.492 532.012 210.757 532.573 213.543C531.926 207.099 529.355 199.59 527.166 199.963C524.977 200.337 525.764 209.613 526.091 212.648C526.953 214.514 527.435 216.532 527.509 218.586Z" fill="#B5B6B6"/>
      <path d="M526.182 214.25C526.626 214.989 527.327 217.526 527.14 220.888C527.185 219.427 526.982 217.969 526.54 216.576C526.408 215.899 526.291 215.067 526.182 214.25Z" fill="#B5B6B6"/>
    </g>
    <path d="M453.605 128.701C451.019 124.289 450.66 119.705 452.826 118.452C454.992 117.199 458.794 119.759 461.396 124.164C463.998 128.569 464.34 133.168 462.175 134.421C460.009 135.674 456.192 133.114 453.605 128.701Z" fill="#77A4D7"/>
    <path d="M451.579 129.885C450.558 128.134 452.358 125.177 455.622 123.27C458.886 121.364 462.353 121.239 463.412 122.983C464.472 124.726 462.633 127.699 459.369 129.605C456.105 131.512 452.63 131.636 451.579 129.885Z" fill="#CCDAF0"/>
    <path d="M490.853 110.179C488.516 106.288 488.243 102.195 490.136 101.09C492.029 99.9844 495.434 102.249 497.724 106.156C500.015 110.062 500.334 114.133 498.441 115.245C496.548 116.358 493.136 114.086 490.853 110.179Z" fill="#77A4D7"/>
    <path d="M489.064 111.222C488.153 109.666 489.757 107.051 492.648 105.362C495.538 103.673 498.615 103.557 499.519 105.105C500.422 106.654 498.825 109.284 495.935 110.973C493.045 112.662 489.968 112.779 489.064 111.222Z" fill="#CCDAF0"/>
    <path d="M113.991 249.46C115.502 249.46 116.842 249.383 117.941 249.274C124.095 248.635 131.395 244.488 125.864 236.947C117.715 225.849 112.519 206.308 118.743 193.506C116.504 196.615 114.424 199.836 112.511 203.156C111.451 215.608 116.11 229.865 122.911 239.133C123.69 240.153 124.469 241.577 124.033 242.565C123.41 243.958 120.582 245.297 117.582 245.6C116.397 245.717 115.206 245.774 114.014 245.772C111.085 245.772 105.445 245.46 100.592 243.437L100.475 243.39L100.358 243.351L99.423 243.017C99.2984 244.293 99.2127 245.561 99.1504 246.83C103.957 248.877 109.644 249.46 113.991 249.46Z" fill="#595857"/>
    <path d="M287.203 212.689C287.203 209.909 288.028 207.191 289.574 204.88C291.12 202.569 293.318 200.767 295.888 199.704C298.459 198.64 301.288 198.362 304.017 198.904C306.747 199.446 309.254 200.785 311.221 202.75C313.189 204.716 314.529 207.22 315.072 209.947C315.615 212.673 315.336 215.499 314.271 218.067C313.206 220.635 311.403 222.83 309.089 224.375C306.775 225.919 304.055 226.743 301.273 226.743C299.425 226.744 297.595 226.382 295.887 225.676C294.18 224.97 292.628 223.934 291.322 222.629C290.015 221.324 288.979 219.774 288.272 218.068C287.565 216.363 287.202 214.535 287.203 212.689Z" fill="#C9CACA"/>
    <path d="M287.545 208.47C287.545 207.031 287.972 205.624 288.772 204.427C289.573 203.231 290.71 202.298 292.041 201.747C293.372 201.196 294.837 201.052 296.25 201.333C297.663 201.614 298.961 202.307 299.98 203.325C300.998 204.342 301.692 205.639 301.973 207.05C302.254 208.462 302.11 209.925 301.559 211.254C301.007 212.584 300.074 213.72 298.876 214.52C297.678 215.319 296.27 215.746 294.829 215.746C292.897 215.746 291.044 214.98 289.678 213.615C288.312 212.25 287.545 210.4 287.545 208.47Z" fill="white"/>
    <path d="M321.863 193.255C324.816 194.625 328.945 201.917 325.229 210.166C321.513 218.415 328.111 213.831 331.625 209.894C335.138 205.956 342.001 191.193 321.863 193.255Z" fill="#C9CACA"/>
    <path d="M308.71 208.469C308.258 211.247 306.933 218.064 300.039 219.652C295.045 220.804 294.664 223.481 300.88 223.94C310.4 224.648 314.42 215.247 312.2 208.165C311.07 204.554 309.232 205.247 308.71 208.469Z" fill="#9FA0A0"/>
    <path d="M104.021 231.755C104.021 226.603 106.359 222.417 109.296 222.417C112.233 222.417 114.562 226.588 114.562 231.755C114.562 236.923 112.225 241.094 109.296 241.094C106.366 241.094 104.021 236.876 104.021 231.755Z" fill="#C9CACA"/>
    <path d="M104.148 228.921C104.148 226.252 105.372 224.096 106.883 224.096C108.394 224.096 109.61 226.252 109.61 228.921C109.61 231.591 108.386 233.754 106.883 233.754C105.379 233.754 104.148 231.591 104.148 228.921Z" fill="white"/>
    <path d="M112.09 228.922C111.919 230.767 111.428 235.288 108.841 236.347C106.972 237.125 106.832 238.884 109.161 239.195C112.729 239.662 114.232 233.42 113.399 228.72C112.97 226.307 112.285 226.782 112.09 228.922Z" fill="#9FA0A0"/>
    <path d="M258.74 226.307C258.739 224.163 259.374 222.066 260.565 220.283C261.757 218.499 263.451 217.108 265.434 216.286C267.417 215.465 269.599 215.249 271.705 215.666C273.81 216.084 275.745 217.116 277.263 218.631C278.781 220.147 279.816 222.079 280.235 224.182C280.655 226.285 280.44 228.465 279.619 230.446C278.798 232.428 277.407 234.121 275.622 235.313C273.837 236.504 271.739 237.14 269.592 237.14C266.715 237.14 263.956 235.999 261.921 233.968C259.887 231.937 258.742 229.181 258.74 226.307Z" fill="#C9CACA"/>
    <path d="M259.008 223.062C259.008 221.952 259.337 220.867 259.954 219.944C260.572 219.022 261.449 218.302 262.475 217.878C263.502 217.453 264.631 217.342 265.72 217.559C266.81 217.775 267.811 218.309 268.596 219.094C269.382 219.879 269.917 220.879 270.134 221.967C270.35 223.055 270.239 224.184 269.814 225.209C269.389 226.234 268.669 227.111 267.745 227.727C266.822 228.344 265.736 228.673 264.625 228.673C263.887 228.674 263.156 228.529 262.474 228.248C261.792 227.966 261.172 227.553 260.651 227.032C260.129 226.51 259.715 225.891 259.433 225.21C259.151 224.529 259.007 223.799 259.008 223.062Z" fill="white"/>
    <path d="M275.308 223.062C274.958 225.203 273.937 230.456 268.624 231.677C264.776 232.565 264.479 234.627 269.278 234.985C276.609 235.537 279.717 228.284 278.004 222.821C277.131 220.082 275.713 220.572 275.308 223.062Z" fill="#9FA0A0"/>
    <path d="M295.902 39.6098C350.895 34.4112 385.188 39.4852 386.481 58.3962C387.696 76.2954 387.104 90.1245 383.645 115.253C380.786 136.102 341.951 145.558 266.47 151.114C193.864 156.453 174.216 159.581 182.934 136.982C192.937 111.051 206.71 87.3618 219.65 70.4509C231.834 54.5284 252.962 43.6643 295.902 39.6098Z" stroke="#595857" stroke-width="4.23588" stroke-miterlimit="10"/>
  </g>
  <defs>
    <clipPath id="clip0_3750_23819">
      <rect width="647" height="327.968" fill="white" transform="translate(0 0.301758)"/>
    </clipPath>
  </defs>
</svg>
