<svg width="20" height="21" viewBox="0 0 20 21" fill="none" xmlns="http://www.w3.org/2000/svg">
<g clip-path="url(#clip0_2348_3463)">
<path fill-rule="evenodd" clip-rule="evenodd" d="M18.75 9.5835H1.25V6.4585C1.25 5.7685 1.81 5.2085 2.5 5.2085H17.5C18.19 5.2085 18.75 5.7685 18.75 6.4585V9.5835ZM8.75 11.4585C8.75 11.2297 8.81562 11.0185 8.92312 10.8335H11.0769C11.1844 11.0185 11.25 11.2297 11.25 11.4585C11.25 12.1485 10.69 12.7085 10 12.7085C9.31 12.7085 8.75 12.1485 8.75 11.4585ZM18.75 17.7085C18.75 18.3985 18.19 18.9585 17.5 18.9585H2.5C1.81 18.9585 1.25 18.3985 1.25 17.7085V10.8335H7.58875C7.53625 11.0341 7.5 11.241 7.5 11.4585C7.5 12.8391 8.61938 13.9585 10 13.9585C11.3806 13.9585 12.5 12.8391 12.5 11.4585C12.5 11.241 12.4638 11.0341 12.4113 10.8335H18.75V17.7085ZM7.5 3.3335C7.5 2.9885 7.78 2.7085 8.125 2.7085H11.875C12.22 2.7085 12.5 2.9885 12.5 3.3335V3.9585H7.5V3.3335ZM17.5 3.9585H13.75V2.7085C13.75 2.0185 13.19 1.4585 12.5 1.4585H7.5C6.81 1.4585 6.25 2.0185 6.25 2.7085V3.9585H2.5C1.11937 3.9585 0 5.07787 0 6.4585V17.7085C0 19.0891 1.11937 20.2085 2.5 20.2085H17.5C18.8806 20.2085 20 19.0891 20 17.7085V6.4585C20 5.07787 18.8806 3.9585 17.5 3.9585Z" fill="white"/>
</g>
<defs>
<clipPath id="clip0_2348_3463">
<rect width="20" height="20" fill="white" transform="translate(0 0.833496)"/>
</clipPath>
</defs>
</svg>
