<svg width="37" height="37" viewBox="0 0 37 37" fill="none" xmlns="http://www.w3.org/2000/svg">
<g clip-path="url(#clip0_768_31141)">
<path d="M35.539 16.7391C35.539 8.96206 27.7876 2.63501 18.2589 2.63501C8.73148 2.63501 0.979004 8.96206 0.979004 16.7391C0.979004 23.7112 7.12653 29.5502 15.4305 30.6543C15.9934 30.7762 16.7592 31.0274 16.953 31.5112C17.1273 31.9506 17.0669 32.639 17.0087 33.0828C17.0087 33.0828 16.8059 34.3093 16.7622 34.5704C16.687 35.0099 16.4151 36.289 18.2589 35.5073C20.1033 34.7257 28.2106 29.6137 31.8359 25.4167C34.3402 22.6547 35.539 19.8516 35.539 16.7391Z" fill="white"/>
<path d="M14.9933 12.7139H13.6047C13.3919 12.7139 13.2189 12.8726 13.2189 13.0677V21C13.2189 21.1954 13.3919 21.3539 13.6047 21.3539H14.9933C15.2062 21.3539 15.3789 21.1954 15.3789 21V13.0677C15.3789 12.8726 15.2062 12.7139 14.9933 12.7139Z" fill="#2CCF54"/>
<path d="M23.6808 12.7139H22.4628C22.276 12.7139 22.1245 12.8726 22.1245 13.0677V17.7804L18.657 12.8712C18.5929 12.7703 18.4889 12.7204 18.3754 12.7139H17.1577C16.9709 12.7139 16.8191 12.8726 16.8191 13.0677V21C16.8191 21.1954 16.9709 21.3539 17.1577 21.3539H18.3754C18.5625 21.3539 18.7139 21.1954 18.7139 21V16.2888L22.1858 21.2041C22.2482 21.2968 22.354 21.3539 22.4628 21.3539H23.6808C23.8679 21.3539 24.0191 21.1954 24.0191 21V13.0677C24.0191 12.8726 23.8679 12.7139 23.6808 12.7139Z" fill="#2CCF54"/>
<path d="M12.1483 19.3676H8.70828V13.0685C8.70828 12.8727 8.55085 12.7139 8.35709 12.7139H7.09069C6.89658 12.7139 6.73914 12.8727 6.73914 13.0685V20.999C6.73914 21.1915 6.89588 21.3539 7.09034 21.3539H12.1483C12.3424 21.3539 12.4991 21.1948 12.4991 20.999V19.7221C12.4991 19.5263 12.3424 19.3676 12.1483 19.3676Z" fill="#2CCF54"/>
<path d="M30.1482 14.7002C30.3424 14.7002 30.4991 14.5418 30.4991 14.3457V13.0688C30.4991 12.873 30.3424 12.7139 30.1482 12.7139H25.0907C24.8964 12.7139 24.7391 12.8759 24.7391 13.0685V20.9994C24.7391 21.1913 24.896 21.3539 25.0899 21.3539H30.1482C30.3424 21.3539 30.4991 21.1948 30.4991 20.9994V19.7221C30.4991 19.5267 30.3424 19.3676 30.1482 19.3676H26.7086V18.0269H30.1482C30.3424 18.0269 30.4991 17.868 30.4991 17.6723V16.3955C30.4991 16.1997 30.3424 16.0406 30.1482 16.0406H26.7086V14.7002H30.1482Z" fill="#2CCF54"/>
</g>
<defs>
<clipPath id="clip0_768_31141">
<rect width="36" height="36" fill="white" transform="translate(0.5 0.833252)"/>
</clipPath>
</defs>
</svg>
