<svg width="29" height="29" viewBox="0 0 29 29" fill="none" xmlns="http://www.w3.org/2000/svg">
<path d="M25 7.83325C25 9.76624 23.433 11.3333 21.5 11.3333C19.5669 11.3333 18 9.76624 18 7.83325C18 5.90026 19.5669 4.33325 21.5 4.33325C23.433 4.33325 25 5.90026 25 7.83325Z" stroke="#02257C" stroke-width="1.5"/>
<path d="M10.6318 13.2673L18.3646 9.40088" stroke="#02257C" stroke-width="1.5"/>
<path d="M11 14.8333C11 16.7663 9.43299 18.3333 7.5 18.3333C5.56701 18.3333 4 16.7663 4 14.8333C4 12.9002 5.56701 11.3333 7.5 11.3333C9.43299 11.3333 11 12.9002 11 14.8333Z" stroke="#02257C" stroke-width="1.5"/>
<path d="M18.3682 20.2673L10.6428 16.4045" stroke="#02257C" stroke-width="1.5"/>
<path d="M25 21.8333C25 23.7663 23.433 25.3333 21.5 25.3333C19.5669 25.3333 18 23.7663 18 21.8333C18 19.9002 19.5669 18.3333 21.5 18.3333C23.433 18.3333 25 19.9002 25 21.8333Z" stroke="#02257C" stroke-width="1.5"/>
</svg>
