<svg width="32" height="33" viewBox="0 0 32 33" fill="none" xmlns="http://www.w3.org/2000/svg">
<rect y="0.833496" width="32" height="32" rx="16" fill="#ECF2F8"/>
<g clip-path="url(#clip0_768_31028)">
<path d="M16.0611 8.25635C12.5473 8.25635 9.57144 11.2494 9.57144 14.7942C9.57144 18.5067 13.0209 22.3033 15.3411 24.9717C15.3502 24.9824 15.7252 25.3987 16.187 25.3987H16.2277C16.69 25.3987 17.0623 24.9824 17.0714 24.9717C19.2486 22.4688 22.4286 18.3412 22.4286 14.7942C22.4286 11.2488 20.1073 8.25635 16.0611 8.25635ZM16.2759 24.2528C16.2572 24.2715 16.2298 24.2924 16.2057 24.3101C16.1811 24.293 16.1543 24.2715 16.1345 24.2528L15.8543 23.9303C13.6547 21.4071 10.6423 17.9512 10.6423 14.7937C10.6423 11.8301 13.1238 9.3267 16.0605 9.3267C19.7189 9.3267 21.3566 12.0722 21.3566 14.7937C21.3566 17.1905 19.6472 20.3737 16.2759 24.2528ZM16.0188 11.5001C14.2439 11.5001 12.8045 12.939 12.8045 14.7144C12.8045 16.4897 14.2439 17.9287 16.0188 17.9287C17.7936 17.9287 19.233 16.4892 19.233 14.7144C19.233 12.9396 17.7941 11.5001 16.0188 11.5001ZM16.0188 16.8572C14.837 16.8572 13.8513 15.8726 13.8513 14.6908C13.8513 13.509 14.8123 12.548 15.9941 12.548C17.1764 12.548 18.137 13.509 18.137 14.6908C18.1375 15.8726 17.2011 16.8572 16.0188 16.8572Z" fill="#0671D5"/>
</g>
<defs>
<clipPath id="clip0_768_31028">
<rect width="17.1429" height="17.1429" fill="white" transform="translate(7.42859 8.26221)"/>
</clipPath>
</defs>
</svg>
