<svg width="120" height="121" viewBox="0 0 120 121" fill="none" xmlns="http://www.w3.org/2000/svg">
    <rect y="0.833496" width="120" height="120" rx="60" fill="#ECF6FF"/>
    <path d="M60.6532 89.5024C60.3884 89.7672 59.9911 90.0321 59.5939 90.0321C59.1966 90.0321 58.7994 89.8997 58.5345 89.6348C57.8724 89.1051 57.8724 88.1782 58.4021 87.5161L59.0642 86.854L61.3153 88.8403L60.6532 89.5024Z" fill="#FFF8EF"/>
    <path d="M56.4155 85.6621C55.8858 86.1917 54.9589 86.3242 54.2968 85.7945C54.0319 85.5296 53.7671 85.1324 53.7671 84.7351C53.7671 84.3379 53.8995 83.9406 54.1643 83.6758L54.8264 83.0137L56.9452 85L56.4155 85.6621Z" fill="#FFF8EF"/>
    <path d="M50.8539 79.1738L52.9726 81.1601L52.3105 81.8222C52.0457 82.0871 51.6484 82.2195 51.2511 82.3519C50.8539 82.3519 50.4566 82.2195 50.1918 81.9546C49.9269 81.6898 49.6621 81.2926 49.6621 80.8953C49.6621 80.498 49.7945 80.1008 50.0594 79.8359L50.8539 79.1738Z" fill="#FFF8EF"/>
    <path d="M46.7489 75.4658L48.8676 77.4521L48.2055 78.1142C47.6758 78.6439 46.7489 78.7763 46.0868 78.2466C45.822 77.9818 45.5571 77.5845 45.5571 77.1873C45.5571 76.79 45.6896 76.3928 45.9544 76.1279L46.7489 75.4658Z" fill="#FFF8EF"/>
    <path d="M48.8677 61.2971L58.0047 51.2332L66.2147 50.0414C66.4796 50.0414 66.8768 49.909 67.0093 49.6442L71.3791 44.7446L84.3563 56.6624L80.7809 60.7674C80.6485 61.0323 80.5161 61.1647 80.3837 61.4295L79.1919 69.1099L78.2649 70.1693L67.5389 60.7674C69.6576 60.5026 71.9088 59.4432 73.7627 57.3245L71.7764 55.6031C69.5252 58.119 66.8768 58.5163 64.4933 58.2515L64.3609 58.119V58.2515C61.58 57.7218 59.3289 56.2652 59.1965 56.1327C58.6668 55.7355 57.8723 55.8679 57.475 56.2652L50.9864 63.2834C50.4568 63.9455 49.5298 63.9455 48.8677 63.4158C48.338 62.7537 48.2056 61.8268 48.8677 61.2971Z" fill="#FFF8EF"/>
    <path d="M78.0001 73.4795C78.2649 73.7444 78.5298 74.1416 78.5298 74.5389C78.5298 74.9362 78.3973 75.3334 78.1325 75.5983C77.8677 75.8631 77.4704 75.9955 77.0731 76.1279C76.6759 76.1279 76.2786 75.9955 76.0138 75.7307L74.1599 73.8768L71.3791 71.3608L69.6576 73.3471L69.9225 73.612L72.306 75.8631L74.2923 77.717C74.9544 78.2467 74.9544 79.1736 74.4247 79.8357C73.8951 80.4978 72.9681 80.4978 72.306 79.9681L68.7307 76.6576L67.5389 75.4658L65.8174 77.4521L67.0092 78.5115L70.5846 81.822C71.2467 82.3517 71.2467 83.2786 70.717 83.9407C70.4521 84.2056 70.0549 84.4704 69.6576 84.4704C69.2604 84.4704 68.8631 84.338 68.5983 84.0731L63.8311 79.7033L62.1097 81.6896L62.3745 81.9544L66.8768 86.0594C67.5389 86.5891 67.5389 87.5161 67.0092 88.1782C66.2147 88.7078 65.1553 88.7078 64.6257 88.1782L41.717 67.2558L40.5252 60.5024C40.5252 60.2375 40.2604 59.9727 40.128 59.7079L36.6851 56.6622L48.4704 43.6851L51.2512 46.201C51.5161 46.4659 51.7809 46.5983 52.1782 46.5983L59.991 46.3335L61.7124 48.0549L57.0777 48.717C56.8129 48.717 56.4156 48.8494 56.2832 49.1143L46.749 59.5754C45.1599 61.2969 45.2924 63.9453 47.0138 65.4019C47.8083 66.064 48.8677 66.4613 49.7946 66.4613C50.9864 66.4613 52.0458 66.064 52.8403 65.1371L58.5343 58.9133C59.8585 59.7079 61.4476 60.37 63.3015 60.7672L78.0001 73.4795Z" fill="#FFF8EF"/>
    <path d="M94.0229 46.8631L92.169 45.0092L89.9179 47.5252L91.9042 49.379L94.0229 46.8631ZM80.5161 31.6348L96.9361 46.5982L88.064 56.2649L86.7398 54.9407L90.4476 50.9681L88.4613 49.1142L84.7535 53.0868L71.7764 41.169L80.5161 31.6348Z" fill="#2FB4C2"/>
    <path d="M28.3426 50.4383L30.1965 48.452L27.6805 46.2009L25.959 48.1872L28.3426 50.4383ZM31.9179 50.041L30.0641 52.0273L34.0367 55.7351L32.8449 57.0593L23.1782 48.1872L38.1417 31.7671L47.8083 40.6392L35.8905 53.6164L31.9179 50.041Z" fill="#2FB4C2"/>
    <path d="M94.0226 46.8632L91.7715 49.3791L89.7852 47.5253L92.1687 45.0093L94.0226 46.8632Z" fill="#42210B"/>
    <path d="M30.1964 48.4523L28.3425 50.4386L25.959 48.1875L27.6804 46.2012L30.1964 48.4523Z" fill="#42210B"/>
    <path d="M48.8675 77.3198L46.7488 75.4659L46.0867 76.128C45.8219 76.3928 45.6895 76.7901 45.6895 77.1873C45.6895 77.5846 45.8219 77.9819 46.2191 78.2467C46.8812 78.7764 47.6758 78.7764 48.3379 78.1143L48.8675 77.3198ZM59.5935 89.8997C59.9908 89.8997 60.3881 89.7672 60.6529 89.37L61.315 88.7079L59.0639 86.7216L58.4018 87.3837C57.8721 88.0458 57.8721 88.9727 58.5342 89.5024C58.799 89.7672 59.1963 90.0321 59.5935 89.8997ZM52.9726 81.1599L50.8538 79.1736L50.1917 79.8357C49.9269 80.1006 49.7945 80.4978 49.7945 80.8951C49.7945 81.2924 49.9269 81.6896 50.3242 81.9545C50.589 82.2193 50.9863 82.3517 51.3835 82.3517C51.7808 82.3517 52.178 82.2193 52.4429 81.822L52.9726 81.1599ZM54.4292 85.7946C55.0913 86.3243 55.8858 86.3243 56.5479 85.6622L57.21 85.0001L55.0913 83.0138L54.2968 83.6759C54.0319 83.9408 53.8995 84.338 53.8995 84.7353C53.8995 85.1325 54.1643 85.5298 54.4292 85.7946ZM71.6438 41.3015L84.6209 53.2193L88.3287 49.2467L90.315 51.1006L86.6072 55.0732L87.9314 56.3974L96.8035 46.7308L80.5159 31.6349L71.6438 41.3015ZM80.7807 60.7673L84.4885 56.6623L71.5113 44.7445L67.1415 49.644C66.8766 49.9088 66.6118 50.0413 66.347 50.0413L58.1369 51.233L49 61.297C48.4703 61.959 48.4703 62.886 49.1324 63.4157C49.7945 63.9454 50.7214 63.9453 51.2511 63.2832L57.7397 56.265C58.1369 55.7353 58.9314 55.7353 59.4611 56.1326C59.5935 56.265 61.8447 57.854 64.6255 58.2513V58.1189L64.7579 58.2513C67.0091 58.6486 69.6575 58.1189 72.041 55.6029L74.0273 57.3244C72.041 59.4431 69.9223 60.5024 67.8036 60.7673L78.5296 70.3015L79.4565 69.2421L80.6483 61.5618C80.5159 61.1645 80.6483 61.0321 80.7807 60.7673ZM47.8082 40.6394L38.1415 31.7673L23.1781 48.1874L32.8447 57.0595L34.0365 55.7353L30.0639 52.0276L31.9178 50.0413L35.8904 53.749L47.8082 40.6394ZM41.7169 67.2558L64.6255 88.1782C65.2876 88.7079 66.2145 88.7079 66.7442 88.0458C67.2739 87.3837 67.2739 86.4567 66.6118 85.9271L62.1095 81.822L61.8447 81.5572L63.5661 79.5709L68.3333 83.9408C68.5981 84.2056 68.9954 84.338 69.3926 84.338C69.7899 84.338 70.1871 84.2056 70.452 83.8083C70.9817 83.1462 70.9817 82.2193 70.3196 81.6896L66.7442 78.3791L65.5524 77.3198L67.5387 75.4659L68.7305 76.5252L72.3059 79.8357C72.968 80.3654 73.8949 80.3654 74.4246 79.7033C74.9543 79.0412 74.9543 78.1143 74.2922 77.5846L72.3059 75.7307L69.9223 73.4796L69.6575 73.2147L71.3789 71.2284L74.1597 73.7444L76.146 75.4659C76.4109 75.7307 76.8081 75.8631 77.2054 75.8631C77.6027 75.8631 77.9999 75.7307 78.2648 75.3335C78.5296 75.0686 78.662 74.6714 78.662 74.2741C78.662 73.8768 78.5296 73.4796 78.1323 73.2147L63.5661 60.37C61.7123 59.9727 60.1232 59.3106 58.799 58.5161L52.9726 65.0047C52.178 65.9316 50.9863 66.3289 49.9269 66.3289C48.8675 66.3289 47.9406 65.9316 47.1461 65.2695C45.4246 63.6805 45.2922 61.1645 46.8812 59.4431L56.4155 48.9819C56.6803 48.7171 56.9452 48.5846 57.21 48.5846L61.8447 47.9225L59.9908 46.3335L52.178 46.5983C51.7808 46.5983 51.5159 46.4659 51.2511 46.2011L48.6027 43.6851L36.8173 56.6623L40.2602 59.7079C40.5251 59.8403 40.6575 60.2376 40.6575 60.5024L41.7169 67.2558ZM43.0411 77.1873C43.0411 76.128 43.4383 74.9362 44.2328 74.1417L44.8949 73.4796L39.5981 68.8449C39.3333 68.58 39.2009 68.3152 39.2009 68.0504L38.0091 61.297L34.9634 58.5161L33.9041 59.7079C33.6392 59.9727 33.242 60.1052 32.9771 60.1052C32.7123 60.1052 32.3151 59.9727 32.0502 59.7079L20.3973 49.1143C20.1324 48.8495 20 48.5846 20 48.1874C20 47.7901 20.1324 47.5253 20.3973 47.2604L37.0822 28.9865C37.347 28.7216 37.6118 28.5892 38.0091 28.5892C38.4064 28.5892 38.6712 28.7216 38.936 28.9865L50.589 39.7125C51.1187 40.2422 51.1187 41.0367 50.7214 41.5664L50.3242 41.8312L52.7077 43.9499L60.5205 43.6851C60.9177 43.6851 61.1826 43.8175 61.4474 44.0824L65.1552 47.6577H65.42L69.525 43.1554L68.8629 42.3609C68.5981 42.0961 68.4657 41.8312 68.4657 41.434C68.4657 41.0367 68.5981 40.7719 68.8629 40.507L79.4565 28.8541C79.9862 28.3244 80.7807 28.3244 81.3104 28.7216L99.5844 45.4066C100.114 45.9362 100.114 46.7308 99.7168 47.2604L89.1232 58.9134C88.8583 59.1782 88.5935 59.3107 88.1962 59.3107C87.799 59.3107 87.5341 59.1782 87.2693 58.9134L86.6072 58.2513L83.0319 62.2239L81.8401 69.9042C81.8401 70.1691 81.7077 70.4339 81.4428 70.5663L80.1186 71.8905C80.6483 72.5526 81.0456 73.3472 81.0456 74.2741C81.0456 75.4659 80.7807 76.5252 79.9862 77.3198C79.3241 78.1143 78.2648 78.5115 77.2054 78.644C77.2054 79.7033 76.8081 80.6303 76.146 81.4248C75.4839 82.2193 74.4246 82.6166 73.3652 82.749C73.3652 83.8083 72.968 84.7353 72.3059 85.5298C71.6438 86.3243 70.5844 86.7216 69.525 86.854C69.525 87.9134 69.1278 88.8403 68.4657 89.7672C67.6712 90.6942 66.4794 91.0914 65.42 91.0914C64.6255 91.0914 63.831 90.8266 63.1689 90.4293L62.5068 91.2239C61.7123 92.0184 60.7853 92.548 59.5935 92.548H59.4611C58.4018 92.548 57.4748 92.1508 56.6803 91.4887C55.8858 90.8266 55.4885 89.7672 55.3561 88.8403C54.2968 88.8403 53.3698 88.443 52.5753 87.7809C51.7808 87.1188 51.3835 86.0595 51.2511 85.1325C50.1917 85.1325 49.2648 84.7353 48.4703 84.0732C47.6758 83.4111 47.2785 82.3517 47.1461 81.4248C46.0867 81.4248 45.1598 81.0275 44.3653 80.3654C43.4383 79.4385 43.0411 78.3791 43.0411 77.1873Z" fill="#42210B"/>
    <path d="M38.1413 31.7671L27.0181 43.8173L36.2875 36.0045C37.4792 34.9452 39.3331 34.9452 40.5249 35.8721L47.4107 40.7716L47.6756 40.5068L38.1413 31.7671Z" fill="#1D9AAE"/>
    <path d="M72.5703 40.242L79.1913 35.6073C80.2507 34.9452 81.5749 34.8127 82.5018 35.6073L90.9767 41.3013L80.5155 31.7671L72.5703 40.242Z" fill="#1D9AAE"/>
    <path d="M44.4975 68.1827C43.1733 66.8585 42.1139 65.2695 41.7167 63.4156L41.0546 60.8996L40.5249 60.6348L41.7167 67.2558L64.6253 88.1781C65.0226 88.5754 65.5523 88.5754 65.9495 88.4429L44.4975 68.1827Z" fill="#D9CDC1"/>
    <path d="M79.4565 59.5756L78.1323 67.5208L76.8081 68.845V68.9774L78.2647 70.3016L79.1917 69.2423L80.3834 61.5619C80.3834 61.2971 80.5159 61.0322 80.7807 60.8998L84.4885 56.7948L83.4291 55.603L79.4565 59.5756Z" fill="#D9CDC1"/>
</svg>
